<svg id="Layer_1" data-name="Layer 1" xmlns="http://www.w3.org/2000/svg" viewBox="0 0 16 16">
  <path d="M16,7.5049a2.1617,2.1617,0,0,0-1.2251-1.9575l-.2578-.1211-.36.2461A1.5506,1.5506,0,0,1,13,6a1.5506,1.5506,0,0,1-1.1572-.3276l-.36-.2461-.2578.1211a2.0765,2.0765,0,0,0-.5313.3657A2.679,2.679,0,0,0,10.4,5.7476l-.2578-.1211-.4067.2788A2.3526,2.3526,0,0,1,8,6.4a2.3526,2.3526,0,0,1-1.7354-.4946l-.4067-.2788L5.6,5.7476a2.679,2.679,0,0,0-.2939.1655,2.0765,2.0765,0,0,0-.5313-.3657l-.2578-.1211-.36.2461A1.5506,1.5506,0,0,1,3,6a1.5506,1.5506,0,0,1-1.1572-.3276l-.36-.2461-.2578.1211A2.1617,2.1617,0,0,0,0,7.5049V11.5H4V14H8.6857c.6589,1.992,1.04,2,1.3128,2,.5235,0,4.4419-.7812,5.2222-.938l.292-.0586.0874-.2851a9.1083,9.1083,0,0,0,.3979-2.8623V11H16Z" class="aw-theme-iconOutline" fill="#464646"/>
    <path d="M3,5.5c-1.1265,0-2-1.3271-2-2.4688A2.0179,2.0179,0,0,1,3,1,2.0179,2.0179,0,0,1,5,3.0312C5,4.1729,4.1265,5.5,3,5.5Z" class="aw-theme-iconOutline" fill="#464646"/>
    <path d="M3,5.5c-1.1265,0-2-1.3271-2-2.4688A2.0179,2.0179,0,0,1,3,1,2.0179,2.0179,0,0,1,5,3.0312C5,4.1729,4.1265,5.5,3,5.5Z" class="aw-theme-iconOutline" fill="#464646"/>
  <path d="M3,2A1.0171,1.0171,0,0,0,2,3.0312C2,3.6455,2.5039,4.5,3,4.5s1-.8545,1-1.4688A1.0171,1.0171,0,0,0,3,2Z" fill="#8cc3d2"/>
  <path d="M13,5.5c-1.1265,0-2-1.3271-2-2.4688a2,2,0,1,1,4,0C15,4.1729,14.1265,5.5,13,5.5Z" class="aw-theme-iconOutline" fill="#464646"/>
  <path d="M8,5.6665c-1.3848,0-2.5-1.71-2.5-3.125a2.5,2.5,0,1,1,5,0C10.5,3.957,9.3848,5.6665,8,5.6665Z" class="aw-theme-iconOutline" fill="#464646"/>
  <path d="M8,1A1.5228,1.5228,0,0,0,6.5,2.5415c0,.9082.7417,2.125,1.5,2.125S9.5,3.45,9.5,2.5415A1.5228,1.5228,0,0,0,8,1Z" fill="#8cc3d2"/>
  <path d="M13,2a1.0171,1.0171,0,0,0-1,1.0312C12,3.6455,12.5039,4.5,13,4.5s1-.8545,1-1.4688A1.0171,1.0171,0,0,0,13,2Z" fill="#8cc3d2"/>
  <path d="M4,8.3066A2.859,2.859,0,0,1,4.5713,6.6,2.4864,2.4864,0,0,1,3,7a2.4864,2.4864,0,0,1-1.5762-.4033A1.1929,1.1929,0,0,0,1,7.5049V10.5H4Z" fill="#8cc3d2"/>
    <path d="M5.9985,9h4.1582a2.4878,2.4878,0,0,1,.1821-2.0973c-.0427-.0362-.0789-.08-.1249-.1122A3.282,3.282,0,0,1,8,7.4a3.282,3.282,0,0,1-2.2139-.6094A1.8667,1.8667,0,0,0,5,8.3066V10.5C5,9.603,5.4014,9,5.9985,9Z" fill="#8cc3d2"/>
    <path d="M8.1094,12H5.9985C5.4014,12,5,11.397,5,10.5V13H8.3809C8.2942,12.6953,8.2047,12.37,8.1094,12Z" fill="#8cc3d2"/>
  <path d="M13.7729,8.8052H15v-1.3a1.1929,1.1929,0,0,0-.4238-.9082A2.4864,2.4864,0,0,1,13,7c-.1151,0-.2027-.01-.3011-.0153C13.0682,7.668,13.5371,8.431,13.7729,8.8052Z" fill="#8cc3d2"/>
  <path d="M13.2256,9.8052l-.1475-.229c-.04-.062-.9541-1.481-1.4746-2.522a.9406.9406,0,0,0-.4082.3569,1.8986,1.8986,0,0,0,.1489,1.8628L11.7129,10H6.085a1.5135,1.5135,0,0,0,0,1H11v1H9.1456c.0912.3373.1881.6756.2858,1H11v1H9.7538a6.2594,6.2594,0,0,0,.4064.9844c.663-.0855,2.8852-.5083,4.5649-.8433a8.1,8.1,0,0,0,.2729-2.2744V9.8052Z" fill="#e2e2e2"/>
</svg>
