<svg id="Layer_1" data-name="Layer 1" xmlns="http://www.w3.org/2000/svg" viewBox="0 0 16 16">
  <path d="M16,16H6V11A3.2479,3.2479,0,0,1,7.9888,8.041l.2417-.1045.2231.14c.1465.0922.2793.1855.4092.2773A3.0143,3.0143,0,0,0,11,9a3.0143,3.0143,0,0,0,2.1372-.646c.13-.0918.2627-.1851.4092-.2773l.2231-.14.2417.1045A3.2479,3.2479,0,0,1,16,11Z" class="aw-theme-iconOutline" fill="#464646"/>
  <path d="M11.752,2.0959l.0329-.0415A1,1,0,0,0,11.7071.7277L11.2723.2929a1,1,0,0,0-1.4142,0L4.25,5.9011,1.8287,4.8635a1,1,0,0,0-1.101.212L.2929,5.51a1,1,0,0,0,0,1.4142l3.4783,3.4783a1,1,0,0,0,.707.2928c.0195,0,.039-.0005.0586-.0017a1,1,0,0,0,.7263-.3786l3.189-4.0394A3.0749,3.0749,0,0,0,11,8a3.3934,3.3934,0,0,0,3-3.3125A2.7583,2.7583,0,0,0,11.752,2.0959Z" class="aw-theme-iconOutline" fill="#464646"/>
  <path d="M11,3A1.8657,1.8657,0,0,0,9,4.6875C9,5.6006,9.896,7,11,7s2-1.3994,2-2.3125A1.8657,1.8657,0,0,0,11,3Z" fill="#8cc3d2"/>
  <path d="M13.8481,9.0767l-.1342.0942A3.96,3.96,0,0,1,11,10a3.96,3.96,0,0,1-2.7139-.8291l-.1342-.0942A2.2635,2.2635,0,0,0,7,11v4H8V12H9v3h4V12h1v3h1V11A2.2635,2.2635,0,0,0,13.8481,9.0767Z" fill="#8cc3d2"/>
  <path d="M8,4.6875a2.7947,2.7947,0,0,1,2.5194-2.644L11,1.4348,10.5652,1,4.4783,7.0869,1.4348,5.7826,1,6.2174,4.4783,9.6956,8.0511,5.17A2.83,2.83,0,0,1,8,4.6875Z" fill="#3caf82"/>
</svg>
