<svg id="Layer_1" data-name="Layer 1" xmlns="http://www.w3.org/2000/svg" viewBox="0 0 16 16">
  <path d="M14,5V.822L13.738.68C11.581-.484,9.452.055,7.278.763l-.43.142C4.817,1.575,2.894,2.191,1,1.313V0H0V16H1V11.65A5.681,5.681,0,0,0,3,12H3v4H16V5Z" fill="#464646"/>
  <path d="M3,5H13V1.428c-1.726-.8-3.476-.345-5.412.286l-.427.14c-2,.659-4.059,1.338-6.161.56V10.57a4.676,4.676,0,0,0,2,.423Z" fill="#fa0000"/>
  <rect x="4" y="6" width="11" height="9" fill="#fff"/>
  <path d="M12,14a2,2,0,0,1-2-2V9a2,2,0,0,1,4,0v3A2,2,0,0,1,12,14Zm0-6a1,1,0,0,0-1,1v3a1,1,0,0,0,2,0V9A1,1,0,0,0,12,8Z" fill="#464646"/>
  <path d="M8.994,9A1.994,1.994,0,1,0,7,10.994a1.969,1.969,0,0,0,1-.279V12a1,1,0,0,1-2,0H5a2,2,0,0,0,4,0V9ZM7,10.006A1.006,1.006,0,1,1,8.006,9H8v.031A1,1,0,0,1,7,10.006Z" fill="#464646"/>
</svg>
