<svg id="Layer_1" data-name="Layer 1" xmlns="http://www.w3.org/2000/svg" viewBox="0 0 16 16">
  <path d="M11.8262,14.6816a.4956.4956,0,0,1-.1675-.0288L7.5,13.1743,3.3413,14.6528a.5005.5005,0,0,1-.6675-.4848l.1211-4.4121L.1035,6.2573a.5.5,0,0,1,.2554-.7842L4.5923,4.2256,7.0874.5845a.52.52,0,0,1,.8252,0l2.4951,3.6411,4.2334,1.2475a.5.5,0,0,1,.2554.7842L12.2051,9.7559l.1211,4.4121a.5007.5007,0,0,1-.5.5136Z" fill="#464646"/>
  <path d="M7.5,12.1436a.5043.5043,0,0,1,.1675.0288l3.6387,1.2939L11.2,9.6055a.5024.5024,0,0,1,.1035-.3184l2.355-3.061L9.9546,5.1343a.4993.4993,0,0,1-.2715-.1968L7.5,1.7515,5.3169,4.9375a.4993.4993,0,0,1-.2715.1968L1.3413,6.2261l2.355,3.061A.5024.5024,0,0,1,3.8,9.6055l-.106,3.8608,3.6387-1.2939A.5043.5043,0,0,1,7.5,12.1436Z" fill="#fa142d"/>
  <path d="M8.207,8.5,9.8535,6.8535a.5.5,0,0,0-.707-.707L7.5,7.793,5.8535,6.1465a.5.5,0,0,0-.707.707L6.793,8.5,5.1465,10.1465a.5.5,0,1,0,.707.707L7.5,9.207l1.6465,1.6465a.5.5,0,0,0,.707-.707Z" fill="#fff"/>
</svg>
