<?xml version="1.0" encoding="UTF-8"?>
<svg id="Layer_1" data-name="Layer 1" xmlns="http://www.w3.org/2000/svg" viewBox="0 0 16 16">
  <path d="M13.6613,2l-.4533-2L5.8066,1.6454l-.6577-1.1566c-.1992-.3062-.5361-.4888-.9014-.4888H1.1001C.4937,0,0,.4937,0,1.1001V14H7.7618c.8083,1.2047,2.1815,2,3.7382,2s2.9299-.7953,3.7382-2h.7618V2h-2.3387Z" class="aw-theme-iconOutline" fill="#464646"/>
  <polygon points="2.751 4 13.0894 4 12.4531 1.1963 2.6079 3.3813 2.751 4" fill="#fff"/>
  <g>
    <path d="M1.4067,2.6235l3.3821-.7508-.4935-.8727H1.1001c-.0552,0-.1001,.0449-.1001,.1001v2.8999h.7244l-.3176-1.3765Z" fill="#dcdcdc"/>
    <polygon points="13.8876 3 14.1144 4 15 4 15 3 13.8876 3" fill="#dcdcdc"/>
  </g>
  <circle cx="11.5" cy="11.5" r="3.5" fill="#fff"/>
  <rect x="9" y="11" width="5" height="1" class="aw-theme-iconOutline" fill="#464646"/>
  <path d="M7,11.5c0-2.4814,2.0186-4.5,4.5-4.5,1.4209,0,2.6747,.6749,3.5,1.7065v-3.7065H1V13H7.2764c-.1681-.4715-.2764-.9715-.2764-1.5Z" fill="#dcdcdc"/>
</svg>