<svg id="Layer_1" data-name="Layer 1" xmlns="http://www.w3.org/2000/svg" viewBox="0 0 16 16">
  <g id="g832">
    <path id="path820" d="M3.5,8V4H5.341l.572,2.374c.314,1.306.59,2.46.613,2.564.045.209.109.574.13.744s.028.2.044.2.024-.046.039-.136c.036-.228.107-.611.141-.766.031-.139,1.181-4.914,1.195-4.961C8.082,4,8.136,4,8.977,4h.9v8H8.639l0-2.946c0-2.2.009-3.02.021-3.235.009-.159.013-.3.009-.311-.019-.048-.036.016-.071.258-.046.315-.082.53-.121.71C8.455,6.6,7.2,11.819,7.164,11.95L7.151,12H6.136l-.014-.054c-.085-.315-1.341-5.418-1.361-5.526-.014-.08-.051-.317-.081-.526-.051-.35-.067-.423-.091-.4-.005,0,0,.208.007.451.028.791.038,1.8.039,3.947V12H3.5Z" fill="#9b1e5a"/>
    <path id="path822" d="M11.144,8V4H12.4v8H11.144Z" fill="#9b1e5a"/>
    <path id="rect815" d="M0,0H16V1H0Z" fill="#9b1e5a"/>
    <path id="rect815-4" d="M0,15H16v1H0Z" fill="#9b1e5a"/>
    <path id="rect815-4-3" d="M1,0V16H0V0Z" fill="#9b1e5a"/>
    <path id="rect815-4-30" d="M15,0V16h1V0Z" fill="#9b1e5a"/>
  </g>
</svg>
