<?xml version="1.0" encoding="UTF-8"?>
<svg id="Layer_1" data-name="Layer 1" xmlns="http://www.w3.org/2000/svg" viewBox="0 0 16 16">
  <path d="M15.8535,.8535c.1953-.1953,.1953-.5117,0-.707s-.5117-.1953-.707,0l-1.8627,1.8627c-1.411-1.246-3.2579-2.0092-5.2838-2.0092C3.5889,0,0,3.5889,0,8c0,2.0259,.7631,3.8728,2.0092,5.2838L.1465,15.1465c-.1953,.1953-.1953,.5117,0,.707,.0977,.0977,.2256,.1465,.3535,.1465s.2559-.0488,.3535-.1465l1.8627-1.8627c1.411,1.246,3.2579,2.0092,5.2838,2.0092,4.4111,0,8-3.5889,8-8,0-2.0259-.7631-3.8728-2.0092-5.2838l1.8627-1.8627Z" class="aw-theme-iconOutline" fill="#464646"/>
  <path d="M13.2841,3.4229l-3.5771,3.5771h3.293v1h-4.5c-.0651,0-.1298-.0132-.1909-.0385-.1224-.0507-.22-.1482-.2706-.2706-.0253-.0611-.0385-.1259-.0385-.1909V3h1v3.293l3.5771-3.5771c-1.2286-1.0657-2.8268-1.7159-4.5771-1.7159C4.1401,1,1,4.1401,1,8c0,1.7503,.6502,3.3484,1.7159,4.5771l3.5771-3.5771H3v-1H7.5c.0651,0,.1298,.0132,.1909,.0385,.1224,.0507,.22,.1482,.2706,.2706,.0253,.0611,.0385,.1259,.0385,.1909v4.5h-1v-3.293l-3.5771,3.5771c1.2286,1.0657,2.8268,1.7159,4.5771,1.7159,3.8599,0,7-3.1401,7-7,0-1.7503-.6502-3.3484-1.7159-4.5771Z" fill="#dcdcdc"/>
</svg>