<svg id="Layer_1" data-name="Layer 1" xmlns="http://www.w3.org/2000/svg" viewBox="0 0 16 16">
  <path d="M15.75,8.15,13,6.5621V1.5A1.5017,1.5017,0,0,0,11.5,0H1.5A1.5017,1.5017,0,0,0,0,1.5v10A1.5017,1.5017,0,0,0,1.5,13H7v.1865a.5.5,0,0,0,.25.4326l4,2.3135a.4992.4992,0,0,0,.501,0l4-2.313A.5.5,0,0,0,16,13.187V8.583A.5.5,0,0,0,15.75,8.15Z" fill="#464646"/>
  <path d="M7,8.5825A.5.5,0,0,1,7.25,8.15l3.9932-2.313a.501.501,0,0,1,.5005,0L12,5.9847V4H1v7.5a.5.5,0,0,0,.5.5H7Z" fill="#6e6e6e"/>
  <polygon points="8 12.898 11.5 14.922 15 12.898 15 8.872 11.494 6.847 8 8.871 8 12.898" fill="#f58c14"/>
  <path d="M11.5244,10.3506c.2354-.1758.44-.3277.44-.5674,0-.248-.1748-.4561-.5927-.4561a1.197,1.197,0,0,0-.9346.4961l-.6152-.728a2.1272,2.1272,0,0,1,1.664-.7754c.98,0,1.5811.52,1.5811,1.2632A1.4664,1.4664,0,0,1,12.3,10.8306c-.2666.208-.5019.3838-.5019.68a.4951.4951,0,0,0,.1367.3359l-.8282.2559a1.0555,1.0555,0,0,1-.2509-.7042A1.2791,1.2791,0,0,1,11.5244,10.3506Zm-.0527,2.1748a.6485.6485,0,1,1-.6162.6479A.64.64,0,0,1,11.4717,12.5254Z" fill="#fff"/>
  <path d="M12,4V1.5a.5.5,0,0,0-.5-.5H1.5a.5.5,0,0,0-.5.5V4Z" fill="#c3c3c3"/>
  <path d="M4,2.5A.5.5,0,1,1,3.5,2,.5.5,0,0,1,4,2.5Z" fill="#6e6e6e"/>
  <path d="M10,2.5A.5.5,0,1,1,9.5,2,.5.5,0,0,1,10,2.5Z" fill="#6e6e6e"/>
  <rect x="1" y="5" width="3" height="3" fill="#efefef"/>
  <path d="M1.5,12H4V9H1v2.5A.5.5,0,0,0,1.5,12Z" fill="#efefef"/>
  <path d="M11.2427,5.8369a.501.501,0,0,1,.5005,0L12,5.9847V5H9V7.136Z" fill="#efefef"/>
  <rect x="5" y="8.9999" width="2" height="3" fill="#efefef"/>
  <polygon points="8 7.715 8 5 5 5 5 8 7.508 8 8 7.715" fill="#efefef"/>
</svg>
