<svg id="Layer_1" data-name="Layer 1" xmlns="http://www.w3.org/2000/svg" viewBox="0 0 16 16">
  <path d="M2,12a2,2,0,1,0,2,2,2.0022,2.0022,0,0,0-2-2Z" fill="#464646"/>
  <path d="M8,13H5v-.5a1.5015,1.5015,0,0,0-1.5-1.4995H3v-3h.5A4.5048,4.5048,0,0,1,8,12.5Z" fill="#464646"/>
  <path d="M12,13H9v-.5A5.5061,5.5061,0,0,0,3.5,7.0005H3V4h.5A8.51,8.51,0,0,1,12,12.5Z" fill="#464646"/>
  <path d="M16,13H13v-.5A9.5107,9.5107,0,0,0,3.5,3.0005H3V0h.5A12.5141,12.5141,0,0,1,16,12.5Z" fill="#464646"/>
  <path d="M5.95,12H6.9644A3.5075,3.5075,0,0,0,4,9.0361v1.0147A2.5069,2.5069,0,0,1,5.95,12Z" fill="#3caf82"/>
  <path d="M9.981,12h1.0024A7.5115,7.5115,0,0,0,4,5.0166V6.02A6.5106,6.5106,0,0,1,9.981,12Z" fill="#3caf82"/>
  <path d="M13.9883,12h1.001A11.5163,11.5163,0,0,0,4,1.0107V2.0122A10.5139,10.5139,0,0,1,13.9883,12Z" fill="#3caf82"/>
  <path d="M2,13a1,1,0,1,1-1,1,1,1,0,0,1,1-1" fill="#3caf82"/>
</svg>
