<svg id="Layer_1" data-name="Layer 1" xmlns="http://www.w3.org/2000/svg" viewBox="0 0 16 16">
  <path d="M8,16a2.0091,2.0091,0,0,1-2-2.0142,2,2,0,0,1,4,0A2.0091,2.0091,0,0,1,8,16Z" fill="#464646"/>
  <path d="M14.8535.1465a.5.5,0,0,0-.707,0L10.6278,3.665l.0587-.6875A2.7365,2.7365,0,0,0,9.9834.8887a2.8206,2.8206,0,0,0-4.04.0088,2.7355,2.7355,0,0,0-.6933,2.1l.5163,5.5287-4.62,4.62a.5.5,0,1,0,.707.707l4.055-4.0548A2.1346,2.1346,0,0,0,10.126,9.542l.37-4.3309L14.8535.8535A.5.5,0,0,0,14.8535.1465Z" fill="#464646"/>
    <path d="M6.8065,8.9l.0529.5656A1.14,1.14,0,0,0,9.13,9.457l.2687-3.1488Z" fill="#ff8000"/>
    <path d="M9.5306,4.7622,9.69,2.89a1.73,1.73,0,1,0-3.4443.0118l.44,4.7056Z" fill="#ff8000"/>
  <path d="M8,13a.9712.9712,0,0,0-1,.9863,1,1,0,1,0,2,0A.9712.9712,0,0,0,8,13Z" fill="#ff8000"/>
</svg>
