<svg id="Layer_1" data-name="Layer 1" xmlns="http://www.w3.org/2000/svg" viewBox="0 0 16 16">
  <path d="M2,12a2,2,0,1,0,2,2,2.0021,2.0021,0,0,0-2-2Z" class="aw-theme-iconOutline" fill="#464646"/>
  <path d="M16,12.5c0-.2255-.022-.4454-.0338-.6679a4.4983,4.4983,0,0,0-.195-1.6805A12.5151,12.5151,0,0,0,3.5,0H3V3.0005h.5a9.4885,9.4885,0,0,1,7.751,4.0257,4.504,4.504,0,0,0-1.0958.2018A8.4831,8.4831,0,0,0,3.5,4H3V7h.5A5.4912,5.4912,0,0,1,7.75,9.0135a4.4286,4.4286,0,0,0-.4889,1.0287A4.4941,4.4941,0,0,0,3.5,8H3v3.0005h.5A1.5015,1.5015,0,0,1,5,12.5V13H7.2736a4.471,4.471,0,0,0,8.4528,0H16Z" class="aw-theme-iconOutline" fill="#464646"/>
  <path d="M5.95,12H6.9644A3.5075,3.5075,0,0,0,4,9.0356v1.0152A2.5069,2.5069,0,0,1,5.95,12Z" fill="#e2e2e2"/>
  <path d="M12.51,7.129a4.4574,4.4574,0,0,1,1.4516.6053A11.5179,11.5179,0,0,0,4,1.0107V2.0122A10.5014,10.5014,0,0,1,12.51,7.129Z" fill="#e2e2e2"/>
  <path d="M8.3905,8.2586a4.4627,4.4627,0,0,1,.8184-.6138A7.4871,7.4871,0,0,0,4,5.0166V6.019A6.4671,6.4671,0,0,1,8.3905,8.2586Z" fill="#e2e2e2"/>
  <path d="M11.5,8.002a3.498,3.498,0,1,0,2.4751,1.0229A3.49,3.49,0,0,0,11.5,8.002Z" fill="#cf3339"/>
  <rect x="9.3787" y="11.0001" width="4.2426" height="0.9999" transform="translate(-4.7635 11.5) rotate(-45)" fill="#fff"/>
  <path d="M2,13a1,1,0,1,1-1,1,1,1,0,0,1,1-1" fill="#e2e2e2"/>
</svg>
