<svg id="Layer_1" data-name="Layer 1" xmlns="http://www.w3.org/2000/svg" viewBox="0 0 16 16">
  <path d="M14.8535,2.8535a.5.5,0,1,0-.707-.707L12.5771,3.7159A6.9872,6.9872,0,0,0,10,2.2948V1h.5a.5.5,0,0,0,0-1h-5a.5.5,0,0,0,0,1H6V2.2948a7.0114,7.0114,0,1,0,7.2841,2.1281ZM7,2.08V1H9V2.08A7.0007,7.0007,0,0,0,8,2,7.0007,7.0007,0,0,0,7,2.08Z" fill="#464646"/>
  <circle cx="8" cy="9" r="6" fill="#fff"/>
  <circle cx="8" cy="9" r="5" fill="#fa142d"/>
  <path d="M8,9.5a.5.5,0,0,1-.3535-.8535l2.5-2.5a.5.5,0,0,1,.707.707l-2.5,2.5A.4981.4981,0,0,1,8,9.5Z" fill="#fff"/>
</svg>
