<svg version="1.1" id="Layer_1" xmlns="http://www.w3.org/2000/svg" xmlns:xlink="http://www.w3.org/1999/xlink" x="0px" y="0px"
	 viewBox="0 0 16 16" style="enable-background:new 0 0 16 16;" xml:space="preserve">
<g>
	<path fill="#006487" d="M8,16c-4.411,0-8-3.589-8-8s3.589-8,8-8s8,3.589,8,8S12.411,16,8,16z M8,1.778
		C4.569,1.778,1.778,4.569,1.778,8S4.569,14.222,8,14.222S14.222,11.431,14.222,8S11.431,1.778,8,1.778z"/>
</g>
<g>
	<path fill="#006487" d="M6.582,12.689c-1.163-1.163-2.337-2.338-3.522-3.523c0.28-0.258,0.987-0.942,1.277-1.21
		c0.816,0.826,1.377,1.421,2.24,2.293c2.364-2.365,3.38-3.381,5.681-5.683c0.377,0.39,0.971,0.97,1.22,1.227
		C10.892,8.378,9.169,10.101,6.582,12.689z"/>
</g>
</svg>
