<svg id="Layer_1" data-name="Layer 1" xmlns="http://www.w3.org/2000/svg" viewBox="0 0 16 16">
  <path d="M15.856,5.17l-2.98-3.021A.5.5,0,0,0,12.52,2H9.58L9.124,1.2015l-.8682.4962L7.7267,2H7V0H4V2H3.2733l-.5291-.3023L1.876,1.2015,1.38,2.07l-.4961.8681-.4961.8683.8682.4961L2,4.727v.5468l-.7442.4239-.8682.4961.4961.8683L1.38,7.93l.4962.8683L2,8.7276V15.5a.5.5,0,0,0,.5.5h13a.5.5,0,0,0,.5-.5V5.521A.5.5,0,0,0,15.856,5.17Z" fill="#464646"/>
  <polyline points="6 1 6 4.138 8.752 2.566 9.248 3.434 6.508 5 9.248 6.566 8.752 7.434 6 5.862 6 9 5 9 5 5.862 2.248 7.434 1.752 6.566 4.492 5 1.752 3.434 2.248 2.566 5 4.138 5 1 6 1" fill="#ffcd50"/>
    <polygon points="7 7.585 7 8 7.727 8 7 7.585" fill="#3c91af"/>
    <polygon points="4 7.585 3 8.156 3 15 4 15 4 7.585" fill="#3c91af"/>
    <path d="M13,3.6989V6.5a.5.5,0,0,1-.5.5H10.1517l-.0354.0621L9.62,7.93,9.58,8H12.5A1.5017,1.5017,0,0,1,14,9.5V15h1V5.7261Z" fill="#3c91af"/>
  <path d="M12.5,9H7v1H5v5h8V9.5A.5.5,0,0,0,12.5,9Z" fill="#fff"/>
  <rect x="6" y="10" width="6" height="1" fill="#c6c6c6"/>
  <rect x="6" y="12" width="6" height="1" fill="#c6c6c6"/>
  <polygon points="11 3 11 5 10 5 10 4.156 9.744 4.302 8.523 5 9.744 5.698 10.273 6 12 6 12 3 11 3" fill="#c6c6c6"/>
</svg>
