<svg id="Layer_1" data-name="Layer 1" xmlns="http://www.w3.org/2000/svg" viewBox="0 0 24 24">
  <g>
    <circle cx="12" cy="12" r="11.489" fill="#f58d1f"/>
    <path d="M12,24A12,12,0,1,1,24,12,12.013,12.013,0,0,1,12,24ZM12,1.021A10.979,10.979,0,1,0,22.979,12,10.991,10.991,0,0,0,12,1.021Z" fill="#464647"/>
  </g>
  <path d="M15.505,11.153c-.082,0-.159.019-.24.024L11.709,4.97,10.654,6.812l2.856,4.974a3.489,3.489,0,0,0-1.5,2.862c0,.071.016.137.021.207H8.149L10.5,10.748,9.451,8.912,5,16.681h7.675a3.491,3.491,0,1,0,2.83-5.528ZM14.839,17l-.373-.446L13.3,15.15l-.085-.1.64-.507.5.609.487.591.477-.591.193-.24.942-1.168.841-1.041.613.507-1.031,1.273L15.2,16.549Z" fill="#fff"/>
</svg>
