<svg id="Layer_3" data-name="Layer 3" xmlns="http://www.w3.org/2000/svg" viewBox="0 0 16 16">
  <rect x="1" y="1" width="14" height="14" fill="#41a9c7"/>
    <rect x="5" width="2" height="1" fill="#464646"/>
    <rect x="9" width="2" height="1" fill="#464646"/>
    <rect x="5" y="15" width="2" height="1" fill="#464646"/>
    <rect x="9" y="15" width="2" height="1" fill="#464646"/>
    <polygon points="0 0 0 3 1 3 1 1 3 1 3 0 0 0" fill="#464646"/>
    <rect y="5" width="1" height="2" fill="#464646"/>
    <rect y="9" width="1" height="2" fill="#464646"/>
    <polygon points="1 13 0 13 0 16 3 16 3 15 1 15 1 13" fill="#464646"/>
    <polygon points="13 0 13 1 15 1 15 3 16 3 16 0 13 0" fill="#464646"/>
    <rect x="15" y="5" width="1" height="2" fill="#464646"/>
    <rect x="15" y="9" width="1" height="2" fill="#464646"/>
    <polygon points="15 15 13 15 13 16 16 16 16 13 15 13 15 15" fill="#464646"/>
  <path d="M8,3a5,5,0,1,0,5,5A5.0059,5.0059,0,0,0,8,3Z" fill="#474747"/>
  <path d="M8,12a3.96,3.96,0,0,1-2.4545-.8654l5.5891-5.5891A3.96,3.96,0,0,1,12,8,4.0045,4.0045,0,0,1,8,12Z" fill="#fff"/>
  <path d="M4,8A4.0045,4.0045,0,0,1,8,4a3.96,3.96,0,0,1,2.425.8411L4.8411,10.425A3.96,3.96,0,0,1,4,8Z" fill="#fff"/>
</svg>
