<svg id="Layer_1" data-name="Layer 1" xmlns="http://www.w3.org/2000/svg" viewBox="0 0 16 16">
  <circle cx="8" cy="8" r="7.5" fill="#ffcd50"/>
  <path d="M8,16a8,8,0,1,1,8-8A8.009,8.009,0,0,1,8,16ZM8,1a7,7,0,1,0,7,7A7.009,7.009,0,0,0,8,1Z" fill="#464647"/>
  <path d="M10.946,6.12l-.248.969.6.154A7.392,7.392,0,0,0,9.451,8.892,2.5,2.5,0,0,0,8.5,8.469v-4.1l.863.9.723-.692-2.1-2.19L5.9,4.559l.721.691L7.5,4.335V8.468a2.512,2.512,0,0,0-.964.422A7.392,7.392,0,0,0,4.685,7.247L5.3,7.089,5.056,6.12l-2.4.614.63,2.32.965-.262L4.04,8.02A6.419,6.419,0,0,1,5.847,9.632a2.519,2.519,0,1,0,4.291.006,6.451,6.451,0,0,1,1.826-1.632l-.213.786.965.262.632-2.32ZM9.51,10.937a1.519,1.519,0,0,1-3.037,0,1.458,1.458,0,0,1,.02-.2,1.508,1.508,0,0,1,.6-1.02,1.524,1.524,0,0,1,.4-.211,1.412,1.412,0,0,1,1,.005,1.469,1.469,0,0,1,.393.209,1.513,1.513,0,0,1,.6,1.005A1.45,1.45,0,0,1,9.51,10.937Z" fill="#7e2d1d"/>
</svg>
