<?xml version="1.0" encoding="UTF-8"?>
<svg id="Layer_1" data-name="Layer 1" xmlns="http://www.w3.org/2000/svg" viewBox="0 0 16 16">
  <path d="M6.5,11c-1.3506,0-2.5752-.7905-3.1494-2H0v-3H3.3506c.5742-1.2095,1.7988-2,3.1494-2,1.9297,0,3.5,1.5703,3.5,3.5s-1.5703,3.5-3.5,3.5Z"  class="aw-theme-iconOutline" fill="#464646"/>
  <path d="M6.5,15h-.5v-3h.5c2.4814,0,4.5-2.0186,4.5-4.5S8.9814,3,6.5,3h-.5V0h.5c3.5557,0,6.6367,2.5503,7.3408,5.9995h2.1592v3.0005h-2.1592c-.7041,3.4497-3.7861,6-7.3408,6Z"  class="aw-theme-iconOutline" fill="#464646"/>
  <path d="M1,8h3.0361l.1182,.3325c.3545,.9976,1.2969,1.6675,2.3457,1.6675,1.3789,0,2.5-1.1216,2.5-2.5s-1.1211-2.5-2.5-2.5c-1.0488,0-1.9912,.6699-2.3457,1.6675l-.1182,.3325H1v1Z" fill="#32a2bc"/>
  <path d="M7,12.9775v1.0029c2.9902-.2334,5.4932-2.542,5.9258-5.5518l.0615-.4287h2.0127v-1.0005h-2.0137l-.0615-.4292c-.4316-3.0093-2.9346-5.3174-5.9248-5.5508v1.0029c2.7998,.2534,5,2.6133,5,5.4775s-2.2002,5.2241-5,5.4775Z" fill="#32a2bc"/>
</svg>