<svg id="Layer_1" data-name="Layer 1" xmlns="http://www.w3.org/2000/svg" viewBox="0 0 16 16">
  <path d="M14.5,4.5h-2v-2h-2V.5h-8v8h2V9.78l1.477-2.5a.645.645,0,0,1,.18-.177A.633.633,0,0,1,6.5,7a.644.644,0,0,1,.539.3l3.086,5.2H14.5Z" fill="#fff"/>
  <polygon points="10 2 10 1 3 1 3 8 4 8 4 2 10 2" fill="none"/>
  <polygon points="6 4 10 4 11 4 12 4 12 3 11 3 10 3 5 3 5 8 5 8.986 6 7.292 6 4" fill="none"/>
  <polygon points="3 8 4 8 4 2 10 2 10 1 3 1 3 8" fill="none"/>
  <path d="M15,4H13V2H11V0H2V9H4v1.68L5,8.986V3h7V4H6V7.292l.009-.014a.62.62,0,0,1,.18-.177A.6.6,0,0,1,7,7.237V5h7v7H9.836l.589,1H15ZM10,2H4V8H3V1h7Z" fill="#dc0000"/>
  <g>
    <path d="M1.392,15.763a.372.372,0,0,1-.326-.555L5.974,6.893l.084-.067a.381.381,0,0,1,.526.105l4.906,8.331.017.129a.377.377,0,0,1-.375.372Z" fill="#dc0000"/>
    <path d="M6.268,7.013a.13.13,0,0,1,.108.057l4.864,8.26a.122.122,0,0,1,.017.061.124.124,0,0,1-.125.121H1.391a.125.125,0,0,1-.107-.06.121.121,0,0,1,0-.122L6.16,7.07A.141.141,0,0,1,6.2,7.034a.131.131,0,0,1,.071-.021m0-.5a.633.633,0,0,0-.343.1.645.645,0,0,0-.18.177L.854,15.077a.62.62,0,0,0,.537.936h9.741a.621.621,0,0,0,.54-.934L6.807,6.817a.642.642,0,0,0-.539-.3Z" fill="#fff"/>
  </g>
  <path d="M1.639,16H11.38a.128.128,0,0,0,.075-.03H1.583c.019.011.032.031.055.031Z" fill="none"/>
  <g>
    <rect x="5.737" y="13.506" width="1" height="0.989" fill="#fff"/>
    <polygon points="5.739 9.995 5.916 13.035 6.58 13.035 6.736 9.995 5.739 9.995" fill="#fff"/>
  </g>
</svg>
