<svg id="Layer_1" data-name="Layer 1" xmlns="http://www.w3.org/2000/svg" viewBox="0 0 16 16">
  <path d="M15.561,2.561A1.5,1.5,0,0,0,13.439.439l-.946.947A7.994,7.994,0,0,0,1.386,12.493l-.947.946a1.5,1.5,0,0,0,2.122,2.122l.946-.947A7.994,7.994,0,0,0,14.614,3.507ZM3,8A5.006,5.006,0,0,1,8,3a4.934,4.934,0,0,1,2.3.584L3.584,10.3A4.934,4.934,0,0,1,3,8ZM13,8a5.006,5.006,0,0,1-5,5,4.934,4.934,0,0,1-2.295-.584l6.711-6.711A4.934,4.934,0,0,1,13,8Z" fill="#464646"/>
  <path d="M14.854,1.854a.5.5,0,0,0-.708-.708l-1.569,1.57a6.99,6.99,0,0,0-9.861,9.861l-1.57,1.569a.5.5,0,0,0,.708.708l1.569-1.57a6.99,6.99,0,0,0,9.861-9.861ZM2,8a5.993,5.993,0,0,1,9.87-4.577L3.423,11.87A5.965,5.965,0,0,1,2,8ZM14,8a5.993,5.993,0,0,1-9.87,4.577L12.577,4.13A5.965,5.965,0,0,1,14,8Z" fill="#fa142d"/>
</svg>
