<svg id="Layer_1" data-name="Layer 1" xmlns="http://www.w3.org/2000/svg" viewBox="0 0 16 16">
  <path d="M4.936,15.673A4.934,4.934,0,0,1,1.446,7.25L6.525,2.171,7.849,3.5,9.175,2.17a4,4,0,0,1,5.654,5.656l-6.4,6.4A4.917,4.917,0,0,1,4.936,15.673ZM12,4a1,1,0,0,0-.706.292L4.922,10.655l.089.086L10.059,5.7,11.382,7.03l1.326-1.325A1,1,0,0,0,12,4Z" fill="#464646"/>
  <path d="M4.935,14.673A3.934,3.934,0,0,1,2.153,7.957L6.482,3.628l.707.707L2.86,8.664a2.935,2.935,0,0,0,4.151,4.151l6.4-6.4a2,2,0,0,0,0-2.827,2.049,2.049,0,0,0-2.827,0L4.216,9.948a1.061,1.061,0,0,0,1.5,1.5l4.3-4.288.706.708-4.3,4.287A2.062,2.062,0,0,1,3.509,9.24L9.881,2.878a3.072,3.072,0,0,1,4.241,0,3,3,0,0,1,0,4.241l-6.4,6.4A3.92,3.92,0,0,1,4.935,14.673Z" fill="#c8c8c8"/>
</svg>
