<svg id="Layer_1" data-name="Layer 1" xmlns="http://www.w3.org/2000/svg" viewBox="0 0 16 16">
  <g id="g837">
    <path id="path823" d="M4.277,10.7V9.4L3.138,7.009C2.512,5.7,2,4.618,2,4.612L3.835,4.6,5.18,7.962,6.536,4.606l1.7,0L7.064,7,5.887,9.382V12H4.277Z" fill="#9b1e5a"/>
    <path id="path825" d="M10.669,11.992A4.762,4.762,0,0,1,9.2,11.665l-.112-.05V10.032l.05.041a4.319,4.319,0,0,0,.574.361,3.009,3.009,0,0,0,1.364.309c.72,0,1.151-.226,1.218-.639a.655.655,0,0,0-.073-.4,1.762,1.762,0,0,0-.671-.544c-.072-.038-.264-.126-.426-.2a7.512,7.512,0,0,1-.911-.42,2.324,2.324,0,0,1-.979-.969,1.72,1.72,0,0,1-.169-.861,1.656,1.656,0,0,1,.2-.909A2.556,2.556,0,0,1,11.5,4.612a7.841,7.841,0,0,1,1.163.024,4.75,4.75,0,0,1,.836.172l.178.058,0,.742,0,.741L13.6,6.292a3.174,3.174,0,0,0-1.707-.43c-.593.021-.976.206-1.1.533a.441.441,0,0,0-.026.223.559.559,0,0,0,.2.431A3.2,3.2,0,0,0,12,7.636a6.929,6.929,0,0,1,.794.378,2.278,2.278,0,0,1,1.019.969,1.822,1.822,0,0,1,.186.9,1.869,1.869,0,0,1-.354,1.188,2.625,2.625,0,0,1-2.017.913c-.162.014-.79.018-.96.005Z" fill="#9b1e5a"/>
    <path id="rect815" d="M0,0H16V1H0Z" fill="#9b1e5a"/>
    <path id="rect815-4" d="M0,15H16v1H0Z" fill="#9b1e5a"/>
    <path id="rect815-4-3" d="M1,0V16H0V0Z" fill="#9b1e5a"/>
    <path id="rect815-4-30" d="M15,0V16h1V0Z" fill="#9b1e5a"/>
  </g>
</svg>
