<svg id="Layer_1" data-name="Layer 1" xmlns="http://www.w3.org/2000/svg" viewBox="0 0 16 16">
  <g>
    <path d="M14.354,8.6a.239.239,0,0,0-.284,0,3.521,3.521,0,0,1-2.157.786A3.993,3.993,0,0,1,9.642,8.6a.238.238,0,0,0-.283,0,3.151,3.151,0,0,0-1.874,2.72v4.715H16V11.324A3.06,3.06,0,0,0,14.354,8.6Z" fill="#464646"/>
    <path d="M9.308,7.9A2.42,2.42,0,0,0,8.026,6.677a.264.264,0,0,0-.291,0,3.763,3.763,0,0,1-2.206.749,4.275,4.275,0,0,1-2.323-.749.263.263,0,0,0-.29,0A3.014,3.014,0,0,0,1,9.269v4.724H6.246V10.9a3.446,3.446,0,0,1,2.19-3.012A.932.932,0,0,1,9.308,7.9Z" fill="#464646"/>
    <path d="M11.908,8.4c1.286,0,2.338-1.581,2.338-2.927a2.338,2.338,0,1,0-4.676,0C9.57,6.823,10.622,8.4,11.908,8.4Z" fill="#464646"/>
    <path d="M5.671,6.278c1.286,0,2.338-1.581,2.338-2.928a2.338,2.338,0,1,0-4.676,0C3.333,4.7,4.385,6.278,5.671,6.278Z" fill="#464646"/>
  </g>
</svg>
