<svg id="Layer_1" data-name="Layer 1" xmlns="http://www.w3.org/2000/svg" viewBox="0 0 16 16">
  <path d="M8.5,6.347v5c2.333-.713,4.667-1.31,7-.128v-5C13.167,5.037,10.833,5.634,8.5,6.347Z" fill="#000000"/>
  <path d="M8.5,1.347v5c2.333-.713,4.667-1.31,7-.128v-5C13.167.037,10.833.634,8.5,1.347Z" fill="#f0f0f0"/>
  <path d="M8.5,1.347c-2.667.815-5.333,1.784-8,.434v5c2.667,1.35,5.333.382,8-.434Z" fill="#000000"/>
  <path d="M8.5,6.347c-2.667.815-5.333,1.784-8,.434v5c2.667,1.35,5.333.382,8-.434Z" fill="#f0f0f0"/>
  <path d="M15.726.773c-2.682-1.357-5.321-.541-7.874.25C5.478,1.757,3.23,2.434,1,1.446V0H0V16H1V12.54a6.819,6.819,0,0,0,2.378.414,16.417,16.417,0,0,0,4.77-.976c2.472-.764,4.808-1.486,7.126-.312A.5.5,0,0,0,16,11.219v-10A.5.5,0,0,0,15.726.773ZM15,10.457c-2.432-.894-4.825-.152-7.148.566-2.374.735-4.622,1.43-6.852.442V2.543c2.431.894,4.825.152,7.148-.566C10.522,1.244,12.771.547,15,1.535Z" class="aw-theme-iconOutline" fill="#464646"/>
  <path d="M9,5.68V1.717c-.282.084-.566.172-.852.26L8,2.023V5.978l-.145.045C5.48,6.758,3.231,7.435,1,6.446V7.54a6.824,6.824,0,0,0,2.38.414A15.892,15.892,0,0,0,8,7.024v3.953q.5-.154,1-.3V6.721c2.126-.634,4.07-1.026,6-.171V5.465A9.4,9.4,0,0,0,9,5.68Z" class="aw-theme-iconOutline" fill="#464646"/>
</svg>
