<svg id="Layer_1" data-name="Layer 1" xmlns="http://www.w3.org/2000/svg" viewBox="0 0 24 24">
  <circle cx="12" cy="12" r="12" fill="#f58c14"/>
  <path d="M13.1,15.965a.842.842,0,0,0-.269.63.856.856,0,0,0,.269.63.886.886,0,0,0,1.236,0l0,0a.855.855,0,0,0,.264-.627.834.834,0,0,0-.26-.623A.879.879,0,0,0,13.1,15.965Z" fill="none"/>
  <path d="M15,8V6H6V17H10v2h9V8ZM10,9h-2v1h2v1h-2v1h2v1h-2v1h2v2H7V7h7V8H10Zm4.8,8.281,0,0a.784.784,0,0,1-1.1,0,.765.765,0,0,1-.238-.563.754.754,0,0,1,.238-.563.778.778,0,0,1,1.1,0,.752.752,0,0,1,.233.558A.77.77,0,0,1,14.8,17.281ZM16.314,12.1a2.661,2.661,0,0,1-.365.6,4.7,4.7,0,0,1-.457.488c-.153.14-.294.28-.424.417a2.057,2.057,0,0,0-.3.4.768.768,0,0,0-.1.4,1.282,1.282,0,0,0,.047.365,2.58,2.58,0,0,0,.1.3l.131.311H13.631l-.052-.15a2.388,2.388,0,0,1-.092-.382,2.79,2.79,0,0,1-.038-.46,1.563,1.563,0,0,1,.152-.691,2.633,2.633,0,0,1,.354-.54,5.327,5.327,0,0,1,.441-.464c.148-.137.283-.275.408-.415a2.285,2.285,0,0,0,.295-.415.865.865,0,0,0,.1-.418.739.739,0,0,0-.07-.335.7.7,0,0,0-.2-.242.879.879,0,0,0-.3-.155,1.332,1.332,0,0,0-.39-.055,1.74,1.74,0,0,0-1.329.611l-.385.415V10.084l.1-.066a3.221,3.221,0,0,1,1.732-.526,2.746,2.746,0,0,1,.792.112,2.019,2.019,0,0,1,.671.343,1.667,1.667,0,0,1,.468.582,1.811,1.811,0,0,1,.171.8A1.9,1.9,0,0,1,16.314,12.1Z" fill="#fff"/>
  <path d="M12,24A12,12,0,1,1,24,12,12.013,12.013,0,0,1,12,24ZM12,1A11,11,0,1,0,23,12,11.013,11.013,0,0,0,12,1Z" fill="#464646"/>
</svg>
