<svg id="Image" xmlns="http://www.w3.org/2000/svg" viewBox="0 0 16 16">
  <g id="g857">
    <path id="rect4" d="M.748.844h14v14h-14Z" fill="#fbeeed"/>
    <path id="rect819" d="M0,0H1V16H0Z" fill="#dc0000"/>
    <path id="rect819-5" d="M15,0h1V16H15Z" fill="#dc0000"/>
    <path id="rect836" d="M1,15H15v1H1Z" fill="#dc0000"/>
    <path id="rect838" d="M1,0H15V1H1Z" fill="#dc0000"/>
    <g id="g8">
      <g id="g4">
        <path id="path2" d="M10.5,2.707h.427L9.72,3.909a.244.244,0,0,0-.071.141L9.365,5.323a.26.26,0,0,0,.071.212L10.5,6.6a.22.22,0,0,0,.142.071h.071L12,6.383c.071,0,.071,0,.142-.071l1.209-1.2a2.772,2.772,0,0,1-.853,2.475,2.44,2.44,0,0,1-1.849.637A5.491,5.491,0,0,1,9.578,8.08H9.507a.264.264,0,0,0-.214.071L5.17,12.818a1.453,1.453,0,0,1-1.067.424,1.457,1.457,0,0,1-1-.362,2.069,2.069,0,0,1-.184-.2,1.5,1.5,0,0,1-.2-.858,1.451,1.451,0,0,1,.462-1.053l4.693-4.1a.259.259,0,0,0,.071-.212c-.071-.5-.355-2.051.5-2.9A2.855,2.855,0,0,1,10.5,2.707M10.5,2A3.5,3.5,0,0,0,7.943,3.06a3.78,3.78,0,0,0-.712,3.252S2.752,10.2,2.681,10.2a2.358,2.358,0,0,0-.64,1.627,2.192,2.192,0,0,0,.64,1.556,2.242,2.242,0,0,0,3.129,0h0L9.72,8.929A4.386,4.386,0,0,0,10.644,9a3.465,3.465,0,0,0,2.346-.778,3.426,3.426,0,0,0,.995-3.04.778.778,0,0,0-.527-.622c-.071,0-.113-.014-.184-.014a.649.649,0,0,0-.5.212L11.639,5.889l-.924.213L10,5.394l.215-.919,1.138-1.132c.213-.212.395-.457.247-.718A.718.718,0,0,0,11,2Z" fill="#dc0000"/>
      </g>
      <path id="circle6" d="M4.139,11.5a.364.364,0,0,1,.728,0h0a.363.363,0,0,1-.364.362h0A.363.363,0,0,1,4.139,11.5Z" fill="#dc0000"/>
    </g>
    <path id="path825" d="M3.832,13.212a1.4,1.4,0,0,1-.743-.369,1.132,1.132,0,0,1-.355-.849,1.52,1.52,0,0,1,.285-1.029c.042-.057,1.139-1.033,2.437-2.169s2.392-2.1,2.43-2.138c.079-.082.079-.092,0-.72a3.951,3.951,0,0,1,.138-1.691,2.262,2.262,0,0,1,1.135-1.2A2.742,2.742,0,0,1,10.5,2.723l.408-.014-.628.632-.628.631-.145.653c-.08.359-.145.7-.145.755,0,.1,0,.105.594.7s.6.593.7.593c.056,0,.346-.055.646-.121s.6-.132.665-.145c.116-.022.141-.043.747-.649l.627-.626.018.14a3.233,3.233,0,0,1-.07.952,2.821,2.821,0,0,1-1.312,1.721,3.486,3.486,0,0,1-2.138.18.973.973,0,0,0-.425-.038,21.311,21.311,0,0,0-2.168,2.372C6.1,11.745,5.121,12.843,5.062,12.9a1.406,1.406,0,0,1-.539.282A2.087,2.087,0,0,1,3.832,13.212Zm.858-1.395a.341.341,0,0,0,.179-.318.357.357,0,0,0-.5-.337.369.369,0,0,0-.035.667A.373.373,0,0,0,4.69,11.817Z" fill="#dc0000" stroke="#dc0000" stroke-width="0.205"/>
    <path id="path827" d="M4.673,11.808a.5.5,0,1,1-.5-.5A.5.5,0,0,1,4.673,11.808Z" fill="#fbeeed"/>
  </g>
</svg>
