<svg id="Layer_1" data-name="Layer 1" xmlns="http://www.w3.org/2000/svg" viewBox="0 0 16 16">
  <path d="M13,15H2.005a1.969,1.969,0,0,1-1.68-.96,2.164,2.164,0,0,1-.088-2.126L.244,11.9,5.558,2.163a2.2,2.2,0,0,1,3.886,0L14.757,11.9a2.173,2.173,0,0,1-.08,2.14A1.972,1.972,0,0,1,13,15Z" fill="#464646"/>
  <path d="M1.126,12.372a1.174,1.174,0,0,0,.05,1.144A.965.965,0,0,0,2.005,14H13a.964.964,0,0,0,.829-.484,1.172,1.172,0,0,0,.047-1.151L8.566,2.643a1.242,1.242,0,0,0-2.131,0Z" fill="#fadc5a"/>
  <rect x="7" y="5" width="1" height="5" fill="#464646"/>
  <path d="M7.5,12.25a.759.759,0,0,1-.75-.757.75.75,0,0,1,1.5,0A.758.758,0,0,1,7.5,12.25Z" fill="#464646"/>
</svg>
