<svg id="Layer_1" data-name="Layer 1" xmlns="http://www.w3.org/2000/svg" viewBox="0 0 16 16">
  <path d="M15.726.772C13.271-.47,10.838.109,8.354.869l-.5.153C5.48,1.758,3.231,2.435,1,1.446V0H0V16H1V13.54a6.827,6.827,0,0,0,2.38.414,16.428,16.428,0,0,0,4.772-.976l.494-.153c2.369-.724,4.5-1.236,6.628-.16a.5.5,0,0,0,.488-.02A.5.5,0,0,0,16,12.219v-11A.5.5,0,0,0,15.726.772Z" fill="#464646"/>
  <path d="M1,12.465c2.231.988,4.48.293,6.856-.443l.5-.153c2.239-.684,4.437-1.223,6.646-.412V1.535c-2.035-.9-4.086-.4-6.354.29l-.494.153C5.828,2.7,3.434,3.438,1,2.543Z" fill="#3c91af"/>
  <path d="M12.012,6.5,12,3.5l-.773.582a3.993,3.993,0,0,0-6.342,1.2l.9.43A2.985,2.985,0,0,1,10.409,4.7l-.787.591Z" fill="#fff"/>
  <path d="M11.19,8.332a2.992,2.992,0,0,1-4.577.992l.822-.6L4.988,7.5,5,10.5l.785-.572a3.991,3.991,0,0,0,6.3-1.152Z" fill="#fff"/>
</svg>
