<svg id="Layer_3" data-name="Layer 3" xmlns="http://www.w3.org/2000/svg" viewBox="0 0 16 16">
  <rect x="1" y="1" width="14" height="14" fill="#3caf82"/>
  <g id="Production">
    <path d="M12.5,2.5a.9968.9968,0,0,0-.7071.2929l-5.49,5.49L3.9472,7.1056a1,1,0,0,0-1.1543.1873l-.5.5a1,1,0,0,0,0,1.4142l3.5,3.5A1,1,0,0,0,6.5,13c.0172,0,.0344,0,.0516-.0013a1,1,0,0,0,.7246-.3681l6.5-8a1,1,0,0,0-.069-1.3377l-.5-.5A.9968.9968,0,0,0,12.5,2.5Z" fill="#474747"/>
  </g>
  <g>
    <rect x="5" width="2" height="1" fill="#464646"/>
    <rect x="9" width="2" height="1" fill="#464646"/>
    <rect x="5" y="15" width="2" height="1" fill="#464646"/>
    <rect x="9" y="15" width="2" height="1" fill="#464646"/>
    <polygon points="0 0 0 3 1 3 1 1 3 1 3 0 0 0" fill="#464646"/>
    <rect y="5" width="1" height="2" fill="#464646"/>
    <rect y="9" width="1" height="2" fill="#464646"/>
    <polygon points="1 13 0 13 0 16 3 16 3 15 1 15 1 13" fill="#464646"/>
    <polygon points="13 0 13 1 15 1 15 3 16 3 16 0 13 0" fill="#464646"/>
    <rect x="15" y="5" width="1" height="2" fill="#464646"/>
    <rect x="15" y="9" width="1" height="2" fill="#464646"/>
    <polygon points="15 15 13 15 13 16 16 16 16 13 15 13 15 15" fill="#464646"/>
  </g>
  <polyline points="12.5 3.5 13 4 6.5 12 3 8.5 3.5 8 6.5 9.5 12.5 3.5" fill="#fff"/>
</svg>
