<svg id="Layer_1" data-name="Layer 1" xmlns="http://www.w3.org/2000/svg" viewBox="0 0 16 16">
  <path d="M12.25,6A3.708,3.708,0,0,0,11,6.23V3.3916a.5.5,0,0,0-.25-.4331L5.7456.0669a.5.5,0,0,0-.5.0005L.25,2.959A.5.5,0,0,0,0,3.3916V9.1465a.5.5,0,0,0,.25.4326l5,2.8916a.4992.4992,0,0,0,.501,0l2.9133-1.6846a3.6941,3.6941,0,0,0,.2334.61L6.353,13.9424A1.2053,1.2053,0,0,0,8.0576,15.647l2.5464-2.5442A3.7032,3.7032,0,0,0,12.25,13.5a3.75,3.75,0,0,0,0-7.5Z" fill="#464646"/>
  <polygon points="5 6.572 1 4.258 1 8.858 5 11.171 5 6.572" fill="#c6c6c6"/>
  <circle cx="12.25" cy="9.75" r="2.75" fill="#cde6eb"/>
  <path d="M9.4575,12.25,7.06,14.6494a.2054.2054,0,1,0,.29.29L9.749,12.5435A3.6891,3.6891,0,0,1,9.4575,12.25Z" fill="#fff"/>
    <polygon points="7.667 2.333 6.239 3.578 7.962 4.282 9.5 3.392 7.667 2.333" fill="#e3e3e3"/>
    <path d="M5.1094,4.1973a.5.5,0,0,1-.14-.84L6.7522,1.804,5.4956,1.0776,1.4988,3.3917,5.5,5.7056,6.867,4.915Z" fill="#e3e3e3"/>
    <path d="M6.5547,8.1763a.4972.4972,0,0,1-.01-.3238l.6007-1.9434L6,6.5717l0,4.5994,1.3822-.7993Z" fill="#a1a1a1"/>
    <path d="M8.42,5.1722,7.5508,7.9839,8.26,9.8646l.2427-.14A3.7332,3.7332,0,0,1,10,6.769V4.2582Z" fill="#a1a1a1"/>
</svg>
