<svg id="Layer_1" data-name="Layer 1" xmlns="http://www.w3.org/2000/svg" viewBox="0 0 16 16">
  <path d="M7.5,16a.4956.4956,0,0,1-.1836-.0352C.2051,13.1568,0,6.921,0,6.2194V2.5a.5008.5008,0,0,1,.15-.3569A.6029.6029,0,0,1,.51,2c.0415-.0029,4.46.0635,6.6595-1.875a.499.499,0,0,1,.6611,0C10.0355,2.07,14.4539,2.0051,14.49,2a.5.5,0,0,1,.51.5V6.2194c0,.7016-.2051,6.9374-7.3163,9.7454A.4956.4956,0,0,1,7.5,16Z" class="aw-theme-iconOutline" fill="#464646"/>
  <path d="M1,2.9948V6.2194c0,.626.1841,6.1439,6.5,8.7416C13.8157,12.3633,14,6.8454,14,6.2194V2.9948c-1.24-.0385-4.434-.2934-6.5-1.85C5.434,2.7014,2.24,2.9563,1,2.9948Z" fill="#f0f0f0"/>
</svg>
