<svg id="Layer_1" data-name="Layer 1" xmlns="http://www.w3.org/2000/svg" viewBox="0 0 16 16">
  <path d="M14.7567,11.9,12.0076,6.8622,14.9346,1.74a.494.494,0,0,0-.08-.5951L13.8542.1442A.5145.5145,0,0,0,13.4771,0a.4959.4959,0,0,0-.3592.1847L10.2916,3.7177l-.848-1.5541a2.2043,2.2043,0,0,0-3.886-.0005l-3.35,6.14-.4908-.2454a.4944.4944,0,0,0-.5712.0928L.1448,9.1508a.4952.4952,0,0,0,0,.7l.7879.788L.2444,11.9l-.0073.0142A2.1662,2.1662,0,0,0,.3245,14.04,1.9707,1.9707,0,0,0,2.0054,15h3.289l.8549.8549a.4943.4943,0,0,0,.7793-.1046L7.3574,15h5.6383a1.97,1.97,0,0,0,1.6809-.96A2.1723,2.1723,0,0,0,14.7567,11.9Z" class="aw-theme-iconOutline" fill="#464646"/>
  <path d="M1.1992,9.5l5.1929,5.1929,7.4912-13.11L13.541,1.24,5.8862,10.8091a.4956.4956,0,0,1-.6074.1333L1.5977,9.1016Z" fill="#3caf82"/>
    <path d="M1.6661,11.3718l-.5409.9944a1.1814,1.1814,0,0,0,.05,1.1483.9659.9659,0,0,0,.83.4855h2.29Z" fill="#fadc5a"/>
    <path d="M5.3621,9.88l4.262-5.3277L8.5652,2.6053a1.24,1.24,0,0,0-2.1306,0L3.0944,8.746Z" fill="#fadc5a"/>
    <path d="M11.43,7.8725,7.9288,14h5.0665a.9657.9657,0,0,0,.8295-.4855,1.1794,1.1794,0,0,0,.0464-1.1546Z" fill="#fadc5a"/>
</svg>
