<svg id="Layer_1" data-name="Layer 1" xmlns="http://www.w3.org/2000/svg" viewBox="0 0 16 16">
  <path d="M15.647,3.963a.852.852,0,0,0-.767-.117A2.488,2.488,0,0,0,13.4,5H9.5c-.869-1.351-2.528-2.667-4-2.667a.5.5,0,0,0-.5.5V7H0V8H5v4.167a.5.5,0,0,0,.5.5c1.468,0,3.127-1.315,4-2.667h3.9a2.483,2.483,0,0,0,1.481,1.154A.849.849,0,0,0,16,10.348v-5.7A.852.852,0,0,0,15.647,3.963Z" class="aw-theme-iconOutline" fill="#464646"/>
  <path d="M15,10.132a1.332,1.332,0,0,1-.815-.812A.5.5,0,0,0,13.718,9h-4.5a.5.5,0,0,0-.435.253A5.3,5.3,0,0,1,6,11.6V3.4A5.3,5.3,0,0,1,8.779,5.747.5.5,0,0,0,9.214,6h4.5a.5.5,0,0,0,.467-.32A1.332,1.332,0,0,1,15,4.868Z" fill="#3c91af"/>
</svg>
