<svg id="Layer_1" data-name="Layer 1" xmlns="http://www.w3.org/2000/svg" viewBox="0 0 16 16">
  <path d="M15.5,5c-.5729,0-1.0654.027-1.5017.07l0-.572a.5.5,0,0,0-.5-.5l-1.4986.0007-.0007-1.9256A14.0245,14.0245,0,0,1,13.5,2a.5.5,0,0,0,0-1c-.5729,0-1.0654.027-1.5017.07l0-.572a.5.5,0,0,0-.5-.5L6.5,0a.4993.4993,0,0,0-.3535.1465l-6,6a.5.5,0,0,0,0,.707L2.793,9.5l-.6465.6465a.5.5,0,0,0,0,.707l5,5a.5.5,0,0,0,.707,0l6-6A.5.5,0,0,0,14,9.5l-.0013-3.4269A14.0245,14.0245,0,0,1,15.5,6a.5.5,0,0,0,0-1Z" fill="#464646"/>
  <path d="M11.9409,6.7344a.4639.4639,0,0,1-.4375.2915.5368.5368,0,0,1-.2041-.041.52.52,0,0,1-.2622-.6744c.089-.2172.4671-.78,1.9611-1.0926l0-.22L8.707,5l-5.5,5.5L7.5,14.793l5.5-5.5-.0014-3.05C12.146,6.4548,11.9439,6.73,11.9409,6.7344Z" fill="#3caf82"/>
  <path d="M9.9409,2.7344a.4639.4639,0,0,1-.4375.2915.5368.5368,0,0,1-.2041-.041.52.52,0,0,1-.2622-.6744c.089-.2172.4671-.78,1.9611-1.0926l0-.22L6.707,1l-5.5,5.5L3.5,8.793,8.1465,4.1465A.4993.4993,0,0,1,8.5,4l2.4994-.001-.0008-1.7564C10.146,2.4548,9.9439,2.73,9.9409,2.7344Z" fill="#3c91af"/>
  <path d="M10.8535,9.1465a.5.5,0,0,0-.707,0L9,10.293V8.6553A3.7563,3.7563,0,0,0,5.1665,4.9907H4v1H5.1665A2.756,2.756,0,0,1,8,8.6553V10.293L6.8535,9.1465a.5.5,0,0,0-.707.707l2,2a.5.5,0,0,0,.707,0l2-2A.5.5,0,0,0,10.8535,9.1465Z" fill="#fff"/>
</svg>
