<svg id="Layer_1" data-name="Layer 1" xmlns="http://www.w3.org/2000/svg" viewBox="0 0 16 16">
  <path d="M3.2822,15.418a.5.5,0,0,1-.3164-.1128A8.1424,8.1424,0,0,1,0,9.0576a8,8,0,1,1,16-.0532,8.3321,8.3321,0,0,1-2.9639,6.2988.5.5,0,0,1-.7011-.0664L10.4668,13H5.5342L3.666,15.2383A.4984.4984,0,0,1,3.2822,15.418Z" class="aw-theme-iconOutline" fill="#464646"/>
  <path d="M8,2A7.1234,7.1234,0,0,0,1,9.0576a7.1414,7.1414,0,0,0,2.2266,5.1465L4.916,12.18A.4993.4993,0,0,1,5.3,12h5.4a.4993.4993,0,0,1,.3838.18l1.6885,2.0215A7.3406,7.3406,0,0,0,15,9.0044,7.01,7.01,0,0,0,8,2Z" fill="#afd7e1"/>
  <path d="M8,10.7A1.7021,1.7021,0,0,1,6.3,9a1.6788,1.6788,0,0,1,.1921-.7684l-2.1481-2.18.7128-.7022L7.19,7.5145A1.6787,1.6787,0,0,1,8,7.3a1.7,1.7,0,1,1,0,3.4Z" class="aw-theme-iconOutline" fill="#464646"/>
  <path d="M8,8.3a.7.7,0,1,0,.7.7A.7012.7012,0,0,0,8,8.3Z" fill="#afd7e1"/>
</svg>
