<svg id="Layer_1" data-name="Layer 1" xmlns="http://www.w3.org/2000/svg" viewBox="0 0 24 24">
  <rect width="24" height="24" fill="#dcdcdc"/>
  <path d="M9.67,11.565a.133.133,0,0,0-.18-.036.158.158,0,0,0-.037.036L4.566,19.818A.121.121,0,0,0,4.674,20h9.763a.124.124,0,0,0,.125-.121.117.117,0,0,0-.017-.061Z" fill="#911914"/>
  <path d="M17.549,8.5h-2v-2h-2v-2H5.521v7.992H7.526v1.279l1.481-2.5a.631.631,0,0,1,.523-.277.643.643,0,0,1,.54.3l3.094,5.192h4.385Z" fill="#fff"/>
  <polygon points="13.038 5.998 13.038 4.999 6.022 4.999 6.022 11.992 7.024 11.992 7.024 5.998 13.038 5.998" fill="none"/>
  <path d="M4.658,19.984h9.763a.123.123,0,0,0,.075-.03H4.6c.019.011.032.031.055.031Z" fill="none"/>
  <polygon points="9.029 7.996 13.038 7.996 14.041 7.996 15.043 7.996 15.043 6.997 14.041 6.997 13.038 6.997 8.027 6.997 8.027 11.992 8.027 12.977 9.029 11.285 9.029 7.996" fill="none"/>
  <polygon points="6.022 11.992 7.024 11.992 7.024 5.998 13.038 5.998 13.038 4.999 6.022 4.999 6.022 11.992" fill="none"/>
  <path d="M18,8H16V6H14V4H5v9H7v1.679l1-1.693V7h7V8H9v3.291l.009-.015a.6.6,0,0,1,.18-.176.6.6,0,0,1,.811.136V9h7v7H12.836l.589,1H18ZM13,6H7v6H6V5h7Z" fill="#911914"/>
  <g>
    <rect x="9.008" y="18.014" width="1" height="0.989" fill="#fff"/>
    <polygon points="9.01 14.503 9.187 17.543 9.851 17.543 10.007 14.503 9.01 14.503" fill="#fff"/>
  </g>
</svg>
