<svg id="Layer_1" data-name="Layer 1" xmlns="http://www.w3.org/2000/svg" viewBox="0 0 16 16">
  <path d="M15.726.772C13.272-.469,10.838.11,8.354.869l-.495.152C5.483,1.757,3.232,2.436,1,1.447V0H0V16H1V13.54a6.827,6.827,0,0,0,2.38.414,16.448,16.448,0,0,0,4.775-.976l.491-.152c2.37-.724,4.5-1.238,6.628-.161A.5.5,0,0,0,16,12.219v-11A.5.5,0,0,0,15.726.772Z" fill="#464646"/>
  <path d="M1,12.465c2.233.988,4.482.292,6.859-.444l.495-.152c2.239-.683,4.438-1.222,6.646-.413V1.535c-2.034-.9-4.086-.4-6.354.291h0l-.491.152C5.83,2.7,3.432,3.438,1,2.544Z" fill="#f68d2b"/>
  <path d="M5.476,7a.5.5,0,0,1-.358-.15l-.976-1a.5.5,0,0,1,.716-.7l.488.5L6.554,3.273a.5.5,0,0,1,.892.454l-1.525,3a.5.5,0,0,1-.37.267A.484.484,0,0,1,5.476,7Z" fill="#fff"/>
  <path d="M5.476,11a.5.5,0,0,1-.358-.15l-.976-1a.5.5,0,0,1,.716-.7l.488.5L6.554,7.273a.5.5,0,0,1,.892.454l-1.525,3a.5.5,0,0,1-.37.267A.484.484,0,0,1,5.476,11Z" fill="#fff"/>
  <rect x="8" y="5" width="4" height="1" fill="#fff"/>
  <rect x="8" y="9" width="4" height="1" fill="#fff"/>
</svg>
