<svg id="Layer_1" data-name="Layer 1" xmlns="http://www.w3.org/2000/svg" viewBox="0 0 16 16">
  <path d="M3.5,15.5V12.743a3,3,0,0,1,.879-2.121L6.116,8.884a1.25,1.25,0,0,0,0-1.768L4.379,5.379A3,3,0,0,1,3.5,3.257V.5h9V3.257a3,3,0,0,1-.879,2.121L9.884,7.116a1.25,1.25,0,0,0,0,1.768l1.737,1.737a3,3,0,0,1,.879,2.121V15.5Z" fill="#3c91af"/>
  <path d="M13,16H3V12.743a3.477,3.477,0,0,1,1.025-2.475L5.763,8.53a.751.751,0,0,0,0-1.061L4.025,5.732A3.477,3.477,0,0,1,3,3.257V0H13V3.257a3.477,3.477,0,0,1-1.025,2.475L10.237,7.47a.751.751,0,0,0,0,1.061l1.737,1.737A3.477,3.477,0,0,1,13,12.743ZM4,15h8V12.743a2.484,2.484,0,0,0-.732-1.768L9.53,9.237a1.752,1.752,0,0,1,0-2.475l1.737-1.737A2.484,2.484,0,0,0,12,3.257V1H4V3.257a2.484,2.484,0,0,0,.732,1.768L6.47,6.763a1.752,1.752,0,0,1,0,2.475L4.732,10.975A2.484,2.484,0,0,0,4,12.743Z" class="aw-theme-iconOutline" fill="#464646"/>
</svg>
