<svg id="Layer_1" data-name="Layer 1" xmlns="http://www.w3.org/2000/svg" viewBox="0 0 16 16">
  <polygon points="6 0 6 2 2 2 2 5 0 5 0 10 2 10 2 11 0 11 0 16 5 16 5 11 3 11 3 10 5 10 5 5 3 5 3 3 6 3 6 5 11 5 11 0 6 0" class="aw-theme-iconOutline" fill="#464646"/>
  <path d="M16,16H6V6H16Z" class="aw-theme-iconOutline" fill="#464646"/>
  <rect x="7" y="1" width="3" height="3" fill="#dce1e6"/>
  <rect x="1" y="6" width="3" height="3" fill="#dce1e6"/>
  <rect x="1" y="12" width="3" height="3" fill="#dce1e6"/>
  <rect x="7" y="7" width="8" height="8" fill="#ffcd50"/>
  <path d="M14,14H13V9.707l-1.6465,1.6465a.5.5,0,0,1-.707,0L9,9.707V14H8V8.5a.5.5,0,0,1,.8535-.3535L11,10.293l2.1465-2.1465A.5.5,0,0,1,14,8.5Z" fill="#464646"/>
</svg>
