<svg id="Layer_1" data-name="Layer 1" xmlns="http://www.w3.org/2000/svg" viewBox="0 0 16 16">
  <path d="M9.5,6C8.1152,6,7,4.188,7,2.6875A2.6019,2.6019,0,0,1,9.5,0,2.6019,2.6019,0,0,1,12,2.6875C12,4.188,10.8848,6,9.5,6Z" fill="#464646"/>
  <path d="M3.5,8C2.1152,8,1,6.188,1,4.6875A2.6019,2.6019,0,0,1,3.5,2,2.6019,2.6019,0,0,1,6,4.6875C6,6.188,4.8848,8,3.5,8Z" fill="#464646"/>
  <path d="M14.6821,8.3179a4.4461,4.4461,0,0,0-1.9742-1.13,2.4491,2.4491,0,0,0-1.1171-1.1387.4975.4975,0,0,0-.501.0406l-.1469.104A1.9122,1.9122,0,0,1,9.5,6.6113a1.9122,1.9122,0,0,1-1.4429-.4179L7.91,6.0894a.5013.5013,0,0,0-.501-.0406A2.5344,2.5344,0,0,0,6.0018,8.3264a2.3562,2.3562,0,0,0-.411-.2776.4987.4987,0,0,0-.501.0406l-.1469.104A1.9122,1.9122,0,0,1,3.5,8.6113a1.9122,1.9122,0,0,1-1.4429-.4179L1.91,8.0894a.5025.5025,0,0,0-.501-.0406A2.5357,2.5357,0,0,0,0,10.3394V14.5a.5.5,0,0,0,.5.5h6a.5.5,0,0,0,.5-.5V13h.2736a4.4886,4.4886,0,0,0,7.4085,1.6821A4.5057,4.5057,0,0,0,14.6821,8.3179Z" fill="#464646"/>
  <path d="M9.5,1A1.6038,1.6038,0,0,0,8,2.6875C8,3.6758,8.7417,5,9.5,5S11,3.6758,11,2.6875A1.6038,1.6038,0,0,0,9.5,1Z" fill="#e2e2e2"/>
  <path d="M3.5,3A1.6038,1.6038,0,0,0,2,4.6875C2,5.6758,2.7417,7,3.5,7S5,5.6758,5,4.6875A1.6038,1.6038,0,0,0,3.5,3Z" fill="#e2e2e2"/>
  <path d="M1,14H6V10.3394a1.5826,1.5826,0,0,0-.604-1.2432A2.8577,2.8577,0,0,1,3.5,9.6113a2.8577,2.8577,0,0,1-1.896-.5151A1.5826,1.5826,0,0,0,1,10.3394Z" fill="#e2e2e2"/>
  <path d="M8.3179,8.3179A4.4336,4.4336,0,0,1,9.2938,7.6a2.7749,2.7749,0,0,1-1.69-.5041A1.5826,1.5826,0,0,0,7,8.3394V12h.05A4.4755,4.4755,0,0,1,8.3179,8.3179Z" fill="#e2e2e2"/>
  <path d="M11.5,8.002a3.498,3.498,0,1,0,2.4751,1.0229A3.49,3.49,0,0,0,11.5,8.002Z" fill="#dc0814"/>
  <rect x="9.3538" y="11.0001" width="4.2924" height="0.9999" transform="translate(-4.7635 11.5) rotate(-45)" fill="#fff"/>
</svg>
