<svg id="Layer_1" data-name="Layer 1" xmlns="http://www.w3.org/2000/svg" viewBox="0 0 16 16">
  <circle cx="8" cy="8.022" r="8" fill="#838383"/>
  <path d="M11.278,6.008l-.248.969,1.087.277A8.3,8.3,0,0,0,9.638,9.362a2.727,2.727,0,0,0-1.129-.5V3.942L9.68,5.113l.707-.707-2.4-2.395L5.613,4.389,6.32,5.1,7.509,3.907v4.95a2.735,2.735,0,0,0-1.147.505,8.279,8.279,0,0,0-2.471-2.1l1.1-.281-.248-.969-2.618.67.687,2.529.964-.262-.19-.7a7.365,7.365,0,0,1,2.086,1.869,2.715,2.715,0,0,0-.421,1.445,2.749,2.749,0,0,0,5.5,0,2.723,2.723,0,0,0-.423-1.45,7.253,7.253,0,0,1,2.118-1.893l-.2.731.965.262L13.9,6.678ZM9.115,12.893h0a1.713,1.713,0,0,1-2.233,0h0a1.708,1.708,0,0,1-.254-.263l-.008-.01a1.7,1.7,0,0,1-.179-.284c-.007-.014-.016-.027-.022-.042a1.759,1.759,0,0,1-.1-.288c-.006-.024-.016-.046-.022-.07A1.717,1.717,0,0,1,6.916,10.2h0a1.741,1.741,0,0,1,.593-.309h0a1.584,1.584,0,0,1,1,.006h0a1.74,1.74,0,0,1,.572.3h0a1.74,1.74,0,0,1,.668,1.365,1.8,1.8,0,0,1-.043.377c-.006.025-.016.047-.022.071a1.759,1.759,0,0,1-.1.288c-.007.015-.016.028-.023.043a1.741,1.741,0,0,1-.179.284l-.009.01A1.669,1.669,0,0,1,9.115,12.893Z" fill="#fff"/>
</svg>
