<svg id="Layer_1" data-name="Layer 1" xmlns="http://www.w3.org/2000/svg" viewBox="0 0 16 16">
  <g id="g817">
    <path id="path2" d="M6.5,0a6.488,6.488,0,0,1,5.6,9.778l3.411,3.385a1.663,1.663,0,0,1-2.351,2.352l-3.405-3.4A6.5,6.5,0,1,1,6.5,0Z" class="aw-theme-iconOutline" fill="#464646"/>
    <path id="path4" d="M11.531,10.62l3.275,3.25a.663.663,0,0,1-.939.936L10.6,11.543A6.454,6.454,0,0,0,11.531,10.62Z" fill="#879baa"/>
    <path id="path6" d="M6.5,12A5.468,5.468,0,0,0,9.6,11.035a5.778,5.778,0,0,0,.688-.562c.066-.064.13-.129.193-.2a5.334,5.334,0,0,0,.466-.563A5.494,5.494,0,1,0,6.5,12Z" fill="#3c91af"/>
  </g>
</svg>
