<svg id="Layer_1" data-name="Layer 1" xmlns="http://www.w3.org/2000/svg" viewBox="0 0 16 16">
  <path d="M15.854,2.6519,13.3579.147a.4992.4992,0,0,0-.6636-.04L4.022,6.939c-.0077.006-.011.0155-.0183.0219s-.0181.01-.0257.0171l-.4634.4629A1.7251,1.7251,0,0,0,3.0054,8.67v2.37l-1.81,1.5746a.5.5,0,0,0,.2051.8623l1.9643.4985a.5018.5018,0,0,0,.4292-.09l1.1387-.8824L4.9351,13H7.3223a1.7543,1.7543,0,0,0,1.2246-.5142l.47-.4663c.0078-.0077.0108-.0186.0181-.0268s.0163-.0108.0224-.0186l6.8355-8.66A.5.5,0,0,0,15.854,2.6519Z" fill="#464646"/>
  <rect x="2" y="15" width="10" height="1" fill="#464646"/>
  <path d="M4.7178,12H7.3223a.7487.7487,0,0,0,.52-.2236l.1138-.1133L4.3315,8.0386l-.11.1093a.7328.7328,0,0,0-.2163.522v2.6113Z" fill="#fff"/>
  <polygon points="2.572 12.742 3.375 12.946 3.872 12.56 3.364 12.053 2.572 12.742" fill="#ffcd50"/>
    <polygon points="14.362 3.64 14.833 3.043 12.964 1.168 12.363 1.641 14.362 3.64" fill="#ffcd50"/>
    <polygon points="11.572 2.264 5.083 7.376 8.621 10.914 13.738 4.43 11.572 2.264" fill="#ffcd50"/>
</svg>
