<svg id="Layer_1" data-name="Layer 1" xmlns="http://www.w3.org/2000/svg" viewBox="0 0 16 16">
  <path d="M13.2848,4.4227l1.5687-1.5692a.5.5,0,1,0-.707-.707L12.5777,3.7157A7.017,7.017,0,0,0,10,2.2971V1h.5a.5.5,0,0,0,0-1h-5a.5.5,0,0,0,0,1H6V2.2951a7.0116,7.0116,0,1,0,7.2848,2.1276Z" class="aw-theme-iconOutline" fill="#464646"/>
  <path d="M13,8.5l.9757,0A6.0032,6.0032,0,0,0,8.5,3.0253V4h-1V3.0253A6.0034,6.0034,0,0,0,2.0263,8.5H3v1H2.0263A6.0034,6.0034,0,0,0,7.5,14.9747V14h1v.9747A6.0031,6.0031,0,0,0,13.9756,9.5L13,9.5Zm-1.1465,4.3535a.5.5,0,0,1-.707,0l-3.5-3.5a.5.5,0,0,1,.707-.707l3.5,3.5A.5.5,0,0,1,11.8535,12.8535Z" fill="#fadc5a"/>
  <path d="M7,2.08V1H9V2.0789A6.9569,6.9569,0,0,0,8.001,2,6.9857,6.9857,0,0,0,7,2.08Z" fill="#dcdcdc"/>
</svg>
