<svg id="Layer_1" data-name="Layer 1" xmlns="http://www.w3.org/2000/svg" viewBox="0 0 16 16">
  <path d="M5,7C3.3384,7,2,4.88,2,3.125A3.0678,3.0678,0,0,1,5,0,3.0678,3.0678,0,0,1,8,3.125C8,4.88,6.6616,7,5,7Z" class="aw-theme-iconOutline" fill="#464646"/>
  <path d="M13.8926,9,12.4385,6.4663A1.0942,1.0942,0,0,0,10.93,6.207,2.2088,2.2088,0,0,0,10.16,9h-.315a3.536,3.536,0,0,0-1.813-2.1992l-.2661-.13-.2417.1709c-.1469.1035-.28.209-.41.312A2.7482,2.7482,0,0,1,5,7.875a2.7482,2.7482,0,0,1-2.1143-.7212c-.13-.103-.2627-.2085-.41-.312l-.2417-.1709-.2661.13A3.6178,3.6178,0,0,0,0,10.0625V15H9.0628c.4357.998.7205,1,.9372,1,.5229,0,4.45-.7813,5.2314-.938l.2925-.0586.0874-.2851A9.1072,9.1072,0,0,0,16,11.856V9Z" class="aw-theme-iconOutline" fill="#464646"/>
  <path d="M13.3135,10,11.5757,6.9722c.0014.0376-.1948.0781-.3618.2763s-.4854.7906.1411,2.0254L11.7236,10H6.0957a1.5072,1.5072,0,0,0,0,1H11v1H9.1548c.09.3373.1863.6756.2832,1H11v1H9.7581a6.2754,6.2754,0,0,0,.404.9844c.665-.0855,2.8911-.5083,4.5742-.8433A8.1809,8.1809,0,0,0,15,11.8667V10Z" fill="#e2e2e2"/>
  <path d="M8.12,12h-2.11c-.5972,0-.9986-.603-.9986-1.5S5.4121,9,6.0093,9H8.7656A2.57,2.57,0,0,0,7.85,7.8467c-.0386.03-.0762.06-.1138.09A3.7148,3.7148,0,0,1,5,8.875a3.7148,3.7148,0,0,1-2.7363-.938c-.0376-.03-.0752-.06-.1138-.09A2.6888,2.6888,0,0,0,1,10.0625V14H8.6914C8.52,13.4789,8.3314,12.8294,8.12,12Z" fill="#8cc3d2"/>
  <path d="M5,1A2.0675,2.0675,0,0,0,3,3.125C3,4.38,3.97,6,5,6S7,4.38,7,3.125A2.0675,2.0675,0,0,0,5,1Z" fill="#8cc3d2"/>
</svg>
