<svg id="Layer_1" data-name="Layer 1" xmlns="http://www.w3.org/2000/svg" viewBox="0 0 16 16">
  <g>
    <rect x="-1.88" y="7.5" width="19.76" height="1" transform="translate(-3.314 8) rotate(-45)" fill="#464647"/>
    <path d="M8,10.5a2.471,2.471,0,0,1-.9-.176l-.744.744A3.446,3.446,0,0,0,8,11.5,3.5,3.5,0,0,0,11.5,8a3.446,3.446,0,0,0-.432-1.648l-.744.744A2.471,2.471,0,0,1,10.5,8,2.5,2.5,0,0,1,8,10.5Z" fill="#464647"/>
    <path d="M8,5.5a2.474,2.474,0,0,1,.888.171l.746-.747A3.451,3.451,0,0,0,8,4.5,3.5,3.5,0,0,0,4.5,8a3.451,3.451,0,0,0,.424,1.634l.747-.746A2.474,2.474,0,0,1,5.5,8,2.5,2.5,0,0,1,8,5.5Z" fill="#464647"/>
    <path d="M13.236,4.184l-.7.7a9.477,9.477,0,0,1,2.374,3.076c-.559,1.177-2.62,4.774-6.912,4.776a6.869,6.869,0,0,1-2.753-.56l-.746.746a7.752,7.752,0,0,0,3.5.814H8c5.793,0,8-5.777,8-5.777A10.625,10.625,0,0,0,13.236,4.184Z" fill="#464647"/>
    <path d="M2.778,11.781l.7-.7A9.544,9.544,0,0,1,1.092,7.962,9.38,9.38,0,0,1,3.613,4.769s.031-.027.059-.049a6.921,6.921,0,0,1,7.143-.991l.745-.744a7.653,7.653,0,0,0-3.5-.821H8.053a7.69,7.69,0,0,0-4.4,1.346l-.065.045h0A10.39,10.39,0,0,0,0,7.96,10.72,10.72,0,0,0,2.778,11.781Z" fill="#464647"/>
  </g>
</svg>
