<svg id="Layer_1" data-name="Layer 1" xmlns="http://www.w3.org/2000/svg" xmlns:xlink="http://www.w3.org/1999/xlink" viewBox="0 0 48 48">
    <linearGradient id="linear-gradient" x1="0.5" y1="0.5" x2="40.5" y2="40.5" gradientUnits="userSpaceOnUse">
      <stop offset="0" stop-color="#e1e1e1"/>
      <stop offset="0.277" stop-color="#d9d9d9"/>
      <stop offset="0.844" stop-color="#c3c3c3"/>
      <stop offset="1" stop-color="#bdbdbd"/>
    </linearGradient>
    <linearGradient id="paper_gradient" data-name="paper gradient" x1="13.115" y1="33.5" x2="26.29" y2="46.676" gradientUnits="userSpaceOnUse">
      <stop offset="0" stop-color="#ffffff"/>
      <stop offset="0.221" stop-color="#f8f8f8"/>
      <stop offset="0.541" stop-color="#e5e5e5"/>
      <stop offset="0.92" stop-color="#c6c6c6"/>
      <stop offset="1" stop-color="#bebebe"/>
    </linearGradient>
    <linearGradient id="New_Gradient_Swatch_1" data-name="New Gradient Swatch 1" x1="33.5" y1="33.5" x2="40.5" y2="40.5" gradientUnits="userSpaceOnUse">
      <stop offset="0" stop-color="#ebebeb"/>
      <stop offset="0.221" stop-color="#e8e8e8"/>
      <stop offset="0.542" stop-color="#e1e1e1"/>
      <stop offset="0.921" stop-color="#d5d5d5"/>
      <stop offset="1" stop-color="#d2d2d2"/>
    </linearGradient>
  <polyline points="47.5 33.5 47.5 0.5 0.5 0.5 0.5 47.5 33.5 47.5" stroke="#464646" stroke-linecap="round" stroke-miterlimit="10" fill="url(#linear-gradient)"/>
  <line x1="47" y1="8.5" x2="1" y2="8.5" fill="none" stroke="#464646" stroke-miterlimit="10"/>
    <polyline points="29.5 31 29.5 43.466 4.5 43.466 4.5 25.501 17.999 25.501" fill="none" stroke="#919191" stroke-miterlimit="10"/>
    <circle cx="9.5" cy="30.5" r="2" fill="#ffffff" stroke="#919191" stroke-miterlimit="10"/>
    <polygon points="29.5 36.034 23.757 28.264 19.703 35.02 16.324 30.291 7.203 43.466 29.5 43.466 29.5 36.034" stroke="#919191" stroke-linecap="round" stroke-miterlimit="10" fill="url(#paper_gradient)"/>
  <polygon points="33.5 47.5 47.5 33.5 33.5 33.5 33.5 47.5" stroke="#464646" stroke-linejoin="round" fill="url(#New_Gradient_Swatch_1)"/>
  <path d="M18,25.5c4.928.081,4.928-14.782,8.235-14.782,6.04,0-5.721,14.641-.844,14.641,2.706,0,4.163-9.317,6.957-9.317,2.943,0-1.159,6.655,1.739,6.655,1.675,0,2.676-2.662,3.913-2.662" fill="none" stroke="#919191" stroke-linecap="round" stroke-linejoin="round"/>
</svg>
