<svg id="Layer_1" data-name="Layer 1" xmlns="http://www.w3.org/2000/svg" xmlns:xlink="http://www.w3.org/1999/xlink" viewBox="0 0 48 48">
    <linearGradient id="linear-gradient" x1="-5" y1="42" x2="35.5" y2="1.5" gradientTransform="matrix(1, 0, 0, -1, 0, 48)" gradientUnits="userSpaceOnUse">
      <stop offset="0" stop-color="#fff"/>
      <stop offset="0.232" stop-color="#fafafa"/>
      <stop offset="0.496" stop-color="#ededed"/>
      <stop offset="0.775" stop-color="#d6d6d6"/>
      <stop offset="1" stop-color="#bebebe"/>
    </linearGradient>
    <linearGradient id="paper_gradient" data-name="paper gradient" x1="20.25" y1="44.25" x2="33.25" y2="31.25" gradientTransform="matrix(1, 0, 0, -1, 0, 48)" gradientUnits="userSpaceOnUse">
      <stop offset="0" stop-color="#fff"/>
      <stop offset="0.221" stop-color="#f8f8f8"/>
      <stop offset="0.541" stop-color="#e5e5e5"/>
      <stop offset="0.92" stop-color="#c6c6c6"/>
      <stop offset="1" stop-color="#bebebe"/>
    </linearGradient>
    <linearGradient id="linear-gradient-2" x1="26.161" y1="26.161" x2="43.839" y2="43.839" gradientUnits="userSpaceOnUse">
      <stop offset="0" stop-color="#73b4c8"/>
      <stop offset="0.175" stop-color="#6aaec3"/>
      <stop offset="0.457" stop-color="#529eb5"/>
      <stop offset="0.809" stop-color="#2c839f"/>
      <stop offset="1" stop-color="#147391"/>
    </linearGradient>
    <linearGradient id="linear-gradient-3" x1="4.25" y1="15.75" x2="24.75" y2="36.25" gradientTransform="matrix(1, 0, 0, 1, 0, 0)" xlink:href="#paper_gradient"/>
  <polygon points="23.5 0.5 0.5 0.5 0.5 45.5 36.5 45.5 36.5 13.5 23.5 0.5" stroke="#464646" stroke-miterlimit="10" fill="url(#linear-gradient)"/>
  <polygon points="23.5 0.5 23.5 13.5 36.5 13.5 23.5 0.5" stroke="#464646" stroke-linejoin="round" fill="url(#paper_gradient)"/>
  <circle cx="35" cy="35" r="12.5" stroke="#464646" stroke-linecap="round" stroke-linejoin="round" fill="url(#linear-gradient-2)"/>
    <path d="M39.5,41.5V38A3.5,3.5,0,0,0,36,34.5H30.621l2.793,2.793-2.121,2.121L24.879,33l6.414-6.414,2.121,2.121L30.621,31.5H36A6.508,6.508,0,0,1,42.5,38v3.5Z" fill="#fff"/>
    <path d="M31.293,27.293l1.414,1.414L29.414,32H36a6.006,6.006,0,0,1,6,6v3H40V38a4,4,0,0,0-4-4H29.414l3.293,3.293-1.414,1.414L25.586,33l5.707-5.707m0-1.414-.707.707-5.707,5.707L24.172,33l.707.707,5.707,5.707.707.707L32,39.414,33.414,38l.707-.707-.707-.707L31.828,35H36a3,3,0,0,1,3,3v4h4V38a7.008,7.008,0,0,0-7-7H31.828l1.586-1.586.707-.707L33.414,28,32,26.586l-.707-.707Z" fill="#147391"/>
    <polygon points="19.5 41.5 4.5 41.5 4.5 15.5 19.5 5.5 19.5 41.5" stroke="#464646" stroke-linecap="round" stroke-linejoin="round" fill="url(#linear-gradient-3)"/>
    <line x1="8" y1="24.5" x2="16" y2="24.5" fill="none" stroke="#5a5a5a" stroke-linejoin="round"/>
    <line x1="8" y1="21.5" x2="16" y2="21.5" fill="none" stroke="#5a5a5a" stroke-linejoin="round"/>
    <line x1="8" y1="18.5" x2="16" y2="18.5" fill="none" stroke="#5a5a5a" stroke-linejoin="round"/>
    <line x1="8" y1="33.5" x2="16" y2="33.5" fill="none" stroke="#5a5a5a" stroke-linejoin="round"/>
    <line x1="8" y1="30.5" x2="16" y2="30.5" fill="none" stroke="#5a5a5a" stroke-linejoin="round"/>
    <line x1="8" y1="27.5" x2="16" y2="27.5" fill="none" stroke="#5a5a5a" stroke-linejoin="round"/>
    <polyline points="10.5 41 10.5 37.5 13.5 37.5 13.5 41" fill="none" stroke="#5a5a5a" stroke-miterlimit="10"/>
</svg>
