<svg id="Layer_1" data-name="Layer 1" xmlns="http://www.w3.org/2000/svg" xmlns:xlink="http://www.w3.org/1999/xlink" viewBox="0 0 48 48">
    <linearGradient id="New_Gradient_Swatch_3" data-name="New Gradient Swatch 3" x1="2.043" y1="1.543" x2="45.957" y2="45.457" gradientUnits="userSpaceOnUse">
      <stop offset="0" stop-color="#f2f2f2"/>
      <stop offset="0.99" stop-color="#999"/>
    </linearGradient>
    <linearGradient id="linear-gradient" x1="9.25" y1="8.75" x2="38.75" y2="38.25" gradientUnits="userSpaceOnUse">
      <stop offset="0" stop-color="#fff"/>
      <stop offset="0.302" stop-color="#f8f8f8"/>
      <stop offset="0.737" stop-color="#e5e5e5"/>
      <stop offset="1" stop-color="#d6d6d6"/>
    </linearGradient>
  <rect x="2.5" y="0.5" width="43" height="46" rx="1" fill="url(#New_Gradient_Swatch_3)"/>
  <rect x="10.5" y="7.5" width="27" height="32" stroke="#147391" stroke-miterlimit="10" fill="url(#linear-gradient)"/>
  <polyline points="2.5 6.5 6.5 6.5 6.5 11.5 2.5 11.5" fill="none" stroke="#6e6e6e" stroke-miterlimit="10" stroke-width="0.959"/>
  <polyline points="2.5 38.5 6.5 38.5 6.5 43.5 2.5 43.5" fill="none" stroke="#6e6e6e" stroke-miterlimit="10" stroke-width="0.959"/>
  <rect x="4.5" y="20.5" width="2" height="13" fill="none" stroke="#6e6e6e" stroke-miterlimit="10" stroke-width="0.978"/>
  <polyline points="45.5 11.5 41.5 11.5 41.5 6.5 45.5 6.5" fill="none" stroke="#6e6e6e" stroke-miterlimit="10" stroke-width="0.959"/>
  <polyline points="45.5 43.5 41.5 43.5 41.5 38.5 45.5 38.5" fill="none" stroke="#6e6e6e" stroke-miterlimit="10" stroke-width="0.959"/>
  <rect x="41.5" y="20.5" width="2" height="13" fill="none" stroke="#6e6e6e" stroke-miterlimit="10" stroke-width="0.978"/>
  <polyline points="12 2.5 8.5 2.5 8.5 44.5 12 44.5" fill="none" stroke="#8b8b8b" stroke-miterlimit="10"/>
  <polyline points="36.047 2.5 39.547 2.5 39.547 44.5 36.047 44.5" fill="none" stroke="#8b8b8b" stroke-miterlimit="10"/>
  <polyline points="31.5 7.5 31.5 9.5 33.5 9.5 33.5 10.5 35.5 10.5 35.5 12.5 37.5 12.5" fill="none" stroke="#147391" stroke-miterlimit="10"/>
  <polyline points="10.5 36.5 13.5 36.5 13.5 39.5" fill="none" stroke="#147391" stroke-miterlimit="10"/>
  <polyline points="10.5 28.5 13.5 28.5 13.5 33.5 15.5 33.5 15.5 34.5 17.5 34.5 17.5 36.5 22.5 36.5 22.5 39.5" fill="none" stroke="#147391" stroke-miterlimit="10"/>
  <polyline points="13.5 7.5 13.5 9.5 15.5 9.5 15.5 10.5 17.5 10.5 17.5 12.5 22.5 12.5 22.5 17.5 24.5 17.5 24.5 18.5 26.5 18.5 26.5 20.5 31.5 20.5 31.5 25.5 33.5 25.5 33.5 26.5 35.5 26.5 35.5 28.5 37.5 28.5" fill="none" stroke="#147391" stroke-miterlimit="10"/>
  <polyline points="22.5 7.5 22.5 9.5 24.5 9.5 24.5 10.5 26.5 10.5 26.5 12.5 31.5 12.5 31.5 17.5 33.5 17.5 33.5 18.5 35.5 18.5 35.5 20.5 37.5 20.5" fill="none" stroke="#147391" stroke-miterlimit="10"/>
  <polyline points="10.5 20.5 13.5 20.5 13.5 25.5 15.5 25.5 15.5 26.5 17.5 26.5 17.5 28.5 22.5 28.5 22.5 33.5 24.5 33.5 24.5 34.5 26.5 34.5 26.5 36.5 31.5 36.5 31.5 39.5" fill="none" stroke="#147391" stroke-miterlimit="10"/>
  <polyline points="10.5 12.5 13.5 12.5 13.5 17.5 15.5 17.5 15.5 18.5 17.5 18.5 17.5 20.5 22.5 20.5 22.5 25.5 24.5 25.5 24.5 26.5 26.5 26.5 26.5 28.5 31.5 28.5 31.5 33.5 33.5 33.5 33.5 34.5 35.5 34.5 35.5 36.5 37.5 36.5" fill="none" stroke="#147391" stroke-miterlimit="10"/>
  <rect x="2.5" y="0.5" width="43" height="46" rx="1" fill="none" stroke="#464646" stroke-miterlimit="10"/>
  <line x1="19.5" y1="39.5" x2="19.5" y2="7.5" fill="none" stroke="#147391" stroke-miterlimit="10"/>
  <line x1="28.5" y1="7.5" x2="28.5" y2="39.5" fill="none" stroke="#147391" stroke-miterlimit="10"/>
  <line x1="10.5" y1="15.5" x2="37.5" y2="15.5" fill="none" stroke="#147391" stroke-miterlimit="10"/>
  <line x1="37.5" y1="31.5" x2="10.5" y2="31.5" fill="none" stroke="#147391" stroke-miterlimit="10"/>
  <line x1="10.5" y1="23.5" x2="37.5" y2="23.5" fill="none" stroke="#147391" stroke-miterlimit="10"/>
</svg>
