<svg id="Layer_1" data-name="Layer 1" xmlns="http://www.w3.org/2000/svg" xmlns:xlink="http://www.w3.org/1999/xlink" viewBox="0 0 48 48">
  
    <linearGradient id="linear-gradient" x1="3.75" y1="-76.25" x2="45.25" y2="-117.75" gradientTransform="matrix(1, 0, 0, -1, 0, -70)" gradientUnits="userSpaceOnUse">
      <stop offset="0" stop-color="#fff"/>
      <stop offset="0.232" stop-color="#fafafa"/>
      <stop offset="0.496" stop-color="#ededed"/>
      <stop offset="0.775" stop-color="#d6d6d6"/>
      <stop offset="1" stop-color="#bebebe"/>
    </linearGradient>
    <linearGradient id="linear-gradient-2" x1="15.75" y1="8.25" x2="37.75" y2="30.25" gradientUnits="userSpaceOnUse">
      <stop offset="0" stop-color="#fff"/>
      <stop offset="0.248" stop-color="#f8f8f8"/>
      <stop offset="0.606" stop-color="#e5e5e5"/>
      <stop offset="1" stop-color="#c8c8c8"/>
    </linearGradient>
    <linearGradient id="Dark_Blue_Grad" data-name="Dark Blue Grad" x1="22.25" y1="12.75" x2="29.75" y2="20.25" gradientUnits="userSpaceOnUse">
      <stop offset="0" stop-color="#73b4c8"/>
      <stop offset="0.175" stop-color="#6aaec3"/>
      <stop offset="0.457" stop-color="#529eb5"/>
      <stop offset="0.809" stop-color="#2c839f"/>
      <stop offset="1" stop-color="#147391"/>
    </linearGradient>
    <linearGradient id="paper_gradient" data-name="paper gradient" x1="30.5" y1="-73.5" x2="42.5" y2="-85.5" gradientTransform="matrix(1, 0, 0, -1, 0, -70)" gradientUnits="userSpaceOnUse">
      <stop offset="0" stop-color="#fff"/>
      <stop offset="0.221" stop-color="#f8f8f8"/>
      <stop offset="0.541" stop-color="#e5e5e5"/>
      <stop offset="0.92" stop-color="#c6c6c6"/>
      <stop offset="1" stop-color="#bebebe"/>
    </linearGradient>
  
  <polygon points="33.5 0.5 9.5 0.5 9.5 47.5 45.5 47.5 45.5 12.5 33.5 0.5" stroke="#464646" stroke-miterlimit="10" fill="url(#linear-gradient)"/>
  <path d="M40.5,27.5v-15h-7v-6H28.471a2.471,2.471,0,0,1-4.942,0H17.5l-3,3v18" stroke="#6e6e6e" stroke-miterlimit="10" fill="url(#linear-gradient-2)"/>
  <rect x="23.5" y="11.5" width="5" height="10" stroke="#147391" stroke-miterlimit="10" fill="url(#Dark_Blue_Grad)"/>
  <polyline points="22 12.5 19.368 12.5 19 11" fill="none" stroke="#147391" stroke-linejoin="round"/>
  <polyline points="21 20.5 20.295 20.5 18.5 22.295 18.5 23.5" fill="none" stroke="#147391" stroke-linejoin="round"/>
  <line x1="22" y1="16.5" x2="19.5" y2="16.5" fill="none" stroke="#147391" stroke-linejoin="round"/>
  <rect x="21.5" y="11.5" width="2" height="2" fill="none" stroke="#147391" stroke-miterlimit="10"/>
  <rect x="21.5" y="15.5" width="2" height="2" fill="none" stroke="#147391" stroke-miterlimit="10"/>
  <rect x="21.5" y="19.5" width="2" height="2" fill="none" stroke="#147391" stroke-miterlimit="10"/>
  <polyline points="30 16.5 32.5 16.5 34.5 14.5 34.5 12.5" fill="none" stroke="#147391" stroke-linejoin="round"/>
  <polyline points="30 12.5 31.5 12.5 33.5 10.5" fill="none" stroke="#147391" stroke-linejoin="round"/>
  <circle cx="18.5" cy="10.5" r="1" fill="none" stroke="#147391" stroke-miterlimit="10"/>
  <circle cx="18.5" cy="16.5" r="1" fill="none" stroke="#147391" stroke-miterlimit="10"/>
  <circle cx="18.5" cy="24.5" r="1" fill="none" stroke="#147391" stroke-miterlimit="10"/>
  <circle cx="22.5" cy="24.5" r="1" fill="none" stroke="#147391" stroke-miterlimit="10"/>
  <circle cx="31.5" cy="24.5" r="1" fill="none" stroke="#147391" stroke-miterlimit="10"/>
  <circle cx="36.5" cy="24.5" r="1" fill="none" stroke="#147391" stroke-miterlimit="10"/>
  <circle cx="33.5" cy="20.5" r="1" fill="none" stroke="#147391" stroke-miterlimit="10"/>
  <line x1="30" y1="20.5" x2="33" y2="20.5" fill="none" stroke="#147391" stroke-linejoin="round"/>
  <polyline points="28.75 27.5 26.5 24.5 23.5 24.5" fill="none" stroke="#147391" stroke-linejoin="round"/>
  <line x1="32.5" y1="24.5" x2="35.5" y2="24.5" fill="none" stroke="#147391" stroke-linejoin="round"/>
  <rect x="28.5" y="11.5" width="2" height="2" fill="none" stroke="#147391" stroke-miterlimit="10"/>
  <rect x="28.5" y="15.5" width="2" height="2" fill="none" stroke="#147391" stroke-miterlimit="10"/>
  <rect x="28.5" y="19.5" width="2" height="2" fill="none" stroke="#147391" stroke-miterlimit="10"/>
  <polygon points="33.5 0.5 33.5 12.5 45.5 12.5 33.5 0.5" stroke="#464646" stroke-linejoin="round" fill="url(#paper_gradient)"/>
  <rect x="0.5" y="27.5" width="47" height="16" fill="#de1534" stroke="#464646" stroke-miterlimit="10"/>
  
    <path d="M9.338,38.651a3.57,3.57,0,0,1-.985.338,5.865,5.865,0,0,1-1.207.124,3.934,3.934,0,0,1-1.96-.475A3.173,3.173,0,0,1,3.9,37.289a4.348,4.348,0,0,1-.446-2.006,4.43,4.43,0,0,1,.516-2.148,3.624,3.624,0,0,1,1.442-1.469,4.128,4.128,0,0,1,2.054-.519,6.536,6.536,0,0,1,1,.081,3.46,3.46,0,0,1,.87.236v1.3A3.557,3.557,0,0,0,7.5,32.281a2.76,2.76,0,0,0-1.41.36,2.432,2.432,0,0,0-.959,1.023,3.361,3.361,0,0,0-.338,1.544,2.849,2.849,0,0,0,.7,2.025,2.434,2.434,0,0,0,1.864.746,3.6,3.6,0,0,0,1.982-.542Z" fill="#fff"/>
    <path d="M13.372,38.979v-.758H13.35a1.83,1.83,0,0,1-1.627.892,1.789,1.789,0,0,1-1.279-.441,1.56,1.56,0,0,1-.467-1.192,1.7,1.7,0,0,1,.457-1.241,2.2,2.2,0,0,1,1.342-.58l1.606-.22q0-1.123-1.042-1.123a2.946,2.946,0,0,0-.98.167,3.1,3.1,0,0,0-.846.446v-1.1a3.16,3.16,0,0,1,.889-.338,4.406,4.406,0,0,1,1.066-.151,2.123,2.123,0,0,1,1.593.551,2.2,2.2,0,0,1,.534,1.6v3.486ZM11.2,37.351a.7.7,0,0,0,.258.567,1,1,0,0,0,.655.212,1.2,1.2,0,0,0,.913-.379,1.327,1.327,0,0,0,.36-.953V36.3l-1.187.155a1.492,1.492,0,0,0-.781.28A.789.789,0,0,0,11.2,37.351Z" fill="#fff"/>
    <path d="M19.49,38.979v-.86h-.022a1.957,1.957,0,0,1-1.8.994A2.05,2.05,0,0,1,16,38.372a3.042,3.042,0,0,1-.618-2.009,3.326,3.326,0,0,1,.685-2.194,2.262,2.262,0,0,1,1.834-.825,1.969,1.969,0,0,1,.924.21,1.568,1.568,0,0,1,.639.607h.022V30.836h1.24v8.143Zm.01-3.212a1.4,1.4,0,0,0-.389-.994,1.369,1.369,0,0,0-2.052.1,2.388,2.388,0,0,0-.384,1.45,2.022,2.022,0,0,0,.379,1.3,1.251,1.251,0,0,0,1.029.47,1.279,1.279,0,0,0,1.009-.476,1.831,1.831,0,0,0,.408-1.238Z" fill="#fff"/>
    <path d="M23.072,36.594a1.609,1.609,0,0,0,.457,1.144,1.69,1.69,0,0,0,1.2.392,2.721,2.721,0,0,0,.9-.148,2.91,2.91,0,0,0,.752-.378v1.047a2.7,2.7,0,0,1-.838.333,4.646,4.646,0,0,1-1.111.129,2.5,2.5,0,0,1-1.939-.75,2.959,2.959,0,0,1-.688-2.081,3.318,3.318,0,0,1,.341-1.541,2.55,2.55,0,0,1,.945-1.029,2.516,2.516,0,0,1,1.33-.368,2.27,2.27,0,0,1,1.771.7,2.788,2.788,0,0,1,.63,1.934v.618Zm2.508-.935a1.451,1.451,0,0,0-.306-1,1.092,1.092,0,0,0-.859-.344,1.2,1.2,0,0,0-.875.373,1.728,1.728,0,0,0-.468.97Z" fill="#fff"/>
    <path d="M31.425,38.979V35.89a2.047,2.047,0,0,0-.261-1.152.947.947,0,0,0-.841-.379,1.178,1.178,0,0,0-.931.427,1.573,1.573,0,0,0-.368,1.067v3.126H27.783v-5.5h1.241v.88h.022a1.97,1.97,0,0,1,1.783-1.015,1.692,1.692,0,0,1,1.356.559,2.552,2.552,0,0,1,.48,1.7v3.379Z" fill="#fff"/>
    <path d="M37.882,38.748a3.1,3.1,0,0,1-1.564.365,2.87,2.87,0,0,1-1.415-.344,2.411,2.411,0,0,1-.966-.977,2.9,2.9,0,0,1-.347-1.418,3.391,3.391,0,0,1,.357-1.585,2.541,2.541,0,0,1,1.036-1.066,3.2,3.2,0,0,1,1.577-.379,3.568,3.568,0,0,1,.725.078,2.112,2.112,0,0,1,.6.2V34.8a2.129,2.129,0,0,0-1.268-.441,1.634,1.634,0,0,0-1.255.519,1.953,1.953,0,0,0-.48,1.383,1.885,1.885,0,0,0,.462,1.348,1.637,1.637,0,0,0,1.252.489,1.946,1.946,0,0,0,.638-.124,2.485,2.485,0,0,0,.651-.338Z" fill="#fff"/>
    <path d="M39.814,36.594a1.613,1.613,0,0,0,.457,1.144,1.692,1.692,0,0,0,1.2.392,2.722,2.722,0,0,0,.9-.148,2.926,2.926,0,0,0,.752-.378v1.047a2.724,2.724,0,0,1-.838.333,4.649,4.649,0,0,1-1.112.129,2.5,2.5,0,0,1-1.939-.75,2.963,2.963,0,0,1-.687-2.081,3.305,3.305,0,0,1,.341-1.541,2.543,2.543,0,0,1,.945-1.029,2.511,2.511,0,0,1,1.33-.368,2.266,2.266,0,0,1,1.77.7,2.779,2.779,0,0,1,.631,1.934v.618Zm2.509-.935a1.461,1.461,0,0,0-.3-1,1.1,1.1,0,0,0-.86-.344,1.2,1.2,0,0,0-.876.373,1.735,1.735,0,0,0-.468.97Z" fill="#fff"/>
  
</svg>
