<svg id="Layer_1" data-name="Layer 1" xmlns="http://www.w3.org/2000/svg" xmlns:xlink="http://www.w3.org/1999/xlink" viewBox="0 0 48 48">
  <defs>
    <linearGradient id="Dark_Blue_Grad" data-name="Dark Blue Grad" x1="115.446" y1="13.1071" x2="121.1083" y2="7.4448" gradientTransform="translate(-85.9999)" gradientUnits="userSpaceOnUse">
      <stop offset="0" stop-color="#73b4c8"/>
      <stop offset="0.1747" stop-color="#6aaec3"/>
      <stop offset="0.4567" stop-color="#529eb5"/>
      <stop offset="0.8089" stop-color="#2c839f"/>
      <stop offset="1" stop-color="#147391"/>
    </linearGradient>
    <linearGradient id="Dark_Blue_Grad-2" x1="14.0228" y1="7.6119" x2="25.547" y2="19.1361" gradientTransform="matrix(1, 0, 0, 1, 0, 0)" xlink:href="#Dark_Blue_Grad"/>
    <linearGradient id="Dark_Blue_Grad-3" x1="90.9999" y1="28.5" x2="90.9999" y2="23.5" xlink:href="#Dark_Blue_Grad"/>
    <linearGradient id="New_Gradient_Swatch_3" data-name="New Gradient Swatch 3" x1="18.5" y1="9" x2="20.5" y2="9" gradientUnits="userSpaceOnUse">
      <stop offset="0" stop-color="#afd7e1"/>
      <stop offset="0.1588" stop-color="#a4d0dc"/>
      <stop offset="0.7059" stop-color="#80bcce"/>
      <stop offset="1" stop-color="#73b4c8"/>
    </linearGradient>
    <linearGradient id="linear-gradient" x1="4.5" y1="39.5" x2="15.5" y2="50.5" gradientUnits="userSpaceOnUse">
      <stop offset="0" stop-color="#b0b0b0"/>
      <stop offset="1" stop-color="#7d7d7d"/>
    </linearGradient>
    <linearGradient id="Dark_Blue_Grad-4" x1="3.6392" y1="26.8608" x2="13.4518" y2="36.6734" gradientTransform="matrix(1, 0, 0, 1, 0, 0)" xlink:href="#Dark_Blue_Grad"/>
    <linearGradient id="Dark_Blue_Grad-5" x1="98.4678" y1="24.4645" x2="105.5389" y2="31.5355" xlink:href="#Dark_Blue_Grad"/>
    <linearGradient id="_4_Generic_-_Left_Blend" data-name="4 Generic - Left Blend" x1="14.2322" y1="26.2322" x2="17.7678" y2="29.7678" gradientUnits="userSpaceOnUse">
      <stop offset="0" stop-color="#f1f1f1"/>
      <stop offset="0.2193" stop-color="#ededed"/>
      <stop offset="0.4465" stop-color="#e1e0e0"/>
      <stop offset="0.6774" stop-color="#ccc"/>
      <stop offset="0.9094" stop-color="#b0afaf"/>
      <stop offset="0.99" stop-color="#a4a3a3"/>
    </linearGradient>
    <linearGradient id="New_Gradient_Swatch_1" data-name="New Gradient Swatch 1" x1="7.5" y1="32" x2="9.5" y2="32" gradientUnits="userSpaceOnUse">
      <stop offset="0" stop-color="#cde6eb"/>
      <stop offset="0.2214" stop-color="#c6e2e8"/>
      <stop offset="0.5419" stop-color="#b3d8e1"/>
      <stop offset="0.9212" stop-color="#93c7d5"/>
      <stop offset="1" stop-color="#8cc3d2"/>
    </linearGradient>
    <linearGradient id="New_Gradient_Swatch_2" data-name="New Gradient Swatch 2" x1="35.4999" y1="22.0847" x2="47.4999" y2="22.0847" gradientUnits="userSpaceOnUse">
      <stop offset="0" stop-color="#7d7d7d"/>
      <stop offset="1" stop-color="#b0b0b0"/>
    </linearGradient>
    <linearGradient id="_3_Generic_-_Top_Blend_2" data-name="3 Generic - Top Blend 2" x1="-96.5992" y1="124.1462" x2="-90.5992" y2="124.1462" gradientTransform="translate(165.6461 109.099) rotate(90)" gradientUnits="userSpaceOnUse">
      <stop offset="0" stop-color="#f1f1f1"/>
      <stop offset="1" stop-color="#cdcdcd"/>
    </linearGradient>
  </defs>
  <polygon points="40.38 12.716 25.89 5.697 24.51 8.171 38.546 14.973 40.38 12.716" fill="url(#Dark_Blue_Grad)"/>
  <path d="M24.0456,3.5264,20.4043,4.5378a3.1532,3.1532,0,0,0-4.2481,1.0115c-1.8577,2.495,1.0115,5.6642,1.0115,5.6642L15.3668,23.0641h0A4.9319,4.9319,0,0,1,16.0035,23a4.9675,4.9675,0,0,1,3.8428,1.8369h0L22.0226,12.63,26,5.5Z" fill="url(#Dark_Blue_Grad-2)"/>
  <path d="M24.0456,3.5264,19.55,4.2a3.0913,3.0913,0,0,0-3.3938,1.3493c-1.8577,2.495,1.0115,5.6642,1.0115,5.6642L15.3668,23.0641h0A4.9319,4.9319,0,0,1,16.0035,23a4.9675,4.9675,0,0,1,3.8428,1.8369h0L22.0226,12.63,26,5.5Z" fill="none" stroke="#464646" stroke-linejoin="round"/>
    <path d="M9.5,28.5H2.9959A2.496,2.496,0,0,1,.5,26.0041v-.0082A2.496,2.496,0,0,1,2.9959,23.5H9.5Z" fill="url(#Dark_Blue_Grad-3)"/>
      <circle cx="19.5" cy="9" r="1" fill="url(#New_Gradient_Swatch_3)"/>
      <path d="M19.5,8.5A.5.5,0,1,1,19,9a.5006.5006,0,0,1,.5-.5m0-1A1.5,1.5,0,1,0,21,9a1.5,1.5,0,0,0-1.5-1.5Z" fill="#147391"/>
    <polygon points="16.5 43.5 16.5 40.5 13.5 40.5 13.5 37.5 6.5 37.5 6.5 40.5 3.5 40.5 3.5 43.5 0.5 43.5 0.5 46.5 19.5 46.5 19.5 43.5 16.5 43.5" stroke="#464646" stroke-miterlimit="10" fill="url(#linear-gradient)"/>
    <polygon points="20 1.5 19 6.5 22 7.5 24.046 3.526 20 1.5" fill="#6f6f6f" stroke="#464646" stroke-linejoin="round"/>
    <line x1="15.9999" y1="43.4998" x2="4" y2="43.4998" fill="none" stroke="#6f6f6f" stroke-miterlimit="10"/>
    <line x1="12.9999" y1="40.4998" x2="7" y2="40.4998" fill="none" stroke="#6f6f6f" stroke-miterlimit="10"/>
    <path d="M16.0035,33a5,5,0,0,1-5-5,4.9462,4.9462,0,0,1,.2544-1.5H4L2.6026,29.0991S6.299,34.2633,6.299,37.5h6.3262l4.5685-4.6583A4.9615,4.9615,0,0,1,16.0035,33Z" fill="url(#Dark_Blue_Grad-4)"/>
    <polyline points="11.258 26.5 4 26.5 2.603 29.099" fill="none" stroke="#147391" stroke-linejoin="round"/>
    <circle cx="16.0035" cy="28" r="5" stroke="#464646" stroke-linejoin="round" fill="url(#Dark_Blue_Grad-5)"/>
    <circle cx="16" cy="28" r="2.5" stroke="#6f6f6f" stroke-miterlimit="10" fill="url(#_4_Generic_-_Left_Blend)"/>
      <rect x="7.5" y="29.5" width="2" height="5" fill="url(#New_Gradient_Swatch_1)"/>
      <path d="M9,30v4H8V30H9m1-1H7v6h3V29Z" fill="#147391"/>
    <polyline points="38.5 15.5 38.5 18.851 35.5 21.579 39.318 28.67 38.227 23.215 40.409 21.033 42.591 21.033 44.773 23.215 43.682 28.67 47.5 21.579 44.486 18.851 44.493 15.5" fill="url(#New_Gradient_Swatch_2)"/>
    <circle cx="41.4999" cy="15.4998" r="3" stroke="#6f6f6f" stroke-miterlimit="10" fill="url(#_3_Generic_-_Top_Blend_2)"/>
    <path d="M11.2579,26.5H9.5v-3H2.9959A2.4958,2.4958,0,0,0,.5,25.9959v.0082a2.4922,2.4922,0,0,0,2.4283,2.4891l-.3257.6059A31.3931,31.3931,0,0,1,5.1655,33.5l.7513,1.8924c.0174.17.3822,1.9465.3822,2.1076h6.3262l.49-.5L16.5,33.5491l.6937-.7074" fill="none" stroke="#464646" stroke-linejoin="round"/>
    <circle cx="41.4999" cy="15.4998" r="1" fill="#474747" stroke="#6f6f6f" stroke-miterlimit="10"/>
  <path d="M47.5,21.5787l-3.0142-2.7273.0069-3.2793c.0006-.0246.0073-.0475.0073-.0723a2.9926,2.9926,0,0,0-4.1252-2.7774l.0051-.0063L25.89,5.6971,24.51,8.171l14.0362,6.8021.0079-.01A3.0013,3.0013,0,0,0,38.5,15.5v3.3516l-3,2.7273L39.3181,28.67,38.2272,23.215l2.1819-2.1818h2.1817l2.1818,2.1818L43.6818,28.67Z" fill="none" stroke="#464646" stroke-linejoin="round"/>
  <path d="M36.7779,15.6641a.8094.8094,0,0,1-.7232-1.1713l1.8206-3.6412a.8093.8093,0,0,1,1.4477.7238l-1.8207,3.6413A.81.81,0,0,1,36.7779,15.6641Z" fill="#6f6f6f" stroke="#464646" stroke-linejoin="round"/>
</svg>
