<svg id="Layer_1" data-name="Layer 1" xmlns="http://www.w3.org/2000/svg" xmlns:xlink="http://www.w3.org/1999/xlink" viewBox="0 0 48 48">
    <linearGradient id="linear-gradient" x1="2.989" y1="2.989" x2="38.5" y2="38.5" gradientUnits="userSpaceOnUse">
      <stop offset="0" stop-color="#fff"/>
      <stop offset="0.248" stop-color="#f8f8f8"/>
      <stop offset="0.606" stop-color="#e5e5e5"/>
      <stop offset="1" stop-color="#c8c8c8"/>
    </linearGradient>
    <linearGradient id="linear-gradient-2" x1="11.25" y1="9.75" x2="22.75" y2="21.25" gradientUnits="userSpaceOnUse">
      <stop offset="0" stop-color="#b1b1b1"/>
      <stop offset="1" stop-color="#7d7d7d"/>
    </linearGradient>
    <linearGradient id="paper_gradient" data-name="paper gradient" x1="26.5" y1="16.289" x2="40.5" y2="30.289" gradientUnits="userSpaceOnUse">
      <stop offset="0" stop-color="#fff"/>
      <stop offset="0.221" stop-color="#f8f8f8"/>
      <stop offset="0.541" stop-color="#e5e5e5"/>
      <stop offset="0.92" stop-color="#c6c6c6"/>
      <stop offset="1" stop-color="#bebebe"/>
    </linearGradient>
    <linearGradient id="front_-45" data-name="front -45" x1="16.923" y1="25.866" x2="36.028" y2="44.971" gradientUnits="userSpaceOnUse">
      <stop offset="0" stop-color="#f2f2f2"/>
      <stop offset="0.5" stop-color="#ccc"/>
      <stop offset="0.63" stop-color="#c7c7c7"/>
      <stop offset="0.779" stop-color="#b9b9b9"/>
      <stop offset="0.938" stop-color="#a2a2a2"/>
      <stop offset="0.99" stop-color="#999"/>
    </linearGradient>
    <linearGradient id="linear-gradient-3" x1="-516.307" y1="988.233" x2="-507.647" y2="990.515" gradientTransform="matrix(0.504, 0.864, 0.864, -0.504, -563.668, 963.866)" xlink:href="#linear-gradient-2"/>
  <path d="M22.074.5a4.149,4.149,0,1,1-8.3,0h-8.3L.5,5.479V38.5h38V.5Z" stroke="#464646" stroke-miterlimit="10" fill="url(#linear-gradient)"/>
  <rect x="12.5" y="8.5" width="9" height="14" stroke="#464646" stroke-miterlimit="10" fill="url(#linear-gradient-2)"/>
  <polyline points="10.5 10.5 7.468 10.5 6 9" fill="none" stroke="#6e6e6e" stroke-linejoin="round"/>
  <polyline points="10.5 20.5 7.819 20.5 4.5 23.819 4.5 25.5" fill="none" stroke="#6e6e6e" stroke-linejoin="round"/>
  <line x1="10.5" y1="15.5" x2="6.5" y2="15.5" fill="none" stroke="#6e6e6e" stroke-linejoin="round"/>
  <rect x="10.5" y="9.5" width="2" height="2" fill="#cbcbcb" stroke="#464646" stroke-miterlimit="10"/>
  <rect x="10.5" y="14.5" width="2" height="2" fill="#cbcbcb" stroke="#464646" stroke-miterlimit="10"/>
  <rect x="10.5" y="19.5" width="2" height="2" fill="#cbcbcb" stroke="#464646" stroke-miterlimit="10"/>
  <polyline points="23.5 15.5 27.521 15.5 34.5 8.521 34.5 6.5" fill="none" stroke="#6e6e6e" stroke-linejoin="round"/>
  <polyline points="23.5 10.5 26.011 10.5 28.5 8.011 28.5 6.5" fill="none" stroke="#6e6e6e" stroke-linejoin="round"/>
  <circle cx="28.5" cy="4.5" r="2" fill="none" stroke="#6e6e6e" stroke-miterlimit="10"/>
  <circle cx="4.5" cy="7.5" r="2" fill="none" stroke="#6e6e6e" stroke-miterlimit="10"/>
  <circle cx="4.5" cy="15.5" r="2" fill="none" stroke="#6e6e6e" stroke-miterlimit="10"/>
  <circle cx="4.5" cy="27.5" r="2" fill="none" stroke="#6e6e6e" stroke-miterlimit="10"/>
  <circle cx="11.5" cy="27.5" r="2" fill="none" stroke="#6e6e6e" stroke-miterlimit="10"/>
  <circle cx="4.5" cy="34.5" r="2" fill="none" stroke="#6e6e6e" stroke-miterlimit="10"/>
  <circle cx="14.5" cy="34.5" r="2" fill="none" stroke="#6e6e6e" stroke-miterlimit="10"/>
  <circle cx="34.5" cy="4.5" r="2" fill="none" stroke="#6e6e6e" stroke-miterlimit="10"/>
  <polyline points="19.5 30.5 16.5 27.5 13.5 27.5" fill="none" stroke="#6e6e6e" stroke-linejoin="round"/>
  <rect x="21.5" y="9.5" width="2" height="2" fill="#cbcbcb" stroke="#464646" stroke-miterlimit="10"/>
  <rect x="21.5" y="14.5" width="2" height="2" fill="#cbcbcb" stroke="#464646" stroke-miterlimit="10"/>
  <rect x="21.5" y="19.5" width="2" height="2" fill="#cbcbcb" stroke="#464646" stroke-miterlimit="10"/>
  <line x1="6.5" y1="34.5" x2="12.5" y2="34.5" fill="none" stroke="#6e6e6e" stroke-linejoin="round"/>
    <polygon points="33.5 31.385 47.5 23.29 47.5 39.5 33.5 47.499 33.5 31.385" fill="#888"/>
    <polygon points="19.5 23.289 33.476 15.193 47.5 23.29 33.5 31.385 19.5 23.289" fill="url(#paper_gradient)"/>
    <polygon points="33.5 31.385 33.5 47.499 19.5 39.5 19.5 23.289 33.5 31.385" fill="url(#front_-45)"/>
    <line x1="33.5" y1="31.385" x2="33.5" y2="47.499" fill="none" stroke="#6e6e6e" stroke-linejoin="round"/>
    <polyline points="47.5 23.29 33.5 31.385 19.5 23.289" fill="none" stroke="#6e6e6e" stroke-linejoin="round"/>
    <polygon points="33.476 15.193 19.5 23.289 19.5 39.403 33.5 47.499 47.5 39.404 47.5 23.29 33.476 15.193" fill="none" stroke="#464646" stroke-linejoin="round"/>
  <line x1="26.715" y1="22.197" x2="35.604" y2="27.204" fill="none" stroke="#6e6e6e" stroke-linecap="round" stroke-linejoin="round"/>
  <line x1="28.92" y1="20.912" x2="37.809" y2="25.919" fill="none" stroke="#6e6e6e" stroke-linecap="round" stroke-linejoin="round"/>
  <line x1="31.08" y1="19.653" x2="39.969" y2="24.66" fill="none" stroke="#6e6e6e" stroke-linecap="round" stroke-linejoin="round"/>
  <polygon points="32.421 27.263 40.115 22.778 34.132 19.321 26.401 23.827 32.421 27.263" stroke="#6e6e6e" stroke-linejoin="round" fill="url(#linear-gradient-3)"/>
  <line x1="37.5" y1="37.367" x2="35.541" y2="38.5" fill="none" stroke="#6e6e6e" stroke-linecap="round" stroke-linejoin="round"/>
  <line x1="45.603" y1="32.682" x2="44.187" y2="33.5" fill="none" stroke="#6e6e6e" stroke-linecap="round" stroke-linejoin="round"/>
  <polygon points="37.5 34.5 37.5 39.645 42.384 34.5 37.5 34.5" fill="none" stroke="#6e6e6e" stroke-linecap="round" stroke-linejoin="round"/>
  <line x1="23.428" y1="33.624" x2="21.469" y2="32.491" fill="none" stroke="#6e6e6e" stroke-linecap="round" stroke-linejoin="round"/>
  <line x1="31.531" y1="38.31" x2="30.116" y2="37.491" fill="none" stroke="#6e6e6e" stroke-linecap="round" stroke-linejoin="round"/>
  <polygon points="23.5 36.5 23.5 31.355 28.384 36.5 23.5 36.5" fill="none" stroke="#6e6e6e" stroke-linecap="round" stroke-linejoin="round"/>
</svg>
