<svg id="Layer_1" data-name="Layer 1" xmlns="http://www.w3.org/2000/svg" xmlns:xlink="http://www.w3.org/1999/xlink" viewBox="0 0 48 48">
    <linearGradient id="linear-gradient" x1="4.7436" y1="3.2564" x2="45.2435" y2="43.7564" gradientUnits="userSpaceOnUse">
      <stop offset="0" stop-color="#73b4c8"/>
      <stop offset="0.1775" stop-color="#6db0c5"/>
      <stop offset="0.4031" stop-color="#5ea5bc"/>
      <stop offset="0.6547" stop-color="#4494ad"/>
      <stop offset="0.9235" stop-color="#207b98"/>
      <stop offset="1" stop-color="#147391"/>
    </linearGradient>
    <linearGradient id="linear-gradient-2" x1="-477.5" y1="-573.5" x2="-477.5" y2="-568.5" gradientTransform="translate(579 -472) rotate(-90)" gradientUnits="userSpaceOnUse">
      <stop offset="0" stop-color="#fff"/>
      <stop offset="0.2214" stop-color="#f8f8f8"/>
      <stop offset="0.5415" stop-color="#e5e5e5"/>
      <stop offset="0.92" stop-color="#c6c6c6"/>
      <stop offset="1" stop-color="#bebebe"/>
    </linearGradient>
    <linearGradient id="linear-gradient-3" x1="-483.5" y1="-573.5" x2="-483.5" y2="-568.5" xlink:href="#linear-gradient-2"/>
    <linearGradient id="linear-gradient-4" x1="-489.5" y1="-573.5" x2="-489.5" y2="-568.5" xlink:href="#linear-gradient-2"/>
    <linearGradient id="linear-gradient-5" x1="-495.5" y1="-573.5" x2="-495.5" y2="-568.5" xlink:href="#linear-gradient-2"/>
    <linearGradient id="linear-gradient-6" x1="-501.5" y1="-573.5" x2="-501.5" y2="-568.5" xlink:href="#linear-gradient-2"/>
    <linearGradient id="linear-gradient-7" x1="-507.5" y1="-573.5" x2="-507.5" y2="-568.5" xlink:href="#linear-gradient-2"/>
    <linearGradient id="linear-gradient-8" x1="-513.5" y1="-573.5" x2="-513.5" y2="-568.5" xlink:href="#linear-gradient-2"/>
  <polygon points="42.5 46.5 7.5 46.5 7.5 0.5 42.474 0.5 42.5 46.5" stroke="#464646" stroke-miterlimit="10" fill="url(#linear-gradient)"/>
  <rect x="5.5" y="4.5" width="5" height="2" stroke="#464646" stroke-linejoin="round" fill="url(#linear-gradient-2)"/>
  <rect x="5.5" y="10.5" width="5" height="2" stroke="#464646" stroke-linejoin="round" fill="url(#linear-gradient-3)"/>
  <rect x="5.5" y="16.5" width="5" height="2" stroke="#464646" stroke-linejoin="round" fill="url(#linear-gradient-4)"/>
  <rect x="5.5" y="22.5" width="5" height="2" stroke="#464646" stroke-linejoin="round" fill="url(#linear-gradient-5)"/>
  <rect x="5.5" y="28.5" width="5" height="2" stroke="#464646" stroke-linejoin="round" fill="url(#linear-gradient-6)"/>
  <rect x="5.5" y="34.5" width="5" height="2" stroke="#464646" stroke-linejoin="round" fill="url(#linear-gradient-7)"/>
  <rect x="5.5" y="40.5" width="5" height="2" stroke="#464646" stroke-linejoin="round" fill="url(#linear-gradient-8)"/>
  <path d="M35.5129,29.5712l-.5953.87A11.001,11.001,0,1,1,37,24v1" fill="none" stroke="#147391" stroke-miterlimit="10" stroke-width="4"/>
  <polyline points="30 29 36 29 36 35" fill="none" stroke="#147391" stroke-miterlimit="10" stroke-width="4"/>
  <polyline points="19 25 27 25 27 16" fill="none" stroke="#147391" stroke-miterlimit="10" stroke-width="4"/>
  <path d="M37,24a10.998,10.998,0,1,0-2.0824,6.4416l.5953-.87" fill="none" stroke="#fff" stroke-miterlimit="10" stroke-width="2"/>
  <polyline points="31 29 36 29 36 34" fill="none" stroke="#fff" stroke-miterlimit="10" stroke-width="2"/>
  <polyline points="20 25 27 25 27 17" fill="none" stroke="#fff" stroke-miterlimit="10" stroke-width="2"/>
</svg>
