<svg id="Layer_1" data-name="Layer 1" xmlns="http://www.w3.org/2000/svg" xmlns:xlink="http://www.w3.org/1999/xlink" viewBox="0 0 48 48">
    <linearGradient id="linear-gradient" x1="3.75" y1="41.75" x2="45.25" y2="0.25" gradientTransform="matrix(1, 0, 0, -1, 0, 48)" gradientUnits="userSpaceOnUse">
      <stop offset="0" stop-color="#fff"/>
      <stop offset="0.2323" stop-color="#fafafa"/>
      <stop offset="0.4964" stop-color="#ededed"/>
      <stop offset="0.775" stop-color="#d6d6d6"/>
      <stop offset="1" stop-color="#bebebe"/>
    </linearGradient>
    <linearGradient id="paper_gradient" data-name="paper gradient" x1="30.5" y1="44.5" x2="42.5" y2="32.5" gradientTransform="matrix(1, 0, 0, -1, 0, 48)" gradientUnits="userSpaceOnUse">
      <stop offset="0" stop-color="#fff"/>
      <stop offset="0.2214" stop-color="#f8f8f8"/>
      <stop offset="0.5415" stop-color="#e5e5e5"/>
      <stop offset="0.92" stop-color="#c6c6c6"/>
      <stop offset="1" stop-color="#bebebe"/>
    </linearGradient>
    <linearGradient id="New_Gradient_Swatch_3" data-name="New Gradient Swatch 3" x1="20.2241" y1="44.0311" x2="24.7681" y2="48.5751" gradientTransform="translate(3.827 -6.8624) rotate(5.0648)" gradientUnits="userSpaceOnUse">
      <stop offset="0" stop-color="#b1b1b1"/>
      <stop offset="1" stop-color="#7d7d7d"/>
    </linearGradient>
    <linearGradient id="front_-45" data-name="front -45" x1="26.2015" y1="34.9687" x2="28.8017" y2="37.5689" gradientTransform="translate(33.7274 -8.8203) rotate(45.0341)" gradientUnits="userSpaceOnUse">
      <stop offset="0" stop-color="#f2f2f2"/>
      <stop offset="0.5" stop-color="#ccc"/>
      <stop offset="0.6296" stop-color="#c7c7c7"/>
      <stop offset="0.7792" stop-color="#b9b9b9"/>
      <stop offset="0.9383" stop-color="#a2a2a2"/>
      <stop offset="0.99" stop-color="#999"/>
    </linearGradient>
    <linearGradient id="Dark_Blue_Grad" data-name="Dark Blue Grad" x1="34.3918" y1="26.7783" x2="36.9921" y2="29.3785" gradientUnits="userSpaceOnUse">
      <stop offset="0" stop-color="#73b4c8"/>
      <stop offset="0.1747" stop-color="#6aaec3"/>
      <stop offset="0.4567" stop-color="#529eb5"/>
      <stop offset="0.8089" stop-color="#2c839f"/>
      <stop offset="1" stop-color="#147391"/>
    </linearGradient>
  <polyline points="33.5 0.5 9.5 0.5 9.5 47.5 45.5 47.5 45.5 12.5" stroke="#464646" stroke-linecap="round" stroke-miterlimit="10" fill="url(#linear-gradient)"/>
  <polygon points="33.5 0.5 33.5 12.5 45.5 12.5 33.5 0.5" stroke="#464646" stroke-linejoin="round" fill="url(#paper_gradient)"/>
      <path d="M24.91,25H23.2749l-1.3271-3.5244H16.5952L15.3384,25H13.7036L18.52,12.3965h1.5293Zm-3.4541-4.86L19.478,14.7783a7.52,7.52,0,0,1-.2021-.8525h-.0352a4.1494,4.1494,0,0,1-.1933.8525l-1.96,5.3613Z" fill="#147391"/>
      <path d="M32.583,24.78H31.1416V23.374h-.0352a3.262,3.262,0,0,1-4.8515.9185,2.4391,2.4391,0,0,1-.7822-1.9029q0-2.5136,2.9707-2.9355l2.6982-.3779q0-2.2852-1.8545-2.2852A4.4511,4.4511,0,0,0,26.3516,17.89V16.4131a4.397,4.397,0,0,1,1.3535-.5757,6.2258,6.2258,0,0,1,1.7051-.2769q3.1728,0,3.1728,3.3663Zm-1.4414-4.5528-2.18.3077a3.22,3.22,0,0,0-1.5644.5317,1.488,1.488,0,0,0-.4483,1.2085,1.35,1.35,0,0,0,.4834,1.0854,1.8532,1.8532,0,0,0,1.2393.4087,2.3072,2.3072,0,0,0,1.771-.7558,2.6772,2.6772,0,0,0,.6987-1.89Z" fill="#147391"/>
      <path d="M24.91,25H23.2749l-1.3271-3.5244H16.5952L15.3384,25H13.7036L18.52,12.3965h1.5293Zm-3.4541-4.86L19.478,14.7783a7.52,7.52,0,0,1-.2021-.8525h-.0352a4.1494,4.1494,0,0,1-.1933.8525l-1.96,5.3613Z" fill="#147391"/>
      <path d="M32.583,24.78H31.1416V23.374h-.0352a3.262,3.262,0,0,1-4.8515.9185,2.4391,2.4391,0,0,1-.7822-1.9029q0-2.5136,2.9707-2.9355l2.6982-.3779q0-2.2852-1.8545-2.2852A4.4511,4.4511,0,0,0,26.3516,17.89V16.4131a4.397,4.397,0,0,1,1.3535-.5757,6.2258,6.2258,0,0,1,1.7051-.2769q3.1728,0,3.1728,3.3663Zm-1.4414-4.5528-2.18.3077a3.22,3.22,0,0,0-1.5644.5317,1.488,1.488,0,0,0-.4483,1.2085,1.35,1.35,0,0,0,.4834,1.0854,1.8532,1.8532,0,0,0,1.2393.4087,2.3072,2.3072,0,0,0,1.771-.7558,2.6772,2.6772,0,0,0,.6987-1.89Z" fill="#147391"/>
    <path d="M24.901,36.2891a4.822,4.822,0,0,0-4.5537,3.1138A5.7321,5.7321,0,0,1,16.44,43.1768s9.5543,3.708,11.0349-4.3155" stroke="#6e6e6e" stroke-miterlimit="10" stroke-width="1.0401" fill="url(#New_Gradient_Swatch_3)"/>
    <rect x="25.6637" y="34.4298" width="3.6762" height="3.6769" fill="url(#front_-45)" stroke="#6e6e6e" stroke-linejoin="round" stroke-width="1.0401" transform="translate(-17.5941 30.0962) rotate(-45.0341)"/>
    <path d="M27.5016,33.6685,41.5168,21.1608a.7783.7783,0,0,1,1.0685.03h0a.7783.7783,0,0,1,.03,1.0688L30.1018,36.2688Z" stroke="#147391" stroke-linejoin="round" stroke-width="1.0401" fill="url(#Dark_Blue_Grad)"/>
</svg>
