<svg id="Layer_1" data-name="Layer 1" xmlns="http://www.w3.org/2000/svg" xmlns:xlink="http://www.w3.org/1999/xlink" width="48" height="48" viewBox="0 0 48 48">
  <defs>
    <linearGradient id="linear-gradient" x1="3.5" y1="41.5" x2="45" gradientTransform="matrix(1, 0, 0, -1, 0, 48)" gradientUnits="userSpaceOnUse">
      <stop offset="0" stop-color="#fff"/>
      <stop offset="0.232" stop-color="#fafafa"/>
      <stop offset="0.496" stop-color="#ededed"/>
      <stop offset="0.775" stop-color="#d6d6d6"/>
      <stop offset="1" stop-color="#bebebe"/>
    </linearGradient>
    <linearGradient id="paper_gradient" data-name="paper gradient" x1="29.25" y1="44.25" x2="42.25" y2="31.25" gradientTransform="matrix(1, 0, 0, -1, 0, 48)" gradientUnits="userSpaceOnUse">
      <stop offset="0" stop-color="#fff"/>
      <stop offset="0.221" stop-color="#f8f8f8"/>
      <stop offset="0.541" stop-color="#e5e5e5"/>
      <stop offset="0.92" stop-color="#c6c6c6"/>
      <stop offset="1" stop-color="#bebebe"/>
    </linearGradient>
  </defs>
  <polygon points="32.5 0.5 9.5 0.5 9.5 47.5 45.5 47.5 45.5 13.5 32.5 0.5" stroke="#464646" stroke-miterlimit="10" fill="url(#linear-gradient)"/>
  <polygon points="32.5 0.5 32.5 13.5 45.5 13.5 32.5 0.5" stroke="#464646" stroke-linejoin="round" fill="url(#paper_gradient)"/>
  <rect x="0.5" y="26.5" width="47" height="16" fill="#28c928" stroke="#464646" stroke-miterlimit="10"/>
  <g>
    <path d="M5.256,31.294v2.278H7.931v1.1H5.256V37.9H3.978v-7.7H8.146v1.1Z" fill="#fff"/>
    <path d="M9.4,37.9V29.753h1.241V37.9Z" fill="#fff"/>
    <path d="M15.837,37.9v-.828h-.022a1.865,1.865,0,0,1-1.659.962,1.85,1.85,0,0,1-1.467-.575,2.551,2.551,0,0,1-.5-1.724V32.4h1.256v3.179q0,1.44,1.144,1.44a1.142,1.142,0,0,0,.908-.4,1.537,1.537,0,0,0,.344-1.042V32.4h1.251v5.5Z" fill="#fff"/>
    <path d="M19.629,35.511a1.609,1.609,0,0,0,.456,1.144,1.692,1.692,0,0,0,1.2.392,2.722,2.722,0,0,0,.9-.148,2.91,2.91,0,0,0,.752-.378v1.047a2.714,2.714,0,0,1-.838.333,4.655,4.655,0,0,1-1.112.129,2.5,2.5,0,0,1-1.939-.75,2.963,2.963,0,0,1-.687-2.081,3.318,3.318,0,0,1,.341-1.541,2.543,2.543,0,0,1,.945-1.029,2.511,2.511,0,0,1,1.33-.368,2.266,2.266,0,0,1,1.77.7,2.784,2.784,0,0,1,.631,1.934v.618Zm2.508-.935a1.456,1.456,0,0,0-.306-1,1.092,1.092,0,0,0-.859-.344,1.2,1.2,0,0,0-.876.373,1.727,1.727,0,0,0-.467.97Z" fill="#fff"/>
    <path d="M28.2,37.9V34.807a2.047,2.047,0,0,0-.261-1.152.945.945,0,0,0-.84-.379,1.18,1.18,0,0,0-.932.427A1.578,1.578,0,0,0,25.8,34.77V37.9H24.56V32.4H25.8v.88h.021a1.97,1.97,0,0,1,1.783-1.015,1.691,1.691,0,0,1,1.356.559,2.552,2.552,0,0,1,.48,1.7V37.9Z" fill="#fff"/>
    <path d="M33.9,37.842a1.551,1.551,0,0,1-.4.126,2.653,2.653,0,0,1-.556.062q-1.617,0-1.617-1.74V33.4h-.912v-1h.912V31.128l1.246-.381V32.4H33.9v1H32.567v2.664a1.134,1.134,0,0,0,.189.738.74.74,0,0,0,.591.218,1.031,1.031,0,0,0,.271-.046.984.984,0,0,0,.277-.121Z" fill="#fff"/>
  </g>
</svg>
