<svg version="1.1" id="Layer_1" xmlns="http://www.w3.org/2000/svg" xmlns:xlink="http://www.w3.org/1999/xlink" x="0px" y="0px"
	 viewBox="0 0 48 48" enable-background="new 0 0 48 48" xml:space="preserve">
<linearGradient id="SVGID_1_" gradientUnits="userSpaceOnUse" x1="5.7613" y1="0.7534" x2="41.2544" y2="36.2466">
	<stop  offset="0" style="stop-color:#73B4C8"/>
	<stop  offset="0.1747" style="stop-color:#6AAEC3"/>
	<stop  offset="0.4567" style="stop-color:#529EB5"/>
	<stop  offset="0.8089" style="stop-color:#2C839F"/>
	<stop  offset="1" style="stop-color:#147391"/>
</linearGradient>
<path fill="url(#SVGID_1_)" stroke="#464646" stroke-linecap="round" stroke-linejoin="round" stroke-miterlimit="10" d="M39.5,35.5
	h-14l-10,10l0-10h-8c-3.3,0-6-2.7-6-6v-22c0-3.3,2.7-6,6-6h32c3.3,0,6,2.7,6,6v22C45.5,32.8,42.8,35.5,39.5,35.5z"/>
	<path fill="#FFFFFF" d="M15,30.5c-0.2,0-0.4,0-0.6-0.1c-0.4-0.2-0.7-0.4-0.8-0.8s-0.1-0.8,0-1.1l9-21c0.2-0.6,0.8-0.9,1.4-0.9
		s1.1,0.4,1.4,0.9l9,21c0.2,0.4,0.2,0.8,0,1.1c-0.1,0.4-0.4,0.7-0.8,0.8c-0.2,0.1-0.4,0.1-0.6,0.1c-0.6,0-1.1-0.4-1.4-0.9l-2.2-5.1
		H18.6l-2.2,5.1C16.1,30.1,15.6,30.5,15,30.5z M28.2,21.5L24,11.8l-4.2,9.7H28.2z"/>
	<path fill="#147391" d="M24,7c0.4,0,0.8,0.2,0.9,0.6l9,21c0.2,0.5,0,1.1-0.5,1.3C33.3,30,33.1,30,33,30c-0.4,0-0.8-0.2-0.9-0.6
		L29.8,24H18.2l-2.3,5.4C15.8,29.8,15.4,30,15,30c-0.1,0-0.3,0-0.4-0.1c-0.5-0.2-0.7-0.8-0.5-1.3l9-21C23.2,7.2,23.6,7,24,7
		 M19.1,22h9.8L24,10.5L19.1,22 M24,6c-0.8,0-1.5,0.5-1.8,1.2l-9,21c-0.2,0.5-0.2,1,0,1.5c0.2,0.5,0.6,0.9,1.1,1.1
		c0.2,0.1,0.5,0.2,0.8,0.2c0.8,0,1.5-0.5,1.8-1.2l2.1-4.8h10.2l2.1,4.8c0.3,0.7,1,1.2,1.8,1.2c0.3,0,0.5-0.1,0.8-0.2
		c0.5-0.2,0.9-0.6,1.1-1.1c0.2-0.5,0.2-1,0-1.5l-9-21C25.5,6.5,24.8,6,24,6L24,6z M20.6,21l3.4-7.9l3.4,7.9H20.6L20.6,21z"/>
</svg>
