<svg id="Layer_1" data-name="Layer 1" xmlns="http://www.w3.org/2000/svg" xmlns:xlink="http://www.w3.org/1999/xlink" viewBox="0 0 48 48">
<linearGradient id="SVGID_1_" gradientUnits="userSpaceOnUse" x1="1.1319" y1="-404.868" x2="39.0208" y2="-442.757" gradientTransform="matrix(1 0 0 -1 0 -400)">
	<stop  offset="0" style="stop-color:#FFFFFF"/>
	<stop  offset="0.2214" style="stop-color:#F8F8F8"/>
	<stop  offset="0.5415" style="stop-color:#E5E5E5"/>
	<stop  offset="0.92" style="stop-color:#C6C6C6"/>
	<stop  offset="1" style="stop-color:#BEBEBE"/>
</linearGradient>
<rect x="3.5" y="2.5" fill="url(#SVGID_1_)" stroke="#464646" stroke-miterlimit="10" width="33.2" height="42.6"/>
<linearGradient id="SVGID_2_" gradientUnits="userSpaceOnUse" x1="5.75" y1="-30.75" x2="18.25" y2="-18.25" gradientTransform="matrix(1 0 0 1 0 32)">
	<stop  offset="0" style="stop-color:#73B4C8"/>
	<stop  offset="0.1747" style="stop-color:#6AAEC3"/>
	<stop  offset="0.4567" style="stop-color:#529EB5"/>
	<stop  offset="0.8089" style="stop-color:#2C839F"/>
	<stop  offset="1" style="stop-color:#147391"/>
</linearGradient>
<polygon fill="url(#SVGID_2_)" stroke="#464646" stroke-miterlimit="10" points="17.5,14.5 12,9 6.5,14.5 6.5,0.5 17.5,0.5 "/>
<path fill="#5A5A5A" d="M12.5,42c-0.1,0-0.3-0.1-0.4-0.1l-2.5-2.5l0.7-0.7l2.1,2.1l5.1-6.1l0.8,0.6l-5.5,6.5
	C12.8,41.9,12.7,42,12.5,42L12.5,42z"/>
<rect x="20" y="39" fill="#5A5A5A" width="13" height="1"/>
<path fill="#5A5A5A" d="M12.5,34c-0.1,0-0.3-0.1-0.4-0.1l-2.5-2.5l0.7-0.7l2.1,2.1l5.1-6.1l0.8,0.6l-5.5,6.5
	C12.8,33.9,12.7,34,12.5,34L12.5,34z"/>
<rect x="20" y="31" fill="#5A5A5A" width="13" height="1"/>
<path fill="#5A5A5A" d="M12.5,26c-0.1,0-0.3-0.1-0.4-0.1l-2.5-2.5l0.7-0.7l2.1,2.1l5.1-6.1l0.8,0.6l-5.5,6.5
	C12.8,25.9,12.7,26,12.5,26L12.5,26z"/>
<rect x="20" y="23" fill="#5A5A5A" width="13" height="1"/>
<linearGradient id="SVGID_3_" gradientUnits="userSpaceOnUse" x1="29.375" y1="25.875" x2="49.625" y2="5.625" gradientTransform="matrix(1 0 0 -1 0 48)">
	<stop  offset="0" style="stop-color:#73B4C8"/>
	<stop  offset="0.1747" style="stop-color:#6AAEC3"/>
	<stop  offset="0.4567" style="stop-color:#529EB5"/>
	<stop  offset="0.8089" style="stop-color:#2C839F"/>
	<stop  offset="1" style="stop-color:#147391"/>
</linearGradient>
<polygon fill="url(#SVGID_3_)" stroke="#464646" stroke-linecap="round" stroke-linejoin="round" stroke-miterlimit="10" points="
	44.5,47.5 29.5,47.5 29.5,22 44.5,12 "/>
<line fill="none" stroke="#147391" stroke-width="3" stroke-linejoin="round" stroke-miterlimit="10" x1="32" y1="31.5" x2="42" y2="31.5"/>
<line fill="none" stroke="#147391" stroke-width="3" stroke-linejoin="round" stroke-miterlimit="10" x1="32" y1="27.5" x2="42" y2="27.5"/>
<line fill="none" stroke="#147391" stroke-width="3" stroke-linejoin="round" stroke-miterlimit="10" x1="32" y1="23.5" x2="42" y2="23.5"/>
<line fill="none" stroke="#147391" stroke-width="3" stroke-linejoin="round" stroke-miterlimit="10" x1="32" y1="39.5" x2="42" y2="39.5"/>
<line fill="none" stroke="#147391" stroke-width="3" stroke-linejoin="round" stroke-miterlimit="10" x1="32" y1="35.5" x2="42" y2="35.5"/>
<line fill="none" stroke="#FFFFFF" stroke-linejoin="round" stroke-miterlimit="10" x1="33" y1="31.5" x2="41" y2="31.5"/>
<line fill="none" stroke="#FFFFFF" stroke-linejoin="round" stroke-miterlimit="10" x1="33" y1="27.5" x2="41" y2="27.5"/>
<line fill="none" stroke="#FFFFFF" stroke-linejoin="round" stroke-miterlimit="10" x1="33" y1="23.5" x2="41" y2="23.5"/>
<line fill="none" stroke="#FFFFFF" stroke-linejoin="round" stroke-miterlimit="10" x1="33" y1="39.5" x2="41" y2="39.5"/>
<line fill="none" stroke="#FFFFFF" stroke-linejoin="round" stroke-miterlimit="10" x1="33" y1="35.5" x2="41" y2="35.5"/>
<polyline fill="none" stroke="#147391" stroke-width="3" stroke-miterlimit="10" points="35.5,47 35.5,43.5 38.5,43.5 38.5,47 "/>
<polyline fill="none" stroke="#FFFFFF" stroke-miterlimit="10" points="35.5,47 35.5,43.5 38.5,43.5 38.5,47 "/>
</svg>
