<svg version="1.1" id="Layer_1" xmlns="http://www.w3.org/2000/svg" xmlns:xlink="http://www.w3.org/1999/xlink" x="0px" y="0px"
	 viewBox="0 0 48 48" enable-background="new 0 0 48 48" xml:space="preserve">
<linearGradient id="SVGID_1_" gradientUnits="userSpaceOnUse" x1="9.5" y1="1.7857" x2="27.5" y2="19.7857">
	<stop  offset="0" style="stop-color:#FFFFFF"/>
	<stop  offset="0.2214" style="stop-color:#F8F8F8"/>
	<stop  offset="0.5415" style="stop-color:#E5E5E5"/>
	<stop  offset="0.92" style="stop-color:#C6C6C6"/>
	<stop  offset="1" style="stop-color:#BEBEBE"/>
</linearGradient>
<polygon fill="url(#SVGID_1_)" points="36.5,10.8 18.5,0.5 0.5,10.8 18.5,21.1 "/>
<linearGradient id="SVGID_2_" gradientUnits="userSpaceOnUse" x1="-2.7143" y1="14" x2="21.7143" y2="38.4286">
	<stop  offset="0" style="stop-color:#F2F2F2"/>
	<stop  offset="0.5" style="stop-color:#CCCCCC"/>
	<stop  offset="0.6296" style="stop-color:#C7C7C7"/>
	<stop  offset="0.7792" style="stop-color:#B9B9B9"/>
	<stop  offset="0.9383" style="stop-color:#A2A2A2"/>
	<stop  offset="0.99" style="stop-color:#999999"/>
</linearGradient>
<polygon fill="url(#SVGID_2_)" points="0.5,10.8 0.5,31.4 18.5,41.6 18.5,21.1 "/>
<polygon fill="#888888" points="18.5,21.1 18.5,41.6 36.5,31.4 36.5,10.8 "/>
<polygon fill="#6E6E6E" points="36,11.1 35.5,10.8 18.5,20.5 1.5,10.8 1,11.1 1,11.6 18,21.4 18,40.8 18.5,41.1 19,40.8 19,21.4 
	36,11.6 "/>
<path fill="#464646" d="M22.7,38.7l-4.2,2.4L1,31.1v-20l17.5-10l17.5,10v11c0.3,0,0.7,0.1,1,0.2V10.8c0-0.2-0.1-0.3-0.3-0.4
	l-18-10.3c-0.2-0.1-0.3-0.1-0.5,0l-18,10.3C0.1,10.4,0,10.6,0,10.8v20.6c0,0.2,0.1,0.3,0.3,0.4l18,10.3c0.1,0,0.2,0.1,0.2,0.1
	s0.2,0,0.2-0.1l4.3-2.5C23,39.3,22.8,39,22.7,38.7z"/>
	<path fill="#464646" d="M34.5,48C27.1,48,21,41.9,21,34.5S27.1,21,34.5,21S48,27.1,48,34.5S41.9,48,34.5,48z"/>
<linearGradient id="SVGID_3_" gradientUnits="userSpaceOnUse" x1="25.6653" y1="25.6653" x2="43.3347" y2="43.3347">
	<stop  offset="0" style="stop-color:#73B4C8"/>
	<stop  offset="0.1747" style="stop-color:#6AAEC3"/>
	<stop  offset="0.4567" style="stop-color:#529EB5"/>
	<stop  offset="0.8089" style="stop-color:#2C839F"/>
	<stop  offset="1" style="stop-color:#147391"/>
</linearGradient>
<path fill="url(#SVGID_3_)" d="M34.5,22C27.6,22,22,27.6,22,34.5S27.6,47,34.5,47S47,41.4,47,34.5S41.4,22,34.5,22z"/>
	<path fill="#147391" d="M30,28h-1h-2h-1v1v3c0,3.9,3.1,7,7,7h4.2l-1.6,1.6l-0.7,0.7l0.7,0.7l1.4,1.4l0.7,0.7l0.7-0.7l5.7-5.7
		l0.7-0.7l-0.7-0.7l-5.7-5.7l-0.7-0.7L37,30.6L35.6,32l-0.7,0.7l0.7,0.7l1.6,1.6H33c-1.7,0-3-1.3-3-3v-3V28L30,28z"/>
<path fill="#FFFFFF" d="M29,29v3c0,2.2,1.8,4,4,4h6.6l-3.3-3.3l1.4-1.4l5.7,5.7l-5.7,5.7l-1.4-1.4l3.3-3.3H33c-3.3,0-6-2.7-6-6v-3
	H29"/>
</svg>
