<svg id="Layer_1" data-name="Layer 1" xmlns="http://www.w3.org/2000/svg" xmlns:xlink="http://www.w3.org/1999/xlink" viewBox="0 0 48 48">
  <defs>
    <linearGradient id="paper_gradient" data-name="paper gradient" x1="1.25" y1="3.75" x2="34.75" y2="37.25" gradientUnits="userSpaceOnUse">
      <stop offset="0" stop-color="#fff"/>
      <stop offset="0.221" stop-color="#f8f8f8"/>
      <stop offset="0.541" stop-color="#e5e5e5"/>
      <stop offset="0.92" stop-color="#c6c6c6"/>
      <stop offset="1" stop-color="#bebebe"/>
    </linearGradient>
    <linearGradient id="front_-45" data-name="front -45" x1="-8.5" y1="9.5" x2="13.5" y2="31.5" gradientUnits="userSpaceOnUse">
      <stop offset="0" stop-color="#f2f2f2"/>
      <stop offset="0.5" stop-color="#ccc"/>
      <stop offset="0.63" stop-color="#c7c7c7"/>
      <stop offset="0.779" stop-color="#b9b9b9"/>
      <stop offset="0.938" stop-color="#a2a2a2"/>
      <stop offset="0.99" stop-color="#999"/>
    </linearGradient>
    <linearGradient id="Dark_Blue_Grad" data-name="Dark Blue Grad" x1="23.99" y1="26.375" x2="36.623" y2="39.009" gradientUnits="userSpaceOnUse">
      <stop offset="0" stop-color="#73b4c8"/>
      <stop offset="0.175" stop-color="#6aaec3"/>
      <stop offset="0.457" stop-color="#529eb5"/>
      <stop offset="0.809" stop-color="#2c839f"/>
      <stop offset="1" stop-color="#147391"/>
    </linearGradient>
  </defs>
  <rect x="4.5" y="0.5" width="27" height="40" fill="url(#paper_gradient)"/>
  <rect x="0.5" y="0.5" width="4" height="40" stroke="#5a5a5a" stroke-miterlimit="10" fill="url(#front_-45)"/>
  <rect x="9.5" y="7.5" width="17" height="8" fill="#fff" stroke="#5a5a5a"/>
  <line x1="21" y1="12.5" x2="11" y2="12.5" fill="none" stroke="#5a5a5a"/>
  <line x1="24" y1="10.5" x2="11" y2="10.5" fill="none" stroke="#5a5a5a"/>
  <polygon points="31.5 40.5 0.5 40.5 0.5 0.5 31.477 0.5 31.5 40.5" fill="none" stroke="#464646" stroke-miterlimit="10" stroke-width="0.993"/>
    <path d="M20.4,47.5a4.9,4.9,0,0,1-3.5-8.326L30.626,27.212a0.2,0.2,0,0,0,.064-0.191c-0.292-1.433-1.042-6.306,1.56-8.906A8.871,8.871,0,0,1,38.566,15.5a8.973,8.973,0,0,1,1.236.086,0.5,0.5,0,0,1,.285.849L36.525,20a0.2,0.2,0,0,0-.056.1l-0.783,3.78a0.2,0.2,0,0,0,.056.182l3.193,3.194a0.2,0.2,0,0,0,.141.059l3.824-.788a0.2,0.2,0,0,0,.1-0.052l3.567-3.565a0.5,0.5,0,0,1,.849.285,8.986,8.986,0,0,1-2.531,7.555,7.809,7.809,0,0,1-5.652,1.9,16.344,16.344,0,0,1-3.253-.346H35.96a0.207,0.207,0,0,0-.172.063L23.9,46.02A4.912,4.912,0,0,1,20.4,47.5Zm0.771-7.168a1.5,1.5,0,1,0,1.062.439A1.493,1.493,0,0,0,21.167,40.332Z" fill="url(#Dark_Blue_Grad)"/>
    <path d="M38.566,16a8.455,8.455,0,0,1,1.168.081l-3.562,3.563a0.7,0.7,0,0,0-.191.353L35.2,23.778a0.7,0.7,0,0,0,.191.638l3.194,3.193a0.7,0.7,0,0,0,.494.206A0.686,0.686,0,0,0,39.22,27.8L43,27.017a0.7,0.7,0,0,0,.353-0.191l3.564-3.563A8.428,8.428,0,0,1,44.529,30.4a7.33,7.33,0,0,1-5.3,1.758,15.832,15.832,0,0,1-3.152-.336,0.715,0.715,0,0,0-.14-0.014,0.7,0.7,0,0,0-.53.24L23.524,45.691A4.394,4.394,0,0,1,16,42.6a4.347,4.347,0,0,1,1.25-3.076l13.7-11.938a0.7,0.7,0,0,0,.226-0.669c-0.279-1.37-1-6.026,1.423-8.452A8.375,8.375,0,0,1,38.566,16m-17.4,27.833a2,2,0,0,0,1.414-.585h0a2,2,0,0,0-2.83-2.828h0a2,2,0,0,0,1.415,3.413M38.566,15a9.368,9.368,0,0,0-6.67,2.763c-2.68,2.679-2.05,7.509-1.729,9.187L16.594,38.773q-0.026.023-.051,0.048A5.4,5.4,0,0,0,20.4,48a5.392,5.392,0,0,0,3.836-1.6q0.024-.024.047-0.05L36.049,32.832a16.761,16.761,0,0,0,3.182.322A8.285,8.285,0,0,0,45.236,31.1a9.489,9.489,0,0,0,2.673-7.978,1,1,0,0,0-1.7-.569l-3.5,3.5-3.536.732-2.965-2.965,0.733-3.536,3.5-3.5a1,1,0,0,0-.569-1.7A9.476,9.476,0,0,0,38.566,15h0Zm-17.4,27.833a1,1,0,1,1,.708-0.293,0.994,0.994,0,0,1-.708.293h0Z" fill="#464646"/>
</svg>
