<svg id="Layer_1" data-name="Layer 1" xmlns="http://www.w3.org/2000/svg" xmlns:xlink="http://www.w3.org/1999/xlink" viewBox="0 0 48 48">
  <defs>
    <linearGradient id="New_Gradient_Swatch_1" data-name="New Gradient Swatch 1" x1="17.5999" y1="18.4999" x2="28.3999" y2="29.2999" gradientUnits="userSpaceOnUse">
      <stop offset="0" stop-color="#cde6eb"/>
      <stop offset="0.2214" stop-color="#c6e2e8"/>
      <stop offset="0.5419" stop-color="#b3d8e1"/>
      <stop offset="0.9212" stop-color="#93c7d5"/>
      <stop offset="1" stop-color="#8cc3d2"/>
    </linearGradient>
    <linearGradient id="New_Gradient_Swatch_2" data-name="New Gradient Swatch 2" x1="-3.5499" y1="15.35" x2="20.75" y2="39.6499" gradientUnits="userSpaceOnUse">
      <stop offset="0" stop-color="#afd7e1"/>
      <stop offset="0.1588" stop-color="#a4d0dc"/>
      <stop offset="0.7059" stop-color="#80bcce"/>
      <stop offset="1" stop-color="#73b4c8"/>
    </linearGradient>
    <linearGradient id="New_Gradient_Swatch_1-2" x1="8.6" y1="3.2" x2="19.4" y2="14" xlink:href="#New_Gradient_Swatch_1"/>
    <linearGradient id="Dark_Blue_Grad" data-name="Dark Blue Grad" x1="28" y1="28" x2="41" y2="41" gradientUnits="userSpaceOnUse">
      <stop offset="0" stop-color="#73b4c8"/>
      <stop offset="0.1747" stop-color="#6aaec3"/>
      <stop offset="0.4567" stop-color="#529eb5"/>
      <stop offset="0.8089" stop-color="#2c839f"/>
      <stop offset="1" stop-color="#147391"/>
    </linearGradient>
    <linearGradient id="Dark_Blue_Grad-2" x1="-138.4999" y1="124.1287" x2="-125.4999" y2="137.1287" gradientTransform="translate(-144.6278 -14.5009) rotate(-120)" xlink:href="#Dark_Blue_Grad"/>
  </defs>
  <g>
    <polygon points="27.5 26.6 27.5 36.5 36.5 31.1 36.5 21.2 27.5 26.6" fill="#3c91af"/>
    <g>
      <polygon points="18.5 32 18.5 41.9 27.5 36.5 27.5 26.6 18.5 32" fill="#3c91af"/>
      <polygon points="18.5 11.3 18.5 21.2 27.5 15.8 27.5 5.9 18.5 11.3" fill="#3c91af"/>
      <polygon points="9.5 16.7 9.5 26.6 18.5 21.2 18.5 11.3 9.5 16.7" fill="#3c91af"/>
      <line x1="18.4999" y1="21.1999" x2="18.4999" y2="11.3" fill="none" stroke="#147391" stroke-linejoin="round"/>
      <polygon points="27.5 15.8 18.5 21.2 9.5 26.6 18.5 32 27.5 26.6 36.5 21.2 27.5 15.8" fill="url(#New_Gradient_Swatch_1)"/>
      <polygon points="9.5 26.6 9.5 16.7 0.5 11.3 0.5 31.1 18.5 41.9 18.5 32 9.5 26.6" fill="url(#New_Gradient_Swatch_2)"/>
      <line x1="9.4999" y1="26.5999" x2="0.5" y2="21.1999" fill="none" stroke="#147391" stroke-linejoin="round"/>
      <line x1="18.4999" y1="31.9999" x2="18.4999" y2="41.8999" fill="none" stroke="#147391" stroke-linejoin="round"/>
      <line x1="9.5001" y1="36.4999" x2="9.5001" y2="16.7" fill="none" stroke="#147391" stroke-linejoin="round"/>
      <polygon points="18.5 0.5 9.5 5.9 0.5 11.3 9.5 16.7 18.5 11.3 27.5 5.9 18.5 0.5" fill="url(#New_Gradient_Swatch_1-2)"/>
      <polyline points="18.5 11.3 9.5 16.7 0.5 11.3" fill="none" stroke="#147391" stroke-linejoin="round"/>
      <polyline points="27.5 26.6 18.5 32 9.5 26.6 18.5 21.2" fill="none" stroke="#147391" stroke-linejoin="round"/>
      <polyline points="27.5 5.9 18.5 11.3 9.5 5.9" fill="none" stroke="#147391" stroke-linejoin="round"/>
      <polyline points="36.5 21.2 27.5 26.6 18.5 21.2 27.5 15.8" fill="none" stroke="#147391" stroke-linejoin="round"/>
      <path d="M.5,11.3V31.1l18,10.8,18-10.8V21.2l-9-5.4V5.9L18.5.5Z" fill="none" stroke="#464646" stroke-linejoin="round"/>
    </g>
  </g>
  <g>
    <line x1="34.5" y1="21.5" x2="34.5" y2="47.5" stroke="#464646" stroke-linecap="round" stroke-linejoin="round" fill="url(#Dark_Blue_Grad)"/>
    <line x1="23.2416" y1="28" x2="45.7583" y2="41" fill="#b1d1da" stroke="#464646" stroke-linecap="round" stroke-linejoin="round"/>
    <line x1="23.2416" y1="41" x2="45.7583" y2="28" stroke="#464646" stroke-linecap="round" stroke-linejoin="round" fill="url(#Dark_Blue_Grad-2)"/>
    <path d="M45.75,40.995a12.9259,12.9259,0,0,0,0-12.99L34.5,34.5Z" fill="#b1d1da"/>
    <path d="M45.75,40.995,34.5,34.5v13A12.9844,12.9844,0,0,0,45.75,40.995Z" fill="#8ab9c8" stroke="#147391" stroke-linecap="round" stroke-linejoin="round"/>
    <path d="M23.25,40.995A12.9844,12.9844,0,0,0,34.5,47.5v-13Z" fill="#63a2b6" stroke="#147391" stroke-linecap="round" stroke-linejoin="round"/>
    <path d="M23.25,28.005a12.9259,12.9259,0,0,0,0,12.99L34.5,34.5Z" fill="#3c8ba4" stroke="#147391" stroke-linecap="round" stroke-linejoin="round"/>
    <path d="M23.25,28.005,34.5,34.5v-13A12.9844,12.9844,0,0,0,23.25,28.005Z" fill="#147391" stroke="#147391" stroke-linecap="round" stroke-linejoin="round"/>
    <path d="M45.75,28.005A12.9844,12.9844,0,0,0,34.5,21.5v13Z" fill="#d8e8ed" stroke="#147391" stroke-linecap="round" stroke-linejoin="round"/>
    <circle cx="34.5" cy="34.5" r="13" fill="none" stroke="#464646" stroke-linecap="round" stroke-linejoin="round"/>
  </g>
</svg>
