<svg id="Layer_1" data-name="Layer 1" xmlns="http://www.w3.org/2000/svg" xmlns:xlink="http://www.w3.org/1999/xlink" viewBox="0 0 48 48">
  <defs>
    <linearGradient id="linear-gradient" x1="7.383" y1="7.383" x2="40.617" y2="40.617" gradientUnits="userSpaceOnUse">
      <stop offset="0" stop-color="#73c8a5"/>
      <stop offset="0.175" stop-color="#6ac39e"/>
      <stop offset="0.457" stop-color="#52b58b"/>
      <stop offset="0.809" stop-color="#2c9f6d"/>
      <stop offset="1" stop-color="#14915a"/>
    </linearGradient>
  </defs>
  <g>
    <circle cx="24" cy="24" r="23.5" fill="url(#linear-gradient)"/>
    <path d="M24,48A24,24,0,1,1,48,24,24.028,24.028,0,0,1,24,48ZM24,1A23,23,0,1,0,47,24,23.026,23.026,0,0,0,24,1Z" fill="#464646"/>
  </g>
  <g>
    <polygon points="16 30 16 13 16 12 15 12 12 12 11 12 11 13 11 34 11 35 12 35 22 35 23 35 23 34 23 31 23 30 22 30 16 30" fill="#464646"/>
    <polygon points="38 12 27 12 26 12 26 13 26 34 26 35 27 35 30 35 31 35 31 34 31 27 37 27 38 27 38 26 38 23 38 22 37 22 31 22 31 17 38 17 39 17 39 16 39 13 39 12 38 12" class="aw-theme-iconOutline" fill="#464646"/>
  </g>
</svg>
