<svg id="Layer_1" data-name="Layer 1" xmlns="http://www.w3.org/2000/svg" xmlns:xlink="http://www.w3.org/1999/xlink" viewBox="0 0 48 48">
  <defs>
    <linearGradient id="New_Gradient_Swatch_2" data-name="New Gradient Swatch 2" x1="1.6716" y1="1.6716" x2="34.3284" y2="34.3284" gradientUnits="userSpaceOnUse">
      <stop offset="0" stop-color="#fff"/>
      <stop offset="0.2284" stop-color="#fafafa"/>
      <stop offset="0.4881" stop-color="#ededed"/>
      <stop offset="0.7621" stop-color="#d7d6d6"/>
      <stop offset="1" stop-color="#bdbcbc"/>
    </linearGradient>
    <linearGradient id="Dark_Blue_Grad" data-name="Dark Blue Grad" x1="27.0148" y1="27.0147" x2="43.9853" y2="43.9853" gradientUnits="userSpaceOnUse">
      <stop offset="0" stop-color="#73b4c8"/>
      <stop offset="0.1747" stop-color="#6aaec3"/>
      <stop offset="0.4567" stop-color="#529eb5"/>
      <stop offset="0.8089" stop-color="#2c839f"/>
      <stop offset="1" stop-color="#147391"/>
    </linearGradient>
  </defs>
  <rect x="0.5" y="0.5" width="35" height="35" rx="4" stroke="#464646" stroke-miterlimit="10" fill="url(#New_Gradient_Swatch_2)"/>
  <polygon points="29.5 24.5 18.5 24.5 18.5 20.5 22.672 20.5 18 15.829 12 21.829 5.336 15.164 8.164 12.336 12 16.171 18 10.171 25.5 17.671 25.5 13.5 29.5 13.5 29.5 24.5" fill="#3c91af" stroke="#147391" stroke-miterlimit="10"/>
  <line x1="36" y1="34" x2="36" y2="26" fill="none" stroke="#147391" stroke-miterlimit="10" stroke-width="0.9048"/>
  <circle cx="35.5" cy="35.5" r="12" stroke="#464646" stroke-linecap="round" stroke-linejoin="round" fill="url(#Dark_Blue_Grad)"/>
    <path d="M31.9008,39.7418a6.3567,6.3567,0,0,0,3.68,1.5264A3.0609,3.0609,0,0,0,38.82,38.4259c-.0029-1.5667-1.5551-2.3388-3.2495-2.83-1.756-.5468-3.2467-1.2641-3.2494-2.8306A3.0607,3.0607,0,0,1,35.56,29.9224a3.348,3.348,0,0,1,2.8209,1.425" fill="none" stroke="#147391" stroke-linecap="round" stroke-linejoin="round" stroke-width="4"/>
    <line x1="35.5" y1="25.9999" x2="35.5" y2="30.1" fill="none" stroke="#147391" stroke-linejoin="round" stroke-width="3"/>
    <line x1="35.5" y1="40.9" x2="35.5" y2="45.0001" fill="none" stroke="#147391" stroke-linejoin="round" stroke-width="3"/>
    <path d="M31.9008,39.7418a6.3567,6.3567,0,0,0,3.68,1.5264A3.0609,3.0609,0,0,0,38.82,38.4259c-.0029-1.5667-1.5551-2.3388-3.2495-2.83-1.756-.5468-3.2467-1.2641-3.2494-2.8306A3.0607,3.0607,0,0,1,35.56,29.9224a3.348,3.348,0,0,1,2.8209,1.425" fill="none" stroke="#fff" stroke-linecap="round" stroke-linejoin="round" stroke-width="2"/>
    <line x1="35.5" y1="27" x2="35.5" y2="30" fill="none" stroke="#fff" stroke-linejoin="round" stroke-width="1"/>
    <line x1="35.5" y1="41" x2="35.5" y2="44" fill="none" stroke="#fff" stroke-linejoin="round"/>
</svg>
