<svg id="Layer_1" data-name="Layer 1" xmlns="http://www.w3.org/2000/svg" xmlns:xlink="http://www.w3.org/1999/xlink" viewBox="0 0 48 48">
    <linearGradient id="linear-gradient" x1="7.336" y1="-4.164" x2="34.25" y2="22.75" gradientUnits="userSpaceOnUse">
      <stop offset="0" stop-color="#fff"/>
      <stop offset="0.232" stop-color="#fafafa"/>
      <stop offset="0.496" stop-color="#ededed"/>
      <stop offset="0.775" stop-color="#d6d6d6"/>
      <stop offset="1" stop-color="#bebebe"/>
    </linearGradient>
    <linearGradient id="paper_gradient" data-name="paper gradient" x1="12.673" y1="-1.149" x2="33.508" y2="19.685" gradientUnits="userSpaceOnUse">
      <stop offset="0" stop-color="#fff"/>
      <stop offset="0.221" stop-color="#f8f8f8"/>
      <stop offset="0.541" stop-color="#e5e5e5"/>
      <stop offset="0.92" stop-color="#c6c6c6"/>
      <stop offset="1" stop-color="#bebebe"/>
    </linearGradient>
    <linearGradient id="linear-gradient-2" x1="5" y1="9" x2="39" y2="43" xlink:href="#linear-gradient"/>
    <linearGradient id="Dark_Blue_Grad" data-name="Dark Blue Grad" x1="22.615" y1="18.115" x2="40.75" y2="36.25" gradientUnits="userSpaceOnUse">
      <stop offset="0" stop-color="#73b4c8"/>
      <stop offset="0.175" stop-color="#6aaec3"/>
      <stop offset="0.457" stop-color="#529eb5"/>
      <stop offset="0.809" stop-color="#2c839f"/>
      <stop offset="1" stop-color="#147391"/>
    </linearGradient>
    <linearGradient id="paper_gradient-2" x1="26.809" y1="19.753" x2="40.672" y2="33.615" xlink:href="#paper_gradient"/>
    <linearGradient id="Dark_Blue_Grad-2" x1="20.5" y1="26.5" x2="44.5" y2="50.5" xlink:href="#Dark_Blue_Grad"/>
  <path d="M43.5,13.5v-6h-25L15.094,2.391A2,2,0,0,0,13.43,1.5H2.5a2,2,0,0,0-2,2v10" stroke="#464646" stroke-miterlimit="10" fill="url(#linear-gradient)"/>
  <polyline points="4.865 13.5 3.622 7.902 36.815 0.534 39.693 13.5" stroke="#464646" stroke-miterlimit="10" fill="url(#paper_gradient)"/>
  <rect x="0.5" y="13.5" width="43" height="25" stroke="#464646" stroke-miterlimit="10" fill="url(#linear-gradient-2)"/>
  <path d="M47.5,29.5v-3H28.7l-2.119-3.446a1.244,1.244,0,0,0-1.035-.554h-6.8A1.244,1.244,0,0,0,17.5,23.745V29.5" stroke="#464646" stroke-miterlimit="10" fill="url(#Dark_Blue_Grad)"/>
  <polyline points="21.614 29.5 20.787 25.775 42.872 20.873 44.787 29.5" stroke="#464646" stroke-linejoin="round" fill="url(#paper_gradient-2)"/>
  <rect x="17.5" y="29.5" width="30" height="18" stroke="#464646" stroke-miterlimit="10" fill="url(#Dark_Blue_Grad-2)"/>
</svg>
