<svg id="Layer_1" data-name="Layer 1" xmlns="http://www.w3.org/2000/svg" xmlns:xlink="http://www.w3.org/1999/xlink" viewBox="0 0 48 48">
  <defs>
    <linearGradient id="linear-gradient" x1="3.75" y1="41.75" x2="45.25" y2="0.25" gradientTransform="matrix(1, 0, 0, -1, 0, 48)" gradientUnits="userSpaceOnUse">
      <stop offset="0" stop-color="#fff"/>
      <stop offset="0.2323" stop-color="#fafafa"/>
      <stop offset="0.4964" stop-color="#ededed"/>
      <stop offset="0.775" stop-color="#d6d6d6"/>
      <stop offset="1" stop-color="#bebebe"/>
    </linearGradient>
    <linearGradient id="paper_gradient" data-name="paper gradient" x1="30.5" y1="44.5" x2="42.5" y2="32.5" gradientTransform="matrix(1, 0, 0, -1, 0, 48)" gradientUnits="userSpaceOnUse">
      <stop offset="0" stop-color="#fff"/>
      <stop offset="0.2214" stop-color="#f8f8f8"/>
      <stop offset="0.5415" stop-color="#e5e5e5"/>
      <stop offset="0.92" stop-color="#c6c6c6"/>
      <stop offset="1" stop-color="#bebebe"/>
    </linearGradient>
  </defs>
  <polyline points="33.5 0.5 9.5 0.5 9.5 47.5 45.5 47.5 45.5 12.5" stroke="#464646" stroke-miterlimit="10" fill="url(#linear-gradient)"/>
  <polygon points="33.5 0.5 33.5 12.5 45.5 12.5 33.5 0.5" stroke="#464646" stroke-linejoin="round" fill="url(#paper_gradient)"/>
  <rect x="0.5" y="27.5" width="47" height="16" fill="#1681d7" stroke="#464646" stroke-miterlimit="10"/>
    <path d="M11.3418,35.0522a4.7344,4.7344,0,0,1-.459,2.1353A3.3337,3.3337,0,0,1,9.5664,38.61a3.806,3.806,0,0,1-1.9629.5024,3.7063,3.7063,0,0,1-1.8984-.4858A3.3187,3.3187,0,0,1,4.41,37.2544a4.3423,4.3423,0,0,1-.459-2.0249,4.7846,4.7846,0,0,1,.459-2.1431A3.337,3.337,0,0,1,5.729,31.6523a3.8834,3.8834,0,0,1,2.0034-.5048,3.627,3.627,0,0,1,1.8745.4834,3.2978,3.2978,0,0,1,1.2784,1.375A4.4283,4.4283,0,0,1,11.3418,35.0522ZM9.9883,35.17a3.2966,3.2966,0,0,0-.6153-2.1352,2.0659,2.0659,0,0,0-1.6943-.7544,2.1146,2.1146,0,0,0-1.7295.7924,3.151,3.151,0,0,0-.6445,2.0542,3.6106,3.6106,0,0,0,.293,1.4986,2.2952,2.2952,0,0,0,.8242,1.0019A2.1318,2.1318,0,0,0,7.625,37.98a2.1636,2.1636,0,0,0,1.7266-.7358A3.07,3.07,0,0,0,9.9883,35.17Z" fill="#fff"/>
    <path d="M15.918,38.9785v-.8271h-.0215a1.885,1.885,0,0,1-.6851.7036,1.8648,1.8648,0,0,1-.9746.2578,1.8467,1.8467,0,0,1-1.4663-.5747,2.55,2.55,0,0,1-.5049-1.7241V33.4785h1.2569v3.18q0,1.4392,1.144,1.44a1.1406,1.1406,0,0,0,.9077-.3975,1.5375,1.5375,0,0,0,.3438-1.042v-3.18h1.2514v5.5Z" fill="#fff"/>
    <path d="M21.5259,38.9248a1.5353,1.5353,0,0,1-.4.126,2.6187,2.6187,0,0,1-.5557.062q-1.6164,0-1.6167-1.74V34.4775H18.04v-.999h.9131V32.2109l1.2461-.3813v1.6489h1.3267v.999H20.1992v2.6641a1.1312,1.1312,0,0,0,.188.7383.7391.7391,0,0,0,.5908.2178,1.0436,1.0436,0,0,0,.2715-.0459.9587.9587,0,0,0,.2764-.1206Z" fill="#fff"/>
    <path d="M22.4551,38.9785V30.8359h1.2407v8.1426Z" fill="#fff"/>
    <path d="M30.41,36.1748a2.9462,2.9462,0,0,1-.7735,2.1377,2.7821,2.7821,0,0,1-2.1.8,2.7244,2.7244,0,0,1-2.0273-.76,2.79,2.79,0,0,1-.7554-2.0595,2.9545,2.9545,0,0,1,.7729-2.1592,2.8646,2.8646,0,0,1,2.1446-.79,2.6623,2.6623,0,0,1,2.0136.7544A2.8767,2.8767,0,0,1,30.41,36.1748Zm-1.2891.043a2.0681,2.0681,0,0,0-.4063-1.3858,1.3877,1.3877,0,0,0-1.1132-.4726,1.41,1.41,0,0,0-1.1446.4941,2.1186,2.1186,0,0,0-.414,1.3965,2.0391,2.0391,0,0,0,.414,1.3613,1.4325,1.4325,0,0,0,1.1543.4864A1.3569,1.3569,0,0,0,28.74,37.62,2.2125,2.2125,0,0,0,29.1211,36.2178Z" fill="#fff"/>
    <path d="M36.7266,36.1748a2.9462,2.9462,0,0,1-.7735,2.1377,2.7821,2.7821,0,0,1-2.1.8,2.7275,2.7275,0,0,1-2.0273-.76,2.7935,2.7935,0,0,1-.7549-2.0595,2.9527,2.9527,0,0,1,.7734-2.1592,2.8623,2.8623,0,0,1,2.1436-.79,2.6611,2.6611,0,0,1,2.0137.7544A2.8728,2.8728,0,0,1,36.7266,36.1748Zm-1.2891.043a2.0734,2.0734,0,0,0-.4053-1.3858,1.3912,1.3912,0,0,0-1.1142-.4726,1.4122,1.4122,0,0,0-1.1446.4941A2.1184,2.1184,0,0,0,32.36,36.25a2.0389,2.0389,0,0,0,.413,1.3613,1.436,1.436,0,0,0,1.1553.4864,1.3548,1.3548,0,0,0,1.1279-.4781A2.2125,2.2125,0,0,0,35.4375,36.2178Z" fill="#fff"/>
    <path d="M41.2168,38.9785l-2.1582-2.6426h-.0215v2.6426H37.7959V30.8359h1.2412v5.1509h.0215l2.0459-2.5083h1.5732L40.3262,36.105l2.5293,2.8735Z" fill="#fff"/>
</svg>
