<svg id="Layer_1" data-name="Layer 1" xmlns="http://www.w3.org/2000/svg" xmlns:xlink="http://www.w3.org/1999/xlink" width="48" height="48" viewBox="0 0 48 48">
  <defs>
    <linearGradient id="linear-gradient" x1="3.5" y1="41.5" x2="45" gradientTransform="matrix(1, 0, 0, -1, 0, 48)" gradientUnits="userSpaceOnUse">
      <stop offset="0" stop-color="#fff"/>
      <stop offset="0.232" stop-color="#fafafa"/>
      <stop offset="0.496" stop-color="#ededed"/>
      <stop offset="0.775" stop-color="#d6d6d6"/>
      <stop offset="1" stop-color="#bebebe"/>
    </linearGradient>
    <linearGradient id="paper_gradient" data-name="paper gradient" x1="29.25" y1="44.25" x2="42.25" y2="31.25" gradientTransform="matrix(1, 0, 0, -1, 0, 48)" gradientUnits="userSpaceOnUse">
      <stop offset="0" stop-color="#fff"/>
      <stop offset="0.221" stop-color="#f8f8f8"/>
      <stop offset="0.541" stop-color="#e5e5e5"/>
      <stop offset="0.92" stop-color="#c6c6c6"/>
      <stop offset="1" stop-color="#bebebe"/>
    </linearGradient>
  </defs>
  <polygon points="32.5 0.5 9.5 0.5 9.5 47.5 45.5 47.5 45.5 13.5 32.5 0.5" stroke="#464646" stroke-miterlimit="10" fill="url(#linear-gradient)"/>
  <polygon points="32.5 0.5 32.5 13.5 45.5 13.5 32.5 0.5" stroke="#464646" stroke-linejoin="round" fill="url(#paper_gradient)"/>
  <rect x="0.5" y="26.5" width="47" height="16" fill="#e5c04c" stroke="#464646" stroke-miterlimit="10"/>
  <g>
    <path d="M6.839,37.9l-.934-2.224q-.377-.9-1.058-.9H4.256V37.9H2.978v-7.7H5.464a2.876,2.876,0,0,1,1.875.548,1.873,1.873,0,0,1,.666,1.531,2.12,2.12,0,0,1-.448,1.362,2.257,2.257,0,0,1-1.244.765v.021a1.2,1.2,0,0,1,.486.363,2.207,2.207,0,0,1,.384.593L8.359,37.9Zm-.177-5.5a1.021,1.021,0,0,0-.362-.835,1.565,1.565,0,0,0-1.024-.3H4.256V33.7h1a1.444,1.444,0,0,0,1.013-.362A1.218,1.218,0,0,0,6.662,32.4Z" fill="#fff"/>
    <path d="M14.509,37.9l-.7-1.945H10.723L10.051,37.9h-1.4l2.916-7.7h1.418l2.928,7.7Zm-2.234-6.548h-.032a2.869,2.869,0,0,1-.113.553l-1.053,2.971H13.44L12.382,31.9A2.958,2.958,0,0,1,12.275,31.348Z" fill="#fff"/>
    <path d="M23.441,33.948a4.092,4.092,0,0,1-.513,2.073,3.466,3.466,0,0,1-1.469,1.386,4.78,4.78,0,0,1-2.2.489h-2.32v-7.7h2.379a4.411,4.411,0,0,1,3.094.956A3.63,3.63,0,0,1,23.441,33.948Zm-1.353.021a2.59,2.59,0,0,0-.736-1.985,2.931,2.931,0,0,0-2.084-.69H18.215v5.5h1.032a2.6,2.6,0,0,0,2.841-2.825Z" fill="#fff"/>
    <path d="M24.87,37.9v-7.7h1.278v7.7Z" fill="#fff"/>
    <path d="M34.968,33.969a4.742,4.742,0,0,1-.459,2.135,3.329,3.329,0,0,1-1.317,1.423,3.806,3.806,0,0,1-1.963.5,3.706,3.706,0,0,1-1.9-.486,3.321,3.321,0,0,1-1.295-1.373,4.335,4.335,0,0,1-.459-2.025A4.781,4.781,0,0,1,28.036,32a3.348,3.348,0,0,1,1.318-1.434,3.894,3.894,0,0,1,2-.5,3.629,3.629,0,0,1,1.875.484,3.3,3.3,0,0,1,1.278,1.375A4.429,4.429,0,0,1,34.968,33.969Zm-1.354.118A3.3,3.3,0,0,0,33,31.952a2.066,2.066,0,0,0-1.694-.754,2.115,2.115,0,0,0-1.73.792,3.155,3.155,0,0,0-.644,2.054,3.6,3.6,0,0,0,.293,1.5,2.3,2.3,0,0,0,.824,1,2.135,2.135,0,0,0,1.2.351,2.166,2.166,0,0,0,1.727-.735A3.075,3.075,0,0,0,33.614,34.087Z" fill="#fff"/>
    <path d="M40.592,35.86a1.921,1.921,0,0,1-.726,1.592,3.17,3.17,0,0,1-2.024.578,4.188,4.188,0,0,1-1.031-.14A2.745,2.745,0,0,1,36,37.579v-1.4a2.8,2.8,0,0,0,.892.537,2.919,2.919,0,0,0,1.084.22A1.478,1.478,0,0,0,38.9,36.7a.842.842,0,0,0,.321-.712,1.047,1.047,0,0,0-.318-.735,5.015,5.015,0,0,0-1.2-.806,4.084,4.084,0,0,1-1.294-.98,1.916,1.916,0,0,1-.424-1.244,1.979,1.979,0,0,1,.322-1.109,2.131,2.131,0,0,1,.924-.768,3.233,3.233,0,0,1,1.364-.277,5.023,5.023,0,0,1,.982.1,3.02,3.02,0,0,1,.688.2V31.7a2.27,2.27,0,0,0-.754-.4,2.864,2.864,0,0,0-.905-.148,1.441,1.441,0,0,0-.916.268.848.848,0,0,0-.341.7,1.085,1.085,0,0,0,.113.515,1.3,1.3,0,0,0,.354.408,6.11,6.11,0,0,0,.876.527,4.749,4.749,0,0,1,1.463,1.066A1.862,1.862,0,0,1,40.592,35.86Z" fill="#fff"/>
    <path d="M46.2,35.86a1.923,1.923,0,0,1-.725,1.592,3.175,3.175,0,0,1-2.025.578,4.188,4.188,0,0,1-1.031-.14,2.756,2.756,0,0,1-.807-.311v-1.4a2.821,2.821,0,0,0,.893.537,2.911,2.911,0,0,0,1.084.22A1.482,1.482,0,0,0,44.5,36.7a.842.842,0,0,0,.32-.712,1.046,1.046,0,0,0-.317-.735,5.015,5.015,0,0,0-1.2-.806,4.073,4.073,0,0,1-1.294-.98,1.917,1.917,0,0,1-.425-1.244,1.979,1.979,0,0,1,.322-1.109,2.137,2.137,0,0,1,.924-.768,3.236,3.236,0,0,1,1.364-.277,5.041,5.041,0,0,1,.983.1,3.024,3.024,0,0,1,.687.2V31.7a2.27,2.27,0,0,0-.754-.4,2.859,2.859,0,0,0-.9-.148,1.442,1.442,0,0,0-.916.268.848.848,0,0,0-.341.7,1.085,1.085,0,0,0,.113.515,1.323,1.323,0,0,0,.354.408,6.11,6.11,0,0,0,.876.527,4.755,4.755,0,0,1,1.464,1.066A1.861,1.861,0,0,1,46.2,35.86Z" fill="#fff"/>
  </g>
</svg>
