<svg version="1.1" id="Layer_1" xmlns="http://www.w3.org/2000/svg" xmlns:xlink="http://www.w3.org/1999/xlink" x="0px" y="0px"
	 viewBox="0 0 48 48" enable-background="new 0 0 48 48" xml:space="preserve">
	<linearGradient id="SVGID_1_" gradientUnits="userSpaceOnUse" x1="6.2276" y1="6.7004" x2="34.803" y2="35.2757">
		<stop  offset="0" style="stop-color:#FFFFFF"/>
		<stop  offset="0.2323" style="stop-color:#FAFAFA"/>
		<stop  offset="0.4964" style="stop-color:#EDEDED"/>
		<stop  offset="0.775" style="stop-color:#D6D6D6"/>
		<stop  offset="1" style="stop-color:#BEBEBE"/>
	</linearGradient>
	<path fill="url(#SVGID_1_)" stroke="#464646" stroke-miterlimit="10" d="M8.7,37.5l3.3-4h17l3.3,4c5-3.6,8.2-10.1,8.2-16.7
		c0-11-9-20.3-20-20.3s-20,9.4-20,20.4C0.5,27.6,3.7,33.8,8.7,37.5z"/>
<linearGradient id="SVGID_2_" gradientUnits="userSpaceOnUse" x1="25.3076" y1="25.3076" x2="43.6924" y2="43.6924">
	<stop  offset="0" style="stop-color:#73B4C8"/>
	<stop  offset="0.1747" style="stop-color:#6AAEC3"/>
	<stop  offset="0.4567" style="stop-color:#529EB5"/>
	<stop  offset="0.8089" style="stop-color:#2C839F"/>
	<stop  offset="1" style="stop-color:#147391"/>
</linearGradient>
<circle fill="url(#SVGID_2_)" stroke="#464646" stroke-miterlimit="10" cx="34.5" cy="34.5" r="13"/>
		<path fill="#FFFFFF" d="M36.4,43c-0.4-0.1-0.6-0.3-0.8-0.6c-0.2-0.3-0.2-0.7-0.1-1l1.1-3.9l2.7,0.7L39,38.8
			c1.1-1.2,1.8-2.7,1.8-4.3c0-0.3,0-0.5,0-0.8l0-0.4l2.5-0.3l0,0.4c0,0.4,0.1,0.7,0.1,1.1c0,2.6-1.1,5-3.1,6.7l0.9,0.2l-0.7,2.7
			L36.4,43z"/>
		<path fill="#147391" d="M42.8,33.4c0,0.3,0.1,0.7,0.1,1c0,2.8-1.4,5.3-3.5,6.8l1.3,0.3l-0.5,1.9l-3.6-1c-0.3-0.1-0.5-0.2-0.6-0.5
			s-0.2-0.5-0.1-0.8l1-3.5l1.9,0.5l-0.4,1.5c1.7-1.2,2.8-3.2,2.8-5.4c0-0.3,0-0.6,0-0.8L42.8,33.4 M43.5,32.6l-0.7,0.1L41,32.9
			L40.2,33l0.1,0.7c0,0.2,0,0.5,0,0.7c0,1.2-0.4,2.3-1,3.3l-0.4-0.1L37,37.1l-0.7-0.2l-0.2,0.7l-1,3.5c-0.1,0.5-0.1,0.9,0.2,1.3
			c0.2,0.4,0.6,0.7,1.1,0.8l3.6,1l0.7,0.2l0.2-0.7l0.5-1.9l0.2-0.7L40.9,41c1.7-1.7,2.7-4.1,2.7-6.5c0-0.4,0-0.8-0.1-1.1L43.5,32.6
			L43.5,32.6z"/>
		<path fill="#FFFFFF" d="M31,42.6c-2.7-1.1-4.7-3.6-5.2-6.5l-0.7,0.7l-1.9-2l2.9-2.8c0.3-0.3,0.6-0.4,1-0.4c0.4,0,0.7,0.2,1,0.4
			l2.8,2.9l-2,1.9l-0.4-0.4c0.6,1.7,1.8,3.1,3.5,3.9l0.3,0.1l-1,2.3L31,42.6z"/>
		<path fill="#147391" d="M27.1,32c0.3,0,0.5,0.1,0.7,0.3l2.6,2.6l-1.4,1.4l-1.1-1.1c0.3,2.4,1.8,4.4,4,5.4l-0.7,1.6
			c-2.9-1.2-4.8-3.9-5.1-6.9l-1,1l-1.4-1.4l2.6-2.6C26.5,32.1,26.8,32,27.1,32C27,32,27.1,32,27.1,32 M27.1,31.3L27.1,31.3
			L27.1,31.3c-0.5,0-0.9,0.2-1.2,0.5l-2.6,2.6l-0.5,0.5l0.5,0.5l1.4,1.4l0.5,0.5l0.5-0.5c0.7,2.7,2.7,5,5.3,6.1l0.7,0.3l0.3-0.7
			l0.7-1.6l0.3-0.7l-0.7-0.3c-1.3-0.6-2.4-1.6-3-2.8l0.3-0.3l1.4-1.4l0.5-0.5l-0.5-0.5l-2.6-2.6C28,31.5,27.5,31.3,27.1,31.3
			L27.1,31.3L27.1,31.3z"/>
		<path fill="#FFFFFF" d="M34.9,28.3l0.3-0.1c-0.2,0-0.5,0-0.7,0c-1.4,0-2.8,0.5-3.9,1.4l-0.3,0.2l-1.5-2l0.3-0.2
			c1.6-1.2,3.4-1.9,5.4-1.9c0.9,0,1.7,0.1,2.6,0.4L36.7,25l2.7-0.7l1.1,3.9c0.1,0.4,0,0.7-0.1,1c-0.2,0.3-0.5,0.5-0.8,0.6l-3.9,1.1
			L34.9,28.3z"/>
		<path fill="#147391" d="M39.1,24.7l1,3.6c0.1,0.3,0,0.5-0.1,0.8c-0.1,0.2-0.3,0.4-0.6,0.5l-3.5,1l-0.5-1.9l1.3-0.4
			c-0.7-0.3-1.5-0.4-2.2-0.4c-1.5,0-2.9,0.5-4.1,1.4l-1.1-1.4c1.5-1.2,3.3-1.8,5.2-1.8c1.1,0,2.2,0.2,3.2,0.6l-0.4-1.4L39.1,24.7
			 M39.7,23.8L38.9,24L37,24.5l-0.7,0.2l0.2,0.7l0,0.1c-0.7-0.2-1.4-0.2-2.1-0.2c-2.1,0-4,0.7-5.7,2l-0.6,0.5l0.5,0.6l1.1,1.4
			l0.5,0.6l0.6-0.5c1.1-0.8,2.3-1.3,3.7-1.3c0,0,0.1,0,0.1,0l0.1,0.2l0.5,1.9l0.2,0.7l0.7-0.2l3.5-1c0.5-0.1,0.8-0.4,1.1-0.8
			c0.2-0.4,0.3-0.9,0.2-1.3l-1-3.6L39.7,23.8L39.7,23.8z"/>
	<line fill="none" stroke="#5A5A5A" x1="20" y1="20" x2="12" y2="12"/>
	<linearGradient id="SVGID_5_" gradientUnits="userSpaceOnUse" x1="18.3787" y1="18.3787" x2="22.6213" y2="22.6213">
		<stop  offset="0" style="stop-color:#FFFFFF"/>
		<stop  offset="0.2214" style="stop-color:#F8F8F8"/>
		<stop  offset="0.5415" style="stop-color:#E5E5E5"/>
		<stop  offset="0.92" style="stop-color:#C6C6C6"/>
		<stop  offset="1" style="stop-color:#BEBEBE"/>
	</linearGradient>
	<path fill="url(#SVGID_5_)" stroke="#5A5A5A" stroke-miterlimit="10" d="M23.5,20.5c0,1.7-1.3,3-3,3h0c-1.7,0-3-1.3-3-3v0
		c0-1.7,1.3-3,3-3h0C22.2,17.5,23.5,18.8,23.5,20.5L23.5,20.5z"/>
</svg>
