<svg version="1.1" id="Layer_1" xmlns="http://www.w3.org/2000/svg" xmlns:xlink="http://www.w3.org/1999/xlink" x="0px" y="0px"
	 viewBox="0 0 48 48" enable-background="new 0 0 48 48" xml:space="preserve">
<linearGradient id="SVGID_1_" gradientUnits="userSpaceOnUse" x1="-0.5" y1="-198.5" x2="41" y2="-240" gradientTransform="matrix(1 0 0 -1 0 -192)">
	<stop  offset="0" style="stop-color:#FFFFFF"/>
	<stop  offset="0.2323" style="stop-color:#FAFAFA"/>
	<stop  offset="0.4964" style="stop-color:#EDEDED"/>
	<stop  offset="0.775" style="stop-color:#D6D6D6"/>
	<stop  offset="1" style="stop-color:#BEBEBE"/>
</linearGradient>
<polygon fill="url(#SVGID_1_)" stroke="#464646" stroke-miterlimit="10" points="28.5,0.5 5.5,0.5 5.5,47.5 41.5,47.5 41.5,13.5 "/>
<linearGradient id="SVGID_2_" gradientUnits="userSpaceOnUse" x1="25.25" y1="-195.75" x2="38.25" y2="-208.75" gradientTransform="matrix(1 0 0 -1 0 -192)">
	<stop  offset="0" style="stop-color:#FFFFFF"/>
	<stop  offset="0.2214" style="stop-color:#F8F8F8"/>
	<stop  offset="0.5415" style="stop-color:#E5E5E5"/>
	<stop  offset="0.92" style="stop-color:#C6C6C6"/>
	<stop  offset="1" style="stop-color:#BEBEBE"/>
</linearGradient>
<polygon fill="url(#SVGID_2_)" stroke="#464646" stroke-linejoin="round" stroke-miterlimit="10" points="28.5,0.5 28.5,13.5 
	41.5,13.5 "/>
<linearGradient id="SVGID_3_" gradientUnits="userSpaceOnUse" x1="13.4655" y1="20.4229" x2="32.5322" y2="39.4896">
	<stop  offset="0" style="stop-color:#73B4C8"/>
	<stop  offset="0.1747" style="stop-color:#6AAEC3"/>
	<stop  offset="0.4567" style="stop-color:#529EB5"/>
	<stop  offset="0.8089" style="stop-color:#2C839F"/>
	<stop  offset="1" style="stop-color:#147391"/>
</linearGradient>
<path fill="url(#SVGID_3_)" stroke="#147391" stroke-miterlimit="10" d="M31.7,34l2,4.3l-2.4,2.4L27,38.6c-0.3-0.1-0.6,0-0.7,0.3
	l-1.6,4.5h-3.4L19.7,39c-0.1-0.3-0.5-0.5-0.7-0.3l-4.3,2l-2.4-2.4l2.1-4.3c0.1-0.3,0-0.6-0.3-0.7l-4.5-1.6v-3.4l4.5-1.6
	c0.3-0.1,0.4-0.5,0.3-0.7l-2-4.3l2.4-2.4l4.3,2.1c0.3,0.1,0.6,0,0.7-0.3l1.6-4.5h3.4l1.6,4.5c0.1,0.3,0.4,0.4,0.7,0.3l4.3-2.1
	l2.4,2.4l-2.1,4.3c-0.1,0.3,0,0.6,0.3,0.7l4.5,1.6v3.4L32,33.2C31.7,33.4,31.5,33.7,31.7,34z M26.5,30c0-1.9-1.6-3.5-3.5-3.5
	s-3.5,1.6-3.5,3.5c0,1.9,1.6,3.5,3.5,3.5C24.9,33.5,26.5,31.9,26.5,30z"/>
</svg>
