<svg id="Layer_1" data-name="Layer 1" xmlns="http://www.w3.org/2000/svg" xmlns:xlink="http://www.w3.org/1999/xlink"  viewBox="0 0 48 48">
    <linearGradient id="front_-45" data-name="front -45" x1="6.668" y1="-4.496" x2="27.332" y2="16.168" gradientUnits="userSpaceOnUse">
      <stop offset="0" stop-color="#f2f2f2"/>
      <stop offset="0.5" stop-color="#ccc"/>
      <stop offset="0.63" stop-color="#c7c7c7"/>
      <stop offset="0.779" stop-color="#b9b9b9"/>
      <stop offset="0.938" stop-color="#a2a2a2"/>
      <stop offset="0.99" stop-color="#999"/>
    </linearGradient>
    <linearGradient id="paper_gradient" data-name="paper gradient" x1="2.918" y1="7.582" x2="31.668" y2="36.332" gradientUnits="userSpaceOnUse">
      <stop offset="0" stop-color="#fff"/>
      <stop offset="0.221" stop-color="#f8f8f8"/>
      <stop offset="0.541" stop-color="#e5e5e5"/>
      <stop offset="0.92" stop-color="#c6c6c6"/>
      <stop offset="1" stop-color="#bebebe"/>
    </linearGradient>
    <linearGradient id="New_Gradient_Swatch_1" data-name="New Gradient Swatch 1" x1="26.5" y1="16.29" x2="40.5" y2="30.29" gradientUnits="userSpaceOnUse">
      <stop offset="0" stop-color="#cde6eb"/>
      <stop offset="0.221" stop-color="#c6e2e8"/>
      <stop offset="0.542" stop-color="#b3d8e1"/>
      <stop offset="0.921" stop-color="#93c7d5"/>
      <stop offset="1" stop-color="#8cc3d2"/>
    </linearGradient>
    <linearGradient id="linear-gradient" x1="16.947" y1="25.842" x2="36.053" y2="44.947" gradientUnits="userSpaceOnUse">
      <stop offset="0" stop-color="#afd7e1"/>
      <stop offset="0.159" stop-color="#a4d0dc"/>
      <stop offset="0.706" stop-color="#80bcce"/>
      <stop offset="1" stop-color="#73b4c8"/>
    </linearGradient>
    <linearGradient id="linear-gradient-2" x1="29.471" y1="35.414" x2="37.529" y2="43.471" xlink:href="#linear-gradient"/>
    <linearGradient id="Dark_Blue_Grad" data-name="Dark Blue Grad" x1="9" y1="2.5" x2="25" y2="18.5" gradientUnits="userSpaceOnUse">
      <stop offset="0" stop-color="#73b4c8"/>
      <stop offset="0.175" stop-color="#6aaec3"/>
      <stop offset="0.457" stop-color="#529eb5"/>
      <stop offset="0.809" stop-color="#2c839f"/>
      <stop offset="1" stop-color="#147391"/>
    </linearGradient>
  <path d="M33.5,10V2.5a2,2,0,0,0-2-2H2.5a2,2,0,0,0-2,2V10h33Z" fill="url(#front_-45)"/>
  <path d="M0.5,10V32.5a2,2,0,0,0,2,2h31V10H0.5Z" fill="url(#paper_gradient)"/>
  <circle cx="9.5" cy="5.5" r="2" fill="#fff" stroke="#6e6e6e" stroke-miterlimit="10"/>
  <line x1="1" y1="18.5" x2="33" y2="18.5" fill="none" stroke="#6e6e6e"/>
  <line x1="1" y1="26.5" x2="33" y2="26.5" fill="none" stroke="#6e6e6e"/>
  <line x1="11.5" y1="11" x2="11.5" y2="34" fill="none" stroke="#6e6e6e"/>
  <line x1="22.5" y1="11" x2="22.5" y2="34" fill="none" stroke="#6e6e6e"/>
  <path d="M31.5,0.5H2.5a2,2,0,0,0-2,2v30a2,2,0,0,0,2,2h31V2.5A2,2,0,0,0,31.5.5Z" fill="none" stroke="#464646" stroke-miterlimit="10"/>
  <polygon points="33.5 31.386 47.5 23.29 47.5 39.404 33.5 47.5 33.5 31.386" fill="#3c91af"/>
  <polygon points="19.5 23.289 33.476 15.194 47.5 23.29 33.5 31.386 19.5 23.289" fill="url(#New_Gradient_Swatch_1)"/>
  <polygon points="33.5 31.386 33.5 47.5 19.5 39.403 19.5 23.289 33.5 31.386" fill="url(#linear-gradient)"/>
  <polyline points="47.5 23.29 33.5 31.386 19.5 23.289" fill="none" stroke="#147391" stroke-linejoin="round"/>
  <line x1="33.5" y1="31.386" x2="33.5" y2="47.5" stroke="#147391" stroke-linejoin="round" fill="url(#linear-gradient-2)"/>
  <polygon points="33.476 15.194 19.5 23.289 19.5 39.403 33.5 47.5 47.5 39.404 47.5 23.29 33.476 15.194" fill="none" stroke="#464646" stroke-linejoin="round"/>
  <circle cx="24.5" cy="5.5" r="2" fill="#fff" stroke="#6e6e6e" stroke-miterlimit="10"/>
  <line x1="1" y1="10.5" x2="33" y2="10.5" stroke="#6e6e6e" stroke-miterlimit="10" fill="url(#Dark_Blue_Grad)"/>
</svg>
