<svg id="Layer_1" data-name="Layer 1" xmlns="http://www.w3.org/2000/svg" xmlns:xlink="http://www.w3.org/1999/xlink" width="48" height="48" viewBox="0 0 48 48">
  <defs>
    <linearGradient id="linear-gradient" x1="3.5" y1="41.5" x2="45" gradientTransform="matrix(1, 0, 0, -1, 0, 48)" gradientUnits="userSpaceOnUse">
      <stop offset="0" stop-color="#fff"/>
      <stop offset="0.232" stop-color="#fafafa"/>
      <stop offset="0.496" stop-color="#ededed"/>
      <stop offset="0.775" stop-color="#d6d6d6"/>
      <stop offset="1" stop-color="#bebebe"/>
    </linearGradient>
    <linearGradient id="paper_gradient" data-name="paper gradient" x1="29.25" y1="44.25" x2="42.25" y2="31.25" gradientTransform="matrix(1, 0, 0, -1, 0, 48)" gradientUnits="userSpaceOnUse">
      <stop offset="0" stop-color="#fff"/>
      <stop offset="0.221" stop-color="#f8f8f8"/>
      <stop offset="0.541" stop-color="#e5e5e5"/>
      <stop offset="0.92" stop-color="#c6c6c6"/>
      <stop offset="1" stop-color="#bebebe"/>
    </linearGradient>
  </defs>
  <polygon points="32.5 0.5 9.5 0.5 9.5 47.5 45.5 47.5 45.5 13.5 32.5 0.5" stroke="#464646" stroke-miterlimit="10" fill="url(#linear-gradient)"/>
  <polygon points="32.5 0.5 32.5 13.5 45.5 13.5 32.5 0.5" stroke="#464646" stroke-linejoin="round" fill="url(#paper_gradient)"/>
  <rect x="0.5" y="17.5" width="47" height="25" fill="#3296b9" stroke="#464646" stroke-miterlimit="10"/>
  <g>
    <path d="M6.663,22.294v6.6H5.374v-6.6H3.167v-1.1H8.876v1.1Z" fill="#fff"/>
    <path d="M13.5,28.9V25.78a2.064,2.064,0,0,0-.249-1.122.911.911,0,0,0-.825-.382,1.184,1.184,0,0,0-.934.419,1.545,1.545,0,0,0-.366,1.053V28.9H9.886V20.753h1.24v3.5h.022a1.951,1.951,0,0,1,1.751-.994,1.693,1.693,0,0,1,1.383.575,2.579,2.579,0,0,1,.475,1.681V28.9Z" fill="#fff"/>
    <path d="M17.174,26.511a1.609,1.609,0,0,0,.457,1.144,1.69,1.69,0,0,0,1.2.392,2.731,2.731,0,0,0,.9-.148,2.926,2.926,0,0,0,.752-.378v1.047a2.724,2.724,0,0,1-.838.333,4.661,4.661,0,0,1-1.112.129,2.5,2.5,0,0,1-1.939-.75A2.959,2.959,0,0,1,15.9,26.2a3.318,3.318,0,0,1,.341-1.541,2.55,2.55,0,0,1,.945-1.029,2.516,2.516,0,0,1,1.33-.368,2.266,2.266,0,0,1,1.77.7,2.779,2.779,0,0,1,.631,1.934v.618Zm2.509-.935a1.451,1.451,0,0,0-.307-1,1.09,1.09,0,0,0-.859-.344,1.2,1.2,0,0,0-.875.373,1.735,1.735,0,0,0-.468.97Z" fill="#fff"/>
    <path d="M25.273,24.6a1.031,1.031,0,0,0-.316-.129,1.577,1.577,0,0,0-.4-.059,1.029,1.029,0,0,0-.875.462,2.01,2.01,0,0,0-.333,1.2V28.9H22.105V23.4h1.241v1.068h.021a1.826,1.826,0,0,1,.553-.859,1.449,1.449,0,0,1,1.353-.231Z" fill="#fff"/>
    <path d="M33.138,28.9V25.791a2.086,2.086,0,0,0-.247-1.155.95.95,0,0,0-.844-.36.994.994,0,0,0-.821.446,1.763,1.763,0,0,0-.333,1.085V28.9H29.652V25.684q0-1.407-1.08-1.408a1,1,0,0,0-.835.427,1.8,1.8,0,0,0-.319,1.1V28.9H26.177V23.4h1.241v.848h.021a1.9,1.9,0,0,1,1.741-.983,1.67,1.67,0,0,1,.968.285,1.543,1.543,0,0,1,.594.8,2.2,2.2,0,0,1,.787-.822,2.114,2.114,0,0,1,1.061-.258,1.667,1.667,0,0,1,1.335.532,2.584,2.584,0,0,1,.459,1.7v3.4Z" fill="#fff"/>
    <path d="M38.868,28.9v-.758h-.021a1.83,1.83,0,0,1-1.627.892,1.793,1.793,0,0,1-1.28-.441,1.563,1.563,0,0,1-.466-1.192,1.7,1.7,0,0,1,.457-1.241,2.2,2.2,0,0,1,1.341-.58l1.607-.22q0-1.124-1.042-1.123a2.952,2.952,0,0,0-.981.167,3.106,3.106,0,0,0-.845.446v-1.1a3.164,3.164,0,0,1,.888-.338,4.407,4.407,0,0,1,1.067-.151,2.126,2.126,0,0,1,1.593.551,2.2,2.2,0,0,1,.534,1.6V28.9Zm-2.176-1.628a.7.7,0,0,0,.258.567,1,1,0,0,0,.656.212,1.2,1.2,0,0,0,.913-.379,1.327,1.327,0,0,0,.36-.953v-.494l-1.187.155a1.5,1.5,0,0,0-.782.28A.792.792,0,0,0,36.692,27.268Z" fill="#fff"/>
    <path d="M41.511,28.9V20.753h1.241V28.9Z" fill="#fff"/>
  </g>
  <g>
    <path d="M5.252,31.459v2.278H7.927v1.1H5.252v3.223H3.974v-7.7H8.142v1.1Z" fill="#fff"/>
    <path d="M9.4,38.061V29.918h1.241v8.143Z" fill="#fff"/>
    <path d="M17.573,35.257A2.951,2.951,0,0,1,16.8,37.4a2.787,2.787,0,0,1-2.1.8,2.732,2.732,0,0,1-2.028-.76,2.8,2.8,0,0,1-.755-2.06,2.95,2.95,0,0,1,.774-2.159,2.861,2.861,0,0,1,2.143-.79,2.662,2.662,0,0,1,2.014.755A2.869,2.869,0,0,1,17.573,35.257Zm-1.289.043a2.071,2.071,0,0,0-.406-1.386,1.39,1.39,0,0,0-1.114-.473,1.41,1.41,0,0,0-1.144.495,2.112,2.112,0,0,0-.413,1.4,2.033,2.033,0,0,0,.413,1.361,1.433,1.433,0,0,0,1.155.487A1.358,1.358,0,0,0,15.9,36.7,2.212,2.212,0,0,0,16.284,35.3Z" fill="#fff"/>
    <path d="M24.658,38.061H23.336l-1.009-3.653a1.723,1.723,0,0,1-.056-.3c-.013-.113-.025-.2-.036-.271h-.021a3.543,3.543,0,0,1-.108.558l-1.079,3.664h-1.3l-1.617-5.5H19.4l.978,3.883a3.145,3.145,0,0,1,.081.537h.032a2.559,2.559,0,0,1,.1-.559l1.134-3.861h1.187l1.036,3.894a5.254,5.254,0,0,1,.076.547h.032a3.575,3.575,0,0,1,.091-.547l.935-3.894h1.2Z" fill="#fff"/>
  </g>
</svg>
