<svg id="Layer_1" data-name="Layer 1" xmlns="http://www.w3.org/2000/svg" xmlns:xlink="http://www.w3.org/1999/xlink" viewBox="0 0 48 48">
    <linearGradient id="front_-45" data-name="front -45" x1="6.5" y1="6.5" x2="20.5" y2="6.5" gradientUnits="userSpaceOnUse">
      <stop offset="0" stop-color="#f2f2f2"/>
      <stop offset="0.5" stop-color="#ccc"/>
      <stop offset="0.63" stop-color="#c7c7c7"/>
      <stop offset="0.779" stop-color="#b9b9b9"/>
      <stop offset="0.938" stop-color="#a2a2a2"/>
      <stop offset="0.99" stop-color="#999"/>
    </linearGradient>
    <linearGradient id="front_-45-2" x1="28.5" x2="41.5" xlink:href="#front_-45"/>
    <linearGradient id="paper_gradient" data-name="paper gradient" x1="3.75" y1="6.25" x2="44.25" y2="46.75" gradientUnits="userSpaceOnUse">
      <stop offset="0" stop-color="#fff"/>
      <stop offset="0.221" stop-color="#f8f8f8"/>
      <stop offset="0.541" stop-color="#e5e5e5"/>
      <stop offset="0.92" stop-color="#c6c6c6"/>
      <stop offset="1" stop-color="#bebebe"/>
    </linearGradient>
    <linearGradient id="New_Gradient_Swatch_1" data-name="New Gradient Swatch 1" x1="4.792" y1="13.792" x2="28.208" y2="37.208" gradientUnits="userSpaceOnUse">
      <stop offset="0" stop-color="#cde6eb"/>
      <stop offset="0.221" stop-color="#c6e2e8"/>
      <stop offset="0.542" stop-color="#b3d8e1"/>
      <stop offset="0.921" stop-color="#93c7d5"/>
      <stop offset="1" stop-color="#8cc3d2"/>
    </linearGradient>
    <linearGradient id="linear-gradient" x1="12.257" y1="23.257" x2="20.743" y2="31.743" gradientUnits="userSpaceOnUse">
      <stop offset="0" stop-color="#8cc3d2"/>
      <stop offset="0.079" stop-color="#93c7d5"/>
      <stop offset="0.458" stop-color="#b3d8e1"/>
      <stop offset="0.779" stop-color="#c6e2e8"/>
      <stop offset="1" stop-color="#cde6eb"/>
    </linearGradient>
    <linearGradient id="Dark_Blue_Grad" data-name="Dark Blue Grad" x1="12.43" y1="25.271" x2="19.82" y2="32.662" gradientUnits="userSpaceOnUse">
      <stop offset="0" stop-color="#73b4c8"/>
      <stop offset="0.175" stop-color="#6aaec3"/>
      <stop offset="0.457" stop-color="#529eb5"/>
      <stop offset="0.809" stop-color="#2c839f"/>
      <stop offset="1" stop-color="#147391"/>
    </linearGradient>
    <linearGradient id="New_Gradient_Swatch_1-2" x1="34" y1="31.5" x2="34" y2="24.5" xlink:href="#New_Gradient_Swatch_1"/>
    <linearGradient id="Dark_Blue_Grad-2" x1="27" y1="29" x2="41" y2="43" xlink:href="#Dark_Blue_Grad"/>
    <linearGradient id="New_Gradient_Swatch_1-3" x1="25.628" y1="27.102" x2="36.429" y2="27.102" xlink:href="#New_Gradient_Swatch_1"/>
    <linearGradient id="New_Gradient_Swatch_1-4" x1="36.294" y1="28.045" x2="37.625" y2="29.376" gradientTransform="translate(31.125 -17.725) rotate(44.999)" xlink:href="#New_Gradient_Swatch_1"/>
    <linearGradient id="New_Gradient_Swatch_1-5" x1="35.839" y1="23.639" x2="42.061" y2="29.861" xlink:href="#New_Gradient_Swatch_1"/>
    <linearGradient id="New_Gradient_Swatch_1-6" x1="33.547" y1="29.959" x2="35.69" y2="32.103" xlink:href="#New_Gradient_Swatch_1"/>
  <polyline points="6.5 9.5 6.5 3.5 20.5 3.5 20.5 9.5" stroke="#464646" stroke-miterlimit="10" fill="url(#front_-45)"/>
  <polyline points="28.5 9.5 28.5 3.5 41.5 3.5 41.5 9.5" stroke="#464646" stroke-miterlimit="10" fill="url(#front_-45-2)"/>
  <rect x="0.5" y="9.5" width="47" height="34" stroke="#464646" stroke-miterlimit="10" stroke-width="0.995" fill="url(#paper_gradient)"/>
  <line x1="8" y1="39" x2="11" y2="39" fill="none" stroke="#147391" stroke-miterlimit="10" stroke-width="2"/>
  <line x1="22" y1="39" x2="24" y2="39" fill="none" stroke="#147391" stroke-miterlimit="10" stroke-width="2"/>
  <rect x="5.5" y="12.5" width="22" height="26" rx="0.997" ry="0.997" stroke="#147391" stroke-miterlimit="10" fill="url(#New_Gradient_Swatch_1)"/>
  <line x1="6" y1="16.5" x2="27" y2="16.5" fill="none" stroke="#147391" stroke-miterlimit="10"/>
  <line x1="18" y1="14.5" x2="19" y2="14.5" fill="none" stroke="#147391" stroke-miterlimit="10"/>
  <line x1="20" y1="14.5" x2="21" y2="14.5" fill="none" stroke="#147391" stroke-miterlimit="10"/>
  <line x1="22" y1="14.5" x2="23" y2="14.5" fill="none" stroke="#147391" stroke-miterlimit="10"/>
  <line x1="24" y1="14.5" x2="26" y2="14.5" fill="none" stroke="#147391" stroke-miterlimit="10"/>
  <line x1="8" y1="14.5" x2="13" y2="14.5" fill="none" stroke="#147391" stroke-miterlimit="10"/>
  <circle cx="16.5" cy="27.5" r="6" fill="url(#linear-gradient)"/>
  <path d="M18.766,27.1c-2.267,0-2.267,1.6-4.534,1.6-1.954,0-2.226-1.188-3.715-1.515-.005.105-.016.209-.016.315a6,6,0,0,0,11.9,1.093C20.983,28.239,20.681,27.1,18.766,27.1Z" fill="url(#Dark_Blue_Grad)"/>
  <path d="M22.4,28.593c-1.413-.355-1.715-1.493-3.63-1.493-2.267,0-2.267,1.6-4.534,1.6-1.954,0-2.226-1.188-3.715-1.515" fill="none" stroke="#147391" stroke-linejoin="round"/>
  <circle cx="16.5" cy="27.5" r="8" fill="none" stroke="#147391" stroke-miterlimit="10"/>
  <circle cx="16.5" cy="27.5" r="6" fill="none" stroke="#147391" stroke-miterlimit="10"/>
  <rect x="24.5" y="24.5" width="19" height="7" fill="url(#New_Gradient_Swatch_1-2)"/>
  <polygon points="37.32 25.121 38.209 24.232 38.759 24.795 37.871 25.684 37.32 25.121" fill="#709b97" opacity="0.8"/>
  <rect x="24.5" y="31.5" width="19" height="9" fill="url(#Dark_Blue_Grad-2)"/>
  <line x1="25" y1="31.5" x2="43" y2="31.5" fill="none" stroke="#147391" stroke-miterlimit="10"/>
  <polyline points="35.501 37 35.501 35.5 32.501 35.5 32.501 37" fill="none" stroke="#147391" stroke-miterlimit="10"/>
  <rect x="24.5" y="24.5" width="19" height="16" fill="none" stroke="#147391" stroke-miterlimit="10"/>
  <path d="M28.465,28.378a4.93,4.93,0,0,0,.883-.142l3.19,3.264h3.892L31.2,26.274a4.748,4.748,0,0,0,.1-.732A2.837,2.837,0,0,0,27.73,22.8l1.6,1.6L28.921,26l-1.6.405-1.6-1.6a2.837,2.837,0,0,0,2.74,3.571Z" stroke="#147391" stroke-linejoin="round" fill="url(#New_Gradient_Swatch_1-3)"/>
  <rect x="35.842" y="27.769" width="2.235" height="1.882" transform="translate(-9.476 34.542) rotate(-44.999)" stroke="#147391" stroke-linejoin="round" fill="url(#New_Gradient_Swatch_1-4)"/>
  <path d="M38.8,24.824l-.593-.593v-.593l-.889-.889a.419.419,0,0,0-.593,0l-.889.889a.419.419,0,0,0,0,.593l.889.889h.593l.593.593-.889,1.481,1.481,1.481s1.714-1.256,2.37-.593,0,2.37,0,2.37l.3.3c1.7-2.431.3-3.852.3-3.852l-2.074-2.074A.419.419,0,0,0,38.8,24.824Z" stroke="#147391" stroke-linejoin="round" fill="url(#New_Gradient_Swatch_1-5)"/>
  <path d="M36.293,31.5l.584-.818a.4.4,0,0,0-.043-.516L35.5,28.835a.4.4,0,0,0-.516-.043l-.932.666a.405.405,0,0,0-.05.043l-2,2Z" stroke="#147391" stroke-linejoin="round" fill="url(#New_Gradient_Swatch_1-6)"/>
</svg>
