<svg version="1.1" id="Layer_1" xmlns="http://www.w3.org/2000/svg" xmlns:xlink="http://www.w3.org/1999/xlink" x="0px" y="0px"
	 viewBox="0 0 48 48" enable-background="new 0 0 48 48" xml:space="preserve">
<rect x="0" fill="none" width="48" height="48"/>
	<linearGradient id="SVGID_1_" gradientUnits="userSpaceOnUse" x1="7.1028" y1="14.6843" x2="32.8918" y2="40.4734">
		<stop  offset="0" style="stop-color:#FFFFFF"/>
		<stop  offset="0.2214" style="stop-color:#F8F8F8"/>
		<stop  offset="0.5415" style="stop-color:#E5E5E5"/>
		<stop  offset="0.92" style="stop-color:#C6C6C6"/>
		<stop  offset="1" style="stop-color:#BEBEBE"/>
	</linearGradient>
	<polygon fill="url(#SVGID_1_)" points="1.1,34.5 12.6,14.7 15.5,19.7 9.9,29.5 30.1,29.5 17.1,6.8 20,1.8 38.9,34.5 	"/>
	<path fill="#464646" d="M20,2.8L38,34H2l10.6-18.3l2.3,4L9,30h22L17.7,6.8L20,2.8 M20,0.8l-0.9,1.5l-2.3,4l-0.3,0.5l0.3,0.5
		L29.3,29H10.7l5.1-8.8l0.3-0.5l-0.3-0.5l-2.3-4l-0.9-1.5l-0.9,1.5L1.1,33.5L0.3,35H2h36h1.7l-0.9-1.5l-18-31.2L20,0.8L20,0.8z"/>
<linearGradient id="SVGID_2_" gradientUnits="userSpaceOnUse" x1="26.1612" y1="26.1612" x2="43.8388" y2="43.8388">
	<stop  offset="0" style="stop-color:#73B4C8"/>
	<stop  offset="0.1747" style="stop-color:#6AAEC3"/>
	<stop  offset="0.4567" style="stop-color:#529EB5"/>
	<stop  offset="0.8089" style="stop-color:#2C839F"/>
	<stop  offset="1" style="stop-color:#147391"/>
</linearGradient>
<circle fill="url(#SVGID_2_)" stroke="#464646" stroke-linecap="round" stroke-linejoin="round" stroke-miterlimit="10" cx="35" cy="35" r="12.5"/>
		<path fill="#464646" d="M35,22.9c6.7,0,12.1,5.4,12.1,12.1S41.7,47.1,35,47.1S22.9,41.7,22.9,35S28.3,22.9,35,22.9 M35,22
			c-7.2,0-13,5.8-13,13s5.8,13,13,13s13-5.8,13-13S42.2,22,35,22L35,22z"/>
	<path fill="#FFFFFF" d="M35,40.5c-0.8,0-1.5-0.7-1.5-1.5v-1.7c0-1.7,1-3.3,2.5-4c1-0.5,1.6-1.6,1.4-2.7c-0.2-1-1-1.8-2-2
		c-0.2,0-0.3,0-0.5,0c-0.6,0-1.2,0.2-1.6,0.6c-0.6,0.5-0.9,1.2-0.9,1.9c0,0.8-0.7,1.5-1.5,1.5s-1.5-0.7-1.5-1.5c0-1.6,0.7-3.2,2-4.2
		c1-0.8,2.2-1.3,3.5-1.3c0.3,0,0.7,0,1,0.1c2.2,0.4,4,2.2,4.4,4.4c0.4,2.5-0.8,4.9-3.1,6c-0.5,0.2-0.8,0.7-0.8,1.3V39
		C36.5,39.8,35.8,40.5,35,40.5z"/>
	<path fill="#147391" d="M35,26c0.3,0,0.6,0,0.9,0.1c2,0.4,3.7,2,4,4c0.4,2.3-0.8,4.5-2.8,5.4c-0.7,0.3-1.1,1-1.1,1.7V39
		c0,0.6-0.4,1-1,1c-0.6,0-1-0.4-1-1v-1.7c0-1.5,0.9-2.9,2.3-3.5c1.3-0.6,1.9-1.9,1.7-3.3c-0.2-1.2-1.2-2.2-2.4-2.4
		c-0.2,0-0.4,0-0.6,0c-0.7,0-1.4,0.2-1.9,0.7C32.4,29.3,32,30.1,32,31c0,0.6-0.4,1-1,1c-0.6,0-1-0.4-1-1c0-1.5,0.7-2.9,1.8-3.8
		C32.7,26.4,33.8,26,35,26 M35,25L35,25c-1.4,0-2.8,0.5-3.9,1.4C29.8,27.5,29,29.2,29,31c0,1.1,0.9,2,2,2c1.1,0,2-0.9,2-2
		c0-0.6,0.3-1.2,0.7-1.5c0.4-0.3,0.8-0.5,1.3-0.5c0.1,0,0.3,0,0.4,0c0.8,0.1,1.4,0.8,1.6,1.6c0.2,0.9-0.3,1.8-1.1,2.2
		c-1.7,0.8-2.8,2.5-2.8,4.5V39c0,1.1,0.9,2,2,2c1.1,0,2-0.9,2-2v-1.7c0-0.4,0.2-0.7,0.5-0.8c2.5-1.1,3.9-3.8,3.4-6.5
		c-0.4-2.4-2.4-4.4-4.8-4.8C35.7,25,35.4,25,35,25L35,25z"/>
	<path fill="#FFFFFF" d="M35,45c-0.5,0-1-0.2-1.4-0.6C33.2,44,33,43.5,33,43c0-0.5,0.2-1.1,0.6-1.4c0.4-0.4,0.9-0.6,1.4-0.6
		c0.5,0,1.1,0.2,1.4,0.6c0.4,0.4,0.6,0.9,0.6,1.4c0,0.5-0.2,1-0.6,1.4C36,44.8,35.5,45,35,45z"/>
	<path fill="#147391" d="M35,41.5c0.4,0,0.8,0.1,1.1,0.4c0.3,0.3,0.4,0.7,0.4,1.1c0,0.4-0.2,0.8-0.4,1.1c-0.3,0.3-0.7,0.5-1.1,0.5
		s-0.8-0.2-1.1-0.5c-0.3-0.3-0.4-0.7-0.4-1.1c0-0.4,0.2-0.8,0.4-1.1C34.2,41.6,34.6,41.5,35,41.5 M35,40.5c-0.7,0-1.3,0.3-1.8,0.7
		c-0.5,0.5-0.7,1.1-0.7,1.8c0,0.7,0.3,1.3,0.7,1.8c0.5,0.5,1.1,0.7,1.8,0.7c0.7,0,1.3-0.3,1.8-0.7c0.5-0.5,0.7-1.1,0.7-1.8
		c0-0.7-0.3-1.3-0.7-1.8C36.3,40.8,35.7,40.5,35,40.5L35,40.5z"/>
</svg>
