<svg id="Layer_1" data-name="Layer 1" xmlns="http://www.w3.org/2000/svg" xmlns:xlink="http://www.w3.org/1999/xlink" viewBox="0 0 48 48">
    <linearGradient id="paper_gradient" data-name="paper gradient" x1="9.5" y1="1.786" x2="27.5" y2="19.786" gradientUnits="userSpaceOnUse">
      <stop offset="0" stop-color="#ffffff"/>
      <stop offset="0.221" stop-color="#f8f8f8"/>
      <stop offset="0.541" stop-color="#e5e5e5"/>
      <stop offset="0.92" stop-color="#c6c6c6"/>
      <stop offset="1" stop-color="#bebebe"/>
    </linearGradient>
    <linearGradient id="front_-45" data-name="front -45" x1="-2.714" y1="14" x2="21.714" y2="38.429" gradientUnits="userSpaceOnUse">
      <stop offset="0" stop-color="#f2f2f2"/>
      <stop offset="0.5" stop-color="#cccccc"/>
      <stop offset="0.63" stop-color="#c7c7c7"/>
      <stop offset="0.779" stop-color="#b9b9b9"/>
      <stop offset="0.938" stop-color="#a2a2a2"/>
      <stop offset="0.99" stop-color="#999999"/>
    </linearGradient>
    <linearGradient id="Dark_Blue_Grad" data-name="Dark Blue Grad" x1="26.161" y1="26.161" x2="43.839" y2="43.839" gradientUnits="userSpaceOnUse">
      <stop offset="0" stop-color="#c8c8c8"/>
      <stop offset="0.175" stop-color="#c3c3c3"/>
      <stop offset="0.457" stop-color="#b5b5b5"/>
      <stop offset="0.809" stop-color="#9f9f9f"/>
      <stop offset="1" stop-color="#919191"/>
    </linearGradient>
  <polygon points="36.5 10.786 18.5 0.5 0.5 10.786 18.5 21.071 36.5 10.786" fill="url(#paper_gradient)"/>
  <polygon points="0.5 10.786 0.5 31.357 18.5 41.643 18.5 21.071 0.5 10.786" fill="url(#front_-45)"/>
  <polygon points="18.5 21.071 18.5 41.643 36.5 31.357 36.5 10.786 18.5 21.071" fill="#888888"/>
  <polyline points="0.5 10.786 18.5 21.071 36.5 10.786" fill="none" stroke="#6e6e6e" stroke-miterlimit="10"/>
  <line x1="18.5" y1="21.071" x2="18.5" y2="41.643" fill="none" stroke="#6e6e6e" stroke-miterlimit="10"/>
  <path d="M18.5.5.5,10.786V31.357l18,10.286,18-10.286V10.786Z" fill="none" stroke="#464646" stroke-linejoin="round"/>
  <circle cx="35" cy="35" r="12.5" stroke="#464646" stroke-linecap="round" stroke-linejoin="round" fill="url(#Dark_Blue_Grad)"/>
    <path d="M35,40.5A1.5,1.5,0,0,1,33.5,39v-1.73a4.416,4.416,0,0,1,2.547-4,2.5,2.5,0,0,0-.581-4.729A2.757,2.757,0,0,0,35,28.5a2.469,2.469,0,0,0-1.605.583A2.5,2.5,0,0,0,32.5,31a1.5,1.5,0,0,1-3,0,5.5,5.5,0,0,1,5.507-5.5,5.634,5.634,0,0,1,.978.086,5.5,5.5,0,0,1,1.322,10.407,1.406,1.406,0,0,0-.807,1.276V39A1.5,1.5,0,0,1,35,40.5Z" fill="#ffffff"/>
    <path d="M35.006,26a5.133,5.133,0,0,1,.891.078,5,5,0,0,1,1.2,9.461A1.908,1.908,0,0,0,36,37.269V39a1,1,0,0,1-2,0v-1.73a3.914,3.914,0,0,1,2.257-3.545,3,3,0,0,0-.705-5.676A3.25,3.25,0,0,0,35,28a3,3,0,0,0-3,3,1,1,0,0,1-2,0,5,5,0,0,1,5.006-5m0-1h0A6,6,0,0,0,29,31a2,2,0,0,0,4,0,2,2,0,0,1,.715-1.533A1.976,1.976,0,0,1,35,29a2.257,2.257,0,0,1,.382.033,2,2,0,0,1,.456,3.782A4.918,4.918,0,0,0,33,37.269V39a2,2,0,0,0,4,0v-1.73a.9.9,0,0,1,.517-.822A6,6,0,0,0,36.07,25.093,6.15,6.15,0,0,0,35.007,25Z" fill="#919191"/>
    <path d="M35,45a2.013,2.013,0,0,1-1.421-.6A1.983,1.983,0,0,1,35.006,41a2,2,0,0,1,1.413.566A2.017,2.017,0,0,1,35,45Z" fill="#ffffff"/>
    <path d="M35.005,41.5a1.49,1.49,0,0,1,1.059.419,1.518,1.518,0,0,1,0,2.128A1.506,1.506,0,1,1,35.005,41.5m0-1A2.459,2.459,0,0,0,32.5,42.991,2.518,2.518,0,1,0,35.005,40.5Z" fill="#919191"/>
</svg>
