<svg id="Layer_1" data-name="Layer 1" xmlns="http://www.w3.org/2000/svg" xmlns:xlink="http://www.w3.org/1999/xlink" viewBox="0 0 48 48">
    <linearGradient id="paper_gradient" data-name="paper gradient" x1="8.5" y1="8.5" x2="33.5" y2="33.5" gradientUnits="userSpaceOnUse">
      <stop offset="0" stop-color="#fff"/>
      <stop offset="0.221" stop-color="#f8f8f8"/>
      <stop offset="0.541" stop-color="#e5e5e5"/>
      <stop offset="0.92" stop-color="#c6c6c6"/>
      <stop offset="1" stop-color="#bebebe"/>
    </linearGradient>
    <linearGradient id="linear-gradient" x1="14" y1="14" x2="28" y2="28" gradientUnits="userSpaceOnUse">
      <stop offset="0" stop-color="#b1b1b1"/>
      <stop offset="1" stop-color="#7d7d7d"/>
    </linearGradient>
    <linearGradient id="Dark_Blue_Grad" data-name="Dark Blue Grad" x1="27.015" y1="27.015" x2="43.985" y2="43.985" gradientUnits="userSpaceOnUse">
      <stop offset="0" stop-color="#73b4c8"/>
      <stop offset="0.175" stop-color="#6aaec3"/>
      <stop offset="0.457" stop-color="#529eb5"/>
      <stop offset="0.809" stop-color="#2c839f"/>
      <stop offset="1" stop-color="#147391"/>
    </linearGradient>
  <rect x="8.5" y="8.5" width="25" height="25" stroke="#464646" stroke-miterlimit="10" fill="url(#paper_gradient)"/>
  <rect x="13.5" y="14.5" width="15" height="13" stroke="#464646" stroke-miterlimit="10" fill="url(#linear-gradient)"/>
    <rect id="_Rectangle_" data-name="&lt;Rectangle&gt;" width="48" height="48" fill="none"/>
  <circle cx="35.5" cy="35.5" r="12" stroke="#464646" stroke-linecap="round" stroke-linejoin="round" fill="url(#Dark_Blue_Grad)"/>
    <path d="M31.9,39.742a6.357,6.357,0,0,0,3.68,1.526,3.061,3.061,0,0,0,3.239-2.842c0-1.567-1.555-2.339-3.25-2.83-1.756-.547-3.247-1.264-3.249-2.831a3.061,3.061,0,0,1,3.239-2.843,3.348,3.348,0,0,1,2.821,1.425" fill="none" stroke="#147391" stroke-linecap="round" stroke-linejoin="round" stroke-width="4"/>
    <line x1="35.5" y1="26" x2="35.5" y2="30.1" fill="none" stroke="#147391" stroke-linejoin="round" stroke-width="3"/>
    <line x1="35.5" y1="40.9" x2="35.5" y2="45" fill="none" stroke="#147391" stroke-linejoin="round" stroke-width="3"/>
  <path d="M31.9,39.742a6.357,6.357,0,0,0,3.68,1.526,3.061,3.061,0,0,0,3.239-2.842c0-1.567-1.555-2.339-3.25-2.83-1.756-.547-3.247-1.264-3.249-2.831a3.061,3.061,0,0,1,3.239-2.843,3.348,3.348,0,0,1,2.821,1.425" fill="none" stroke="#fff" stroke-linecap="round" stroke-linejoin="round" stroke-width="2"/>
  <line x1="35.5" y1="27" x2="35.5" y2="30.1" fill="none" stroke="#fff" stroke-linejoin="round"/>
  <line x1="35.5" y1="40.9" x2="35.5" y2="44" fill="none" stroke="#fff" stroke-linejoin="round"/>
  <line x1="11" x2="11" y2="7" fill="none" stroke="#969696" stroke-miterlimit="10" stroke-width="2"/>
  <line x1="16" x2="16" y2="7" fill="none" stroke="#969696" stroke-miterlimit="10" stroke-width="2"/>
  <line x1="21" x2="21" y2="7" fill="none" stroke="#969696" stroke-miterlimit="10" stroke-width="2"/>
  <line x1="10" y1="35" x2="10" y2="42" fill="none" stroke="#969696" stroke-miterlimit="10" stroke-width="2"/>
  <line x1="15" y1="35" x2="15" y2="42" fill="none" stroke="#969696" stroke-miterlimit="10" stroke-width="2"/>
  <line x1="20" y1="35" x2="20" y2="42" fill="none" stroke="#969696" stroke-miterlimit="10" stroke-width="2"/>
  <line x1="26" x2="26" y2="7" fill="none" stroke="#969696" stroke-miterlimit="10" stroke-width="2"/>
  <line x1="31" x2="31" y2="7" fill="none" stroke="#969696" stroke-miterlimit="10" stroke-width="2"/>
  <line x1="11" x2="11" y2="7" fill="none" stroke="#969696" stroke-miterlimit="10" stroke-width="2"/>
  <line x1="16" x2="16" y2="7" fill="none" stroke="#969696" stroke-miterlimit="10" stroke-width="2"/>
  <line x1="21" x2="21" y2="7" fill="none" stroke="#969696" stroke-miterlimit="10" stroke-width="2"/>
  <line x1="26" x2="26" y2="7" fill="none" stroke="#969696" stroke-miterlimit="10" stroke-width="2"/>
  <line x1="31" x2="31" y2="7" fill="none" stroke="#969696" stroke-miterlimit="10" stroke-width="2"/>
  <line y1="31" x2="7" y2="31" fill="none" stroke="#969696" stroke-miterlimit="10" stroke-width="2"/>
  <line y1="26" x2="7" y2="26" fill="none" stroke="#969696" stroke-miterlimit="10" stroke-width="2"/>
  <line y1="21" x2="7" y2="21" fill="none" stroke="#969696" stroke-miterlimit="10" stroke-width="2"/>
  <line y1="16" x2="7" y2="16" fill="none" stroke="#969696" stroke-miterlimit="10" stroke-width="2"/>
  <line y1="11" x2="7" y2="11" fill="none" stroke="#969696" stroke-miterlimit="10" stroke-width="2"/>
  <line y1="31" x2="7" y2="31" fill="none" stroke="#969696" stroke-miterlimit="10" stroke-width="2"/>
  <line y1="26" x2="7" y2="26" fill="none" stroke="#969696" stroke-miterlimit="10" stroke-width="2"/>
  <line y1="21" x2="7" y2="21" fill="none" stroke="#969696" stroke-miterlimit="10" stroke-width="2"/>
  <line y1="16" x2="7" y2="16" fill="none" stroke="#969696" stroke-miterlimit="10" stroke-width="2"/>
  <line y1="11" x2="7" y2="11" fill="none" stroke="#969696" stroke-miterlimit="10" stroke-width="2"/>
  <line x1="35" y1="21" x2="42" y2="21" fill="none" stroke="#969696" stroke-miterlimit="10" stroke-width="2"/>
  <line x1="35" y1="16" x2="42" y2="16" fill="none" stroke="#969696" stroke-miterlimit="10" stroke-width="2"/>
  <line x1="35" y1="11" x2="42" y2="11" fill="none" stroke="#969696" stroke-miterlimit="10" stroke-width="2"/>
  <line x1="35" y1="21" x2="42" y2="21" fill="none" stroke="#969696" stroke-miterlimit="10" stroke-width="2"/>
  <line x1="35" y1="16" x2="42" y2="16" fill="none" stroke="#969696" stroke-miterlimit="10" stroke-width="2"/>
  <line x1="35" y1="11" x2="42" y2="11" fill="none" stroke="#969696" stroke-miterlimit="10" stroke-width="2"/>
</svg>
