<svg id="Layer_1" data-name="Layer 1" xmlns="http://www.w3.org/2000/svg" xmlns:xlink="http://www.w3.org/1999/xlink" viewBox="0 0 48 48">
    <linearGradient id="linear-gradient" x1="0.5" y1="0.5" x2="47.5" y2="47.5" gradientUnits="userSpaceOnUse">
      <stop offset="0" stop-color="#fff"/>
      <stop offset="0.2323" stop-color="#fafafa"/>
      <stop offset="0.4964" stop-color="#ededed"/>
      <stop offset="0.775" stop-color="#d6d6d6"/>
      <stop offset="1" stop-color="#bebebe"/>
    </linearGradient>
  <rect x="0.5" y="0.5" width="47" height="47" stroke="#464646" stroke-miterlimit="10" fill="url(#linear-gradient)"/>
    <path d="M36.4,32.8062c-11.0462,1.3873-15.3742-13.3043-26.42-11.9171q3.3-7.8982,6.6-15.7966C27.6258,3.7053,31.9538,18.3969,43,17.01Z" fill="#fff"/>
    <path d="M35.0812,24.6283a15.231,15.231,0,0,1-3.6542-1.767l1.5625-3.74a15.231,15.231,0,0,0,3.6542,1.767Z" fill="#6e6e6e"/>
    <path d="M29.8645,26.6009a33.23,33.23,0,0,1-3.34-2.52l1.5625-3.74a33.23,33.23,0,0,0,3.34,2.52Z" fill="#6e6e6e"/>
    <path d="M28.0874,20.3415c-1.0841-.91-2.1507-1.8611-3.2348-2.7708l1.5625-3.74c1.0841.91,2.1507,1.8612,3.2348,2.7708Z" fill="#6e6e6e"/>
    <path d="M23.29,21.31a33.2336,33.2336,0,0,0-3.34-2.52l1.5625-3.74a33.2336,33.2336,0,0,1,3.34,2.52Z" fill="#6e6e6e"/>
    <path d="M21.513,15.0509a15.2322,15.2322,0,0,0-3.6541-1.767l1.5625-3.74a15.2322,15.2322,0,0,1,3.6541,1.767Z" fill="#6e6e6e"/>
  <path d="M42.9326,16.4736c-5.28.66-8.9292-2.4912-12.789-5.831-3.8687-3.3482-7.87-6.813-13.6314-6.086l-.3105.0391-11.7,28.0024.997.417L10.3515,21.4c5.1148-.5007,8.7007,2.5817,12.4844,5.856C26.354,30.3008,29.9805,33.44,34.9424,33.44a12.1768,12.1768,0,0,0,1.5249-.0972l.31-.0391,7.0806-16.9458Zm-3.9171,8.6707a11.3856,11.3856,0,0,1-3.9343-.516q-.7814,1.87-1.5625,3.74a11.3858,11.3858,0,0,0,3.9344.516l-1.4292,3.4208a10.5815,10.5815,0,0,1-3.9986-.3628l1.4934-3.574a15.2381,15.2381,0,0,1-3.6542-1.7669q-.7572,1.812-1.5142,3.624a32.6265,32.6265,0,0,1-3.3358-2.529q.7551-1.8075,1.51-3.6149c-1.0841-.91-2.1507-1.8611-3.2347-2.7708q-.7568,1.8108-1.5133,3.6217A30.9228,30.9228,0,0,0,18.4214,22.45q.7647-1.83,1.5292-3.66a15.24,15.24,0,0,0-3.6542-1.767q-.7792,1.8648-1.5584,3.73a11.5232,11.5232,0,0,0-3.301-.4974q-.3032,0-.6138.0161l1.573-3.765a11.3854,11.3854,0,0,1,3.9.5165l1.5625-3.74a11.3857,11.3857,0,0,0-3.9-.5165l1.5625-3.74a11.3885,11.3885,0,0,1,3.9.5165q.7511-1.7977,1.5023-3.5956a13.8478,13.8478,0,0,1,3.6751,1.7168q-.7617,1.823-1.5232,3.6458a33.23,33.23,0,0,1,3.34,2.52q.7625-1.8247,1.5249-3.65.7464.6282,1.4959,1.2785c.5756.498,1.1555.9962,1.7419,1.4849l-1.528,3.657a33.2336,33.2336,0,0,0,3.34,2.52q.7707-1.8446,1.5414-3.6892a15.0024,15.0024,0,0,0,3.6847,1.7187l-.0094-.0021q-.7814,1.87-1.5625,3.74a11.385,11.385,0,0,0,3.9342.516Z" fill="#6e6e6e"/>
    <polygon points="29.5 44.5 29.5 37.5 22.5 37.5 22.5 34.5 29.5 34.5 29.5 27.5 32.5 27.5 32.5 34.5 39.5 34.5 39.5 37.5 32.5 37.5 32.5 44.5 29.5 44.5" fill="#3c91af"/>
    <path d="M32,28v7h7v2H32v7H30V37H23V35h7V28h2m1-1H29v7H22v4h7v7h4V38h7V34H33V27Z" fill="#147391"/>
</svg>
