<svg id="Layer_1" data-name="Layer 1" xmlns="http://www.w3.org/2000/svg" xmlns:xlink="http://www.w3.org/1999/xlink" viewBox="0 0 48 48">
  <defs>
    <linearGradient id="linear-gradient" x1="3.75" y1="-70.25" x2="45.25" y2="-111.75" gradientTransform="matrix(1, 0, 0, -1, 0, -64)" gradientUnits="userSpaceOnUse">
      <stop offset="0" stop-color="#fff"/>
      <stop offset="0.2323" stop-color="#fafafa"/>
      <stop offset="0.4964" stop-color="#ededed"/>
      <stop offset="0.775" stop-color="#d6d6d6"/>
      <stop offset="1" stop-color="#bebebe"/>
    </linearGradient>
    <linearGradient id="paper_gradient" data-name="paper gradient" x1="30.5" y1="-67.5" x2="42.5" y2="-79.5" gradientTransform="matrix(1, 0, 0, -1, 0, -64)" gradientUnits="userSpaceOnUse">
      <stop offset="0" stop-color="#fff"/>
      <stop offset="0.2214" stop-color="#f8f8f8"/>
      <stop offset="0.5415" stop-color="#e5e5e5"/>
      <stop offset="0.92" stop-color="#c6c6c6"/>
      <stop offset="1" stop-color="#bebebe"/>
    </linearGradient>
    <linearGradient id="linear-gradient-2" x1="16.5503" y1="8.5503" x2="26.4497" y2="18.4498" gradientUnits="userSpaceOnUse">
      <stop offset="0" stop-color="#b1b1b1"/>
      <stop offset="1" stop-color="#6e6e6e"/>
    </linearGradient>
  </defs>
  <polygon points="33.5 0.5 9.5 0.5 9.5 47.5 45.5 47.5 45.5 12.5 33.5 0.5" stroke="#464646" stroke-miterlimit="10" fill="url(#linear-gradient)"/>
  <polygon points="33.5 0.5 33.5 12.5 45.5 12.5 33.5 0.5" stroke="#464646" stroke-linejoin="round" fill="url(#paper_gradient)"/>
  <rect x="0.5" y="27.5" width="47" height="16" fill="#697982" stroke="#464646" stroke-miterlimit="10"/>
    <path d="M8.6831,36.9429a1.9231,1.9231,0,0,1-.7251,1.5923,3.1712,3.1712,0,0,1-2.0249.5776,4.1733,4.1733,0,0,1-1.0312-.14,2.7226,2.7226,0,0,1-.8057-.3115V37.2651a2.8086,2.8086,0,0,0,.8916.5371,2.9166,2.9166,0,0,0,1.085.22,1.4845,1.4845,0,0,0,.9155-.2442.8411.8411,0,0,0,.32-.7119,1.0452,1.0452,0,0,0-.3169-.7358,5.0509,5.0509,0,0,0-1.2031-.8057,4.0892,4.0892,0,0,1-1.2944-.98,1.9157,1.9157,0,0,1-.4244-1.2436,1.9765,1.9765,0,0,1,.3223-1.1089,2.1405,2.1405,0,0,1,.9238-.7686A3.2349,3.2349,0,0,1,6.68,31.1475a5.0038,5.0038,0,0,1,.9829.0966,3.0094,3.0094,0,0,1,.6875.1988v1.3427a2.3,2.3,0,0,0-.7544-.4,2.8773,2.8773,0,0,0-.9053-.1479,1.44,1.44,0,0,0-.916.2685.8486.8486,0,0,0-.3408.6983,1.0952,1.0952,0,0,0,.1128.5156,1.3211,1.3211,0,0,0,.3545.4082,6.1187,6.1187,0,0,0,.8755.5264A4.7719,4.7719,0,0,1,8.24,35.7207,1.8632,1.8632,0,0,1,8.6831,36.9429Z" fill="#fff"/>
    <path d="M12.19,31.1045v7.874H10.9443V32.63a4.8538,4.8538,0,0,1-1.6167.709V32.2754a9,9,0,0,0,1.2705-.5186,8.5361,8.5361,0,0,0,1.066-.6523Z" fill="#fff"/>
    <path d="M18.8135,35.0845a5.2932,5.2932,0,0,1-.709,2.9809,2.285,2.285,0,0,1-2.0088,1.0474,2.171,2.171,0,0,1-1.9175-.9907,5.1029,5.1029,0,0,1-.666-2.85,5.5369,5.5369,0,0,1,.7036-3.0752,2.311,2.311,0,0,1,2.0464-1.05Q18.8133,31.1475,18.8135,35.0845Zm-1.2676.0859a5.9782,5.9782,0,0,0-.3247-2.2773,1.0676,1.0676,0,0,0-1.0127-.7359q-1.4342,0-1.4341,3.083a4.9878,4.9878,0,0,0,.3569,2.1377,1.13,1.13,0,0,0,1.05.72,1.087,1.087,0,0,0,1.0152-.7466,5.4811,5.4811,0,0,0,.3384-2.1807Z" fill="#fff"/>
    <path d="M24.7324,35.0845a5.2924,5.2924,0,0,1-.709,2.9809,2.2849,2.2849,0,0,1-2.0088,1.0474,2.1708,2.1708,0,0,1-1.9174-.9907,5.102,5.102,0,0,1-.666-2.85,5.536,5.536,0,0,1,.7036-3.0752,2.3108,2.3108,0,0,1,2.0464-1.05Q24.7321,31.1475,24.7324,35.0845Zm-1.2676.0859a5.9782,5.9782,0,0,0-.3247-2.2773,1.0676,1.0676,0,0,0-1.0127-.7359q-1.434,0-1.434,3.083a4.9862,4.9862,0,0,0,.3569,2.1377,1.13,1.13,0,0,0,1.05.72,1.0869,1.0869,0,0,0,1.0151-.7466,5.4811,5.4811,0,0,0,.3384-2.1807Z" fill="#fff"/>
    <path d="M30.6523,35.0845a5.2932,5.2932,0,0,1-.7089,2.9809,2.2861,2.2861,0,0,1-2.01,1.0474,2.1711,2.1711,0,0,1-1.917-.9907,5.0987,5.0987,0,0,1-.666-2.85,5.5323,5.5323,0,0,1,.7041-3.0752,2.3089,2.3089,0,0,1,2.0459-1.05Q30.6524,31.1475,30.6523,35.0845Zm-1.2675.0859a5.9665,5.9665,0,0,0-.3252-2.2773,1.068,1.068,0,0,0-1.0127-.7359q-1.4341,0-1.4336,3.083a4.98,4.98,0,0,0,.3564,2.1377,1.1306,1.1306,0,0,0,1.05.72,1.0876,1.0876,0,0,0,1.0157-.7466A5.4844,5.4844,0,0,0,29.373,35.17Z" fill="#fff"/>
    <path d="M38.334,35.0308A4.1049,4.1049,0,0,1,37.82,37.104,3.4618,3.4618,0,0,1,36.3516,38.49a4.7738,4.7738,0,0,1-2.2022.4888h-2.32V31.2764h2.38a4.41,4.41,0,0,1,3.0937.956A3.63,3.63,0,0,1,38.334,35.0308Zm-1.3535.0214a2.5917,2.5917,0,0,0-.7364-1.9848,2.9307,2.9307,0,0,0-2.0839-.69H33.1074v5.5h1.0313a2.596,2.596,0,0,0,2.8418-2.8252Z" fill="#fff"/>
  <circle cx="21.5" cy="13.5" r="7" stroke="#6e6e6e" fill="url(#linear-gradient-2)"/>
  <rect x="21" y="12" width="1" height="5" fill="#fff"/>
  <path d="M21.5,9.75a.7589.7589,0,0,1,.75.7569.75.75,0,0,1-1.5,0A.7585.7585,0,0,1,21.5,9.75Z" fill="#fff"/>
      <path d="M24,20.3768V19.683l4.2026-2.3385v1.1244L25.2463,20.012v.0239l2.9675,1.4593v1.1483Z" fill="#464646"/>
      <path d="M30.0413,25H28.75l3.057-10h1.3021Z" fill="#464646"/>
      <path d="M33.7862,22.6316V21.4952l2.9675-1.4593V20.012l-2.9675-1.5431V17.3325L38,19.683v.6938Z" fill="#464646"/>
      <path d="M24,20.3768V19.683l4.2026-2.3385v1.1244L25.2463,20.012v.0239l2.9675,1.4593v1.1483Z" fill="none" stroke="#6e6e6e" stroke-width="2"/>
      <path d="M30.0413,25H28.75l3.057-10h1.3021Z" fill="none" stroke="#6e6e6e" stroke-width="2"/>
      <path d="M33.7862,22.6316V21.4952l2.9675-1.4593V20.012l-2.9675-1.5431V17.3325L38,19.683v.6938Z" fill="none" stroke="#6e6e6e" stroke-width="2"/>
  <path d="M24,20.3768V19.683l4.2026-2.3385v1.1244L25.2463,20.012v.0239l2.9675,1.4593v1.1483Z" fill="#fff"/>
  <path d="M30.0413,25H28.75l3.057-10h1.3021Z" fill="#fff"/>
  <path d="M33.7862,22.6316V21.4952l2.9675-1.4593V20.012l-2.9675-1.5431V17.3325L38,19.683v.6938Z" fill="#fff"/>
</svg>
