<svg id="Layer_1" data-name="Layer 1" xmlns="http://www.w3.org/2000/svg" xmlns:xlink="http://www.w3.org/1999/xlink" viewBox="0 0 48 48">
<polygon style="fill:#FFFFFF;" points="10.5,25.6 13.2,23.4 19.4,30.9 33.1,14 35.8,16.2 19.4,36.4 "/>
<linearGradient id="SVGID_1_" gradientUnits="userSpaceOnUse" x1="0.5" y1="49.5" x2="47.5" y2="2.5" gradientTransform="matrix(1 0 0 -1 0 50)">
	<stop  offset="0" style="stop-color:#FFFFFF"/>
	<stop  offset="0.2323" style="stop-color:#FAFAFA"/>
	<stop  offset="0.4964" style="stop-color:#EDEDED"/>
	<stop  offset="0.775" style="stop-color:#D6D6D6"/>
	<stop  offset="1" style="stop-color:#BEBEBE"/>
</linearGradient>
<rect x="0.5" y="0.5" style="fill:url(#SVGID_1_);stroke:#464646;stroke-miterlimit:10;" width="47" height="47"/>
<path style="fill:#3C91AF;" d="M20.1,37.2c-0.2,0-0.4-0.1-0.6-0.3l-8.7-11.7c-0.2-0.3-0.2-0.7,0.1-1l1.5-1.5c0.3-0.3,0.7-0.3,1-0.1
	l6.7,5.4l12.7-16.9c0.1-0.2,0.3-0.3,0.5-0.3l0.1,0c0.2,0,0.4,0.1,0.5,0.2l1.5,1.5c0.2,0.2,0.3,0.6,0.1,0.9L20.7,36.9
	C20.6,37.1,20.4,37.2,20.1,37.2L20.1,37.2z"/>
<path style="fill:#147391;" d="M33.2,11.7l1.5,1.5L20.1,36.5l-8.7-11.7l1.5-1.5l7.3,5.8L33.2,11.7 M33.2,10.2c0,0-0.1,0-0.1,0
	c-0.4,0-0.8,0.2-1.1,0.6L19.8,27.1l-6.1-4.9c-0.6-0.5-1.4-0.4-1.9,0.1l-1.5,1.5c-0.5,0.5-0.6,1.3-0.1,1.9l8.7,11.7
	c0.3,0.4,0.7,0.6,1.2,0.6l0.1,0c0.5,0,0.9-0.3,1.2-0.7l14.6-23.3c0.4-0.6,0.3-1.3-0.2-1.8l-1.5-1.5C34,10.4,33.6,10.2,33.2,10.2z"/>
</svg>
