<svg id="Layer_1" data-name="Layer 1" xmlns="http://www.w3.org/2000/svg" xmlns:xlink="http://www.w3.org/1999/xlink" viewBox="0 0 48 48">
  <defs>
    <linearGradient id="paper_gradient" data-name="paper gradient" x1="8.25" y1="3.75" x2="39.75" y2="35.25" gradientUnits="userSpaceOnUse">
      <stop offset="0" stop-color="#fff"/>
      <stop offset="0.2214" stop-color="#f8f8f8"/>
      <stop offset="0.5415" stop-color="#e5e5e5"/>
      <stop offset="0.92" stop-color="#c6c6c6"/>
      <stop offset="1" stop-color="#bebebe"/>
    </linearGradient>
    <linearGradient id="Dark_Blue_Grad" data-name="Dark Blue Grad" x1="12.7139" y1="15.167" x2="18.2314" y2="20.6846" gradientUnits="userSpaceOnUse">
      <stop offset="0" stop-color="#73b4c8"/>
      <stop offset="0.1747" stop-color="#6aaec3"/>
      <stop offset="0.4567" stop-color="#529eb5"/>
      <stop offset="0.8089" stop-color="#2c839f"/>
      <stop offset="1" stop-color="#147391"/>
    </linearGradient>
    <linearGradient id="linear-gradient" x1="27.9999" y1="23.4477" x2="37.0001" y2="32.448" gradientUnits="userSpaceOnUse">
      <stop offset="0" stop-color="#afd7e1"/>
      <stop offset="0.1588" stop-color="#a4d0dc"/>
      <stop offset="0.7059" stop-color="#80bcce"/>
      <stop offset="1" stop-color="#73b4c8"/>
    </linearGradient>
    <linearGradient id="linear-gradient-2" x1="21.859" y1="29.5886" x2="34.141" y2="41.8706" xlink:href="#linear-gradient"/>
    <linearGradient id="linear-gradient-3" x1="28.4125" y1="24.2875" x2="37.3912" y2="33.2662" xlink:href="#Dark_Blue_Grad"/>
  </defs>
  <path d="M34,1h7a6,6,0,0,1,6,6V41a6,6,0,0,1-6,6H34" fill="none" stroke="#147391" stroke-miterlimit="10" stroke-width="2"/>
  <path d="M14,47H7a6,6,0,0,1-6-6V7A6,6,0,0,1,7,1h7" fill="none" stroke="#147391" stroke-miterlimit="10" stroke-width="2"/>
  <rect x="4.5" y="7.5" width="39" height="24" stroke="#464646" fill="url(#paper_gradient)"/>
  <line x1="25" y1="26" x2="36" y2="26.0105" fill="none" stroke="#6e6e6e" stroke-width="2"/>
  <line x1="25" y1="20" x2="39" y2="20.0105" fill="none" stroke="#147391" stroke-width="2"/>
  <line x1="25" y1="14" x2="39" y2="14.0105" fill="none" stroke="#6e6e6e" stroke-width="2"/>
    <polygon points="7.973 19.908 9.982 18.25 12.968 21.82 20.353 12.733 22.384 14.364 12.995 25.921 7.973 19.908" fill="url(#Dark_Blue_Grad)"/>
    <path d="M20.427,13.4347l1.2516,1.005L12.99,25.1346l-4.3113-5.161,1.2382-1.0214,3.0566,3.6543,7.4536-9.1718m-.1491-1.4022-.6269.7715-6.6887,8.2306-2.2785-2.724-.6372-.7618-.7661.632L8.0422,19.2022l-.7762.64.6451.7722,4.3113,5.1611.7782.9315.7654-.9421L22.4547,15.07l.6342-.7806-.7842-.63-1.2516-1.005-.7752-.6224Z" fill="#147391"/>
    <polygon points="32.5 33.152 41.5 27.948 41.5 38.307 32.5 43.512 32.5 33.152" fill="#3c91af"/>
    <polygon points="23.5 27.948 32.485 22.743 41.5 27.948 32.5 33.152 23.5 27.948" fill="url(#linear-gradient)"/>
    <polygon points="32.5 33.152 32.5 43.512 23.5 38.307 23.5 27.948 32.5 33.152" fill="url(#linear-gradient-2)"/>
    <line x1="32.5" y1="33.1525" x2="32.5" y2="43.5116" fill="none" stroke="#147391" stroke-linejoin="round"/>
    <polygon points="29.119 24.693 26.477 26.223 35.503 31.441 35.5 35.157 37.9 32.277 37.9 29.904 29.119 24.693" stroke="#147391" stroke-miterlimit="10" fill="url(#linear-gradient-3)"/>
    <polyline points="41.5 27.948 32.5 33.152 23.5 27.948" fill="none" stroke="#147391" stroke-linejoin="round"/>
    <polygon points="32.485 22.743 23.5 27.948 23.5 38.307 32.5 43.512 41.5 38.307 41.5 27.948 32.485 22.743" fill="none" stroke="#464646" stroke-linejoin="round"/>
</svg>
