<svg version="1.1" id="Layer_1" xmlns="http://www.w3.org/2000/svg" xmlns:xlink="http://www.w3.org/1999/xlink" x="0px" y="0px"
	 viewBox="0 0 48 48" enable-background="new 0 0 48 48" xml:space="preserve">
<linearGradient id="SVGID_1_" gradientUnits="userSpaceOnUse" x1="3.25" y1="3.75" x2="43.75" y2="44.25">
	<stop  offset="0" style="stop-color:#FFFFFF"/>
	<stop  offset="0.2214" style="stop-color:#F8F8F8"/>
	<stop  offset="0.5415" style="stop-color:#E5E5E5"/>
	<stop  offset="0.92" style="stop-color:#C6C6C6"/>
	<stop  offset="1" style="stop-color:#BEBEBE"/>
</linearGradient>
<rect x="0.5" y="6.5" fill="url(#SVGID_1_)" stroke="#464646" stroke-miterlimit="10" width="46" height="35"/>
<line fill="none" stroke="#A0A0A0" stroke-miterlimit="10" x1="22.5" y1="7" x2="22.5" y2="8.5"/>
<line fill="none" stroke="#A0A0A0" stroke-miterlimit="10" x1="24.5" y1="7" x2="24.5" y2="8.5"/>
<line fill="none" stroke="#A0A0A0" stroke-miterlimit="10" x1="22.5" y1="39.5" x2="22.5" y2="41"/>
<line fill="none" stroke="#A0A0A0" stroke-miterlimit="10" x1="24.5" y1="39.5" x2="24.5" y2="41"/>
<linearGradient id="SVGID_2_" gradientUnits="userSpaceOnUse" x1="-2.364686e-10" y1="11" x2="26" y2="37">
	<stop  offset="0" style="stop-color:#FFFFFF"/>
	<stop  offset="0.3355" style="stop-color:#F8F8F8"/>
	<stop  offset="0.8196" style="stop-color:#E5E5E5"/>
	<stop  offset="1" style="stop-color:#DCDCDC"/>
</linearGradient>
<polyline fill="url(#SVGID_2_)" stroke="#6E6E6E" stroke-miterlimit="10" points="23.5,39.5 2.5,39.5 2.5,8.5 23.5,8.5 "/>
<linearGradient id="SVGID_3_" gradientUnits="userSpaceOnUse" x1="21" y1="11" x2="47" y2="37">
	<stop  offset="0" style="stop-color:#FFFFFF"/>
	<stop  offset="0.3355" style="stop-color:#F8F8F8"/>
	<stop  offset="0.8196" style="stop-color:#E5E5E5"/>
	<stop  offset="1" style="stop-color:#DCDCDC"/>
</linearGradient>
<polyline fill="url(#SVGID_3_)" stroke="#6E6E6E" stroke-miterlimit="10" points="23.5,8.5 44.5,8.5 44.5,39.5 23.5,39.5 "/>
<line fill="none" stroke="#6E6E6E" x1="5" y1="15.5" x2="21" y2="15.5"/>
<line fill="none" stroke="#6E6E6E" x1="5" y1="19.5" x2="19" y2="19.5"/>
<line fill="none" stroke="#6E6E6E" x1="5" y1="23.5" x2="20" y2="23.5"/>
<line fill="none" stroke="#6E6E6E" x1="5" y1="27.5" x2="18" y2="27.5"/>
<line fill="none" stroke="#6E6E6E" x1="5" y1="31.5" x2="20" y2="31.5"/>
<line fill="none" stroke="#6E6E6E" x1="5" y1="35.5" x2="21" y2="35.5"/>
<line fill="none" stroke="#6E6E6E" x1="26" y1="15.5" x2="38" y2="15.5"/>
<line fill="none" stroke="#6E6E6E" x1="26" y1="19.5" x2="41" y2="19.5"/>
<line fill="none" stroke="#6E6E6E" x1="26" y1="23.5" x2="40" y2="23.5"/>
<line fill="none" stroke="#6E6E6E" x1="26" y1="27.5" x2="39" y2="27.5"/>
<line fill="none" stroke="#6E6E6E" x1="26" y1="31.5" x2="42" y2="31.5"/>
<line fill="none" stroke="#6E6E6E" x1="26" y1="35.5" x2="40" y2="35.5"/>
<linearGradient id="SVGID_4_" gradientUnits="userSpaceOnUse" x1="4.75" y1="6.25" x2="14.25" y2="15.7499">
	<stop  offset="0" style="stop-color:#73B4C8"/>
	<stop  offset="0.1747" style="stop-color:#6AAEC3"/>
	<stop  offset="0.4567" style="stop-color:#529EB5"/>
	<stop  offset="0.8089" style="stop-color:#2C839F"/>
	<stop  offset="1" style="stop-color:#147391"/>
</linearGradient>
<polygon fill="url(#SVGID_4_)" stroke="#464646" stroke-miterlimit="10" points="13.5,16.5 9.5,12.5 5.5,16.5 5.5,5.5 13.5,5.5 "/>
<line fill="none" stroke="#6E6E6E" stroke-miterlimit="10" x1="23.5" y1="8.5" x2="23.5" y2="39.5"/>
</svg>
