<svg id="Layer_1" data-name="Layer 1" xmlns="http://www.w3.org/2000/svg" xmlns:xlink="http://www.w3.org/1999/xlink" viewBox="0 0 48 48">
  <defs>
    <linearGradient id="linear-gradient" x1="8.8358" y1="-2.6642" x2="36.75" y2="25.25" gradientUnits="userSpaceOnUse">
      <stop offset="0" stop-color="#fff"/>
      <stop offset="0.2323" stop-color="#fafafa"/>
      <stop offset="0.4964" stop-color="#ededed"/>
      <stop offset="0.775" stop-color="#d6d6d6"/>
      <stop offset="1" stop-color="#bebebe"/>
    </linearGradient>
    <linearGradient id="Dark_Blue_Grad" data-name="Dark Blue Grad" x1="6" y1="11" x2="42" y2="47" gradientUnits="userSpaceOnUse">
      <stop offset="0" stop-color="#73b4c8"/>
      <stop offset="0.1747" stop-color="#6aaec3"/>
      <stop offset="0.4567" stop-color="#529eb5"/>
      <stop offset="0.8089" stop-color="#2c839f"/>
      <stop offset="1" stop-color="#147391"/>
    </linearGradient>
    <linearGradient id="New_Gradient_Swatch_1" data-name="New Gradient Swatch 1" x1="19.5001" y1="20.5" x2="27.5001" y2="28.5" gradientUnits="userSpaceOnUse">
      <stop offset="0" stop-color="#cde6eb"/>
      <stop offset="0.2214" stop-color="#c6e2e8"/>
      <stop offset="0.5419" stop-color="#b3d8e1"/>
      <stop offset="0.9212" stop-color="#93c7d5"/>
      <stop offset="1" stop-color="#8cc3d2"/>
    </linearGradient>
    <linearGradient id="linear-gradient-2" x1="13.9898" y1="26.0103" x2="24.9898" y2="37.0103" gradientUnits="userSpaceOnUse">
      <stop offset="0" stop-color="#afd7e1"/>
      <stop offset="0.1588" stop-color="#a4d0dc"/>
      <stop offset="0.7059" stop-color="#80bcce"/>
      <stop offset="1" stop-color="#73b4c8"/>
    </linearGradient>
  </defs>
  <path d="M19.5,9.5,16.0937,4.3906A2,2,0,0,0,14.43,3.5H3.5a2,2,0,0,0-2,2v10h45v-6Z" stroke="#464646" stroke-miterlimit="10" fill="url(#linear-gradient)"/>
  <rect x="1.5" y="15.5" width="45" height="27" stroke="#464646" stroke-linecap="round" stroke-miterlimit="10" fill="url(#Dark_Blue_Grad)"/>
    <polygon points="23.5 29.5 23.5 38.5 31.5 33.5 31.5 24.5 23.5 29.5" fill="#3c91af"/>
    <polygon points="31.5 24.5 23.5 29.5 15.5 24.5 23.5 19.5 31.5 24.5" fill="url(#New_Gradient_Swatch_1)"/>
    <polyline points="15.482 33.524 23.5 38.5 23.5 29.5 15.5 24.5" fill="url(#linear-gradient-2)"/>
    <line x1="23.5001" y1="29.5" x2="23.5001" y2="38.5" fill="none" stroke="#464646" stroke-miterlimit="10"/>
    <path d="M15.5417,33.5417,23.5,38.5l8-5,0-9-8-5h0l-8,5,8,5,8-5" fill="none" stroke="#464646" stroke-miterlimit="10"/>
    <circle cx="23.5" cy="38.5" r="1.5" fill="#f0f0f0" stroke="#464646"/>
    <circle cx="31.5" cy="33.5" r="1.5" fill="#f0f0f0" stroke="#464646"/>
    <circle cx="31.5" cy="24.5" r="1.5" fill="#f0f0f0" stroke="#464646"/>
    <circle cx="23.5" cy="29.5" r="1.5" fill="#f0f0f0" stroke="#464646"/>
    <circle cx="23.5" cy="19.5" r="1.5" fill="#f0f0f0" stroke="#464646"/>
    <line x1="15.5" y1="33.5" x2="15.5" y2="24.5" fill="none" stroke="#464646" stroke-miterlimit="10"/>
    <circle cx="15.5" cy="24.5" r="1.5" fill="#f0f0f0" stroke="#464646"/>
    <circle cx="15.5" cy="33.5" r="1.5" fill="#f0f0f0" stroke="#464646"/>
</svg>
