<svg version="1.1" id="Layer_1" xmlns="http://www.w3.org/2000/svg" xmlns:xlink="http://www.w3.org/1999/xlink" x="0px" y="0px"
	 viewBox="0 0 48 48" enable-background="new 0 0 48 48" xml:space="preserve"> 
<polygon fill="#888888" points="18.5,21.2 35.5,11.3 35.5,30.9 18.5,40.7"/> 
	<linearGradient id="SVGID_4_" gradientUnits="userSpaceOnUse" x1="9.9997" y1="2.8307" x2="27.0003" y2="19.8312">
		<stop  offset="0" style="stop-color:#FFFFFF"/>
		<stop  offset="0.2214" style="stop-color:#F8F8F8"/>
		<stop  offset="0.5415" style="stop-color:#E5E5E5"/>
		<stop  offset="0.92" style="stop-color:#C6C6C6"/>
		<stop  offset="1" style="stop-color:#BEBEBE"/>
	</linearGradient>
	<polygon fill="url(#SVGID_4_)" points="1.5,11.3 18.5,1.5 35.5,11.3 18.5,21.2 	"/>
	<linearGradient id="SVGID_5_" gradientUnits="userSpaceOnUse" x1="-1.5997" y1="14.4301" x2="21.5997" y2="37.6295">
		<stop  offset="0" style="stop-color:#F2F2F2"/>
		<stop  offset="0.5" style="stop-color:#CCCCCC"/>
		<stop  offset="0.6296" style="stop-color:#C7C7C7"/>
		<stop  offset="0.7792" style="stop-color:#B9B9B9"/>
		<stop  offset="0.9383" style="stop-color:#A2A2A2"/>
		<stop  offset="0.99" style="stop-color:#999999"/>
	</linearGradient>
	<polygon fill="url(#SVGID_5_)" points="18.5,21.2 18.5,40.7 1.5,30.9 1.5,11.3 	"/>
	<polyline fill="none" stroke="#6E6E6E" stroke-linejoin="round" stroke-miterlimit="10" points="35.5,11.3 18.5,21.2 1.5,11.3 	"/>
	<linearGradient id="SVGID_6_" gradientUnits="userSpaceOnUse" x1="13.6082" y1="26.0537" x2="23.3918" y2="35.8374">
		<stop  offset="0" style="stop-color:#AFD7E1"/>
		<stop  offset="0.1588" style="stop-color:#A4D0DC"/>
		<stop  offset="0.7059" style="stop-color:#80BCCE"/>
		<stop  offset="1" style="stop-color:#73B4C8"/>
	</linearGradient>
		<line fill="url(#SVGID_6_)" stroke="#6E6E6E" stroke-linejoin="round" stroke-miterlimit="10" x1="18.5" y1="21.2" x2="18.5" y2="40.7"/>
	<polygon fill="none" stroke="#464646" stroke-linejoin="round" stroke-miterlimit="10" points="18.5,1.5 1.5,11.3 1.5,30.9 
		18.5,40.7 35.5,30.9 35.5,11.3 	"/>
<linearGradient id="SVGID_7_" gradientUnits="userSpaceOnUse" x1="15.75" y1="31.25" x2="36.25" y2="51.75">
	<stop  offset="0" style="stop-color:#73B4C8"/>
	<stop  offset="0.1747" style="stop-color:#6AAEC3"/>
	<stop  offset="0.4567" style="stop-color:#529EB5"/>
	<stop  offset="0.8089" style="stop-color:#2C839F"/>
	<stop  offset="1" style="stop-color:#147391"/>
</linearGradient>
<path fill="url(#SVGID_7_)" stroke="#464646" stroke-miterlimit="10" d="M40.5,47.5h-29v-12h29l5.9,5.9c0,0,0,0.1,0,0.1L40.5,47.5z"
	/>
<line fill="none" stroke="#147391" stroke-width="3" stroke-miterlimit="10" x1="17" y1="41.5" x2="36" y2="41.5"/>
<circle fill="#FFFFFF" stroke="#147391" stroke-miterlimit="10" cx="17.5" cy="41.5" r="3"/>
<circle fill="#FFFFFF" stroke="#147391" stroke-miterlimit="10" cx="27.5" cy="41.5" r="3"/>
<circle fill="#FFFFFF" stroke="#147391" stroke-miterlimit="10" cx="37.5" cy="41.5" r="3"/>
<line fill="none" stroke="#FFFFFF" stroke-miterlimit="10" x1="17" y1="41.5" x2="36" y2="41.5"/>
</svg>
