<svg version="1.1" id="Layer_1" xmlns="http://www.w3.org/2000/svg" xmlns:xlink="http://www.w3.org/1999/xlink" x="0px" y="0px"
 viewBox="0 0 48 48" enable-background="new 0 0 48 48" xml:space="preserve">
	<path fill="#55A0B9" d="M23.499,0.5v23L39.763,7.237C35.601,3.074,29.851,0.5,23.499,0.5z"/>
		<path fill="#2882A0" d="M23.499,23.5h23c0-6.351-2.574-12.101-6.737-16.263L23.499,23.5z"/>
	<path fill="#006487" d="M46.499,23.5h-23l16.263,16.263C43.925,35.601,46.499,29.851,46.499,23.5z"/>
	<path fill="#DCDCDC" d="M39.763,39.763L23.499,23.5v23C29.851,46.5,35.601,43.926,39.763,39.763z"/>
		<path fill="#BEBEBE" d="M7.236,39.763c4.162,4.162,9.912,6.737,16.263,6.737v-23L7.236,39.763z"/>
	<path fill="#969696" d="M7.236,39.763L23.499,23.5h-23C0.499,29.851,3.074,35.601,7.236,39.763z"/>
		<path fill="#6E6E6E" d="M7.236,7.237C3.074,11.399,0.499,17.149,0.499,23.5h23L7.236,7.237z"/>
		<path fill="#8CC3D2" d="M7.236,7.237L23.499,23.5v-23C17.148,0.5,11.398,3.074,7.236,7.237z"/>
	<circle fill="none" stroke="#464646" stroke-miterlimit="10" cx="23.499" cy="23.5" r="23"/>
</svg>
