<svg id="Layer_1" data-name="Layer 1" xmlns="http://www.w3.org/2000/svg" xmlns:xlink="http://www.w3.org/1999/xlink" viewBox="0 0 48 48">
    <linearGradient id="linear-gradient" x1="9" y1="3" x2="23" y2="17" gradientUnits="userSpaceOnUse">
      <stop offset="0" stop-color="#cde6eb"/>
      <stop offset="0.221" stop-color="#c6e2e8"/>
      <stop offset="0.542" stop-color="#b3d8e1"/>
      <stop offset="0.921" stop-color="#93c7d5"/>
      <stop offset="1" stop-color="#8cc3d2"/>
    </linearGradient>
    <linearGradient id="linear-gradient-2" x1="-0.5" y1="12.5" x2="18.5" y2="31.5" gradientUnits="userSpaceOnUse">
      <stop offset="0" stop-color="#afd7e1"/>
      <stop offset="0.159" stop-color="#a4d0dc"/>
      <stop offset="0.706" stop-color="#80bcce"/>
      <stop offset="1" stop-color="#73b4c8"/>
    </linearGradient>
    <linearGradient id="paper_gradient" data-name="paper gradient" x1="14.5" y1="18" x2="17.5" y2="18" gradientUnits="userSpaceOnUse">
      <stop offset="0" stop-color="#fff"/>
      <stop offset="0.221" stop-color="#f8f8f8"/>
      <stop offset="0.541" stop-color="#e5e5e5"/>
      <stop offset="0.92" stop-color="#c6c6c6"/>
      <stop offset="1" stop-color="#bebebe"/>
    </linearGradient>
    <linearGradient id="paper_gradient-2" x1="7.5" y1="14" x2="10.5" y2="14" xlink:href="#paper_gradient"/>
    <linearGradient id="paper_gradient-3" x1="23.99" y1="26.375" x2="36.623" y2="39.009" xlink:href="#paper_gradient"/>
    <polygon points="30 10 16 2 2 10 16 18 30 10" fill="url(#linear-gradient)"/>
    <polygon points="2 10 2 26 16 34 16 18 2 10" fill="url(#linear-gradient-2)"/>
    <polygon points="16 18 16 34 30 26 30 10 16 18" fill="#3c91af"/>
    <polyline points="2 10 16 18 30 10" fill="none" stroke="#147391"/>
    <polyline points="2 18 16 26 30 18" fill="none" stroke="#147391"/>
    <line x1="16" y1="18" x2="16" y2="34" fill="#3c91af" stroke="#147391" stroke-linejoin="round"/>
  <circle cx="16" cy="18" r="1.5" stroke="#464646" fill="url(#paper_gradient)"/>
  <circle cx="16" cy="26" r="1.5" fill="#f0f0f0" stroke="#464646"/>
  <polyline points="22.998 6.003 8.998 14.003 8.998 30.003" fill="none" stroke="#147391"/>
  <circle cx="9" cy="14" r="1.5" stroke="#464646" fill="url(#paper_gradient-2)"/>
  <circle cx="9" cy="22" r="1.5" fill="#f0f0f0" stroke="#464646"/>
  <polyline points="9 6 23 14 23 30" fill="none" stroke="#147391"/>
  <path d="M16,2,2,10V26l14,8,14-8V10Z" fill="none" stroke="#464646" stroke-miterlimit="10"/>
  <circle cx="2" cy="10" r="1.5" fill="#f0f0f0" stroke="#464646"/>
  <circle cx="2" cy="18" r="1.5" fill="#f0f0f0" stroke="#464646"/>
  <circle cx="2" cy="26" r="1.5" fill="#f0f0f0" stroke="#464646"/>
  <circle cx="9" cy="6" r="1.5" fill="#f0f0f0" stroke="#464646"/>
  <circle cx="16" cy="9.997" r="1.5" fill="#f0f0f0" stroke="#464646"/>
  <circle cx="30" cy="10" r="1.5" fill="#f0f0f0" stroke="#464646"/>
  <circle cx="23" cy="6" r="1.5" fill="#f0f0f0" stroke="#464646"/>
  <circle cx="16" cy="2" r="1.5" fill="#f0f0f0" stroke="#464646"/>
  <circle cx="16" cy="34" r="1.5" fill="#f0f0f0" stroke="#464646"/>
  <circle cx="23" cy="14" r="1.5" fill="#f0f0f0" stroke="#464646"/>
  <circle cx="23" cy="21.969" r="1.5" fill="#f0f0f0" stroke="#464646"/>
  <circle cx="23" cy="30" r="1.5" fill="#f0f0f0" stroke="#464646"/>
  <circle cx="30" cy="18" r="1.5" fill="#f0f0f0" stroke="#464646"/>
  <circle cx="30" cy="26.031" r="1.5" fill="#f0f0f0" stroke="#464646"/>
  <circle cx="9" cy="30" r="1.5" fill="#f0f0f0" stroke="#464646"/>
    <path d="M20.4,47.5a4.9,4.9,0,0,1-3.5-8.326L30.627,27.212a.2.2,0,0,0,.063-.191c-.292-1.433-1.042-6.306,1.56-8.906A8.872,8.872,0,0,1,38.566,15.5a8.991,8.991,0,0,1,1.237.086.5.5,0,0,1,.285.849L36.525,20a.2.2,0,0,0-.055.1l-.783,3.78a.2.2,0,0,0,.055.182l3.194,3.194a.2.2,0,0,0,.14.059l3.824-.788a.184.184,0,0,0,.1-.052l3.567-3.565a.5.5,0,0,1,.354-.147.486.486,0,0,1,.159.026.5.5,0,0,1,.336.4,8.986,8.986,0,0,1-2.531,7.556,7.811,7.811,0,0,1-5.653,1.9,16.337,16.337,0,0,1-3.252-.346H35.96a.209.209,0,0,0-.172.063L23.9,46.02A4.913,4.913,0,0,1,20.4,47.5Zm.771-7.168a1.5,1.5,0,1,0,1.061.439A1.495,1.495,0,0,0,21.167,40.332Z" fill="url(#paper_gradient-3)"/>
    <path d="M38.566,16a8.449,8.449,0,0,1,1.168.081l-3.562,3.563a.7.7,0,0,0-.191.353L35.2,23.778a.7.7,0,0,0,.191.638l3.194,3.193a.7.7,0,0,0,.638.191L43,27.017a.7.7,0,0,0,.353-.191l3.564-3.563a8.427,8.427,0,0,1-2.39,7.133,7.328,7.328,0,0,1-5.3,1.758,15.81,15.81,0,0,1-3.152-.336.739.739,0,0,0-.14-.014.7.7,0,0,0-.53.24L23.524,45.691A4.394,4.394,0,0,1,16,42.6a4.346,4.346,0,0,1,1.25-3.076l13.7-11.938a.7.7,0,0,0,.225-.669c-.279-1.369-1-6.026,1.423-8.451A8.375,8.375,0,0,1,38.566,16m-17.4,27.833a2,2,0,0,0,1.414-.585h0a2,2,0,0,0-2.83-2.828h0a2,2,0,0,0,1.415,3.413M38.566,15a9.368,9.368,0,0,0-6.67,2.763c-2.68,2.679-2.05,7.509-1.729,9.187L16.594,38.773c-.018.015-.035.031-.052.048A5.4,5.4,0,0,0,20.4,48a5.389,5.389,0,0,0,3.836-1.6c.016-.016.032-.032.047-.05L36.049,32.832a16.764,16.764,0,0,0,3.182.322,8.282,8.282,0,0,0,6-2.051,9.49,9.49,0,0,0,2.673-7.978,1,1,0,0,0-1.7-.569l-3.5,3.5-3.536.732-2.966-2.965.733-3.536,3.5-3.5a1,1,0,0,0-.568-1.7A9.516,9.516,0,0,0,38.566,15Zm-17.4,27.833a1,1,0,1,1,.708-.293.993.993,0,0,1-.708.293Z" fill="#464646"/>
</svg>
