<svg version="1.1" id="Layer_1" xmlns="http://www.w3.org/2000/svg" xmlns:xlink="http://www.w3.org/1999/xlink" x="0px" y="0px"
	 viewBox="0 0 48 48" enable-background="new 0 0 48 48" xml:space="preserve">
<linearGradient id="SVGID_1_" gradientUnits="userSpaceOnUse" x1="10.4993" y1="10.5" x2="32.4993" y2="32.5">
	<stop  offset="0" style="stop-color:#F2F2F2"/>
	<stop  offset="0.5" style="stop-color:#CCCCCC"/>
	<stop  offset="0.6296" style="stop-color:#C7C7C7"/>
	<stop  offset="0.7792" style="stop-color:#B9B9B9"/>
	<stop  offset="0.9383" style="stop-color:#A2A2A2"/>
	<stop  offset="0.99" style="stop-color:#999999"/>
</linearGradient>
<polygon fill="url(#SVGID_1_)" points="18.499,2.5 2.499,18.5 4.499,20.5 6.499,20.5 22.499,36.5 22.499,38.5 24.499,40.5 
	40.499,24.5 38.499,22.5 36.499,22.5 20.499,6.5 20.499,4.5 "/>
<linearGradient id="SVGID_2_" gradientUnits="userSpaceOnUse" x1="13.9991" y1="13.9998" x2="28.9993" y2="29">
	<stop  offset="0" style="stop-color:#AFD7E1"/>
	<stop  offset="1" style="stop-color:#73B4C8"/>
</linearGradient>
<path fill="url(#SVGID_2_)" d="M20.999,7l-14,14l15,15l14-14C35.999,22,20.937,6.938,20.999,7z"/>
<line fill="none" stroke="#147391" x1="20.999" y1="7" x2="6.999" y2="21"/>
<line fill="none" stroke="#147391" x1="22.999" y1="9" x2="8.999" y2="23"/>
<line fill="none" stroke="#147391" x1="24.999" y1="11" x2="10.999" y2="25"/>
<line fill="none" stroke="#147391" x1="23.999" y1="10" x2="9.999" y2="24"/>
<line fill="none" stroke="#147391" x1="26.499" y1="12.5" x2="12.499" y2="26.5"/>
<line fill="none" stroke="#147391" x1="28.999" y1="15" x2="14.999" y2="29"/>
<line fill="none" stroke="#147391" x1="30.999" y1="17" x2="16.999" y2="31"/>
<line fill="none" stroke="#147391" x1="33.499" y1="19.5" x2="19.499" y2="33.5"/>
<line fill="none" stroke="#147391" x1="34.999" y1="21" x2="20.999" y2="35"/>
<polygon fill="none" stroke="#464646" points="18.499,2.5 2.499,18.5 4.499,20.5 6.499,20.5 22.499,36.5 22.499,38.5 24.499,40.5 
	40.499,24.5 38.499,22.5 36.499,22.5 20.499,6.5 20.499,4.5 "/>
<path fill="#DCDCDC" d="M2.499,45.5L42.054,4.053C42.843,3.204,44.18,3.18,44.999,4l0,0c0.82,0.82,0.796,2.156-0.053,2.946
	L3.499,46.5l-1,0V45.5z"/>
<path fill="#6E6E6E" d="M40.5,8.501L40.5,8.501c-0.277-0.277-0.277-0.725,0-1.001l1.997-1.997c0.277-0.277,0.727-0.277,1.004,0
	l0.002,0.002c0.278,0.278,0.277,0.728-0.001,1.005L41.5,8.502C41.223,8.777,40.776,8.777,40.5,8.501z"/>
<path fill="none" stroke="#464646" d="M2.499,45.5L42.054,4.053C42.843,3.204,44.18,3.18,44.999,4l0,0
	c0.82,0.82,0.796,2.156-0.053,2.946L3.499,46.5l-1,0V45.5z"/>
<path fill="#147391" d="M42.85,7.143c-0.357-0.356-0.819-0.683-1.114-0.88l-0.715,0.715l-0.005,0.008
	c0.45,0.286,0.871,0.609,1.133,0.87c2.285,2.285,2.285,6.002,0,8.287l-2.503,2.503l0.707,0.707l2.503-2.503
	C45.531,14.176,45.531,9.824,42.85,7.143z"/>
<path fill="#147391" d="M33.149,7.144L12.144,28.148c-1.458,1.458-3.832,1.457-5.293-0.004c-0.707-0.706-1.095-1.646-1.095-2.645
	s0.389-1.938,1.095-2.645l0.648-0.648L6.792,21.5l-0.648,0.648c-0.896,0.895-1.388,2.085-1.388,3.352
	c0,1.267,0.493,2.457,1.392,3.355c0.924,0.924,2.138,1.386,3.352,1.386s2.428-0.462,3.352-1.386L33.856,7.851
	c1.572-1.573,3.865-2.118,5.978-1.423l0.312-0.95C37.669,4.665,34.99,5.303,33.149,7.144z"/>
</svg>
