<svg version="1.1" id="Layer_1" xmlns="http://www.w3.org/2000/svg" xmlns:xlink="http://www.w3.org/1999/xlink" x="0px" y="0px"
	 viewBox="0 0 48 48" enable-background="new 0 0 48 48" xml:space="preserve">
<rect x="0" fill="none" width="48" height="48"/>
	<linearGradient id="SVGID_1_" gradientUnits="userSpaceOnUse" x1="7.1028" y1="14.6843" x2="32.8918" y2="40.4734">
		<stop  offset="0" style="stop-color:#FFFFFF"/>
		<stop  offset="0.2214" style="stop-color:#F8F8F8"/>
		<stop  offset="0.5415" style="stop-color:#E5E5E5"/>
		<stop  offset="0.92" style="stop-color:#C6C6C6"/>
		<stop  offset="1" style="stop-color:#BEBEBE"/>
	</linearGradient>
	<polygon fill="url(#SVGID_1_)" points="1.1,34.5 12.6,14.7 15.5,19.7 9.9,29.5 30.1,29.5 17.1,6.8 20,1.8 38.9,34.5 	"/>
	<path fill="#464646" d="M20,2.8L38,34H2l10.6-18.3l2.3,4L9,30h22L17.7,6.8L20,2.8 M20,0.8l-0.9,1.5l-2.3,4l-0.3,0.5l0.3,0.5
		L29.3,29H10.7l5.1-8.8l0.3-0.5l-0.3-0.5l-2.3-4l-0.9-1.5l-0.9,1.5L1.1,33.5L0.3,35H2h36h1.7l-0.9-1.5l-18-31.2L20,0.8L20,0.8z"/>
<linearGradient id="SVGID_2_" gradientUnits="userSpaceOnUse" x1="26.1612" y1="26.1612" x2="43.8388" y2="43.8388">
	<stop  offset="0" style="stop-color:#73B4C8"/>
	<stop  offset="0.1747" style="stop-color:#6AAEC3"/>
	<stop  offset="0.4567" style="stop-color:#529EB5"/>
	<stop  offset="0.8089" style="stop-color:#2C839F"/>
	<stop  offset="1" style="stop-color:#147391"/>
</linearGradient>
<circle fill="url(#SVGID_2_)" stroke="#464646" stroke-width="0.9615" stroke-linecap="round" stroke-linejoin="round" stroke-miterlimit="10" cx="35" cy="35" r="12.5"/>
	<path fill="#FFFFFF" d="M27.5,41.5V38c0-3.6,2.9-6.5,6.5-6.5h5.4l-2.8-2.8l2.1-2.1l6.4,6.4l-6.4,6.4l-2.1-2.1l2.8-2.8H34
		c-1.9,0-3.5,1.6-3.5,3.5v3.5H27.5z"/>
	<path fill="#147391" d="M38.7,27.3l5.7,5.7l-5.7,5.7l-1.4-1.4l3.3-3.3H34c-2.2,0-4,1.8-4,4v3h-2v-3c0-3.3,2.7-6,6-6h6.6l-3.3-3.3
		L38.7,27.3 M38.7,25.9L38,26.6L36.6,28l-0.7,0.7l0.7,0.7l1.6,1.6H34c-3.9,0-7,3.1-7,7v3v1h1h2h1v-1v-3c0-1.7,1.3-3,3-3h4.2
		l-1.6,1.6l-0.7,0.7l0.7,0.7l1.4,1.4l0.7,0.7l0.7-0.7l5.7-5.7l0.7-0.7l-0.7-0.7l-5.7-5.7L38.7,25.9L38.7,25.9z"/>
</svg>
