<svg id="Layer_1" data-name="Layer 1" xmlns="http://www.w3.org/2000/svg" xmlns:xlink="http://www.w3.org/1999/xlink" viewBox="0 0 48 48">
  <defs>
    <linearGradient id="linear-gradient" x1="-0.5" y1="41.5" x2="41" gradientTransform="matrix(1, 0, 0, -1, 0, 48)" gradientUnits="userSpaceOnUse">
      <stop offset="0" stop-color="#fff"/>
      <stop offset="0.2323" stop-color="#fafafa"/>
      <stop offset="0.4964" stop-color="#ededed"/>
      <stop offset="0.775" stop-color="#d6d6d6"/>
      <stop offset="1" stop-color="#bebebe"/>
    </linearGradient>
    <linearGradient id="paper_gradient" data-name="paper gradient" x1="25.25" y1="44.25" x2="38.25" y2="31.25" gradientTransform="matrix(1, 0, 0, -1, 0, 48)" gradientUnits="userSpaceOnUse">
      <stop offset="0" stop-color="#fff"/>
      <stop offset="0.2214" stop-color="#f8f8f8"/>
      <stop offset="0.5415" stop-color="#e5e5e5"/>
      <stop offset="0.92" stop-color="#c6c6c6"/>
      <stop offset="1" stop-color="#bebebe"/>
    </linearGradient>
  </defs>
  <polygon points="28.5 0.5 5.5 0.5 5.5 47.5 41.5 47.5 41.5 13.5 28.5 0.5" stroke="#464646" stroke-miterlimit="10" fill="url(#linear-gradient)"/>
  <rect x="0.5" y="27.5" width="47" height="16" fill="#099" stroke="#464646" stroke-miterlimit="10"/>
    <path d="M9.3975,38.9785l-.7037-1.9443H5.6108L4.94,38.9785H3.543L6.46,31.2764H7.8774l2.9273,7.7021ZM7.1631,32.4312H7.1309a2.8577,2.8577,0,0,1-.1128.5532l-1.0528,2.97H8.3286l-1.0581-2.97A2.8777,2.8777,0,0,1,7.1631,32.4312Z" fill="#fff"/>
    <path d="M18.437,38.9785V35.874a2.0886,2.0886,0,0,0-.2471-1.1548.9491.9491,0,0,0-.8432-.36.9945.9945,0,0,0-.8218.4458,1.76,1.76,0,0,0-.333,1.0849v3.0884H14.9512V35.7666q0-1.407-1.08-1.4072a.9963.9963,0,0,0-.835.4267,1.7935,1.7935,0,0,0-.32,1.104v3.0884H11.4761v-5.5h1.2407v.8486h.0215a1.9,1.9,0,0,1,1.74-.9829,1.6741,1.6741,0,0,1,.9693.2847,1.5464,1.5464,0,0,1,.5937.7949,2.195,2.195,0,0,1,.7871-.8217,2.109,2.109,0,0,1,1.0606-.2579,1.6686,1.6686,0,0,1,1.3349.5318,2.5806,2.5806,0,0,1,.459,1.7026v3.4Z" fill="#fff"/>
    <path d="M21.9019,36.5938a1.6067,1.6067,0,0,0,.4565,1.144,1.689,1.689,0,0,0,1.1978.3921,2.7471,2.7471,0,0,0,.8969-.1475,2.91,2.91,0,0,0,.752-.3789v1.0474a2.7126,2.7126,0,0,1-.8379.333,4.6641,4.6641,0,0,1-1.1118.1289,2.4977,2.4977,0,0,1-1.939-.7495,2.961,2.961,0,0,1-.6875-2.0811,3.32,3.32,0,0,1,.3408-1.5415,2.5467,2.5467,0,0,1,.9453-1.0288,2.5111,2.5111,0,0,1,1.33-.3677,2.2644,2.2644,0,0,1,1.77.6983,2.7775,2.7775,0,0,1,.6309,1.9336v.6177Zm2.5083-.9346a1.4558,1.4558,0,0,0-.3062-.999,1.0917,1.0917,0,0,0-.8594-.3438,1.1941,1.1941,0,0,0-.8755.3731,1.7274,1.7274,0,0,0-.4672.97Z" fill="#fff"/>
    <path d="M29.8887,37.4048a1.5048,1.5048,0,0,1-.5908,1.2378,2.5007,2.5007,0,0,1-1.6006.47,3.7348,3.7348,0,0,1-.7442-.0859,3.2444,3.2444,0,0,1-.6953-.2149V37.625a2.7523,2.7523,0,0,0,.752.3813,2.3873,2.3873,0,0,0,.7363.1343q.8906,0,.8906-.5908a.5782.5782,0,0,0-.0879-.3359.9569.9569,0,0,0-.3066-.252,5.8605,5.8605,0,0,0-.6738-.3144,3.4057,3.4057,0,0,1-.7979-.4458,1.3429,1.3429,0,0,1-.3867-.5049,1.6873,1.6873,0,0,1-.126-.6768,1.4754,1.4754,0,0,1,.5859-1.2085,2.3507,2.3507,0,0,1,1.5137-.4673,3.6187,3.6187,0,0,1,.6475.0669,2.8442,2.8442,0,0,1,.5888.1641v1.1226a2.1976,2.1976,0,0,0-.5966-.2769,2.3482,2.3482,0,0,0-.6826-.1045.9349.9349,0,0,0-.585.1665.5136.5136,0,0,0-.2149.4243.6047.6047,0,0,0,.169.4541,2.878,2.878,0,0,0,.7978.416,2.7405,2.7405,0,0,1,1.0909.6929A1.4158,1.4158,0,0,1,29.8887,37.4048Z" fill="#fff"/>
    <path d="M32.2686,31.5342a.6637.6637,0,0,1-.2227.51.7705.7705,0,0,1-.54.2041.76.76,0,0,1-.5372-.2041.6687.6687,0,0,1-.2207-.51.687.687,0,0,1,.2237-.521.7514.7514,0,0,1,.5342-.21.7432.7432,0,0,1,.5449.2149A.6967.6967,0,0,1,32.2686,31.5342Zm-1.3965,7.4443v-5.5h1.2412v5.5Z" fill="#fff"/>
    <path d="M40.54,38.9785V35.874a2.0852,2.0852,0,0,0-.247-1.1548.95.95,0,0,0-.8438-.36.9936.9936,0,0,0-.8213.4458,1.7632,1.7632,0,0,0-.333,1.0849v3.0884h-1.24V35.7666q0-1.407-1.08-1.4072a.9964.9964,0,0,0-.835.4267A1.7973,1.7973,0,0,0,34.82,35.89v3.0884H33.5791v-5.5H34.82v.8486h.0215a1.899,1.899,0,0,1,1.74-.9829,1.6736,1.6736,0,0,1,.9688.2847,1.5485,1.5485,0,0,1,.5937.7949,2.1912,2.1912,0,0,1,.7871-.8217,2.1117,2.1117,0,0,1,1.0606-.2579,1.6679,1.6679,0,0,1,1.3349.5318,2.5806,2.5806,0,0,1,.459,1.7026v3.4Z" fill="#fff"/>
  <polygon points="28.5 0.5 28.5 13.5 41.5 13.5 28.5 0.5" stroke="#464646" stroke-linejoin="round" fill="url(#paper_gradient)"/>
</svg>
