<svg id="Layer_1" data-name="Layer 1" xmlns="http://www.w3.org/2000/svg" xmlns:xlink="http://www.w3.org/1999/xlink" viewBox="0 0 48 48">
  <defs>
    <linearGradient id="paper_gradient" data-name="paper gradient" x1="15.4997" y1="5.8273" x2="31.5003" y2="21.8278" gradientUnits="userSpaceOnUse">
      <stop offset="0" stop-color="#fff"/>
      <stop offset="0.2214" stop-color="#f8f8f8"/>
      <stop offset="0.5415" stop-color="#e5e5e5"/>
      <stop offset="0.92" stop-color="#c6c6c6"/>
      <stop offset="1" stop-color="#bebebe"/>
    </linearGradient>
    <linearGradient id="front_-45" data-name="front -45" x1="4.5827" y1="16.7444" x2="26.4174" y2="38.5791" gradientUnits="userSpaceOnUse">
      <stop offset="0" stop-color="#f2f2f2"/>
      <stop offset="0.5" stop-color="#ccc"/>
      <stop offset="0.6296" stop-color="#c7c7c7"/>
      <stop offset="0.7792" stop-color="#b9b9b9"/>
      <stop offset="0.9383" stop-color="#a2a2a2"/>
      <stop offset="0.99" stop-color="#999"/>
    </linearGradient>
    <linearGradient id="linear-gradient" x1="19.0294" y1="27.869" x2="27.9706" y2="36.8101" gradientUnits="userSpaceOnUse">
      <stop offset="0" stop-color="#afd7e1"/>
      <stop offset="0.1588" stop-color="#a4d0dc"/>
      <stop offset="0.7059" stop-color="#80bcce"/>
      <stop offset="1" stop-color="#73b4c8"/>
    </linearGradient>
    <linearGradient id="paper_gradient-2" x1="10.5001" y1="18.924" x2="20.4999" y2="36.244" xlink:href="#paper_gradient"/>
    <linearGradient id="paper_gradient-3" x1="26.5" y1="-648.5" x2="43.5" y2="-665.5" gradientTransform="matrix(1, 0, 0, -1, 0, -624)" xlink:href="#paper_gradient"/>
    <linearGradient id="paper_gradient-4" x1="30.5" y1="26.5" x2="34.5" y2="30.5001" xlink:href="#paper_gradient"/>
  </defs>
    <path d="M34,1h7a6,6,0,0,1,6,6V41a6,6,0,0,1-6,6H34" fill="none" stroke="#969696" stroke-miterlimit="10" stroke-width="2"/>
    <path d="M14,47H7a6,6,0,0,1-6-6V7A6,6,0,0,1,7,1h7" fill="none" stroke="#969696" stroke-miterlimit="10" stroke-width="2"/>
      <polygon points="23.5 23.08 39.5 13.828 39.5 32.244 23.5 41.496 23.5 23.08" fill="#888"/>
      <polygon points="7.5 13.827 23.473 4.575 39.5 13.828 23.5 23.08 7.5 13.827" fill="url(#paper_gradient)"/>
      <polygon points="23.5 23.08 23.5 41.496 7.5 32.243 7.5 13.827 23.5 23.08" fill="url(#front_-45)"/>
      <line x1="23.5" y1="23.3984" x2="23.5" y2="41.2807" stroke="#6e6e6e" stroke-linejoin="round" fill="url(#linear-gradient)"/>
    <polyline points="39.5 13.828 23.5 23.08 7.5 13.827" fill="none" stroke="#6e6e6e" stroke-linejoin="round"/>
      <polygon points="9.5 19.501 9.5 28.752 21.5 35.667 21.5 26.416 9.5 19.501" stroke="#6e6e6e" stroke-linejoin="round" fill="url(#paper_gradient-2)"/>
      <line x1="11.5" y1="22.3289" x2="11.5" y2="28.3578" fill="none" stroke="#969696" stroke-miterlimit="10"/>
      <line x1="13.5" y1="23.4813" x2="13.5" y2="28.0101" fill="none" stroke="#969696" stroke-miterlimit="10"/>
      <line x1="15.5" y1="24.7098" x2="15.5" y2="30.7387" fill="none" stroke="#969696" stroke-miterlimit="10"/>
      <line x1="17.5" y1="25.8622" x2="17.5" y2="30.6411" fill="none" stroke="#969696" stroke-miterlimit="10"/>
      <line x1="19.5" y1="27.0748" x2="19.5" y2="33.0748" fill="none" stroke="#969696" stroke-miterlimit="10"/>
    <line x1="31.4743" y1="9.3774" x2="15.7533" y2="18.4683" fill="none" stroke="#6e6e6e" stroke-linejoin="round"/>
    <polygon points="23.473 4.575 7.5 13.827 7.5 32.243 23.5 41.496 39.5 32.244 39.5 13.828 23.473 4.575" fill="none" stroke="#464646" stroke-linejoin="round"/>
    <rect x="27.5" y="23.5" width="15" height="19" stroke="#464646" stroke-miterlimit="10" fill="url(#paper_gradient-3)"/>
    <line x1="37.0001" y1="27.5" x2="40" y2="27.5052" fill="none" stroke="#6e6e6e" stroke-miterlimit="10"/>
    <line x1="37.0001" y1="30.5001" x2="40" y2="30.5053" fill="none" stroke="#6e6e6e" stroke-miterlimit="10"/>
    <line x1="30" y1="33.5001" x2="40" y2="33.5053" fill="none" stroke="#6e6e6e" stroke-miterlimit="10"/>
    <line x1="30" y1="36.5002" x2="40" y2="36.5054" fill="none" stroke="#6e6e6e" stroke-miterlimit="10"/>
    <line x1="30" y1="39.5002" x2="40" y2="39.5054" fill="none" stroke="#6e6e6e" stroke-miterlimit="10"/>
    <rect x="30.5" y="26.5" width="4" height="4" stroke="#6e6e6e" fill="url(#paper_gradient-4)"/>
</svg>
