<svg id="Layer_1" data-name="Layer 1" xmlns="http://www.w3.org/2000/svg" xmlns:xlink="http://www.w3.org/1999/xlink" viewBox="0 0 48 48">
    <linearGradient id="paper_gradient" data-name="paper gradient" x1="8.75" y1="8.864" x2="39.368" y2="39.481" gradientUnits="userSpaceOnUse">
      <stop offset="0" stop-color="#fff"/>
      <stop offset="0.221" stop-color="#f8f8f8"/>
      <stop offset="0.541" stop-color="#e5e5e5"/>
      <stop offset="0.92" stop-color="#c6c6c6"/>
      <stop offset="1" stop-color="#bebebe"/>
    </linearGradient>
    <linearGradient id="Dark_Blue_Grad" data-name="Dark Blue Grad" x1="22.672" y1="4.671" x2="28.328" y2="10.327" gradientUnits="userSpaceOnUse">
      <stop offset="0" stop-color="#73b4c8"/>
      <stop offset="0.175" stop-color="#6aaec3"/>
      <stop offset="0.457" stop-color="#529eb5"/>
      <stop offset="0.809" stop-color="#2c839f"/>
      <stop offset="1" stop-color="#147391"/>
    </linearGradient>
    <linearGradient id="front_-45" data-name="front -45" x1="12.672" y1="9.672" x2="18.328" y2="15.328" gradientUnits="userSpaceOnUse">
      <stop offset="0" stop-color="#f2f2f2"/>
      <stop offset="0.5" stop-color="#ccc"/>
      <stop offset="0.63" stop-color="#c7c7c7"/>
      <stop offset="0.779" stop-color="#b9b9b9"/>
      <stop offset="0.938" stop-color="#a2a2a2"/>
      <stop offset="0.99" stop-color="#999"/>
    </linearGradient>
    <linearGradient id="Light_Blue_Grad" data-name="Light Blue Grad" x1="5.672" y1="18.672" x2="11.328" y2="24.328" gradientUnits="userSpaceOnUse">
      <stop offset="0" stop-color="#afd7e1"/>
      <stop offset="1" stop-color="#73b4c8"/>
    </linearGradient>
    <linearGradient id="linear-gradient" x1="6.5" y1="32.5" x2="14.5" y2="32.5" gradientUnits="userSpaceOnUse">
      <stop offset="0" stop-color="#b1b1b1"/>
      <stop offset="1" stop-color="#7d7d7d"/>
    </linearGradient>
    <linearGradient id="Dark_Blue_Grad-2" x1="19.06" y1="24.73" x2="24.801" y2="30.471" xlink:href="#Dark_Blue_Grad"/>
  <path d="M42.093,8.943c5.481,8.52,3.831,14.858-1.277,19.238C34.3,33.771,27.625,26.936,25.1,33.817,21.84,42.7,35.2,40.493,35.206,40.5,38.9,50.516,2.991,52.336,1.55,28.639S30.136-9.646,42.093,8.943ZM31.229,15.372c-3.246,1.719-4.638,5.409-3.107,8.241s5.4,3.734,8.649,2.015,4.638-5.409,3.107-8.241S34.476,13.653,31.229,15.372Z" stroke="#464646" stroke-linecap="round" stroke-linejoin="round" fill="url(#paper_gradient)"/>
  <circle cx="25.5" cy="7.499" r="4" stroke="#147391" stroke-linecap="round" stroke-linejoin="round" fill="url(#Dark_Blue_Grad)"/>
  <circle cx="15.5" cy="12.5" r="4" stroke="#6e6e6e" stroke-linecap="round" stroke-linejoin="round" fill="url(#front_-45)"/>
  <circle cx="8.5" cy="21.5" r="4" stroke="#147391" stroke-linecap="round" stroke-linejoin="round" fill="url(#Light_Blue_Grad)"/>
  <circle cx="10.5" cy="32.5" r="4" stroke="#464646" stroke-linecap="round" stroke-linejoin="round" fill="url(#linear-gradient)"/>
      <polyline points="28.5 16.5 47.5 1.499 32.5 20.5" fill="#6e6e6e" stroke="#464646" stroke-linecap="round" stroke-linejoin="round"/>
      <path d="M25,20.952a6.249,6.249,0,0,0-5.522,4.54,14.686,14.686,0,0,1-3.119,6.255s10.582,2.667,11.576-7.859" stroke="#147391" stroke-linecap="round" stroke-linejoin="round" fill="url(#Dark_Blue_Grad-2)"/>
    <rect x="25.669" y="17.672" width="5.659" height="5.657" transform="translate(-6.154 26.126) rotate(-44.95)" fill="#969696" stroke="#464646" stroke-linecap="round" stroke-linejoin="round"/>
</svg>
