<svg version="1.1" id="Layer_1" xmlns="http://www.w3.org/2000/svg" xmlns:xlink="http://www.w3.org/1999/xlink" x="0px" y="0px"
	 viewBox="0 0 48 48" enable-background="new 0 0 48 48" xml:space="preserve">
<linearGradient id="SVGID_1_" gradientUnits="userSpaceOnUse" x1="0.5" y1="0.5" x2="32.5" y2="32.5">
	<stop  offset="0" style="stop-color:#FFFFFF"/>
	<stop  offset="0.2214" style="stop-color:#F8F8F8"/>
	<stop  offset="0.5415" style="stop-color:#E5E5E5"/>
	<stop  offset="0.92" style="stop-color:#C6C6C6"/>
	<stop  offset="1" style="stop-color:#BEBEBE"/>
</linearGradient>
<path fill="url(#SVGID_1_)" stroke="#464646" stroke-miterlimit="10" d="M20.5,20.5h-20v-20h20V20.5z M44.5,20.5h-20v-20h20V20.5z
	 M20.5,44.5h-20v-20h20V44.5z"/>
<linearGradient id="SVGID_2_" gradientUnits="userSpaceOnUse" x1="29.9998" y1="22.9773" x2="41.0002" y2="33.9777">
	<stop  offset="0" style="stop-color:#CDE6EB"/>
	<stop  offset="0.2214" style="stop-color:#C6E2E8"/>
	<stop  offset="0.5419" style="stop-color:#B3D8E1"/>
	<stop  offset="0.9212" style="stop-color:#93C7D5"/>
	<stop  offset="1" style="stop-color:#8CC3D2"/>
</linearGradient>
<polygon fill="url(#SVGID_2_)" points="46.5,28.5 35.5,22.1 24.5,28.5 35.5,34.8 "/>
<linearGradient id="SVGID_3_" gradientUnits="userSpaceOnUse" x1="22.4943" y1="30.4828" x2="37.5057" y2="45.4943">
	<stop  offset="0" style="stop-color:#AFD7E1"/>
	<stop  offset="0.1588" style="stop-color:#A4D0DC"/>
	<stop  offset="0.7059" style="stop-color:#80BCCE"/>
	<stop  offset="1" style="stop-color:#73B4C8"/>
</linearGradient>
<polygon fill="url(#SVGID_3_)" points="24.5,28.5 24.5,41.1 35.5,47.5 35.5,34.8 "/>
<polygon fill="#3C91AF" points="35.5,34.8 35.5,47.5 46.5,41.1 46.5,28.5 "/>
<polyline fill="none" stroke="#147391" points="24.5,28.5 35.5,34.8 46.5,28.5 "/>
<line fill="#3C91AF" stroke="#147391" stroke-linejoin="round" stroke-miterlimit="10" x1="35.5" y1="34.8" x2="35.5" y2="47.5"/>
<path fill="none" stroke="#464646" stroke-linejoin="round" stroke-miterlimit="10" d="M35.5,22.1l-11,6.4v12.7l11,6.4l11-6.4V28.5
	L35.5,22.1z"/>
</svg>
