<svg id="Layer_1" data-name="Layer 1" xmlns="http://www.w3.org/2000/svg" xmlns:xlink="http://www.w3.org/1999/xlink" viewBox="0 0 48 48">
    <linearGradient id="linear-gradient" x1="-0.295" y1="41.705" x2="41.205" y2="0.205" gradientTransform="matrix(1, 0, 0, -1, 0, 48)" gradientUnits="userSpaceOnUse">
      <stop offset="0" stop-color="#fff"/>
      <stop offset="0.232" stop-color="#fafafa"/>
      <stop offset="0.496" stop-color="#ededed"/>
      <stop offset="0.775" stop-color="#d6d6d6"/>
      <stop offset="1" stop-color="#bebebe"/>
    </linearGradient>
    <linearGradient id="paper_gradient" data-name="paper gradient" x1="26.5" y1="44.5" x2="38.5" y2="32.5" gradientTransform="matrix(1, 0, 0, -1, 0, 48)" gradientUnits="userSpaceOnUse">
      <stop offset="0" stop-color="#fff"/>
      <stop offset="0.221" stop-color="#f8f8f8"/>
      <stop offset="0.541" stop-color="#e5e5e5"/>
      <stop offset="0.92" stop-color="#c6c6c6"/>
      <stop offset="1" stop-color="#bebebe"/>
    </linearGradient>
  <polygon points="29.321 0.5 5.5 0.5 5.5 47.5 41.5 47.5 41.5 12.679 29.321 0.5" stroke="#464646" stroke-miterlimit="10" fill="url(#linear-gradient)"/>
  <polygon points="29.5 0.5 29.5 12.5 41.5 12.5 29.5 0.5" stroke="#464646" stroke-linejoin="round" fill="url(#paper_gradient)"/>
  <polyline points="8.5 17 8.5 15.5 10 15.5" fill="none" stroke="#147391" stroke-miterlimit="10"/>
  <polyline points="36 15.5 37.5 15.5 37.5 17" fill="none" stroke="#147391" stroke-miterlimit="10"/>
  <polyline points="37.5 43 37.5 44.5 36 44.5" fill="none" stroke="#147391" stroke-miterlimit="10"/>
  <polyline points="10 44.5 8.5 44.5 8.5 43" fill="none" stroke="#147391" stroke-miterlimit="10"/>
  <line x1="37.5" y1="19" x2="37.5" y2="21" fill="none" stroke="#147391" stroke-miterlimit="10"/>
  <line x1="37.5" y1="23" x2="37.5" y2="25" fill="none" stroke="#147391" stroke-miterlimit="10"/>
  <line x1="37.5" y1="27" x2="37.5" y2="29" fill="none" stroke="#147391" stroke-miterlimit="10"/>
  <line x1="37.5" y1="30.999" x2="37.5" y2="32.999" fill="none" stroke="#147391" stroke-miterlimit="10"/>
  <line x1="37.5" y1="34.999" x2="37.5" y2="36.999" fill="none" stroke="#147391" stroke-miterlimit="10"/>
  <line x1="37.5" y1="39" x2="37.5" y2="41" fill="none" stroke="#147391" stroke-miterlimit="10"/>
  <line x1="8.5" y1="19" x2="8.5" y2="21" fill="none" stroke="#147391" stroke-miterlimit="10"/>
  <line x1="8.5" y1="23" x2="8.5" y2="25" fill="none" stroke="#147391" stroke-miterlimit="10"/>
  <line x1="8.5" y1="27" x2="8.5" y2="29" fill="none" stroke="#147391" stroke-miterlimit="10"/>
  <line x1="8.5" y1="30.999" x2="8.5" y2="32.999" fill="none" stroke="#147391" stroke-miterlimit="10"/>
  <line x1="8.5" y1="34.999" x2="8.5" y2="36.999" fill="none" stroke="#147391" stroke-miterlimit="10"/>
  <line x1="8.5" y1="39" x2="8.5" y2="41" fill="none" stroke="#147391" stroke-miterlimit="10"/>
  <line x1="34" y1="44.5" x2="32" y2="44.5" fill="none" stroke="#147391" stroke-miterlimit="10"/>
  <line x1="30.001" y1="44.5" x2="28.001" y2="44.5" fill="none" stroke="#147391" stroke-miterlimit="10"/>
  <line x1="26.001" y1="44.5" x2="24.001" y2="44.5" fill="none" stroke="#147391" stroke-miterlimit="10"/>
  <line x1="22" y1="44.5" x2="20" y2="44.5" fill="none" stroke="#147391" stroke-miterlimit="10"/>
  <line x1="18" y1="44.5" x2="16" y2="44.5" fill="none" stroke="#147391" stroke-miterlimit="10"/>
  <line x1="14" y1="44.5" x2="12" y2="44.5" fill="none" stroke="#147391" stroke-miterlimit="10"/>
  <line x1="34" y1="15.5" x2="32" y2="15.5" fill="none" stroke="#147391" stroke-miterlimit="10"/>
  <line x1="30.001" y1="15.5" x2="28.001" y2="15.5" fill="none" stroke="#147391" stroke-miterlimit="10"/>
  <line x1="26.001" y1="15.5" x2="24.001" y2="15.5" fill="none" stroke="#147391" stroke-miterlimit="10"/>
  <line x1="22" y1="15.5" x2="20" y2="15.5" fill="none" stroke="#147391" stroke-miterlimit="10"/>
  <line x1="18" y1="15.5" x2="16" y2="15.5" fill="none" stroke="#147391" stroke-miterlimit="10"/>
  <line x1="14" y1="15.5" x2="12" y2="15.5" fill="none" stroke="#147391" stroke-miterlimit="10"/>
  <circle cx="22.5" cy="23.5" r="2" fill="none" stroke="#147391" stroke-miterlimit="10"/>
  <path d="M22.5,23a.5.5,0,1,0,.5.5.5.5,0,0,0-.5-.5Z" fill="#147391"/>
  <polyline points="24 22 27.501 18.499 37.001 18.499" fill="none" stroke="#147391" stroke-miterlimit="10"/>
  <circle cx="28.5" cy="29.5" r="2" fill="none" stroke="#147391" stroke-miterlimit="10"/>
  <path d="M28.5,29a.5.5,0,1,0,.5.5.5.5,0,0,0-.5-.5Z" fill="#147391"/>
  <circle cx="16.5" cy="29.5" r="2" fill="none" stroke="#147391" stroke-miterlimit="10"/>
  <path d="M16.5,29a.5.5,0,1,0,.5.5.5.5,0,0,0-.5-.5Z" fill="#147391"/>
  <circle cx="22.5" cy="35.5" r="2" fill="none" stroke="#147391" stroke-miterlimit="10"/>
  <path d="M22.5,35a.5.5,0,1,0,.5.5.5.5,0,0,0-.5-.5Z" fill="#147391"/>
  <polyline points="30 28 33.501 24.499 37.001 24.499" fill="none" stroke="#147391" stroke-miterlimit="10"/>
  <polyline points="21.001 36.999 17.5 40.5 9 40.5" fill="none" stroke="#147391" stroke-miterlimit="10"/>
  <polyline points="15 30.999 11.5 34.5 9 34.5" fill="none" stroke="#147391" stroke-miterlimit="10"/>
</svg>
