<svg version="1.1" id="Layer_1" xmlns="http://www.w3.org/2000/svg" xmlns:xlink="http://www.w3.org/1999/xlink" x="0px" y="0px"
	 viewBox="0 0 48 48" enable-background="new 0 0 48 48" xml:space="preserve">
<linearGradient id="SVGID_1_" gradientUnits="userSpaceOnUse" x1="2.0858" y1="5.0858" x2="43.5" y2="46.5">
	<stop  offset="0" style="stop-color:#FFFFFF"/>
	<stop  offset="0.2214" style="stop-color:#F8F8F8"/>
	<stop  offset="0.5415" style="stop-color:#E5E5E5"/>
	<stop  offset="0.92" style="stop-color:#C6C6C6"/>
	<stop  offset="1" style="stop-color:#BEBEBE"/>
</linearGradient>
<path fill="url(#SVGID_1_)" stroke="#464646" stroke-miterlimit="10" d="M1.5,43.5h45v-33h-27l-3.4-5.1c-0.4-0.6-1-0.9-1.7-0.9H3.5
	c-1.1,0-2,0.9-2,2V43.5z"/>
			<linearGradient id="SVGID_2_" gradientUnits="userSpaceOnUse" x1="23.0461" y1="84.1461" x2="27.6458" y2="88.7457" gradientTransform="matrix(0.7687 0 0 0.7687 4.517 -39.4496)">
			<stop  offset="0" style="stop-color:#73B4C8"/>
			<stop  offset="0.1747" style="stop-color:#6AAEC3"/>
			<stop  offset="0.4567" style="stop-color:#529EB5"/>
			<stop  offset="0.8089" style="stop-color:#2C839F"/>
			<stop  offset="1" style="stop-color:#147391"/>
		</linearGradient>
			<circle fill="url(#SVGID_2_)" stroke="#147391" stroke-linecap="round" stroke-linejoin="round" stroke-miterlimit="10" cx="24" cy="27" r="2.5"/>
		<ellipse fill="none" stroke="#5A5A5A" stroke-linejoin="round" stroke-miterlimit="10" cx="24" cy="27" rx="5.5" ry="13.5"/>
		<path fill="none" stroke="#5A5A5A" stroke-linejoin="round" stroke-miterlimit="10" d="M21.1,21.8c6.1-3.7,12.4-4.4,14-1.5
			c1.6,2.9-2.1,8.2-8.2,11.9c-6.1,3.7-12.4,4.4-14,1.5C11.3,30.8,15,25.5,21.1,21.8z"/>
		<path fill="none" stroke="#5A5A5A" stroke-linejoin="round" stroke-miterlimit="10" d="M21.1,32.2c-6.1-3.7-9.8-9-8.2-11.9
			c1.6-2.9,7.9-2.2,14,1.5c6.1,3.7,9.8,9,8.2,11.9C33.5,36.6,27.3,35.9,21.1,32.2z"/>
		<ellipse transform="matrix(0.7071 -0.7071 0.7071 0.7071 -10.3345 15.0503)" fill="#3C91AF" stroke="#147391" stroke-linecap="round" stroke-linejoin="round" stroke-miterlimit="10" cx="13" cy="20" rx="1.5" ry="1.5"/>
		<ellipse transform="matrix(0.7071 -0.7071 0.7071 0.7071 -3.4767 29.6066)" fill="#3C91AF" stroke="#147391" stroke-linecap="round" stroke-linejoin="round" stroke-miterlimit="10" cx="34" cy="19" rx="1.5" ry="1.5"/>
		<ellipse transform="matrix(0.7071 -0.7071 0.7071 0.7071 -21.4264 26.2721)" fill="#3C91AF" stroke="#147391" stroke-linecap="round" stroke-linejoin="round" stroke-miterlimit="10" cx="21" cy="39" rx="1.5" ry="1.5"/>
</svg>
