<svg id="Layer_1" data-name="Layer 1" xmlns="http://www.w3.org/2000/svg" xmlns:xlink="http://www.w3.org/1999/xlink" viewBox="0 0 48 48">
    <linearGradient id="linear-gradient" x1="3.705" y1="41.705" x2="45.205" y2="0.205" gradientTransform="matrix(1, 0, 0, -1, 0, 48)" gradientUnits="userSpaceOnUse">
      <stop offset="0" stop-color="#fff"/>
      <stop offset="0.232" stop-color="#fafafa"/>
      <stop offset="0.496" stop-color="#ededed"/>
      <stop offset="0.775" stop-color="#d6d6d6"/>
      <stop offset="1" stop-color="#bebebe"/>
    </linearGradient>
    <linearGradient id="linear-gradient-2" x1="12.846" y1="12.346" x2="42.75" y2="42.25" gradientUnits="userSpaceOnUse">
      <stop offset="0" stop-color="#fff"/>
      <stop offset="0.248" stop-color="#f8f8f8"/>
      <stop offset="0.606" stop-color="#e5e5e5"/>
      <stop offset="1" stop-color="#c8c8c8"/>
    </linearGradient>
    <linearGradient id="Dark_Blue_Grad" data-name="Dark Blue Grad" x1="20.5" y1="17.5" x2="30.5" y2="27.5" gradientUnits="userSpaceOnUse">
      <stop offset="0" stop-color="#73b4c8"/>
      <stop offset="0.175" stop-color="#6aaec3"/>
      <stop offset="0.457" stop-color="#529eb5"/>
      <stop offset="0.809" stop-color="#2c839f"/>
      <stop offset="1" stop-color="#147391"/>
    </linearGradient>
    <linearGradient id="paper_gradient" data-name="paper gradient" x1="30.5" y1="44.5" x2="42.5" y2="32.5" gradientTransform="matrix(1, 0, 0, -1, 0, 48)" gradientUnits="userSpaceOnUse">
      <stop offset="0" stop-color="#fff"/>
      <stop offset="0.221" stop-color="#f8f8f8"/>
      <stop offset="0.541" stop-color="#e5e5e5"/>
      <stop offset="0.92" stop-color="#c6c6c6"/>
      <stop offset="1" stop-color="#bebebe"/>
    </linearGradient>
  <polygon points="33.321 0.5 9.5 0.5 9.5 47.5 45.5 47.5 45.5 12.679 33.321 0.5" stroke="#464646" stroke-miterlimit="10" fill="url(#linear-gradient)"/>
  <path d="M29.668,9.5a3.494,3.494,0,0,1-6.988,0H15.693L11.5,13.693V41.5h32v-29h-10v-3Z" stroke="#6e6e6e" stroke-miterlimit="10" fill="url(#linear-gradient-2)"/>
  <rect x="21.5" y="16.5" width="8" height="12" stroke="#147391" stroke-miterlimit="10" fill="url(#Dark_Blue_Grad)"/>
  <polyline points="20 17.5 17.368 17.5 15 15" fill="none" stroke="#147391" stroke-linejoin="round"/>
  <line x1="20" y1="22.5" x2="15.5" y2="22.5" fill="none" stroke="#147391" stroke-linejoin="round"/>
  <polyline points="31.5 17.5 35.5 17.5 36.5 16.5 36.5 15.5" fill="none" stroke="#147391" stroke-linejoin="round"/>
  <rect x="19.5" y="16.5" width="2" height="2" fill="none" stroke="#147391" stroke-miterlimit="10"/>
  <rect x="19.5" y="21.5" width="2" height="2" fill="none" stroke="#147391" stroke-miterlimit="10"/>
  <polyline points="40.5 15.5 40.5 18.5 36.5 22.5 31.5 22.5" fill="none" stroke="#147391" stroke-linejoin="round"/>
  <circle cx="14.5" cy="14.5" r="1" fill="none" stroke="#147391" stroke-miterlimit="10"/>
  <circle cx="36.5" cy="14.5" r="1" fill="none" stroke="#147391" stroke-miterlimit="10"/>
  <circle cx="40.5" cy="14.5" r="1" fill="none" stroke="#147391" stroke-miterlimit="10"/>
  <circle cx="14.5" cy="22.5" r="1" fill="none" stroke="#147391" stroke-miterlimit="10"/>
  <polygon points="33.5 0.5 33.5 12.5 45.5 12.5 33.5 0.5" stroke="#464646" stroke-linejoin="round" fill="url(#paper_gradient)"/>
  <rect x="29.5" y="16.5" width="2" height="2" fill="none" stroke="#147391" stroke-miterlimit="10"/>
  <rect x="29.5" y="21.5" width="2" height="2" fill="none" stroke="#147391" stroke-miterlimit="10"/>
  <rect x="0.5" y="26.5" width="47" height="16" fill="#147391" stroke="#464646" stroke-miterlimit="10"/>
    <path d="M10.482,34.031A4.1,4.1,0,0,1,9.969,36.1,3.471,3.471,0,0,1,8.5,37.49a4.783,4.783,0,0,1-2.2.489H3.978v-7.7H6.357a4.413,4.413,0,0,1,3.094.956A3.634,3.634,0,0,1,10.482,34.031Zm-1.354.021a2.593,2.593,0,0,0-.735-1.985,2.931,2.931,0,0,0-2.084-.69H5.256v5.5H6.287a2.825,2.825,0,0,0,2.095-.749A2.813,2.813,0,0,0,9.128,34.052Z" fill="#fff"/>
    <path d="M13.189,31.377v2.278h2.675v1.1H13.189v3.223H11.911v-7.7h4.168v1.1Z" fill="#fff"/>
    <path d="M21.691,37.979l-1.627-2.8a.915.915,0,0,1-.078-.194c-.016-.061-.035-.125-.056-.193h-.022c-.029.072-.052.137-.07.2a.893.893,0,0,1-.086.191l-1.659,2.8H16.541l2.572-3.862-2.352-3.841h1.573l1.375,2.53a2.7,2.7,0,0,1,.264.575h.021c.079-.2.133-.332.164-.4s.563-.966,1.6-2.71H23.2L20.789,34.1l2.439,3.884Z" fill="#fff"/>
</svg>
