<svg version="1.1" id="Layer_1" xmlns="http://www.w3.org/2000/svg" xmlns:xlink="http://www.w3.org/1999/xlink" x="0px" y="0px" viewBox="0 0 48 48" enable-background="new 0 0 48 48" xml:space="preserve">
<linearGradient id="XMLID_2_" gradientUnits="userSpaceOnUse" x1="5.5" y1="11.4974" x2="41.5" y2="47.4974">
	<stop  offset="0" style="stop-color:#FFFFFF"/>
	<stop  offset="0.2214" style="stop-color:#F8F8F8"/>
	<stop  offset="0.5415" style="stop-color:#E5E5E5"/>
	<stop  offset="0.92" style="stop-color:#C6C6C6"/>
	<stop  offset="1" style="stop-color:#BEBEBE"/>
</linearGradient>
<path id="XMLID_114_" fill="url(#XMLID_2_)" stroke="#464646" stroke-miterlimit="10" d="M28.2,11.5c1.2-1,2-2.7,2-4.5
	c0-3.7-3-6.5-6.6-6.5s-6.6,2.7-6.6,6.4c0,1.9,0.8,3.6,2,4.6H5.5v13.7c1.2-1.2,2.9-2,4.7-2c3.7,0,6.6,3,6.6,6.6s-3,6.6-6.6,6.6
	c-1.9,0-3.5-0.8-4.7-2v13h36v-36H28.2z"/>
	<linearGradient id="SVGID_1_" gradientUnits="userSpaceOnUse" x1="18.748" y1="28.8948" x2="39.2031" y2="28.8948">
		<stop  offset="0" style="stop-color:#B1B1B1"/>
		<stop  offset="1" style="stop-color:#7D7D7D"/>
	</linearGradient>
	<polygon fill="url(#SVGID_1_)" points="18.7,29.2 21.1,27.3 26,33.3 36.9,19.8 39.2,21.7 26,38 	"/>
		<path fill="#5A5A5A" d="M36.9,20.5l1.6,1.3L26,37.2l-6.6-7.9L21,28l5,6.1L36.9,20.5 M36.8,19.1l-0.6,0.8L26,32.5l-4.2-5.1
			l-0.6-0.8l-0.8,0.6l-1.5,1.3L18,29.1l0.6,0.8l6.6,7.9l0.8,0.9l0.8-1l12.5-15.5l0.6-0.8L39.1,21l-1.6-1.3L36.8,19.1L36.8,19.1z"/>
</svg>
