<svg id="Layer_1" data-name="Layer 1" xmlns="http://www.w3.org/2000/svg" xmlns:xlink="http://www.w3.org/1999/xlink" viewBox="0 0 48 48">
    <linearGradient id="paper_gradient" data-name="paper gradient" x1="3.5" y1="-2.5" x2="37.5" y2="31.5" gradientUnits="userSpaceOnUse">
      <stop offset="0" stop-color="#fff"/>
      <stop offset="0.2214" stop-color="#f8f8f8"/>
      <stop offset="0.5415" stop-color="#e5e5e5"/>
      <stop offset="0.92" stop-color="#c6c6c6"/>
      <stop offset="1" stop-color="#bebebe"/>
    </linearGradient>
    <linearGradient id="paper_gradient-2" x1="14.5" y1="28.5" x2="27.5" y2="41.5" xlink:href="#paper_gradient"/>
    <linearGradient id="paper_gradient-3" x1="16.25" y1="26.75" x2="24.75" y2="35.25" xlink:href="#paper_gradient"/>
    <linearGradient id="Dark_Blue_Grad" data-name="Dark Blue Grad" x1="5.75" y1="-0.75" x2="35.25" y2="28.75" gradientUnits="userSpaceOnUse">
      <stop offset="0" stop-color="#73b4c8"/>
      <stop offset="0.1747" stop-color="#6aaec3"/>
      <stop offset="0.4567" stop-color="#529eb5"/>
      <stop offset="0.8089" stop-color="#2c839f"/>
      <stop offset="1" stop-color="#147391"/>
    </linearGradient>
    <linearGradient id="paper_gradient-4" x1="10.75" y1="7.25" x2="27.25" y2="23.75" xlink:href="#paper_gradient"/>
    <linearGradient id="paper_gradient-5" x1="20" y1="6" x2="26" y2="12" xlink:href="#paper_gradient"/>
    <linearGradient id="paper_gradient-6" x1="21.6893" y1="30.068" x2="43.3107" y2="51.6893" xlink:href="#paper_gradient"/>
    <linearGradient id="paper_gradient-7" x1="23.75" y1="30.25" x2="26.25" y2="32.75" xlink:href="#paper_gradient"/>
    <linearGradient id="paper_gradient-8" x1="24.75" y1="28.25" x2="28.25" y2="31.75" xlink:href="#paper_gradient"/>
    <linearGradient id="paper_gradient-9" x1="38.75" y1="30.25" x2="41.25" y2="32.75" xlink:href="#paper_gradient"/>
    <linearGradient id="paper_gradient-10" x1="36.75" y1="28.25" x2="40.25" y2="31.75" xlink:href="#paper_gradient"/>
      <rect x="0.5" y="0.5" width="40" height="28" stroke="#464646" stroke-miterlimit="10" fill="url(#paper_gradient)"/>
      <rect x="9.5" y="33.5" width="23" height="3" stroke="#464646" stroke-miterlimit="10" fill="url(#paper_gradient-2)"/>
      <rect x="14.5" y="28.5" width="12" height="5" stroke="#464646" stroke-miterlimit="10" fill="url(#paper_gradient-3)"/>
    <rect x="2.5" y="2.5" width="36" height="23" stroke="#147391" stroke-miterlimit="10" fill="url(#Dark_Blue_Grad)"/>
    <polyline points="27.5 10.5 27.5 23.5 13.5 23.5 13.5 4.5 21.5 4.5" stroke="#6e6e6e" stroke-miterlimit="10" fill="url(#paper_gradient-4)"/>
    <polygon points="27.5 10.5 21.5 10.5 21.5 4.5 27.5 10.5" stroke="#6e6e6e" stroke-linejoin="round" fill="url(#paper_gradient-5)"/>
    <path d="M20.5,32.5h24a3,3,0,0,1,3,3v12a0,0,0,0,1,0,0h-30a0,0,0,0,1,0,0v-12A3,3,0,0,1,20.5,32.5Z" stroke="#464646" stroke-miterlimit="10" fill="url(#paper_gradient-6)"/>
    <line x1="18" y1="37.5" x2="47" y2="37.5" fill="none" stroke="#6e6e6e" stroke-miterlimit="10"/>
    <rect x="22.5" y="35.5" width="3" height="5" fill="#a0a0a0" stroke="#6e6e6e" stroke-miterlimit="10"/>
    <rect x="23.5" y="30.5" width="3" height="2" stroke="#464646" stroke-linejoin="round" fill="url(#paper_gradient-7)"/>
    <rect x="25.5" y="27.5" width="2" height="5" stroke="#464646" stroke-linejoin="round" fill="url(#paper_gradient-8)"/>
    <rect x="27.5" y="27.5" width="10" height="2" fill="#a0a0a0" stroke="#464646" stroke-miterlimit="10"/>
    <rect x="38.5" y="30.5" width="3" height="2" stroke="#464646" stroke-linejoin="round" fill="url(#paper_gradient-9)"/>
    <rect x="39.5" y="35.5" width="3" height="5" fill="#a0a0a0" stroke="#6e6e6e" stroke-miterlimit="10"/>
    <rect x="37.5" y="27.5" width="2" height="5" stroke="#464646" stroke-linejoin="round" fill="url(#paper_gradient-10)"/>
</svg>
