<svg id="Layer_1" data-name="Layer 1" xmlns="http://www.w3.org/2000/svg" xmlns:xlink="http://www.w3.org/1999/xlink" viewBox="0 0 48 48">
    <linearGradient id="linear-gradient" x1="0.5" y1="0.5" x2="46.5" y2="46.5" gradientUnits="userSpaceOnUse">
      <stop offset="0" stop-color="#f2f2f2"/>
      <stop offset="0.99" stop-color="#999"/>
    </linearGradient>
    <linearGradient id="front_-45" data-name="front -45" x1="11" y1="11" x2="36" y2="36" gradientUnits="userSpaceOnUse">
      <stop offset="0" stop-color="#f2f2f2"/>
      <stop offset="0.5" stop-color="#ccc"/>
      <stop offset="0.63" stop-color="#c7c7c7"/>
      <stop offset="0.779" stop-color="#b9b9b9"/>
      <stop offset="0.938" stop-color="#a2a2a2"/>
      <stop offset="0.99" stop-color="#999"/>
    </linearGradient>
    <linearGradient id="paper_gradient" data-name="paper gradient" x1="0.061" y1="3.939" x2="6.182" y2="10.061" gradientUnits="userSpaceOnUse">
      <stop offset="0" stop-color="#fff"/>
      <stop offset="0.221" stop-color="#f8f8f8"/>
      <stop offset="0.541" stop-color="#e5e5e5"/>
      <stop offset="0.92" stop-color="#c6c6c6"/>
      <stop offset="1" stop-color="#bebebe"/>
    </linearGradient>
    <linearGradient id="paper_gradient-2" x1="13.939" y1="0.061" x2="20.061" y2="6.182" xlink:href="#paper_gradient"/>
    <linearGradient id="paper_gradient-3" x1="23.939" y1="0.061" x2="30.061" y2="6.182" xlink:href="#paper_gradient"/>
    <linearGradient id="paper_gradient-4" x1="33.939" y1="0.061" x2="40.061" y2="6.182" xlink:href="#paper_gradient"/>
    <linearGradient id="paper_gradient-5" x1="40.818" y1="11.939" x2="46.939" y2="18.061" xlink:href="#paper_gradient"/>
    <linearGradient id="paper_gradient-6" x1="40.818" y1="20.939" x2="46.939" y2="27.061" xlink:href="#paper_gradient"/>
    <linearGradient id="paper_gradient-7" x1="40.818" y1="36.939" x2="46.939" y2="43.061" xlink:href="#paper_gradient"/>
    <linearGradient id="paper_gradient-8" x1="28.939" y1="40.818" x2="35.061" y2="46.939" xlink:href="#paper_gradient"/>
    <linearGradient id="paper_gradient-9" x1="18.939" y1="40.818" x2="25.061" y2="46.939" xlink:href="#paper_gradient"/>
    <linearGradient id="paper_gradient-10" x1="0.061" y1="14.939" x2="6.182" y2="21.061" xlink:href="#paper_gradient"/>
    <linearGradient id="paper_gradient-11" x1="0.061" y1="25.939" x2="6.182" y2="32.061" xlink:href="#paper_gradient"/>
    <linearGradient id="paper_gradient-12" x1="0.061" y1="36.939" x2="6.182" y2="43.061" xlink:href="#paper_gradient"/>
    <linearGradient id="paper_gradient-13" x1="14.086" y1="13.086" x2="16.914" y2="15.914" xlink:href="#paper_gradient"/>
    <linearGradient id="paper_gradient-14" x1="20.086" y1="13.086" x2="22.914" y2="15.914" xlink:href="#paper_gradient"/>
    <linearGradient id="paper_gradient-15" x1="25.086" y1="13.086" x2="27.914" y2="15.914" xlink:href="#paper_gradient"/>
    <linearGradient id="paper_gradient-16" x1="30.086" y1="13.086" x2="32.914" y2="15.914" xlink:href="#paper_gradient"/>
    <linearGradient id="paper_gradient-17" x1="14.086" y1="18.086" x2="16.914" y2="20.914" xlink:href="#paper_gradient"/>
    <linearGradient id="paper_gradient-18" x1="14.086" y1="25.086" x2="16.914" y2="27.914" xlink:href="#paper_gradient"/>
    <linearGradient id="paper_gradient-19" x1="14.086" y1="30.086" x2="16.914" y2="32.914" xlink:href="#paper_gradient"/>
    <linearGradient id="paper_gradient-20" x1="30.086" y1="31.086" x2="32.914" y2="33.914" xlink:href="#paper_gradient"/>
    <linearGradient id="paper_gradient-21" x1="30.086" y1="25.086" x2="32.914" y2="27.914" xlink:href="#paper_gradient"/>
    <linearGradient id="paper_gradient-22" x1="30.086" y1="20.086" x2="32.914" y2="22.914" xlink:href="#paper_gradient"/>
    <linearGradient id="paper_gradient-23" x1="20.086" y1="31.086" x2="22.914" y2="33.914" xlink:href="#paper_gradient"/>
    <linearGradient id="paper_gradient-24" x1="26.086" y1="31.086" x2="28.914" y2="33.914" xlink:href="#paper_gradient"/>
    <linearGradient id="Dark_Blue_Grad" data-name="Dark Blue Grad" x1="0.5" y1="0.5" x2="29.094" y2="29.094" gradientUnits="userSpaceOnUse">
      <stop offset="0" stop-color="#73b4c8"/>
      <stop offset="0.175" stop-color="#6aaec3"/>
      <stop offset="0.457" stop-color="#529eb5"/>
      <stop offset="0.809" stop-color="#2c839f"/>
      <stop offset="1" stop-color="#147391"/>
    </linearGradient>
  <rect x="0.5" y="0.5" width="46" height="46" fill="url(#linear-gradient)"/>
  <rect x="11.5" y="10.5" width="24" height="26" stroke="#6e6e6e" stroke-miterlimit="10" fill="url(#front_-45)"/>
  <rect x="19.5" y="18.5" width="8" height="10" fill="none" stroke="#147391" stroke-miterlimit="10"/>
  <path d="M.5,3.5h4a3,3,0,0,1,3,3v1a3,3,0,0,1-3,3H.5a0,0,0,0,1,0,0v-7A0,0,0,0,1,.5,3.5Z" stroke="#6e6e6e" stroke-miterlimit="10" fill="url(#paper_gradient)"/>
  <path d="M13.5.5h7a0,0,0,0,1,0,0v4a3,3,0,0,1-3,3h-1a3,3,0,0,1-3-3V.5A0,0,0,0,1,13.5.5Z" stroke="#6e6e6e" stroke-miterlimit="10" fill="url(#paper_gradient-2)"/>
  <path d="M23.5.5h7a0,0,0,0,1,0,0v4a3,3,0,0,1-3,3h-1a3,3,0,0,1-3-3V.5A0,0,0,0,1,23.5.5Z" stroke="#6e6e6e" stroke-miterlimit="10" fill="url(#paper_gradient-3)"/>
  <path d="M33.5.5h7a0,0,0,0,1,0,0v4a3,3,0,0,1-3,3h-1a3,3,0,0,1-3-3V.5A0,0,0,0,1,33.5.5Z" stroke="#6e6e6e" stroke-miterlimit="10" fill="url(#paper_gradient-4)"/>
  <path d="M42.5,11.5h4a0,0,0,0,1,0,0v7a0,0,0,0,1,0,0h-4a3,3,0,0,1-3-3v-1A3,3,0,0,1,42.5,11.5Z" stroke="#6e6e6e" stroke-miterlimit="10" fill="url(#paper_gradient-5)"/>
  <path d="M42.5,20.5h4a0,0,0,0,1,0,0v7a0,0,0,0,1,0,0h-4a3,3,0,0,1-3-3v-1A3,3,0,0,1,42.5,20.5Z" stroke="#6e6e6e" stroke-miterlimit="10" fill="url(#paper_gradient-6)"/>
  <path d="M42.5,36.5h4a0,0,0,0,1,0,0v7a0,0,0,0,1,0,0h-4a3,3,0,0,1-3-3v-1A3,3,0,0,1,42.5,36.5Z" stroke="#6e6e6e" stroke-miterlimit="10" fill="url(#paper_gradient-7)"/>
  <path d="M31.5,39.5h1a3,3,0,0,1,3,3v4a0,0,0,0,1,0,0h-7a0,0,0,0,1,0,0v-4A3,3,0,0,1,31.5,39.5Z" stroke="#6e6e6e" stroke-miterlimit="10" fill="url(#paper_gradient-8)"/>
  <path d="M21.5,39.5h1a3,3,0,0,1,3,3v4a0,0,0,0,1,0,0h-7a0,0,0,0,1,0,0v-4A3,3,0,0,1,21.5,39.5Z" stroke="#6e6e6e" stroke-miterlimit="10" fill="url(#paper_gradient-9)"/>
  <path d="M.5,14.5h4a3,3,0,0,1,3,3v1a3,3,0,0,1-3,3H.5a0,0,0,0,1,0,0v-7A0,0,0,0,1,.5,14.5Z" stroke="#6e6e6e" stroke-miterlimit="10" fill="url(#paper_gradient-10)"/>
  <path d="M.5,25.5h4a3,3,0,0,1,3,3v1a3,3,0,0,1-3,3H.5a0,0,0,0,1,0,0v-7A0,0,0,0,1,.5,25.5Z" stroke="#6e6e6e" stroke-miterlimit="10" fill="url(#paper_gradient-11)"/>
  <path d="M.5,36.5h4a3,3,0,0,1,3,3v1a3,3,0,0,1-3,3H.5a0,0,0,0,1,0,0v-7A0,0,0,0,1,.5,36.5Z" stroke="#6e6e6e" stroke-miterlimit="10" fill="url(#paper_gradient-12)"/>
  <circle cx="15.5" cy="14.5" r="2" stroke="#147391" stroke-miterlimit="10" fill="url(#paper_gradient-13)"/>
  <circle cx="21.5" cy="14.5" r="2" stroke="#147391" stroke-miterlimit="10" fill="url(#paper_gradient-14)"/>
  <circle cx="26.5" cy="14.5" r="2" stroke="#147391" stroke-miterlimit="10" fill="url(#paper_gradient-15)"/>
  <circle cx="31.5" cy="14.5" r="2" stroke="#147391" stroke-miterlimit="10" fill="url(#paper_gradient-16)"/>
  <circle cx="15.5" cy="19.5" r="2" stroke="#147391" stroke-miterlimit="10" fill="url(#paper_gradient-17)"/>
  <circle cx="15.5" cy="26.5" r="2" stroke="#147391" stroke-miterlimit="10" fill="url(#paper_gradient-18)"/>
  <circle cx="15.5" cy="31.5" r="2" stroke="#147391" stroke-miterlimit="10" fill="url(#paper_gradient-19)"/>
  <circle cx="31.5" cy="32.5" r="2" stroke="#6e6e6e" stroke-miterlimit="10" fill="url(#paper_gradient-20)"/>
  <circle cx="31.5" cy="26.5" r="2" stroke="#6e6e6e" stroke-miterlimit="10" fill="url(#paper_gradient-21)"/>
  <circle cx="31.5" cy="21.5" r="2" stroke="#6e6e6e" stroke-miterlimit="10" fill="url(#paper_gradient-22)"/>
  <circle cx="21.5" cy="32.5" r="2" stroke="#6e6e6e" stroke-miterlimit="10" fill="url(#paper_gradient-23)"/>
  <circle cx="27.5" cy="32.5" r="2" stroke="#6e6e6e" stroke-miterlimit="10" fill="url(#paper_gradient-24)"/>
  <line x1="5" y1="7" x2="15.5" y2="14.5" fill="none" stroke="#147391" stroke-linecap="round" stroke-miterlimit="10"/>
  <line x1="17" y1="5" x2="21.5" y2="14.5" fill="none" stroke="#147391" stroke-linecap="round" stroke-miterlimit="10"/>
  <line x1="27" y1="5" x2="26.5" y2="14.5" fill="none" stroke="#147391" stroke-linecap="round" stroke-miterlimit="10"/>
  <line x1="37" y1="5" x2="31.5" y2="14.5" fill="none" stroke="#147391" stroke-linecap="round" stroke-miterlimit="10"/>
  <line x1="42" y1="15" x2="31.5" y2="21.5" fill="none" stroke="#6e6e6e" stroke-linecap="round" stroke-miterlimit="10"/>
  <line x1="42" y1="24" x2="31.5" y2="26.5" fill="none" stroke="#6e6e6e" stroke-linecap="round" stroke-miterlimit="10"/>
  <line x1="5" y1="18" x2="15.5" y2="19.5" fill="none" stroke="#147391" stroke-linecap="round" stroke-miterlimit="10"/>
  <line x1="5" y1="29" x2="15.5" y2="26.5" fill="none" stroke="#147391" stroke-linecap="round" stroke-miterlimit="10"/>
  <line x1="5" y1="40" x2="15.5" y2="31.5" fill="none" stroke="#147391" stroke-linecap="round" stroke-miterlimit="10"/>
  <line x1="22" y1="42" x2="21.5" y2="32.5" fill="none" stroke="#6e6e6e" stroke-linecap="round" stroke-miterlimit="10"/>
  <line x1="32" y1="42" x2="27.5" y2="32.5" fill="none" stroke="#6e6e6e" stroke-linecap="round" stroke-miterlimit="10"/>
  <line x1="42" y1="40" x2="31.5" y2="32.5" fill="none" stroke="#6e6e6e" stroke-linecap="round" stroke-miterlimit="10"/>
  <rect x="0.5" y="0.5" width="46" height="46" fill="none" stroke="#464646" stroke-miterlimit="10"/>
  <path d="M9.5,47.5H.5V.5h47v9A26.962,26.962,0,0,0,35.25,15C29.5,19.5,31,25.5,27.5,30.5s-8.248,1.766-12,6C10.25,42.425,9.5,47.5,9.5,47.5Z" stroke="#464646" stroke-miterlimit="10" fill="url(#Dark_Blue_Grad)"/>
</svg>
