<svg id="Layer_1" data-name="Layer 1" xmlns="http://www.w3.org/2000/svg" xmlns:xlink="http://www.w3.org/1999/xlink" viewBox="0 0 48 48">
    <linearGradient id="front_-45" data-name="front -45" x1="0.374" y1="8.817" x2="28.626" y2="37.068" gradientUnits="userSpaceOnUse">
      <stop offset="0" stop-color="#f2f2f2"/>
      <stop offset="0.5" stop-color="#ccc"/>
      <stop offset="0.63" stop-color="#c7c7c7"/>
      <stop offset="0.779" stop-color="#b9b9b9"/>
      <stop offset="0.938" stop-color="#a2a2a2"/>
      <stop offset="0.99" stop-color="#999"/>
    </linearGradient>
    <linearGradient id="paper_gradient" data-name="paper gradient" x1="7.022" y1="-1.728" x2="21.978" y2="13.228" gradientUnits="userSpaceOnUse">
      <stop offset="0" stop-color="#fff"/>
      <stop offset="0.221" stop-color="#f8f8f8"/>
      <stop offset="0.541" stop-color="#e5e5e5"/>
      <stop offset="0.92" stop-color="#c6c6c6"/>
      <stop offset="1" stop-color="#bebebe"/>
    </linearGradient>
    <linearGradient id="front_-45-2" x1="7.618" y1="6.618" x2="5.382" y2="4.382" xlink:href="#front_-45"/>
    <linearGradient id="paper_gradient-2" x1="14.215" y1="15.844" x2="44.785" y2="46.414" xlink:href="#paper_gradient"/>
    <linearGradient id="front_-45-3" x1="23.395" y1="23.967" x2="35.615" y2="36.187" xlink:href="#front_-45"/>
    <linearGradient id="Dark_Blue_Grad_2" data-name="Dark Blue Grad 2" x1="26.161" y1="26.161" x2="43.839" y2="43.839" gradientUnits="userSpaceOnUse">
      <stop offset="0" stop-color="#74b3c7"/>
      <stop offset="0.177" stop-color="#6badc2"/>
      <stop offset="0.464" stop-color="#539db4"/>
      <stop offset="0.822" stop-color="#2d839d"/>
      <stop offset="1" stop-color="#177490"/>
    </linearGradient>
  <path d="M28.5,15.923a2.663,2.663,0,0,0-1-2.059V7.691C25.441,9.629,20.4,11,14.5,11S3.559,9.629,1.5,7.691v6.284a2.732,2.732,0,0,0-1,1.948,2.732,2.732,0,0,0,1,1.948V24.13a2.732,2.732,0,0,0-1,1.948,2.732,2.732,0,0,0,1,1.948v6.26a2.732,2.732,0,0,0-1,1.948c0,2.91,6.268,5.268,14,5.268s14-2.359,14-5.268a2.812,2.812,0,0,0-1.111-2.059V28.137A2.812,2.812,0,0,0,28.5,26.077a2.812,2.812,0,0,0-1.111-2.059V17.982A2.812,2.812,0,0,0,28.5,15.923Z" stroke="#464646" stroke-linejoin="round" fill="url(#front_-45)"/>
    <rect id="_Rectangle_" data-name="&lt;Rectangle&gt;" width="48" height="48" fill="none"/>
  <ellipse cx="14.5" cy="5.75" rx="14" ry="5.25" stroke="#464646" stroke-linejoin="round" fill="url(#paper_gradient)"/>
  <path d="M28.5,15.923c0,2.91-6.268,5.268-14,5.268S.5,18.832.5,15.923" fill="none" stroke="#464646" stroke-linejoin="round"/>
  <path d="M28.5,26.077c0,2.91-6.268,5.268-14,5.268S.5,28.987.5,26.077" fill="none" stroke="#464646" stroke-linejoin="round"/>
  <ellipse cx="6.5" cy="5.5" rx="2" ry="1" stroke="#6e6e6e" stroke-linejoin="round" fill="url(#front_-45-2)"/>
    <path d="M42.221,42.452a6.9,6.9,0,0,0-1.647-.956q.249-1.2.434-2.469a46.371,46.371,0,0,0,.474-6.649,44.439,44.439,0,0,0-1.156-10.246,34.028,34.028,0,0,0-1.152-3.818,6.455,6.455,0,0,0,1.393-1.15c1.433-1.558,1.986-3.484,1.236-4.3s-2.521-.214-3.954,1.344a6.933,6.933,0,0,0-1.036,1.475,25.616,25.616,0,0,0-7.313-.994,25.616,25.616,0,0,0-7.313.994,6.933,6.933,0,0,0-1.036-1.475c-1.433-1.558-3.2-2.16-3.954-1.344s-.2,2.741,1.236,4.3a6.455,6.455,0,0,0,1.393,1.15,34.029,34.029,0,0,0-1.152,3.818,44.439,44.439,0,0,0-1.156,10.245,46.377,46.377,0,0,0,.474,6.649q.184,1.265.434,2.469a6.9,6.9,0,0,0-1.647.956c-1.816,1.416-2.736,3.4-2.054,4.437s2.707.725,4.523-.691A7.357,7.357,0,0,0,20.6,44.817a21.329,21.329,0,0,0,8.9,1.738,21.329,21.329,0,0,0,8.9-1.738A7.357,7.357,0,0,0,39.752,46.2c1.816,1.416,3.841,1.725,4.523.691S44.037,43.868,42.221,42.452Z" stroke="#464646" stroke-linejoin="round" fill="url(#paper_gradient-2)"/>
    <path d="M37.445,25.787a108.342,108.342,0,0,0-15.878.008L21.5,34.3q8,.394,16,0Z" stroke="#6e6e6e" stroke-linejoin="round" fill="url(#front_-45-3)"/>
    <circle cx="35" cy="35" r="12.5" stroke="#464646" stroke-miterlimit="10" fill="url(#Dark_Blue_Grad_2)"/>
      <path d="M35,40.5A1.5,1.5,0,0,1,33.5,39v-1.73a4.416,4.416,0,0,1,2.547-4,2.5,2.5,0,0,0-.581-4.729A2.757,2.757,0,0,0,35,28.5a2.469,2.469,0,0,0-1.605.583A2.5,2.5,0,0,0,32.5,31a1.5,1.5,0,0,1-3,0,5.5,5.5,0,0,1,5.507-5.5,5.634,5.634,0,0,1,.978.086,5.5,5.5,0,0,1,1.322,10.407,1.406,1.406,0,0,0-.807,1.276V39A1.5,1.5,0,0,1,35,40.5Z" fill="#fff"/>
      <path d="M35.006,26a5.133,5.133,0,0,1,.891.078,5,5,0,0,1,1.2,9.461A1.908,1.908,0,0,0,36,37.269V39a1,1,0,0,1-2,0v-1.73a3.914,3.914,0,0,1,2.257-3.545,3,3,0,0,0-.705-5.676A3.251,3.251,0,0,0,35,28a3,3,0,0,0-3,3,1,1,0,0,1-2,0,5,5,0,0,1,5.006-5m0-1h0A6,6,0,0,0,29,31a2,2,0,1,0,4,0,2,2,0,0,1,.715-1.533A1.976,1.976,0,0,1,35,29a2.257,2.257,0,0,1,.382.033,2,2,0,0,1,.456,3.782A4.918,4.918,0,0,0,33,37.269V39a2,2,0,0,0,4,0v-1.73a.9.9,0,0,1,.517-.822A6,6,0,0,0,36.07,25.093,6.151,6.151,0,0,0,35.007,25Z" fill="#147391"/>
      <path d="M35,45a2.013,2.013,0,0,1-1.421-.6A1.983,1.983,0,0,1,35.006,41a2,2,0,0,1,1.413.566A2.017,2.017,0,0,1,35,45Z" fill="#fff"/>
      <path d="M35.005,41.5a1.49,1.49,0,0,1,1.059.419,1.518,1.518,0,0,1,0,2.128A1.506,1.506,0,1,1,35.005,41.5m0-1A2.459,2.459,0,0,0,32.5,42.991,2.518,2.518,0,1,0,35.005,40.5Z" fill="#147391"/>
</svg>
