<svg version="1.1" id="Layer_1" xmlns="http://www.w3.org/2000/svg" xmlns:xlink="http://www.w3.org/1999/xlink" x="0px" y="0px"
	  viewBox="0 0 48 48" enable-background="new 0 0 48 48" xml:space="preserve">
<linearGradient id="SVGID_1_" gradientUnits="userSpaceOnUse" x1="5.7613" y1="0.7534" x2="41.2544" y2="36.2466">
	<stop  offset="0" style="stop-color:#73B4C8"/>
	<stop  offset="0.1747" style="stop-color:#6AAEC3"/>
	<stop  offset="0.4567" style="stop-color:#529EB5"/>
	<stop  offset="0.8089" style="stop-color:#2C839F"/>
	<stop  offset="1" style="stop-color:#147391"/>
</linearGradient>
<path fill="url(#SVGID_1_)" stroke="#464646" stroke-linecap="round" stroke-linejoin="round" stroke-miterlimit="10" d="
	M39.531,35.5H25.5l-9.988,10l-0.012-10h-8c-3.314,0-6-2.686-6-6v-22c0-3.314,2.686-6,6-6h32.031c3.314,0,5.969,2.686,5.969,6v22
	C45.5,32.814,42.845,35.5,39.531,35.5z"/>
	<polygon fill="#147391" stroke="#147391" stroke-width="3" stroke-linejoin="round" stroke-miterlimit="10" points="30.008,21.56 
		38.576,15.44 28.172,14.828 24.5,5.036 20.828,14.828 10.424,15.44 18.992,21.56 15.932,31.964 24.5,25.844 33.068,31.964 	"/>
	<polyline fill="#FFFFFF" stroke="#FFFFFF" stroke-linejoin="round" stroke-miterlimit="10" points="24.5,25.844 33.068,31.964 
		30.008,21.56 38.576,15.44 28.172,14.828 24.5,5.036 	"/>
<line fill="none" stroke="#147391" stroke-miterlimit="10" x1="24.5" y1="5.036" x2="24.5" y2="25.844"/>
	<polygon fill="none" stroke="#FFFFFF" stroke-linejoin="round" stroke-miterlimit="10" points="30.008,21.56 38.576,15.44 
		28.172,14.828 24.5,5.036 20.828,14.828 10.424,15.44 18.992,21.56 15.932,31.964 24.5,25.844 33.068,31.964 	"/>
</svg>
