<svg id="Layer_1" data-name="Layer 1" xmlns="http://www.w3.org/2000/svg" xmlns:xlink="http://www.w3.org/1999/xlink" viewBox="0 0 48 48">
  <defs>
    <linearGradient id="linear-gradient" x1="3.5" y1="45.5" x2="39.5" y2="9.5" gradientTransform="matrix(1, 0, 0, -1, 0, 48)" gradientUnits="userSpaceOnUse">
      <stop offset="0" stop-color="#fff"/>
      <stop offset="0.2323" stop-color="#fafafa"/>
      <stop offset="0.4964" stop-color="#ededed"/>
      <stop offset="0.775" stop-color="#d6d6d6"/>
      <stop offset="1" stop-color="#bebebe"/>
    </linearGradient>
    <linearGradient id="linear-gradient-2" x1="-4.5" y1="39.5" x2="31.5" y2="3.5" xlink:href="#linear-gradient"/>
    <linearGradient id="paper_gradient" data-name="paper gradient" x1="17.5" y1="41.5" x2="29.5" y2="29.5" gradientTransform="matrix(1, 0, 0, -1, 0, 48)" gradientUnits="userSpaceOnUse">
      <stop offset="0" stop-color="#fff"/>
      <stop offset="0.2214" stop-color="#f8f8f8"/>
      <stop offset="0.5415" stop-color="#e5e5e5"/>
      <stop offset="0.92" stop-color="#c6c6c6"/>
      <stop offset="1" stop-color="#bebebe"/>
    </linearGradient>
    <linearGradient id="front_-45" data-name="front -45" x1="8.25" y1="12.75" x2="29.75" y2="34.25" gradientUnits="userSpaceOnUse">
      <stop offset="0" stop-color="#f2f2f2"/>
      <stop offset="0.5" stop-color="#ccc"/>
      <stop offset="0.6296" stop-color="#c7c7c7"/>
      <stop offset="0.7792" stop-color="#b9b9b9"/>
      <stop offset="0.9383" stop-color="#a2a2a2"/>
      <stop offset="0.99" stop-color="#999"/>
    </linearGradient>
    <linearGradient id="front_-45-2" x1="12.4994" y1="19.4994" x2="20.5006" y2="27.5006" xlink:href="#front_-45"/>
    <linearGradient id="paper_gradient-2" x1="26.1612" y1="26.1612" x2="43.8388" y2="43.8388" gradientTransform="matrix(1, 0, 0, 1, 0, 0)" xlink:href="#paper_gradient"/>
  </defs>
  <rect x="5.5" y="0.5" width="32" height="40" stroke="#464646" stroke-miterlimit="10" fill="url(#linear-gradient)"/>
  <polyline points="20.5 3.5 0.5 3.5 0.5 43.5 32.5 43.5 32.5 15.5" stroke="#464646" stroke-miterlimit="10" fill="url(#linear-gradient-2)"/>
  <polygon points="20.5 3.5 20.5 15.5 32.5 15.5 20.5 3.5" stroke="#464646" stroke-linejoin="round" fill="url(#paper_gradient)"/>
  <rect x="0.5" y="20.5" width="37" height="6" stroke="#6e6e6e" stroke-linecap="round" stroke-miterlimit="10" fill="url(#front_-45)"/>
  <line x1="37.5" y1="20.5" x2="37.5" y2="26.5" fill="none" stroke="#464646" stroke-linecap="square" stroke-miterlimit="10"/>
  <line x1="0.5" y1="26.5" x2="0.5" y2="20.5" fill="none" stroke="#464646" stroke-linecap="square" stroke-miterlimit="10"/>
  <path d="M17.1,18.1954h0a1.0205,1.0205,0,0,1,1.5325.4106h0a1.02,1.02,0,0,0,1.0394.6h0a1.0206,1.0206,0,0,1,1.1219,1.1219h0a1.02,1.02,0,0,0,.6,1.0394h0A1.02,1.02,0,0,1,21.8046,22.9h0a1.0206,1.0206,0,0,0,0,1.2h0a1.02,1.02,0,0,1-.4106,1.5325h0a1.02,1.02,0,0,0-.6,1.0394h0a1.0206,1.0206,0,0,1-1.1219,1.1219h0a1.02,1.02,0,0,0-1.0394.6h0a1.0205,1.0205,0,0,1-1.5325.4106h0a1.0206,1.0206,0,0,0-1.2,0h0a1.02,1.02,0,0,1-1.5325-.4106h0a1.02,1.02,0,0,0-1.0394-.6h0a1.0206,1.0206,0,0,1-1.1219-1.1219h0a1.0207,1.0207,0,0,0-.6-1.0394h0A1.02,1.02,0,0,1,11.1954,24.1h0a1.0206,1.0206,0,0,0,0-1.2h0a1.02,1.02,0,0,1,.4106-1.5325h0a1.0207,1.0207,0,0,0,.6-1.0394h0a1.0206,1.0206,0,0,1,1.1219-1.1219h0a1.02,1.02,0,0,0,1.0394-.6h0A1.02,1.02,0,0,1,15.9,18.1954h0A1.0206,1.0206,0,0,0,17.1,18.1954Z" stroke="#6e6e6e" stroke-linecap="round" stroke-linejoin="round" fill="url(#front_-45-2)"/>
  <circle cx="35" cy="35" r="12.5" stroke="#464646" stroke-miterlimit="10" fill="url(#paper_gradient-2)"/>
    <path d="M34,42.5a.5.5,0,0,1-.3535-.1465l-7-7a.5.5,0,0,1,0-.707l7-7A.5.5,0,0,1,34.5,28v3.5H43a.5.5,0,0,1,.5.5v6a.5.5,0,0,1-.5.5H34.5V42a.5.5,0,0,1-.5.5Z" fill="#fff"/>
    <path d="M34,28v4h9v6H34v4l-7-7,7-7m0-1a1,1,0,0,0-.7073.2929l-7,7a1,1,0,0,0,0,1.4142l7,7A1,1,0,0,0,35,42V39h8a1,1,0,0,0,1-1V32a1,1,0,0,0-1-1H35V28a1,1,0,0,0-1-1Z" fill="#6e6e6e"/>
</svg>
