<svg id="Layer_1" data-name="Layer 1" xmlns="http://www.w3.org/2000/svg" xmlns:xlink="http://www.w3.org/1999/xlink" viewBox="0 0 48 48">
    <linearGradient id="linear-gradient" x1="0.4976" y1="0.5" x2="42.4977" y2="42.5" gradientUnits="userSpaceOnUse">
      <stop offset="0" stop-color="#fff"/>
      <stop offset="0.2323" stop-color="#fafafa"/>
      <stop offset="0.4964" stop-color="#ededed"/>
      <stop offset="0.775" stop-color="#d6d6d6"/>
      <stop offset="1" stop-color="#bebebe"/>
    </linearGradient>
    <linearGradient id="Dark_Blue_Grad" data-name="Dark Blue Grad" x1="26.1612" y1="26.1612" x2="43.8388" y2="43.8388" gradientUnits="userSpaceOnUse">
      <stop offset="0" stop-color="#73b4c8"/>
      <stop offset="0.1747" stop-color="#6aaec3"/>
      <stop offset="0.4567" stop-color="#529eb5"/>
      <stop offset="0.8089" stop-color="#2c839f"/>
      <stop offset="1" stop-color="#147391"/>
    </linearGradient>
    <linearGradient id="New_Gradient_Swatch_4" data-name="New Gradient Swatch 4" x1="-22.5262" y1="13.7538" x2="0.9882" y2="13.7538" gradientTransform="translate(16.8725 2.1734) rotate(-21.2064)" gradientUnits="userSpaceOnUse">
      <stop offset="0" stop-color="#fff"/>
      <stop offset="0.2284" stop-color="#fafafa"/>
      <stop offset="0.4881" stop-color="#ededed"/>
      <stop offset="0.7621" stop-color="#d7d6d6"/>
      <stop offset="1" stop-color="#bdbcbc"/>
    </linearGradient>
    <linearGradient id="Dark_Blue_Grad-2" x1="-15.8877" y1="13.6071" x2="-10.6224" y2="18.8724" gradientTransform="translate(16.8725 2.1734) rotate(-21.2064)" xlink:href="#Dark_Blue_Grad"/>
    <linearGradient id="New_Gradient_Swatch_1" data-name="New Gradient Swatch 1" x1="12.4792" y1="13.5069" x2="20.4792" y2="13.5069" gradientTransform="translate(-1.536 -1.6954)" gradientUnits="userSpaceOnUse">
      <stop offset="0" stop-color="#cde6eb"/>
      <stop offset="0.2214" stop-color="#c6e2e8"/>
      <stop offset="0.5419" stop-color="#b3d8e1"/>
      <stop offset="0.9212" stop-color="#93c7d5"/>
      <stop offset="1" stop-color="#8cc3d2"/>
    </linearGradient>
    <linearGradient id="Dark_Blue_Grad-3" x1="18.5" y1="19.95" x2="21.5" y2="19.95" xlink:href="#Dark_Blue_Grad"/>
  <rect x="0.4976" y="0.5" width="42.0001" height="42" stroke="#464646" stroke-miterlimit="10" fill="url(#linear-gradient)"/>
  <polyline points="30.498 8 30.498 11.5 24.498 11.5 24.498 5.5 28.998 5.5" fill="none" stroke="#464646"/>
    <polyline points="30.498 5.5 27.498 9.5 26.498 7.5" fill="none" stroke="#147391" stroke-linecap="round" stroke-linejoin="round"/>
  <polyline points="30.498 16 30.498 19.5 24.498 19.5 24.498 13.5 28.998 13.5" fill="none" stroke="#464646"/>
    <polyline points="30.498 13.5 27.498 17.5 26.498 15.5" fill="none" stroke="#147391" stroke-linecap="round" stroke-linejoin="round"/>
  <line x1="32.9976" y1="8.5" x2="39.4976" y2="8.5" fill="none" stroke="#969696" stroke-linejoin="round"/>
  <line x1="32.9976" y1="16.5" x2="39.4976" y2="16.5" fill="none" stroke="#969696" stroke-linejoin="round"/>
  <polyline points="25 27.5 24.498 27.5 24.498 21.5 28.998 21.5" fill="none" stroke="#464646"/>
    <polyline points="30.498 21.5 27.498 25.5 26.498 23.5" fill="none" stroke="#147391" stroke-linecap="round" stroke-linejoin="round"/>
    <circle cx="35" cy="35" r="12.5" stroke="#464646" stroke-linecap="round" stroke-linejoin="round" fill="url(#Dark_Blue_Grad)"/>
      <polygon points="31.5 29.098 40.943 35 31.5 40.902 31.5 29.098" fill="#fff"/>
      <path d="M32,30l8,5-8,5V30m-1-1.8043V41.8043l1.53-.9563,8-5L41.8868,35,40.53,34.152l-8-5L31,28.1957Z" fill="#147391"/>
    <path d="M17.3608,6.2974c-2.0069-.8849-3.8729-1.06-4.1679-.391a.4586.4586,0,0,0-.0167.0616,24.8535,24.8535,0,0,1-.7929,2.39L3.8148,27.7912a3.7231,3.7231,0,1,0,6.8133,3.0042L19.1966,11.362a24.87,24.87,0,0,1,1.23-2.1973.4605.4605,0,0,0,.0342-.0538C20.7554,8.4419,19.3676,7.1823,17.3608,6.2974Z" fill="url(#New_Gradient_Swatch_4)"/>
    <path d="M11.5586,10.2282,3.8148,27.7912a3.7231,3.7231,0,1,0,6.8133,3.0042l7.7851-17.6566C18.5532,12.8213,11.5586,10.2282,11.5586,10.2282Z" fill="url(#Dark_Blue_Grad-2)"/>
    <ellipse cx="14.9432" cy="11.8115" rx="4" ry="1.4809" stroke="#147391" stroke-miterlimit="10" fill="url(#New_Gradient_Swatch_1)"/>
    <ellipse cx="16.8267" cy="7.5086" rx="1.3238" ry="3.9713" transform="translate(3.1676 19.8758) rotate(-66.2064)" fill="none" stroke="#464646" stroke-miterlimit="10"/>
    <path d="M13.1675,5.9642h0a12.7869,12.7869,0,0,1-.7842,2.3937L3.8148,27.7912A3.7341,3.7341,0,0,0,5.7194,32.7h0a3.7341,3.7341,0,0,0,4.9087-1.9046L19.1966,11.362A12.7858,12.7858,0,0,1,20.435,9.1686h0" fill="none" stroke="#464646" stroke-miterlimit="10"/>
  <path d="M21.5,21a1.5,1.5,0,0,1-3,0c0-.8284.9-1.4471,1.5-3.6C20.6212,19.5459,21.5,20.1716,21.5,21Z" stroke="#464646" stroke-miterlimit="10" fill="url(#Dark_Blue_Grad-3)"/>
</svg>
