<svg id="Layer_1" data-name="Layer 1" xmlns="http://www.w3.org/2000/svg" xmlns:xlink="http://www.w3.org/1999/xlink" viewBox="0 0 48 48">
    <linearGradient id="paper_gradient" data-name="paper gradient" x1="-460.3182" y1="658.3181" x2="-445.3182" y2="643.3181" gradientTransform="translate(663.8181 480.8182) rotate(90)" gradientUnits="userSpaceOnUse">
      <stop offset="0" stop-color="#fff"/>
      <stop offset="0.2214" stop-color="#f8f8f8"/>
      <stop offset="0.5415" stop-color="#e5e5e5"/>
      <stop offset="0.92" stop-color="#c6c6c6"/>
      <stop offset="1" stop-color="#bebebe"/>
    </linearGradient>
    <linearGradient id="paper_gradient-2" x1="163.8641" y1="1119.1363" x2="148.8641" y2="1104.1363" gradientTransform="translate(169.3641 1124.6363) rotate(180)" xlink:href="#paper_gradient"/>
    <linearGradient id="paper_gradient-3" x1="649.1818" y1="467.1818" x2="664.1818" y2="482.1818" gradientTransform="translate(-446.6818 669.6818) rotate(-90)" xlink:href="#paper_gradient"/>
    <linearGradient id="Dark_Blue_Grad" data-name="Dark Blue Grad" x1="20.5" y1="20.5" x2="35.5" y2="35.5" gradientUnits="userSpaceOnUse">
      <stop offset="0" stop-color="#73b4c8"/>
      <stop offset="0.1747" stop-color="#6aaec3"/>
      <stop offset="0.4567" stop-color="#529eb5"/>
      <stop offset="0.8089" stop-color="#2c839f"/>
      <stop offset="1" stop-color="#147391"/>
    </linearGradient>
    <linearGradient id="New_Gradient_Swatch_4" data-name="New Gradient Swatch 4" x1="22.3694" y1="22.7663" x2="43.397" y2="43.7939" gradientUnits="userSpaceOnUse">
      <stop offset="0" stop-color="#fff"/>
      <stop offset="0.2284" stop-color="#fafafa"/>
      <stop offset="0.4881" stop-color="#ededed"/>
      <stop offset="0.7621" stop-color="#d7d6d6"/>
      <stop offset="1" stop-color="#bdbcbc"/>
    </linearGradient>
    <linearGradient id="New_Gradient_Swatch_4-2" x1="27.2456" y1="31.2505" x2="29.7446" y2="33.7495" xlink:href="#New_Gradient_Swatch_4"/>
    <linearGradient id="New_Gradient_Swatch_4-3" x1="28.745" y1="35.7503" x2="30.2444" y2="37.2497" xlink:href="#New_Gradient_Swatch_4"/>
  <polyline points="32 1 40 1 40 5.239 40 35.761 40 40 32 40" fill="none" stroke="#969696" stroke-miterlimit="10" stroke-width="2"/>
  <polyline points="9 40 1 40 1 35.761 1 5.239 1 1 9 1" fill="none" stroke="#969696" stroke-miterlimit="10" stroke-width="2"/>
  <path d="M20.5,29.9425a2.84,2.84,0,0,0,2.0062.8274,2.7666,2.7666,0,0,0,0-5.5331,2.84,2.84,0,0,0-2.0062.8274V20.5H14.9669a2.7665,2.7665,0,1,1-3.862,0H5.5v15h15Z" stroke="#464646" stroke-miterlimit="10" fill="url(#paper_gradient)"/>
  <path d="M11.0575,20.5a2.84,2.84,0,0,0-.8274,2.0062,2.7666,2.7666,0,0,0,5.5331,0A2.84,2.84,0,0,0,14.9358,20.5H20.5V14.9669a2.7665,2.7665,0,1,1,0-3.862V5.5H5.5v15Z" stroke="#464646" stroke-miterlimit="10" fill="url(#paper_gradient-2)"/>
  <path d="M20.5,11.0575a2.84,2.84,0,0,0-2.0062-.8274,2.7666,2.7666,0,0,0,0,5.5331A2.84,2.84,0,0,0,20.5,14.9358V20.5h5.5331a2.7665,2.7665,0,1,1,3.862,0H35.5V5.5h-15Z" stroke="#464646" stroke-miterlimit="10" fill="url(#paper_gradient-3)"/>
  <path d="M29.9425,20.5a2.84,2.84,0,0,0,.8274-2.0062,2.7666,2.7666,0,0,0-5.5331,0A2.84,2.84,0,0,0,26.0642,20.5H20.5v5.5331a2.7665,2.7665,0,1,1,0,3.862V35.5h15v-15Z" stroke="#147391" stroke-miterlimit="10" fill="url(#Dark_Blue_Grad)"/>
    <path d="M34.4745,28.5c-3.7479-7.2,2.42-8.011,2.6043-6.2a10.73,10.73,0,0,0,5.5544,8.2h1.1577s1.6978.894,1.6978,6.176-1,6.024-1,6.024-2.8988.3707-3.9956-.1953c-1.4826,1.1682-10.611.9953-10.611.9953a1.507,1.507,0,1,1,0-3H28.3147c-2.3875,0-2.328-4-.334-4H27.112a2.045,2.045,0,0,1-2.0359-2.042h0A1.9551,1.9551,0,0,1,27.0213,32.5h-9.5a2.043,2.043,0,0,1-2.033-2.039h0A1.9581,1.9581,0,0,1,17.4439,28.5H34.4745Z" stroke="#464646" stroke-miterlimit="10" fill="url(#New_Gradient_Swatch_4)"/>
    <line x1="25.996" y1="32.5" x2="30.9942" y2="32.5" stroke="#464646" stroke-miterlimit="10" fill="url(#New_Gradient_Swatch_4-2)"/>
    <line x1="27.9953" y1="36.5" x2="30.9942" y2="36.5" stroke="#464646" stroke-miterlimit="10" fill="url(#New_Gradient_Swatch_4-3)"/>
  <line x1="47.25" y1="21.75" x2="21.75" y2="47.25" fill="none" stroke="#464646" stroke-linecap="round" stroke-miterlimit="10" stroke-width="1.25"/>
</svg>
