<svg version="1.1" id="Layer_1" xmlns="http://www.w3.org/2000/svg" xmlns:xlink="http://www.w3.org/1999/xlink" x="0px" y="0px"
	 viewBox="0 0 48 48" enable-background="new 0 0 48 48" xml:space="preserve">
	<polygon fill="#8CC3D2" points="24.015,24 1.985,46.03 1.985,1.97 	"/>
	<path fill="#464646" d="M1.485,46.514V1.492L2.212,1.49L24.722,24L2.208,46.514L1.485,46.514z M2.485,3.177v41.646
		L23.308,24L2.485,3.177z"/>
	<polygon fill="#BEBEBE" points="23.985,24 46.015,46.03 46.015,1.97 	"/>
	<path fill="#464646" d="M45.788,46.509L23.278,24L45.793,1.485l0.719-0.001l0.003,45.035L45.788,46.509z M24.692,24
		l20.823,20.822V3.177L24.692,24z"/>
	<polygon fill="#3C91AF" points="24,24.015 1.97,1.985 46.03,1.985 	"/>
	<path fill="#464646" d="M24,24.722L1.483,2.204l0.001-0.718h44.321h0.707l0,0.724L24,24.722z M3.177,2.485L24,23.308
		L44.823,2.485H3.177z"/>
	<polygon fill="#828282" points="24,23.985 1.97,46.015 46.03,46.015 	"/>
	<path fill="#464646" d="M46.513,46.515H1.484l0.005-0.726L24,23.278l22.515,22.516L46.513,46.515z M3.177,45.515h41.646
		L24,24.692L3.177,45.515z"/>
	<rect x="19.985" y="19.985" fill="#F0F0F0" width="8" height="8"/>
	<path fill="#464646" d="M28.485,28.485h-9v-9h9V28.485z M20.485,27.485h7v-7h-7V27.485z"/>
</svg>
