<svg id="Layer_1" data-name="Layer 1" xmlns="http://www.w3.org/2000/svg" xmlns:xlink="http://www.w3.org/1999/xlink" viewBox="0 0 48 48">
    <linearGradient id="linear-gradient" x1="3.75" y1="41.75" x2="45.25" y2="0.25" gradientTransform="matrix(1, 0, 0, -1, 0, 48)" gradientUnits="userSpaceOnUse">
      <stop offset="0" stop-color="#fff"/>
      <stop offset="0.2323" stop-color="#fafafa"/>
      <stop offset="0.4964" stop-color="#ededed"/>
      <stop offset="0.775" stop-color="#d6d6d6"/>
      <stop offset="1" stop-color="#bebebe"/>
    </linearGradient>
    <linearGradient id="paper_gradient" data-name="paper gradient" x1="20.1036" y1="11.8931" x2="39.6035" y2="31.3931" gradientUnits="userSpaceOnUse">
      <stop offset="0" stop-color="#fff"/>
      <stop offset="0.2214" stop-color="#f8f8f8"/>
      <stop offset="0.5415" stop-color="#e5e5e5"/>
      <stop offset="0.92" stop-color="#c6c6c6"/>
      <stop offset="1" stop-color="#bebebe"/>
    </linearGradient>
    <linearGradient id="paper_gradient-2" x1="22.25" y1="15.7466" x2="37.75" y2="31.2466" xlink:href="#paper_gradient"/>
    <linearGradient id="paper_gradient-3" x1="15.5429" y1="8.0395" x2="34.75" y2="27.2466" xlink:href="#paper_gradient"/>
    <linearGradient id="paper_gradient-4" x1="17.25" y1="11.7466" x2="32.75" y2="27.2466" xlink:href="#paper_gradient"/>
    <linearGradient id="paper_gradient-5" x1="30.5" y1="44.5" x2="42.5" y2="32.5" gradientTransform="matrix(1, 0, 0, -1, 0, 48)" xlink:href="#paper_gradient"/>
  <polygon points="33.5 0.5 9.5 0.5 9.5 47.5 45.5 47.5 45.5 12.5 33.5 0.5" stroke="#464646" stroke-miterlimit="10" fill="url(#linear-gradient)"/>
    <path d="M39.5,31.4966h-19v-20h18a1,1,0,0,1,1,1Z" stroke="#6e6e6e" fill="url(#paper_gradient)"/>
    <rect x="22.5" y="15.4966" width="15" height="16" stroke="#6e6e6e" fill="url(#paper_gradient-2)"/>
    <path d="M34.5,27.4966h-19v-19a1,1,0,0,1,1-1h18Z" stroke="#6e6e6e" fill="url(#paper_gradient-3)"/>
    <rect x="17.5" y="11.4966" width="15" height="16" stroke="#6e6e6e" fill="url(#paper_gradient-4)"/>
  <rect x="0.5" y="18.5" width="47" height="25" fill="#f4b400" stroke="#464646" stroke-miterlimit="10"/>
    <path d="M9.9717,29.3691a5.2274,5.2274,0,0,1-2.68.6607,4.1515,4.1515,0,0,1-2.0171-.478,3.2853,3.2853,0,0,1-1.3506-1.3589,4.5735,4.5735,0,0,1,.0537-4.1548A3.6887,3.6887,0,0,1,5.4492,22.583a4.35,4.35,0,0,1,2.127-.5185,6.6694,6.6694,0,0,1,1.2085.1127,4.0573,4.0573,0,0,1,.956.274v1.3159a3.3381,3.3381,0,0,0-.9507-.4214,4.5767,4.5767,0,0,0-1.289-.1694,2.6837,2.6837,0,0,0-1.3828.3628,2.4931,2.4931,0,0,0-.9668,1.0229,3.2069,3.2069,0,0,0-.3467,1.5147,2.9818,2.9818,0,0,0,.6875,2.0864,2.4352,2.4352,0,0,0,1.896.7549,2.8232,2.8232,0,0,0,1.3-.29V26.8071H7.0928v-1.101H9.9717Z" fill="#fff"/>
    <path d="M16.7983,27.0918a2.9461,2.9461,0,0,1-.7734,2.1377,2.784,2.784,0,0,1-2.1.8,2.7275,2.7275,0,0,1-2.0273-.76,2.7915,2.7915,0,0,1-.7549-2.0595,2.9526,2.9526,0,0,1,.7734-2.1592,2.8624,2.8624,0,0,1,2.1431-.79,2.662,2.662,0,0,1,2.0141.7544A2.8729,2.8729,0,0,1,16.7983,27.0918Zm-1.289.043a2.0735,2.0735,0,0,0-.4058-1.3858,1.3905,1.3905,0,0,0-1.1142-.4726,1.411,1.411,0,0,0-1.1441.4941,2.1158,2.1158,0,0,0-.4136,1.3965,2.0364,2.0364,0,0,0,.4136,1.3613A1.4342,1.4342,0,0,0,14,29.0146a1.3561,1.3561,0,0,0,1.1279-.478A2.2094,2.2094,0,0,0,15.5093,27.1348Z" fill="#fff"/>
    <path d="M23.335,27.0918a2.9462,2.9462,0,0,1-.7735,2.1377,2.784,2.784,0,0,1-2.1.8,2.7275,2.7275,0,0,1-2.0273-.76,2.7919,2.7919,0,0,1-.7549-2.0595,2.9526,2.9526,0,0,1,.7734-2.1592,2.8626,2.8626,0,0,1,2.1431-.79,2.6622,2.6622,0,0,1,2.0142.7544A2.8729,2.8729,0,0,1,23.335,27.0918Zm-1.2891.043A2.0735,2.0735,0,0,0,21.64,25.749a1.3905,1.3905,0,0,0-1.1142-.4726,1.4112,1.4112,0,0,0-1.1441.4941,2.1163,2.1163,0,0,0-.4135,1.3965,2.0369,2.0369,0,0,0,.4135,1.3613,1.4342,1.4342,0,0,0,1.1548.4863,1.3563,1.3563,0,0,0,1.128-.478A2.21,2.21,0,0,0,22.0459,27.1348Z" fill="#fff"/>
    <path d="M29.5605,29.38a2.8,2.8,0,0,1-3.1,3.0991,5.2521,5.2521,0,0,1-1.0068-.0991,3.2391,3.2391,0,0,1-.8086-.25V30.9644a4.3741,4.3741,0,0,0,.9531.4057,3.2778,3.2778,0,0,0,.8409.11,1.8714,1.8714,0,0,0,1.3935-.4917,1.9505,1.9505,0,0,0,.4863-1.4312v-.5317h-.0214a2.2174,2.2174,0,0,1-.7168.7383,2.025,2.025,0,0,1-1.0879.2661,2.0549,2.0549,0,0,1-1.6543-.7388,2.9324,2.9324,0,0,1-.6231-1.9575,3.4311,3.4311,0,0,1,.68-2.2451,2.2547,2.2547,0,0,1,1.8389-.8272,1.723,1.723,0,0,1,1.5635.8164h.0214v-.6821h1.2412Zm-1.23-2.6856a1.4172,1.4172,0,0,0-.3867-1.0044,1.2559,1.2559,0,0,0-.9561-.4135,1.2916,1.2916,0,0,0-1.0957.5127,2.4467,2.4467,0,0,0-.3867,1.4907,1.9568,1.9568,0,0,0,.3789,1.2651,1.2276,1.2276,0,0,0,1.0068.47,1.2948,1.2948,0,0,0,1.0371-.478A1.84,1.84,0,0,0,28.33,27.312Z" fill="#fff"/>
    <path d="M31.2568,29.8955V21.7529H32.498v8.1426Z" fill="#fff"/>
    <path d="M35.0488,27.5107a1.6092,1.6092,0,0,0,.4571,1.1441,1.6884,1.6884,0,0,0,1.1972.3921,2.7441,2.7441,0,0,0,.8975-.1475,2.9155,2.9155,0,0,0,.7519-.3789v1.0474a2.723,2.723,0,0,1-.8379.333,4.661,4.661,0,0,1-1.1123.1289,2.4965,2.4965,0,0,1-1.9384-.75,2.9635,2.9635,0,0,1-.6875-2.0811,3.3125,3.3125,0,0,1,.3408-1.5415,2.546,2.546,0,0,1,.9453-1.0288,2.51,2.51,0,0,1,1.33-.3677,2.264,2.264,0,0,1,1.77.6983,2.7775,2.7775,0,0,1,.6309,1.9336v.6176Zm2.5088-.9345a1.4612,1.4612,0,0,0-.3056-.9991,1.0939,1.0939,0,0,0-.8594-.3437,1.1947,1.1947,0,0,0-.876.373,1.7286,1.7286,0,0,0-.4678.97Z" fill="#fff"/>
    <path d="M8.1831,37.06a1.9228,1.9228,0,0,1-.7251,1.5922,3.1706,3.1706,0,0,1-2.0249.5777,4.1733,4.1733,0,0,1-1.0312-.14,2.7226,2.7226,0,0,1-.8057-.3115V37.3823a2.8086,2.8086,0,0,0,.8916.5371,2.9164,2.9164,0,0,0,1.085.22,1.4845,1.4845,0,0,0,.9155-.2441.8411.8411,0,0,0,.32-.7119,1.045,1.045,0,0,0-.3169-.7358,5.0509,5.0509,0,0,0-1.2031-.8057,4.0907,4.0907,0,0,1-1.2944-.98,1.9157,1.9157,0,0,1-.4244-1.2436A1.9765,1.9765,0,0,1,3.8916,32.31a2.14,2.14,0,0,1,.9238-.7686A3.2349,3.2349,0,0,1,6.18,31.2646a5.0038,5.0038,0,0,1,.9829.0967A3.0094,3.0094,0,0,1,7.85,31.56v1.3427a2.3,2.3,0,0,0-.7544-.4A2.8773,2.8773,0,0,0,6.19,32.355a1.44,1.44,0,0,0-.916.2685.8486.8486,0,0,0-.3408.6983,1.0952,1.0952,0,0,0,.1128.5156,1.3211,1.3211,0,0,0,.3545.4082,6.1187,6.1187,0,0,0,.8755.5264A4.7719,4.7719,0,0,1,7.74,35.8379,1.8632,1.8632,0,0,1,8.1831,37.06Z" fill="#fff"/>
    <path d="M9.4561,39.0957V30.9531h1.2407v8.1426Z" fill="#fff"/>
    <path d="M13.78,31.6514a.6633.6633,0,0,1-.2227.51.7705.7705,0,0,1-.54.2041.76.76,0,0,1-.5371-.2041.6662.6662,0,0,1-.22-.51.685.685,0,0,1,.2231-.521.7522.7522,0,0,1,.5342-.21.744.744,0,0,1,.5449.2148A.697.697,0,0,1,13.78,31.6514Zm-1.3965,7.4443v-5.5H13.624v5.5Z" fill="#fff"/>
    <path d="M19.0059,39.0957v-.8594h-.0215A1.9584,1.9584,0,0,1,17.18,39.23a2.0489,2.0489,0,0,1-1.66-.7412,3.0416,3.0416,0,0,1-.6177-2.0088,3.3259,3.3259,0,0,1,.6846-2.1939,2.2636,2.2636,0,0,1,1.8345-.8247,1.973,1.973,0,0,1,.9238.21,1.5786,1.5786,0,0,1,.6392.6069h.0215V30.9531h1.2407v8.1426Zm.0107-3.2119a1.3984,1.3984,0,0,0-.39-.9937,1.37,1.37,0,0,0-2.0518.1021,2.3889,2.3889,0,0,0-.3838,1.45,2.02,2.02,0,0,0,.3789,1.3027,1.25,1.25,0,0,0,1.0283.47,1.2782,1.2782,0,0,0,1.01-.4755,1.8329,1.8329,0,0,0,.4082-1.2378Z" fill="#fff"/>
    <path d="M22.8086,36.7109a1.6068,1.6068,0,0,0,.4565,1.1441,1.689,1.689,0,0,0,1.1978.3921,2.743,2.743,0,0,0,.8965-.1475,2.9,2.9,0,0,0,.7519-.3789v1.0474a2.7024,2.7024,0,0,1-.8379.333,4.6563,4.6563,0,0,1-1.1113.1289,2.4977,2.4977,0,0,1-1.939-.7495,2.9612,2.9612,0,0,1-.6875-2.0811,3.3187,3.3187,0,0,1,.3409-1.5415,2.5454,2.5454,0,0,1,.9453-1.0288,2.5109,2.5109,0,0,1,1.33-.3677,2.2676,2.2676,0,0,1,1.7705.6983,2.7822,2.7822,0,0,1,.6308,1.9336v.6176Zm2.5078-.9345a1.456,1.456,0,0,0-.3057-.9991,1.0916,1.0916,0,0,0-.8593-.3437,1.1941,1.1941,0,0,0-.8755.373,1.7275,1.7275,0,0,0-.4673.97Z" fill="#fff"/>
    <path d="M31.0156,37.522a1.5045,1.5045,0,0,1-.5908,1.2378,2.5011,2.5011,0,0,1-1.6006.47,3.7273,3.7273,0,0,1-.7441-.086,3.2373,3.2373,0,0,1-.6953-.2148v-1.187a2.756,2.756,0,0,0,.7519.3813,2.3883,2.3883,0,0,0,.7363.1343q.8907,0,.8907-.5908a.5779.5779,0,0,0-.0879-.3359.9585.9585,0,0,0-.3067-.252,5.8664,5.8664,0,0,0-.6738-.3145,3.401,3.401,0,0,1-.7978-.4458,1.341,1.341,0,0,1-.3868-.5048,1.689,1.689,0,0,1-.1259-.6768,1.4754,1.4754,0,0,1,.5859-1.2085,2.35,2.35,0,0,1,1.5137-.4673,3.6186,3.6186,0,0,1,.6474.0669,2.8409,2.8409,0,0,1,.5889.1641v1.1225a2.2012,2.2012,0,0,0-.5967-.2768,2.3477,2.3477,0,0,0-.6826-.1045.9351.9351,0,0,0-.585.1665.5135.5135,0,0,0-.2148.4243.6048.6048,0,0,0,.1689.4541,2.879,2.879,0,0,0,.7979.416,2.7408,2.7408,0,0,1,1.0908.6929A1.4153,1.4153,0,0,1,31.0156,37.522Z" fill="#fff"/>
  <polygon points="33.5 0.5 33.5 12.5 45.5 12.5 33.5 0.5" stroke="#464646" stroke-linejoin="round" fill="url(#paper_gradient-5)"/>
</svg>
