<svg id="Layer_1" data-name="Layer 1" xmlns="http://www.w3.org/2000/svg" xmlns:xlink="http://www.w3.org/1999/xlink" viewBox="0 0 48 48">
    <linearGradient id="linear-gradient" x1="-0.25" y1="41.75" x2="41.25" y2="0.25" gradientTransform="matrix(1, 0, 0, -1, 0, 48)" gradientUnits="userSpaceOnUse">
      <stop offset="0" stop-color="#fff"/>
      <stop offset="0.232" stop-color="#fafafa"/>
      <stop offset="0.496" stop-color="#ededed"/>
      <stop offset="0.775" stop-color="#d6d6d6"/>
      <stop offset="1" stop-color="#bebebe"/>
    </linearGradient>
    <linearGradient id="Dark_Blue_Grad" data-name="Dark Blue Grad" x1="18.25" y1="25.75" x2="23.75" y2="31.25" gradientUnits="userSpaceOnUse">
      <stop offset="0" stop-color="#73b4c8"/>
      <stop offset="0.175" stop-color="#6aaec3"/>
      <stop offset="0.457" stop-color="#529eb5"/>
      <stop offset="0.809" stop-color="#2c839f"/>
      <stop offset="1" stop-color="#147391"/>
    </linearGradient>
  <polygon points="29.5 0.5 5.5 0.5 5.5 47.5 41.5 47.5 41.5 12.5 29.5 0.5" stroke="#464646" stroke-miterlimit="10" fill="url(#linear-gradient)"/>
  <line x1="11" y1="28.5" x2="18.5" y2="28.5" fill="none" stroke="#147391" stroke-miterlimit="10"/>
  <line x1="35.001" y1="28.5" x2="27.5" y2="28.5" fill="none" stroke="#147391" stroke-miterlimit="10"/>
  <polygon points="26.5 28.5 18.5 31.5 18.5 25.5 26.5 28.5" stroke="#147391" stroke-linejoin="round" fill="url(#Dark_Blue_Grad)"/>
  <line x1="27.5" y1="24" x2="27.5" y2="33" fill="none" stroke="#147391" stroke-miterlimit="10"/>
  <polyline points="8.5 18 8.5 16.5 10 16.5" fill="none" stroke="#147391" stroke-miterlimit="10"/>
  <polyline points="36 16.5 37.5 16.5 37.5 18" fill="none" stroke="#147391" stroke-miterlimit="10"/>
  <polyline points="37.5 40 37.5 41.5 36 41.5" fill="none" stroke="#147391" stroke-miterlimit="10"/>
  <polyline points="10 41.5 8.5 41.5 8.5 40" fill="none" stroke="#147391" stroke-miterlimit="10"/>
  <line x1="34" y1="41.5" x2="32" y2="41.5" fill="none" stroke="#147391" stroke-miterlimit="10"/>
  <line x1="30.001" y1="41.5" x2="28.001" y2="41.5" fill="none" stroke="#147391" stroke-miterlimit="10"/>
  <line x1="26.001" y1="41.5" x2="24.001" y2="41.5" fill="none" stroke="#147391" stroke-miterlimit="10"/>
  <line x1="22" y1="41.5" x2="20" y2="41.5" fill="none" stroke="#147391" stroke-miterlimit="10"/>
  <line x1="18" y1="41.5" x2="16" y2="41.5" fill="none" stroke="#147391" stroke-miterlimit="10"/>
  <line x1="14" y1="41.5" x2="12" y2="41.5" fill="none" stroke="#147391" stroke-miterlimit="10"/>
  <line x1="34" y1="16.5" x2="32" y2="16.5" fill="none" stroke="#147391" stroke-miterlimit="10"/>
  <line x1="30.001" y1="16.5" x2="28.001" y2="16.5" fill="none" stroke="#147391" stroke-miterlimit="10"/>
  <line x1="26.001" y1="16.5" x2="24.001" y2="16.5" fill="none" stroke="#147391" stroke-miterlimit="10"/>
  <line x1="22" y1="16.5" x2="20" y2="16.5" fill="none" stroke="#147391" stroke-miterlimit="10"/>
  <line x1="18" y1="16.5" x2="16" y2="16.5" fill="none" stroke="#147391" stroke-miterlimit="10"/>
  <line x1="14" y1="16.5" x2="12" y2="16.5" fill="none" stroke="#147391" stroke-miterlimit="10"/>
  <line x1="8.5" y1="24" x2="8.5" y2="26" fill="none" stroke="#147391" stroke-miterlimit="10"/>
  <line x1="8.5" y1="28" x2="8.5" y2="30" fill="none" stroke="#147391" stroke-miterlimit="10"/>
  <line x1="8.5" y1="32" x2="8.5" y2="34" fill="none" stroke="#147391" stroke-miterlimit="10"/>
  <line x1="8.5" y1="36" x2="8.5" y2="38" fill="none" stroke="#147391" stroke-miterlimit="10"/>
  <line x1="37.5" y1="24" x2="37.5" y2="26" fill="none" stroke="#147391" stroke-miterlimit="10"/>
  <line x1="8.5" y1="20" x2="8.5" y2="22" fill="none" stroke="#147391" stroke-miterlimit="10"/>
  <line x1="37.5" y1="20" x2="37.5" y2="22" fill="none" stroke="#147391" stroke-miterlimit="10"/>
  <line x1="37.5" y1="28" x2="37.5" y2="30" fill="none" stroke="#147391" stroke-miterlimit="10"/>
  <line x1="37.5" y1="32" x2="37.5" y2="34" fill="none" stroke="#147391" stroke-miterlimit="10"/>
  <line x1="37.5" y1="36" x2="37.5" y2="38" fill="none" stroke="#147391" stroke-miterlimit="10"/>
</svg>
