<svg id="Layer_1" data-name="Layer 1" xmlns="http://www.w3.org/2000/svg" xmlns:xlink="http://www.w3.org/1999/xlink" viewBox="0 0 48 48">
  <defs>
    <linearGradient id="linear-gradient" x1="0.5" y1="47.5" x2="47.5" y2="0.5" gradientTransform="matrix(1, 0, 0, -1, 0, 48)" gradientUnits="userSpaceOnUse">
      <stop offset="0" stop-color="#fff"/>
      <stop offset="0.2323" stop-color="#fafafa"/>
      <stop offset="0.4964" stop-color="#ededed"/>
      <stop offset="0.775" stop-color="#d6d6d6"/>
      <stop offset="1" stop-color="#bebebe"/>
    </linearGradient>
    <linearGradient id="linear-gradient-2" x1="29.9999" y1="29.3948" x2="37.0001" y2="36.395" gradientUnits="userSpaceOnUse">
      <stop offset="0" stop-color="#afd7e1"/>
      <stop offset="0.1588" stop-color="#a4d0dc"/>
      <stop offset="0.7059" stop-color="#80bcce"/>
      <stop offset="1" stop-color="#73b4c8"/>
    </linearGradient>
    <linearGradient id="linear-gradient-3" x1="25.2237" y1="34.171" x2="34.7763" y2="43.7237" xlink:href="#linear-gradient-2"/>
    <linearGradient id="paper_gradient" data-name="paper gradient" x1="10.9999" y1="4.5479" x2="18.0001" y2="11.5482" gradientUnits="userSpaceOnUse">
      <stop offset="0" stop-color="#fff"/>
      <stop offset="0.2214" stop-color="#f8f8f8"/>
      <stop offset="0.5415" stop-color="#e5e5e5"/>
      <stop offset="0.92" stop-color="#c6c6c6"/>
      <stop offset="1" stop-color="#bebebe"/>
    </linearGradient>
    <linearGradient id="front_-45" data-name="front -45" x1="6.2237" y1="9.3242" x2="15.7763" y2="18.8768" gradientUnits="userSpaceOnUse">
      <stop offset="0" stop-color="#f2f2f2"/>
      <stop offset="0.5" stop-color="#ccc"/>
      <stop offset="0.6296" stop-color="#c7c7c7"/>
      <stop offset="0.7792" stop-color="#b9b9b9"/>
      <stop offset="0.9383" stop-color="#a2a2a2"/>
      <stop offset="0.99" stop-color="#999"/>
    </linearGradient>
    <linearGradient id="linear-gradient-4" x1="14.5" y1="16.1246" x2="14.5" y2="16.1246" xlink:href="#linear-gradient-2"/>
    <linearGradient id="paper_gradient-2" x1="29.9999" y1="16.5479" x2="37.0001" y2="23.5482" xlink:href="#paper_gradient"/>
    <linearGradient id="front_-45-2" x1="25.2237" y1="21.3242" x2="34.7763" y2="30.8768" xlink:href="#front_-45"/>
    <linearGradient id="linear-gradient-5" x1="33.5" y1="28.1246" x2="33.5" y2="28.1246" xlink:href="#linear-gradient-2"/>
  </defs>
  <rect x="0.5" y="0.5" width="47" height="47" stroke="#464646" stroke-miterlimit="10" fill="url(#linear-gradient)"/>
  <polyline points="14.5 19 14.5 37.5 31.5 37.5" fill="none" stroke="#6e6e6e" stroke-linejoin="round"/>
    <polygon points="33.5 36.943 40.5 32.895 40.5 40.952 33.5 45 33.5 36.943" fill="#3c91af"/>
    <polygon points="26.5 32.895 33.488 28.847 40.5 32.895 33.5 36.943 26.5 32.895" fill="url(#linear-gradient-2)"/>
    <polygon points="33.5 36.943 33.5 45 26.5 40.952 26.5 32.895 33.5 36.943" fill="url(#linear-gradient-3)"/>
    <line x1="33.5" y1="36.9429" x2="33.5" y2="45" fill="none" stroke="#147391" stroke-linejoin="round"/>
    <polyline points="40.5 32.895 33.5 36.943 26.5 32.895" fill="none" stroke="#147391" stroke-linejoin="round"/>
    <polygon points="33.488 28.847 26.5 32.895 26.5 40.952 33.5 45 40.5 40.952 40.5 32.895 33.488 28.847" fill="none" stroke="#147391" stroke-linejoin="round"/>
  <line x1="15" y1="24.5" x2="31.5" y2="24.5" fill="none" stroke="#6e6e6e" stroke-linejoin="round"/>
    <polygon points="14.5 12.096 21.5 8.048 21.5 16.105 14.5 20.153 14.5 12.096" fill="#888"/>
    <polygon points="7.5 8.048 14.488 4 21.5 8.048 14.5 12.096 7.5 8.048" fill="url(#paper_gradient)"/>
    <polygon points="14.5 12.096 14.5 20.153 7.5 16.105 7.5 8.048 14.5 12.096" fill="url(#front_-45)"/>
    <line x1="14.5" y1="12.0961" x2="14.5" y2="20.1532" stroke="#6e6e6e" stroke-linejoin="round" fill="url(#linear-gradient-4)"/>
    <polyline points="21.5 8.048 14.5 12.096 7.5 8.048" fill="none" stroke="#6e6e6e" stroke-linejoin="round"/>
    <polygon points="14.488 4 7.5 8.048 7.5 16.105 14.5 20.153 21.5 16.105 21.5 8.048 14.488 4" fill="none" stroke="#6e6e6e" stroke-linejoin="round"/>
    <polygon points="33.5 24.096 40.5 20.048 40.5 28.105 33.5 32.153 33.5 24.096" fill="#888"/>
    <polygon points="26.5 20.048 33.488 16 40.5 20.048 33.5 24.096 26.5 20.048" fill="url(#paper_gradient-2)"/>
    <polygon points="33.5 24.096 33.5 32.153 26.5 28.105 26.5 20.048 33.5 24.096" fill="url(#front_-45-2)"/>
    <line x1="33.5" y1="24.0961" x2="33.5" y2="32.1532" stroke="#6e6e6e" stroke-linejoin="round" fill="url(#linear-gradient-5)"/>
    <polyline points="40.5 20.048 33.5 24.096 26.5 20.048" fill="none" stroke="#6e6e6e" stroke-linejoin="round"/>
    <polygon points="33.488 16 26.5 20.048 26.5 28.105 33.5 32.153 40.5 28.105 40.5 20.048 33.488 16" fill="none" stroke="#6e6e6e" stroke-linejoin="round"/>
</svg>
