<svg id="Layer_1" data-name="Layer 1" xmlns="http://www.w3.org/2000/svg" xmlns:xlink="http://www.w3.org/1999/xlink" viewBox="0 0 48 48">
    <linearGradient id="linear-gradient" x1="3.75" y1="-1770.25" x2="45.25" y2="-1811.75" gradientTransform="matrix(1, 0, 0, -1, 0, -1764)" gradientUnits="userSpaceOnUse">
      <stop offset="0" stop-color="#fff"/>
      <stop offset="0.2323" stop-color="#fafafa"/>
      <stop offset="0.4964" stop-color="#ededed"/>
      <stop offset="0.775" stop-color="#d6d6d6"/>
      <stop offset="1" stop-color="#bebebe"/>
    </linearGradient>
    <linearGradient id="paper_gradient" data-name="paper gradient" x1="30.5" y1="-1767.5" x2="42.5" y2="-1779.5" gradientTransform="matrix(1, 0, 0, -1, 0, -1764)" gradientUnits="userSpaceOnUse">
      <stop offset="0" stop-color="#fff"/>
      <stop offset="0.2214" stop-color="#f8f8f8"/>
      <stop offset="0.5415" stop-color="#e5e5e5"/>
      <stop offset="0.92" stop-color="#c6c6c6"/>
      <stop offset="1" stop-color="#bebebe"/>
    </linearGradient>
  <polygon points="33.5 0.5 9.5 0.5 9.5 47.5 45.5 47.5 45.5 12.5 33.5 0.5" stroke="#464646" stroke-miterlimit="10" fill="url(#linear-gradient)"/>
  <polygon points="33.5 0.5 33.5 12.5 45.5 12.5 33.5 0.5" stroke="#464646" stroke-linejoin="round" fill="url(#paper_gradient)"/>
  <rect x="0.5" y="27.5" width="47" height="16" fill="#002a44" stroke="#464646" stroke-miterlimit="10"/>
    <path d="M5.7451,31.5342a.6654.6654,0,0,1-.2226.5107.7732.7732,0,0,1-.54.2041.7624.7624,0,0,1-.5371-.2041.668.668,0,0,1-.22-.5107.6846.6846,0,0,1,.2231-.52.7914.7914,0,0,1,1.0791.0049A.6979.6979,0,0,1,5.7451,31.5342ZM4.3486,38.9785v-5.5H5.5894v5.5Z" fill="#fff"/>
    <path d="M14.2583,38.9785V34.0752q0-.56.0645-1.6543h-.0215a4.8388,4.8388,0,0,1-.22.8594L11.75,38.9785h-.8325L8.57,33.334q-.0915-.2856-.22-.9131H8.3179q.016.145.0346.7568t.0191,1.0586v4.7422H7.1846V31.2764H9.0107l1.96,4.8662a6.671,6.671,0,0,1,.3491,1.0635h.0322l.4082-1.0743,2.0142-4.8554h1.751v7.7021Z" fill="#fff"/>
    <path d="M22.3691,36.1748a2.9453,2.9453,0,0,1-.7734,2.1377,2.7825,2.7825,0,0,1-2.1.8008,2.7278,2.7278,0,0,1-2.0273-.7608,2.79,2.79,0,0,1-.7549-2.0595,2.9527,2.9527,0,0,1,.7734-2.1592,2.8622,2.8622,0,0,1,2.1431-.7891,2.6617,2.6617,0,0,1,2.0141.7539A2.8737,2.8737,0,0,1,22.3691,36.1748Zm-1.289.043a2.0753,2.0753,0,0,0-.4058-1.3858,1.3921,1.3921,0,0,0-1.1142-.4726,1.4125,1.4125,0,0,0-1.1441.4941,2.1167,2.1167,0,0,0-.4136,1.3965,2.0346,2.0346,0,0,0,.4136,1.3613,1.4342,1.4342,0,0,0,1.1548.4864,1.3573,1.3573,0,0,0,1.1279-.4776A2.2109,2.2109,0,0,0,21.08,36.2178Z" fill="#fff"/>
    <path d="M27.1328,38.9785v-.8594h-.0215a1.9548,1.9548,0,0,1-1.8047.9942,2.0484,2.0484,0,0,1-1.6591-.7412,3.042,3.042,0,0,1-.6177-2.0088,3.3279,3.3279,0,0,1,.6846-2.1944,2.263,2.263,0,0,1,1.8344-.8242,1.97,1.97,0,0,1,.9239.209,1.561,1.561,0,0,1,.6386.6074h.0215V30.8359H28.375v8.1426Zm.0117-3.2119a1.3969,1.3969,0,0,0-.3906-.9932,1.3687,1.3687,0,0,0-2.0513.1016,2.39,2.39,0,0,0-.3838,1.45,2.0186,2.0186,0,0,0,.379,1.3027,1.2493,1.2493,0,0,0,1.0288.47,1.2805,1.2805,0,0,0,1.01-.4756,1.835,1.835,0,0,0,.4082-1.2373Z" fill="#fff"/>
    <path d="M30.7158,36.5938a1.61,1.61,0,0,0,.4571,1.1445A1.69,1.69,0,0,0,32.37,38.13a2.7314,2.7314,0,0,0,.8975-.1475,2.9,2.9,0,0,0,.7519-.3789v1.0479a2.7355,2.7355,0,0,1-.8379.333,4.661,4.661,0,0,1-1.1123.1289,2.4968,2.4968,0,0,1-1.9384-.75,2.9625,2.9625,0,0,1-.6875-2.0811,3.3118,3.3118,0,0,1,.3408-1.541,2.55,2.55,0,0,1,.9453-1.0293,2.51,2.51,0,0,1,1.33-.3672,2.2623,2.2623,0,0,1,1.7695.6983,2.7758,2.7758,0,0,1,.6309,1.9336v.6172Zm2.5088-.9346a1.4619,1.4619,0,0,0-.3057-.999,1.095,1.095,0,0,0-.8593-.3438,1.1963,1.1963,0,0,0-.876.3731,1.728,1.728,0,0,0-.4678.97Z" fill="#fff"/>
    <path d="M35.4268,38.9785V30.8359H36.668v8.1426Z" fill="#fff"/>
</svg>
