<svg id="Layer_1" data-name="Layer 1" xmlns="http://www.w3.org/2000/svg" xmlns:xlink="http://www.w3.org/1999/xlink" viewBox="0 0 48 48">
    <linearGradient id="Dark_Blue_Grad" data-name="Dark Blue Grad" x1="13.503" y1="24.001" x2="34.504" y2="24.001" gradientUnits="userSpaceOnUse">
      <stop offset="0" stop-color="#73b4c8"/>
      <stop offset="0.175" stop-color="#6aaec3"/>
      <stop offset="0.457" stop-color="#529eb5"/>
      <stop offset="0.809" stop-color="#2c839f"/>
      <stop offset="1" stop-color="#147391"/>
    </linearGradient>
    <path d="M24,43.5c-6.182,0-10.5-3.339-10.5-8.121v-.5h4.02v.5c0,2.761,3.359,4.018,6.48,4.018,3.633,0,6.48-1.449,6.48-3.3,0-1.712-2.446-2.478-6.475-3.536a40.514,40.514,0,0,1-4.7-1.45,11.113,11.113,0,0,1-2.126-1.039,7.028,7.028,0,0,1-3.447-4.361,6.247,6.247,0,0,1-.229-1.669v-.5h.008a7.441,7.441,0,0,1,4.066-5.967c-1.969-.937-4.074-2.544-4.074-5.7C13.5,7.6,17.919,4.5,24,4.5s10.5,3.415,10.5,8.12v.5H30.483v-.5c0-2.637-3.26-4.017-6.48-4.017-3.573,0-6.48,1.468-6.48,3.271,0,1.693,2.445,2.454,6.473,3.5,1.086.284,2.438.637,3.706,1.073a10.736,10.736,0,0,1,4.432,2.354,6.574,6.574,0,0,1,2.135,3.362,6.321,6.321,0,0,1,.236,1.7v.5H34.5a7.42,7.42,0,0,1-4.128,5.979c2,.944,4.137,2.564,4.137,5.751C34.5,40.388,30.088,43.5,24,43.5Zm0-23.44c-3.452,0-6.48,1.779-6.48,3.808a2.826,2.826,0,0,0,.181.983,3.853,3.853,0,0,0,1.555,1.7l.092.064a2.007,2.007,0,0,0,.229.124l.17.083c.247.127.451.232.68.33A9.644,9.644,0,0,0,24,27.822c3.452,0,6.48-1.766,6.48-3.779a2.68,2.68,0,0,0-.3-1.216,3.33,3.33,0,0,0-.641-.859l-.094-.1a9.375,9.375,0,0,0-2.99-1.5A9.938,9.938,0,0,0,24,20.061Z" fill="url(#Dark_Blue_Grad)"/>
    <path d="M24,5c5.795,0,10,3.205,10,7.62h-3.02C30.984,9.655,27.472,8.1,24,8.1c-3.914,0-6.98,1.657-6.98,3.772,0,2.053,2.587,2.877,6.846,3.989,1.188.31,2.451.643,3.67,1.062a10.277,10.277,0,0,1,4.256,2.25A6.063,6.063,0,0,1,33.783,22.3,5.794,5.794,0,0,1,34,23.869h-.011c0,.06.011.114.011.175,0,2.729-1.917,5.061-4.825,6.339C31.865,31.435,34,33.025,34,36.1c0,4-4.205,6.9-10,6.9-5.888,0-10-3.134-10-7.621h3.02c0,3.1,3.618,4.518,6.98,4.518,3.98,0,6.98-1.633,6.98-3.8,0-2.071-2.588-2.9-6.849-4.019a39.67,39.67,0,0,1-4.644-1.431,10.617,10.617,0,0,1-2.044-1,6.611,6.611,0,0,1-3.23-4.062A5.748,5.748,0,0,1,14,24.043h.011c0-.06-.011-.114-.011-.175,0-2.716,1.883-5.04,4.748-6.33C16.1,16.491,14,14.909,14,11.875,14,7.892,18.209,5,24,5m0,23.321c3.784,0,6.98-1.96,6.98-4.279a3.172,3.172,0,0,0-.355-1.437,3.864,3.864,0,0,0-.74-1c-.049-.045-.08-.1-.131-.142-.017-.015-.04-.027-.057-.043a10.015,10.015,0,0,0-3.082-1.535A10.477,10.477,0,0,0,24,19.56c-3.784,0-6.98,1.973-6.98,4.308a3.333,3.333,0,0,0,.211,1.152,4.338,4.338,0,0,0,1.755,1.954c.049.03.085.064.135.093.121.074.264.132.394.2.23.118.458.237.717.347A10.145,10.145,0,0,0,24,28.322M24,4C17.63,4,13,7.313,13,11.875A6.463,6.463,0,0,0,16.57,17.62a7.794,7.794,0,0,0-3.517,5.423h-.039l-.006.565q0,.13,0,.26c0,.021,0,.042,0,.062v.113a6.768,6.768,0,0,0,.25,1.815,7.6,7.6,0,0,0,3.676,4.649,11.578,11.578,0,0,0,2.218,1.08,40.78,40.78,0,0,0,4.734,1.459c4.135,1.085,6.1,1.819,6.1,3.052,0,1.346-2.286,2.8-5.98,2.8-2.88,0-5.98-1.1-5.98-3.518v-1H13v1C13,40.456,17.527,44,24,44c6.374,0,11-3.323,11-7.9a6.51,6.51,0,0,0-3.618-5.793,7.77,7.77,0,0,0,3.568-5.438h.039L35,24.3q0-.129,0-.26c0-.021,0-.042,0-.062v-.113a6.815,6.815,0,0,0-.258-1.844,7.065,7.065,0,0,0-2.3-3.606,11.257,11.257,0,0,0-4.615-2.449c-1.282-.439-2.628-.79-3.712-1.073-4.132-1.079-6.1-1.806-6.1-3.021,0-1.311,2.456-2.772,5.98-2.772,2.9,0,5.98,1.233,5.98,3.517v1H35v-1C35,7.626,30.377,4,24,4Zm0,23.321a9.152,9.152,0,0,1-3.394-.635c-.2-.086-.4-.187-.593-.288-.094-.049-.158-.08-.221-.11s-.105-.048-.152-.077a1.5,1.5,0,0,0-.132-.091,3.339,3.339,0,0,1-1.348-1.472,2.29,2.29,0,0,1-.139-.781c0-1.562,2.558-3.308,5.98-3.308a9.461,9.461,0,0,1,2.328.289A8.91,8.91,0,0,1,29.065,22.2l.025.02a1.548,1.548,0,0,0,.119.125,2.824,2.824,0,0,1,.532.724,2.136,2.136,0,0,1,.242.977c0,1.548-2.558,3.279-5.98,3.279Z" fill="#464646"/>
</svg>
