<svg id="Layer_1" data-name="Layer 1" xmlns="http://www.w3.org/2000/svg" xmlns:xlink="http://www.w3.org/1999/xlink" viewBox="0 0 48 48">
    <linearGradient id="linear-gradient" x1="3.75" y1="41.75" x2="45.25" y2="0.25" gradientTransform="matrix(1, 0, 0, -1, 0, 48)" gradientUnits="userSpaceOnUse">
      <stop offset="0" stop-color="#fff"/>
      <stop offset="0.2323" stop-color="#fafafa"/>
      <stop offset="0.4964" stop-color="#ededed"/>
      <stop offset="0.775" stop-color="#d6d6d6"/>
      <stop offset="1" stop-color="#bebebe"/>
    </linearGradient>
    <linearGradient id="New_Gradient_Swatch_2" data-name="New Gradient Swatch 2" x1="17.2925" y1="4.3104" x2="22.7075" y2="13.6896" gradientUnits="userSpaceOnUse">
      <stop offset="0" stop-color="#fff"/>
      <stop offset="0.2284" stop-color="#fafafa"/>
      <stop offset="0.4881" stop-color="#ededed"/>
      <stop offset="0.7621" stop-color="#d7d6d6"/>
      <stop offset="1" stop-color="#bdbcbc"/>
    </linearGradient>
    <linearGradient id="New_Gradient_Swatch_2-2" x1="32.2925" y1="7.3104" x2="37.7075" y2="16.6896" xlink:href="#New_Gradient_Swatch_2"/>
    <linearGradient id="Dark_Blue_Grad" data-name="Dark Blue Grad" x1="28.5425" y1="9.4755" x2="31.4575" y2="14.5245" gradientUnits="userSpaceOnUse">
      <stop offset="0" stop-color="#73b4c8"/>
      <stop offset="0.1747" stop-color="#6aaec3"/>
      <stop offset="0.4567" stop-color="#529eb5"/>
      <stop offset="0.8089" stop-color="#2c839f"/>
      <stop offset="1" stop-color="#147391"/>
    </linearGradient>
    <linearGradient id="Dark_Blue_Grad-2" x1="13.5425" y1="6.4755" x2="16.4575" y2="11.5245" xlink:href="#Dark_Blue_Grad"/>
    <linearGradient id="New_Gradient_Swatch_2-3" x1="17.2925" y1="17.3104" x2="22.7075" y2="26.6896" xlink:href="#New_Gradient_Swatch_2"/>
    <linearGradient id="Dark_Blue_Grad-3" x1="13.5425" y1="19.4755" x2="16.4575" y2="24.5245" xlink:href="#Dark_Blue_Grad"/>
    <linearGradient id="paper_gradient" data-name="paper gradient" x1="30.5" y1="44.5" x2="42.5" y2="32.5" gradientTransform="matrix(1, 0, 0, -1, 0, 48)" gradientUnits="userSpaceOnUse">
      <stop offset="0" stop-color="#fff"/>
      <stop offset="0.2214" stop-color="#f8f8f8"/>
      <stop offset="0.5415" stop-color="#e5e5e5"/>
      <stop offset="0.92" stop-color="#c6c6c6"/>
      <stop offset="1" stop-color="#bebebe"/>
    </linearGradient>
  <polyline points="33.5 0.5 9.5 0.5 9.5 47.5 45.5 47.5 45.5 12.5" stroke="#464646" stroke-miterlimit="10" fill="url(#linear-gradient)"/>
  <polygon points="18.781 11.5 13.5 11.5 13.5 6.5 26.5 6.5 26.5 11.5 21.219 11.5 18.781 11.5" stroke="#147391" stroke-miterlimit="10" fill="url(#New_Gradient_Swatch_2)"/>
  <polyline points="35.5 15 35.5 16.5 19.5 16.5" fill="none" stroke="#147391" stroke-miterlimit="10"/>
  <line x1="19.5" y1="11" x2="19.5" y2="20" fill="none" stroke="#147391" stroke-miterlimit="10"/>
  <polygon points="34.35 14.5 28.5 14.5 28.5 9.5 41.5 9.5 41.5 14.5 35.65 14.5 34.35 14.5" stroke="#147391" stroke-miterlimit="10" fill="url(#New_Gradient_Swatch_2-2)"/>
  <rect x="28.5" y="9.5" width="3" height="5" stroke="#147391" stroke-miterlimit="10" fill="url(#Dark_Blue_Grad)"/>
  <rect x="13.5" y="6.5" width="3" height="5" stroke="#147391" stroke-miterlimit="10" fill="url(#Dark_Blue_Grad-2)"/>
  <polygon points="21.219 19.5 26.5 19.5 26.5 24.5 13.5 24.5 13.5 19.5 18.781 19.5 21.219 19.5" stroke="#147391" stroke-miterlimit="10" fill="url(#New_Gradient_Swatch_2-3)"/>
  <rect x="13.5" y="19.5" width="3" height="5" stroke="#147391" stroke-miterlimit="10" fill="url(#Dark_Blue_Grad-3)"/>
  <rect x="0.5" y="18.5" width="47" height="25" fill="#48bcc2" stroke="#464646" stroke-miterlimit="10"/>
    <path d="M9.9287,26.7051q0,3.3244-3.0776,3.3247a2.88,2.88,0,0,1-2.2154-.811,3.4241,3.4241,0,0,1-.7548-2.4117V22.1934H5.1646V26.78q0,2.1159,1.7724,2.1162a1.5654,1.5654,0,0,0,1.2915-.5127,2.3753,2.3753,0,0,0,.4165-1.523V22.1934H9.9287Z" fill="#fff"/>
    <path d="M18.8608,29.8955V24.9917q0-.5589.0645-1.6543h-.0215a4.82,4.82,0,0,1-.22.8594l-2.3311,5.6987H15.52l-2.3471-5.645q-.0916-.285-.22-.9131H12.92q.0162.1451.0347.7573t.019,1.0581v4.7427h-1.187V22.1934h1.8262l1.96,4.8662a6.6339,6.6339,0,0,1,.3492,1.0634h.0322l.4082-1.0742,2.0141-4.8554h1.751v7.7021Z" fill="#fff"/>
    <path d="M22.0728,29.8955V22.1934h1.2783v6.601h3.0141v1.1011Z" fill="#fff"/>
    <path d="M27.23,27.3765v-.9131H30.167v.9131Z" fill="#fff"/>
    <path d="M8.1831,37.06a1.9228,1.9228,0,0,1-.7251,1.5922,3.1706,3.1706,0,0,1-2.0249.5777,4.1733,4.1733,0,0,1-1.0312-.14,2.7226,2.7226,0,0,1-.8057-.3115V37.3823a2.8086,2.8086,0,0,0,.8916.5371,2.9164,2.9164,0,0,0,1.085.22,1.4845,1.4845,0,0,0,.9155-.2441.8411.8411,0,0,0,.32-.7119,1.045,1.045,0,0,0-.3169-.7358,5.0509,5.0509,0,0,0-1.2031-.8057,4.0907,4.0907,0,0,1-1.2944-.98,1.9157,1.9157,0,0,1-.4244-1.2436A1.9765,1.9765,0,0,1,3.8916,32.31a2.14,2.14,0,0,1,.9238-.7686A3.2349,3.2349,0,0,1,6.18,31.2646a5.0038,5.0038,0,0,1,.9829.0967A3.0094,3.0094,0,0,1,7.85,31.56v1.3427a2.3,2.3,0,0,0-.7544-.4A2.8773,2.8773,0,0,0,6.19,32.355a1.44,1.44,0,0,0-.916.2685.8486.8486,0,0,0-.3408.6983,1.0952,1.0952,0,0,0,.1128.5156,1.3211,1.3211,0,0,0,.3545.4082,6.1187,6.1187,0,0,0,.8755.5264A4.7719,4.7719,0,0,1,7.74,35.8379,1.8632,1.8632,0,0,1,8.1831,37.06Z" fill="#fff"/>
    <path d="M9.6548,41.6792a2.8414,2.8414,0,0,1-.7627-.0859V40.5352a1.4554,1.4554,0,0,0,.6069.1342,1.0142,1.0142,0,0,0,.9668-.7036l.376-.87-2.2022-5.5h1.3965l1.2891,3.8726a3.6942,3.6942,0,0,1,.1182.5263h.0214l.1343-.5263,1.3321-3.8726h1.2622l-2.3848,6.1606a3.5367,3.5367,0,0,1-.9131,1.461A1.8449,1.8449,0,0,1,9.6548,41.6792Z" fill="#fff"/>
    <path d="M18.356,37.522a1.5032,1.5032,0,0,1-.5909,1.2378,2.5008,2.5008,0,0,1-1.6005.47,3.7354,3.7354,0,0,1-.7442-.086,3.23,3.23,0,0,1-.6953-.2148v-1.187a2.7551,2.7551,0,0,0,.752.3813,2.3844,2.3844,0,0,0,.7358.1343q.8913,0,.8916-.5908a.5779.5779,0,0,0-.0884-.3359.958.958,0,0,0-.3066-.252,5.92,5.92,0,0,0-.6739-.3145,3.4116,3.4116,0,0,1-.7978-.4458,1.351,1.351,0,0,1-.3867-.5048,1.6873,1.6873,0,0,1-.126-.6768,1.4763,1.4763,0,0,1,.5854-1.2085,2.3536,2.3536,0,0,1,1.5147-.4673,3.619,3.619,0,0,1,.647.0669,2.8323,2.8323,0,0,1,.5883.1641v1.1225a2.1971,2.1971,0,0,0-.5961-.2768,2.3476,2.3476,0,0,0-.6822-.1045.9334.9334,0,0,0-.5854.1665.5146.5146,0,0,0-.2149.4243.6049.6049,0,0,0,.169.4541,2.878,2.878,0,0,0,.7978.416,2.7351,2.7351,0,0,1,1.09.6929A1.4135,1.4135,0,0,1,18.356,37.522Z" fill="#fff"/>
    <path d="M26.7617,39.0957V34.1919q0-.5589.0645-1.6543h-.0215a4.7693,4.7693,0,0,1-.2207.8594l-2.3306,5.6987h-.8325l-2.3472-5.645q-.0915-.285-.22-.9131h-.0322q.016.1451.0347.7573t.019,1.0581v4.7427H19.688V31.3936h1.8262l1.96,4.8662a6.6414,6.6414,0,0,1,.3491,1.0634h.0323l.4082-1.0742,2.0151-4.8554h1.75v7.7021Z" fill="#fff"/>
    <path d="M29.9736,39.0957V31.3936H31.252v6.601h3.0136v1.1011Z" fill="#fff"/>
  <polygon points="33.5 0.5 33.5 12.5 45.5 12.5 33.5 0.5" stroke="#464646" stroke-linejoin="round" fill="url(#paper_gradient)"/>
</svg>
