<svg version="1.1" id="Layer_1" xmlns="http://www.w3.org/2000/svg" xmlns:xlink="http://www.w3.org/1999/xlink" x="0px" y="0px"
	 viewBox="0 0 48 48" enable-background="new 0 0 48 48" xml:space="preserve">
	<linearGradient id="SVGID_1_" gradientUnits="userSpaceOnUse" x1="6.427" y1="7.3599" x2="32.5732" y2="33.5061">
		<stop  offset="0" style="stop-color:#FFFFFF"/>
		<stop  offset="0.2214" style="stop-color:#F8F8F8"/>
		<stop  offset="0.5415" style="stop-color:#E5E5E5"/>
		<stop  offset="0.92" style="stop-color:#C6C6C6"/>
		<stop  offset="1" style="stop-color:#BEBEBE"/>
	</linearGradient>
	<path fill="url(#SVGID_1_)" stroke="#464646" stroke-linecap="round" stroke-linejoin="round" stroke-miterlimit="10" d="
		M34.5,15.5c0,8.3-15,31.1-15,31.1s-15-22.8-15-31.1c0-8.3,6.7-15,15-15C27.8,0.5,34.5,7.2,34.5,15.5z"/>
<circle fill="#FFFFFF" stroke="#5A5A5A" stroke-linecap="round" stroke-linejoin="round" stroke-miterlimit="10" cx="19.5" cy="13.5" r="5"/>
<linearGradient id="SVGID_2_" gradientUnits="userSpaceOnUse" x1="29.375" y1="22.125" x2="49.625" y2="42.375">
	<stop  offset="0" style="stop-color:#73B4C8"/>
	<stop  offset="0.1747" style="stop-color:#6AAEC3"/>
	<stop  offset="0.4567" style="stop-color:#529EB5"/>
	<stop  offset="0.8089" style="stop-color:#2C839F"/>
	<stop  offset="1" style="stop-color:#147391"/>
</linearGradient>
<polygon fill="url(#SVGID_2_)" stroke="#464646" stroke-linecap="round" stroke-linejoin="round" stroke-miterlimit="10" points="
	44.5,47.5 29.5,47.5 29.5,22 44.5,12 "/>
<line fill="none" stroke="#147391" stroke-width="3" stroke-linejoin="round" stroke-miterlimit="10" x1="32" y1="31.5" x2="42" y2="31.5"/>
<line fill="none" stroke="#147391" stroke-width="3" stroke-linejoin="round" stroke-miterlimit="10" x1="32" y1="27.5" x2="42" y2="27.5"/>
<line fill="none" stroke="#147391" stroke-width="3" stroke-linejoin="round" stroke-miterlimit="10" x1="32" y1="23.5" x2="42" y2="23.5"/>
<line fill="none" stroke="#147391" stroke-width="3" stroke-linejoin="round" stroke-miterlimit="10" x1="32" y1="39.5" x2="42" y2="39.5"/>
<line fill="none" stroke="#147391" stroke-width="3" stroke-linejoin="round" stroke-miterlimit="10" x1="32" y1="35.5" x2="42" y2="35.5"/>
<line fill="none" stroke="#FFFFFF" stroke-linejoin="round" stroke-miterlimit="10" x1="33" y1="31.5" x2="41" y2="31.5"/>
<line fill="none" stroke="#FFFFFF" stroke-linejoin="round" stroke-miterlimit="10" x1="33" y1="27.5" x2="41" y2="27.5"/>
<line fill="none" stroke="#FFFFFF" stroke-linejoin="round" stroke-miterlimit="10" x1="33" y1="23.5" x2="41" y2="23.5"/>
<line fill="none" stroke="#FFFFFF" stroke-linejoin="round" stroke-miterlimit="10" x1="33" y1="39.5" x2="41" y2="39.5"/>
<line fill="none" stroke="#FFFFFF" stroke-linejoin="round" stroke-miterlimit="10" x1="33" y1="35.5" x2="41" y2="35.5"/>
<polyline fill="none" stroke="#147391" stroke-width="3" stroke-miterlimit="10" points="35.5,47 35.5,43.5 38.5,43.5 38.5,47 "/>
<polyline fill="none" stroke="#FFFFFF" stroke-miterlimit="10" points="35.5,47 35.5,43.5 38.5,43.5 38.5,47 "/>
</svg>