<svg id="Layer_1" data-name="Layer 1" xmlns="http://www.w3.org/2000/svg" xmlns:xlink="http://www.w3.org/1999/xlink" viewBox="0 0 48 48">
    <linearGradient id="paper_gradient" data-name="paper gradient" x1="-1" y1="2" x2="40" y2="43" gradientUnits="userSpaceOnUse">
      <stop offset="0" stop-color="#fff"/>
      <stop offset="0.2214" stop-color="#f8f8f8"/>
      <stop offset="0.5415" stop-color="#e5e5e5"/>
      <stop offset="0.92" stop-color="#c6c6c6"/>
      <stop offset="1" stop-color="#bebebe"/>
    </linearGradient>
    <linearGradient id="Light_Blue_Grad" data-name="Light Blue Grad" x1="17.375" y1="29.375" x2="23.625" y2="35.625" gradientUnits="userSpaceOnUse">
      <stop offset="0" stop-color="#afd7e1"/>
      <stop offset="1" stop-color="#73b4c8"/>
    </linearGradient>
    <linearGradient id="linear-gradient" x1="24.4747" y1="42.7424" x2="28.1339" y2="46.4017" gradientUnits="userSpaceOnUse">
      <stop offset="0" stop-color="#147391"/>
      <stop offset="0.1911" stop-color="#2c839f"/>
      <stop offset="0.5433" stop-color="#529eb5"/>
      <stop offset="0.8253" stop-color="#6aaec3"/>
      <stop offset="1" stop-color="#73b4c8"/>
    </linearGradient>
    <linearGradient id="Light_Blue_Grad-2" x1="36.7656" y1="47.5053" x2="36.7656" y2="20.5" xlink:href="#Light_Blue_Grad"/>
    <linearGradient id="linear-gradient-2" x1="38.25" y1="25.5" x2="38.25" y2="20.5" xlink:href="#linear-gradient"/>
    <linearGradient id="New_Gradient_Swatch_4" data-name="New Gradient Swatch 4" x1="3.5" y1="12.5137" x2="20.5" y2="12.5137" gradientUnits="userSpaceOnUse">
      <stop offset="0" stop-color="#afd7e1"/>
      <stop offset="0.1588" stop-color="#a4d0dc"/>
      <stop offset="0.7059" stop-color="#80bcce"/>
      <stop offset="1" stop-color="#73b4c8"/>
    </linearGradient>
    <linearGradient id="Dark_Blue_Grad" data-name="Dark Blue Grad" x1="6.5952" y1="10.9986" x2="17.4058" y2="10.9986" gradientUnits="userSpaceOnUse">
      <stop offset="0" stop-color="#73b4c8"/>
      <stop offset="0.1747" stop-color="#6aaec3"/>
      <stop offset="0.4567" stop-color="#529eb5"/>
      <stop offset="0.8089" stop-color="#2c839f"/>
      <stop offset="1" stop-color="#147391"/>
    </linearGradient>
  <rect x="0.5" y="0.5" width="38" height="44" stroke="#464646" stroke-miterlimit="10" fill="url(#paper_gradient)"/>
  <path d="M20.5,28l-4,2.25v4.5l4,2.25,4-2.25v-4.5Z" stroke="#147391" stroke-linejoin="round" fill="url(#Light_Blue_Grad)"/>
  <line x1="20.5" y1="26" x2="20.5" y2="28" fill="none" stroke="#147391" stroke-linejoin="round"/>
  <line x1="20.5" y1="37" x2="20.5" y2="39" fill="none" stroke="#147391" stroke-linejoin="round"/>
  <line x1="17" y1="32.5" x2="15" y2="32.5" fill="none" stroke="#147391" stroke-linejoin="round"/>
  <line x1="26" y1="32.5" x2="24" y2="32.5" fill="none" stroke="#147391" stroke-linejoin="round"/>
  <path d="M5.3324,30.0724H7.6089l.1845-1.6285C8.1,25.8316,9.1943,23.79,11.6241,23.79a2.9467,2.9467,0,0,1,1.3134.3071l-.2627.8126a3.4717,3.4717,0,0,0-1.2258-.2416c-1.7294,0-2.4516,1.8221-2.6485,3.71l-.1627,1.6945h2.8676v.8344H8.5285L7.99,35.2927c-.35,2.9412-1.2476,4.7633-3.48,4.7633A3.0165,3.0165,0,0,1,3,39.7048l.2622-.79A2.98,2.98,0,0,0,4.5978,39.2c1.532,0,2.1231-1.5805,2.364-3.666L7.5,30.9068H5.3324Z" fill="#147391" stroke="#147391" stroke-miterlimit="10" stroke-width="0.25"/>
  <path d="M17.0072,23A13.7126,13.7126,0,0,0,13.92,32.0657,13.87,13.87,0,0,0,17.0072,41h-.9854a13.5062,13.5062,0,0,1-3.0863-8.9561A13.8156,13.8156,0,0,1,16.0218,23Z" fill="#147391" stroke="#147391" stroke-miterlimit="10" stroke-width="0.25"/>
  <path d="M23.9066,41a13.9423,13.9423,0,0,0,3.0862-9.0221A13.7127,13.7127,0,0,0,23.9066,23h.9849A13.5864,13.5864,0,0,1,28,32a13.7271,13.7271,0,0,1-3.1085,9Z" fill="#147391" stroke="#147391" stroke-miterlimit="10" stroke-width="0.25"/>
    <path d="M28.5,42.5H24.7663A3.0969,3.0969,0,0,0,23.5,45a2.5,2.5,0,0,0,5,0Z" stroke="#464646" stroke-linejoin="round" fill="url(#linear-gradient)"/>
    <path d="M47.5,45.0053a2.5,2.5,0,0,1-2.5,2.5H26.0312a2.5,2.5,0,0,0,2.5-2.5L26.5,23A2.5,2.5,0,0,1,29,20.5l3.7715.0053L45.5,25.5Z" stroke="#464646" stroke-linejoin="round" fill="url(#Light_Blue_Grad-2)"/>
    <path d="M45,20.5H29a2.5,2.5,0,0,1,0,5H45a2.5,2.5,0,0,0,0-5Z" stroke="#464646" stroke-linejoin="round" fill="url(#linear-gradient-2)"/>
      <line x1="44.0001" y1="40.5" x2="32.0001" y2="40.5" fill="none" stroke="#fff" stroke-linejoin="round"/>
      <line x1="43.5001" y1="37.5" x2="31.5001" y2="37.5" fill="none" stroke="#fff" stroke-linejoin="round"/>
      <line x1="43.0001" y1="34.5" x2="31.0001" y2="34.5" fill="none" stroke="#fff" stroke-linejoin="round"/>
      <line x1="37.5" y1="31.5" x2="30.5" y2="31.5" fill="none" stroke="#fff" stroke-linejoin="round"/>
    <polygon points="20.471 15.492 20.411 15.332 20.322 15.178 20.203 15.029 20.061 14.887 19.894 14.75 19.705 14.631 16.671 12.88 13.825 4.368 13.818 4.368 13.782 4.276 13.712 4.158 13.615 4.039 13.496 3.936 13.35 3.839 13.194 3.753 13.016 3.678 12.826 3.613 12.622 3.564 12.411 3.526 12.195 3.505 11.974 3.5 11.752 3.511 11.536 3.537 11.331 3.575 11.131 3.629 10.941 3.693 10.769 3.769 10.613 3.861 10.477 3.964 10.365 4.071 10.272 4.184 10.202 4.304 10.18 4.368 10.175 4.368 7.315 12.925 4.296 14.631 4.106 14.75 3.94 14.887 3.798 15.029 3.679 15.178 3.595 15.332 3.535 15.492 3.506 15.658 3.506 15.825 3.5 15.741 3.5 16.625 3.506 16.709 3.535 16.874 3.595 17.035 3.679 17.189 3.798 17.344 3.94 17.486 4.106 17.617 4.296 17.742 10.076 21.071 10.29 21.183 10.516 21.278 10.765 21.362 11.026 21.427 11.294 21.48 11.573 21.509 11.858 21.527 12.142 21.527 12.428 21.509 12.708 21.48 12.974 21.427 13.236 21.362 13.485 21.278 13.717 21.183 13.924 21.071 19.705 17.742 19.894 17.617 20.061 17.486 20.203 17.344 20.322 17.189 20.411 17.035 20.471 16.874 20.5 16.709 20.5 16.625 20.5 15.825 20.5 15.741 20.5 15.658 20.471 15.492" stroke="#147391" stroke-linejoin="round" fill="url(#New_Gradient_Swatch_4)"/>
    <path d="M13.582,18.3572l.3571-.07.3454-.0807.3346-.103.324-.1127.3133-.1244.2919-.1351.2754-.1507.2588-.1565.2375-.1672.2159-.1778.1946-.19.1673-.1944.1519-.1992.1235-.2051.0973-.21.07-.2157.0437-.2158.0215-.2158L17.4,15.212l-.0321-.2158-.0593-.21L13.8252,4.3679h-.0068l-.0359-.0914-.07-.1185-.0973-.1186-.1188-.103L13.35,3.8391l-.1565-.0864-.1781-.0748-.19-.0652-.2042-.0486-.2111-.0379-.2161-.0214L11.9738,3.5l-.2219.0107-.2159.0262-.2054.0379-.1994.0545-.19.0641-.1721.0758-.1567.0914-.1352.103-.1129.1079-.0925.1127-.07.12-.0222.0641h-.0051L6.6925,14.7863l-.033.1021-.0429.2157-.0214.2217.0048.2157.0331.2157.0594.2159.0856.21.1138.2109.1354.2051.1565.1934.1829.19.2053.1827.2268.173.249.1672.2647.1506.286.1458.3027.13.3123.1186.3357.1079.3395.0914.3512.0758.3619.0641.3669.0486.3727.033.3784.0215.3775.0049.3727-.0108.3785-.0262Z" stroke="#147391" stroke-linejoin="round" fill="url(#Dark_Blue_Grad)"/>
    <path d="M14.7379,14.343l-.2753.1187-.2919.103-.3075.0914-.3133.0757-.324.0593-.3347.0486-.3347.0321-.3405.0165-.3455.0058-.3405-.0165-.3395-.0271-.33-.0429-.3289-.0592-.3191-.0758-.3074-.0866-.2919-.0972-.28-.1127-.2646-.13-.249-.1341-.2267-.1458L8.3874,13.81l-.1829-.1672-.1625-.173-.14-.1837-.1139-.1828-.0914-.1944L7.6372,12.72l-.0378-.2-.0108-.1943.0165-.1993.0429-.1944.0214-.0641L8.9712,7.9719l-.0273.0914-.0214.1624v.1671l.0214.1623.0535.1613.0818.1566.1021.1564.1246.1458.1507.14.1733.1293.1887.1243.2111.1079.2267.1031.2423.0856.254.07.27.06.27.0427.2811.0321.2861.0165h.286l.2812-.0165.28-.0321.2754-.0427.2646-.06.254-.07.2432-.0856.2267-.1031.21-.1079.1946-.1243.1674-.1293.1517-.14.1294-.1458.1022-.1564.0759-.1566.0545-.1613.0263-.1623V8.2257l-.0263-.1624L15.03,7.9719l1.3008,3.8956.0545.21.0273.1944-.0059.1993-.0273.1943-.0593.1993-.0808.19-.108.1887-.1352.1836-.1567.172-.178.1673-.1995.1623-.2218.1458Z" fill="#fff" stroke="#147391" stroke-linecap="round" stroke-linejoin="round"/>
    <polyline points="10.167 4.391 10.143 4.557 10.153 4.681 10.191 4.81 10.251 4.929 10.337 5.048 10.445 5.156 10.575 5.258 10.725 5.35 10.899 5.431 11.083 5.501 11.277 5.56 11.487 5.603 11.697 5.63 11.919 5.641 12.141 5.641 12.357 5.625 12.567 5.593 12.773 5.544 12.967 5.485 13.15 5.415 13.313 5.328 13.458 5.237 13.588 5.129 13.69 5.021 13.766 4.903 13.825 4.778 13.852 4.654 13.857 4.524" fill="none" stroke="#147391" stroke-linecap="round" stroke-miterlimit="10"/>
</svg>
