<svg id="Layer_1" data-name="Layer 1" xmlns="http://www.w3.org/2000/svg" xmlns:xlink="http://www.w3.org/1999/xlink" viewBox="0 0 48 48">
  <defs>
    <linearGradient id="paper_gradient" data-name="paper gradient" x1="6.4393" y1="3.318" x2="37.5607" y2="34.4393" gradientUnits="userSpaceOnUse">
      <stop offset="0" stop-color="#fff"/>
      <stop offset="0.2214" stop-color="#f8f8f8"/>
      <stop offset="0.5415" stop-color="#e5e5e5"/>
      <stop offset="0.92" stop-color="#c6c6c6"/>
      <stop offset="1" stop-color="#bebebe"/>
    </linearGradient>
    <linearGradient id="paper_gradient-2" x1="10" y1="5" x2="13" y2="8" xlink:href="#paper_gradient"/>
    <linearGradient id="paper_gradient-3" x1="12.25" y1="1.75" x2="16.75" y2="6.25" xlink:href="#paper_gradient"/>
    <linearGradient id="paper_gradient-4" x1="27.25" y1="1.75" x2="31.75" y2="6.25" xlink:href="#paper_gradient"/>
    <linearGradient id="paper_gradient-5" x1="31" y1="5" x2="34" y2="8" xlink:href="#paper_gradient"/>
    <linearGradient id="Dark_Blue_Grad_2" data-name="Dark Blue Grad 2" x1="23.5" y1="23.5" x2="43.5" y2="43.5" gradientUnits="userSpaceOnUse">
      <stop offset="0" stop-color="#74b3c7"/>
      <stop offset="0.1774" stop-color="#6badc2"/>
      <stop offset="0.4638" stop-color="#539db4"/>
      <stop offset="0.8215" stop-color="#2d839d"/>
      <stop offset="1" stop-color="#177490"/>
    </linearGradient>
    <linearGradient id="linear-gradient" x1="19.5" y1="27.5" x2="23.5" y2="27.5" gradientUnits="userSpaceOnUse">
      <stop offset="0" stop-color="#fff"/>
      <stop offset="0.2477" stop-color="#f8f8f8"/>
      <stop offset="0.6057" stop-color="#e5e5e5"/>
      <stop offset="1" stop-color="#c8c8c8"/>
    </linearGradient>
    <linearGradient id="linear-gradient-2" x1="19.5" y1="31.5" x2="23.5" y2="31.5" xlink:href="#linear-gradient"/>
    <linearGradient id="linear-gradient-3" x1="19.5" y1="35.5" x2="23.5" y2="35.5" xlink:href="#linear-gradient"/>
    <linearGradient id="linear-gradient-4" x1="19.5" y1="39.5" x2="23.5" y2="39.5" xlink:href="#linear-gradient"/>
    <linearGradient id="linear-gradient-5" x1="43.5" y1="27.5" x2="47.5" y2="27.5" gradientUnits="userSpaceOnUse">
      <stop offset="0" stop-color="#c8c8c8"/>
      <stop offset="0.3943" stop-color="#e5e5e5"/>
      <stop offset="0.7523" stop-color="#f8f8f8"/>
      <stop offset="1" stop-color="#fff"/>
    </linearGradient>
    <linearGradient id="linear-gradient-6" x1="43.5" y1="31.5" x2="47.5" y2="31.5" xlink:href="#linear-gradient-5"/>
    <linearGradient id="linear-gradient-7" x1="43.5" y1="35.5" x2="47.5" y2="35.5" xlink:href="#linear-gradient-5"/>
    <linearGradient id="linear-gradient-8" x1="43.5" y1="39.5" x2="47.5" y2="39.5" xlink:href="#linear-gradient-5"/>
    <linearGradient id="linear-gradient-9" x1="19.5" y1="8.5" x2="23.5" y2="8.5" gradientTransform="translate(18 13)" xlink:href="#linear-gradient"/>
    <linearGradient id="linear-gradient-10" x1="19.5" y1="12.5" x2="23.5" y2="12.5" gradientTransform="translate(14 9)" xlink:href="#linear-gradient"/>
    <linearGradient id="linear-gradient-11" x1="19.5" y1="16.5" x2="23.5" y2="16.5" gradientTransform="translate(10 5)" xlink:href="#linear-gradient"/>
    <linearGradient id="linear-gradient-12" x1="19.5" y1="20.5" x2="23.5" y2="20.5" gradientTransform="translate(6 1)" xlink:href="#linear-gradient"/>
    <linearGradient id="linear-gradient-13" x1="43.5" y1="8.5" x2="47.5" y2="8.5" gradientTransform="translate(-6 37)" xlink:href="#linear-gradient-5"/>
    <linearGradient id="linear-gradient-14" x1="43.5" y1="12.5" x2="47.5" y2="12.5" gradientTransform="translate(-10 33)" xlink:href="#linear-gradient-5"/>
    <linearGradient id="linear-gradient-15" x1="43.5" y1="16.5" x2="47.5" y2="16.5" gradientTransform="translate(-14 29)" xlink:href="#linear-gradient-5"/>
    <linearGradient id="linear-gradient-16" x1="43.5" y1="20.5" x2="47.5" y2="20.5" gradientTransform="translate(-18 25)" xlink:href="#linear-gradient-5"/>
  </defs>
  <g>
    <path d="M3.5,7.5h37a3,3,0,0,1,3,3v18a0,0,0,0,1,0,0H.5a0,0,0,0,1,0,0v-18A3,3,0,0,1,3.5,7.5Z" stroke="#464646" stroke-miterlimit="10" fill="url(#paper_gradient)"/>
    <line x1="1" y1="13.5" x2="43" y2="13.5" fill="none" stroke="#6e6e6e" stroke-miterlimit="10"/>
    <rect x="7.5" y="11.5" width="4" height="7" fill="#a0a0a0" stroke="#6e6e6e" stroke-miterlimit="10"/>
    <rect x="9.5" y="5.5" width="4" height="2" stroke="#464646" stroke-linejoin="round" fill="url(#paper_gradient-2)"/>
    <rect x="13.5" y="0.5" width="2" height="7" stroke="#464646" stroke-linejoin="round" fill="url(#paper_gradient-3)"/>
    <rect x="28.5" y="0.5" width="2" height="7" stroke="#464646" stroke-linejoin="round" fill="url(#paper_gradient-4)"/>
    <rect x="15.5" y="0.5" width="13" height="3" fill="#a0a0a0" stroke="#464646" stroke-miterlimit="10"/>
    <rect x="30.5" y="5.5" width="4" height="2" stroke="#464646" stroke-linejoin="round" fill="url(#paper_gradient-5)"/>
    <rect x="32.5" y="11.5" width="4" height="7" fill="#a0a0a0" stroke="#6e6e6e" stroke-miterlimit="10"/>
  </g>
  <g>
    <polygon points="42.5 44.5 24.5 44.5 22.5 42.5 22.5 24.5 24.5 22.5 42.5 22.5 44.5 24.5 44.5 42.5 42.5 44.5" stroke="#464646" stroke-miterlimit="10" fill="url(#Dark_Blue_Grad_2)"/>
    <polygon points="38.843 40.5 28.157 40.5 26.5 38.843 26.5 28.157 28.157 26.5 38.843 26.5 40.5 28.157 40.5 38.843 38.843 40.5" fill="none" stroke="#147391" stroke-linejoin="round"/>
    <rect x="19.5" y="26.5" width="4" height="2" stroke="#464646" stroke-miterlimit="10" fill="url(#linear-gradient)"/>
    <rect x="19.5" y="30.5" width="4" height="2" stroke="#464646" stroke-miterlimit="10" fill="url(#linear-gradient-2)"/>
    <rect x="19.5" y="34.5" width="4" height="2" stroke="#464646" stroke-miterlimit="10" fill="url(#linear-gradient-3)"/>
    <rect x="19.5" y="38.5" width="4" height="2" stroke="#464646" stroke-miterlimit="10" fill="url(#linear-gradient-4)"/>
    <rect x="43.5" y="26.5" width="4" height="2" stroke="#464646" stroke-miterlimit="10" fill="url(#linear-gradient-5)"/>
    <rect x="43.5" y="30.5" width="4" height="2" stroke="#464646" stroke-miterlimit="10" fill="url(#linear-gradient-6)"/>
    <rect x="43.5" y="34.5" width="4" height="2" stroke="#464646" stroke-miterlimit="10" fill="url(#linear-gradient-7)"/>
    <rect x="43.5" y="38.5" width="4" height="2" stroke="#464646" stroke-miterlimit="10" fill="url(#linear-gradient-8)"/>
    <rect x="37.5" y="20.5" width="4" height="2" transform="translate(61 -18) rotate(90)" stroke="#464646" stroke-miterlimit="10" fill="url(#linear-gradient-9)"/>
    <rect x="33.5" y="20.5" width="4" height="2" transform="translate(57 -14) rotate(90)" stroke="#464646" stroke-miterlimit="10" fill="url(#linear-gradient-10)"/>
    <rect x="29.5" y="20.5" width="4" height="2" transform="translate(53 -10) rotate(90)" stroke="#464646" stroke-miterlimit="10" fill="url(#linear-gradient-11)"/>
    <rect x="25.5" y="20.5" width="4" height="2" transform="translate(49 -6) rotate(90)" stroke="#464646" stroke-miterlimit="10" fill="url(#linear-gradient-12)"/>
    <rect x="37.5" y="44.5" width="4" height="2" transform="translate(85 6) rotate(90)" stroke="#464646" stroke-miterlimit="10" fill="url(#linear-gradient-13)"/>
    <rect x="33.5" y="44.5" width="4" height="2" transform="translate(81 10) rotate(90)" stroke="#464646" stroke-miterlimit="10" fill="url(#linear-gradient-14)"/>
    <rect x="29.5" y="44.5" width="4" height="2" transform="translate(77 14) rotate(90)" stroke="#464646" stroke-miterlimit="10" fill="url(#linear-gradient-15)"/>
    <rect x="25.5" y="44.5" width="4" height="2" transform="translate(73 18) rotate(90)" stroke="#464646" stroke-miterlimit="10" fill="url(#linear-gradient-16)"/>
  </g>
</svg>
