<svg id="Layer_1" data-name="Layer 1" xmlns="http://www.w3.org/2000/svg" xmlns:xlink="http://www.w3.org/1999/xlink" viewBox="0 0 48 48">
  <defs>
    <linearGradient id="linear-gradient" x1="0.5" y1="39.497" x2="33.5" y2="6.497" gradientTransform="matrix(1, 0, 0, -1, 0, 50)" gradientUnits="userSpaceOnUse">
      <stop offset="0" stop-color="#fff"/>
      <stop offset="0.221" stop-color="#f8f8f8"/>
      <stop offset="0.541" stop-color="#e5e5e5"/>
      <stop offset="0.92" stop-color="#c6c6c6"/>
      <stop offset="1" stop-color="#bebebe"/>
    </linearGradient>
    <linearGradient id="linear-gradient-2" x1="22.98" y1="22.41" x2="35.633" y2="35.062" gradientUnits="userSpaceOnUse">
      <stop offset="0" stop-color="#f2f2f2"/>
      <stop offset="0.99" stop-color="#999"/>
    </linearGradient>
    <linearGradient id="linear-gradient-3" x1="28.715" y1="28.741" x2="44.262" y2="44.288" gradientUnits="userSpaceOnUse">
      <stop offset="0" stop-color="#c7c7c7"/>
      <stop offset="0.177" stop-color="#c2c2c2"/>
      <stop offset="0.464" stop-color="#b4b4b4"/>
      <stop offset="0.822" stop-color="#9d9d9d"/>
      <stop offset="1" stop-color="#909090"/>
    </linearGradient>
  </defs>
  <path d="M21.274,10.5a5.232,5.232,0,0,0,1.82-4.094A5.946,5.946,0,0,0,17.11.5L17,.5a5.9,5.9,0,0,0-6.076,5.714q0,.075,0,.15a5.322,5.322,0,0,0,1.82,4.136H.5V23.132a6.075,6.075,0,1,1,.11,8.59c-.037-.036-.074-.073-.11-.11V43.5h33v-33Z" stroke="#464646" stroke-miterlimit="10" fill="url(#linear-gradient)"/>
  <circle cx="20.141" cy="37.791" r="1.826" fill="#fff"/>
  <circle cx="36.489" cy="36.551" r="3.079" fill="#fff"/>
  <path d="M46.393,19.2c0-.2-.1-.3-.3-.4h-.2c-.2,0-.3,0-.4.1l-3.6,3.6a.582.582,0,0,1-.3.141l-3.605.759-.1-.1-3.2-3.2c-.1-.1-.1-.1-.1-.2,0,0,.879-3.85.9-3.9.487-1.176,3.6-3.6,3.6-3.6a.441.441,0,0,0,.1-.5c-.1-.1-.2-.3-.4-.3a4.889,4.889,0,0,0-1.2-.1,8.769,8.769,0,0,0-6.3,2.6c-2.6,2.6-1.9,7.5-1.6,8.9,0,.1,0,.2-.1.2l-13.7,12a4.767,4.767,0,0,0-1.4,3.4,5,5,0,0,0,1.4,3.5,5.18,5.18,0,0,0,3.5,1.4,4.853,4.853,0,0,0,3.5-1.5l11.8-13.5c.1-.1.1-.1.2-.1a19.234,19.234,0,0,0,3.3.3,7.979,7.979,0,0,0,5.7-1.9A9.222,9.222,0,0,0,46.393,19.2ZM20.141,39.616a1.826,1.826,0,1,1,1.825-1.826A1.825,1.825,0,0,1,20.141,39.616Z" stroke="#6e6e6e" stroke-miterlimit="10" fill="url(#linear-gradient-2)"/>
  <path d="M43.779,39.207l.035-.017,3.675-1.3V35.143l-3.675-1.3a.441.441,0,0,1-.277-.558h0a.422.422,0,0,1,.018-.045l1.672-3.518-1.943-1.942-3.521,1.671a.441.441,0,0,1-.588-.2h0a.3.3,0,0,1-.015-.038l-1.3-3.655H35.11l-1.3,3.655a.448.448,0,0,1-.578.251l-.026-.012-3.52-1.671L27.747,29.72l1.672,3.518a.44.44,0,0,1-.211.585l-.045.018-3.674,1.3v2.745l3.676,1.3a.439.439,0,0,1,.276.557h0a.437.437,0,0,1-.018.046L27.75,43.311l1.943,1.943,3.52-1.666a.44.44,0,0,1,.584.216h0a.339.339,0,0,1,.02.053l1.3,3.694h2.747l1.3-3.694a.43.43,0,0,1,.528-.3.407.407,0,0,1,.076.028l3.52,1.671L45.24,43.31l-1.673-3.518A.44.44,0,0,1,43.779,39.207Zm-7.291.422a3.079,3.079,0,1,1,3.08-3.078A3.079,3.079,0,0,1,36.488,39.629Z" stroke="#6e6e6e" stroke-miterlimit="10" fill="url(#linear-gradient-3)"/>
</svg>
