<svg id="Layer_1" data-name="Layer 1" xmlns="http://www.w3.org/2000/svg" xmlns:xlink="http://www.w3.org/1999/xlink" viewBox="0 0 48 48">
    <linearGradient id="New_Gradient_Swatch_1" data-name="New Gradient Swatch 1" x1="2.5" y1="45.5" x2="45.5" y2="2.5" gradientTransform="matrix(1, 0, 0, -1, 0, 48)" gradientUnits="userSpaceOnUse">
      <stop offset="0" stop-color="#cde6eb"/>
      <stop offset="0.221" stop-color="#c6e2e8"/>
      <stop offset="0.542" stop-color="#b3d8e1"/>
      <stop offset="0.921" stop-color="#93c7d5"/>
      <stop offset="1" stop-color="#8cc3d2"/>
    </linearGradient>
    <linearGradient id="Dark_Blue_Grad" data-name="Dark Blue Grad" x1="15.21" y1="18.326" x2="32.942" y2="36.058" gradientUnits="userSpaceOnUse">
      <stop offset="0" stop-color="#73b4c8"/>
      <stop offset="0.175" stop-color="#6aaec3"/>
      <stop offset="0.457" stop-color="#529eb5"/>
      <stop offset="0.809" stop-color="#2c839f"/>
      <stop offset="1" stop-color="#147391"/>
    </linearGradient>
  <rect width="48" height="48" fill="none"/>
  <rect x="0.5" y="4.5" width="47" height="39" stroke="#464646" stroke-miterlimit="10" fill="url(#New_Gradient_Swatch_1)"/>
  <polyline points="4.5 13 4.5 10.5 7 10.5" fill="none" stroke="#147391" stroke-miterlimit="10"/>
  <polyline points="7 37.5 4.5 37.5 4.5 35" fill="none" stroke="#147391" stroke-miterlimit="10"/>
  <polyline points="41 10.5 43.5 10.5 43.5 13" fill="none" stroke="#147391" stroke-miterlimit="10"/>
  <polyline points="43.5 35 43.5 37.5 41 37.5" fill="none" stroke="#147391" stroke-miterlimit="10"/>
  <line x1="9" y1="10.5" x2="11" y2="10.5" fill="none" stroke="#147391" stroke-miterlimit="10"/>
  <line x1="4.5" y1="23" x2="4.5" y2="25" fill="none" stroke="#147391" stroke-miterlimit="10"/>
  <line x1="4.5" y1="29" x2="4.5" y2="27" fill="none" stroke="#147391" stroke-miterlimit="10"/>
  <line x1="4.5" y1="33" x2="4.5" y2="31" fill="none" stroke="#147391" stroke-miterlimit="10"/>
  <line x1="43.5" y1="23" x2="43.5" y2="25" fill="none" stroke="#147391" stroke-miterlimit="10"/>
  <line x1="4.5" y1="19" x2="4.5" y2="21" fill="none" stroke="#147391" stroke-miterlimit="10"/>
  <line x1="43.5" y1="19" x2="43.5" y2="21" fill="none" stroke="#147391" stroke-miterlimit="10"/>
  <line x1="4.5" y1="15" x2="4.5" y2="17" fill="none" stroke="#147391" stroke-miterlimit="10"/>
  <line x1="43.5" y1="15" x2="43.5" y2="17" fill="none" stroke="#147391" stroke-miterlimit="10"/>
  <line x1="43.5" y1="29" x2="43.5" y2="27" fill="none" stroke="#147391" stroke-miterlimit="10"/>
  <line x1="43.5" y1="33" x2="43.5" y2="31" fill="none" stroke="#147391" stroke-miterlimit="10"/>
  <line x1="13" y1="10.5" x2="15" y2="10.5" fill="none" stroke="#147391" stroke-miterlimit="10"/>
  <line x1="17" y1="10.5" x2="19" y2="10.5" fill="none" stroke="#147391" stroke-miterlimit="10"/>
  <line x1="21" y1="10.5" x2="23" y2="10.5" fill="none" stroke="#147391" stroke-miterlimit="10"/>
  <line x1="25" y1="10.5" x2="27" y2="10.5" fill="none" stroke="#147391" stroke-miterlimit="10"/>
  <line x1="29" y1="10.5" x2="31" y2="10.5" fill="none" stroke="#147391" stroke-miterlimit="10"/>
  <line x1="29" y1="37.5" x2="31" y2="37.5" fill="none" stroke="#147391" stroke-miterlimit="10"/>
  <line x1="33" y1="10.5" x2="35" y2="10.5" fill="none" stroke="#147391" stroke-miterlimit="10"/>
  <line x1="37" y1="10.5" x2="39" y2="10.5" fill="none" stroke="#147391" stroke-miterlimit="10"/>
  <line x1="33" y1="37.5" x2="35" y2="37.5" fill="none" stroke="#147391" stroke-miterlimit="10"/>
  <line x1="9" y1="37.5" x2="11" y2="37.5" fill="none" stroke="#147391" stroke-miterlimit="10"/>
  <line x1="13" y1="37.5" x2="15" y2="37.5" fill="none" stroke="#147391" stroke-miterlimit="10"/>
  <line x1="17" y1="37.5" x2="19" y2="37.5" fill="none" stroke="#147391" stroke-miterlimit="10"/>
  <line x1="21" y1="37.5" x2="23" y2="37.5" fill="none" stroke="#147391" stroke-miterlimit="10"/>
  <line x1="25" y1="37.5" x2="27" y2="37.5" fill="none" stroke="#147391" stroke-miterlimit="10"/>
  <line x1="37" y1="37.5" x2="39" y2="37.5" fill="none" stroke="#147391" stroke-miterlimit="10"/>
    <path d="M25.5,34.5V32.13l.219-.149a10.081,10.081,0,0,0,4.275-8.258c0-3.466-2.055-7.149-5.862-7.149-3.946,0-6.011,3.611-6.011,7.179a10.083,10.083,0,0,0,4.142,8.217l.237.146V34.5h-9v-3h4.18a11.377,11.377,0,0,1-3.239-7.952c0-5.822,4.1-10.048,9.75-10.048,5.567,0,9.455,4.036,9.455,9.813A11.545,11.545,0,0,1,30.361,31.5H34.5v3Z" fill="url(#Dark_Blue_Grad)"/>
    <path d="M24.191,14c5.508,0,8.955,4.116,8.955,9.314a10.984,10.984,0,0,1-3.918,8.555V32H34v2H26V32.394a10.583,10.583,0,0,0,4.494-8.672c0-3.591-2.15-7.649-6.362-7.649-4.183,0-6.511,3.824-6.511,7.679A10.614,10.614,0,0,0,22,32.394V34H14V32h4.829v-.131a10.786,10.786,0,0,1-3.888-8.321c0-5.606,3.977-9.548,9.25-9.548m0-1c-5.939,0-10.25,4.436-10.25,10.548A11.933,11.933,0,0,0,16.563,31H13v4H23V31.837l-.473-.293a9.552,9.552,0,0,1-3.905-7.792c0-3.319,1.893-6.679,5.511-6.679,3.483,0,5.362,3.426,5.362,6.649a9.572,9.572,0,0,1-4.058,7.845l-.437.3V35H35V31H31.473a12.04,12.04,0,0,0,2.673-7.686C34.146,17.337,29.959,13,24.191,13Z" fill="#147391"/>
</svg>
