<svg id="Layer_1" data-name="Layer 1" xmlns="http://www.w3.org/2000/svg" xmlns:xlink="http://www.w3.org/1999/xlink" viewBox="0 0 48 48">
    <linearGradient id="front_-45" data-name="front -45" x1="12.548" y1="3.846" x2="39.452" y2="30.75" gradientUnits="userSpaceOnUse">
      <stop offset="0" stop-color="#f2f2f2"/>
      <stop offset="0.5" stop-color="#ccc"/>
      <stop offset="0.63" stop-color="#c7c7c7"/>
      <stop offset="0.779" stop-color="#b9b9b9"/>
      <stop offset="0.938" stop-color="#a2a2a2"/>
      <stop offset="0.99" stop-color="#999"/>
    </linearGradient>
    <linearGradient id="front_-45-2" x1="20.558" y1="4.113" x2="31.281" y2="4.113" xlink:href="#front_-45"/>
    <linearGradient id="front_-45-3" x1="1" y1="31.302" x2="25.677" y2="31.302" xlink:href="#front_-45"/>
    <linearGradient id="Dark_Blue_Grad_2" data-name="Dark Blue Grad 2" x1="26.161" y1="26.161" x2="43.839" y2="43.839" gradientUnits="userSpaceOnUse">
      <stop offset="0" stop-color="#74b3c7"/>
      <stop offset="0.177" stop-color="#6badc2"/>
      <stop offset="0.464" stop-color="#539db4"/>
      <stop offset="0.822" stop-color="#2d839d"/>
      <stop offset="1" stop-color="#177490"/>
    </linearGradient>
  <path d="M35,35.2,34.99,11.086l4.8,3.052L44,8.394,39.02,4.036a6.128,6.128,0,0,0-2.632-1.353L31.362,1.5l-3.83.383a16.374,16.374,0,0,1-3.064,0L20.638,1.5,15.612,2.683A6.128,6.128,0,0,0,12.98,4.036L8,8.394l4.213,5.745L17,11.127V35.2a12.647,12.647,0,0,0,6.745.692l4.51-.9A17.192,17.192,0,0,1,35,35.2Z" fill="url(#front_-45)"/>
  <path d="M31.281,1.5h0l-3.861.351a16.576,16.576,0,0,1-3,0L20.558,1.5C21.595,8.59,30.033,8.346,31.281,1.5Z" fill="url(#front_-45-2)"/>
  <path d="M20.638,1.5c1.037,7.09,9.475,6.846,10.723,0" fill="none" stroke="#6e6e6e" stroke-miterlimit="10"/>
  <path d="M35,35.2,34.99,11.086l4.8,3.052L44,8.394,39.02,4.036a6.128,6.128,0,0,0-2.632-1.353L31.362,1.5l-3.83.383a16.374,16.374,0,0,1-3.064,0L20.638,1.5,15.612,2.683A6.128,6.128,0,0,0,12.98,4.036L8,8.394l4.213,5.745L17,11.127V35.2a12.647,12.647,0,0,0,6.745.692l4.51-.9A17.192,17.192,0,0,1,35,35.2Z" fill="none" stroke="#464646" stroke-linejoin="round"/>
  <path d="M8.373,17.751,1.35,23.824a1.194,1.194,0,0,0,0,1.686L18.255,42.531s2.938,2.938,5.935,3.027l1.128-1.128s1.217-.861-.831-4.273S19.768,27.069,19.62,26.624s-3.638.33-6.291-2.255c-3.741-3.645-2.058-6.556-2.077-6.865C11.233,17.223,9.866,16.514,8.373,17.751Z" fill="url(#front_-45-3)"/>
  <path d="M24.19,45.558l.95-.95C17.8,39.394,2.885,22.7,2.885,22.7l-.165-.065L1.35,23.824a1.194,1.194,0,0,0,0,1.686L18.255,42.531S21.193,45.469,24.19,45.558Z" fill="#dcdcdc"/>
  <circle cx="18" cy="28.5" r="0.672" transform="translate(-14.88 21.075) rotate(-45)" fill="#6e6e6e"/>
  <line x1="18" y1="28.5" x2="20.392" y2="28.504" fill="none" stroke="#464646" stroke-linecap="round" stroke-miterlimit="3.864"/>
  <circle cx="19" cy="31.482" r="0.672" transform="translate(-16.696 22.656) rotate(-45)" fill="#6e6e6e"/>
  <line x1="19" y1="31.5" x2="21.345" y2="31.504" fill="none" stroke="#464646" stroke-linecap="round" stroke-miterlimit="3.864"/>
  <circle cx="20" cy="34.5" r="0.672" transform="translate(-18.537 24.247) rotate(-45)" fill="#6e6e6e"/>
  <line x1="20" y1="34.5" x2="22.295" y2="34.504" fill="none" stroke="#464646" stroke-linecap="round" stroke-miterlimit="3.864"/>
  <path d="M25.14,44.608l.178-.178s1.217-.861-.831-4.273a16.282,16.282,0,0,1-.844-1.663l-.035.014a3.725,3.725,0,0,1-2.188-.072c-.982-.278-2.27-1.579-3.638-.543l-.226.129" fill="none" stroke="#6e6e6e" stroke-miterlimit="10"/>
  <path d="M7.728,27.979l.05-.055a6.855,6.855,0,0,0-1.1-8.63l-.052-.03-3.9,3.375" fill="none" stroke="#6e6e6e" stroke-miterlimit="10"/>
  <path d="M2.885,22.7S17.8,39.394,25.14,44.608" fill="none" stroke="#6e6e6e" stroke-miterlimit="10"/>
  <path d="M8.373,17.751,1.35,23.824a1.194,1.194,0,0,0,0,1.686L18.255,42.531s2.938,2.938,5.935,3.027l1.128-1.128s1.217-.861-.831-4.273S19.768,27.069,19.62,26.624s-3.638.33-6.291-2.255c-3.741-3.645-2.058-6.556-2.077-6.865C11.233,17.223,9.866,16.514,8.373,17.751Z" fill="none" stroke="#464646" stroke-miterlimit="3.864"/>
  <path d="M15.984,27.226l2.6,7.845A2.563,2.563,0,0,0,20.5,36.4" fill="none" stroke="#6e6e6e" stroke-miterlimit="10"/>
  <circle cx="35" cy="35" r="12.5" stroke="#464646" stroke-miterlimit="10" fill="url(#Dark_Blue_Grad_2)"/>
    <path d="M35,40.5A1.5,1.5,0,0,1,33.5,39v-1.73a4.416,4.416,0,0,1,2.547-4,2.5,2.5,0,0,0-.582-4.729A2.746,2.746,0,0,0,35,28.5a2.47,2.47,0,0,0-1.606.583A2.5,2.5,0,0,0,32.5,31a1.5,1.5,0,0,1-3,0,5.5,5.5,0,0,1,5.506-5.5,5.631,5.631,0,0,1,.978.086,5.5,5.5,0,0,1,1.322,10.407,1.406,1.406,0,0,0-.807,1.276V39A1.5,1.5,0,0,1,35,40.5Z" fill="#fff"/>
    <path d="M35.006,26a5.133,5.133,0,0,1,.891.078,5,5,0,0,1,1.2,9.461A1.908,1.908,0,0,0,36,37.269V39a1,1,0,0,1-2,0v-1.73a3.914,3.914,0,0,1,2.257-3.545,3,3,0,0,0-.705-5.676A3.251,3.251,0,0,0,35,28a3,3,0,0,0-3,3,1,1,0,0,1-2,0,5,5,0,0,1,5.006-5m0-1h0A6,6,0,0,0,29,31a2,2,0,0,0,4,0,2,2,0,0,1,.715-1.533A1.976,1.976,0,0,1,35,29a2.257,2.257,0,0,1,.382.033,2,2,0,0,1,.456,3.782A4.918,4.918,0,0,0,33,37.269V39a2,2,0,0,0,4,0v-1.73a.9.9,0,0,1,.517-.822A6,6,0,0,0,36.07,25.093,6.151,6.151,0,0,0,35.007,25Z" fill="#147391"/>
    <path d="M35,45a2.017,2.017,0,0,1-1.419-3.434A2.038,2.038,0,0,1,35.005,41a2,2,0,0,1,1.414.566A2.017,2.017,0,0,1,35,45Z" fill="#fff"/>
    <path d="M35.005,41.5a1.49,1.49,0,0,1,1.059.419,1.518,1.518,0,0,1,0,2.128A1.506,1.506,0,1,1,35.005,41.5m0-1A2.459,2.459,0,0,0,32.5,42.991,2.518,2.518,0,1,0,35.005,40.5Z" fill="#147391"/>
</svg>
