<svg id="Layer_1" data-name="Layer 1" xmlns="http://www.w3.org/2000/svg" xmlns:xlink="http://www.w3.org/1999/xlink" viewBox="0 0 48 48">
    <linearGradient id="paper_gradient" data-name="paper gradient" x1="-459.318" y1="662.318" x2="-439.318" y2="642.318" gradientTransform="translate(663.818 480.818) rotate(90)" gradientUnits="userSpaceOnUse">
      <stop offset="0" stop-color="#fff"/>
      <stop offset="0.221" stop-color="#f8f8f8"/>
      <stop offset="0.541" stop-color="#e5e5e5"/>
      <stop offset="0.92" stop-color="#c6c6c6"/>
      <stop offset="1" stop-color="#bebebe"/>
    </linearGradient>
    <linearGradient id="paper_gradient-2" x1="167.864" y1="1123.136" x2="147.864" y2="1103.136" gradientTransform="translate(169.364 1124.636) rotate(180)" xlink:href="#paper_gradient"/>
    <linearGradient id="paper_gradient-3" x1="648.182" y1="468.182" x2="668.182" y2="488.182" gradientTransform="translate(-446.682 669.682) rotate(-90)" xlink:href="#paper_gradient"/>
    <linearGradient id="Dark_Blue_Grad" data-name="Dark Blue Grad" x1="26.5" y1="26.5" x2="46.5" y2="46.5" gradientUnits="userSpaceOnUse">
      <stop offset="0" stop-color="#73b4c8"/>
      <stop offset="0.175" stop-color="#6aaec3"/>
      <stop offset="0.457" stop-color="#529eb5"/>
      <stop offset="0.809" stop-color="#2c839f"/>
      <stop offset="1" stop-color="#147391"/>
    </linearGradient>
  <path d="M21.5,34.09a3.786,3.786,0,0,0,2.675,1.1,3.689,3.689,0,1,0,0-7.377,3.786,3.786,0,0,0-2.675,1.1V21.5H14.123a3.69,3.69,0,1,1-5.149,0H1.5v20h20Z" stroke="#464646" stroke-miterlimit="10" fill="url(#paper_gradient)"/>
  <path d="M8.91,21.5a3.786,3.786,0,0,0-1.1,2.675,3.689,3.689,0,1,0,7.377,0,3.786,3.786,0,0,0-1.1-2.675H21.5V14.123a3.69,3.69,0,1,1,0-5.149V1.5H1.5v20Z" stroke="#464646" stroke-miterlimit="10" fill="url(#paper_gradient-2)"/>
  <path d="M21.5,8.91a3.786,3.786,0,0,0-2.675-1.1,3.689,3.689,0,1,0,0,7.377,3.786,3.786,0,0,0,2.675-1.1V21.5h7.377a3.689,3.689,0,1,1,5.15,0H41.5V1.5h-20Z" stroke="#464646" stroke-miterlimit="10" fill="url(#paper_gradient-3)"/>
  <path d="M39.09,26.5a3.786,3.786,0,0,0,1.1-2.675,3.689,3.689,0,1,0-7.377,0,3.786,3.786,0,0,0,1.1,2.675H26.5v7.378a3.689,3.689,0,1,1,0,5.149V46.5h20v-20Z" stroke="#147391" stroke-miterlimit="10" fill="url(#Dark_Blue_Grad)"/>
</svg>
