<svg id="Layer_1" data-name="Layer 1" xmlns="http://www.w3.org/2000/svg" xmlns:xlink="http://www.w3.org/1999/xlink" viewBox="0 0 48 48">
    <linearGradient id="linear-gradient" y1="3.001" x2="32" y2="35.001" gradientUnits="userSpaceOnUse">
      <stop offset="0" stop-color="#fff"/>
      <stop offset="0.305" stop-color="#fbfbfb"/>
      <stop offset="0.584" stop-color="#f0f0f0"/>
      <stop offset="0.852" stop-color="#dedede"/>
      <stop offset="1" stop-color="#d0d0d0"/>
    </linearGradient>
    <linearGradient id="Dark_Blue_Grad" data-name="Dark Blue Grad" x1="26.161" y1="26.161" x2="43.839" y2="43.839" gradientUnits="userSpaceOnUse">
      <stop offset="0" stop-color="#73b4c8"/>
      <stop offset="0.175" stop-color="#6aaec3"/>
      <stop offset="0.457" stop-color="#529eb5"/>
      <stop offset="0.809" stop-color="#2c839f"/>
      <stop offset="1" stop-color="#147391"/>
    </linearGradient>
  <rect x="1.5" y="1.501" width="29" height="35" stroke="#464646" stroke-miterlimit="10" fill="url(#linear-gradient)"/>
  <rect x="4.5" y="3.501" width="9" height="9" fill="none" stroke="#6e6e6e" stroke-miterlimit="10"/>
    <polyline points="11.5 5.501 8.5 10.501 6.5 8.501" fill="none" stroke="#6e6e6e" stroke-linejoin="round"/>
  <rect x="4.5" y="14.501" width="9" height="9" fill="none" stroke="#6e6e6e" stroke-miterlimit="10"/>
    <polyline points="11.5 16.501 8.5 21.501 6.5 19.501" fill="none" stroke="#6e6e6e" stroke-linejoin="round"/>
  <rect x="4.5" y="25.501" width="9" height="9" fill="none" stroke="#6e6e6e" stroke-miterlimit="10"/>
    <polyline points="11.5 27.501 8.5 32.501 6.5 30.501" fill="none" stroke="#6e6e6e" stroke-miterlimit="10"/>
  <line x1="16" y1="7.501" x2="27" y2="7.501" fill="none" stroke="#6e6e6e" stroke-miterlimit="10"/>
  <line x1="16" y1="18.501" x2="27" y2="18.501" fill="none" stroke="#6e6e6e" stroke-miterlimit="10"/>
  <line x1="16" y1="29.501" x2="27" y2="29.501" fill="none" stroke="#6e6e6e" stroke-miterlimit="10"/>
  <circle cx="35" cy="35" r="12.5" stroke="#464646" stroke-linecap="round" stroke-linejoin="round" fill="url(#Dark_Blue_Grad)"/>
  <polyline points="43 32 36 39 32 35 28 39" fill="none" stroke="#147391" stroke-width="3"/>
  <polyline points="37 32 43 32 43 38" fill="none" stroke="#147391" stroke-width="3"/>
  <polyline points="43 32 36 39 32 35 27.25 39.75" fill="none" stroke="#147391" stroke-width="4"/>
  <polyline points="36 32 43 32 43 39" fill="none" stroke="#147391" stroke-width="4"/>
  <polyline points="43 32 36 39 32 35 28 39" fill="none" stroke="#fff" stroke-width="2"/>
  <polyline points="37 32 43 32 43 38" fill="none" stroke="#fff" stroke-width="2"/>
</svg>
