<svg id="Layer_1" data-name="Layer 1" xmlns="http://www.w3.org/2000/svg" xmlns:xlink="http://www.w3.org/1999/xlink" viewBox="0 0 48 48">
    <linearGradient id="Dark_Blue_Grad" data-name="Dark Blue Grad" x1="14.048" y1="3.846" x2="40.952" y2="30.75" gradientUnits="userSpaceOnUse">
      <stop offset="0" stop-color="#c8c8c8"/>
      <stop offset="0.175" stop-color="#c3c3c3"/>
      <stop offset="0.457" stop-color="#b5b5b5"/>
      <stop offset="0.809" stop-color="#9f9f9f"/>
      <stop offset="1" stop-color="#919191"/>
    </linearGradient>
  <path d="M36.5,35.2,36.49,11.086l4.8,3.052L45.5,8.394,40.52,4.036a6.128,6.128,0,0,0-2.632-1.353L32.862,1.5l-3.83.383a16.374,16.374,0,0,1-3.064,0L22.138,1.5,17.112,2.683A6.128,6.128,0,0,0,14.48,4.036L9.5,8.394l4.213,5.745L18.5,11.127V35.2a12.647,12.647,0,0,0,6.745.692l4.51-.9A17.192,17.192,0,0,1,36.5,35.2Z" fill="url(#Dark_Blue_Grad)"/>
  <path d="M32.781,1.5h0l-3.861.351a16.576,16.576,0,0,1-3,0L22.058,1.5C23.095,8.59,31.533,8.346,32.781,1.5Z" fill="#d2d2d2"/>
  <path d="M22.138,1.5c1.037,7.09,9.475,6.846,10.723,0h0" fill="none" stroke="#919191" stroke-linecap="round" stroke-linejoin="round"/>
  <path d="M36.5,35.2,36.49,11.086l4.8,3.052L45.5,8.394,40.52,4.036a6.128,6.128,0,0,0-2.632-1.353L32.862,1.5l-3.83.383a16.374,16.374,0,0,1-3.064,0L22.138,1.5,17.112,2.683A6.128,6.128,0,0,0,14.48,4.036L9.5,8.394l4.213,5.745L18.5,11.127V35.2a12.647,12.647,0,0,0,6.745.692l4.51-.9A17.192,17.192,0,0,1,36.5,35.2Z" fill="none" stroke="#464646" stroke-linejoin="round"/>
  <path d="M9.873,17.751,2.85,23.824a1.194,1.194,0,0,0,0,1.686L19.755,42.531s2.938,2.938,5.935,3.027l1.128-1.128s1.217-.861-.831-4.273S21.268,27.069,21.12,26.624s-3.638.33-6.291-2.255c-3.741-3.645-2.058-6.556-2.077-6.865C12.733,17.223,11.366,16.514,9.873,17.751Z" fill="#afafaf"/>
  <path d="M25.69,45.558l.95-.95C19.3,39.394,4.385,22.7,4.385,22.7l-.165-.065L2.85,23.824a1.194,1.194,0,0,0,0,1.686L19.755,42.531S22.693,45.469,25.69,45.558Z" fill="#dcdcdc"/>
  <circle cx="19.5" cy="28.5" r="0.672" transform="translate(-14.441 22.136) rotate(-45)" fill="#919191"/>
  <line x1="19.5" y1="28.5" x2="21.892" y2="28.504" fill="none" stroke="#464646" stroke-linecap="round" stroke-miterlimit="3.864"/>
  <circle cx="20.5" cy="31.482" r="0.672" transform="translate(-16.257 23.717) rotate(-45)" fill="#919191"/>
  <line x1="20.5" y1="31.5" x2="22.845" y2="31.504" fill="none" stroke="#464646" stroke-linecap="round" stroke-miterlimit="3.864"/>
  <circle cx="21.5" cy="34.5" r="0.672" transform="translate(-18.098 25.308) rotate(-45)" fill="#919191"/>
  <line x1="21.5" y1="34.5" x2="23.795" y2="34.504" fill="none" stroke="#464646" stroke-linecap="round" stroke-miterlimit="3.864"/>
  <path d="M26.64,44.608l.178-.178s1.217-.861-.831-4.273a16.282,16.282,0,0,1-.844-1.663l-.035.014a3.725,3.725,0,0,1-2.188-.072c-.982-.278-2.27-1.579-3.638-.543l-.226.129" fill="#c8c8c8" stroke="#919191" stroke-miterlimit="3.864"/>
  <path d="M9.228,27.979l.05-.055a6.855,6.855,0,0,0-1.1-8.63l-.052-.03-3.9,3.375" fill="#c8c8c8" stroke="#919191" stroke-miterlimit="3.864"/>
  <path d="M4.385,22.7S19.3,39.394,26.64,44.608" fill="none" stroke="#919191" stroke-miterlimit="3.864"/>
  <path d="M9.873,17.751,2.85,23.824a1.194,1.194,0,0,0,0,1.686L19.755,42.531s2.938,2.938,5.935,3.027l1.128-1.128s1.217-.861-.831-4.273S21.268,27.069,21.12,26.624s-3.638.33-6.291-2.255c-3.741-3.645-2.058-6.556-2.077-6.865C12.733,17.223,11.366,16.514,9.873,17.751Z" fill="none" stroke="#464646" stroke-miterlimit="3.864"/>
  <path d="M17.484,27.226l2.6,7.845A2.563,2.563,0,0,0,22,36.4" fill="none" stroke="#919191" stroke-miterlimit="3.864"/>
</svg>
