<svg version="1.1" id="Layer_1" xmlns="http://www.w3.org/2000/svg" xmlns:xlink="http://www.w3.org/1999/xlink" x="0px" y="0px"
	 viewBox="0 0 48 48" enable-background="new 0 0 48 48" xml:space="preserve">
<linearGradient id="SVGID_1_" gradientUnits="userSpaceOnUse" x1="-0.5" y1="-198.5" x2="41" y2="-240" gradientTransform="matrix(1 0 0 -1 0 -192)">
	<stop  offset="0" style="stop-color:#FFFFFF"/>
	<stop  offset="0.2323" style="stop-color:#FAFAFA"/>
	<stop  offset="0.4964" style="stop-color:#EDEDED"/>
	<stop  offset="0.775" style="stop-color:#D6D6D6"/>
	<stop  offset="1" style="stop-color:#BEBEBE"/>
</linearGradient>
<polygon fill="url(#SVGID_1_)" stroke="#464646" stroke-miterlimit="10" points="28.5,0.5 5.5,0.5 5.5,47.5 41.5,47.5 41.5,13.5 "/>
<linearGradient id="SVGID_2_" gradientUnits="userSpaceOnUse" x1="25.25" y1="-195.75" x2="38.25" y2="-208.75" gradientTransform="matrix(1 0 0 -1 0 -192)">
	<stop  offset="0" style="stop-color:#FFFFFF"/>
	<stop  offset="0.2214" style="stop-color:#F8F8F8"/>
	<stop  offset="0.5415" style="stop-color:#E5E5E5"/>
	<stop  offset="0.92" style="stop-color:#C6C6C6"/>
	<stop  offset="1" style="stop-color:#BEBEBE"/>
</linearGradient>
<polygon fill="url(#SVGID_2_)" stroke="#464646" stroke-linejoin="round" stroke-miterlimit="10" points="28.5,0.5 28.5,13.5 
	41.5,13.5 "/>
<rect x="9.5" y="33.5" fill="none" stroke="#6E6E6E" width="28" height="4"/>
<rect x="9.5" y="26.5" fill="none" stroke="#6E6E6E" width="28" height="4"/>
<rect x="9.5" y="40.5" fill="none" stroke="#6E6E6E" width="28" height="4"/>
	<path fill="none" stroke="#6E6E6E" stroke-linecap="round" d="M24.231,20.643l1.426-0.647c0.084-0.038,0.165-0.083,0.242-0.133
		l2.079-1.362c1.325-0.746,2.127,1.119,0.952,1.987c-0.854,0.638-1.652,1.199-2.286,1.49c-3.477,1.595-3.452,1.606-5.415,1.606
		c-1.346,0-3.339-0.211-5.89-1.338c-0.798-0.353-2.331,0.217-4.192,0.687c-0.584,0.148-1.181-0.195-1.343-0.772
		c-0.054-0.193-0.167-0.69-0.272-1.165c-0.139-0.627,0.181-1.315,0.799-1.49c0.709-0.2,1.767-0.367,2.844-0.773
		c1.588-0.599,2.812-0.989,5.21-0.126c0.072,0.026,1.634,0.792,2.048,0.999c0.108,0.054,0.223,0.089,0.343,0.105l2.652,0.357
		c1.356,0.219,0.821,2.237-0.623,2.111l-2.464-0.336c-0.265-0.036-0.523-0.113-0.764-0.229l-1.956-0.938"/>
<rect x="14.5" y="5.5" fill="none" stroke="#6E6E6E" stroke-linecap="round" width="8" height="8"/>
<rect x="17.5" y="8.5" fill="#3C91AF" stroke="#147391" stroke-linecap="round" width="8" height="8"/>
<line fill="none" stroke="#FFFFFF" x1="19" y1="12.5" x2="23" y2="12.5"/>
<polyline fill="none" stroke="#FFFFFF" stroke-linecap="round" stroke-linejoin="round" points="21.5,10.5 23.5,12.5 21.5,14.5 "/>
</svg>
