<svg id="Layer_1" data-name="Layer 1" xmlns="http://www.w3.org/2000/svg" xmlns:xlink="http://www.w3.org/1999/xlink" viewBox="0 0 48 48">
  <defs>
    <linearGradient id="Dark_Blue_Grad" data-name="Dark Blue Grad" x1="5.5" y1="11.5" x2="41.5" y2="47.5" gradientUnits="userSpaceOnUse">
      <stop offset="0" stop-color="#73b4c8"/>
      <stop offset="0.1747" stop-color="#6aaec3"/>
      <stop offset="0.4567" stop-color="#529eb5"/>
      <stop offset="0.8089" stop-color="#2c839f"/>
      <stop offset="1" stop-color="#147391"/>
    </linearGradient>
    <linearGradient id="linear-gradient" x1="26.0271" y1="19.0298" x2="31.9729" y2="24.9756" gradientUnits="userSpaceOnUse">
      <stop offset="0" stop-color="#fff"/>
      <stop offset="1" stop-color="#bebebe"/>
    </linearGradient>
    <linearGradient id="linear-gradient-2" x1="22.0714" y1="29.2143" x2="35.9286" y2="43.0714" xlink:href="#linear-gradient"/>
  </defs>
  <path d="M28.162,11.5a5.8692,5.8692,0,0,0,1.9858-4.5445,6.6408,6.6408,0,0,0-13.2794-.0461A5.9686,5.9686,0,0,0,18.8542,11.5H5.5V25.234a6.64,6.64,0,1,1,0,9.2688V47.5h36v-36Z" stroke="#464646" stroke-miterlimit="10" fill="url(#Dark_Blue_Grad)"/>
    <path d="M32.9667,21.6667c0,2.1907-1.776,5.1-3.9667,5.1s-3.9667-2.9093-3.9667-5.1a3.9667,3.9667,0,0,1,7.9334,0Z" stroke="#464646" stroke-miterlimit="10" stroke-width="1.0207" fill="url(#linear-gradient)"/>
    <path d="M37.5,41.5V32.9162A5.6981,5.6981,0,0,0,34.096,27.9a8.5858,8.5858,0,0,1-10.192,0A5.6981,5.6981,0,0,0,20.5,32.9162V41.5Z" stroke="#464646" stroke-miterlimit="10" stroke-width="1.0207" fill="url(#linear-gradient-2)"/>
    <line x1="23.5" y1="41" x2="23.5" y2="34" fill="none" stroke="#464646" stroke-miterlimit="10"/>
    <line x1="34.5" y1="41" x2="34.5" y2="34" fill="none" stroke="#464646" stroke-miterlimit="10"/>
</svg>
