<svg id="Layer_1" data-name="Layer 1" xmlns="http://www.w3.org/2000/svg" xmlns:xlink="http://www.w3.org/1999/xlink" viewBox="0 0 48 48">
    <linearGradient id="front_-45" data-name="front -45" x1="40" y1="1470" x2="20" y2="1450" gradientTransform="translate(-12 -1457)" gradientUnits="userSpaceOnUse">
      <stop offset="0" stop-color="#f2f2f2"/>
      <stop offset="0.5" stop-color="#ccc"/>
      <stop offset="0.63" stop-color="#c7c7c7"/>
      <stop offset="0.779" stop-color="#b9b9b9"/>
      <stop offset="0.938" stop-color="#a2a2a2"/>
      <stop offset="0.99" stop-color="#999"/>
    </linearGradient>
    <linearGradient id="linear-gradient" x1="45" y1="1460" x2="15" y2="1430" gradientTransform="translate(-12 -1427)" gradientUnits="userSpaceOnUse">
      <stop offset="0" stop-color="#fff"/>
      <stop offset="0.232" stop-color="#fafafa"/>
      <stop offset="0.496" stop-color="#ededed"/>
      <stop offset="0.775" stop-color="#d6d6d6"/>
      <stop offset="1" stop-color="#bebebe"/>
    </linearGradient>
    <linearGradient id="Dark_Blue_Grad_2" data-name="Dark Blue Grad 2" x1="20" y1="39" x2="23" y2="42" gradientUnits="userSpaceOnUse">
      <stop offset="0" stop-color="#74b3c7"/>
      <stop offset="0.177" stop-color="#6badc2"/>
      <stop offset="0.464" stop-color="#539db4"/>
      <stop offset="0.822" stop-color="#2d839d"/>
      <stop offset="1" stop-color="#177490"/>
    </linearGradient>
  <rect x="0.5" y="0.5" width="35" height="5" transform="translate(36 6) rotate(180)" stroke="#464646" stroke-miterlimit="10" fill="url(#front_-45)"/>
  <rect x="0.5" y="5.5" width="35" height="25" transform="translate(36 36) rotate(180)" stroke="#464646" stroke-miterlimit="10" fill="url(#linear-gradient)"/>
  <line x1="5" y1="10.5" x2="23" y2="10.5" fill="none" stroke="#a0a0a0" stroke-miterlimit="10"/>
  <line x1="5" y1="15.5" x2="19" y2="15.5" fill="none" stroke="#a0a0a0" stroke-miterlimit="10"/>
  <line x1="5" y1="25.5" x2="23" y2="25.5" fill="none" stroke="#a0a0a0" stroke-miterlimit="10"/>
  <rect x="32" y="2" width="2" height="2" fill="#6e6e6e"/>
  <rect x="28" y="2" width="2" height="2" fill="#6e6e6e"/>
  <rect x="24" y="2" width="2" height="2" fill="#6e6e6e"/>
  <line x1="1" y1="5.5" x2="35" y2="5.5" fill="none" stroke="#6e6e6e" stroke-miterlimit="10"/>
  <line x1="5" y1="20.5" x2="17" y2="20.5" fill="none" stroke="#a0a0a0" stroke-miterlimit="10"/>
  <path id="_Compound_Path_" data-name="&lt;Compound Path&gt;" d="M25.5,33.5l-9.586,9.586a2,2,0,0,0,0,2.828l0.172,0.172a2,2,0,0,0,2.828,0L28.5,36.5" stroke="#464646" stroke-miterlimit="10" fill="url(#Dark_Blue_Grad_2)"/>
  <circle cx="35.5" cy="26.5" r="12" fill="#f0f0f0" stroke="#464646" stroke-linecap="round" stroke-linejoin="round"/>
</svg>
