<svg id="Layer_1" data-name="Layer 1" xmlns="http://www.w3.org/2000/svg" xmlns:xlink="http://www.w3.org/1999/xlink" viewBox="0 0 48 48">
    <linearGradient id="linear-gradient" x1="8" y1="39" x2="13" y2="44" gradientTransform="translate(32.42 4.73) rotate(45)" gradientUnits="userSpaceOnUse">
      <stop offset="0" stop-color="#f2f2f2"/>
      <stop offset="0.99" stop-color="#999"/>
    </linearGradient>
    <linearGradient id="linear-gradient-2" x1="12.75" y1="32.25" x2="19.75" y2="39.25" gradientTransform="matrix(1, 0, 0, 1, 0, 0)" xlink:href="#linear-gradient"/>
    <linearGradient id="linear-gradient-3" x1="4.5" y1="4.5" x2="9.5" y2="9.5" gradientTransform="translate(20.399 6.5) rotate(135)" xlink:href="#linear-gradient"/>
    <linearGradient id="linear-gradient-4" x1="9.25" y1="-2.25" x2="16.25" y2="4.75" gradientTransform="translate(17.5 -0.5) rotate(90)" xlink:href="#linear-gradient"/>
    <linearGradient id="linear-gradient-5" x1="28" y1="12.111" x2="39" y2="23.111" gradientUnits="userSpaceOnUse">
      <stop offset="0" stop-color="#cde6eb"/>
      <stop offset="0.221" stop-color="#c6e2e8"/>
      <stop offset="0.542" stop-color="#b3d8e1"/>
      <stop offset="0.921" stop-color="#93c7d5"/>
      <stop offset="1" stop-color="#8cc3d2"/>
    </linearGradient>
    <linearGradient id="linear-gradient-6" x1="20.667" y1="19.444" x2="35.333" y2="34.111" gradientUnits="userSpaceOnUse">
      <stop offset="0" stop-color="#afd7e1"/>
      <stop offset="0.159" stop-color="#a4d0dc"/>
      <stop offset="0.706" stop-color="#80bcce"/>
      <stop offset="1" stop-color="#73b4c8"/>
    </linearGradient>
  <rect x="5.55" y="37.964" width="9.899" height="7.071" transform="translate(-26.27 19.58) rotate(-45)" stroke="#464646" stroke-linecap="round" stroke-linejoin="round" fill="url(#linear-gradient)"/>
  <polygon points="21.5 37.5 14.5 37.5 14.5 30.5 21.5 37.5" stroke="#464646" stroke-linecap="round" stroke-linejoin="round" fill="url(#linear-gradient-2)"/>
  <rect x="6.964" y="1.55" width="7.071" height="9.899" transform="translate(-1.521 9.328) rotate(-45)" stroke="#464646" stroke-linecap="round" stroke-linejoin="round" fill="url(#linear-gradient-3)"/>
  <polygon points="14.5 17.5 14.5 10.5 21.5 10.5 14.5 17.5" stroke="#464646" stroke-linecap="round" stroke-linejoin="round" fill="url(#linear-gradient-4)"/>
  <polygon points="44.5 17.611 33.5 11.5 22.5 17.611 33.5 23.722 44.5 17.611" fill="url(#linear-gradient-5)"/>
  <polygon points="22.5 17.611 22.5 29.833 33.5 35.944 33.5 23.722 22.5 17.611" fill="url(#linear-gradient-6)"/>
  <polygon points="33.5 23.722 33.5 35.944 44.5 29.833 44.5 17.611 33.5 23.722" fill="#3c91af"/>
  <polyline points="22.5 17.611 33.5 23.722 44.5 17.611" fill="none" stroke="#147391"/>
  <line x1="33.5" y1="23.722" x2="33.5" y2="35.944" fill="#3c91af" stroke="#147391" stroke-linejoin="round"/>
  <path d="M33.5,11.5l-11,6.111V29.833l11,6.111,11-6.111V17.611Z" fill="none" stroke="#464646" stroke-linejoin="round"/>
</svg>
