<svg id="Layer_1" data-name="Layer 1" xmlns="http://www.w3.org/2000/svg" xmlns:xlink="http://www.w3.org/1999/xlink" viewBox="0 0 48 48">
    <linearGradient id="front_-45" data-name="front -45" x1="194" y1="1470" x2="174" y2="1450" gradientTransform="translate(-166 -1457)" gradientUnits="userSpaceOnUse">
      <stop offset="0" stop-color="#f2f2f2"/>
      <stop offset="0.5" stop-color="#ccc"/>
      <stop offset="0.63" stop-color="#c7c7c7"/>
      <stop offset="0.779" stop-color="#b9b9b9"/>
      <stop offset="0.938" stop-color="#a2a2a2"/>
      <stop offset="0.99" stop-color="#999"/>
    </linearGradient>
    <linearGradient id="linear-gradient" x1="199" y1="1460" x2="169" y2="1430" gradientTransform="translate(-166 -1427)" gradientUnits="userSpaceOnUse">
      <stop offset="0" stop-color="#fff"/>
      <stop offset="0.232" stop-color="#fafafa"/>
      <stop offset="0.496" stop-color="#ededed"/>
      <stop offset="0.775" stop-color="#d6d6d6"/>
      <stop offset="1" stop-color="#bebebe"/>
    </linearGradient>
    <linearGradient id="front_-45-2" x1="18.751" y1="18.251" x2="45.25" y2="44.75" gradientTransform="matrix(1, 0, 0, 1, 0, 0)" xlink:href="#front_-45"/>
    <linearGradient id="New_Gradient_Swatch_1" data-name="New Gradient Swatch 1" x1="21.251" y1="19.751" x2="42.75" y2="41.25" gradientUnits="userSpaceOnUse">
      <stop offset="0" stop-color="#cde6eb"/>
      <stop offset="0.221" stop-color="#c6e2e8"/>
      <stop offset="0.542" stop-color="#b3d8e1"/>
      <stop offset="0.921" stop-color="#93c7d5"/>
      <stop offset="1" stop-color="#8cc3d2"/>
    </linearGradient>
    <linearGradient id="linear-gradient-2" x1="32" y1="47.5" x2="32" y2="42.5" gradientUnits="userSpaceOnUse">
      <stop offset="0" stop-color="#b1b1b1"/>
      <stop offset="0.26" stop-color="#acacac"/>
      <stop offset="0.567" stop-color="#9e9e9e"/>
      <stop offset="0.897" stop-color="#868686"/>
      <stop offset="1" stop-color="#7d7d7d"/>
    </linearGradient>
  <rect x="0.5" y="0.5" width="35" height="5" transform="translate(36 6) rotate(180)" fill="url(#front_-45)"/>
  <rect x="0.5" y="5.5" width="35" height="25" transform="translate(36 36) rotate(180)" fill="url(#linear-gradient)"/>
  <line x1="5" y1="10.5" x2="23" y2="10.5" fill="none" stroke="#a0a0a0" stroke-miterlimit="10"/>
  <line x1="5" y1="15.5" x2="19" y2="15.5" fill="none" stroke="#a0a0a0" stroke-miterlimit="10"/>
  <line x1="5" y1="20.5" x2="16.5" y2="20.5" fill="none" stroke="#a0a0a0" stroke-miterlimit="10"/>
  <line x1="5" y1="25.5" x2="16.5" y2="25.5" fill="none" stroke="#a0a0a0" stroke-miterlimit="10"/>
  <rect x="32" y="2" width="2" height="2" fill="#6e6e6e"/>
  <rect x="28" y="2" width="2" height="2" fill="#6e6e6e"/>
  <rect x="24" y="2" width="2" height="2" fill="#6e6e6e"/>
  <line x1="0.5" y1="5.5" x2="35.5" y2="5.5" fill="none" stroke="#6e6e6e" stroke-miterlimit="10"/>
  <rect x="0.5" y="0.5" width="35" height="30" transform="translate(36 31) rotate(180)" fill="none" stroke="#464646" stroke-miterlimit="10"/>
  <rect x="16.501" y="20.501" width="30.999" height="21.999" stroke="#464646" stroke-miterlimit="10" fill="url(#front_-45-2)"/>
  <rect x="18.501" y="22.501" width="26.999" height="15.999" stroke="#464646" stroke-miterlimit="10" fill="url(#New_Gradient_Swatch_1)"/>
  <polygon points="42.5 47.5 21.5 47.5 21.5 45.72 28.159 42.5 35.842 42.5 42.5 45.72 42.5 47.5" stroke="#464646" stroke-miterlimit="10" fill="url(#linear-gradient-2)"/>
  <line x1="26" y1="45.5" x2="38" y2="45.5" stroke="#6e6e6e" stroke-miterlimit="10"/>
</svg>
