<svg id="Layer_1" data-name="Layer 1" xmlns="http://www.w3.org/2000/svg" xmlns:xlink="http://www.w3.org/1999/xlink" viewBox="0 0 48 48">
    <linearGradient id="linear-gradient" x1="0.5" y1="0.5" x2="42.5" y2="42.5" gradientUnits="userSpaceOnUse">
      <stop offset="0" stop-color="#fff"/>
      <stop offset="0.2323" stop-color="#fafafa"/>
      <stop offset="0.4964" stop-color="#ededed"/>
      <stop offset="0.775" stop-color="#d6d6d6"/>
      <stop offset="1" stop-color="#bebebe"/>
    </linearGradient>
    <linearGradient id="linear-gradient-2" x1="9" y1="6.6875" x2="14" y2="11.6875" gradientUnits="userSpaceOnUse">
      <stop offset="0" stop-color="#cde6eb"/>
      <stop offset="0.2214" stop-color="#c6e2e8"/>
      <stop offset="0.5419" stop-color="#b3d8e1"/>
      <stop offset="0.9212" stop-color="#93c7d5"/>
      <stop offset="1" stop-color="#8cc3d2"/>
    </linearGradient>
    <linearGradient id="linear-gradient-3" x1="5.5625" y1="10.125" x2="12.4375" y2="17" gradientUnits="userSpaceOnUse">
      <stop offset="0" stop-color="#afd7e1"/>
      <stop offset="0.1588" stop-color="#a4d0dc"/>
      <stop offset="0.7059" stop-color="#80bcce"/>
      <stop offset="1" stop-color="#73b4c8"/>
    </linearGradient>
    <linearGradient id="Dark_Blue_Grad" data-name="Dark Blue Grad" x1="647.6847" y1="-245.3717" x2="656.17" y2="-245.3717" gradientTransform="translate(-233.8717 -620.4273) rotate(90)" gradientUnits="userSpaceOnUse">
      <stop offset="0" stop-color="#73b4c8"/>
      <stop offset="0.1747" stop-color="#6aaec3"/>
      <stop offset="0.4567" stop-color="#529eb5"/>
      <stop offset="0.8089" stop-color="#2c839f"/>
      <stop offset="1" stop-color="#147391"/>
    </linearGradient>
    <linearGradient id="Dark_Blue_Grad-2" x1="26.1612" y1="26.1612" x2="43.8388" y2="43.8388" gradientTransform="matrix(1, 0, 0, 1, 0, 0)" xlink:href="#Dark_Blue_Grad"/>
    <linearGradient id="linear-gradient-4" x1="25.5" y1="35.25" x2="44.5" y2="35.25" xlink:href="#linear-gradient"/>
  <rect x="0.5" y="0.5" width="42.0001" height="42" stroke="#464646" stroke-miterlimit="10" fill="url(#linear-gradient)"/>
  <line x1="3" y1="12.5" x2="20" y2="12.5" fill="none" stroke="#969696" stroke-linejoin="round"/>
  <line x1="11.5" y1="3" x2="11.5" y2="21" fill="none" stroke="#969696" stroke-linejoin="round"/>
  <line x1="3" y1="31.5" x2="20" y2="31.5" fill="none" stroke="#969696" stroke-linejoin="round"/>
  <line x1="11.5" y1="22" x2="11.5" y2="40" fill="none" stroke="#969696" stroke-linejoin="round"/>
    <polygon points="16.5 9.188 11.5 6.063 6.5 9.188 11.5 12.313 16.5 9.188" fill="url(#linear-gradient-2)"/>
    <polygon points="6.5 9.188 6.5 14.813 11.5 17.938 11.5 12.313 6.5 9.188" fill="url(#linear-gradient-3)"/>
    <polygon points="11.5 12.313 11.5 17.938 16.5 14.813 16.5 9.188 11.5 12.313" fill="#3c91af"/>
    <polyline points="6.5 9.188 11.5 12.313 16.5 9.188" fill="none" stroke="#464646"/>
    <line x1="11.5" y1="12.3125" x2="11.5" y2="17.9375" fill="none" stroke="#464646"/>
    <path d="M11.5,6.0625l-5,3.125v5.625l5,3.125,5-3.125V9.1875Z" fill="none" stroke="#464646" stroke-linejoin="round"/>
  <rect x="7.2574" y="27.2574" width="8.4853" height="8.4853" fill="url(#Dark_Blue_Grad)" stroke="#464646" stroke-linecap="round" stroke-linejoin="round" transform="translate(-18.9056 17.3579) rotate(-45)"/>
  <polyline points="30.5 8 30.5 11.5 24.5 11.5 24.5 5.5 29 5.5" fill="none" stroke="#464646"/>
    <polyline points="30.5 5.5 27.5 9.5 26.5 7.5" fill="none" stroke="#147391" stroke-linecap="round" stroke-linejoin="round"/>
  <polyline points="30.5 16 30.5 19.5 24.5 19.5 24.5 13.5 29 13.5" fill="none" stroke="#464646"/>
    <polyline points="30.5 13.5 27.5 17.5 26.5 15.5" fill="none" stroke="#147391" stroke-linecap="round" stroke-linejoin="round"/>
  <line x1="33" y1="8.5" x2="39.5" y2="8.5" fill="none" stroke="#969696" stroke-linejoin="round"/>
  <line x1="33" y1="16.5" x2="39.5" y2="16.5" fill="none" stroke="#969696" stroke-linejoin="round"/>
  <polyline points="25.001 27.5 24.5 27.5 24.5 21.5 29 21.5" fill="none" stroke="#464646"/>
    <polyline points="30.5 21.5 27.5 25.5 26.5 23.5" fill="none" stroke="#147391" stroke-linecap="round" stroke-linejoin="round"/>
  <circle cx="35" cy="35" r="12.5" stroke="#464646" stroke-linecap="round" stroke-linejoin="round" fill="url(#Dark_Blue_Grad-2)"/>
  <path d="M42.5611,32.1863l-.0746.096.038-.1273,1.1765-1.373c.6039-1.234-.6038-2.51-1.8115-1.234-.4347.5512-.8882,1.1368-1.3111,1.6839.1291-.2278.94-1.08.8667-1.5749-.1239-.8466-1.0374-1.3629-1.96-.3874-1.0474,1.3282-3.1167,3.5635-3.6585,4.23l-.0567.0559-1.5219.5455s-.5906-1.2763-2.9646-1.2763a7.8226,7.8226,0,0,0-4.1549,1.2763l-1.1878-.6386s-.9913,4.6457,0,6.3828a1.4593,1.4593,0,0,0,1.1878.6385,25.4125,25.4125,0,0,0,4.748,1.2762,25.22,25.22,0,0,0,7.7167-1.9147c2.968-3.83,4.155-5.1908,4.7489-6.4249S43.7481,30.9093,42.5611,32.1863Zm-2.0029-.9284c-.5731.7413-1.0837,1.4034-1.4,1.7938l0,0Z" fill="url(#linear-gradient-4)"/>
  <path d="M31.8764,37.9305l2.602-1.1192a1.86,1.86,0,0,1,.69-.1413A9.0093,9.0093,0,0,0,39,35.3773c1.187-.6385.5931-3.191-1.1912-2.5524l-3.561,1.2762s-.5906-1.2762-2.9646-1.2762a7.8216,7.8216,0,0,0-4.1549,1.2762l-1.1879-.6385s-.9912,4.6455,0,6.3827a1.46,1.46,0,0,0,1.1879.6385,25.4125,25.4125,0,0,0,4.748,1.2762,25.2213,25.2213,0,0,0,7.7168-1.9147c2.9679-3.83,4.1549-5.1908,4.7488-6.4249s-.5939-2.5111-1.7809-1.2341c-1.7818,2.2989-2.7077,3.4479-3.1629,3.9988a1.2907,1.2907,0,0,1-.9986.4692h-3.063" fill="none" stroke="#147391" stroke-linecap="round" stroke-miterlimit="10"/>
  <path d="M40.577,31.2339c.1264-.2255.9416-1.08.8681-1.5769-.1239-.8467-1.0375-1.3629-1.96-.3874-1.0474,1.3283-3.1167,3.5635-3.6585,4.23" fill="none" stroke="#147391" stroke-miterlimit="10"/>
  <path d="M39.9566,35.1518l3.7444-4.37c.6038-1.2341-.6038-2.51-1.8115-1.2341-1.0482,1.3291-2.217,2.8721-2.7589,3.5387" fill="none" stroke="#147391" stroke-miterlimit="10"/>
</svg>
