<svg id="Layer_1" data-name="Layer 1" xmlns="http://www.w3.org/2000/svg" xmlns:xlink="http://www.w3.org/1999/xlink" viewBox="0 0 48 48">
    <linearGradient id="front_-45" data-name="front -45" x1="40" y1="1470" x2="20" y2="1450" gradientTransform="translate(48 1463) rotate(180)" gradientUnits="userSpaceOnUse">
      <stop offset="0" stop-color="#f2f2f2"/>
      <stop offset="0.5" stop-color="#ccc"/>
      <stop offset="0.63" stop-color="#c7c7c7"/>
      <stop offset="0.779" stop-color="#b9b9b9"/>
      <stop offset="0.938" stop-color="#a2a2a2"/>
      <stop offset="0.99" stop-color="#999"/>
    </linearGradient>
    <linearGradient id="linear-gradient" x1="45" y1="1460" x2="15" y2="1430" gradientTransform="translate(48 1463) rotate(180)" gradientUnits="userSpaceOnUse">
      <stop offset="0" stop-color="#fff"/>
      <stop offset="0.232" stop-color="#fafafa"/>
      <stop offset="0.496" stop-color="#ededed"/>
      <stop offset="0.775" stop-color="#d6d6d6"/>
      <stop offset="1" stop-color="#bebebe"/>
    </linearGradient>
  <polyline points="0.5 5.5 0.5 0.5 35.5 0.5 35.5 5.5" fill="url(#front_-45)"/>
  <polyline points="35.5 5.5 35.5 30.5 0.5 30.5 0.5 5.5" fill="url(#linear-gradient)"/>
  <line x1="5" y1="10.5" x2="23" y2="10.5" fill="none" stroke="#a0a0a0" stroke-miterlimit="10"/>
  <line x1="5" y1="15.5" x2="19" y2="15.5" fill="none" stroke="#a0a0a0" stroke-miterlimit="10"/>
  <line x1="5" y1="25.5" x2="23" y2="25.5" fill="none" stroke="#a0a0a0" stroke-miterlimit="10"/>
  <rect x="32" y="2" width="2" height="2" fill="#6e6e6e"/>
  <rect x="28" y="2" width="2" height="2" fill="#6e6e6e"/>
  <rect x="24" y="2" width="2" height="2" fill="#6e6e6e"/>
  <line x1="1" y1="5.5" x2="35" y2="5.5" fill="none" stroke="#6e6e6e" stroke-miterlimit="10"/>
  <line x1="5" y1="20.5" x2="17" y2="20.5" fill="none" stroke="#a0a0a0" stroke-miterlimit="10"/>
  <rect x="0.5" y="0.5" width="35" height="30" fill="none" stroke="#464646" stroke-miterlimit="10"/>
    <polygon points="33.5 35.5 36.5 47.5 28.5 47.5 31.5 35.5 33.5 35.5" fill="#147391" stroke="#464646" stroke-linecap="round" stroke-linejoin="round"/>
    <circle cx="32.5" cy="31.5" r="2" fill="#147391" stroke="#464646" stroke-linecap="round" stroke-linejoin="round"/>
    <path d="M38.5,36.5a6.408,6.408,0,0,0,0-10" fill="none" stroke="#464646" stroke-linecap="round" stroke-linejoin="round" stroke-width="3"/>
    <path d="M42.5,40.5a12.125,12.125,0,0,0,0-18" fill="none" stroke="#464646" stroke-linecap="round" stroke-linejoin="round" stroke-width="3"/>
  <path d="M26.5,36.5a6.408,6.408,0,0,1,0-10" fill="none" stroke="#464646" stroke-linecap="round" stroke-linejoin="round" stroke-width="3"/>
  <path d="M22.5,40.5a12.125,12.125,0,0,1,0-18" fill="none" stroke="#464646" stroke-linecap="round" stroke-linejoin="round" stroke-width="3"/>
  <path d="M42.5,40.5a12.125,12.125,0,0,0,0-18" fill="none" stroke="#c8c8c8" stroke-linecap="round" stroke-linejoin="round"/>
  <path d="M38.5,26.5a6.408,6.408,0,0,1,0,10" fill="none" stroke="#c8c8c8" stroke-linecap="round" stroke-linejoin="round"/>
  <path d="M26.5,26.5a6.408,6.408,0,0,0,0,10" fill="none" stroke="#c8c8c8" stroke-linecap="round" stroke-linejoin="round"/>
  <path d="M22.5,22.5a12.125,12.125,0,0,0,0,18" fill="none" stroke="#c8c8c8" stroke-linecap="round" stroke-linejoin="round"/>
</svg>
