<svg id="Layer_1" data-name="Layer 1" xmlns="http://www.w3.org/2000/svg" xmlns:xlink="http://www.w3.org/1999/xlink" viewBox="0 0 48 48">
    <linearGradient id="linear-gradient" x1="2.125" y1="13.875" x2="14.875" y2="26.625" gradientUnits="userSpaceOnUse">
      <stop offset="0" stop-color="#ffffff"/>
      <stop offset="0.356" stop-color="#f8f8f8"/>
      <stop offset="0.871" stop-color="#e5e5e5"/>
      <stop offset="1" stop-color="#dfdfdf"/>
    </linearGradient>
    <linearGradient id="linear-gradient-2" x1="13.375" y1="27.875" x2="34.625" y2="6.625" gradientUnits="userSpaceOnUse">
      <stop offset="0" stop-color="#bebebe"/>
      <stop offset="0.03" stop-color="#c9c9c9"/>
      <stop offset="0.405" stop-color="#e5e5e5"/>
      <stop offset="0.757" stop-color="#f8f8f8"/>
      <stop offset="1" stop-color="#ffffff"/>
    </linearGradient>
    <linearGradient id="linear-gradient-3" x1="-0.375" y1="25.875" x2="17.375" y2="43.625" gradientUnits="userSpaceOnUse">
      <stop offset="0" stop-color="#e1e1e1"/>
      <stop offset="0.159" stop-color="#dcdcdc"/>
      <stop offset="0.706" stop-color="#cecece"/>
      <stop offset="1" stop-color="#c8c8c8"/>
    </linearGradient>
    <linearGradient id="linear-gradient-4" x1="7.687" y1="16.687" x2="26.813" y2="-2.437" gradientUnits="userSpaceOnUse">
      <stop offset="0" stop-color="#bebebe"/>
      <stop offset="0.08" stop-color="#c6c6c6"/>
      <stop offset="0.459" stop-color="#e5e5e5"/>
      <stop offset="0.779" stop-color="#f8f8f8"/>
      <stop offset="1" stop-color="#ffffff"/>
    </linearGradient>
    <linearGradient id="paper_gradient" data-name="paper gradient" x1="16.656" y1="4.969" x2="26.344" y2="14.656" gradientUnits="userSpaceOnUse">
      <stop offset="0" stop-color="#ffffff"/>
      <stop offset="0.221" stop-color="#f8f8f8"/>
      <stop offset="0.541" stop-color="#e5e5e5"/>
      <stop offset="0.92" stop-color="#c6c6c6"/>
      <stop offset="1" stop-color="#bebebe"/>
    </linearGradient>
    <linearGradient id="paper_gradient-2" x1="25.308" y1="25.308" x2="43.692" y2="43.692" xlink:href="#paper_gradient"/>
    <linearGradient id="front_-45" data-name="front -45" x1="30.964" y1="30.964" x2="38.036" y2="38.036" gradientUnits="userSpaceOnUse">
      <stop offset="0" stop-color="#f2f2f2"/>
      <stop offset="0.5" stop-color="#cccccc"/>
      <stop offset="0.63" stop-color="#c7c7c7"/>
      <stop offset="0.779" stop-color="#b9b9b9"/>
      <stop offset="0.938" stop-color="#a2a2a2"/>
      <stop offset="0.99" stop-color="#999999"/>
    </linearGradient>
  <polygon points="13.5 28 3.5 22 3.5 12.5 13.5 18.5 13.5 28" fill="url(#linear-gradient)"/>
  <polygon points="34.5 6.5 34.5 16 13.5 28 13.5 18.5 34.5 6.5" fill="url(#linear-gradient-2)"/>
  <polygon points="13.5 47.5 3.5 41.5 3.5 22 13.5 28 13.5 47.5" fill="url(#linear-gradient-3)"/>
  <polygon points="34.5 16 34.5 35.5 13.5 47.5 13.5 28 34.5 16" fill="#afafaf"/>
  <polygon points="10 13.75 3.5 12.5 24.5 0.5 31 1.75 10 13.75" fill="url(#linear-gradient-4)"/>
  <polygon points="13.5 18.5 8.5 13.125 29.5 1.125 34.5 6.5 13.5 18.5" fill="url(#paper_gradient)"/>
  <line x1="13.5" y1="47.5" x2="13.5" y2="28" fill="none" stroke="#919191" stroke-linejoin="round"/>
  <line x1="13.5" y1="28" x2="13.5" y2="18.5" fill="none" stroke="#6e6e6e" stroke-linejoin="round"/>
  <polyline points="9.156 13.588 3.5 12.5 13.5 18.5 34.5 6.5" fill="none" stroke="#6e6e6e" stroke-linejoin="round"/>
  <polyline points="13.5 18.5 8.5 13.125 29.5 1.125" fill="none" stroke="#6e6e6e" stroke-linejoin="round"/>
  <polygon points="30.4 2.093 31 1.75 29.881 1.535 29.5 1.125 29.059 1.377 24.5 0.5 3.5 12.5 3.5 41.5 13.5 47.5 34.5 35.5 34.5 6.5 30.4 2.093" fill="none" stroke="#464646" stroke-linejoin="round"/>
  <circle cx="34.5" cy="34.5" r="13" stroke="#464646" stroke-miterlimit="10" fill="url(#paper_gradient-2)"/>
  <circle cx="34.5" cy="34.5" r="5" stroke="#6e6e6e" stroke-miterlimit="10" fill="url(#front_-45)"/>
  <circle cx="34.5" cy="34.5" r="3" fill="#ffffff" stroke="#6e6e6e" stroke-miterlimit="10"/>
</svg>
