<svg version="1.1" id="Layer_1" xmlns="http://www.w3.org/2000/svg" xmlns:xlink="http://www.w3.org/1999/xlink" x="0px" y="0px"
	 viewBox="0 0 48 48" enable-background="new 0 0 48 48" xml:space="preserve">
<linearGradient id="SVGID_1_" gradientUnits="userSpaceOnUse" x1="6.3499" y1="7.2359" x2="37.057" y2="37.943">
	<stop  offset="0" style="stop-color:#73B4C8"/>
	<stop  offset="0.1747" style="stop-color:#6AAEC3"/>
	<stop  offset="0.4567" style="stop-color:#529EB5"/>
	<stop  offset="0.8089" style="stop-color:#2C839F"/>
	<stop  offset="1" style="stop-color:#147391"/>
</linearGradient>
<path fill="url(#SVGID_1_)" stroke="#464646" stroke-miterlimit="10" d="M17.5,45v-9.5h-5c-0.552,0-1-0.448-1-1v-3
	c0-0.552,0.448-1,1-1h5V21L42,33L17.5,45z M26.5,4.5h-16v4h-5c-0.552,0-1,0.448-1,1v3c0,0.552,0.448,1,1,1h5v3h-5
	c-0.552,0-1,0.448-1,1v3c0,0.552,0.448,1,1,1h5v4h5V17l14.82,7.64c3.058-1.438,5.18-4.537,5.18-8.14v-3
	C35.5,8.529,31.471,4.5,26.5,4.5z"/>
</svg>
