<svg id="Layer_1" data-name="Layer 1" xmlns="http://www.w3.org/2000/svg" xmlns:xlink="http://www.w3.org/1999/xlink" width="48" height="48" viewBox="0 0 48 48">
  <defs>
    <linearGradient id="linear-gradient" x1="3.5" y1="41.5" x2="45" gradientTransform="matrix(1, 0, 0, -1, 0, 48)" gradientUnits="userSpaceOnUse">
      <stop offset="0" stop-color="#fff"/>
      <stop offset="0.232" stop-color="#fafafa"/>
      <stop offset="0.496" stop-color="#ededed"/>
      <stop offset="0.775" stop-color="#d6d6d6"/>
      <stop offset="1" stop-color="#bebebe"/>
    </linearGradient>
    <linearGradient id="paper_gradient" data-name="paper gradient" x1="29.25" y1="44.25" x2="42.25" y2="31.25" gradientTransform="matrix(1, 0, 0, -1, 0, 48)" gradientUnits="userSpaceOnUse">
      <stop offset="0" stop-color="#fff"/>
      <stop offset="0.221" stop-color="#f8f8f8"/>
      <stop offset="0.541" stop-color="#e5e5e5"/>
      <stop offset="0.92" stop-color="#c6c6c6"/>
      <stop offset="1" stop-color="#bebebe"/>
    </linearGradient>
  </defs>
  <polygon points="32.5 0.5 9.5 0.5 9.5 47.5 45.5 47.5 45.5 13.5 32.5 0.5" stroke="#464646" stroke-miterlimit="10" fill="url(#linear-gradient)"/>
  <polygon points="32.5 0.5 32.5 13.5 45.5 13.5 32.5 0.5" stroke="#464646" stroke-linejoin="round" fill="url(#paper_gradient)"/>
  <rect x="0.5" y="26.5" width="47" height="16" fill="#5e297a" stroke="#464646" stroke-miterlimit="10"/>
  <g>
    <path d="M3.978,37.9v-7.7H5.256v6.6H8.269v1.1Z" fill="#fff"/>
    <path d="M13.56,35.86a1.921,1.921,0,0,1-.726,1.592,3.17,3.17,0,0,1-2.024.578,4.2,4.2,0,0,1-1.032-.14,2.74,2.74,0,0,1-.8-.311v-1.4a2.8,2.8,0,0,0,.891.537,2.92,2.92,0,0,0,1.085.22,1.482,1.482,0,0,0,.916-.244.842.842,0,0,0,.32-.712,1.046,1.046,0,0,0-.317-.735,5.058,5.058,0,0,0-1.2-.806,4.078,4.078,0,0,1-1.295-.98,1.916,1.916,0,0,1-.424-1.244,1.979,1.979,0,0,1,.322-1.109,2.137,2.137,0,0,1,.924-.768,3.236,3.236,0,0,1,1.364-.277,5.033,5.033,0,0,1,.983.1,3.053,3.053,0,0,1,.688.2V31.7a2.3,2.3,0,0,0-.755-.4,2.864,2.864,0,0,0-.9-.148,1.441,1.441,0,0,0-.916.268.851.851,0,0,0-.341.7,1.1,1.1,0,0,0,.113.515,1.31,1.31,0,0,0,.354.408,6.051,6.051,0,0,0,.876.527,4.767,4.767,0,0,1,1.464,1.066A1.861,1.861,0,0,1,13.56,35.86Z" fill="#fff"/>
    <path d="M21.466,33.948a4.1,4.1,0,0,1-.513,2.073,3.471,3.471,0,0,1-1.469,1.386,4.783,4.783,0,0,1-2.2.489H14.961v-7.7h2.38a4.413,4.413,0,0,1,3.094.956A3.634,3.634,0,0,1,21.466,33.948Zm-1.354.021a2.59,2.59,0,0,0-.736-1.985,2.93,2.93,0,0,0-2.084-.69H16.24v5.5h1.031a2.594,2.594,0,0,0,2.841-2.825Z" fill="#fff"/>
    <path d="M25.687,35.1V37.9H24.415V35.135l-2.5-4.942h1.45l1.552,3.212a1.581,1.581,0,0,1,.11.285c.024.086.046.158.068.215h.01a2.072,2.072,0,0,1,.177-.489l1.607-3.223h1.353Z" fill="#fff"/>
    <path d="M34.249,37.9l-3.528-5.7a2.071,2.071,0,0,1-.275-.527h-.038a3.728,3.728,0,0,1,.052.591c.013.312.019.521.019.629V37.9H29.222v-7.7h1.616l3.48,5.694.243.424h.021c-.011-.068-.023-.249-.037-.545s-.022-.527-.022-.7V30.193h1.256v7.7Z" fill="#fff"/>
    <path d="M42.655,37.9l-.7-1.945H38.869L38.2,37.9H36.8l2.916-7.7h1.418l2.927,7.7Zm-2.234-6.548h-.032a2.863,2.863,0,0,1-.114.553l-1.052,2.971h2.363L40.528,31.9A2.875,2.875,0,0,1,40.421,31.348Z" fill="#fff"/>
  </g>
</svg>
