<svg version="1.1" id="Layer_1" xmlns="http://www.w3.org/2000/svg" xmlns:xlink="http://www.w3.org/1999/xlink" x="0px" y="0px"
	 viewBox="0 0 48 48" enable-background="new 0 0 48 48" xml:space="preserve">
	<linearGradient id="SVGID_3_" gradientUnits="userSpaceOnUse" x1="18.3787" y1="138.3787" x2="22.6213" y2="142.6213">
		<stop  offset="0" style="stop-color:#FFFFFF"/>
		<stop  offset="0.2214" style="stop-color:#F8F8F8"/>
		<stop  offset="0.5415" style="stop-color:#E5E5E5"/>
		<stop  offset="0.92" style="stop-color:#C6C6C6"/>
		<stop  offset="1" style="stop-color:#BEBEBE"/>
	</linearGradient>
	<path fill="url(#SVGID_3_)" stroke="#5A5A5A" stroke-miterlimit="10" d="M23.5,140.5c0,1.7-1.3,3-3,3h0c-1.7,0-3-1.3-3-3l0,0
		c0-1.7,1.3-3,3-3h0C22.2,137.5,23.5,138.8,23.5,140.5L23.5,140.5z"/>
<linearGradient id="SVGID_4_" gradientUnits="userSpaceOnUse" x1="1.5" y1="4.5" x2="34.5" y2="37.5">
	<stop  offset="0" style="stop-color:#FFFFFF"/>
	<stop  offset="0.2214" style="stop-color:#F8F8F8"/>
	<stop  offset="0.5415" style="stop-color:#E5E5E5"/>
	<stop  offset="0.92" style="stop-color:#C6C6C6"/>
	<stop  offset="1" style="stop-color:#BEBEBE"/>
</linearGradient>
<rect x="5" y="1" fill="url(#SVGID_4_)" width="26" height="40"/>
<linearGradient id="SVGID_5_" gradientUnits="userSpaceOnUse" x1="-8.75" y1="9.75" x2="13.75" y2="32.25">
	<stop  offset="0" style="stop-color:#F2F2F2"/>
	<stop  offset="0.5" style="stop-color:#CCCCCC"/>
	<stop  offset="0.6296" style="stop-color:#C7C7C7"/>
	<stop  offset="0.7792" style="stop-color:#B9B9B9"/>
	<stop  offset="0.9383" style="stop-color:#A2A2A2"/>
	<stop  offset="0.99" style="stop-color:#999999"/>
</linearGradient>
<rect x="0.5" y="0.5" fill="url(#SVGID_5_)" stroke="#5A5A5A" stroke-miterlimit="10" width="4" height="41"/>
<rect x="9.5" y="7.5" fill="#FFFFFF" stroke="#5A5A5A" width="17" height="8"/>
<line fill="none" stroke="#5A5A5A" x1="21" y1="12.5" x2="11" y2="12.5"/>
<line fill="none" stroke="#5A5A5A" x1="24" y1="10.5" x2="11" y2="10.5"/>
<polygon fill="none" stroke="#464646" stroke-width="0.9928" stroke-miterlimit="10" points="31.5,41.5 0.5,41.5 0.5,0.5 31.5,0.5 
	"/>
<linearGradient id="SVGID_6_" gradientUnits="userSpaceOnUse" x1="25.3076" y1="25.3076" x2="43.6924" y2="43.6924">
	<stop  offset="0" style="stop-color:#73B4C8"/>
	<stop  offset="0.1747" style="stop-color:#6AAEC3"/>
	<stop  offset="0.4567" style="stop-color:#529EB5"/>
	<stop  offset="0.8089" style="stop-color:#2C839F"/>
	<stop  offset="1" style="stop-color:#147391"/>
</linearGradient>
<circle fill="url(#SVGID_6_)" stroke="#464646" stroke-linecap="round" stroke-linejoin="round" stroke-miterlimit="10" cx="34.5" cy="34.5" r="13"/>
<path fill="none" stroke="#147391" stroke-width="4" stroke-miterlimit="10" d="M28,42v-4c0-2.8,2.2-5,5-5h8.5"/>
<polyline fill="none" stroke="#147391" stroke-width="4" stroke-miterlimit="10" points="36.2,27.3 42,33 36.2,38.8 "/>
<path fill="none" stroke="#FFFFFF" stroke-width="2" stroke-miterlimit="10" d="M28,41v-3c0-2.8,2.2-5,5-5h8.5"/>
<polyline fill="none" stroke="#FFFFFF" stroke-width="2" stroke-miterlimit="10" points="37,28 42,33 37,38 "/>
</svg>