<svg id="Layer_1" data-name="Layer 1" xmlns="http://www.w3.org/2000/svg" xmlns:xlink="http://www.w3.org/1999/xlink" viewBox="0 0 48 48">
    <linearGradient id="front_-45" data-name="front -45" x1="40" y1="1470" x2="20" y2="1450" gradientTransform="translate(-12 -1457)" gradientUnits="userSpaceOnUse">
      <stop offset="0" stop-color="#f2f2f2"/>
      <stop offset="0.5" stop-color="#ccc"/>
      <stop offset="0.63" stop-color="#c7c7c7"/>
      <stop offset="0.779" stop-color="#b9b9b9"/>
      <stop offset="0.938" stop-color="#a2a2a2"/>
      <stop offset="0.99" stop-color="#999"/>
    </linearGradient>
    <linearGradient id="linear-gradient" x1="45" y1="1460" x2="15" y2="1430" gradientTransform="translate(-12 -1427)" gradientUnits="userSpaceOnUse">
      <stop offset="0" stop-color="#fff"/>
      <stop offset="0.232" stop-color="#fafafa"/>
      <stop offset="0.496" stop-color="#ededed"/>
      <stop offset="0.775" stop-color="#d6d6d6"/>
      <stop offset="1" stop-color="#bebebe"/>
    </linearGradient>
    <linearGradient id="front_-45-2" x1="23.5" y1="13.5" x2="52.5" y2="42.5" gradientTransform="matrix(1, 0, 0, 1, 0, 0)" xlink:href="#front_-45"/>
    <linearGradient id="front_-45-3" x1="35" y1="10.5" x2="41" y2="16.5" gradientTransform="matrix(1, 0, 0, 1, 0, 0)" xlink:href="#front_-45"/>
    <linearGradient id="front_-45-4" x1="35" y1="14.5" x2="41" y2="20.5" gradientTransform="matrix(1, 0, 0, 1, 0, 0)" xlink:href="#front_-45"/>
    <linearGradient id="front_-45-5" x1="35" y1="18.5" x2="41" y2="24.5" gradientTransform="matrix(1, 0, 0, 1, 0, 0)" xlink:href="#front_-45"/>
    <linearGradient id="linear-gradient-2" x1="17.5" y1="23.5" x2="27.5" y2="33.5" gradientUnits="userSpaceOnUse">
      <stop offset="0" stop-color="#cde6eb"/>
      <stop offset="0.221" stop-color="#c6e2e8"/>
      <stop offset="0.542" stop-color="#b3d8e1"/>
      <stop offset="0.921" stop-color="#93c7d5"/>
      <stop offset="1" stop-color="#8cc3d2"/>
    </linearGradient>
    <linearGradient id="linear-gradient-3" x1="10.5" y1="30.5" x2="24.5" y2="44.5" gradientUnits="userSpaceOnUse">
      <stop offset="0" stop-color="#afd7e1"/>
      <stop offset="0.159" stop-color="#a4d0dc"/>
      <stop offset="0.706" stop-color="#80bcce"/>
      <stop offset="1" stop-color="#73b4c8"/>
    </linearGradient>
  <rect x="0.5" y="0.5" width="35" height="5" transform="translate(36 6) rotate(180)" stroke="#464646" stroke-miterlimit="10" fill="url(#front_-45)"/>
  <rect x="0.5" y="5.5" width="35" height="25" transform="translate(36 36) rotate(180)" stroke="#464646" stroke-miterlimit="10" fill="url(#linear-gradient)"/>
  <line x1="5" y1="10.5" x2="23" y2="10.5" fill="none" stroke="#a0a0a0" stroke-miterlimit="10"/>
  <line x1="5" y1="15.5" x2="19" y2="15.5" fill="none" stroke="#a0a0a0" stroke-miterlimit="10"/>
  <line x1="5" y1="25.5" x2="23" y2="25.5" fill="none" stroke="#a0a0a0" stroke-miterlimit="10"/>
  <rect x="32" y="2" width="2" height="2" fill="#6e6e6e"/>
  <rect x="28" y="2" width="2" height="2" fill="#6e6e6e"/>
  <rect x="24" y="2" width="2" height="2" fill="#6e6e6e"/>
  <line x1="1" y1="5.5" x2="35" y2="5.5" fill="none" stroke="#6e6e6e" stroke-miterlimit="10"/>
  <line x1="5" y1="20.5" x2="17" y2="20.5" fill="none" stroke="#a0a0a0" stroke-miterlimit="10"/>
  <rect x="28.5" y="8.5" width="19" height="39" stroke="#464646" stroke-miterlimit="10" fill="url(#front_-45-2)"/>
  <line x1="32" y1="13.5" x2="44" y2="13.5" stroke="#6e6e6e" stroke-miterlimit="10" fill="url(#front_-45-3)"/>
  <line x1="32" y1="17.5" x2="44" y2="17.5" stroke="#6e6e6e" stroke-miterlimit="10" fill="url(#front_-45-4)"/>
  <line x1="32" y1="21.5" x2="44" y2="21.5" stroke="#6e6e6e" stroke-miterlimit="10" fill="url(#front_-45-5)"/>
  <circle cx="38" cy="31" r="3.5" fill="none" stroke="#6e6e6e" stroke-miterlimit="10"/>
  <circle cx="38" cy="40" r="2.5" fill="none" stroke="#6e6e6e" stroke-miterlimit="10"/>
  <polygon points="32.5 28.5 22.5 22.5 12.5 28.5 22.5 34.5 32.5 28.5" fill="url(#linear-gradient-2)"/>
  <polygon points="12.5 28.5 12.5 40.5 22.5 46.5 22.5 34.5 12.5 28.5" fill="url(#linear-gradient-3)"/>
  <polygon points="22.5 34.5 22.5 46.5 32.5 40.5 32.5 28.5 22.5 34.5" fill="#3c91af"/>
  <polyline points="12.5 28.5 22.5 34.5 32.5 28.5" fill="none" stroke="#147391"/>
  <line x1="22.5" y1="34.5" x2="22.5" y2="46.5" fill="#3c91af" stroke="#147391" stroke-linejoin="round"/>
  <path d="M22.5,22.5l-10,6v12l10,6,10-6v-12Z" fill="none" stroke="#464646" stroke-miterlimit="10"/>
</svg>
