<svg id="Layer_1" data-name="Layer 1" xmlns="http://www.w3.org/2000/svg" xmlns:xlink="http://www.w3.org/1999/xlink" viewBox="0 0 48 48">
    <linearGradient id="paper_gradient" data-name="paper gradient" x1="3.9179" y1="8.5821" x2="44.0821" y2="48.7463" gradientUnits="userSpaceOnUse">
      <stop offset="0" stop-color="#fff"/>
      <stop offset="0.2214" stop-color="#f8f8f8"/>
      <stop offset="0.5415" stop-color="#e5e5e5"/>
      <stop offset="0.92" stop-color="#c6c6c6"/>
      <stop offset="1" stop-color="#bebebe"/>
    </linearGradient>
    <linearGradient id="Dark_Blue_Grad" data-name="Dark Blue Grad" x1="10.2933" y1="-7.1218" x2="37.7067" y2="20.2916" gradientUnits="userSpaceOnUse">
      <stop offset="0" stop-color="#73b4c8"/>
      <stop offset="0.1747" stop-color="#6aaec3"/>
      <stop offset="0.4567" stop-color="#529eb5"/>
      <stop offset="0.8089" stop-color="#2c839f"/>
      <stop offset="1" stop-color="#147391"/>
    </linearGradient>
    <linearGradient id="Dark_Blue_Grad-2" x1="24" y1="16" x2="42" y2="34" xlink:href="#Dark_Blue_Grad"/>
    <linearGradient id="Dark_Blue_Grad-3" x1="8.25" y1="22.75" x2="30.75" y2="45.25" xlink:href="#Dark_Blue_Grad"/>
    <path d="M1.5,11V45.5a2,2,0,0,0,2,2h41a2,2,0,0,0,2-2V11Z" fill="url(#paper_gradient)"/>
    <path d="M46.5,11.4982V2.5a2,2,0,0,0-2-2H3.5a2,2,0,0,0-2,2v8.9982Z" stroke="#147391" stroke-miterlimit="10" fill="url(#Dark_Blue_Grad)"/>
    <line x1="10.5" y1="12" x2="10.5" y2="47" fill="none" stroke="#6e6e6e"/>
    <line x1="19.5" y1="12" x2="19.5" y2="47" fill="none" stroke="#6e6e6e"/>
    <line x1="28.5" y1="12" x2="28.5" y2="47" fill="none" stroke="#6e6e6e"/>
    <line x1="37.5" y1="12" x2="37.5" y2="47" fill="none" stroke="#6e6e6e"/>
    <line x1="2" y1="38.5" x2="46" y2="38.5" fill="none" stroke="#6e6e6e"/>
    <line x1="2" y1="29.5" x2="47" y2="29.5" fill="none" stroke="#6e6e6e"/>
    <line x1="2" y1="20.5" x2="46" y2="20.5" fill="none" stroke="#6e6e6e"/>
    <path d="M15.5,6A1.5,1.5,0,1,1,14,4.5,1.5,1.5,0,0,1,15.5,6Z" fill="#fff" stroke="#147391" stroke-linecap="round" stroke-linejoin="round" stroke-width="1.0111"/>
    <path d="M35.5,6A1.5,1.5,0,1,1,34,4.5,1.5,1.5,0,0,1,35.5,6Z" fill="#fff" stroke="#147391" stroke-linecap="round" stroke-linejoin="round" stroke-width="1.0111"/>
  <rect x="1.5" y="0.5" width="45" height="47" rx="2" fill="none" stroke="#464646" stroke-miterlimit="10"/>
  <rect x="19.5" y="20.5" width="27" height="9" stroke="#464646" stroke-miterlimit="10" fill="url(#Dark_Blue_Grad-2)"/>
  <rect x="1.5" y="29.5" width="36" height="9" stroke="#464646" stroke-miterlimit="10" fill="url(#Dark_Blue_Grad-3)"/>
  <line x1="28.5" y1="21" x2="28.5" y2="29" fill="none" stroke="#147391" stroke-linejoin="round"/>
  <line x1="28.5" y1="30" x2="28.5" y2="38" fill="none" stroke="#147391" stroke-linejoin="round"/>
  <line x1="19.5" y1="30" x2="19.5" y2="38" fill="none" stroke="#147391" stroke-linejoin="round"/>
  <line x1="10.5" y1="30" x2="10.5" y2="38" fill="none" stroke="#147391" stroke-linejoin="round"/>
  <line x1="37.5" y1="21" x2="37.5" y2="29" fill="none" stroke="#147391" stroke-linejoin="round"/>
  <path d="M41,33V31s-3,3.019-3,3.01S41,37,41,37V35h3V33Z" fill="#147391"/>
  <polygon points="19 25 16 22 16 24 13 24 13 26 16 26 16 28 19 25" fill="#147391"/>
</svg>
