<svg id="Layer_1" data-name="Layer 1" xmlns="http://www.w3.org/2000/svg" xmlns:xlink="http://www.w3.org/1999/xlink" viewBox="0 0 48 48">
  <defs>
    <linearGradient id="paper_gradient" data-name="paper gradient" x1="8.25" y1="3.75" x2="39.75" y2="35.25" gradientUnits="userSpaceOnUse">
      <stop offset="0" stop-color="#fff"/>
      <stop offset="0.2214" stop-color="#f8f8f8"/>
      <stop offset="0.5415" stop-color="#e5e5e5"/>
      <stop offset="0.92" stop-color="#c6c6c6"/>
      <stop offset="1" stop-color="#bebebe"/>
    </linearGradient>
    <linearGradient id="paper_gradient-2" x1="25.5" y1="-312.5" x2="42.5" y2="-329.5" gradientTransform="matrix(1, 0, 0, -1, 0, -288)" xlink:href="#paper_gradient"/>
    <linearGradient id="paper_gradient-3" x1="29.5" y1="26.5" x2="33.5" y2="30.5" xlink:href="#paper_gradient"/>
  </defs>
    <path d="M34,1h7a6,6,0,0,1,6,6V41a6,6,0,0,1-6,6H34" fill="none" stroke="#969696" stroke-miterlimit="10" stroke-width="2"/>
    <path d="M14,47H7a6,6,0,0,1-6-6V7A6,6,0,0,1,7,1h7" fill="none" stroke="#969696" stroke-miterlimit="10" stroke-width="2"/>
  <rect x="4.5" y="7.5" width="39" height="24" stroke="#464646" fill="url(#paper_gradient)"/>
  <line x1="25" y1="26" x2="36" y2="26.0105" fill="none" stroke="#969696" stroke-width="2"/>
  <line x1="25" y1="20" x2="39" y2="20.0105" fill="none" stroke="#6e6e6e" stroke-width="2"/>
  <line x1="25" y1="14" x2="39" y2="14.0105" fill="none" stroke="#969696" stroke-width="2"/>
    <polygon points="8.219 19.901 10.228 18.244 13.214 21.813 20.599 12.727 22.63 14.357 13.242 25.914 8.219 19.901" fill="#969696"/>
    <path d="M20.6735,13.4276l1.2516,1.005-8.6887,10.695-4.3113-5.161,1.2382-1.0214L13.22,22.6l7.4536-9.1719m-.1491-1.4022-.627.7715-6.6886,8.2306L10.93,18.3036l-.6372-.7619-.7662.6321L8.2887,19.1952l-.7762.64.6451.7723,4.3113,5.161.7782.9316.7654-.9422,8.6887-10.695.6342-.78-.7842-.63L21.3,12.6479l-.7752-.6225Z" fill="#6e6e6e"/>
    <rect x="26.5" y="23.5" width="15" height="19" stroke="#464646" stroke-miterlimit="10" fill="url(#paper_gradient-2)"/>
    <line x1="36" y1="27.5" x2="39" y2="27.5052" fill="none" stroke="#6e6e6e"/>
    <line x1="36" y1="30.5" x2="39" y2="30.5052" fill="none" stroke="#6e6e6e"/>
    <line x1="29" y1="33.5" x2="39" y2="33.5052" fill="none" stroke="#6e6e6e"/>
    <line x1="29" y1="36.5" x2="39" y2="36.5052" fill="none" stroke="#6e6e6e"/>
    <line x1="29" y1="39.5" x2="39" y2="39.5052" fill="none" stroke="#6e6e6e"/>
    <rect x="29.5" y="26.5" width="4" height="4" stroke="#6e6e6e" fill="url(#paper_gradient-3)"/>
</svg>
