<svg version="1.1" id="Layer_1" xmlns="http://www.w3.org/2000/svg" xmlns:xlink="http://www.w3.org/1999/xlink" x="0px" y="0px"
	 viewBox="0 0 48 48" enable-background="new 0 0 48 48" xml:space="preserve">
<g>
	
		<linearGradient id="_Rectangle__1_" gradientUnits="userSpaceOnUse" x1="0.5" y1="46.5" x2="36.5" y2="10.5" gradientTransform="matrix(1 0 0 -1 0 50)">
		<stop  offset="0" style="stop-color:#FFFFFF"/>
		<stop  offset="0.232" style="stop-color:#FAFAFA"/>
		<stop  offset="0.496" style="stop-color:#EDEDED"/>
		<stop  offset="0.775" style="stop-color:#D6D6D6"/>
		<stop  offset="1" style="stop-color:#BEBEBE"/>
	</linearGradient>
	<rect id="_Rectangle__2_" y="4" fill="url(#_Rectangle__1_)" width="37" height="35"/>
	
		<linearGradient id="_Rectangle_2_1_" gradientUnits="userSpaceOnUse" x1="8.25" y1="57.25" x2="28.75" y2="36.75" gradientTransform="matrix(1 0 0 -1 0 50)">
		<stop  offset="0" style="stop-color:#B1B1B1"/>
		<stop  offset="1" style="stop-color:#7D7D7D"/>
	</linearGradient>
	<rect id="_Rectangle_2_2_" y="1" fill="url(#_Rectangle_2_1_)" width="37" height="4"/>
	<line fill="none" stroke="#6E6E6E" stroke-miterlimit="10" x1="12.5" y1="1" x2="12.5" y2="38"/>
	<line fill="none" stroke="#6E6E6E" stroke-miterlimit="10" x1="24.5" y1="1" x2="24.5" y2="38"/>
	<line fill="none" stroke="#6E6E6E" stroke-miterlimit="10" x1="13" y1="4.5" x2="0" y2="4.5"/>
	<line fill="none" stroke="#6E6E6E" stroke-miterlimit="10" x1="37" y1="4.5" x2="25" y2="4.5"/>
	<line fill="none" stroke="#6E6E6E" stroke-miterlimit="10" x1="13" y1="16.5" x2="0" y2="16.5"/>
	<line fill="none" stroke="#6E6E6E" stroke-miterlimit="10" x1="37" y1="16.5" x2="25" y2="16.5"/>
	<line fill="none" stroke="#6E6E6E" stroke-miterlimit="10" x1="13" y1="27.5" x2="0" y2="27.5"/>
	<line fill="none" stroke="#6E6E6E" stroke-miterlimit="10" x1="37" y1="27.5" x2="25" y2="27.5"/>
	
		<linearGradient id="_Rectangle_3_1_" gradientUnits="userSpaceOnUse" x1="5.75" y1="42.75" x2="31.25" y2="17.25" gradientTransform="matrix(1 0 0 -1 0 50)">
		<stop  offset="0" style="stop-color:#73B4C8"/>
		<stop  offset="0.175" style="stop-color:#6AAEC3"/>
		<stop  offset="0.457" style="stop-color:#529EB5"/>
		<stop  offset="0.809" style="stop-color:#2C839F"/>
		<stop  offset="1" style="stop-color:#147391"/>
	</linearGradient>
	
		<rect id="_Rectangle_3_2_" x="12.5" y="0.5" fill="url(#_Rectangle_3_1_)" stroke="#147391" stroke-miterlimit="10" width="12" height="39"/>
	<line id="_Path__2_" fill="none" stroke="#147391" stroke-miterlimit="10" x1="13" y1="4.5" x2="25" y2="4.5"/>
	<line id="_Path_2_2_" fill="none" stroke="#147391" stroke-miterlimit="10" x1="13" y1="16.5" x2="25" y2="16.5"/>
	<line id="_Path_3_2_" fill="none" stroke="#147391" stroke-miterlimit="10" x1="13" y1="27.5" x2="25" y2="27.5"/>
	<rect id="_Rectangle_4_2_" x="0.5" y="0.5" fill="none" stroke="#464646" stroke-miterlimit="10" width="37" height="39"/>
	<polyline fill="none" stroke="#FFFFFF" stroke-miterlimit="10" points="15.8,11.2 18.3,13.6 22,7.5 	"/>
	<polyline fill="none" stroke="#6E6E6E" stroke-miterlimit="10" points="3.5,22.8 5.9,25.2 9.6,19.1 	"/>
	<polyline fill="none" stroke="#6E6E6E" stroke-miterlimit="10" points="28.2,34.3 30.7,36.8 34.4,30.6 	"/>
</g>
<linearGradient id="SVGID_1_" gradientUnits="userSpaceOnUse" x1="19.625" y1="30.125" x2="47.375" y2="2.375" gradientTransform="matrix(1 0 0 -1 0 50)">
	<stop  offset="0" style="stop-color:#F2F2F2"/>
	<stop  offset="0.5" style="stop-color:#CCCCCC"/>
	<stop  offset="0.6296" style="stop-color:#C7C7C7"/>
	<stop  offset="0.7792" style="stop-color:#B9B9B9"/>
	<stop  offset="0.9383" style="stop-color:#A2A2A2"/>
	<stop  offset="0.99" style="stop-color:#999999"/>
</linearGradient>
<rect x="19.5" y="20" fill="url(#SVGID_1_)" stroke="#464646" stroke-miterlimit="10" width="28" height="27.5"/>
<rect x="23.5" y="22.5" fill="#FFFFFF" stroke="#147391" stroke-miterlimit="10" width="7" height="6"/>
<rect x="23.5" y="30.5" fill="#FFFFFF" stroke="#147391" stroke-miterlimit="10" width="7" height="6"/>
<rect x="23.5" y="38.5" fill="#FFFFFF" stroke="#147391" stroke-miterlimit="10" width="7" height="6"/>
<line fill="none" stroke="#6E6E6E" stroke-width="2" stroke-miterlimit="10" x1="34" y1="26" x2="45" y2="26"/>
<line fill="none" stroke="#6E6E6E" stroke-width="2" stroke-miterlimit="10" x1="34" y1="34" x2="45" y2="34"/>
<line fill="none" stroke="#6E6E6E" stroke-width="2" stroke-miterlimit="10" x1="34" y1="42" x2="45" y2="42"/>
<polyline fill="none" stroke="#147391" stroke-miterlimit="10" points="25.2,25.4 26.4,26.4 28.8,23.5 "/>
<polyline fill="none" stroke="#147391" stroke-miterlimit="10" points="25.2,34.1 26.4,35.1 28.8,32.2 "/>
<polyline fill="none" stroke="#147391" stroke-miterlimit="10" points="25.2,41.9 26.4,42.8 28.8,39.9 "/>
</svg>
