<svg id="Layer_1" data-name="Layer 1" xmlns="http://www.w3.org/2000/svg" xmlns:xlink="http://www.w3.org/1999/xlink" width="48" height="48" viewBox="0 0 48 48">
  <defs>
    <linearGradient id="linear-gradient" x1="3.5" y1="41.5" x2="45" gradientTransform="matrix(1, 0, 0, -1, 0, 48)" gradientUnits="userSpaceOnUse">
      <stop offset="0" stop-color="#fff"/>
      <stop offset="0.232" stop-color="#fafafa"/>
      <stop offset="0.496" stop-color="#ededed"/>
      <stop offset="0.775" stop-color="#d6d6d6"/>
      <stop offset="1" stop-color="#bebebe"/>
    </linearGradient>
    <linearGradient id="paper_gradient" data-name="paper gradient" x1="29.25" y1="44.25" x2="42.25" y2="31.25" gradientTransform="matrix(1, 0, 0, -1, 0, 48)" gradientUnits="userSpaceOnUse">
      <stop offset="0" stop-color="#fff"/>
      <stop offset="0.221" stop-color="#f8f8f8"/>
      <stop offset="0.541" stop-color="#e5e5e5"/>
      <stop offset="0.92" stop-color="#c6c6c6"/>
      <stop offset="1" stop-color="#bebebe"/>
    </linearGradient>
  </defs>
  <polygon points="32.5 0.5 9.5 0.5 9.5 47.5 45.5 47.5 45.5 13.5 32.5 0.5" stroke="#464646" stroke-miterlimit="10" fill="url(#linear-gradient)"/>
  <polygon points="32.5 0.5 32.5 13.5 45.5 13.5 32.5 0.5" stroke="#464646" stroke-linejoin="round" fill="url(#paper_gradient)"/>
  <rect x="0.5" y="17.5" width="47" height="25" fill="#097896" stroke="#464646" stroke-miterlimit="10"/>
  <path d="M8.854,28.9V25.56h-3.6V28.9H3.978v-7.7H5.256v3.239h3.6V21.193h1.284v7.7Z" fill="#fff"/>
  <path d="M22.932,26a3.348,3.348,0,0,1-.682,2.208,2.276,2.276,0,0,1-1.848.822A1.764,1.764,0,0,1,18.85,28.2h-.021v3.222H17.588V23.4h1.241v.88h.021a2.062,2.062,0,0,1,1.826-1.015A2.021,2.021,0,0,1,22.331,24,3.079,3.079,0,0,1,22.932,26Zm-1.289-.021a1.949,1.949,0,0,0-.363-1.249,1.223,1.223,0,0,0-1.012-.454,1.331,1.331,0,0,0-1.05.457,1.725,1.725,0,0,0-.4,1.182v.7a1.385,1.385,0,0,0,.381,1,1.271,1.271,0,0,0,.951.395,1.293,1.293,0,0,0,1.1-.527A2.5,2.5,0,0,0,21.643,25.979Z" fill="#fff"/>
  <path d="M25.086,26.511a1.609,1.609,0,0,0,.457,1.144,1.687,1.687,0,0,0,1.2.392,2.714,2.714,0,0,0,.9-.148,2.91,2.91,0,0,0,.752-.378v1.047a2.714,2.714,0,0,1-.838.333,4.649,4.649,0,0,1-1.112.129,2.5,2.5,0,0,1-1.939-.75,2.963,2.963,0,0,1-.687-2.081,3.318,3.318,0,0,1,.341-1.541,2.539,2.539,0,0,1,.946-1.029,2.506,2.506,0,0,1,1.33-.368,2.268,2.268,0,0,1,1.769.7,2.784,2.784,0,0,1,.631,1.934v.618Zm2.508-.935a1.461,1.461,0,0,0-.3-1,1.1,1.1,0,0,0-.859-.344,1.2,1.2,0,0,0-.877.373,1.734,1.734,0,0,0-.467.97Z" fill="#fff"/>
  <path d="M33.186,24.6a1.05,1.05,0,0,0-.317-.129,1.583,1.583,0,0,0-.4-.059,1.031,1.031,0,0,0-.876.462,2.01,2.01,0,0,0-.332,1.2V28.9H30.017V23.4h1.241v1.068h.021a1.819,1.819,0,0,1,.553-.859,1.3,1.3,0,0,1,.854-.306,1.331,1.331,0,0,1,.5.075Z" fill="#fff"/>
  <g>
    <path d="M11.047,38.061v-4.9q0-.559.065-1.655H11.09a4.772,4.772,0,0,1-.22.86l-2.331,5.7H7.707L5.359,32.416q-.091-.285-.22-.914H5.107c.011.1.022.35.035.758s.019.761.019,1.058v4.743H3.974v-7.7H5.8l1.96,4.867a6.58,6.58,0,0,1,.349,1.063h.033l.408-1.074,2.014-4.856h1.751v7.7Z" fill="#fff"/>
    <path d="M15,35.676a1.6,1.6,0,0,0,.457,1.144,1.687,1.687,0,0,0,1.2.392,2.722,2.722,0,0,0,.9-.148,2.91,2.91,0,0,0,.752-.378v1.047a2.7,2.7,0,0,1-.838.333,4.652,4.652,0,0,1-1.111.129,2.5,2.5,0,0,1-1.939-.75,2.959,2.959,0,0,1-.688-2.081,3.318,3.318,0,0,1,.341-1.541,2.55,2.55,0,0,1,.945-1.029,2.514,2.514,0,0,1,1.33-.368,2.263,2.263,0,0,1,1.77.7,2.779,2.779,0,0,1,.631,1.933v.618Zm2.508-.935a1.456,1.456,0,0,0-.306-1,1.09,1.09,0,0,0-.859-.344,1.2,1.2,0,0,0-.876.373,1.737,1.737,0,0,0-.467.97Z" fill="#fff"/>
    <path d="M23.2,36.487a1.5,1.5,0,0,1-.591,1.238,2.5,2.5,0,0,1-1.6.47,3.736,3.736,0,0,1-.744-.086,3.213,3.213,0,0,1-.7-.215V36.707a2.732,2.732,0,0,0,.752.381,2.373,2.373,0,0,0,.736.135q.891,0,.892-.591a.574.574,0,0,0-.089-.336.954.954,0,0,0-.306-.252,5.958,5.958,0,0,0-.674-.315,3.393,3.393,0,0,1-.8-.445,1.364,1.364,0,0,1-.387-.5,1.69,1.69,0,0,1-.126-.677,1.476,1.476,0,0,1,.586-1.208,2.35,2.35,0,0,1,1.514-.468,3.654,3.654,0,0,1,.647.067,2.877,2.877,0,0,1,.589.164V33.78a2.187,2.187,0,0,0-.6-.277,2.362,2.362,0,0,0-.683-.1.931.931,0,0,0-.585.167.515.515,0,0,0-.215.424.6.6,0,0,0,.169.454,2.86,2.86,0,0,0,.8.416,2.736,2.736,0,0,1,1.09.693A1.412,1.412,0,0,1,23.2,36.487Z" fill="#fff"/>
    <path d="M28.02,38.061V34.945a2.064,2.064,0,0,0-.249-1.122.912.912,0,0,0-.825-.382,1.186,1.186,0,0,0-.935.419,1.549,1.549,0,0,0-.365,1.053v3.148H24.405V29.918h1.241v3.5h.021a1.951,1.951,0,0,1,1.751-.994A1.7,1.7,0,0,1,28.8,33a2.585,2.585,0,0,1,.475,1.681v3.379Z" fill="#fff"/>
  </g>
  <path d="M15.439,23.4l-1.332,3.872-.134.526h-.021a3.713,3.713,0,0,0-.119-.526L12.544,23.4h-1.4l2.2,5.5-.376.87a1.487,1.487,0,0,1-.125.22v1.366a1.914,1.914,0,0,0,.555-.335,3.541,3.541,0,0,0,.913-1.461L16.7,23.4Z" fill="#fff"/>
</svg>
