<svg id="Layer_1" data-name="Layer 1" xmlns="http://www.w3.org/2000/svg" xmlns:xlink="http://www.w3.org/1999/xlink" viewBox="0 0 48 48">
    <linearGradient id="linear-gradient" x1="3.5" y1="41.5" x2="45" gradientTransform="matrix(1, 0, 0, -1, 0, 48)" gradientUnits="userSpaceOnUse">
      <stop offset="0" stop-color="#fff"/>
      <stop offset="0.232" stop-color="#fafafa"/>
      <stop offset="0.496" stop-color="#ededed"/>
      <stop offset="0.775" stop-color="#d6d6d6"/>
      <stop offset="1" stop-color="#bebebe"/>
    </linearGradient>
    <linearGradient id="paper_gradient" data-name="paper gradient" x1="29.375" y1="43.875" x2="41.875" y2="31.375" gradientTransform="matrix(1, 0, 0, -1, 0, 48)" gradientUnits="userSpaceOnUse">
      <stop offset="0" stop-color="#fff"/>
      <stop offset="0.221" stop-color="#f8f8f8"/>
      <stop offset="0.541" stop-color="#e5e5e5"/>
      <stop offset="0.92" stop-color="#c6c6c6"/>
      <stop offset="1" stop-color="#bebebe"/>
    </linearGradient>
    <linearGradient id="linear-gradient-2" x1="3.75" y1="0.25" x2="26.25" y2="22.75" gradientUnits="userSpaceOnUse">
      <stop offset="0" stop-color="#73b4c8"/>
      <stop offset="0.175" stop-color="#6aaec3"/>
      <stop offset="0.457" stop-color="#529eb5"/>
      <stop offset="0.809" stop-color="#2c839f"/>
      <stop offset="1" stop-color="#147391"/>
    </linearGradient>
  <polygon points="32.5 0.5 9.5 0.5 9.5 47.5 45.5 47.5 45.5 13.5 32.5 0.5" stroke="#464646" stroke-miterlimit="10" fill="url(#linear-gradient)"/>
  <polyline points="32.5 1 32.5 13.5 45 13.5" stroke="#464646" stroke-miterlimit="10" fill="url(#paper_gradient)"/>
  <rect x="0.5" y="3.5" width="29" height="16" stroke="#464646" stroke-miterlimit="10" fill="url(#linear-gradient-2)"/>
  <polygon points="22 40.234 14.111 35.5 22 30.782 22 28.451 12 34.433 12 36.566 22 42.566 22 40.234" fill="#464646"/>
  <polygon points="33 30.784 40.889 35.517 33 40.236 33 42.566 43 36.585 43 34.451 33 28.451 33 30.784" fill="#464646"/>
  <polygon points="25.058 45 32.223 26 30.087 26 22.921 45 25.058 45" fill="#464646"/>
  <line x1="3.5" y1="8" x2="3.5" y2="15" fill="none" stroke="#fff" stroke-miterlimit="10"/>
  <line x1="7.5" y1="8" x2="7.5" y2="15" fill="none" stroke="#fff" stroke-miterlimit="10"/>
  <line x1="11.5" y1="8.5" x2="11.5" y2="15" fill="none" stroke="#fff" stroke-miterlimit="10"/>
  <line x1="7.5" y1="11.5" x2="3.5" y2="11.5" fill="none" stroke="#fff" stroke-miterlimit="10"/>
  <line x1="14" y1="8.5" x2="9" y2="8.5" fill="none" stroke="#fff" stroke-miterlimit="10"/>
  <polyline points="23.5 8 23.5 14.5 27 14.5" fill="none" stroke="#fff" stroke-miterlimit="10"/>
  <polyline points="21.5 15 21.5 8.5 21.002 8.5 18.5 12.5 16 8.5 15.5 8.5 15.5 15" fill="none" stroke="#fff" stroke-miterlimit="10"/>
</svg>
