<svg id="Layer_1" data-name="Layer 1" xmlns="http://www.w3.org/2000/svg" xmlns:xlink="http://www.w3.org/1999/xlink" viewBox="0 0 48 48">
    <linearGradient id="linear-gradient" x1="3.75" y1="41.75" x2="45.25" y2="0.25" gradientTransform="matrix(1, 0, 0, -1, 0, 48)" gradientUnits="userSpaceOnUse">
      <stop offset="0" stop-color="#fff"/>
      <stop offset="0.2323" stop-color="#fafafa"/>
      <stop offset="0.4964" stop-color="#ededed"/>
      <stop offset="0.775" stop-color="#d6d6d6"/>
      <stop offset="1" stop-color="#bebebe"/>
    </linearGradient>
    <linearGradient id="paper_gradient" data-name="paper gradient" x1="30.5" y1="44.5" x2="42.5" y2="32.5" gradientTransform="matrix(1, 0, 0, -1, 0, 48)" gradientUnits="userSpaceOnUse">
      <stop offset="0" stop-color="#fff"/>
      <stop offset="0.2214" stop-color="#f8f8f8"/>
      <stop offset="0.5415" stop-color="#e5e5e5"/>
      <stop offset="0.92" stop-color="#c6c6c6"/>
      <stop offset="1" stop-color="#bebebe"/>
    </linearGradient>
  <polyline points="33.5 0.5 9.5 0.5 9.5 47.5 45.5 47.5 45.5 12.5" stroke="#464646" stroke-miterlimit="10" fill="url(#linear-gradient)"/>
  <rect x="0.5" y="27.5" width="27" height="16" fill="#41aac8" stroke="#464646" stroke-miterlimit="10"/>
    <path d="M8.2046,39,6.5771,36.1963a.9628.9628,0,0,1-.0781-.1934c-.0156-.061-.0346-.1255-.0561-.1933H6.4214c-.0288.0717-.0518.1367-.07.1963a.9223.9223,0,0,1-.086.19L4.606,39H3.0537l2.5728-3.8618-2.3526-3.84H4.8477l1.375,2.53a2.66,2.66,0,0,1,.2631.5747h.0215q.1179-.3009.1636-.3945t1.5981-2.71h1.44L7.3022,35.1167,9.7407,39Z" fill="#fff"/>
    <path d="M17.6523,39V34.0962q0-.5589.0645-1.6543h-.0215a4.82,4.82,0,0,1-.22.8594L15.144,39h-.8325l-2.3471-5.645q-.0916-.285-.22-.9131h-.0322q.0162.1451.0347.7573t.019,1.0581V39h-1.187V31.2979h1.8262l1.96,4.8662a6.6339,6.6339,0,0,1,.3492,1.0634h.0322l.4082-1.0742,2.0141-4.8554H18.92V39Z" fill="#fff"/>
    <path d="M20.6445,39V31.2979h1.2784v6.601h3.0126V39Z" fill="#fff"/>
  <polygon points="33.5 0.5 33.5 12.5 45.5 12.5 33.5 0.5" stroke="#464646" stroke-linejoin="round" fill="url(#paper_gradient)"/>
</svg>
