<svg id="Layer_1" data-name="Layer 1" xmlns="http://www.w3.org/2000/svg" xmlns:xlink="http://www.w3.org/1999/xlink" viewBox="0 0 48 48">
    <linearGradient id="linear-gradient" x1="-3" y1="4.001" x2="34" y2="41.001" gradientUnits="userSpaceOnUse">
      <stop offset="0" stop-color="#fff"/>
      <stop offset="0.305" stop-color="#fbfbfb"/>
      <stop offset="0.584" stop-color="#f0f0f0"/>
      <stop offset="0.852" stop-color="#dedede"/>
      <stop offset="1" stop-color="#d0d0d0"/>
    </linearGradient>
    <linearGradient id="Dark_Blue_Grad_2" data-name="Dark Blue Grad 2" x1="26.161" y1="26.161" x2="43.839" y2="43.839" gradientUnits="userSpaceOnUse">
      <stop offset="0" stop-color="#74b3c7"/>
      <stop offset="0.177" stop-color="#6badc2"/>
      <stop offset="0.464" stop-color="#539db4"/>
      <stop offset="0.822" stop-color="#2d839d"/>
      <stop offset="1" stop-color="#177490"/>
    </linearGradient>
  <rect x="0.5" y="0.501" width="30" height="44" stroke="#464646" stroke-miterlimit="10" fill="url(#linear-gradient)"/>
  <rect x="5.5" y="10.5" width="5" height="5" fill="none" stroke="#6f6f6f" stroke-miterlimit="10"/>
  <line x1="14" y1="13.5" x2="23" y2="13.5" fill="none" stroke="#6f6f6f" stroke-miterlimit="10"/>
  <rect x="5.5" y="18.5" width="5" height="5" fill="none" stroke="#6f6f6f" stroke-miterlimit="10"/>
  <line x1="14" y1="21.5" x2="26" y2="21.5" fill="none" stroke="#6f6f6f" stroke-miterlimit="10"/>
  <rect x="5.5" y="26.5" width="5" height="5" fill="none" stroke="#6f6f6f" stroke-miterlimit="10"/>
  <line x1="14" y1="29.5" x2="21" y2="29.5" fill="none" stroke="#6f6f6f" stroke-miterlimit="10"/>
  <rect x="5.5" y="34.5" width="5" height="5" fill="none" stroke="#6f6f6f" stroke-miterlimit="10"/>
  <line x1="14" y1="37.5" x2="23" y2="37.5" fill="none" stroke="#6f6f6f" stroke-miterlimit="10"/>
    <circle cx="35" cy="35" r="12.5" stroke="#464646" stroke-miterlimit="10" fill="url(#Dark_Blue_Grad_2)"/>
      <path d="M35,40.5A1.5,1.5,0,0,1,33.5,39v-1.73a4.416,4.416,0,0,1,2.547-4,2.5,2.5,0,0,0-.582-4.729A2.723,2.723,0,0,0,35,28.5a2.471,2.471,0,0,0-1.606.583A2.5,2.5,0,0,0,32.5,31a1.5,1.5,0,0,1-3,0,5.5,5.5,0,0,1,5.506-5.5,5.634,5.634,0,0,1,.978.086,5.5,5.5,0,0,1,1.323,10.407,1.4,1.4,0,0,0-.807,1.276V39A1.5,1.5,0,0,1,35,40.5Z" fill="#fff"/>
      <path d="M35.006,26a5.166,5.166,0,0,1,.891.078,5,5,0,0,1,1.2,9.461,1.908,1.908,0,0,0-1.1,1.73V39a1,1,0,0,1-2,0v-1.73a3.914,3.914,0,0,1,2.257-3.545,3,3,0,0,0-.7-5.676A3.263,3.263,0,0,0,35,28a3,3,0,0,0-3,3,1,1,0,0,1-2,0,5,5,0,0,1,5.006-5m0-1h0A6,6,0,0,0,29,31a2,2,0,0,0,4,0,2,2,0,0,1,.715-1.533A1.975,1.975,0,0,1,35,29a2.269,2.269,0,0,1,.383.033,2,2,0,0,1,.456,3.783A4.917,4.917,0,0,0,33,37.269V39a2,2,0,0,0,4,0v-1.73a.9.9,0,0,1,.517-.822A6,6,0,0,0,36.07,25.093,6.131,6.131,0,0,0,35.007,25Z" fill="#147391"/>
      <path d="M35,45a2.017,2.017,0,0,1-1.419-3.434A2.04,2.04,0,0,1,35.005,41a2,2,0,0,1,1.414.566A2.017,2.017,0,0,1,35,45Z" fill="#fff"/>
      <path d="M35.005,41.5a1.493,1.493,0,0,1,1.06.419,1.519,1.519,0,0,1,0,2.128,1.506,1.506,0,1,1-1.06-2.547m0-1A2.459,2.459,0,0,0,32.5,42.991a2.5,2.5,0,0,0,5,0,2.537,2.537,0,0,0-.726-1.777,2.5,2.5,0,0,0-1.769-.714Z" fill="#147391"/>
</svg>
