<svg version="1.1" id="Layer_1" xmlns="http://www.w3.org/2000/svg" xmlns:xlink="http://www.w3.org/1999/xlink" x="0px" y="0px"
	 viewBox="0 0 48 48" enable-background="new 0 0 48 48" xml:space="preserve">
<linearGradient id="SVGID_1_" gradientUnits="userSpaceOnUse" x1="2.625" y1="41.625" x2="44.125" y2="0.125" gradientTransform="matrix(1 0 0 -1 0 48)">
	<stop  offset="0" style="stop-color:#FFFFFF"/>
	<stop  offset="0.2323" style="stop-color:#FAFAFA"/>
	<stop  offset="0.4964" style="stop-color:#EDEDED"/>
	<stop  offset="0.775" style="stop-color:#D6D6D6"/>
	<stop  offset="1" style="stop-color:#BEBEBE"/>
</linearGradient>
<polyline fill="url(#SVGID_1_)" stroke="#464646" stroke-miterlimit="10" points="32,0.5 8.5,0.5 8.5,47.5 44.5,47.5 44.5,13 "/>
<linearGradient id="XMLID_2_" gradientUnits="userSpaceOnUse" x1="3.7218" y1="6.7218" x2="19.2782" y2="22.2782">
	<stop  offset="0" style="stop-color:#73B4C8"/>
	<stop  offset="0.1747" style="stop-color:#6AAEC3"/>
	<stop  offset="0.4567" style="stop-color:#529EB5"/>
	<stop  offset="0.8089" style="stop-color:#2C839F"/>
	<stop  offset="1" style="stop-color:#147391"/>
</linearGradient>
<circle id="XMLID_74_" fill="url(#XMLID_2_)" stroke="#464646" stroke-miterlimit="10" cx="11.5" cy="14.5" r="11"/>
<rect x="14.5" y="27.5" fill="none" stroke="#5A5A5A" width="24" height="15"/>
<line fill="none" stroke="#5A5A5A" x1="18.5" y1="42" x2="18.5" y2="28"/>
<line fill="none" stroke="#5A5A5A" x1="28.5" y1="42" x2="28.5" y2="28"/>
<line fill="none" stroke="#5A5A5A" x1="15" y1="32.5" x2="38" y2="32.5"/>
<line fill="none" stroke="#5A5A5A" x1="15" y1="37.5" x2="38" y2="37.5"/>
<polygon fill="#FFFFFF" points="6.476,20 8.909,20 11.5,16.257 14.091,20 16.524,20 12.716,14.5 16.524,9 14.091,9 11.5,12.743 
	8.909,9 6.476,9 10.284,14.5 "/>
<linearGradient id="SVGID_2_" gradientUnits="userSpaceOnUse" x1="28.25" y1="3.75" x2="41.25" y2="16.75">
	<stop  offset="0" style="stop-color:#FFFFFF"/>
	<stop  offset="0.2214" style="stop-color:#F8F8F8"/>
	<stop  offset="0.5415" style="stop-color:#E5E5E5"/>
	<stop  offset="0.92" style="stop-color:#C6C6C6"/>
	<stop  offset="1" style="stop-color:#BEBEBE"/>
</linearGradient>
<polygon fill="url(#SVGID_2_)" points="31.5,13.5 44.5,13.5 31.5,0.5 "/>
<linearGradient id="SVGID_3_" gradientUnits="userSpaceOnUse" x1="34.75" y1="-2.75" x2="47.75" y2="10.25">
	<stop  offset="0" style="stop-color:#AFD7E1"/>
	<stop  offset="1" style="stop-color:#73B4C8"/>
</linearGradient>
<polygon fill="url(#SVGID_3_)" points="44.5,13.5 44.5,0.5 31.5,0.5 "/>
<rect x="31.5" y="0.5" fill="none" stroke="#464646" stroke-miterlimit="10" width="13" height="13"/>
<linearGradient id="SVGID_4_" gradientUnits="userSpaceOnUse" x1="32" y1="1" x2="44" y2="13">
	<stop  offset="0" style="stop-color:#FFFFFF"/>
	<stop  offset="0.2214" style="stop-color:#F8F8F8"/>
	<stop  offset="0.5415" style="stop-color:#E5E5E5"/>
	<stop  offset="0.92" style="stop-color:#C6C6C6"/>
	<stop  offset="1" style="stop-color:#BEBEBE"/>
</linearGradient>
<line fill="url(#SVGID_4_)" stroke="#464646" stroke-miterlimit="10" x1="32" y1="1" x2="44" y2="13"/>
</svg>
