<svg version="1.1" id="Layer_1" xmlns="http://www.w3.org/2000/svg" xmlns:xlink="http://www.w3.org/1999/xlink" x="0px" y="0px"
	 viewBox="0 0 48 48" enable-background="new 0 0 48 48" xml:space="preserve">
<rect x="0" fill="none" width="48" height="48"/>
	<linearGradient id="SVGID_1_" gradientUnits="userSpaceOnUse" x1="7.1028" y1="14.6843" x2="32.8918" y2="40.4734">
		<stop  offset="0" style="stop-color:#FFFFFF"/>
		<stop  offset="0.2214" style="stop-color:#F8F8F8"/>
		<stop  offset="0.5415" style="stop-color:#E5E5E5"/>
		<stop  offset="0.92" style="stop-color:#C6C6C6"/>
		<stop  offset="1" style="stop-color:#BEBEBE"/>
	</linearGradient>
	<polygon fill="url(#SVGID_1_)" points="1.1,34.5 12.6,14.7 15.5,19.7 9.9,29.5 30.1,29.5 17.1,6.8 20,1.8 38.9,34.5 	"/>
	<path fill="#464646" d="M20,2.8L38,34H2l10.6-18.3l2.3,4L9,30h22L17.7,6.8L20,2.8 M20,0.8l-0.9,1.5l-2.3,4l-0.3,0.5l0.3,0.5
		L29.3,29H10.7l5.1-8.8l0.3-0.5l-0.3-0.5l-2.3-4l-0.9-1.5l-0.9,1.5L1.1,33.5L0.3,35H2h36h1.7l-0.9-1.5l-18-31.2L20,0.8L20,0.8z"/>
<linearGradient id="SVGID_2_" gradientUnits="userSpaceOnUse" x1="26.1612" y1="26.1612" x2="43.8388" y2="43.8388">
	<stop  offset="0" style="stop-color:#73B4C8"/>
	<stop  offset="0.1747" style="stop-color:#6AAEC3"/>
	<stop  offset="0.4567" style="stop-color:#529EB5"/>
	<stop  offset="0.8089" style="stop-color:#2C839F"/>
	<stop  offset="1" style="stop-color:#147391"/>
</linearGradient>
<circle fill="url(#SVGID_2_)" stroke="#464646" stroke-linecap="round" stroke-linejoin="round" stroke-miterlimit="10" cx="35" cy="35" r="12.5"/>
<path fill="none" stroke="#FFFFFF" stroke-width="2" stroke-miterlimit="10" d="M42,32"/>
	<polygon fill="#FFFFFF" points="26.4,36.5 28.8,34.6 32.5,39.1 41.7,27.7 44,29.6 32.5,43.8 	"/>
	<path fill="#147391" d="M41.8,28.4l1.6,1.3L32.5,43l-5.4-6.4l1.5-1.3l3.8,4.6L41.8,28.4 M41.6,27L41,27.8l-8.5,10.5l-3-3.6
		l-0.6-0.8l-0.8,0.6l-1.5,1.3l-0.8,0.6l0.6,0.8l5.4,6.4l0.8,0.9l0.8-0.9l10.8-13.4l0.6-0.8l-0.8-0.6l-1.6-1.3L41.6,27L41.6,27z"/>
</svg>
