<svg version="1.1" id="Layer_1" xmlns="http://www.w3.org/2000/svg" xmlns:xlink="http://www.w3.org/1999/xlink" x="0px" y="0px"
	 viewBox="0 0 48 48" enable-background="new 0 0 48 48" xml:space="preserve">
<linearGradient id="SVGID_1_" gradientUnits="userSpaceOnUse" x1="5.5" y1="5.5" x2="42.5" y2="42.5">
	<stop  offset="0" style="stop-color:#FFFFFF"/>
	<stop  offset="0.2214" style="stop-color:#F8F8F8"/>
	<stop  offset="0.5415" style="stop-color:#E5E5E5"/>
	<stop  offset="0.92" style="stop-color:#C6C6C6"/>
	<stop  offset="1" style="stop-color:#BEBEBE"/>
</linearGradient>
<path fill="url(#SVGID_1_)" stroke="#464646" stroke-miterlimit="10" d="M47.458,23.442l-4.777-6.688
	c-0.057-0.079-0.181-0.039-0.181,0.058V20.5h-3v-18h-31v18h-3v-3.688c0-0.097-0.125-0.137-0.181-0.058l-4.777,6.688
	c-0.025,0.035-0.025,0.081,0,0.116l4.777,6.688C5.375,30.325,5.5,30.285,5.5,30.188V26.5h3v19h31v-19h3v3.688
	c0,0.097,0.125,0.137,0.181,0.058l4.777-6.688C47.483,23.523,47.483,23.477,47.458,23.442z"/>
<linearGradient id="SVGID_2_" gradientUnits="userSpaceOnUse" x1="11.4999" y1="12" x2="18.5" y2="12">
	<stop  offset="0" style="stop-color:#F2F2F2"/>
	<stop  offset="0.5" style="stop-color:#CCCCCC"/>
	<stop  offset="0.6296" style="stop-color:#C7C7C7"/>
	<stop  offset="0.7792" style="stop-color:#B9B9B9"/>
	<stop  offset="0.9383" style="stop-color:#A2A2A2"/>
	<stop  offset="0.99" style="stop-color:#999999"/>
</linearGradient>
<polygon fill="url(#SVGID_2_)" points="12.5,10 17.5,10 18.5,14 11.5,14 "/>
<line fill="none" stroke="#147391" stroke-linecap="round" stroke-linejoin="round" stroke-miterlimit="10" x1="11.5" y1="13.5" x2="12.5" y2="9.5"/>
<line fill="none" stroke="#147391" stroke-linecap="round" stroke-linejoin="round" stroke-miterlimit="10" x1="17.5" y1="9.5" x2="18.5" y2="13.5"/>
<path fill="none" stroke="#147391" stroke-linecap="round" stroke-linejoin="round" stroke-miterlimit="10" d="M17.5,10L17.5,10
	c-1.564,0.642-3.316,0.657-4.891,0.042L12.5,10"/>
<linearGradient id="SVGID_3_" gradientUnits="userSpaceOnUse" x1="40.75" y1="1445.25" x2="25.25" y2="1429.75" gradientTransform="matrix(-1 0 0 -1 48 1463)">
	<stop  offset="0" style="stop-color:#73B4C8"/>
	<stop  offset="0.1747" style="stop-color:#6AAEC3"/>
	<stop  offset="0.4567" style="stop-color:#529EB5"/>
	<stop  offset="0.8089" style="stop-color:#2C839F"/>
	<stop  offset="1" style="stop-color:#147391"/>
</linearGradient>
<path fill="url(#SVGID_3_)" stroke="#147391" stroke-linejoin="round" stroke-miterlimit="10" d="M11.5,13.5L11.5,13.5
	c2.169,1.239,4.831,1.239,7,0l0,0v24l0,0c-2.169,1.239-4.831,1.239-7,0l0,0V13.5z"/>
<line fill="none" stroke="#147391" stroke-linejoin="round" stroke-miterlimit="10" x1="12" y1="20.5" x2="15" y2="20.5"/>
<line fill="none" stroke="#147391" stroke-linejoin="round" stroke-miterlimit="10" x1="12" y1="24.5" x2="18" y2="24.5"/>
<linearGradient id="SVGID_4_" gradientUnits="userSpaceOnUse" x1="20.4999" y1="12" x2="27.5" y2="12">
	<stop  offset="0" style="stop-color:#F2F2F2"/>
	<stop  offset="0.5" style="stop-color:#CCCCCC"/>
	<stop  offset="0.6296" style="stop-color:#C7C7C7"/>
	<stop  offset="0.7792" style="stop-color:#B9B9B9"/>
	<stop  offset="0.9383" style="stop-color:#A2A2A2"/>
	<stop  offset="0.99" style="stop-color:#999999"/>
</linearGradient>
<polygon fill="url(#SVGID_4_)" points="21.5,10 26.5,10 27.5,14 20.5,14 "/>
<line fill="none" stroke="#147391" stroke-linecap="round" stroke-linejoin="round" stroke-miterlimit="10" x1="20.5" y1="13.5" x2="21.5" y2="9.5"/>
<line fill="none" stroke="#147391" stroke-linecap="round" stroke-linejoin="round" stroke-miterlimit="10" x1="26.5" y1="9.5" x2="27.5" y2="13.5"/>
<path fill="none" stroke="#147391" stroke-linecap="round" stroke-linejoin="round" stroke-miterlimit="10" d="M26.5,10L26.5,10
	c-1.564,0.642-3.316,0.657-4.891,0.042L21.5,10"/>
<linearGradient id="SVGID_5_" gradientUnits="userSpaceOnUse" x1="31.75" y1="1445.25" x2="16.25" y2="1429.75" gradientTransform="matrix(-1 0 0 -1 48 1463)">
	<stop  offset="0" style="stop-color:#73B4C8"/>
	<stop  offset="0.1747" style="stop-color:#6AAEC3"/>
	<stop  offset="0.4567" style="stop-color:#529EB5"/>
	<stop  offset="0.8089" style="stop-color:#2C839F"/>
	<stop  offset="1" style="stop-color:#147391"/>
</linearGradient>
<path fill="url(#SVGID_5_)" stroke="#147391" stroke-linejoin="round" stroke-miterlimit="10" d="M20.5,13.5L20.5,13.5
	c2.169,1.239,4.831,1.239,7,0l0,0v24l0,0c-2.169,1.239-4.831,1.239-7,0l0,0V13.5z"/>
<line fill="none" stroke="#147391" stroke-linejoin="round" stroke-miterlimit="10" x1="21" y1="20.5" x2="24" y2="20.5"/>
<line fill="none" stroke="#147391" stroke-linejoin="round" stroke-miterlimit="10" x1="21" y1="28.5" x2="27" y2="28.5"/>
<line fill="none" stroke="#147391" stroke-linejoin="round" stroke-miterlimit="10" x1="21" y1="24.5" x2="24" y2="24.5"/>
<linearGradient id="SVGID_6_" gradientUnits="userSpaceOnUse" x1="29.4999" y1="12" x2="36.5" y2="12">
	<stop  offset="0" style="stop-color:#F2F2F2"/>
	<stop  offset="0.5" style="stop-color:#CCCCCC"/>
	<stop  offset="0.6296" style="stop-color:#C7C7C7"/>
	<stop  offset="0.7792" style="stop-color:#B9B9B9"/>
	<stop  offset="0.9383" style="stop-color:#A2A2A2"/>
	<stop  offset="0.99" style="stop-color:#999999"/>
</linearGradient>
<polygon fill="url(#SVGID_6_)" points="30.5,10 35.5,10 36.5,14 29.5,14 "/>
<line fill="none" stroke="#147391" stroke-linecap="round" stroke-linejoin="round" stroke-miterlimit="10" x1="29.5" y1="13.5" x2="30.5" y2="9.5"/>
<line fill="none" stroke="#147391" stroke-linecap="round" stroke-linejoin="round" stroke-miterlimit="10" x1="35.5" y1="9.5" x2="36.5" y2="13.5"/>
<path fill="none" stroke="#147391" stroke-linecap="round" stroke-linejoin="round" stroke-miterlimit="10" d="M35.5,10L35.5,10
	c-1.564,0.642-3.316,0.657-4.891,0.042L30.5,10"/>
<linearGradient id="SVGID_7_" gradientUnits="userSpaceOnUse" x1="22.75" y1="1445.25" x2="7.25" y2="1429.75" gradientTransform="matrix(-1 0 0 -1 48 1463)">
	<stop  offset="0" style="stop-color:#73B4C8"/>
	<stop  offset="0.1747" style="stop-color:#6AAEC3"/>
	<stop  offset="0.4567" style="stop-color:#529EB5"/>
	<stop  offset="0.8089" style="stop-color:#2C839F"/>
	<stop  offset="1" style="stop-color:#147391"/>
</linearGradient>
<path fill="url(#SVGID_7_)" stroke="#147391" stroke-linejoin="round" stroke-miterlimit="10" d="M29.5,13.5L29.5,13.5
	c2.169,1.239,4.831,1.239,7,0l0,0v24l0,0c-2.169,1.239-4.831,1.239-7,0l0,0V13.5z"/>
<line fill="none" stroke="#147391" stroke-linejoin="round" stroke-miterlimit="10" x1="30" y1="20.5" x2="36" y2="20.5"/>
</svg>
