<svg version="1.1" id="Layer_1" xmlns="http://www.w3.org/2000/svg" xmlns:xlink="http://www.w3.org/1999/xlink" x="0px" y="0px"
	 viewBox="0 0 48 48" enable-background="new 0 0 48 48" xml:space="preserve">
<linearGradient id="SVGID_1_" gradientUnits="userSpaceOnUse" x1="-1.25" y1="2.25" x2="37.25" y2="40.75">
	<stop  offset="0" style="stop-color:#FFFFFF"/>
	<stop  offset="0.3045" style="stop-color:#FBFBFB"/>
	<stop  offset="0.5835" style="stop-color:#F0F0F0"/>
	<stop  offset="0.8518" style="stop-color:#DEDEDE"/>
	<stop  offset="1" style="stop-color:#D0D0D0"/>
</linearGradient>
<rect x="0.5" y="0.5" fill="url(#SVGID_1_)" stroke="#464646" stroke-miterlimit="10" width="35" height="42"/>
<rect x="4.5" y="3.5" fill="none" stroke="#6E6E6E" stroke-miterlimit="10" width="11" height="11"/>
<rect x="4.5" y="16.5" fill="none" stroke="#6E6E6E" stroke-miterlimit="10" width="11" height="11"/>
<rect x="4.5" y="29.5" fill="none" stroke="#6E6E6E" stroke-miterlimit="10" width="11" height="11"/>
<line fill="none" stroke="#6E6E6E" stroke-miterlimit="10" x1="18" y1="8.5" x2="32" y2="8.5"/>
<line fill="none" stroke="#6E6E6E" stroke-miterlimit="10" x1="18" y1="21.5" x2="30" y2="21.5"/>
<line fill="none" stroke="#6E6E6E" stroke-miterlimit="10" x1="18" y1="34.5" x2="28" y2="34.5"/>
<linearGradient id="SVGID_2_" gradientUnits="userSpaceOnUse" x1="26.1612" y1="26.1612" x2="43.8388" y2="43.8388">
	<stop  offset="0" style="stop-color:#F2F2F2"/>
	<stop  offset="0.5" style="stop-color:#CCCCCC"/>
	<stop  offset="0.6296" style="stop-color:#C7C7C7"/>
	<stop  offset="0.7792" style="stop-color:#B9B9B9"/>
	<stop  offset="0.9383" style="stop-color:#A2A2A2"/>
	<stop  offset="0.99" style="stop-color:#999999"/>
</linearGradient>
<circle fill="url(#SVGID_2_)" stroke="#464646" stroke-miterlimit="10" cx="35" cy="35" r="12.5"/>
	<polygon fill="#FFFFFF" points="26.445,36.485 28.756,34.571 32.486,39.053 41.688,27.677 44.022,29.561 32.519,43.789 	"/>
		<path fill="#6E6E6E" d="M41.763,28.38l1.557,1.256L32.513,43l-5.362-6.449l1.54-1.276l3.802,4.566L41.763,28.38 M41.613,26.974
			l-0.628,0.777l-8.504,10.514l-3.022-3.63l-0.638-0.767l-0.768,0.637l-1.54,1.276l-0.771,0.639l0.64,0.77l5.362,6.449l0.78,0.938
			l0.767-0.948l10.807-13.365l0.629-0.778l-0.779-0.629l-1.557-1.256L41.613,26.974L41.613,26.974z"/>
<polyline fill="none" stroke="#6E6E6E" stroke-miterlimit="10" points="7,9 9.5,11.5 13,6 "/>
<polyline fill="none" stroke="#6E6E6E" stroke-miterlimit="10" points="7,22 9.5,24.5 13,19 "/>
<polyline fill="none" stroke="#6E6E6E" stroke-miterlimit="10" points="7,35 9.5,37.5 13,32 "/>
</svg>
