<svg id="Layer_1" data-name="Layer 1" xmlns="http://www.w3.org/2000/svg" xmlns:xlink="http://www.w3.org/1999/xlink" viewBox="0 0 48 48">
  <defs>
    <linearGradient id="linear-gradient" x1="2.875" y1="7.875" x2="8" y2="13" gradientUnits="userSpaceOnUse">
      <stop offset="0" stop-color="#fff"/>
      <stop offset="0.356" stop-color="#f8f8f8"/>
      <stop offset="0.871" stop-color="#e5e5e5"/>
      <stop offset="1" stop-color="#dfdfdf"/>
    </linearGradient>
    <linearGradient id="linear-gradient-2" x1="7.656" y1="13.656" x2="16.406" y2="4.906" gradientUnits="userSpaceOnUse">
      <stop offset="0" stop-color="#bebebe"/>
      <stop offset="0.03" stop-color="#c9c9c9"/>
      <stop offset="0.405" stop-color="#e5e5e5"/>
      <stop offset="0.757" stop-color="#f8f8f8"/>
      <stop offset="1" stop-color="#fff"/>
    </linearGradient>
    <linearGradient id="linear-gradient-3" x1="1.981" y1="12.769" x2="9.106" y2="19.894" gradientUnits="userSpaceOnUse">
      <stop offset="0" stop-color="#b1b1b1"/>
      <stop offset="1" stop-color="#7d7d7d"/>
    </linearGradient>
    <linearGradient id="linear-gradient-4" x1="6.5" y1="20.5" x2="17.312" y2="9.688" gradientUnits="userSpaceOnUse">
      <stop offset="0" stop-color="#7d7d7d"/>
      <stop offset="1" stop-color="#b1b1b1"/>
    </linearGradient>
    <linearGradient id="paper_gradient" data-name="paper gradient" x1="7.313" y1="3.438" x2="12.687" y2="8.812" gradientUnits="userSpaceOnUse">
      <stop offset="0" stop-color="#fff"/>
      <stop offset="0.221" stop-color="#f8f8f8"/>
      <stop offset="0.541" stop-color="#e5e5e5"/>
      <stop offset="0.92" stop-color="#c6c6c6"/>
      <stop offset="1" stop-color="#bebebe"/>
    </linearGradient>
    <linearGradient id="paper_gradient-2" x1="12.111" y1="12.111" x2="19.889" y2="19.889" xlink:href="#paper_gradient"/>
    <linearGradient id="linear-gradient-5" x1="24.875" x2="30" y2="13" xlink:href="#linear-gradient"/>
    <linearGradient id="linear-gradient-6" x1="29.656" y1="13.656" x2="38.406" y2="4.906" xlink:href="#linear-gradient-2"/>
    <linearGradient id="linear-gradient-7" x1="23.981" y1="12.769" x2="31.106" y2="19.894" xlink:href="#linear-gradient-3"/>
    <linearGradient id="linear-gradient-8" x1="28.5" y1="20.5" x2="39.312" y2="9.688" xlink:href="#linear-gradient-4"/>
    <linearGradient id="paper_gradient-3" x1="29.313" y1="3.438" x2="34.687" y2="8.812" xlink:href="#paper_gradient"/>
    <linearGradient id="paper_gradient-4" x1="34.111" y1="12.111" x2="41.889" y2="19.889" xlink:href="#paper_gradient"/>
    <linearGradient id="linear-gradient-9" x1="2.875" y1="30.875" x2="8" y2="36" xlink:href="#linear-gradient"/>
    <linearGradient id="linear-gradient-10" x1="7.656" y1="36.656" x2="16.406" y2="27.906" xlink:href="#linear-gradient-2"/>
    <linearGradient id="linear-gradient-11" x1="1.981" y1="35.769" x2="9.106" y2="42.894" xlink:href="#linear-gradient-3"/>
    <linearGradient id="linear-gradient-12" x1="6.5" y1="43.5" x2="17.312" y2="32.688" xlink:href="#linear-gradient-4"/>
    <linearGradient id="paper_gradient-5" x1="7.313" y1="26.438" x2="12.687" y2="31.812" xlink:href="#paper_gradient"/>
    <linearGradient id="paper_gradient-6" x1="12.111" y1="35.111" x2="19.889" y2="42.889" xlink:href="#paper_gradient"/>
    <linearGradient id="linear-gradient-13" x1="24.875" y1="30.875" x2="30" y2="36" xlink:href="#linear-gradient"/>
    <linearGradient id="linear-gradient-14" x1="29.656" y1="36.656" x2="38.406" y2="27.906" xlink:href="#linear-gradient-2"/>
    <linearGradient id="linear-gradient-15" x1="23.981" y1="35.769" x2="31.106" y2="42.894" xlink:href="#linear-gradient-3"/>
    <linearGradient id="linear-gradient-16" x1="28.5" y1="43.5" x2="39.312" y2="32.688" xlink:href="#linear-gradient-4"/>
    <linearGradient id="paper_gradient-7" x1="29.313" y1="26.438" x2="34.687" y2="31.812" xlink:href="#paper_gradient"/>
    <linearGradient id="paper_gradient-8" x1="34.111" y1="35.111" x2="41.889" y2="42.889" xlink:href="#paper_gradient"/>
  </defs>
  <line y1="12" x2="48" y2="12" fill="none" stroke="#969696" stroke-linejoin="round" stroke-width="2"/>
  <line y1="35" x2="48" y2="35" fill="none" stroke="#969696" stroke-linejoin="round" stroke-width="2"/>
  <line x1="12" x2="12" y2="48" fill="none" stroke="#969696" stroke-linejoin="round" stroke-width="2"/>
  <line x1="34" x2="34" y2="48" fill="none" stroke="#969696" stroke-linejoin="round" stroke-width="2"/>
  <polygon points="3.5 11.25 7.5 13.5 7.5 9.75 3.5 7.25 3.5 11.25" fill="url(#linear-gradient)"/>
  <polygon points="7.5 9.75 7.5 13.5 16.5 8.876 16.5 5 7.5 9.75" fill="url(#linear-gradient-2)"/>
  <polygon points="3.5 19.075 7.5 21.5 7.5 13.5 3.5 11.25 3.5 19.075" fill="url(#linear-gradient-3)"/>
  <polygon points="16.5 8.876 16.5 16.5 7.5 21.5 7.5 13.5 16.5 8.876" fill="url(#linear-gradient-4)"/>
  <polygon points="3.5 7.25 7.5 9.75 16.5 5 12.25 2.5 3.5 7.25" fill="url(#paper_gradient)"/>
  <g>
    <line x1="7.5" y1="21.25" x2="7.5" y2="9.75" fill="none" stroke="#6e6e6e" stroke-linejoin="round"/>
    <polyline points="16.5 5 7.5 9.75 3.5 7.25" fill="none" stroke="#6e6e6e" stroke-linejoin="round"/>
    <polygon points="12.25 2.5 3.5 7.25 3.5 19.075 7.5 21.5 16.5 16.5 16.5 5 12.25 2.5" fill="none" stroke="#464646" stroke-linejoin="round"/>
  </g>
  <g>
    <circle cx="16" cy="16" r="5.5" stroke="#464646" stroke-miterlimit="10" fill="url(#paper_gradient-2)"/>
    <path d="M17.5,16A1.5,1.5,0,1,1,16,14.5,1.5,1.5,0,0,1,17.5,16" fill="#fff"/>
    <circle cx="16" cy="16" r="1.5" fill="none" stroke="#6e6e6e" stroke-miterlimit="10"/>
  </g>
  <polygon points="25.5 11.25 29.5 13.5 29.5 9.75 25.5 7.25 25.5 11.25" fill="url(#linear-gradient-5)"/>
  <polygon points="29.5 9.75 29.5 13.5 38.5 8.876 38.5 5 29.5 9.75" fill="url(#linear-gradient-6)"/>
  <polygon points="25.5 19.075 29.5 21.5 29.5 13.5 25.5 11.25 25.5 19.075" fill="url(#linear-gradient-7)"/>
  <polygon points="38.5 8.876 38.5 16.5 29.5 21.5 29.5 13.5 38.5 8.876" fill="url(#linear-gradient-8)"/>
  <polygon points="25.5 7.25 29.5 9.75 38.5 5 34.25 2.5 25.5 7.25" fill="url(#paper_gradient-3)"/>
  <g>
    <line x1="29.5" y1="21.25" x2="29.5" y2="9.75" fill="none" stroke="#6e6e6e" stroke-linejoin="round"/>
    <polyline points="38.5 5 29.5 9.75 25.5 7.25" fill="none" stroke="#6e6e6e" stroke-linejoin="round"/>
    <polygon points="34.25 2.5 25.5 7.25 25.5 19.075 29.5 21.5 38.5 16.5 38.5 5 34.25 2.5" fill="none" stroke="#464646" stroke-linejoin="round"/>
  </g>
  <g>
    <circle cx="38" cy="16" r="5.5" stroke="#464646" stroke-miterlimit="10" fill="url(#paper_gradient-4)"/>
    <path d="M39.5,16A1.5,1.5,0,1,1,38,14.5,1.5,1.5,0,0,1,39.5,16" fill="#fff"/>
    <circle cx="38" cy="16" r="1.5" fill="none" stroke="#6e6e6e" stroke-miterlimit="10"/>
  </g>
  <polygon points="3.5 34.25 7.5 36.5 7.5 32.75 3.5 30.25 3.5 34.25" fill="url(#linear-gradient-9)"/>
  <polygon points="7.5 32.75 7.5 36.5 16.5 31.876 16.5 28 7.5 32.75" fill="url(#linear-gradient-10)"/>
  <polygon points="3.5 42.075 7.5 44.5 7.5 36.5 3.5 34.25 3.5 42.075" fill="url(#linear-gradient-11)"/>
  <polygon points="16.5 31.876 16.5 39.5 7.5 44.5 7.5 36.5 16.5 31.876" fill="url(#linear-gradient-12)"/>
  <polygon points="3.5 30.25 7.5 32.75 16.5 28 12.25 25.5 3.5 30.25" fill="url(#paper_gradient-5)"/>
  <g>
    <line x1="7.5" y1="44.25" x2="7.5" y2="32.75" fill="none" stroke="#6e6e6e" stroke-linejoin="round"/>
    <polyline points="16.5 28 7.5 32.75 3.5 30.25" fill="none" stroke="#6e6e6e" stroke-linejoin="round"/>
    <polygon points="12.25 25.5 3.5 30.25 3.5 42.075 7.5 44.5 16.5 39.5 16.5 28 12.25 25.5" fill="none" stroke="#464646" stroke-linejoin="round"/>
  </g>
  <g>
    <circle cx="16" cy="39" r="5.5" stroke="#464646" stroke-miterlimit="10" fill="url(#paper_gradient-6)"/>
    <path d="M17.5,39A1.5,1.5,0,1,1,16,37.5,1.5,1.5,0,0,1,17.5,39" fill="#fff"/>
    <circle cx="16" cy="39" r="1.5" fill="none" stroke="#6e6e6e" stroke-miterlimit="10"/>
  </g>
  <polygon points="25.5 34.25 29.5 36.5 29.5 32.75 25.5 30.25 25.5 34.25" fill="url(#linear-gradient-13)"/>
  <polygon points="29.5 32.75 29.5 36.5 38.5 31.876 38.5 28 29.5 32.75" fill="url(#linear-gradient-14)"/>
  <polygon points="25.5 42.075 29.5 44.5 29.5 36.5 25.5 34.25 25.5 42.075" fill="url(#linear-gradient-15)"/>
  <polygon points="38.5 31.876 38.5 39.5 29.5 44.5 29.5 36.5 38.5 31.876" fill="url(#linear-gradient-16)"/>
  <polygon points="25.5 30.25 29.5 32.75 38.5 28 34.25 25.5 25.5 30.25" fill="url(#paper_gradient-7)"/>
  <g>
    <line x1="29.5" y1="44.25" x2="29.5" y2="32.75" fill="none" stroke="#6e6e6e" stroke-linejoin="round"/>
    <polyline points="38.5 28 29.5 32.75 25.5 30.25" fill="none" stroke="#6e6e6e" stroke-linejoin="round"/>
    <polygon points="34.25 25.5 25.5 30.25 25.5 42.075 29.5 44.5 38.5 39.5 38.5 28 34.25 25.5" fill="none" stroke="#464646" stroke-linejoin="round"/>
  </g>
  <g>
    <circle cx="38" cy="39" r="5.5" stroke="#464646" stroke-miterlimit="10" fill="url(#paper_gradient-8)"/>
    <path d="M39.5,39A1.5,1.5,0,1,1,38,37.5,1.5,1.5,0,0,1,39.5,39" fill="#fff"/>
    <circle cx="38" cy="39" r="1.5" fill="none" stroke="#6e6e6e" stroke-miterlimit="10"/>
  </g>
</svg>
