<svg id="Layer_1" data-name="Layer 1" xmlns="http://www.w3.org/2000/svg" xmlns:xlink="http://www.w3.org/1999/xlink" viewBox="0 0 48 48">
    <linearGradient id="front_-45" data-name="front -45" x1="9" y1="28.5" x2="25.9999" y2="45.4998" gradientUnits="userSpaceOnUse">
      <stop offset="0" stop-color="#f2f2f2"/>
      <stop offset="0.5" stop-color="#ccc"/>
      <stop offset="0.6296" stop-color="#c7c7c7"/>
      <stop offset="0.7792" stop-color="#b9b9b9"/>
      <stop offset="0.9383" stop-color="#a2a2a2"/>
      <stop offset="0.99" stop-color="#999"/>
    </linearGradient>
    <linearGradient id="Dark_Blue_Grad" data-name="Dark Blue Grad" x1="5.4786" y1="5.478" x2="29.5214" y2="29.5208" gradientUnits="userSpaceOnUse">
      <stop offset="0" stop-color="#73b4c8"/>
      <stop offset="0.1747" stop-color="#6aaec3"/>
      <stop offset="0.4567" stop-color="#529eb5"/>
      <stop offset="0.8089" stop-color="#2c839f"/>
      <stop offset="1" stop-color="#147391"/>
    </linearGradient>
    <linearGradient id="New_Gradient_Swatch_1" data-name="New Gradient Swatch 1" x1="10.5768" y1="10.578" x2="24.4216" y2="24.4228" gradientUnits="userSpaceOnUse">
      <stop offset="0" stop-color="#cde6eb"/>
      <stop offset="0.2214" stop-color="#c6e2e8"/>
      <stop offset="0.5419" stop-color="#b3d8e1"/>
      <stop offset="0.9212" stop-color="#93c7d5"/>
      <stop offset="1" stop-color="#8cc3d2"/>
    </linearGradient>
    <linearGradient id="Dark_Blue_Grad-2" x1="27.0147" y1="27.0147" x2="43.9853" y2="43.9853" xlink:href="#Dark_Blue_Grad"/>
  <polyline points="25.5 28 25.5 46 17.5 40.75 9.5 46 9.5 28" stroke="#464646" stroke-linecap="round" stroke-linejoin="round" fill="url(#front_-45)"/>
  <path d="M31.6464,18.47a.6339.6339,0,0,0-.083.8366l2.282,3.1518L30.1985,23.811a.6335.6335,0,0,0-.396.7412l.9034,3.7842-3.8895-.1473a.6255.6255,0,0,0-.65.5334l-.615,3.8409-3.5354-1.6223a.6336.6336,0,0,0-.8044.2438L19.1737,34.5l-2.647-2.8522a.633.633,0,0,0-.8354-.083L12.542,33.8454l-1.3539-3.6467a.6284.6284,0,0,0-.7412-.396l-3.7843.9021.1461-3.888a.6351.6351,0,0,0-.5334-.65l-3.8412-.615,1.6237-3.5354a.6333.6333,0,0,0-.2438-.8043L.5,19.173,3.3523,16.53a.6337.6337,0,0,0,.083-.8366L1.1534,12.5415,4.8,11.1891a.6334.6334,0,0,0,.396-.7413L4.2941,6.6625,8.1835,6.81a.6326.6326,0,0,0,.65-.5333L9.447,2.4353l3.5355,1.6236a.6339.6339,0,0,0,.8044-.2438L15.825.5l2.6471,2.8523a.6349.6349,0,0,0,.8353.0829L22.458,1.1546l1.3526,3.6467a.63.63,0,0,0,.7412.396l3.7855-.9033L28.19,8.1833a.6353.6353,0,0,0,.5334.65l3.8412.6149L30.941,12.9834a.6326.6326,0,0,0,.2438.8042L34.5,15.8257Z" stroke="#464646" stroke-linecap="round" stroke-linejoin="round" fill="url(#Dark_Blue_Grad)"/>
  <path d="M21.2432,26.5449a9.7889,9.7889,0,1,1,5.3-12.7841A9.7907,9.7907,0,0,1,21.2432,26.5449Z" stroke="#147391" stroke-linecap="round" stroke-linejoin="round" fill="url(#New_Gradient_Swatch_1)"/>
  <polygon points="11.329 19.704 12.652 17.941 16.036 19.704 21.467 12.2 23.23 13.533 17.059 24.112 11.329 19.704" fill="#fff" stroke="#147391" stroke-linecap="round" stroke-linejoin="round" stroke-width="0.9938"/>
  <circle cx="35.5" cy="35.5" r="12" stroke="#464646" stroke-linecap="round" stroke-linejoin="round" fill="url(#Dark_Blue_Grad-2)"/>
      <path d="M37.3984,42.1a.5.5,0,0,1-.4814-.6357l.7314-2.5967L35.53,37.1968a.5.5,0,0,1,.29-.8921l2.6958-.1074.9351-2.5308a.5.5,0,0,1,.9385,0l.935,2.5308,2.6958.1074a.5.5,0,0,1,.29.8921l-2.1177,1.6709.731,2.5971a.5.5,0,0,1-.7593.5513L39.92,40.5181l-2.2436,1.498A.5008.5008,0,0,1,37.3984,42.1Z" fill="#fff"/>
      <path d="M39.92,33.84l1.0507,2.8439L44,36.804l-2.38,1.878L42.4416,41.6,39.92,39.9171,37.3984,41.6,38.22,38.682l-2.38-1.878,3.0293-.12L39.92,33.84m0-1a1,1,0,0,0-.938.6534l-.8194,2.2178L35.8,35.8048a1,1,0,0,0-.58,1.7842l1.856,1.4646-.6407,2.2757a1,1,0,0,0,1.5178,1.1027L39.92,41.12l1.9664,1.3125a1,1,0,0,0,1.5178-1.1027l-.6407-2.2757L44.62,37.589a1,1,0,0,0-.58-1.7842l-2.3623-.0939-.8194-2.2178a1,1,0,0,0-.938-.6534Z" fill="#147391"/>
      <path d="M33.6016,42.1a.5008.5008,0,0,1-.2779-.084L31.08,40.5181l-2.2437,1.498a.5.5,0,0,1-.7593-.5513l.731-2.5971L26.69,37.1968a.5.5,0,0,1,.29-.8921l2.6958-.1074.935-2.5308a.5.5,0,0,1,.9385,0l.9351,2.5308,2.6958.1074a.5.5,0,0,1,.29.8921l-2.1181,1.6709.7314,2.5967a.5.5,0,0,1-.4814.6357Z" fill="#fff"/>
      <path d="M31.08,33.84l1.0507,2.8439,3.0293.12-2.38,1.878L33.6016,41.6,31.08,39.9171,28.5584,41.6,29.38,38.682,27,36.804l3.0293-.12L31.08,33.84m0-1a1,1,0,0,0-.938.6534l-.8194,2.2178-2.3623.0939a1,1,0,0,0-.58,1.7842l1.856,1.4646-.6407,2.2757a1,1,0,0,0,1.5178,1.1027L31.08,41.12l1.9664,1.3125a1,1,0,0,0,1.5178-1.1027l-.6407-2.2757L35.78,37.589a1,1,0,0,0-.58-1.7842l-2.3623-.0939-.8194-2.2178a1,1,0,0,0-.938-.6534Z" fill="#147391"/>
      <path d="M38.0215,34.7607a.5009.5009,0,0,1-.2778-.0839L35.5,33.1787l-2.2437,1.4981a.5.5,0,0,1-.7592-.5513l.7309-2.5972L31.11,29.8569a.5.5,0,0,1,.29-.8921l2.6958-.1074.9351-2.5307a.5.5,0,0,1,.9384,0l.9351,2.5307,2.6958.1074a.5.5,0,0,1,.29.8921L37.772,31.5283l.7309,2.5972a.5.5,0,0,1-.4814.6352Z" fill="#fff"/>
      <path d="M35.5,26.5l1.0507,2.8439,3.0293.12-2.38,1.878.8216,2.9183L35.5,32.5774l-2.5216,1.6832L33.8,31.3423l-2.38-1.878,3.0293-.12L35.5,26.5m0-1a1,1,0,0,0-.938.6535l-.8194,2.2177-2.3623.0939a1,1,0,0,0-.58,1.7842l1.856,1.4646L32.0158,33.99a1,1,0,0,0,1.5178,1.1028L35.5,33.78l1.9664,1.3126A1,1,0,0,0,38.9842,33.99l-.6407-2.2757L40.2,30.2493a1,1,0,0,0-.58-1.7842l-2.3623-.0939-.8194-2.2177A1,1,0,0,0,35.5,25.5Z" fill="#147391"/>
</svg>
