<svg id="Layer_1" data-name="Layer 1" xmlns="http://www.w3.org/2000/svg" xmlns:xlink="http://www.w3.org/1999/xlink" viewBox="0 0 48 48">
  <defs>
    <linearGradient id="New_Gradient_Swatch_1" data-name="New Gradient Swatch 1" x1="9.4997" y1="1.909" x2="27.5003" y2="19.9095" gradientUnits="userSpaceOnUse">
      <stop offset="0" stop-color="#cde6eb"/>
      <stop offset="0.2214" stop-color="#c6e2e8"/>
      <stop offset="0.5419" stop-color="#b3d8e1"/>
      <stop offset="0.9212" stop-color="#93c7d5"/>
      <stop offset="1" stop-color="#8cc3d2"/>
    </linearGradient>
    <linearGradient id="New_Gradient_Swatch_2" data-name="New Gradient Swatch 2" x1="-2.782" y1="14.1907" x2="21.782" y2="38.7547" gradientUnits="userSpaceOnUse">
      <stop offset="0" stop-color="#afd7e1"/>
      <stop offset="0.1588" stop-color="#a4d0dc"/>
      <stop offset="0.7059" stop-color="#80bcce"/>
      <stop offset="1" stop-color="#73b4c8"/>
    </linearGradient>
    <linearGradient id="New_Gradient_Swatch_2-2" x1="13.3204" y1="26.4981" x2="23.6796" y2="36.8572" xlink:href="#New_Gradient_Swatch_2"/>
    <linearGradient id="Dark_Blue_Grad" data-name="Dark Blue Grad" x1="26.1612" y1="26.1612" x2="43.8388" y2="43.8388" gradientUnits="userSpaceOnUse">
      <stop offset="0" stop-color="#73b4c8"/>
      <stop offset="0.1747" stop-color="#6aaec3"/>
      <stop offset="0.4567" stop-color="#529eb5"/>
      <stop offset="0.8089" stop-color="#2c839f"/>
      <stop offset="1" stop-color="#147391"/>
    </linearGradient>
  </defs>
    <polygon points="18.5 21.319 36.5 10.91 36.5 31.628 18.5 42.037 18.5 21.319" fill="#3c91af"/>
    <polygon points="0.5 10.909 18.47 0.5 36.5 10.91 18.5 21.319 0.5 10.909" fill="url(#New_Gradient_Swatch_1)"/>
    <polygon points="18.5 21.319 18.5 42.037 0.5 31.627 0.5 10.909 18.5 21.319" fill="url(#New_Gradient_Swatch_2)"/>
    <line x1="18.5" y1="21.3185" x2="18.5" y2="42.0368" stroke="#147391" stroke-linejoin="round" fill="url(#New_Gradient_Swatch_2-2)"/>
  <polyline points="36.5 10.91 18.5 21.319 0.5 10.909" fill="none" stroke="#147391" stroke-linejoin="round"/>
  <polygon points="18.47 0.5 0.5 10.909 0.5 31.627 18.5 42.037 36.5 31.628 36.5 10.91 18.47 0.5" fill="none" stroke="#464646" stroke-linejoin="round"/>
  <circle cx="35" cy="35" r="12.5" stroke="#464646" stroke-linecap="round" stroke-linejoin="round" fill="url(#Dark_Blue_Grad)"/>
    <polygon points="26.445 36.485 28.756 34.571 32.486 39.053 41.688 27.677 44.022 29.561 32.519 43.788 26.445 36.485" fill="#fff"/>
    <path d="M41.7627,28.38l1.5566,1.2558L32.5127,43l-5.3622-6.4492,1.54-1.2764,3.8016,4.5665L41.7627,28.38m-.1494-1.4054-.6281.7765L32.4811,38.2644l-3.022-3.63-.6384-.7668-.7683.6367-1.54,1.2763-.7712.6392.64.77,5.3622,6.4493.78.9377.7668-.9483L44.0969,30.2642l.63-.7785-.7792-.6286-1.5566-1.2558-.7773-.6271Z" fill="#147391"/>
</svg>
