<svg id="Layer_1" data-name="Layer 1" xmlns="http://www.w3.org/2000/svg" xmlns:xlink="http://www.w3.org/1999/xlink" viewBox="0 0 48 48">
    <linearGradient id="paper_gradient" data-name="paper gradient" x1="4.75" y1="-2.75" x2="44.25" y2="36.75" gradientUnits="userSpaceOnUse">
      <stop offset="0" stop-color="#fff"/>
      <stop offset="0.221" stop-color="#f8f8f8"/>
      <stop offset="0.541" stop-color="#e5e5e5"/>
      <stop offset="0.92" stop-color="#c6c6c6"/>
      <stop offset="1" stop-color="#bebebe"/>
    </linearGradient>
    <linearGradient id="linear-gradient" x1="2" y1="4" x2="28" y2="30" gradientUnits="userSpaceOnUse">
      <stop offset="0" stop-color="#fff"/>
      <stop offset="0.335" stop-color="#f8f8f8"/>
      <stop offset="0.82" stop-color="#e5e5e5"/>
      <stop offset="1" stop-color="#dcdcdc"/>
    </linearGradient>
    <linearGradient id="linear-gradient-2" x1="22.875" y1="4.625" x2="47.625" y2="29.375" xlink:href="#linear-gradient"/>
    <linearGradient id="Dark_Blue_Grad" data-name="Dark Blue Grad" x1="5.75" y1="1.25" x2="15.25" y2="10.75" gradientUnits="userSpaceOnUse">
      <stop offset="0" stop-color="#73b4c8"/>
      <stop offset="0.175" stop-color="#6aaec3"/>
      <stop offset="0.457" stop-color="#529eb5"/>
      <stop offset="0.809" stop-color="#2c839f"/>
      <stop offset="1" stop-color="#147391"/>
    </linearGradient>
    <linearGradient id="paper_gradient-2" x1="34.5" y1="0.5" x2="47.5" y2="13.5" xlink:href="#paper_gradient"/>
    <linearGradient id="Light_Blue_Grad" data-name="Light Blue Grad" x1="38" y1="-2" x2="50" y2="10" gradientUnits="userSpaceOnUse">
      <stop offset="0" stop-color="#afd7e1"/>
      <stop offset="1" stop-color="#73b4c8"/>
    </linearGradient>
    <linearGradient id="paper_gradient-3" x1="35" y1="1" x2="47" y2="13" xlink:href="#paper_gradient"/>
    <linearGradient id="linear-gradient-3" x1="25.5" y1="22.707" x2="35.5" y2="32.707" gradientUnits="userSpaceOnUse">
      <stop offset="0" stop-color="#cde6eb"/>
      <stop offset="0.221" stop-color="#c6e2e8"/>
      <stop offset="0.542" stop-color="#b3d8e1"/>
      <stop offset="0.921" stop-color="#93c7d5"/>
      <stop offset="1" stop-color="#8cc3d2"/>
    </linearGradient>
    <linearGradient id="linear-gradient-4" x1="18.625" y1="29.582" x2="32.375" y2="43.332" gradientUnits="userSpaceOnUse">
      <stop offset="0" stop-color="#afd7e1"/>
      <stop offset="0.159" stop-color="#a4d0dc"/>
      <stop offset="0.706" stop-color="#80bcce"/>
      <stop offset="1" stop-color="#73b4c8"/>
    </linearGradient>
  <rect x="1.5" y="0.5" width="46" height="33" stroke="#464646" stroke-miterlimit="10" fill="url(#paper_gradient)"/>
  <line x1="23.5" y1="1" x2="23.5" y2="2.5" fill="none" stroke="#a0a0a0" stroke-miterlimit="10"/>
  <line x1="25.5" y1="1" x2="25.5" y2="2.5" fill="none" stroke="#a0a0a0" stroke-miterlimit="10"/>
  <polyline points="26.5 31.5 3.5 31.5 3.5 2.5 26.5 2.5" stroke="#8f8d8d" stroke-miterlimit="10" fill="url(#linear-gradient)"/>
  <polyline points="25 2.5 45.5 2.5 45.5 31.5 25 31.5" stroke="#8f8d8d" stroke-miterlimit="10" fill="url(#linear-gradient-2)"/>
  <line x1="7" y1="9.5" x2="19" y2="9.5" fill="none" stroke="#b9b7b6"/>
  <line x1="7" y1="13.5" x2="17" y2="13.5" fill="none" stroke="#b9b7b6"/>
  <line x1="7" y1="17.5" x2="18" y2="17.5" fill="none" stroke="#b9b7b6"/>
  <line x1="7" y1="21.5" x2="18" y2="21.5" fill="none" stroke="#b9b7b6"/>
  <line x1="30" y1="13.5" x2="40" y2="13.5" fill="none" stroke="#b9b7b6"/>
  <polygon points="14.5 11.5 10.5 7.5 6.5 11.5 6.5 0.5 14.5 0.5 14.5 11.5" stroke="#464646" stroke-miterlimit="10" fill="url(#Dark_Blue_Grad)"/>
  <line x1="24.5" y1="2.5" x2="24.5" y2="29.5" fill="none" stroke="#8f8d8d" stroke-miterlimit="10"/>
  <rect x="34.5" y="0.5" width="13" height="13" fill="url(#paper_gradient-2)"/>
  <polygon points="47 13 47 1 35 1 47 13" fill="url(#Light_Blue_Grad)"/>
  <line x1="35" y1="1" x2="47" y2="13" stroke="#464646" stroke-miterlimit="10" fill="url(#paper_gradient-3)"/>
  <rect x="34.5" y="0.5" width="13" height="13" fill="none" stroke="#464646" stroke-miterlimit="10"/>
  <rect x="34.5" y="0.5" width="13" height="13" fill="none" stroke="#464646" stroke-miterlimit="10"/>
  <line x1="7" y1="25.5" x2="18" y2="25.5" fill="none" stroke="#b9b7b6"/>
    <polygon points="40.5 27.707 30.5 21.873 20.5 27.707 30.5 33.54 40.5 27.707" fill="url(#linear-gradient-3)"/>
    <polygon points="20.5 27.707 20.5 39.373 30.5 45.207 30.5 33.54 20.5 27.707" fill="url(#linear-gradient-4)"/>
    <polygon points="30.5 33.54 30.5 45.207 40.5 39.373 40.5 27.707 30.5 33.54" fill="#3c91af"/>
    <polyline points="20.5 27.707 30.5 33.54 40.5 27.707" fill="none" stroke="#147391"/>
    <line x1="30.5" y1="33.54" x2="30.5" y2="45.207" fill="#3c91af" stroke="#147391" stroke-linejoin="round"/>
    <path d="M30.5,21.873l-10,5.834V39.373l10,5.834,10-5.834V27.707Z" fill="none" stroke="#147391" stroke-miterlimit="10"/>
    <circle cx="40.5" cy="39.5" r="2" fill="#f0f0f0" stroke="#147391"/>
    <circle cx="40.5" cy="27.5" r="2" fill="#f0f0f0" stroke="#147391"/>
    <circle cx="20.5" cy="39.5" r="2" fill="#f0f0f0" stroke="#147391"/>
    <circle cx="20.5" cy="27.5" r="2" fill="#f0f0f0" stroke="#147391"/>
    <circle cx="30.5" cy="45.5" r="2" fill="#f0f0f0" stroke="#147391"/>
    <circle cx="30.5" cy="33.5" r="2" fill="#f0f0f0" stroke="#147391"/>
    <circle cx="30.5" cy="21.5" r="2" fill="#f0f0f0" stroke="#147391"/>
  <polygon points="43.5 17.5 41.501 19.5 41.507 12.501 39.507 12.499 39.501 19.509 37.492 17.5 36 19 40.507 23.5 45 19 43.5 17.5" fill="#464646" stroke="#eaeaea" stroke-miterlimit="10"/>
  <polygon points="23.5 17.5 21.501 19.5 21.507 12.501 19.507 12.499 19.501 19.509 17.492 17.5 16 19 20.507 23.5 25 19 23.5 17.5" fill="#464646" stroke="#eaeaea" stroke-miterlimit="10"/>
  <polygon points="33.5 11.5 31.501 13.5 31.506 6.501 29.506 6.499 29.501 13.51 27.492 11.5 26 13 30.506 17.5 35 13 33.5 11.5" fill="#464646" stroke="#eaeaea" stroke-miterlimit="10"/>
</svg>
