<svg id="Layer_1" data-name="Layer 1" xmlns="http://www.w3.org/2000/svg" xmlns:xlink="http://www.w3.org/1999/xlink" viewBox="0 0 48 48">
  <defs>
    <linearGradient id="linear-gradient" x1="25.6542" y1="3.7315" x2="48.9124" y2="26.9896" gradientUnits="userSpaceOnUse">
      <stop offset="0" stop-color="#177490"/>
      <stop offset="0.1785" stop-color="#2d839d"/>
      <stop offset="0.5362" stop-color="#539db4"/>
      <stop offset="0.8226" stop-color="#6badc2"/>
      <stop offset="1" stop-color="#74b3c7"/>
    </linearGradient>
    <linearGradient id="linear-gradient-2" x1="19.8253" y1="7.6477" x2="43.0834" y2="30.9058" xlink:href="#linear-gradient"/>
    <linearGradient id="linear-gradient-3" x1="27.8905" y1="-0.3653" x2="43.7514" y2="15.4956" gradientUnits="userSpaceOnUse">
      <stop offset="0" stop-color="#cde6eb"/>
      <stop offset="0.1147" stop-color="#c6e2e8"/>
      <stop offset="0.2808" stop-color="#b3d8e1"/>
      <stop offset="0.4783" stop-color="#93c8d5"/>
      <stop offset="0.6999" stop-color="#67b1c4"/>
      <stop offset="0.9388" stop-color="#2f94ae"/>
      <stop offset="1" stop-color="#208ca8"/>
    </linearGradient>
    <linearGradient id="New_Gradient_Swatch_1" data-name="New Gradient Swatch 1" x1="0.5" y1="34.5458" x2="38.5" y2="34.5458" gradientUnits="userSpaceOnUse">
      <stop offset="0" stop-color="#cde6eb"/>
      <stop offset="0.2214" stop-color="#c6e2e8"/>
      <stop offset="0.5419" stop-color="#b3d8e1"/>
      <stop offset="0.9212" stop-color="#93c7d5"/>
      <stop offset="1" stop-color="#8cc3d2"/>
    </linearGradient>
    <linearGradient id="linear-gradient-4" x1="14.5169" y1="23.5306" x2="24.4066" y2="23.5306" gradientUnits="userSpaceOnUse">
      <stop offset="0" stop-color="#18748e"/>
      <stop offset="0.1785" stop-color="#2e839b"/>
      <stop offset="0.5362" stop-color="#549cb2"/>
      <stop offset="0.8226" stop-color="#6cacc0"/>
      <stop offset="1" stop-color="#75b2c5"/>
    </linearGradient>
    <linearGradient id="New_Gradient_Swatch_1-2" x1="29.1213" y1="24.7521" x2="34.6435" y2="30.2743" xlink:href="#New_Gradient_Swatch_1"/>
    <linearGradient id="Dark_Blue_Grad_2" data-name="Dark Blue Grad 2" x1="0.5" y1="41.0229" x2="38.5" y2="41.0229" gradientUnits="userSpaceOnUse">
      <stop offset="0" stop-color="#74b3c7"/>
      <stop offset="0.1774" stop-color="#6badc2"/>
      <stop offset="0.4638" stop-color="#539db4"/>
      <stop offset="0.8215" stop-color="#2d839d"/>
      <stop offset="1" stop-color="#177490"/>
    </linearGradient>
    <linearGradient id="linear-gradient-5" x1="8.1957" y1="36.7632" x2="30.8254" y2="36.7632" gradientUnits="userSpaceOnUse">
      <stop offset="0" stop-color="#b1b1b1"/>
      <stop offset="1" stop-color="#7d7d7d"/>
    </linearGradient>
    <linearGradient id="paper_gradient" data-name="paper gradient" x1="7.189" y1="29.3107" x2="31.8375" y2="29.3107" gradientUnits="userSpaceOnUse">
      <stop offset="0" stop-color="#fff"/>
      <stop offset="0.2214" stop-color="#f8f8f8"/>
      <stop offset="0.5415" stop-color="#e5e5e5"/>
      <stop offset="0.92" stop-color="#c6c6c6"/>
      <stop offset="1" stop-color="#bebebe"/>
    </linearGradient>
    <linearGradient id="New_Gradient_Swatch_2" data-name="New Gradient Swatch 2" x1="2.4138" y1="28.6241" x2="8.7242" y2="34.9345" gradientUnits="userSpaceOnUse">
      <stop offset="0" stop-color="#afd7e1"/>
      <stop offset="0.1588" stop-color="#a4d0dc"/>
      <stop offset="0.7059" stop-color="#80bcce"/>
      <stop offset="1" stop-color="#73b4c8"/>
    </linearGradient>
    <linearGradient id="New_Gradient_Swatch_1-3" x1="11.322" y1="17.7517" x2="27.7012" y2="34.1309" xlink:href="#New_Gradient_Swatch_1"/>
    <linearGradient id="linear-gradient-6" x1="14.5977" y1="38.4458" x2="24.4875" y2="38.4458" gradientUnits="userSpaceOnUse">
      <stop offset="0" stop-color="#75b2c5"/>
      <stop offset="0.1774" stop-color="#6cacc0"/>
      <stop offset="0.4638" stop-color="#549cb2"/>
      <stop offset="0.8215" stop-color="#2e839b"/>
      <stop offset="1" stop-color="#18748e"/>
    </linearGradient>
    <linearGradient id="Dark_Blue_Grad_4" data-name="Dark Blue Grad 4" x1="10.5577" y1="24.2693" x2="28.4761" y2="42.1877" xlink:href="#linear-gradient-6"/>
  </defs>
  <path d="M44.2074,8.776,30.4192.8154c-1.27-.7333-2.3035-.1443-2.3076,1.315l-.045,15.8437a5.054,5.054,0,0,0,2.2926,3.971l13.7882,7.9606c1.27.7333,2.3035.1443,2.3077-1.315L46.5,12.747A5.054,5.054,0,0,0,44.2074,8.776ZM33.4111,22.65a21.848,21.848,0,0,1-4.412-7.6467l.9919-.5652a18.547,18.547,0,0,0,4.4162,7.6443ZM30.01,7.8781l-.9854-1.7117A4.58,4.58,0,0,1,33.465,3.6357l.99,1.7094A4.0109,4.0109,0,0,0,30.01,7.8781ZM41.1015,27.09l-.9854-1.7116a4.0149,4.0149,0,0,0,4.4409-2.5308l.99,1.7093A4.6032,4.6032,0,0,1,41.1015,27.09Z" fill="url(#linear-gradient)"/>
  <path d="M41.1015,27.09l-.9854-1.7116a4.0149,4.0149,0,0,0,4.4409-2.5308l.99,1.7093A4.6032,4.6032,0,0,1,41.1015,27.09Z" fill="none" stroke="#147391" stroke-linejoin="round"/>
  <path d="M33.4111,22.65a21.848,21.848,0,0,1-4.412-7.6467l.9919-.5652a18.547,18.547,0,0,0,4.4162,7.6443Z" fill="none" stroke="#147391" stroke-linejoin="round"/>
    <path d="M37.3071,7.7061A14.6436,14.6436,0,0,1,43.95,19.2119c-.012,4.2259-3.0086,5.9336-6.6862,3.81a14.6523,14.6523,0,0,1-6.647-11.5081C30.6287,7.2833,33.6253,5.58,37.3071,7.7061Zm-.0389,13.7283c2.9165,1.6839,5.2905.331,5.3-3.02a11.61,11.61,0,0,0-5.2656-9.1251c-2.9206-1.6863-5.2946-.3334-5.3041,3.0226a11.61,11.61,0,0,0,5.27,9.1227" fill="none" stroke="#147391" stroke-miterlimit="10"/>
  <path d="M30.01,7.8781l-.9854-1.7117A4.58,4.58,0,0,1,33.465,3.6357l.99,1.7094A4.0109,4.0109,0,0,0,30.01,7.8781Z" fill="none" stroke="#147391" stroke-linejoin="round"/>
  <path d="M30.3592,21.9451a5.054,5.054,0,0,1-2.2926-3.971l.0375-13.205-2.2516-1.3c-1.27-.7332-2.3034-.1443-2.3076,1.3151L23.5,20.628a5.0536,5.0536,0,0,0,2.2926,3.9709L39.5808,32.56c1.27.7333,2.3035.1444,2.3076-1.315l.0075-2.6388Z" fill="url(#linear-gradient-2)"/>
  <path d="M41.8959,28.6057,30.3592,21.9451a5.054,5.054,0,0,1-2.2926-3.971l.0375-13.205" fill="none" stroke="#147391" stroke-linejoin="round" stroke-width="0.9744"/>
  <path d="M41.9333,15.4009l-.0449,15.8436a1.61,1.61,0,0,1-.6711,1.4751l4.5667-2.6538a1.61,1.61,0,0,0,.6711-1.4751L46.5,12.747Z" fill="#3c91af"/>
  <path d="M41.9333,15.4009l-.0449,15.8436a1.61,1.61,0,0,1-.6711,1.4751" fill="none" stroke="#147391" stroke-linejoin="round"/>
  <path d="M44.2074,8.776,30.4192.8154a1.6224,1.6224,0,0,0-1.6366-.16L24.216,3.3091a1.6227,1.6227,0,0,1,1.6365.16L39.6407,11.43a5.0535,5.0535,0,0,1,2.2926,3.9711L46.5,12.747A5.054,5.054,0,0,0,44.2074,8.776Z" fill="url(#linear-gradient-3)"/>
  <path d="M24.216,3.3091a1.6227,1.6227,0,0,1,1.6365.16L39.6407,11.43a5.0535,5.0535,0,0,1,2.2926,3.9711L46.5,12.747" fill="none" stroke="#147391" stroke-miterlimit="10"/>
  <path d="M46.3622,29.2342c.0135-.0481.0344-.0881.0447-.14a2.5976,2.5976,0,0,0,.0482-.504L46.5,12.747a5.054,5.054,0,0,0-2.2926-3.971L30.4192.8154a2.639,2.639,0,0,0-.4648-.2141c-.0568-.0194-.1086-.0223-.1638-.0361a1.884,1.884,0,0,0-.27-.0588,48.417,48.417,0,0,0-.3922.0193A1.1244,1.1244,0,0,0,28.98.5805a1.13,1.13,0,0,0-.1933.0732l-.0044.0016L24.216,3.3091l.0045-.0017a1.6065,1.6065,0,0,0-.6756,1.4769L23.5,20.628a5.0536,5.0536,0,0,0,2.2926,3.9709L39.5808,32.56a1.5075,1.5075,0,0,0,1.7877.0356,1.1258,1.1258,0,0,1-.1512.1245l4.5667-2.6538a1.1318,1.1318,0,0,0,.1562-.1288,1.1089,1.1089,0,0,0,.12-.0986,1.361,1.361,0,0,0,.1283-.1963,1.3079,1.3079,0,0,0,.084-.13A1.8293,1.8293,0,0,0,46.3622,29.2342Z" fill="none" stroke="#464646" stroke-linejoin="round"/>
  <path d="M37.4289,33.061c1.4207.82,1.4283,2.1509.0214,2.9684l-15.3286,8.908a5.6439,5.6439,0,0,1-5.1247-.0026L1.5728,36.03c-1.4207-.82-1.4329-2.1481-.0213-2.9684L16.88,24.1532a5.6519,5.6519,0,0,1,5.1247.0027Z" fill="url(#New_Gradient_Swatch_1)"/>
  <path d="M24.4066,19.3914l-.0251,8.8569a20.8578,20.8578,0,0,0-9.8646.0087L14.542,19.4A20.86,20.86,0,0,1,24.4066,19.3914Z" fill="url(#linear-gradient-4)"/>
      <polygon points="30.789 23.085 33.001 23.085 32.976 31.942 30.764 31.942 30.789 23.085" stroke="#147391" stroke-linejoin="round" stroke-width="0.9744" fill="url(#New_Gradient_Swatch_1-2)"/>
  <path d="M37.45,36.0294l-15.3286,8.908a5.6439,5.6439,0,0,1-5.1247-.0026L1.5728,36.03A1.8258,1.8258,0,0,1,.5,34.5458h0v1.9269H.5034a1.8086,1.8086,0,0,0,1.0694,1.5056L16.997,46.8835a5.6439,5.6439,0,0,0,5.1247.0026L37.45,37.9781a1.8025,1.8025,0,0,0,1.0436-1.445l.0061-.0024V34.5462A1.7889,1.7889,0,0,1,37.45,36.0294Z" fill="url(#Dark_Blue_Grad_2)"/>
  <path d="M38.5,34.5462a1.7889,1.7889,0,0,1-1.05,1.4832l-15.3286,8.908a5.6439,5.6439,0,0,1-5.1247-.0026L1.5728,36.03A1.8258,1.8258,0,0,1,.5,34.5458h0" fill="none" stroke="#147391" stroke-linejoin="round" stroke-width="0.9744"/>
  <polygon points="5.989 23.085 8.187 23.085 8.161 31.942 5.964 31.942 5.989 23.085" fill="#3c91af" stroke="#147391" stroke-linejoin="round" stroke-width="0.9744"/>
  <path d="M14.611,35.8633l-.0251,5.48A14.7142,14.7142,0,0,1,10.793,39.85a8.6321,8.6321,0,0,1-2.5973-2.1921l.0251-5.48a8.6321,8.6321,0,0,0,2.5973,2.1921A14.7156,14.7156,0,0,0,14.611,35.8633Zm13.65-1.4925a14.7275,14.7275,0,0,1-3.7761,1.4973l-.0252,5.48A14.7267,14.7267,0,0,0,28.2359,39.85,8.355,8.355,0,0,0,30.8,37.6582l.0251-5.48A8.3536,8.3536,0,0,1,28.261,34.3708Z" stroke="#6e6e6e" stroke-linejoin="round" stroke-width="0.9744" fill="url(#linear-gradient-5)"/>
  <path d="M30.8254,32.1692a8.3534,8.3534,0,0,1-2.5644,2.1921,14.724,14.724,0,0,1-3.7761,1.4974,20.848,20.848,0,0,1-9.8739-.0047,14.7156,14.7156,0,0,1-3.7929-1.4926,8.6321,8.6321,0,0,1-2.5973-2.1921,4.5081,4.5081,0,0,1-.0194-5.7166,8.2417,8.2417,0,0,1,2.56-2.1948,14.73,14.73,0,0,1,3.7807-1.4986,20.86,20.86,0,0,1,9.8647.0086,14.5735,14.5735,0,0,1,3.7975,1.49,8.63,8.63,0,0,1,2.5994,2.1948A4.5047,4.5047,0,0,1,30.8254,32.1692Z" fill="url(#paper_gradient)"/>
  <path d="M14.5419,22.7593a20.86,20.86,0,0,1,9.8647.0086,14.5735,14.5735,0,0,1,3.7975,1.49,8.63,8.63,0,0,1,2.5994,2.1948,4.5047,4.5047,0,0,1,.0219,5.7166,8.3534,8.3534,0,0,1-2.5644,2.1921,14.724,14.724,0,0,1-3.7761,1.4974,20.848,20.848,0,0,1-9.8739-.0047,14.7156,14.7156,0,0,1-3.7929-1.4926,8.6321,8.6321,0,0,1-2.5973-2.1921,4.5081,4.5081,0,0,1-.0194-5.7166" fill="none" stroke="#6e6e6e" stroke-linejoin="round" stroke-width="0.9744"/>
  <path d="M5.1125,34.7571,5.1376,25.9a5.3463,5.3463,0,0,0,.8879,2.9012L6,37.6584A5.3466,5.3466,0,0,1,5.1125,34.7571Z" stroke="#147391" stroke-linejoin="round" stroke-width="0.9744" fill="url(#New_Gradient_Swatch_2)"/>
  <path d="M33.8869,25.9866l-.0251,8.8568a5.3031,5.3031,0,0,1-.8535,2.8121l.0251-8.8568A5.3025,5.3025,0,0,0,33.8869,25.9866Z" fill="#3c91af" stroke="#147391" stroke-linejoin="round" stroke-width="0.9744"/>
  <path d="M11.8519,33.7607a16.93,16.93,0,0,0,15.3685,0c4.2271-2.4565,4.2092-6.4429-.05-8.902a16.9364,16.9364,0,0,0-15.3639.0027c-4.2316,2.4592-4.2092,6.4429.0455,8.8994" fill="none" stroke="#6e6e6e" stroke-linejoin="round" stroke-width="0.9744"/>
  <path d="M8.1865,23.0849a4.5171,4.5171,0,0,0,.0424,5.7166H6.0255a5.1331,5.1331,0,0,1-.0367-5.7166Zm6.3483-4.9664L14.542,19.4a20.86,20.86,0,0,1,9.8646-.0087l-.0026-1.27A24.4733,24.4733,0,0,0,14.5348,18.1185Zm16.2538,4.9663a4.4964,4.4964,0,0,1,.045,5.7166l2.2-.0027a5.1287,5.1287,0,0,0-.0321-5.714ZM14.611,32.4909l.0118,1.2743a24.3568,24.3568,0,0,0,9.8647,0l-.0027-1.279A20.8461,20.8461,0,0,1,14.611,32.4909Z" fill="url(#New_Gradient_Swatch_1-3)"/>
  <path d="M24.4875,33.7651l-.0252,8.8568a24.3563,24.3563,0,0,1-9.8646,0l.0251-8.8568A24.3568,24.3568,0,0,0,24.4875,33.7651Z" stroke="#147391" stroke-linejoin="round" stroke-width="0.9744" fill="url(#linear-gradient-6)"/>
  <path d="M8.2289,28.8015l-.0251,8.8568L6,37.6584l.0251-8.8569Zm22.6047,0-.0251,8.8568,2.2-.0027.0251-8.8568Z" stroke="#147391" stroke-linejoin="round" stroke-width="0.9744" fill="url(#Dark_Blue_Grad_4)"/>
  <path d="M8.1865,23.0849a4.5171,4.5171,0,0,0,.0424,5.7166H6.0255a5.1331,5.1331,0,0,1-.0367-5.7166M14.542,19.4a20.86,20.86,0,0,1,9.8646-.0087m6.382,3.6934a4.4964,4.4964,0,0,1,.045,5.7166l2.2-.0027M14.611,32.4909l.0118,1.2743a24.3568,24.3568,0,0,0,9.8647,0l-.0027-1.279A20.8461,20.8461,0,0,1,14.611,32.4909Z" fill="none" stroke="#147391" stroke-linejoin="round" stroke-width="0.9744"/>
  <path d="M37.4289,33.0611l-3.5562-2.0533.0142-5.0212c0,.13-.019.26-.03.39a5.263,5.263,0,0,0-.8558-3.2918H30.7886l-.0095,3.3392a8.6557,8.6557,0,0,0-2.575-2.1663,14.5769,14.5769,0,0,0-3.7975-1.49l-.01-.0021.01-3.3744-.0026-1.27a24.4715,24.4715,0,0,0-9.8692-.0026L14.542,19.4l-.01,3.3619a14.7192,14.7192,0,0,0-3.7712,1.4959,8.2428,8.2428,0,0,0-2.56,2.1948c-.0094.0125-.0153.0256-.0245.0382l.01-3.4061-2.1977,0a5.3243,5.3243,0,0,0-.85,2.8374L5.1376,25.9l-.0144,5.0852L1.5514,33.0612a1.7406,1.7406,0,0,0-1.04,1.5506C.51,34.59.5,34.568.5,34.5458h0v1.9269H.5034a1.8086,1.8086,0,0,0,1.0694,1.5056L16.997,46.8835a5.6439,5.6439,0,0,0,5.1247.0026L37.45,37.9782a1.8028,1.8028,0,0,0,1.0436-1.4451l.0061-.0024V34.5462A1.8229,1.8229,0,0,0,37.4289,33.0611Z" fill="none" stroke="#464646" stroke-linejoin="round" stroke-width="0.9744"/>
</svg>
