<svg version="1.1" id="Layer_1" xmlns="http://www.w3.org/2000/svg" xmlns:xlink="http://www.w3.org/1999/xlink" x="0px" y="0px"
	  viewBox="0 0 48 48" enable-background="new 0 0 48 48" xml:space="preserve">
	<linearGradient id="SVGID_1_" gradientUnits="userSpaceOnUse" x1="7.1028" y1="14.6843" x2="32.8918" y2="40.4734">
		<stop  offset="0" style="stop-color:#FFFFFF"/>
		<stop  offset="0.2214" style="stop-color:#F8F8F8"/>
		<stop  offset="0.5415" style="stop-color:#E5E5E5"/>
		<stop  offset="0.92" style="stop-color:#C6C6C6"/>
		<stop  offset="1" style="stop-color:#BEBEBE"/>
	</linearGradient>
	<polygon fill="url(#SVGID_1_)" points="1.133,34.5 12.602,14.686 15.499,19.717 9.865,29.5 30.138,29.5 17.147,6.828 19.996,1.792 
		38.865,34.5 	"/>
	<path fill="#464646" d="M20,2.8L38,34H2l10.601-18.314l2.321,4.031L9,30h22L17.723,6.827L20,2.8 M19.991,0.784L19.13,2.308
		l-2.277,4.027l-0.28,0.495l0.283,0.494L29.275,29H10.73l5.058-8.784l0.287-0.499l-0.287-0.499l-2.321-4.031l-0.864-1.501
		l-0.868,1.499L1.135,33.499L0.266,35H2h36h1.731l-0.865-1.5l-18-31.2L19.991,0.784L19.991,0.784z"/>
<linearGradient id="SVGID_2_" gradientUnits="userSpaceOnUse" x1="26.1612" y1="26.1612" x2="43.8388" y2="43.8388">
	<stop  offset="0" style="stop-color:#73B4C8"/>
	<stop  offset="0.1747" style="stop-color:#6AAEC3"/>
	<stop  offset="0.4567" style="stop-color:#529EB5"/>
	<stop  offset="0.8089" style="stop-color:#2C839F"/>
	<stop  offset="1" style="stop-color:#147391"/>
</linearGradient>
<circle fill="url(#SVGID_2_)" stroke="#464646" stroke-width="0.9615" stroke-linecap="round" stroke-linejoin="round" stroke-miterlimit="10" cx="35" cy="35" r="12.5"/>
<polygon fill="none" stroke="#FFFFFF" points="34.5,40.5 43.5,30.5 40.5,27.5 30.5,36.5 29.5,40.5 30.5,41.5 "/>
<line fill="none" stroke="#FFFFFF" x1="34.5" y1="40.5" x2="30.5" y2="36.5"/>
<polyline fill="none" stroke="#FFFFFF" stroke-linecap="round" stroke-linejoin="round" points="29.5,40.5 28,42 29.5,42.5 
	30.5,41.5 "/>
</svg>
