<svg id="Layer_1" data-name="Layer 1" xmlns="http://www.w3.org/2000/svg" viewBox="0 0 16 16">
  <path d="M12.5,8h-3a.5.5,0,0,1,0-1h3a.5.5,0,0,1,0,1Z" class="aw-theme-iconOutline" fill="#464646"/>
  <path d="M7.5,13a.5.5,0,0,1-.5-.5v-3a.5.5,0,0,1,1,0v3A.5.5,0,0,1,7.5,13Z" class="aw-theme-iconOutline" fill="#464646"/>
  <path d="M7.5,6A.5.5,0,0,1,7,5.5v-3a.5.5,0,0,1,1,0v3A.5.5,0,0,1,7.5,6Z" class="aw-theme-iconOutline" fill="#464646"/>
  <path d="M3.5,12a.5.5,0,0,1-.354-.854l2-2a.5.5,0,0,1,.707.707l-2,2A.5.5,0,0,1,3.5,12Z" class="aw-theme-iconOutline" fill="#464646"/>
  <path d="M9.5,6a.5.5,0,0,1-.354-.854l2-2a.5.5,0,1,1,.707.707l-2,2A.5.5,0,0,1,9.5,6Z" class="aw-theme-iconOutline" fill="#464646"/>
  <path d="M14.5,15a.5.5,0,0,1-.354-.146l-5-5a.5.5,0,0,1,.707-.707l5,5A.5.5,0,0,1,14.5,15Z" class="aw-theme-iconOutline" fill="#464646"/>
  <path d="M5.5,6a.5.5,0,0,1-.354-.146l-5-5A.5.5,0,0,1,.854.149l5,5A.5.5,0,0,1,5.5,6Z" class="aw-theme-iconOutline" fill="#464646"/>
  <path d="M5.5,8h-3a.5.5,0,0,1,0-1h3a.5.5,0,0,1,0,1Z" class="aw-theme-iconOutline" fill="#464646"/>
</svg>
