<svg id="Layer_1" data-name="Layer 1" xmlns="http://www.w3.org/2000/svg" viewBox="0 0 16 16">
  <path d="M8,1.734a6.3,6.3,0,0,0-.968.083V7.074H1.81A6.262,6.262,0,1,0,8,1.734Z" fill="#fff"/>
  <path d="M8,0A8.047,8.047,0,0,0,7,.069V4.03h.007V7.009H4V7H.069A8,8,0,1,0,8,0ZM7.007,11.975H4V9H7.007Zm4.993,0H8.993V8.991H12ZM12,7H8.993V4.025H12Z" fill="#dc0000"/>
  <rect width="7" height="7" fill="#fff"/>
  <polygon points="2.528 3.805 0.314 2.107 0.984 1.234 2.513 2.408 5.443 0.06 6.131 0.918 2.528 3.805" fill="#dc0000"/>
  <polygon points="2.528 6.709 0.314 5.011 0.984 4.138 2.513 5.312 5.443 2.964 6.131 3.823 2.528 6.709" fill="#dc0000"/>
</svg>
