<svg id="Layer_1" data-name="Layer 1" xmlns="http://www.w3.org/2000/svg" viewBox="0 0 16 16">
  <path d="M16,16H0V0H16Z" class="aw-theme-iconOutline" fill="#464646"/>
  <rect x="1" y="1" width="14" height="14" fill="#3caf82"/>
  <path d="M11.3535,5.6465a.5.5,0,0,0-.707.707l1.1219,1.122A10.6427,10.6427,0,0,1,3.0566,2.4482l-.1323-.2124a.5.5,0,0,0-.8486.5284l.1323.2124A11.6378,11.6378,0,0,0,8.81,8,11.6378,11.6378,0,0,0,2.208,13.0234l-.1323.2124a.5.5,0,1,0,.8486.5284l.1323-.2124a10.6427,10.6427,0,0,1,8.7118-5.0273l-1.1219,1.122a.5.5,0,1,0,.707.707L13.707,8Z" fill="#fff"/>
</svg>
