<svg id="Layer_1" data-name="Layer 1" xmlns="http://www.w3.org/2000/svg" viewBox="0 0 16 16">
  <path d="M14.412,8.1l.239-.239A4.591,4.591,0,0,0,11.387,0h0A4.63,4.63,0,0,0,8.121,1.32L6.167,3.274a1.477,1.477,0,0,0-.413,1.2C4.6,4.8,3.881,5.526,2.465,6.973c-.33.338-.692.709-1.116,1.134a4.62,4.62,0,1,0,6.529,6.539L8.1,14.42A4.481,4.481,0,1,0,14.412,8.1ZM10.245,3.444a1.617,1.617,0,0,1,2.282,2.291l-1.248,1.25a4.619,4.619,0,0,0-2.3-2.279ZM8.5,8.167c-.112.1-.218.2-.319.315A1.5,1.5,0,0,1,7.35,7.454c-.011-.048-.04-.086-.055-.132A1.6,1.6,0,0,1,8.5,8.167Zm-3.89,4.8A1.6,1.6,0,0,1,3.473,10.23c.436-.436.809-.817,1.144-1.161l.092-.094a4.571,4.571,0,0,0,2.314,2.278L5.755,12.521A1.616,1.616,0,0,1,4.614,12.971Z" fill="#464646"/>
  <circle cx="11.5" cy="11.5" r="3.5" fill="#fadc5a"/>
  <rect x="11" y="9" width="1" height="3" fill="#464646"/>
  <rect x="11" y="13" width="1" height="1" fill="#464646"/>
    <path d="M7.58,4.693,9.537,2.736a2.672,2.672,0,0,1,3.7,0,2.625,2.625,0,0,1,0,3.705l-.691.693a4.4,4.4,0,0,1,1.024.392l.374-.376a3.631,3.631,0,0,0,0-5.124,3.7,3.7,0,0,0-5.112,0L6.875,3.982a.5.5,0,0,0,.705.711Z" fill="#c8c8b9"/>
    <path d="M7.6,9.307A2.519,2.519,0,0,1,6.374,7.678.5.5,0,1,0,5.4,7.9a3.518,3.518,0,0,0,1.8,2.331A4.431,4.431,0,0,1,7.6,9.307Z" fill="#c8c8b9"/>
  <path d="M7.138,12.554l-.675.675a2.673,2.673,0,0,1-3.7,0,2.629,2.629,0,0,1,0-3.706c.433-.434.8-.812,1.136-1.153C5.481,6.753,5.807,6.444,6.7,6.314a2.608,2.608,0,0,1,2.63,1.267,4.4,4.4,0,0,1,.933-.387A3.591,3.591,0,0,0,6.56,5.322c-1.259.183-1.749.685-3.381,2.353-.324.332-.691.708-1.122,1.139A3.619,3.619,0,1,0,7.17,13.938l.362-.361A4.379,4.379,0,0,1,7.138,12.554Z" fill="#c8c8b9"/>
</svg>
