<svg id="Layer_1" data-name="Layer 1" xmlns="http://www.w3.org/2000/svg" viewBox="0 0 16 16">
<path fill="#FADC5A" d="M8.1,14c-0.1,0.2-0.1,0.5,0,0.7C8.2,14.9,8.4,15,8.5,15h5.9c0.2,0,0.4-0.1,0.4-0.3c0.1-0.2,0.1-0.5,0-0.7
	l-2.9-5.7c-0.2-0.3-0.6-0.5-0.9-0.3c-0.1,0.1-0.2,0.1-0.2,0.3L8.1,14z"/>
<rect x="6" y="11" fill="#3C91AF" width="2" height="2"/>
<rect x="1" y="1" fill="#3C91AF" width="3" height="2"/>
<rect x="6" y="6" fill="#3C91AF" width="2" height="2"/>
<rect x="11" y="10" fill="#464646" width="1" height="2"/>
<rect x="11" y="13" fill="#464646" width="1" height="1"/>
<path fill="#464646" class="aw-theme-iconOutline" d="M15.9,14l-3.2-6.3c-0.1-0.2-0.3-0.5-0.5-0.6c-0.6-0.4-1.4-0.1-1.8,0.6L9,10.4V10H5v2H3V7h2v2h4V5H5v1H3V4h2
	V0L0,0v4h2v9h3v1h2.2l0,0l0,0c-0.2,0.4-0.2,1,0.1,1.4c0.2,0.4,0.6,0.6,1,0.6h6.6c0.4,0,0.8-0.2,1-0.6C16,15,16.1,14.4,15.9,14z M6,6
	h2v2H6V6z M1,3V1h3v2H1z M8,12.3L7.7,13H6v-2h2V12.3z M14.9,14.7c-0.1,0.2-0.3,0.3-0.4,0.3H8.5c-0.2,0-0.4-0.1-0.4-0.3
	C8,14.5,8,14.3,8.1,14l0,0l0,0L9,12.2l0,0l1.9-3.8c0.1-0.1,0.1-0.2,0.2-0.3c0.3-0.2,0.7-0.1,0.9,0.3l2.9,5.7
	C15,14.3,15,14.5,14.9,14.7z"/>
</svg>
