<svg id="Layer_1" data-name="Layer 1" xmlns="http://www.w3.org/2000/svg" viewBox="0 0 16 16">
  <rect x="2.031" y="1.003" width="9" height="10.995" fill="#fff"/>
  <path d="M1.031,0V13h11V0Zm10,12h-9V1h9Z" fill="#aaa"/>
  <rect x="3.031" y="4.003" width="7" height="1" fill="#aaa"/>
  <rect x="3.031" y="6.003" width="7" height="1" fill="#aaa"/>
  <rect x="3.031" y="8.003" width="7" height="1" fill="#aaa"/>
  <rect x="5.04" y="2.999" width="11" height="12.996" fill="#aaa"/>
  <g>
    <path d="M9.522,12.471a.845.845,0,0,0-.268.63.855.855,0,0,0,.268.629.889.889,0,0,0,1.238,0l0,0a.855.855,0,0,0,.264-.627.835.835,0,0,0-.261-.624A.882.882,0,0,0,9.522,12.471Z" fill="#fff"/>
    <path d="M12.446,6.178a1.851,1.851,0,0,0-.526-.651,2.285,2.285,0,0,0-.756-.383,3.072,3.072,0,0,0-.892-.126,3.644,3.644,0,0,0-1.95.588l-.117.074V7.463L8.638,7a1.968,1.968,0,0,1,1.5-.683,1.522,1.522,0,0,1,.439.061,1.036,1.036,0,0,1,.343.173.779.779,0,0,1,.22.271.84.84,0,0,1,.079.375.951.951,0,0,1-.115.467,2.572,2.572,0,0,1-.332.464c-.141.157-.293.312-.459.465a5.745,5.745,0,0,0-.5.518,2.94,2.94,0,0,0-.4.6,1.747,1.747,0,0,0-.171.773A3.109,3.109,0,0,0,9.286,11a2.672,2.672,0,0,0,.1.428l.058.168h1.479l-.148-.348a2.946,2.946,0,0,1-.116-.337,1.429,1.429,0,0,1-.054-.408.845.845,0,0,1,.118-.443,2.324,2.324,0,0,1,.339-.449c.147-.153.306-.309.478-.465a5.326,5.326,0,0,0,.515-.546,3.016,3.016,0,0,0,.411-.667,2.117,2.117,0,0,0,.17-.859A2.014,2.014,0,0,0,12.446,6.178Z" fill="#fff"/>
  </g>
</svg>
