<svg id="Layer_1" data-name="Layer 1" xmlns="http://www.w3.org/2000/svg" viewBox="0 0 16 16">
  <circle cx="7.5" cy="7.5" r="7" fill="#b1d6e0"/>
  <path d="M7.5,0A7.5,7.5,0,1,0,15,7.5,7.508,7.508,0,0,0,7.5,0Zm6.475,7h-1.99a12.14,12.14,0,0,0-.237-2h1.739A6.46,6.46,0,0,1,13.975,7ZM12.964,4h-1.47a7.892,7.892,0,0,0-1.12-2.313A6.548,6.548,0,0,1,12.964,4ZM7,8v2H4.28a10.9,10.9,0,0,1-.266-2ZM4.014,7A10.9,10.9,0,0,1,4.28,5H7V7ZM8,8h2.986a10.9,10.9,0,0,1-.266,2H8ZM8,7V5h2.72a10.9,10.9,0,0,1,.266,2Zm2.428-3H8V1.075A4.315,4.315,0,0,1,10.428,4ZM7,1.075V4H4.572A4.315,4.315,0,0,1,7,1.075Zm-2.374.612A7.892,7.892,0,0,0,3.506,4H2.036A6.548,6.548,0,0,1,4.626,1.687ZM1.513,5H3.252a12.14,12.14,0,0,0-.237,2H1.025A6.46,6.46,0,0,1,1.513,5ZM1.025,8h1.99a12.14,12.14,0,0,0,.237,2H1.5A6.448,6.448,0,0,1,1.025,8Zm1.007,3H3.506a7.851,7.851,0,0,0,1.121,2.314A6.537,6.537,0,0,1,2.032,11Zm2.54,0H7v2.925A4.315,4.315,0,0,1,4.572,11ZM8,13.925V11h2.428A4.315,4.315,0,0,1,8,13.925Zm2.373-.611A7.851,7.851,0,0,0,11.494,11h1.474A6.537,6.537,0,0,1,10.373,13.314ZM11.748,10a12.14,12.14,0,0,0,.237-2h1.99a6.476,6.476,0,0,1-.476,2Z" fill="#464646"/>
</svg>
