<svg id="Layer_1" data-name="Layer 1" xmlns="http://www.w3.org/2000/svg" viewBox="0 0 16 16">
  <g id="g818">
    <path id="path2" d="M6.5,16a.5.5,0,0,1-.32-.116l-6-5a.5.5,0,0,1-.127-.608l1-2a.5.5,0,0,1,.671-.223l3.639,1.82L13.109.188a.5.5,0,0,1,.615-.135l2,1a.5.5,0,0,1,.223.671.439.439,0,0,1-.027.047l-9,14a.5.5,0,0,1-.344.223A.487.487,0,0,1,6.5,16Z" class="aw-theme-iconOutline" fill="#464646"/>
    <path id="path4" d="M1.125,10.37l5.26,4.384L14.778,1.7l-1.14-.57L5.891,10.814a.5.5,0,0,1-.615.134L1.724,9.171Z" fill="#fa142d"/>
  </g>
</svg>
