<svg id="Layer_1" data-name="Layer 1" xmlns="http://www.w3.org/2000/svg" viewBox="0 0 16 16">
  <path d="M15.5,11.219c-5-2.532-10,3.094-15,.562v-10c5,2.532,10-3.094,15-.562Z" fill="#1e1e1e"/>
  <path d="M15.726.773c-2.682-1.357-5.321-.541-7.874.25C5.478,1.757,3.23,2.434,1,1.446V0H0V16H1V12.54a6.819,6.819,0,0,0,2.378.414,16.417,16.417,0,0,0,4.77-.976c2.472-.764,4.808-1.486,7.126-.312A.5.5,0,0,0,16,11.219v-10A.5.5,0,0,0,15.726.773ZM15,10.457c-2.432-.894-4.825-.152-7.148.566-2.374.735-4.622,1.43-6.852.442V2.543c2.431.894,4.825.152,7.148-.566C10.522,1.244,12.771.547,15,1.535Z" class="aw-theme-iconOutline" fill="#464646"/>
</svg>
