<svg id="Layer_1" data-name="Layer 1" xmlns="http://www.w3.org/2000/svg" viewBox="0 0 16 16">
  <polygon points="10 7 10 2 0 2 0 11 6 11 6 16 16 16 16 7 10 7" fill="#464646"/>
  <path d="M15.8535,3.1465a.5.5,0,0,0-.707,0L14,4.293V2.5A2.503,2.503,0,0,0,11.5,0H9V1h2.5A1.5017,1.5017,0,0,1,13,2.5V4.293L11.8535,3.1465a.5.5,0,0,0-.707.707l2,2a.5.5,0,0,0,.707,0l2-2A.5.5,0,0,0,15.8535,3.1465Z" fill="#464646"/>
  <rect x="7" y="8" width="8" height="7" fill="#3c91af"/>
  <polygon points="6 7 9 7 9 3 1 3 1 10 6 10 6 7" fill="#3c91af"/>
</svg>
