<svg id="Layer_1" data-name="Layer 1" xmlns="http://www.w3.org/2000/svg" viewBox="0 0 16 16">
  <path d="M14.876,4.2515l-.0669-.0684A4.043,4.043,0,0,0,10.523,3.27a5.4972,5.4972,0,1,0-7.2521,7.2537,4.0389,4.0389,0,0,0,6.6319,4.2919l1.27-1.27a1.4962,1.4962,0,0,0,.3349-1.5976,4.195,4.195,0,0,0,2.4351-1.1724l.87-.87a4.0438,4.0438,0,0,0,.0635-5.6543ZM7.7812,12.6943a1.0681,1.0681,0,0,1-1.476,0A1.052,1.052,0,0,1,6.3091,11.21l.3337-.3307c.1223-.026.242-.059.3612-.093A1.4926,1.4926,0,0,0,8.4678,12h.008Zm4.91-4.91-.73.73L11.9629,8.5a1.4938,1.4938,0,0,0-1.1864-1.46c.0387-.1322.0748-.2655.1035-.4015l.3324-.3327a1.0467,1.0467,0,0,1,1.457-.02l.0215.022a1.0438,1.0438,0,0,1,.0005,1.4766Z" fill="#464646"/>
    <path d="M5,7V4H3.159A7.4631,7.4631,0,0,0,3,5.5,7.4631,7.4631,0,0,0,3.159,7Z" fill="#50bed7"/>
    <path d="M5,3V1.0953A3.131,3.131,0,0,0,3.4356,3Z" fill="#50bed7"/>
    <path d="M8.6132,3h.625A4.5288,4.5288,0,0,0,8.12,1.8569,6.3,6.3,0,0,1,8.6132,3Z" fill="#50bed7"/>
    <path d="M2.3868,8h-.625A4.5288,4.5288,0,0,0,2.88,9.1431,6.306,6.306,0,0,1,2.3868,8Z" fill="#50bed7"/>
    <path d="M6,1.0953V3H7.5644A3.131,3.131,0,0,0,6,1.0953Z" fill="#50bed7"/>
    <path d="M2,5.5A8.6007,8.6007,0,0,1,2.1431,4H1.2764A4.4472,4.4472,0,0,0,1,5.5,4.4472,4.4472,0,0,0,1.2764,7h.8667A8.61,8.61,0,0,1,2,5.5Z" fill="#50bed7"/>
    <path d="M2.3868,3A6.3,6.3,0,0,1,2.88,1.8569,4.5288,4.5288,0,0,0,1.7618,3Z" fill="#50bed7"/>
  <path d="M10.9868,11H8.4678a.5.5,0,0,1,0-1h2.519a2.1959,2.1959,0,0,0,1.542-.6387l.87-.87a2.0457,2.0457,0,0,0-2.893-2.8931L9.2871,6.8174A.5.5,0,1,1,8.58,6.11L9.7983,4.8916a3.0456,3.0456,0,0,1,4.3072,4.3071l-.87.87A3.2013,3.2013,0,0,1,10.9868,11Z" fill="#fff"/>
  <path d="M7.0435,15A3.048,3.048,0,0,1,4.9014,9.7886l.6875-.6807A4.3363,4.3363,0,0,1,8.2822,8h2.1807a.5.5,0,0,1,0,1H8.2822a3.3634,3.3634,0,0,0-1.99.8184l-.687.6806a2.0518,2.0518,0,0,0-.0074,2.9024,2.0927,2.0927,0,0,0,2.8907,0l1.27-1.27a.5.5,0,1,1,.707.7071l-1.27,1.27A3.0218,3.0218,0,0,1,7.0435,15Z" fill="#fff"/>
  <path d="M4.1978,9.0781l.6875-.6806c.0336-.0334.079-.0613.1147-.0938V8H3.4356a4.434,4.434,0,0,0,.6635,1.1972C4.1346,9.1592,4.1606,9.1149,4.1978,9.0781Z" fill="#50bed7"/>
  <path d="M9.0908,4.1846c.07-.07.1521-.1206.2262-.1846h-.46c.0211.12.0343.2446.0517.3669Z" fill="#50bed7"/>
  <path d="M7.8726,5.4033l.1155-.1156A7.6629,7.6629,0,0,0,7.841,4H6V7H7.5521A1.4836,1.4836,0,0,1,7.8726,5.4033Z" fill="#50bed7"/>
</svg>
