<svg id="Layer_1" data-name="Layer 1" xmlns="http://www.w3.org/2000/svg" viewBox="0 0 16 16">
  <path d="M7.5,16A5.4515,5.4515,0,0,1,2,10.6113V4.7368A1.49,1.49,0,0,1,3.5,3.2593a1.514,1.514,0,0,1,.5.0844V2.7822A1.49,1.49,0,0,1,5.5,1.3047a1.5154,1.5154,0,0,1,.5024.0854,1.5018,1.5018,0,0,1,2.9952,0A1.5154,1.5154,0,0,1,9.5,1.3042,1.4909,1.4909,0,0,1,11,2.7822V9.749l.15-.147a2.7058,2.7058,0,0,1,3.332-.3559,1.3574,1.3574,0,0,1,.5039.9853,1.2813,1.2813,0,0,1-.3882.9839l-3.415,3.3384A5.1464,5.1464,0,0,1,7.5,16Z" class="aw-theme-iconOutline" fill="#464646"/>
  <path d="M3.5,4.2593a.49.49,0,0,0-.5.4775v5.8745A4.45,4.45,0,0,0,7.5,15a4.1115,4.1115,0,0,0,2.9839-1.1611l3.414-3.3379a.2866.2866,0,0,0,.0894-.2232.3563.3563,0,0,0-.1367-.2563,1.7534,1.7534,0,0,0-2.001.2954l-1,.978a.5.5,0,0,1-.85-.3574V2.7822a.5005.5005,0,0,0-1,0V7.5a.5.5,0,1,1-1,0V1.4775a.5005.5005,0,0,0-1,0V7.5a.5.5,0,1,1-1,0V2.7822a.5005.5005,0,0,0-1,0V8.5a.5.5,0,0,1-1,0V4.7368A.49.49,0,0,0,3.5,4.2593Z" fill="#f68d2b"/>
</svg>