<svg id="Layer_3" data-name="Layer 3" xmlns="http://www.w3.org/2000/svg" viewBox="0 0 16 16">
  <path d="M15.7158,7.3872a5.4813,5.4813,0,0,0-4.0879.0352L11.3633,7.5a9.1375,9.1375,0,0,1-2.163.449l4.5846-5.8071A1,1,0,0,0,13.7071.8146L13.1854.2928a1,1,0,0,0-1.4142,0L4.9456,7.1185,1.9156,5.82a1,1,0,0,0-1.101.2121l-.5217.5218a1,1,0,0,0,0,1.4142l4.1739,4.1739a1,1,0,0,0,.7071.2929c.0195,0,.0389-.0006.0585-.0018a1,1,0,0,0,.7264-.3786L7,10.7355V16H8V14.8677a4.1165,4.1165,0,0,0,1.0352.1343,9.4127,9.4127,0,0,0,2.6054-.5015l.2647-.0772a4.5953,4.5953,0,0,1,3.3789-.0942A.5.5,0,0,0,16,13.8779V7.8384A.5006.5006,0,0,0,15.7158,7.3872Z" fill="#464646"/>
  <path d="M12,13.3634V11.3569a4.8613,4.8613,0,0,1,3-.1792v1.9878A5.7844,5.7844,0,0,0,12,13.3634Z"/>
  <path d="M11,8.6419v1.9625a4.87,4.87,0,0,1-3,.1773V8.8345A5.7414,5.7414,0,0,0,11,8.6419Z"/>
  <path d="M15,8.1714v1.9623a5.7793,5.7793,0,0,0-3,.1853V8.358A4.8589,4.8589,0,0,1,15,8.1714Z" fill="#f0f0f0"/>
  <path d="M8,13.8281v-2a4.1209,4.1209,0,0,0,1.0352.1342A7.4832,7.4832,0,0,0,11,11.6436v2.0011A4.876,4.876,0,0,1,8,13.8281Z" fill="#f0f0f0"/>
  <path d="M7,7H8v.7793c.0163.0058.0328.0081.0491.0135L13,1.5217,12.4783,1,5.1739,8.3043,1.5217,6.7391,1,7.2609l4.1739,4.1739L7,9.1217Z" fill="#3caf82"/>
</svg>
