<svg id="Layer_1" data-name="Layer 1" xmlns="http://www.w3.org/2000/svg" viewBox="0 0 16 16">
  <path d="M15.854,14.146l-4.8-4.8L15.92,1.771a.5.5,0,0,0-.2-.718l-2-1a.5.5,0,0,0-.615.134L8.125,6.418,1.854.146a.5.5,0,0,0-.708.708L7.5,7.2,5.362,9.872,1.724,8.053a.5.5,0,0,0-.671.223l-1,2a.5.5,0,0,0,.127.608l6,5A.5.5,0,0,0,6.5,16a.487.487,0,0,0,.076-.006.5.5,0,0,0,.344-.223L10.5,10.205l4.648,4.649a.5.5,0,0,0,.708-.708Z" fill="#464646"/>
    <polygon points="10.328 8.621 14.778 1.698 13.638 1.128 8.837 7.13 10.328 8.621" fill="#f58c14"/>
    <path d="M8.208,7.915l-2.317,2.9a.5.5,0,0,1-.615.135L1.724,9.171l-.6,1.2,5.26,4.383L9.774,9.482Z" fill="#f58c14"/>
</svg>
