<svg id="Layer_1" data-name="Layer 1" xmlns="http://www.w3.org/2000/svg" viewBox="0 0 16 16">
  <path d="M15.5,3h-4a.5.5,0,0,0-.3535.8535L11.793,4.5l-.803.803A5.4967,5.4967,0,1,0,5.303,10.99l-.803.803-.6465-.6465A.5.5,0,0,0,3,11.5v4a.5.5,0,0,0,.5.5h4a.5.5,0,0,0,.3535-.8535L7.207,14.5,14.5,7.207l.6465.6465A.5.5,0,0,0,16,7.5v-4A.5.5,0,0,0,15.5,3Z" class="aw-theme-iconOutline" fill="#464646"/>
  <path d="M9.2165,3A4.579,4.579,0,0,0,7.5972,1.5428,6.5939,6.5939,0,0,1,8.1663,3Z" fill="#8cc3d2"/>
  <path d="M7.1343,3A3.4,3.4,0,0,0,6,1.1835V3Z" fill="#8cc3d2"/>
  <path d="M5,3V1.1835A3.4,3.4,0,0,0,3.8657,3Z" fill="#8cc3d2"/>
  <path d="M2.8337,3a6.5939,6.5939,0,0,1,.5691-1.4572A4.579,4.579,0,0,0,1.7835,3Z" fill="#8cc3d2"/>
  <path d="M2.5226,5c.02-.3425.0522-.6776.1011-1H1.272a4.57,4.57,0,0,0-.2252,1Z" fill="#8cc3d2"/>
  <path d="M7.48,5a9.0678,9.0678,0,0,0-.1008-1H6V5Z" fill="#8cc3d2"/>
  <path d="M5,5V4H3.6212A9.0678,9.0678,0,0,0,3.52,5Z" fill="#8cc3d2"/>
  <path d="M9.9532,5A4.57,4.57,0,0,0,9.728,4H8.3763c.0489.3224.0808.6575.1011,1Z" fill="#8cc3d2"/>
    <path d="M5,7V6H3.52a8.7791,8.7791,0,0,0,.1141,1Z" fill="#8cc3d2"/>
    <path d="M3.8669,8A3.3752,3.3752,0,0,0,5,9.8165V8Z" fill="#8cc3d2"/>
    <path d="M7.3655,7A8.7791,8.7791,0,0,0,7.48,6H6V7Z" fill="#8cc3d2"/>
    <path d="M6,8V9.8165A3.3752,3.3752,0,0,0,7.1331,8Z" fill="#8cc3d2"/>
    <path d="M1.78,8A4.5534,4.5534,0,0,0,3.4028,9.4572,6.3464,6.3464,0,0,1,2.8327,8Z" fill="#8cc3d2"/>
    <path d="M2.624,7q-.0708-.483-.0966-1H1.0355a4.4193,4.4193,0,0,0,.237,1Z" fill="#8cc3d2"/>
  <path d="M4,15H6.293l-.1465-.1465a.5.5,0,0,1,0-.707l8-8a.5.5,0,0,1,.707,0L15,6.293V4H12.707l.1465.1465a.5.5,0,0,1,0,.707l-8,8a.5.5,0,0,1-.707,0L4,12.707Z" fill="#fff"/>
  <path d="M9.894,6.3989c.028-.1314.0552-.2632.07-.3989H8.4726q-.0249.5161-.0966,1h.917Z" fill="#8cc3d2"/>
  <path d="M8.293,8H8.1674c-.0175.0652-.0416.1222-.06.1859Z" fill="#8cc3d2"/>
</svg>
