<svg id="Layer_1" data-name="Layer 1" xmlns="http://www.w3.org/2000/svg" viewBox="0 0 16 16">
  <path d="M8,16a8,8,0,1,1,8-8A8.009,8.009,0,0,1,8,16ZM8,1.778A6.222,6.222,0,1,0,14.222,8,6.229,6.229,0,0,0,8,1.778Z" fill="#006487"/>
  <path d="M6.733,13,4.111,10.367c.209-.192.738-.7.955-.9.608.618,1.026,1.063,1.668,1.716L10.985,6.95c.281.292.723.726.908.918C9.959,9.794,8.669,11.077,6.733,13Z" fill="#006487"/>
  <path d="M6.526,9.3,3.9,6.671c.209-.193.737-.7.954-.9.609.617,1.028,1.061,1.672,1.712l4.24-4.242c.282.291.725.724.911.916Z" fill="#006487"/>
</svg>
