<svg id="Layer_1" data-name="Layer 1" xmlns="http://www.w3.org/2000/svg" viewBox="0 0 16 16">
  <path d="M11.707,16H4.293L0,11.707V4.293L4.293,0h7.414L16,4.293v7.414Z" class="aw-theme-iconOutline" fill="#464646"/>
  <path d="M11.293,1H4.707L1,4.707v6.586L4.707,15h6.586L15,11.293V4.707Z" fill="#fa142d"/>
  <path d="M13.6191,10.8779,11.166,13.0635a5.3708,5.3708,0,0,1-3.5713.93C4.1211,13.9888,2,12.3247,2,9.6064V6.4629A1.49,1.49,0,0,1,3.5,4.9858,1.5132,1.5132,0,0,1,4,5.07V4.4722A1.49,1.49,0,0,1,5.5,2.9951a1.5078,1.5078,0,0,1,.55.103,1.5066,1.5066,0,0,1,2.9,0,1.5078,1.5078,0,0,1,.55-.103A1.49,1.49,0,0,1,11,4.4722v4.455c.2041-.0722.3672-.1342.51-.1889a1.64,1.64,0,0,1,1.9931.1709,1.3527,1.3527,0,0,1,.5039.9863A1.2788,1.2788,0,0,1,13.6191,10.8779Z" fill="#464646"/>
  <path d="M3.5,5.9858a.49.49,0,0,0-.5.4771V9.6064c0,3.0962,3.1846,3.3956,4.5527,3.3868a4.4912,4.4912,0,0,0,2.9815-.7041l2.4013-2.1416a.2745.2745,0,0,0,.0723-.2061.3529.3529,0,0,0-.1367-.2568c-.3311-.2705-.332-.2686-1.0049-.0117-.1953.0747-.4267.1625-.708.2563l-.4678.1943A.5.5,0,0,1,10,9.6611V4.4722a.5005.5005,0,0,0-1,0V7.4961a.5.5,0,0,1-1,0V3.4771a.5005.5005,0,0,0-1,0v4.019a.5.5,0,0,1-1,0V4.4722a.5005.5005,0,0,0-1,0V8.4961a.5.5,0,0,1-1,0V6.4629A.49.49,0,0,0,3.5,5.9858Z" fill="#fff"/>
</svg>
