<svg id="Layer_1" data-name="Layer 1" xmlns="http://www.w3.org/2000/svg" viewBox="0 0 16 16">
  <path d="M15.7271.731C13.2739-.5215,10.8394.063,8.3525.8281L7.8564.9824C5.48,1.7238,3.2309,2.4058,1,1.4093V0H0V16H1V12.5838a6.776,6.776,0,0,0,2.38.4172,16.3129,16.3129,0,0,0,4.7739-.9844l.4937-.1528c2.3676-.73,4.5-1.2471,6.6254-.1621A.5.5,0,0,0,16,11.2563V1.1763A.5.5,0,0,0,15.7271.731Z" class="aw-theme-iconOutline"  fill="#464646"/>
  <path d="M1,11.5078c2.228.9951,4.48.2954,6.856-.4458l.4965-.1543c2.24-.69,4.4385-1.2329,6.6475-.416v-9c-2.0332-.9087-4.0859-.4058-6.3525.293l-.4937.1528C5.83,2.6621,3.4336,3.4082,1,2.5078Z" fill="#f58c14"/>
  <path d="M8.5,10.25a.7589.7589,0,0,1-.75-.7568.75.75,0,0,1,1.5,0A.7585.7585,0,0,1,8.5,10.25Z" fill="#fff"/>
  <rect x="8" y="3" width="1" height="5" fill="#fff"/>
</svg>
