<svg id="Layer_1" data-name="Layer 1" xmlns="http://www.w3.org/2000/svg" viewBox="0 0 16 16">
  <path d="M14.1665,3H12V2a2.002,2.002,0,0,0-2-2H6A2.002,2.002,0,0,0,4,2V3H1.8335A1.8567,1.8567,0,0,0,0,4.875v8.25A1.8567,1.8567,0,0,0,1.8335,15H2v1H3V15H13v1h1V15h.1665A1.8567,1.8567,0,0,0,16,13.125V4.875A1.8567,1.8567,0,0,0,14.1665,3ZM5,2A1.0013,1.0013,0,0,1,6,1h4a1.0013,1.0013,0,0,1,1,1V3H5Z" class="aw-theme-iconOutline" fill="#464646"/>
  <path d="M1.8335,4A.8561.8561,0,0,0,1,4.875v8.25A.8561.8561,0,0,0,1.8335,14h12.333A.8561.8561,0,0,0,15,13.125V4.875A.8561.8561,0,0,0,14.1665,4Z" fill="#55a0b9"/>
</svg>
