<svg id="Layer_1" data-name="Layer 1" xmlns="http://www.w3.org/2000/svg" viewBox="0 0 16 16">
  <path d="M5,7C3.3384,7,2,4.88,2,3.125A3.0678,3.0678,0,0,1,5,0,3.0678,3.0678,0,0,1,8,3.125C8,4.88,6.6616,7,5,7Z" fill="#464646"/>
  <path d="M14.6821,8.3179a4.5013,4.5013,0,0,0-5.54-.6381,3.3846,3.3846,0,0,0-1.1106-.879l-.2661-.13-.2417.1709c-.1469.1035-.28.209-.41.312A2.7482,2.7482,0,0,1,5,7.875a2.7482,2.7482,0,0,1-2.1143-.7212c-.13-.103-.2627-.2085-.41-.312l-.2417-.1709-.2661.13A3.6178,3.6178,0,0,0,0,10.0625V15H8.7075a4.4881,4.4881,0,0,0,5.9746-6.6821Z" fill="#464646"/>
  <path d="M8.3179,8.3179c.0088-.0089.0194-.0145.0284-.0232a2.4248,2.4248,0,0,0-.4962-.448c-.0386.03-.0762.06-.1138.09A3.7148,3.7148,0,0,1,5,8.875a3.7148,3.7148,0,0,1-2.7363-.938c-.0376-.03-.0752-.06-.1138-.09A2.6888,2.6888,0,0,0,1,10.0625V14H7.7611A4.506,4.506,0,0,1,8.3179,8.3179Z" fill="#e2e2e2"/>
  <path d="M11.5,8.002a3.498,3.498,0,1,0,2.4751,1.0229A3.49,3.49,0,0,0,11.5,8.002Z" fill="#dc0814"/>
  <rect x="9.3538" y="11.0001" width="4.2924" height="0.9999" transform="translate(-4.7635 11.5) rotate(-45)" fill="#fff"/>
  <path d="M5,1A2.0675,2.0675,0,0,0,3,3.125C3,4.38,3.97,6,5,6S7,4.38,7,3.125A2.0675,2.0675,0,0,0,5,1Z" fill="#e2e2e2"/>
</svg>
