<svg id="Layer_1" data-name="Layer 1" xmlns="http://www.w3.org/2000/svg" viewBox="0 0 16 16">
  <path d="M16,7a.5.5,0,0,0-.2427-.4287L14.8052,6l.9521-.5713a.5.5,0,0,0,0-.8574L12.3326,2.5165a.4933.4933,0,0,0,.0688-.6151.5.5,0,0,0-.6919-.147l-.3106.2018L8.2573.0713a.5016.5016,0,0,0-.5146,0l-7.5,4.5a.5.5,0,0,0,0,.8574L1.1948,6l-.9521.5713a.5.5,0,0,0,0,.8574L1.1948,8l-.9521.5713a.5.5,0,0,0,0,.8574L1.1948,10l-.9521.5713a.5.5,0,0,0,0,.8574L4,13.6831V14.5a.5.5,0,0,0,1,0v-.2169l2.7427,1.6456a.5.5,0,0,0,.5146,0l7.5-4.5a.5.5,0,0,0,0-.8574L14.8052,10l.9521-.5713a.5.5,0,0,0,0-.8574L14.8052,8l.9521-.5713A.5.5,0,0,0,16,7Z" fill="#464646"/>
    <polygon points="4 11.683 2.167 10.583 1.472 11 4 12.517 4 11.683" fill="#e687a5"/>
    <path d="M13.8334,10.5831,8.2573,13.9287a.5.5,0,0,1-.5146,0L5,12.2831v.8339l3,1.8L14.5283,11Z" fill="#e687a5"/>
    <path d="M13.8334,8.5831,8.2573,11.9287a.5.5,0,0,1-.5146,0L5,10.2831v.8339l3,1.8L14.5283,9Z" fill="#e687a5"/>
    <polygon points="4 9.683 2.167 8.583 1.472 9 4 10.517 4 9.683" fill="#e687a5"/>
    <polygon points="4 7.683 2.167 6.583 1.472 7 4 8.517 4 7.683" fill="#e687a5"/>
    <path d="M13.8334,6.5831,8.2573,9.9287a.5.5,0,0,1-.5146,0L5,8.2831V9.117l3,1.8L14.5283,7Z" fill="#e687a5"/>
    <path d="M4.2275,6.6177l6.2386-4.0551L8,1.083,1.4717,5,4.2062,6.6407C4.2148,6.6343,4.2185,6.6235,4.2275,6.6177Z" fill="#e687a5"/>
    <polygon points="11.42 3.135 5.153 7.209 8 8.917 14.528 5 11.42 3.135" fill="#e687a5"/>
</svg>
