<svg id="Layer_1" data-name="Layer 1" xmlns="http://www.w3.org/2000/svg" viewBox="0 0 16 16">
  <rect x="12" y="9" width="1" height="2" fill="#464646"/>
  <rect x="12" y="14" width="1" height="2" fill="#464646"/>
  <rect x="14" y="12" width="2" height="1" fill="#464646"/>
  <rect x="9" y="12" width="2" height="1" fill="#464646"/>
  <path d="M14.5,11a.5.5,0,0,1-.354-.854l1-1a.5.5,0,0,1,.708.708l-1,1A.5.5,0,0,1,14.5,11Z" fill="#464646"/>
  <path d="M9.5,16a.5.5,0,0,1-.354-.854l1-1a.5.5,0,0,1,.708.708l-1,1A.5.5,0,0,1,9.5,16Z" fill="#464646"/>
  <path d="M15.5,16a.5.5,0,0,1-.354-.146l-1-1a.5.5,0,0,1,.708-.708l1,1A.5.5,0,0,1,15.5,16Z" fill="#464646"/>
  <path d="M10.5,11a.5.5,0,0,1-.354-.146l-1-1a.5.5,0,0,1,.708-.708l1,1A.5.5,0,0,1,10.5,11Z" fill="#464646"/>
  <path d="M8.961,8A2.945,2.945,0,0,0,12,5.167a2.91,2.91,0,0,0-2.6-2.8A2.173,2.173,0,0,0,7.269.778a2.256,2.256,0,0,0-.889.18A2.651,2.651,0,0,0,4.308,0,2.538,2.538,0,0,0,1.692,2.444a1.722,1.722,0,0,0,.01.189A2.8,2.8,0,0,0,0,5.167,2.945,2.945,0,0,0,3.039,8H4V9.1a1.493,1.493,0,0,0-1.561,2.464l2,2a1.5,1.5,0,0,0,2.122,0l2-2A1.493,1.493,0,0,0,7,9.1V8Z" fill="#464646"/>
  <path d="M7.854,10.146a.5.5,0,0,0-.708,0L6,11.293V6H5v5.293L3.854,10.146a.5.5,0,0,0-.708.708l2,2a.5.5,0,0,0,.708,0l2-2A.5.5,0,0,0,7.854,10.146Z" fill="#28e632"/>
  <path d="M8.961,3.333h-.5v-.5A1.13,1.13,0,0,0,7.269,1.778a1.263,1.263,0,0,0-.754.247l-.474.349L5.773,1.85A1.636,1.636,0,0,0,4.308,1,1.539,1.539,0,0,0,2.692,2.444a1.313,1.313,0,0,0,.062.368l.141.48-.48.141A1.855,1.855,0,0,0,1,5.167,1.946,1.946,0,0,0,3.039,7H4V5H7V7H8.961A1.946,1.946,0,0,0,11,5.167,1.947,1.947,0,0,0,8.961,3.333Z" fill="#ededed"/>
</svg>
