<?xml version="1.0" encoding="UTF-8"?>
<svg id="Layer_1" data-name="Layer 1" xmlns="http://www.w3.org/2000/svg" viewBox="0 0 16 16">
  <path d="M11.1523,1.1173C9.9774,.1631,8.4422-.2051,6.9284,.1104c-1.9767,.4121-3.5265,2.0344-3.8576,4.037-.2227,1.339,.084,2.6741,.8623,3.7601,.6973,.9723,1.0665,2.2146,1.0665,3.5921l.0004,3.5004h1.1911l.5,1h2.6173l.5-1h1.1916v-3.5004c0-1.2716,.413-2.5784,1.1933-3.7782,.5274-.8101,.8067-1.7516,.8067-2.7224,0-1.5123-.6739-2.927-1.8477-3.8817Z" class="aw-theme-iconOutline" fill="#464646"/>
  <path d="M13.5,3c-.1279,0-.2559-.0488-.3535-.1465-.1953-.1953-.1953-.5117,0-.707L15.1465,.1465c.1953-.1953,.5117-.1953,.707,0s.1953,.5117,0,.707l-2,2c-.0977,.0977-.2256,.1465-.3535,.1465Z" class="aw-theme-iconOutline" fill="#464646"/>
  <path d="M15.5,11c-.1279,0-.2559-.0488-.3535-.1465l-2-2c-.1953-.1953-.1953-.5117,0-.707s.5117-.1953,.707,0l2,2c.1953,.1953,.1953,.5117,0,.707-.0977,.0977-.2256,.1465-.3535,.1465Z" class="aw-theme-iconOutline" fill="#464646"/>
  <path d="M15.5,6h-1c-.2764,0-.5-.2236-.5-.5s.2236-.5,.5-.5h1c.2764,0,.5,.2236,.5,.5s-.2236,.5-.5,.5Z" class="aw-theme-iconOutline" fill="#464646"/>
  <path d="M2.5,3c-.1279,0-.2559-.0488-.3535-.1465L.1465,.8535C-.0488,.6582-.0488,.3418,.1465,.1465S.6582-.0488,.8535,.1465L2.8535,2.1465c.1953,.1953,.1953,.5117,0,.707-.0977,.0977-.2256,.1465-.3535,.1465Z" class="aw-theme-iconOutline" fill="#464646"/>
  <path d="M.5,11c-.1279,0-.2559-.0488-.3535-.1465-.1953-.1953-.1953-.5117,0-.707l2-2c.1953-.1953,.5117-.1953,.707,0s.1953,.5117,0,.707L.8535,10.8535c-.0977,.0977-.2256,.1465-.3535,.1465Z" class="aw-theme-iconOutline" fill="#464646"/>
  <path d="M1.5,6H.5c-.2764,0-.5-.2236-.5-.5s.2236-.5,.5-.5H1.5c.2764,0,.5,.2236,.5,.5s-.2236,.5-.5,.5Z" class="aw-theme-iconOutline" fill="#464646"/>
  <polygon points="7.3086 15 8.6914 15 9.1914 14 10 14 10 12 6 12 6 14 6.8086 14 7.3086 15" fill="#dcdcdc"/>
  <path d="M5.9849,11h4.0325c.0938-1.3032,.5518-2.6168,1.338-3.8248,.4219-.6479,.6446-1.4004,.6446-2.1768,0-1.2095-.5391-2.3413-1.4786-3.1055-.9395-.7637-2.1769-1.0571-3.3879-.8042-1.5509,.3237-2.8166,1.6484-3.0764,3.2217-.1787,1.0752,.0654,2.145,.6885,3.0132,.7334,1.022,1.1573,2.2857,1.2393,3.6764Z" fill="#dcdcdc"/>
</svg>