<svg id="svg8" xmlns="http://www.w3.org/2000/svg" viewBox="0 0 16 16">
  <g id="layer1">
    <g id="g819">
      <path id="rect814" d="M15.3,8.011,7.989,15.3.7,7.989,8.011.7Z" fill="#f0f0f0"/>
      <path id="path814" d="M4.005,11.984.017,8,4,4.022C6.194,1.837,8,.045,8.01.04s1.811,1.789,4,3.987l3.972,4-.392.387c-.216.213-2.012,2-3.992,3.975l-3.6,3.587ZM14.594,8.017c0-.041-6.552-6.632-6.582-6.62C8,1.4,6.5,2.887,4.679,4.7L1.369,7.989,4.68,11.3l3.311,3.311,3.3-3.282C13.108,9.525,14.594,8.034,14.594,8.017Z" class="aw-theme-iconOutline" fill="#464646"/>
    </g>
  </g>
</svg>
