<svg id="Layer_1" data-name="Layer 1" xmlns="http://www.w3.org/2000/svg" viewBox="0 0 16 16">
  <path d="M15.8535,2.1465a.5.5,0,0,0-.707,0L14,3.293V2.5A2.503,2.503,0,0,0,11.5,0H8V1h3.5A1.5017,1.5017,0,0,1,13,2.5v.793L11.8535,2.1465a.5.5,0,0,0-.707.707l2,2a.5.5,0,0,0,.707,0l2-2A.5.5,0,0,0,15.8535,2.1465Z" fill="#464646"/>
  <path d="M14.7236,11.5527,11.85,10.1161C13.174,9.48,14,8.5524,14,7.5,14,5.5376,11.145,4,7.5,4S1,5.5376,1,7.5c0,1.0524.826,1.98,2.15,2.6161L.2764,11.5527a.5.5,0,0,0,0,.8946l7,3.5a.5007.5007,0,0,0,.4472,0l7-3.5a.5.5,0,0,0,0-.8946Z" fill="#464646"/>
  <path d="M7.5,11a11.3586,11.3586,0,0,1-3.0739-.404L1.6182,12,7.5,14.9409,13.3818,12l-2.8079-1.404A11.3586,11.3586,0,0,1,7.5,11Z" fill="#c6c6c6"/>
  <ellipse cx="7.5" cy="7.5" rx="5.5" ry="2.5" fill="#fa142d"/>
</svg>
