<svg id="Layer_1" data-name="Layer 1" xmlns="http://www.w3.org/2000/svg" viewBox="0 0 16 16">
  <path d="M2.008,9.506A2.66,2.66,0,0,0,2.5,11.5a1.8,1.8,0,0,0,1.353.461C5.2,11.958,7,10.512,7,9.033A1.045,1.045,0,0,0,6.49,8H3.149c-.173,0-1.069.1-1.141,1.506Z" fill="#73b4c8"/>
  <path d="M10.51,8A1.045,1.045,0,0,0,10,9.033c0,1.479,1.8,2.925,3.151,2.925A1.8,1.8,0,0,0,14.5,11.5h0a2.66,2.66,0,0,0,.488-1.991C14.92,8.1,14.024,8,13.845,8Z" fill="#73b4c8"/>
  <path d="M15.43,7.806,13.655,4.467a1,1,0,0,0-1.6-.224L10.639,5.709l.721.693,1.412-1.466L13.87,7l-.019,0H10.409l-.169.03A1.834,1.834,0,0,0,9.215,8H7.785A1.834,1.834,0,0,0,6.76,7.03L3.145,7,3.129,7l1.1-2.065L5.64,6.4l.721-.693L4.948,4.242a1,1,0,0,0-1.6.225L1.569,7.807a2.81,2.81,0,0,0-.56,1.649,3.574,3.574,0,0,0,.762,2.73,2.741,2.741,0,0,0,2.078.772C5.679,12.958,8,11.11,8,9.033,8,9.021,8,9.012,8,9H9c0,.012,0,.021,0,.033,0,2.077,2.321,3.925,4.151,3.925a2.741,2.741,0,0,0,2.078-.772h0a3.576,3.576,0,0,0,.762-2.73A2.808,2.808,0,0,0,15.43,7.806ZM3.849,11.958A1.8,1.8,0,0,1,2.5,11.5a2.66,2.66,0,0,1-.488-1.991C2.08,8.1,2.976,8,3.149,8H6.49A1.045,1.045,0,0,1,7,9.033C7,10.512,5.2,11.958,3.849,11.958ZM14.5,11.5a1.8,1.8,0,0,1-1.353.461C11.8,11.958,10,10.512,10,9.033A1.045,1.045,0,0,1,10.51,8h3.335c.179,0,1.075.1,1.147,1.506A2.66,2.66,0,0,1,14.5,11.5Z" class="aw-theme-iconOutline" fill="#464646"/>
</svg>
