<svg id="Layer_1" data-name="Layer 1" xmlns="http://www.w3.org/2000/svg" viewBox="0 0 16 16">
<path style="fill:#8C8C8C;" d="M15.5,11.2c-5-2.5-10,3.1-15,0.6v-10c5,2.5,10-3.1,15-0.6V11.2z"/>
<path style="fill:#464646;" d="M15.7,0.8C13-0.6,10.4,0.2,7.9,1C5.5,1.8,3.2,2.4,1,1.4V0H0v16h1v-3.5C1.8,12.8,2.6,13,3.4,13
	c1.6-0.1,3.2-0.4,4.8-1c2.5-0.8,4.8-1.5,7.1-0.3c0.2,0.1,0.5,0,0.7-0.2c0-0.1,0.1-0.1,0.1-0.2v-10C16,1,15.9,0.9,15.7,0.8z M15,10.5
	c-2.4-0.9-4.8-0.2-7.1,0.6c-2.4,0.7-4.6,1.4-6.9,0.4v-9C3.4,3.4,5.8,2.7,8.1,2c2.4-0.7,4.6-1.4,6.9-0.4V10.5z"/>
</svg>
