<?xml version="1.0" encoding="UTF-8"?>
<svg id="Layer_1" data-name="Layer 1" xmlns="http://www.w3.org/2000/svg" viewBox="0 0 16 15">
  <path d="M13.8408,5.9995c-.2158-1.0571-.6567-2.0283-1.2643-2.869L14.8535,.8535c.1953-.1953,.1953-.5117,0-.707s-.5117-.1953-.707,0l-2.2139,2.2139C10.5541,.9055,8.6132,0,6.5,0h-.5V3h.5c1.3154,0,2.4894,.5772,3.313,1.48l-.7069,.7069c-.6416-.7221-1.5665-1.1869-2.6061-1.1869-1.3506,0-2.5752,.7905-3.1494,2H0v3H3.3506c.2034,.4284,.4915,.8007,.8348,1.1075L.1465,14.1465c-.1953,.1953-.1953,.5117,0,.707,.0977,.0977,.2256,.1465,.3535,.1465s.2559-.0488,.3535-.1465l4.1817-4.1817c.4506,.2107,.9479,.3282,1.4648,.3282,1.9297,0,3.5-1.5703,3.5-3.5,0-.5236-.1237-1.0159-.3306-1.4623l.7339-.7339c.3687,.6525,.5967,1.3948,.5967,2.1963,0,2.4814-2.0186,4.5-4.5,4.5h-.5v3h.5c3.5547,0,6.6367-2.5503,7.3408-6h2.1592v-3.0005h-2.1592Z" class="aw-theme-iconOutline" fill="#464646"/>
  <g>
    <path d="M11.2159,3.0771c-1.0865-1.157-2.5696-1.9291-4.2159-2.0576v1.0029c1.3902,.1259,2.6309,.7727,3.5294,1.7411l.6865-.6865Z" fill="#f68d2b"/>
    <path d="M12.9248,6.5703c-.1437-1.002-.5334-1.9144-1.0779-2.7101l-.7012,.7012c.5401,.8508,.8543,1.8584,.8543,2.9387,0,2.8643-2.2002,5.2241-5,5.4775v1.0029c2.9902-.2334,5.4932-2.542,5.9258-5.5518l.0615-.4287h2.0127v-1.0005h-2.0137l-.0615-.4292Z" fill="#f68d2b"/>
  </g>
  <g>
    <path d="M4.1543,8.3325c.1511,.4252,.4134,.7856,.7409,1.0652l3.5043-3.5043c-.4589-.5417-1.1353-.8935-1.8995-.8935-1.0488,0-1.9912,.6699-2.3457,1.6675l-.1182,.3325H1v1h3.0361l.1182,.3325Z" fill="#f68d2b"/>
    <path d="M5.8105,9.8965c.2211,.0648,.4518,.1035,.6895,.1035,1.3789,0,2.5-1.1216,2.5-2.5,0-.2393-.0445-.4661-.1075-.6854l-3.082,3.082Z" fill="#f68d2b"/>
  </g>
</svg>