<svg id="Layer_1" data-name="Layer 1" xmlns="http://www.w3.org/2000/svg" viewBox="0 0 24 24">
  <circle cx="12" cy="12" r="12" fill="#dc0000"/>
  <path d="M12,24A12,12,0,1,1,24,12,12.013,12.013,0,0,1,12,24ZM12,1A11,11,0,1,0,23,12,11.013,11.013,0,0,0,12,1Z" fill="#464646"/>
  <polygon points="14.191 17.995 14.191 17.83 14.191 17.995 17.995 17.995 17.995 10.995 10.995 10.995 10.995 12.324 11.351 12.324 10.995 12.324 10.995 17.995 14.191 17.995" fill="none"/>
  <g>
    <polygon points="7 6.994 15 6.994 15 5.994 6 5.994 6 14.99 7 14.99 7 6.994" fill="#fff"/>
    <rect x="10.063" y="17.71" width="0.875" height="0.865" fill="#fff"/>
    <polygon points="10.219 17.298 10.8 17.298 10.936 14.64 10.065 14.64 10.219 17.298" fill="#fff"/>
    <path d="M19,9.995h-9v1.746c-.012.017-.029.034-.037.048L8.99,13.458V9H17V8H7.99v7.183L5.715,19.107a.616.616,0,0,0,.009.6.6.6,0,0,0,.51.3h8.475a.6.6,0,0,0,.607-.581.688.688,0,0,0-.08-.33l-.057-.1H19ZM6.929,19.007l3.555-6.131,3.546,6.13ZM18,18H14.6L11.011,11.79A.153.153,0,0,0,11,11.765V11h7Z" fill="#fff"/>
  </g>
</svg>
