<svg id="Layer_3" data-name="Layer 3" xmlns="http://www.w3.org/2000/svg" viewBox="0 0 16 16">
  <path d="M15.1416,9.1323A2.3784,2.3784,0,0,0,16,7.3384V5H11.528l2.2569-2.8586A1,1,0,0,0,13.7071.8146L13.1854.2929a1,1,0,0,0-1.4142,0L4.9456,7.1185,1.9156,5.82a1,1,0,0,0-1.101.212l-.5217.5218a1,1,0,0,0,0,1.4142l4.1739,4.1739a1,1,0,0,0,.7071.2929c.0195,0,.0389-.0006.0585-.0018a1,1,0,0,0,.7264-.3786L8.5346,8.7917a2.5679,2.5679,0,0,0,.3238.34L10.21,10.29a.2557.2557,0,0,1,0,.42L8.8584,11.8677A2.3784,2.3784,0,0,0,8,13.6616V16h8V13.6616a2.3766,2.3766,0,0,0-.8584-1.7934L13.7905,10.71a.2557.2557,0,0,1,0-.42Z" fill="#464646"/>
  <path d="M9,15h6V13.6616a1.3382,1.3382,0,0,0-.43-.9619L12,12.0171,9.43,12.7a1.3382,1.3382,0,0,0-.43.9619Z" fill="#ffcd50"/>
  <path d="M10.86,9.5312a1.2807,1.2807,0,0,1,.4594.9688,1.25,1.25,0,0,1-.2426.7278L12,10.9829l.9344.2632a1.2533,1.2533,0,0,1-.2537-.7461,1.2807,1.2807,0,0,1,.4594-.9688L14.4912,8.373A1.3629,1.3629,0,0,0,15,7.3384V6H9V7.3384a1.3615,1.3615,0,0,0,.5088,1.0342Z" fill="#cde6eb"/>
    <polygon points="10.254 5 13 1.522 12.478 1 8.478 5 10.254 5" fill="#3caf82"/>
    <path d="M8,7.3384v-1.86L5.1739,8.3043,1.5217,6.7391,1,7.2609l4.1739,4.1739,2.878-3.6456A2.2028,2.2028,0,0,1,8,7.3384Z" fill="#3caf82"/>
</svg>
