<svg version="1.1" id="Layer_1" xmlns="http://www.w3.org/2000/svg" xmlns:xlink="http://www.w3.org/1999/xlink" x="0px" y="0px"
	 viewBox="0 0 16 16" style="enable-background:new 0 0 16 16;" xml:space="preserve">
<g>
	<path fill="#006487" d="M8,16c-4.411,0-8-3.589-8-8s3.589-8,8-8s8,3.589,8,8S12.411,16,8,16z M8,1.778
		C4.569,1.778,1.778,4.569,1.778,8S4.569,14.222,8,14.222S14.222,11.431,14.222,8S11.431,1.778,8,1.778z"/>
</g>
<g>
	<path fill="#006487" d="M6.733,13.003c-0.866-0.87-1.741-1.75-2.623-2.636c0.209-0.192,0.738-0.701,0.956-0.901
		c0.608,0.618,1.026,1.063,1.668,1.716c1.769-1.761,2.529-2.518,4.251-4.232c0.281,0.292,0.723,0.726,0.909,0.918
		C9.959,9.794,8.669,11.077,6.733,13.003z"/>
</g>
<g>
	<path fill="#006487" d="M6.526,9.3c-0.868-0.868-1.745-1.745-2.629-2.63c0.209-0.193,0.737-0.703,0.953-0.903
		C5.46,6.384,5.879,6.828,6.523,7.479c1.765-1.765,2.523-2.524,4.24-4.242c0.282,0.291,0.725,0.724,0.911,0.916
		C9.744,6.083,8.458,7.369,6.526,9.3z"/>
</g>
</svg>
