<svg id="Layer_1" data-name="Layer 1" xmlns="http://www.w3.org/2000/svg" viewBox="0 0 16 16"><circle cx="8" cy="8" r="8" fill="#fff"/><path d="M8,1A7,7,0,1,1,1,8,7.008,7.008,0,0,1,8,1M8,0a8,8,0,1,0,8,8A8,8,0,0,0,8,0Z" fill="#464646"/><path d="M8,13.174A4.794,4.794,0,0,1,3.169,8.429,4.746,4.746,0,0,1,5.6,4.311l.491.871A3.747,3.747,0,0,0,4.169,8.429a3.831,3.831,0,0,0,7.661,0,3.731,3.731,0,0,0-2.013-3.3l.467-.885A4.732,4.732,0,0,1,12.83,8.429,4.794,4.794,0,0,1,8,13.174Z" fill="#d63a3a"/><rect x="7.479" y="2.576" width="1" height="5.343" fill="#d63a3a"/></svg>