<svg id="Layer_1" data-name="Layer 1" xmlns="http://www.w3.org/2000/svg" viewBox="0 0 24 24">
  <rect width="24" height="24" fill="#dcdcdc"/>
  <path d="M12.5,10.347v5c2.333-.713,4.667-1.31,7-.128v-5C17.167,9.037,14.833,9.634,12.5,10.347Z"/>
  <path d="M12.5,5.347v5c2.333-.713,4.667-1.31,7-.128v-5C17.167,4.037,14.833,4.634,12.5,5.347Z" fill="#f0f0f0"/>
  <path d="M12.5,5.347c-2.667.816-5.333,1.784-8,.434v5c2.667,1.35,5.333.382,8-.434Z"/>
  <path d="M12.5,10.347c-2.667.816-5.333,1.784-8,.434v5c2.667,1.35,5.333.382,8-.434Z" fill="#f0f0f0"/>
  <path d="M19.726,4.772c-2.452-1.241-4.886-.663-7.372.1l-.5.153C9.483,5.756,7.232,6.435,5,5.447V4H4V20H5V16.54a6.827,6.827,0,0,0,2.38.414,16.428,16.428,0,0,0,4.773-.976l.493-.152c2.368-.726,4.5-1.24,6.628-.161A.5.5,0,0,0,20,15.219v-10A.5.5,0,0,0,19.726,4.772ZM19,5.535V9.456c-.038-.014-.077-.021-.115-.035-.091-.031-.182-.054-.272-.081-.194-.057-.388-.108-.581-.147q-.153-.03-.306-.054-.284-.042-.568-.061c-.1-.007-.191-.016-.287-.019-.229-.007-.458,0-.688.01-.051,0-.1,0-.155,0-.279.02-.558.054-.838.1-.094.014-.188.034-.283.051-.191.034-.382.07-.574.113-.112.024-.224.051-.336.078-.178.044-.357.089-.535.137l-.338.093L13,9.677V5.719C15.129,5.085,17.071,4.68,19,5.535Zm-7,.49V9.978l-.143.044c-.3.093-.6.185-.892.273-.109.033-.217.061-.326.092-.19.055-.38.11-.568.16-.124.032-.247.058-.37.088-.171.041-.342.084-.512.118-.13.027-.26.044-.39.066-.162.027-.324.057-.486.076-.132.015-.263.02-.4.029-.158.011-.316.024-.474.026-.133,0-.266-.011-.4-.018-.154-.008-.309-.014-.464-.034-.133-.017-.267-.048-.4-.074-.152-.031-.3-.061-.458-.105-.134-.039-.268-.092-.4-.141-.107-.04-.213-.084-.32-.131v-3.9C7.381,7.418,9.725,6.728,12,6.025Zm-7,9.44V11.544l.028.008a6.592,6.592,0,0,0,.837.242c.072.016.144.022.216.035.208.038.416.072.624.091.1.009.2.01.306.015.123.006.246.019.369.019.04,0,.08-.008.12-.008a9.3,9.3,0,0,0,1.068-.075c.045-.006.09-.016.135-.023.321-.046.64-.107.958-.178.111-.024.222-.05.332-.077q.421-.1.838-.221c.08-.022.159-.043.238-.066q.466-.136.931-.281v3.954l-.143.043C9.482,15.757,7.232,16.453,5,15.465Zm8-.788V10.722l.259-.077c.129-.037.257-.074.384-.109s.279-.074.417-.109.28-.072.418-.1.271-.056.406-.083.266-.055.4-.076c.163-.027.325-.043.487-.061.1-.011.2-.028.3-.035a7.272,7.272,0,0,1,.766-.017c.081,0,.161.015.242.021.178.012.356.026.533.054.1.016.194.042.291.063.159.034.318.07.476.118.106.033.211.076.317.116s.2.082.3.127v3.9A9.409,9.409,0,0,0,13,14.677Z" fill="#464646"/>
</svg>
