<svg id="Layer_1" data-name="Layer 1" xmlns="http://www.w3.org/2000/svg" viewBox="0 0 16 16">
  <path d="M15.5037,12.77A5.4946,5.4946,0,0,0,7,6.2609V4H4V1.707L5.1465,2.8535a.5.5,0,0,0,.707-.707l-2-2a.5.5,0,0,0-.707,0l-2,2a.5.5,0,0,0,.707.707L3,1.707V4H0V11H5.0253a5.4935,5.4935,0,0,0,10.3952,1.943A.4948.4948,0,0,0,15.5037,12.77ZM10.5,15c-.4827,0-1.1315-1.1044-1.3861-2.9166A11.6431,11.6431,0,0,1,10.5,12a11.4332,11.4332,0,0,1,1.3861.0835C11.6316,13.8956,10.9827,15,10.5,15Zm0-4a12.57,12.57,0,0,0-1.4765.0857C9.0141,10.8923,9,10.7048,9,10.5s.0141-.3924.0235-.5859A12.6013,12.6013,0,0,0,10.5,10a12.6059,12.6059,0,0,0,1.4765-.0857c.0094.1934.0235.3809.0235.5857s-.0141.3924-.0235.5859A12.5975,12.5975,0,0,0,10.5,11ZM6,10.5a4.44,4.44,0,0,1,.24-1.3816,6.8,6.8,0,0,0,1.7862.6256C8.01,9.9959,8,10.2485,8,10.5s.01.5044.0258.7565a6.825,6.825,0,0,0-1.7863.6248A4.4378,4.4378,0,0,1,6,10.5ZM10.5,6c.4827,0,1.1317,1.1046,1.3862,2.9169A11.6632,11.6632,0,0,1,10.5,9a11.6786,11.6786,0,0,1-1.3862-.0829C9.3683,7.1047,10.0173,6,10.5,6Zm2.4742,3.744a6.8046,6.8046,0,0,0,1.7864-.6251A4.44,4.44,0,0,1,15,10.5a4.4374,4.4374,0,0,1-.24,1.3816,6.798,6.798,0,0,0-1.7862-.6257C12.99,11.004,13,10.7514,13,10.5S12.99,9.9959,12.9742,9.744Zm1.3786-1.5331a5.44,5.44,0,0,1-1.4814.5364,7.99,7.99,0,0,0-.7066-2.42A4.5043,4.5043,0,0,1,14.3528,8.2109ZM8.8352,6.3277a7.9919,7.9919,0,0,0-.7066,2.42,5.4316,5.4316,0,0,1-1.4813-.5368A4.5039,4.5039,0,0,1,8.8352,6.3277ZM6.647,12.7889a5.4538,5.4538,0,0,1,1.4816-.536,7.9928,7.9928,0,0,0,.7066,2.4194A4.5045,4.5045,0,0,1,6.647,12.7889Zm5.5178,1.8834a7.9825,7.9825,0,0,0,.7057-2.4138,5.6467,5.6467,0,0,1,1.4792.5363A4.5043,4.5043,0,0,1,12.1648,14.6723Z" class="aw-theme-iconOutline" fill="#464646"/>
  <path d="M4,5V8H3V5H1v5L5.0253,10A5.4626,5.4626,0,0,1,6,7.3478V5Z" fill="#dcdcdc"/>
</svg>
