<svg id="Layer_1" data-name="Layer 1" xmlns="http://www.w3.org/2000/svg" viewBox="0 0 16 16">
  <path d="M15.5,11.219c-5-2.532-10,3.094-15,.562v-10c5,2.532,10-3.094,15-.562Z" fill="#d2d2d2"/>
  <path d="M15.726.773c-2.682-1.357-5.321-.541-7.874.25C5.478,1.757,3.23,2.435,1,1.446V0H0V16H1V12.54a6.819,6.819,0,0,0,2.378.414,16.417,16.417,0,0,0,4.77-.976c2.472-.764,4.808-1.486,7.126-.312A.5.5,0,0,0,16,11.219v-10A.5.5,0,0,0,15.726.773ZM15,10.457c-2.432-.894-4.825-.153-7.148.566-2.374.734-4.622,1.431-6.852.442V2.543c2.431.894,4.825.152,7.148-.566C10.522,1.243,12.771.547,15,1.535Z" class="aw-theme-iconOutline" fill="#464646"/>
  <path d="M11.5,5.624c-1.333,1.509-2.667,3.235-4,4.976a28.445,28.445,0,0,1-4-3.148,51.047,51.047,0,0,0,4-4.722A43.243,43.243,0,0,1,11.5,5.624Z" fill="#d2d741"/>
  <path d="M7.5,11.1a.5.5,0,0,1-.285-.089l-.146-.1a28.031,28.031,0,0,1-3.919-3.1A.5.5,0,0,1,3.144,7.1,49.7,49.7,0,0,0,7.1,2.426a.5.5,0,0,1,.682-.106c.329.229.658.45.987.671a30.034,30.034,0,0,1,3.055,2.256.5.5,0,0,1,.047.708C10.575,7.427,9.251,9.136,7.9,10.9A.5.5,0,0,1,7.5,11.1ZM4.209,7.438A27.272,27.272,0,0,0,7.394,9.917c1.149-1.5,2.277-2.945,3.4-4.239-.857-.7-1.728-1.289-2.574-1.858q-.3-.2-.607-.41A51.689,51.689,0,0,1,4.209,7.438Z" class="aw-theme-iconOutline" fill="#464646"/>
</svg>
