<svg id="Layer_1" data-name="Layer 1" xmlns="http://www.w3.org/2000/svg" viewBox="0 0 16 16">
  <path d="M15.8535,7.6465,13.4668,5.26a.5.5,0,1,0-.707.707L14.2925,7.5h-.6409A14.7146,14.7146,0,0,1,1.1045.5259l-.18-.29A.5.5,0,0,0,.0757.7646l.18.29A15.699,15.699,0,0,0,9.6969,8a15.699,15.699,0,0,0-9.441,6.9458l-.18.29a.5.5,0,1,0,.8486.5283l.18-.29A14.7152,14.7152,0,0,1,13.667,8.5L13.6694,8.5h.6241L12.76,10.0332a.5.5,0,1,0,.707.707l2.3867-2.3867A.5.5,0,0,0,15.8535,7.6465Z" class="aw-theme-iconOutline" fill="#464646"/>
</svg>
