<svg id="Layer_1" data-name="Layer 1" xmlns="http://www.w3.org/2000/svg" viewBox="0 0 16 16">
  <path d="M14.651,1.32A4.629,4.629,0,0,0,11.387,0h0A4.631,4.631,0,0,0,8.121,1.32L6.167,3.274a1.476,1.476,0,0,0-.413,1.2C4.6,4.8,3.881,5.526,2.465,6.973c-.33.338-.692.709-1.117,1.134a4.621,4.621,0,1,0,6.53,6.539l1.933-1.933a1.475,1.475,0,0,0,.412-1.207,4.51,4.51,0,0,0,1.959-1.174l2.469-2.473a4.633,4.633,0,0,0,0-6.539ZM8.631,8.443a1.438,1.438,0,0,0,.107.227A1.617,1.617,0,0,1,7.35,7.454a1.407,1.407,0,0,0-.055-.132A1.591,1.591,0,0,1,8.631,8.443ZM4.614,12.971A1.6,1.6,0,0,1,3.473,10.23c.436-.436.809-.817,1.144-1.161l.093-.094a4.565,4.565,0,0,0,2.314,2.278L5.755,12.521A1.614,1.614,0,0,1,4.614,12.971Zm7.913-7.236L11.279,6.985a4.611,4.611,0,0,0-2.3-2.279l1.262-1.262a1.617,1.617,0,0,1,2.282,2.291Z" class="aw-theme-iconOutline" fill="#464646"/>
  <path d="M8.944,10.69A3.653,3.653,0,0,1,5.4,7.9a.5.5,0,1,1,.975-.224,2.642,2.642,0,0,0,2.57,2.01,2.526,2.526,0,0,0,1.822-.771l2.469-2.474a2.627,2.627,0,0,0,0-3.706,2.672,2.672,0,0,0-3.7,0L7.58,4.693a.5.5,0,0,1-.705-.711L8.83,2.027a3.694,3.694,0,0,1,5.112,0,3.632,3.632,0,0,1,0,5.124L11.474,9.625A3.507,3.507,0,0,1,8.944,10.69Z" fill="#3c91af"/>
    <path d="M4.614,15A3.627,3.627,0,0,1,2.057,8.814c.431-.431.8-.807,1.122-1.139C4.811,6.007,5.3,5.505,6.56,5.322a3.594,3.594,0,0,1,4,2.571.5.5,0,1,1-.961.276A2.606,2.606,0,0,0,6.7,6.314c-.9.13-1.222.439-2.8,2.055-.333.341-.7.72-1.136,1.153a2.629,2.629,0,0,0,0,3.706,2.673,2.673,0,0,0,3.7,0L8.4,11.294A.5.5,0,0,1,9.1,12L7.17,13.938A3.59,3.59,0,0,1,4.614,15Z" fill="#3c91af"/>
</svg>
