<svg id="Layer_1" data-name="Layer 1" xmlns="http://www.w3.org/2000/svg" viewBox="0 0 16 16"><path d="M13,10.2l2.508-1.393L13,7.445V2.613A2.613,2.613,0,0,0,10.387,0H2.613A2.613,2.613,0,0,0,0,2.613v7.774A2.613,2.613,0,0,0,2.613,13H7.5v.446l4,2.054V12.742l.008,0V15.5l4-2.054V8.827L13,10.222Z" fill="#fff"/><path d="M7.385,13.008H2.433A2.427,2.427,0,0,1,.006,10.581V2.435A2.426,2.426,0,0,1,2.433.008h8.145a2.427,2.427,0,0,1,2.428,2.427V7.019" fill="none"/><ellipse cx="3.502" cy="2.5" rx="0.701" ry="0.706" fill="#197fa2"/><ellipse cx="9.5" cy="2.5" rx="0.701" ry="0.706" fill="#197fa2"/><polygon points="12 4 5 4 4 4 1 4 1 5 4 5 4 8.002 0.998 8.014 1.002 9.014 4 9.002 4 12 5 12 5 8.998 7.935 8.986 7.931 7.986 5 7.998 5 5 8.014 5 8.014 8 9.014 8 9.014 5 12 5 12 4" fill="#197fa2"/><path d="M16.008,8.8a.5.5,0,0,0-.262-.437L13.006,6.88V2.506a2.5,2.5,0,0,0-2.5-2.5h-8a2.5,2.5,0,0,0-2.5,2.5v8a2.5,2.5,0,0,0,2.5,2.5H7v.438a.5.5,0,0,0,.271.445l4,2.053A.506.506,0,0,0,11.5,16h.008a.5.5,0,0,0,.228-.056l4-2.053a.5.5,0,0,0,.272-.445V8.827l0-.012Zm-13.5,3.2a1.5,1.5,0,0,1-1.5-1.5v-8a1.5,1.5,0,0,1,1.5-1.5h8a1.5,1.5,0,0,1,1.5,1.5V6.337l-.275-.149a.5.5,0,0,0-.477,0L7.241,8.379a.5.5,0,0,0-.261.438A.452.452,0,0,0,7,8.889v3.119ZM11,14.682,8,13.141V9.678l3,1.668Zm.509-4.227L8.522,8.818,11.494,7.2l2.975,1.614Zm3.5,2.686-3,1.541V11.346l3-1.668Z" fill="#464646"/></svg>