<svg id="Layer_1" data-name="Layer 1" xmlns="http://www.w3.org/2000/svg" viewBox="0 0 16 16">
  <path d="M15.5762,2.1694,13.8316.4243A1.4386,1.4386,0,0,0,12.8076,0h-.0029A1.4373,1.4373,0,0,0,11.78.4282l-9.6352,9.72a.4987.4987,0,0,0-.1094.1666l-2,5a.5.5,0,0,0,.65.65l5-2a.4988.4988,0,0,0,.1665-.1094l9.72-9.6343a1.4477,1.4477,0,0,0,.0044-2.0513Z" class="aw-theme-iconOutline" fill="#464646"/>
  <polygon points="3.206 10.499 10.467 3.174 12.826 5.534 5.501 12.794 3.206 10.499" fill="#f68d2b"/>
  <path d="M14.8677,3.5107,13.5366,4.83l-2.366-2.3665,1.32-1.3313A.446.446,0,0,1,12.8066,1h.001a.4462.4462,0,0,1,.3169.1313l1.7446,1.7452a.4478.4478,0,0,1-.0014.6342Z" fill="#fda6c4"/>
  <polygon points="2.01 14.357 4.61 13.317 2.683 11.39 1.646 13.982 2.01 14.357" fill="#dcdcdc"/>
</svg>
