<svg id="Layer_1" data-name="Layer 1" xmlns="http://www.w3.org/2000/svg" viewBox="0 0 16 16">
  <path d="M15.5,2C15.5.0562,8.7676,0,8,0S.5.0562.5,2a1.2652,1.2652,0,0,0,.1816.5239L6,10.6489V15.5a.5.5,0,0,0,.7773.416l3-2A.5.5,0,0,0,10,13.5V10.6489l5.3184-8.125A1.1878,1.1878,0,0,0,15.5,2Z" fill="#464646"/>
  <ellipse cx="8" cy="2" rx="6.458" ry="1" fill="#a8a8a8"/>
  <path d="M8,4a25.9412,25.9412,0,0,1-5.5287-.5681l4.4472,6.7942A.5012.5012,0,0,1,7,10.5v4.0659l2-1.3335V10.5a.5012.5012,0,0,1,.0815-.2739l4.4472-6.7942A25.9412,25.9412,0,0,1,8,4Z" fill="#c8c8c8"/>
</svg>
