<svg id="Layer_1" data-name="Layer 1" xmlns="http://www.w3.org/2000/svg" viewBox="0 0 16 16">
  <polygon points="6 0 6 2 2 2 2 5 0 5 0 10 2 10 2 11 0 11 0 16 5 16 5 11 3 11 3 10 5 10 5 5 3 5 3 3 6 3 6 5 11 5 11 0 6 0" fill="#464646"/>
  <path d="M16,7.75C16,6.3687,12.8569,6,11,6S6,6.3687,6,7.75a.875.875,0,0,0,.16.4985c.0043.0061.005.0136.01.02L9,11.9209V15.5a.5.5,0,0,0,.7236.4473l3-1.5A.5.5,0,0,0,13,14l.001-2.0786,2.8027-3.6152c.0081-.01.01-.0231.0168-.0339A.8818.8818,0,0,0,16,7.75Z" fill="#464646"/>
  <rect x="7" y="1" width="3" height="3" fill="#3c91af"/>
  <rect x="1" y="6" width="3" height="3" fill="#3c91af"/>
  <rect x="1" y="12" width="3" height="3" fill="#3c91af"/>
  <ellipse cx="11" cy="7.75" rx="3.9687" ry="0.75" fill="#a8a8a8"/>
  <path d="M11,9.5a14.4649,14.4649,0,0,1-2.8186-.2689l1.7141,2.2127A.4993.4993,0,0,1,10,11.75v2.9409l2-1,.001-1.9409a.5.5,0,0,1,.105-.3062L13.8223,9.23A14.4564,14.4564,0,0,1,11,9.5Z" fill="#c8c8c8"/>
</svg>
