<?xml version="1.0" encoding="UTF-8"?>
<svg id="Layer_1" data-name="Layer 1" xmlns="http://www.w3.org/2000/svg" viewBox="0 0 11 16">
  <path d="M6,6V1.7065l2.1465,2.1465c.0977,.0977,.2256,.1465,.3535,.1465s.2559-.0489,.3535-.1465c.1953-.1953,.1953-.5117,0-.707L5.8541,.1465c-.0463-.0464-.1017-.0832-.1632-.1086-.1222-.0505-.2596-.0505-.3818,0-.0615,.0255-.1169,.0623-.1632,.1086L2.1465,3.1461c-.1953,.1953-.1953,.5117,0,.707,.1953,.1954,.5117,.1954,.707,0L5,1.7065V6H0v10H11V6H6Z" class="aw-theme-iconOutline" fill="#464646"/>
  <path d="M6,7v4.2929l2.1465-2.1466c.1953-.1953,.5117-.1953,.707,0s.1953,.5117,0,.7071l-2.9994,2.9995c-.0463,.0464-.1017,.0832-.1632,.1086-.0611,.0253-.1259,.0385-.1909,.0385s-.1298-.0132-.1909-.0385c-.0615-.0255-.1169-.0623-.1632-.1086l-2.9994-2.9995c-.1953-.1954-.1953-.5118,0-.7071s.5117-.1953,.707,0l2.1465,2.1466V7H1V15H10V7H6Z" fill="#dcdcdc"/>
</svg>