<svg id="Layer_1" data-name="Layer 1" xmlns="http://www.w3.org/2000/svg" viewBox="0 0 16 16">
  <path d="M15.726.772C13.271-.47,10.838.109,8.354.869l-.5.153C5.48,1.757,3.231,2.436,1,1.446V0H0V16H1V13.54a6.827,6.827,0,0,0,2.38.414,16.428,16.428,0,0,0,4.772-.976l.494-.153c2.369-.724,4.5-1.236,6.628-.16a.5.5,0,0,0,.488-.02A.5.5,0,0,0,16,12.219v-11A.5.5,0,0,0,15.726.772Z" fill="#464646"/>
  <path d="M1,12.465c2.231.987,4.48.292,6.856-.443l.5-.153c2.239-.684,4.437-1.222,6.646-.412V1.535c-2.035-.9-4.086-.4-6.354.29l-.494.153C5.828,2.7,3.434,3.439,1,2.543Z" fill="#af463c"/>
  <path d="M8.707,7l2.147-2.146a.5.5,0,0,0-.708-.708L8,6.293,5.854,4.146a.5.5,0,0,0-.708.708L7.293,7,5.146,9.146a.5.5,0,0,0,.708.708L8,7.707l2.146,2.147a.5.5,0,0,0,.708-.708Z" fill="#fff"/>
</svg>
