<svg id="Layer_1" data-name="Layer 1" xmlns="http://www.w3.org/2000/svg" viewBox="0 0 24 24">
  <circle cx="12" cy="12" r="12" fill="#464646"/>
  <path d="M17.721,6.563c-1.956-.921-3.883-.493-5.851.065-.014,0-.028.009-.042.015-.906.345-3.419,1.047-4.825.48V6.006H6v1.44l0,.011v7.374l0,.011v3.164H7V15.559a5.07,5.07,0,0,0,1.311.164,12.292,12.292,0,0,0,3.83-.756c1.843-.524,3.5-.9,5.151-.122a.5.5,0,0,0,.713-.452V7.016A.5.5,0,0,0,17.721,6.563Zm-5.706,7.405V10.831c-1.671.518-3.341,1.11-5.012.416V8.194a9.929,9.929,0,0,0,5.012-.555v3.037a8.645,8.645,0,0,1,4.993-.409v3.4A8.615,8.615,0,0,0,12.015,13.968Z" fill="#fff"/>
  <path d="M12,24A12,12,0,1,1,24,12,12.013,12.013,0,0,1,12,24ZM12,1A11,11,0,1,0,23,12,11.013,11.013,0,0,0,12,1Z" fill="#464646"/>
</svg>
