<svg id="Layer_1" data-name="Layer 1" xmlns="http://www.w3.org/2000/svg" xmlns:xlink="http://www.w3.org/1999/xlink" viewBox="0 0 48 48">
    <linearGradient id="linear-gradient" x1="3.75" y1="41.75" x2="45.25" y2="0.25" gradientTransform="matrix(1, 0, 0, -1, 0, 48)" gradientUnits="userSpaceOnUse">
      <stop offset="0" stop-color="#fff"/>
      <stop offset="0.2323" stop-color="#fafafa"/>
      <stop offset="0.4964" stop-color="#ededed"/>
      <stop offset="0.775" stop-color="#d6d6d6"/>
      <stop offset="1" stop-color="#bebebe"/>
    </linearGradient>
    <linearGradient id="paper_gradient" data-name="paper gradient" x1="30.5" y1="44.5" x2="42.5" y2="32.5" gradientTransform="matrix(1, 0, 0, -1, 0, 48)" gradientUnits="userSpaceOnUse">
      <stop offset="0" stop-color="#fff"/>
      <stop offset="0.2214" stop-color="#f8f8f8"/>
      <stop offset="0.5415" stop-color="#e5e5e5"/>
      <stop offset="0.92" stop-color="#c6c6c6"/>
      <stop offset="1" stop-color="#bebebe"/>
    </linearGradient>
  <polyline points="33.5 0.5 9.5 0.5 9.5 47.5 45.5 47.5 45.5 12.5" stroke="#464646" stroke-miterlimit="10" fill="url(#linear-gradient)"/>
  <polygon points="33.5 0.5 33.5 12.5 45.5 12.5 33.5 0.5" stroke="#464646" stroke-linejoin="round" fill="url(#paper_gradient)"/>
  <rect x="0.5" y="27.5" width="47" height="16" fill="#00a7d2" stroke="#464646" stroke-miterlimit="10"/>
    <path d="M7.7285,38.9785l-.8506-2.2236q-.342-.9024-.9629-.9024H5.3774v3.126H4.2144V31.2764H6.4771a2.4554,2.4554,0,0,1,1.706.5478,1.959,1.959,0,0,1,.606,1.5308,2.2547,2.2547,0,0,1-.4082,1.3618,2.0331,2.0331,0,0,1-1.1314.7651v.0215a1.1023,1.1023,0,0,1,.4424.3628,2.2585,2.2585,0,0,1,.35.5933l1.07,2.519Zm-.1611-5.5a1.0678,1.0678,0,0,0-.33-.8349,1.3374,1.3374,0,0,0-.9311-.2984H5.3774v2.4331h.9092a1.2439,1.2439,0,0,0,.9214-.3623A1.2766,1.2766,0,0,0,7.5674,33.4785Z" fill="#fff"/>
    <path d="M13.0522,38.9785V35.8633a2.23,2.23,0,0,0-.227-1.1226.8046.8046,0,0,0-.7505-.3813,1.0376,1.0376,0,0,0-.85.4189,1.6408,1.6408,0,0,0-.3325,1.0528v3.1474H9.7632V30.8359h1.1289v3.502h.02a1.75,1.75,0,0,1,1.5933-.9937,1.4784,1.4784,0,0,1,1.2588.5747A2.7676,2.7676,0,0,1,14.1963,35.6v3.3784Z" fill="#fff"/>
    <path d="M17.9077,38.9785v-.7573h-.0195a1.6349,1.6349,0,0,1-1.481.8916,1.5411,1.5411,0,0,1-1.1631-.44,1.643,1.643,0,0,1-.4253-1.1924,1.7962,1.7962,0,0,1,.4156-1.2407,1.9249,1.9249,0,0,1,1.2217-.58l1.4614-.22q0-1.1229-.9483-1.1226a2.4693,2.4693,0,0,0-.8921.1665,2.742,2.742,0,0,0-.77.4458V33.833a2.7169,2.7169,0,0,1,.8086-.3384,3.6672,3.6672,0,0,1,.97-.15,1.8329,1.8329,0,0,1,1.4492.55,2.3426,2.3426,0,0,1,.4864,1.5982v3.4858Zm-1.9795-1.6274a.7276.7276,0,0,0,.2344.5669.858.858,0,0,0,.5967.2119,1.0488,1.0488,0,0,0,.8305-.3789,1.4038,1.4038,0,0,0,.3277-.9531v-.4942l-1.08.1558a1.2929,1.2929,0,0,0-.7114.2793A.8359.8359,0,0,0,15.9282,37.3511Z" fill="#fff"/>
    <path d="M24.8252,36.0835a3.5744,3.5744,0,0,1-.6211,2.2075,1.9956,1.9956,0,0,1-1.6812.8218,1.5727,1.5727,0,0,1-1.4125-.8272h-.02v3.2227H19.9619v-8.03h1.1289v.8809h.02a1.8434,1.8434,0,0,1,1.6616-1.0152,1.7727,1.7727,0,0,1,1.5053.7359A3.2845,3.2845,0,0,1,24.8252,36.0835Zm-1.1733-.0215a2.084,2.084,0,0,0-.33-1.2485,1.073,1.073,0,0,0-.9209-.4541,1.1634,1.1634,0,0,0-.9556.4565,1.8345,1.8345,0,0,0-.3642,1.1817v.7036a1.4623,1.4623,0,0,0,.3471,1.0019,1.1053,1.1053,0,0,0,.8648.3946,1.1418,1.1418,0,0,0,1.0019-.5264A2.6818,2.6818,0,0,0,23.6519,36.062Z" fill="#fff"/>
    <path d="M28.6294,37.4048a1.5638,1.5638,0,0,1-.5381,1.2378,2.1342,2.1342,0,0,1-1.456.47,3.0978,3.0978,0,0,1-.6768-.0859,2.7668,2.7668,0,0,1-.6338-.2149V37.625a2.4432,2.4432,0,0,0,.6846.3813,1.9978,1.9978,0,0,0,.67.1343q.8115,0,.8115-.5908a.6185.6185,0,0,0-.081-.3359.8938.8938,0,0,0-.2784-.252,5.2279,5.2279,0,0,0-.6132-.3144,3.0422,3.0422,0,0,1-.7266-.4458,1.3326,1.3326,0,0,1-.3516-.5049,1.8411,1.8411,0,0,1-.1152-.6768,1.5323,1.5323,0,0,1,.5332-1.2085,2.0139,2.0139,0,0,1,1.3779-.4673,3.0274,3.0274,0,0,1,.59.0669,2.4313,2.4313,0,0,1,.5351.1641v1.1226a1.9159,1.9159,0,0,0-.5429-.2769,1.9612,1.9612,0,0,0-.6211-.1045.7941.7941,0,0,0-.5322.1665.5309.5309,0,0,0-.1954.4243.6372.6372,0,0,0,.1534.4541,2.54,2.54,0,0,0,.7265.416,2.4828,2.4828,0,0,1,.9922.6929A1.51,1.51,0,0,1,28.6294,37.4048Z" fill="#fff"/>
    <path d="M34.1489,36.1748a3.1229,3.1229,0,0,1-.7041,2.1377,2.4154,2.4154,0,0,1-1.9111.8,2.361,2.361,0,0,1-1.8447-.76,2.9552,2.9552,0,0,1-.6875-2.0595,3.1306,3.1306,0,0,1,.7041-2.1592,2.4782,2.4782,0,0,1,1.95-.79,2.3065,2.3065,0,0,1,1.833.7544A3.0509,3.0509,0,0,1,34.1489,36.1748Zm-1.1738.043a2.2242,2.2242,0,0,0-.3682-1.3858,1.218,1.218,0,0,0-1.0146-.4726,1.2347,1.2347,0,0,0-1.041.4941,2.2634,2.2634,0,0,0-.376,1.3965,2.1761,2.1761,0,0,0,.376,1.3613,1.2537,1.2537,0,0,0,1.0508.4864,1.1864,1.1864,0,0,0,1.0263-.4781A2.371,2.371,0,0,0,32.9751,36.2178Z" fill="#fff"/>
    <path d="M38.3335,38.9785v-.8594h-.02a1.7526,1.7526,0,0,1-1.6416.9937,1.7987,1.7987,0,0,1-1.5108-.7412,3.2463,3.2463,0,0,1-.5625-2.0088,3.5448,3.5448,0,0,1,.624-2.1939,1.9854,1.9854,0,0,1,1.669-.8247,1.6688,1.6688,0,0,1,.8408.2095,1.5059,1.5059,0,0,1,.5811.6069h.02V30.8359h1.1289v8.1426Zm.01-3.2119a1.4765,1.4765,0,0,0-.3545-.9937,1.11,1.11,0,0,0-.877-.4135,1.1277,1.1277,0,0,0-.99.5156,2.5716,2.5716,0,0,0-.3487,1.45,2.1674,2.1674,0,0,0,.3438,1.3027,1.1019,1.1019,0,0,0,.9365.47,1.1251,1.1251,0,0,0,.919-.4756,1.9551,1.9551,0,0,0,.3711-1.2378Z" fill="#fff"/>
    <path d="M40.8384,41.562a2.3682,2.3682,0,0,1-.6944-.0859V40.418a1.2272,1.2272,0,0,0,.5528.1342.9342.9342,0,0,0,.88-.7036l.3418-.87-2.0039-5.5h1.27l1.1738,3.8726a4.1554,4.1554,0,0,1,.1074.5263h.02l.1221-.5263L43.82,33.4785h1.1485l-2.17,6.1607a3.5965,3.5965,0,0,1-.831,1.4609A1.5947,1.5947,0,0,1,40.8384,41.562Z" fill="#fff"/>
</svg>
