<svg id="Layer_1" data-name="Layer 1" xmlns="http://www.w3.org/2000/svg" xmlns:xlink="http://www.w3.org/1999/xlink" viewBox="0 0 48 48">
  <defs>
    <linearGradient id="linear-gradient" x1="7.383" y1="7.383" x2="40.617" y2="40.617" gradientUnits="userSpaceOnUse">
      <stop offset="0" stop-color="#73c8a5"/>
      <stop offset="0.175" stop-color="#6ac39e"/>
      <stop offset="0.457" stop-color="#52b58b"/>
      <stop offset="0.809" stop-color="#2c9f6d"/>
      <stop offset="1" stop-color="#14915a"/>
    </linearGradient>
  </defs>
  <g>
    <circle cx="24" cy="24" r="23.5" fill="url(#linear-gradient)"/>
    <path d="M24,48A24,24,0,1,1,48,24,24.028,24.028,0,0,1,24,48ZM24,1A23,23,0,1,0,47,24,23.026,23.026,0,0,0,24,1Z" fill="#464646"/>
  </g>
  <g>
    <path d="M21.914,24.736a10.986,10.986,0,0,0-1.975-1.52c-.7-.427-1.456-.84-2.243-1.229-.731-.36-1.381-.694-1.933-.992a8.016,8.016,0,0,1-1.285-.84,2.481,2.481,0,0,1-.644-.768,2.1,2.1,0,0,1-.194-.953,1.654,1.654,0,0,1,.236-.934,2.226,2.226,0,0,1,.72-.688,3.652,3.652,0,0,1,1.142-.433,7.007,7.007,0,0,1,1.426-.149,7.384,7.384,0,0,1,4.267,1.127L23,18.444V13.128l-.535-.282a11.162,11.162,0,0,0-5.048-.871,11.9,11.9,0,0,0-2.956.373,8.647,8.647,0,0,0-2.675,1.176,6.5,6.5,0,0,0-1.979,2.094,5.865,5.865,0,0,0-.777,3.038,5.894,5.894,0,0,0,.5,2.49,6.351,6.351,0,0,0,1.328,1.874,10.027,10.027,0,0,0,1.861,1.418c.661.4,1.381.793,2.14,1.177.7.354,1.347.69,1.95,1.009a9.4,9.4,0,0,1,1.427.909,3.264,3.264,0,0,1,.8.89,2.209,2.209,0,0,1-.5,2.643,4.808,4.808,0,0,1-2.833.652,7.714,7.714,0,0,1-1.285-.119,10.82,10.82,0,0,1-1.434-.347,8.751,8.751,0,0,1-1.331-.538,4.755,4.755,0,0,1-1-.659L9,28.588v5.683l.438.3a5.523,5.523,0,0,0,1.349.633,13.42,13.42,0,0,0,1.582.417c.547.11,1.086.2,1.6.251a12.561,12.561,0,0,0,1.355.088,14.328,14.328,0,0,0,3.094-.328,8.278,8.278,0,0,0,2.741-1.125,6.055,6.055,0,0,0,1.985-2.119,6.344,6.344,0,0,0,.745-3.153,5.735,5.735,0,0,0-.555-2.549A7.189,7.189,0,0,0,21.914,24.736Z" fill="#464646"/>
    <polygon points="38 12 27 12 26 12 26 13 26 35 26 36 27 36 30 36 31 36 31 35 31 27 37 27 38 27 38 26 38 23 38 22 37 22 31 22 31 17 38 17 39 17 39 16 39 13 39 12 38 12" class="aw-theme-iconOutline" fill="#464646"/>
  </g>
</svg>
