<svg id="Image" xmlns="http://www.w3.org/2000/svg" xmlns:xlink="http://www.w3.org/1999/xlink" viewBox="0 0 48 48">
  <defs>
    <linearGradient id="linear-gradient" x1="34.75" y1="20.789" x2="46.165" y2="13.174" gradientTransform="matrix(0.962, 0.272, 0.272, -0.962, -3.36, 38.48)" gradientUnits="userSpaceOnUse">
      <stop offset="0" stop-color="#73b4c8"/>
      <stop offset="1" stop-color="#177491"/>
    </linearGradient>
    <linearGradient id="linear-gradient-2" x1="10.104" y1="30.79" x2="26.557" y2="30.688" gradientTransform="matrix(1, 0, 0, -1, 0, 50)" gradientUnits="userSpaceOnUse">
      <stop offset="0" stop-color="#f2f2f2"/>
      <stop offset="1" stop-color="#999"/>
    </linearGradient>
    <linearGradient id="linear-gradient-3" x1="0.483" y1="24.639" x2="20.829" y2="14.729" xlink:href="#linear-gradient-2"/>
    <linearGradient id="linear-gradient-4" x1="13.572" y1="34.84" x2="25.101" y2="23.711" gradientTransform="matrix(1, 0, 0, -1, 0, 50)" gradientUnits="userSpaceOnUse">
      <stop offset="0" stop-color="#fff"/>
      <stop offset="1" stop-color="#dcdcdc"/>
    </linearGradient>
    <linearGradient id="linear-gradient-5" x1="5.629" y1="16.011" x2="12.549" y2="9.011" xlink:href="#linear-gradient-2"/>
    <linearGradient id="linear-gradient-6" x1="20.033" y1="15.982" x2="27.004" y2="8.982" xlink:href="#linear-gradient-2"/>
  </defs>
  <g id="g26">
    <rect id="rect22" x="33.954" y="26.752" width="10.549" height="10.549" rx="0.5" transform="translate(-7.234 11.881) rotate(-15.788)" fill="url(#linear-gradient)"/>
    <path id="path24" d="M35.939,38.935a1,1,0,0,1-.962-.728l-2.6-9.192a1,1,0,0,1,.691-1.234h0l9.193-2.6a1,1,0,0,1,1.234.691h0l2.6,9.192a1,1,0,0,1-.69,1.234h0l-9.191,2.6A.971.971,0,0,1,35.939,38.935Zm6.595-12.789-9.192,2.6,2.6,9.191,9.192-2.6.136.481-.135-.481h0Z" fill="#177491"/>
  </g>
  <g id="g32">
    <polygon id="polygon28" points="10.109 24.162 12.874 24.926 19.95 28.891 27.172 28.891 21.035 9.658 10.109 9.658 10.109 24.162" fill="url(#linear-gradient-2)"/>
    <path id="path30" d="M27.172,29.391H19.95a.5.5,0,0,1-.244-.063l-7.023-3.936-2.706-.748a.5.5,0,0,1-.368-.482V9.658a.5.5,0,0,1,.5-.5H21.035a.5.5,0,0,1,.477.348l6.136,19.233a.5.5,0,0,1-.324.628A.493.493,0,0,1,27.172,29.391Zm-7.091-1h6.406L20.67,10.158H10.609V23.782l2.4.662a.491.491,0,0,1,.111.046Z" fill="#464646"/>
  </g>
  <path id="path34" d="M29.267,28.877H27.172l-7.334-.039-6.932-3.9-2.8-.773H3.074L1.5,24.181v12.18H5.19a4.126,4.126,0,0,1,7.891,0h6.528a4.126,4.126,0,0,1,7.891,0h1.767Z" fill="url(#linear-gradient-3)"/>
  <path id="path36" d="M29.267,36.861H27.5a.5.5,0,0,1-.478-.35,3.625,3.625,0,0,0-6.935,0,.5.5,0,0,1-.478.35H13.081a.5.5,0,0,1-.477-.35,3.625,3.625,0,0,0-6.936,0,.5.5,0,0,1-.478.35H1.5a.5.5,0,0,1-.5-.5V24.181a.5.5,0,0,1,.494-.5l1.574-.019h7.041a.5.5,0,0,1,.133.018l2.8.773a.5.5,0,0,1,.112.047l6.819,3.84,9.3.037a.5.5,0,0,1,.5.5v7.484a.5.5,0,0,1-.5.5Zm-1.414-1h.914V29.377l-8.932-.038a.49.49,0,0,1-.242-.065L12.714,25.4l-2.672-.739L2,24.675V35.861H4.838a4.624,4.624,0,0,1,8.6,0h5.823a4.624,4.624,0,0,1,8.6,0Z" fill="#464646"/>
  <path id="path40" d="M34.689,40.805a.5.5,0,0,1-.481-.366L24.52,5.476a.5.5,0,0,1,.947-.322.494.494,0,0,1,.015.055l9.555,34.478,11.327-3.2a.5.5,0,1,1,.272.963h0L34.825,40.787A.48.48,0,0,1,34.689,40.805Z" fill="#464646"/>
  <g id="g46">
    <polygon id="polygon42" points="23.374 22.89 11.98 22.89 11.98 11.833 19.725 11.833 23.374 22.89" fill="url(#linear-gradient-4)"/>
    <path id="path44" d="M23.374,23.39H11.979a.5.5,0,0,1-.5-.5V11.833a.5.5,0,0,1,.5-.5h7.747a.5.5,0,0,1,.474.343l3.649,11.057a.5.5,0,0,1-.318.632A.521.521,0,0,1,23.374,23.39Zm-10.895-1h10.2L19.364,12.333H12.479Z" fill="#464646"/>
  </g>
  <path id="path50" d="M9.1,42a4.5,4.5,0,1,1,4.5-4.5v0A4.505,4.505,0,0,1,9.1,42Zm0-7.764A3.265,3.265,0,1,0,12.365,37.5h0A3.269,3.269,0,0,0,9.1,34.236Z" fill="#464646"/>
  <circle id="circle48" cx="9.1" cy="37.5" r="3.5" fill="url(#linear-gradient-5)"/>
  <path id="path56" d="M23.5,42A4.5,4.5,0,1,1,28,37.5v0A4.5,4.5,0,0,1,23.5,42Zm0-7.764A3.265,3.265,0,1,0,26.765,37.5v0A3.269,3.269,0,0,0,23.5,34.236Z" fill="#464646"/>
  <circle id="circle54" cx="23.5" cy="37.5" r="3.5" fill="url(#linear-gradient-6)"/>
</svg>
