<svg id="Layer_1" data-name="Layer 1" xmlns="http://www.w3.org/2000/svg" xmlns:xlink="http://www.w3.org/1999/xlink" viewBox="0 0 48 48">
  <defs>
    <linearGradient id="paper_gradient" data-name="paper gradient" x1="7.457" y1="-2.543" x2="44.457" y2="34.457" gradientUnits="userSpaceOnUse">
      <stop offset="0" stop-color="#fff"/>
      <stop offset="0.221" stop-color="#f8f8f8"/>
      <stop offset="0.541" stop-color="#e5e5e5"/>
      <stop offset="0.92" stop-color="#c6c6c6"/>
      <stop offset="1" stop-color="#bebebe"/>
    </linearGradient>
    <linearGradient id="paper_gradient-2" x1="1.957" y1="1.957" x2="11.957" y2="11.957" xlink:href="#paper_gradient"/>
    <linearGradient id="paper_gradient-3" x1="1.957" y1="11.957" x2="11.957" y2="21.957" xlink:href="#paper_gradient"/>
  </defs>
  <g>
    <rect x="4.457" y="0.457" width="43" height="31" stroke="#464646" stroke-miterlimit="10" stroke-width="0.913" fill="url(#paper_gradient)"/>
    <rect x="0.457" y="3.457" width="13" height="7" stroke="#464646" stroke-miterlimit="10" stroke-width="0.913" fill="url(#paper_gradient-2)"/>
    <rect x="0.457" y="13.457" width="13" height="7" stroke="#464646" stroke-miterlimit="10" stroke-width="0.913" fill="url(#paper_gradient-3)"/>
  </g>
  <path d="M22.445,17.65a21.171,21.171,0,0,1,3.506-.273,5.812,5.812,0,0,1,3.968,1.176,3.805,3.805,0,0,1,1.239,2.961,4.166,4.166,0,0,1-1.092,3.023,5.86,5.86,0,0,1-4.325,1.554,6.275,6.275,0,0,1-1.469-.126v5.669H22.445Zm1.827,6.824a6.124,6.124,0,0,0,1.511.147c2.2,0,3.548-1.071,3.548-3.023,0-1.869-1.322-2.772-3.338-2.772a7.656,7.656,0,0,0-1.721.147Z" transform="translate(-0.043 -8.043)" class="aw-theme-iconOutline" fill="#464646" stroke="#464646" stroke-miterlimit="10" stroke-width="0.913"/>
</svg>
