<svg id="Layer_1" data-name="Layer 1" xmlns="http://www.w3.org/2000/svg" xmlns:xlink="http://www.w3.org/1999/xlink" viewBox="0 0 48 48">
    <linearGradient id="paper_gradient" data-name="paper gradient" x1="2.086" y1="5.086" x2="43.5" y2="46.5" gradientUnits="userSpaceOnUse">
      <stop offset="0" stop-color="#fff"/>
      <stop offset="0.221" stop-color="#f8f8f8"/>
      <stop offset="0.541" stop-color="#e5e5e5"/>
      <stop offset="0.92" stop-color="#c6c6c6"/>
      <stop offset="1" stop-color="#bebebe"/>
    </linearGradient>
    <linearGradient id="Dark_Blue_Grad" data-name="Dark Blue Grad" x1="22.556" y1="14.533" x2="32.442" y2="24.42" gradientUnits="userSpaceOnUse">
      <stop offset="0" stop-color="#73b4c8"/>
      <stop offset="0.175" stop-color="#6aaec3"/>
      <stop offset="0.457" stop-color="#529eb5"/>
      <stop offset="0.809" stop-color="#2c839f"/>
      <stop offset="1" stop-color="#147391"/>
    </linearGradient>
    <linearGradient id="Dark_Blue_Grad-2" x1="12.807" y1="22.53" x2="18.449" y2="35.011" gradientTransform="matrix(0.936, -0.353, 0.353, 0.936, -9.289, 8.079)" xlink:href="#Dark_Blue_Grad"/>
    <linearGradient id="Dark_Blue_Grad-3" x1="25.556" y1="29.534" x2="35.442" y2="39.421" xlink:href="#Dark_Blue_Grad"/>
    <linearGradient id="paper_gradient-2" x1="26.086" y1="18.086" x2="28.913" y2="20.913" xlink:href="#paper_gradient"/>
    <linearGradient id="paper_gradient-3" x1="29.086" y1="33.086" x2="31.913" y2="35.914" xlink:href="#paper_gradient"/>
    <linearGradient id="paper_gradient-4" x1="14.805" y1="26.971" x2="16.452" y2="30.616" gradientTransform="translate(-0.129 0.706)" xlink:href="#paper_gradient"/>
  <path d="M1.5,43.5h45v-33h-27L16.094,5.391A2,2,0,0,0,14.43,4.5H3.5a2,2,0,0,0-2,2Z" stroke="#464646" stroke-miterlimit="10" fill="url(#paper_gradient)"/>
  <path d="M32.161,21.18l2.339-.83V18.6l-2.339-.83A.278.278,0,0,1,32,17.388l1.063-2.237-1.236-1.235L29.587,14.98a.28.28,0,0,1-.384-.154l-.83-2.327H26.626l-.83,2.327a.284.284,0,0,1-.384.152l-2.237-1.064-1.236,1.236L23,17.388a.281.281,0,0,1-.163.384L20.5,18.6v1.747l2.339.83a.278.278,0,0,1,.164.384L21.939,23.8l1.236,1.237,2.237-1.061a.281.281,0,0,1,.384.171l.83,2.351h1.748l.83-2.35a.273.273,0,0,1,.384-.176l2.237,1.063L33.061,23.8,32,21.563A.28.28,0,0,1,32.161,21.18Z" stroke="#147391" stroke-linecap="round" stroke-linejoin="round" fill="url(#Dark_Blue_Grad)"/>
  <path d="M20.454,29.426l1.9-1.6-.617-1.635-2.481.049a.278.278,0,0,1-.289-.3l.205-2.468-1.592-.719-1.717,1.786a.28.28,0,0,1-.414-.008l-1.6-1.884-1.635.617.045,2.47a.284.284,0,0,1-.306.278l-2.469-.2L8.761,27.4l1.784,1.718a.281.281,0,0,1-.017.417l-1.895,1.6.617,1.635,2.481-.049a.278.278,0,0,1,.289.3l-.2,2.469,1.593.721,1.718-1.783a.281.281,0,0,1,.42.025l1.607,1.906,1.635-.617-.053-2.492a.273.273,0,0,1,.3-.3l2.469.2.72-1.592-1.784-1.718A.28.28,0,0,1,20.454,29.426Z" stroke="#147391" stroke-linecap="round" stroke-linejoin="round" fill="url(#Dark_Blue_Grad-2)"/>
  <path d="M35.161,36.181l2.339-.83V33.6l-2.339-.83A.278.278,0,0,1,35,32.389l1.063-2.237-1.236-1.235-2.237,1.064a.28.28,0,0,1-.384-.154l-.83-2.327H29.626l-.83,2.327a.284.284,0,0,1-.384.152l-2.237-1.064-1.236,1.236L26,32.389a.281.281,0,0,1-.163.384L23.5,33.6V35.35l2.339.83a.278.278,0,0,1,.164.384L24.939,38.8l1.236,1.237,2.237-1.061a.281.281,0,0,1,.384.171l.83,2.351h1.748l.83-2.35a.273.273,0,0,1,.384-.176l2.237,1.063L36.061,38.8,35,36.564A.28.28,0,0,1,35.161,36.181Z" stroke="#147391" stroke-linecap="round" stroke-linejoin="round" fill="url(#Dark_Blue_Grad-3)"/>
  <circle cx="27.499" cy="19.499" r="2" stroke="#147391" stroke-linecap="round" stroke-miterlimit="10" fill="url(#paper_gradient-2)"/>
  <circle cx="30.5" cy="34.5" r="2" stroke="#147391" stroke-linecap="round" stroke-miterlimit="10" fill="url(#paper_gradient-3)"/>
  <circle cx="15.5" cy="29.5" r="2" transform="translate(-9.418 7.373) rotate(-20.677)" stroke="#147391" stroke-linecap="round" stroke-miterlimit="10" fill="url(#paper_gradient-4)"/>
</svg>
