<svg version="1.1" id="Layer_1" xmlns="http://www.w3.org/2000/svg" xmlns:xlink="http://www.w3.org/1999/xlink" x="0px" y="0px"
	 viewBox="0 0 48 48" enable-background="new 0 0 48 48" xml:space="preserve">
<polygon fill="#888888" points="23.5,32.4 23.5,44.5 34.5,37.9 34.5,25.8 "/>
<polygon fill="#888888" points="12.5,13.7 12.5,25.8 23.5,19.2 23.5,7.1 "/>
<linearGradient id="SVGID_1_" gradientUnits="userSpaceOnUse" x1="18" y1="20.3" x2="29" y2="31.3">
	<stop  offset="0" style="stop-color:#FFFFFF"/>
	<stop  offset="0.2214" style="stop-color:#F8F8F8"/>
	<stop  offset="0.5415" style="stop-color:#E5E5E5"/>
	<stop  offset="0.92" style="stop-color:#C6C6C6"/>
	<stop  offset="1" style="stop-color:#BEBEBE"/>
</linearGradient>
<polygon fill="url(#SVGID_1_)" points="34.5,25.8 23.5,32.4 12.5,25.8 23.5,19.2 "/>
<linearGradient id="SVGID_2_" gradientUnits="userSpaceOnUse" x1="-3.45" y1="12.05" x2="26.25" y2="41.75">
	<stop  offset="0" style="stop-color:#F2F2F2"/>
	<stop  offset="0.5" style="stop-color:#CCCCCC"/>
	<stop  offset="0.6296" style="stop-color:#C7C7C7"/>
	<stop  offset="0.7792" style="stop-color:#B9B9B9"/>
	<stop  offset="0.9383" style="stop-color:#A2A2A2"/>
	<stop  offset="0.99" style="stop-color:#999999"/>
</linearGradient>
<polygon fill="url(#SVGID_2_)" points="12.5,25.8 12.5,13.7 1.5,7.1 1.5,31.3 23.5,44.5 23.5,32.4 "/>
	<line fill="none" stroke="#6E6E6E" stroke-linejoin="round" stroke-miterlimit="10" x1="12.5" y1="25.8" x2="1.5" y2="19.2"/>
	<line fill="none" stroke="#6E6E6E" stroke-linejoin="round" stroke-miterlimit="10" x1="23.5" y1="32.4" x2="23.5" y2="44.5"/>
<line fill="none" stroke="#6E6E6E" stroke-linejoin="round" stroke-miterlimit="10" x1="12.5" y1="37.9" x2="12.5" y2="13.7"/>
<linearGradient id="SVGID_3_" gradientUnits="userSpaceOnUse" x1="7" y1="1.6" x2="18" y2="12.6">
	<stop  offset="0" style="stop-color:#FFFFFF"/>
	<stop  offset="0.2214" style="stop-color:#F8F8F8"/>
	<stop  offset="0.5415" style="stop-color:#E5E5E5"/>
	<stop  offset="0.92" style="stop-color:#C6C6C6"/>
	<stop  offset="1" style="stop-color:#BEBEBE"/>
</linearGradient>
<polygon fill="url(#SVGID_3_)" points="1.5,7.1 12.5,0.5 23.5,7.1 12.5,13.7 "/>
<polyline fill="none" stroke="#6E6E6E" stroke-miterlimit="10" points="23.5,7.1 12.5,13.7 1.5,7.1 "/>
<polyline fill="none" stroke="#6E6E6E" stroke-miterlimit="10" points="34.5,25.8 23.5,32.4 12.5,25.8 23.5,19.2 "/>
<path fill="none" stroke="#464646" stroke-linejoin="round" stroke-miterlimit="10" d="M23.5,19.2V7.1l-11-6.6l-11,6.6l0,24.2
	l22,13.2l11-6.6V25.8L23.5,19.2z"/>
<linearGradient id="SVGID_4_" gradientUnits="userSpaceOnUse" x1="26.1612" y1="26.1611" x2="43.8388" y2="43.8388">
	<stop  offset="0" style="stop-color:#C8C8C8"/>
	<stop  offset="0.1747" style="stop-color:#C3C3C3"/>
	<stop  offset="0.4567" style="stop-color:#B5B5B5"/>
	<stop  offset="0.8089" style="stop-color:#9F9F9F"/>
	<stop  offset="1" style="stop-color:#919191"/>
</linearGradient>
<circle fill="url(#SVGID_4_)" stroke="#464646" stroke-linecap="round" stroke-linejoin="round" stroke-miterlimit="10" cx="35" cy="35" r="12.5"/>
	<polygon fill="#FFFFFF" points="26.452,30.324 29.044,28.812 35,39.023 40.956,28.812 43.548,30.324 35,44.977 	"/>
	<path fill="#919191" d="M41.136,29.496l1.729,1.008L35,43.985l-7.864-13.481l1.729-1.008L35,40.015L41.136,29.496 M40.776,28.129
		l-0.504,0.864L35,38.03l-5.272-9.038l-0.504-0.864l-0.864,0.504l-1.729,1.008l-0.864,0.504l0.504,0.864l7.864,13.481L35,45.969
		l0.864-1.481l7.864-13.481l0.504-0.864l-0.864-0.504l-1.729-1.008L40.776,28.129L40.776,28.129z"/>
</svg>
