<svg id="Layer_1" data-name="Layer 1" xmlns="http://www.w3.org/2000/svg" xmlns:xlink="http://www.w3.org/1999/xlink" viewBox="0 0 48 48">
    <linearGradient id="New_Gradient_Swatch_4" data-name="New Gradient Swatch 4" x1="-2.0064" y1="3.0064" x2="35.9936" y2="41.0064" gradientUnits="userSpaceOnUse">
      <stop offset="0" stop-color="#fff"/>
      <stop offset="0.2284" stop-color="#fafafa"/>
      <stop offset="0.4881" stop-color="#ededed"/>
      <stop offset="0.7621" stop-color="#d7d6d6"/>
      <stop offset="1" stop-color="#bdbcbc"/>
    </linearGradient>
    <linearGradient id="front_-45" data-name="front -45" x1="-9.25" y1="10.25" x2="14.25" y2="33.75" gradientUnits="userSpaceOnUse">
      <stop offset="0" stop-color="#f2f2f2"/>
      <stop offset="0.5" stop-color="#ccc"/>
      <stop offset="0.6296" stop-color="#c7c7c7"/>
      <stop offset="0.7792" stop-color="#b9b9b9"/>
      <stop offset="0.9383" stop-color="#a2a2a2"/>
      <stop offset="0.99" stop-color="#999"/>
    </linearGradient>
    <linearGradient id="Dark_Blue_Grad" data-name="Dark Blue Grad" x1="25.3078" y1="25.3078" x2="43.6925" y2="43.6925" gradientUnits="userSpaceOnUse">
      <stop offset="0" stop-color="#73b4c8"/>
      <stop offset="0.1747" stop-color="#6aaec3"/>
      <stop offset="0.4567" stop-color="#529eb5"/>
      <stop offset="0.8089" stop-color="#2c839f"/>
      <stop offset="1" stop-color="#147391"/>
    </linearGradient>
  <polygon points="33.5 43.5 0.5 43.5 0.5 0.5 33.474 0.5 33.5 43.5" fill="url(#New_Gradient_Swatch_4)"/>
  <rect x="0.5" y="0.5" width="4" height="43" stroke="#6e6e6e" stroke-miterlimit="10" fill="url(#front_-45)"/>
  <rect x="9.5" y="8.5" width="19" height="9" rx="1" fill="#fff" stroke="#6e6e6e"/>
  <line x1="23" y1="14.5" x2="12" y2="14.5" fill="none" stroke="#6e6e6e"/>
  <line x1="25" y1="11.5" x2="12" y2="11.5" fill="none" stroke="#6e6e6e"/>
  <polygon points="33.5 43.5 0.5 43.5 0.5 0.5 33.474 0.5 33.5 43.5" fill="none" stroke="#464646" stroke-miterlimit="10" stroke-width="0.9996"/>
    <path d="M14.9008,33.7418a6.3566,6.3566,0,0,0,3.68,1.5264,3.0609,3.0609,0,0,0,3.239-2.8423c-.0029-1.5667-1.5552-2.3388-3.25-2.83-1.756-.5468-3.2467-1.2641-3.2495-2.8306A3.0608,3.0608,0,0,1,18.56,23.9224a3.3482,3.3482,0,0,1,2.821,1.425" fill="none" stroke="#464646" stroke-linecap="round" stroke-linejoin="round" stroke-width="4"/>
    <line x1="18.5" y1="19.9999" x2="18.5" y2="24.1" fill="none" stroke="#464646" stroke-linejoin="round" stroke-width="3"/>
    <line x1="18.5" y1="34.9" x2="18.5" y2="39.0001" fill="none" stroke="#464646" stroke-linejoin="round" stroke-width="3"/>
    <path d="M14.9008,33.7418a6.3566,6.3566,0,0,0,3.68,1.5264,3.0609,3.0609,0,0,0,3.239-2.8423c-.0029-1.5667-1.5552-2.3388-3.25-2.83-1.756-.5468-3.2467-1.2641-3.2495-2.8306A3.0608,3.0608,0,0,1,18.56,23.9224a3.3482,3.3482,0,0,1,2.821,1.425" fill="none" stroke="#fff" stroke-linecap="round" stroke-linejoin="round" stroke-width="2"/>
    <line x1="18.5" y1="20.9999" x2="18.5" y2="24.1" fill="none" stroke="#fff" stroke-linejoin="round"/>
    <line x1="18.5" y1="34.9" x2="18.5" y2="38.0001" fill="none" stroke="#fff" stroke-linejoin="round"/>
    <circle cx="34.5002" cy="34.5002" r="13" stroke="#464646" stroke-miterlimit="10" fill="url(#Dark_Blue_Grad)"/>
    <circle cx="34.5" cy="34.5" r="8" fill="none" stroke="#fff" stroke-linecap="square" stroke-linejoin="round"/>
    <line x1="34.5" y1="24" x2="34.5" y2="32" fill="none" stroke="#fff" stroke-linejoin="round"/>
    <line x1="34.5" y1="37" x2="34.5" y2="45" fill="none" stroke="#fff" stroke-linejoin="round"/>
    <line x1="37" y1="34.5" x2="45" y2="34.5" fill="none" stroke="#fff" stroke-linejoin="round"/>
    <line x1="24" y1="34.5" x2="32" y2="34.5" fill="none" stroke="#fff" stroke-linejoin="round"/>
</svg>
