<svg id="Layer_1" data-name="Layer 1" xmlns="http://www.w3.org/2000/svg" xmlns:xlink="http://www.w3.org/1999/xlink" viewBox="0 0 48 48">
    <linearGradient id="New_Gradient_Swatch_4" data-name="New Gradient Swatch 4" x1="22.5" y1="2.5" x2="24.5" y2="4.5" gradientUnits="userSpaceOnUse">
      <stop offset="0" stop-color="#afd7e1"/>
      <stop offset="0.159" stop-color="#a4d0dc"/>
      <stop offset="0.706" stop-color="#80bcce"/>
      <stop offset="1" stop-color="#73b4c8"/>
    </linearGradient>
    <linearGradient id="New_Gradient_Swatch_4-2" x1="26.5" x2="28.5" y2="4.5" xlink:href="#New_Gradient_Swatch_4"/>
    <linearGradient id="New_Gradient_Swatch_4-3" x1="30.5" x2="32.5" y2="4.5" xlink:href="#New_Gradient_Swatch_4"/>
    <linearGradient id="New_Gradient_Swatch_4-4" x1="22.5" y1="6.5" x2="24.5" y2="8.5" xlink:href="#New_Gradient_Swatch_4"/>
    <linearGradient id="New_Gradient_Swatch_4-5" x1="26.5" y1="6.5" x2="28.5" y2="8.5" xlink:href="#New_Gradient_Swatch_4"/>
    <linearGradient id="New_Gradient_Swatch_4-6" x1="30.5" y1="6.5" x2="32.5" y2="8.5" xlink:href="#New_Gradient_Swatch_4"/>
    <linearGradient id="New_Gradient_Swatch_4-7" x1="34.5" y1="6.5" x2="36.5" y2="8.5" xlink:href="#New_Gradient_Swatch_4"/>
    <linearGradient id="New_Gradient_Swatch_4-8" x1="22.5" y1="10.5" x2="24.5" y2="12.5" xlink:href="#New_Gradient_Swatch_4"/>
    <linearGradient id="New_Gradient_Swatch_4-9" x1="26.5" y1="10.5" x2="28.5" y2="12.5" xlink:href="#New_Gradient_Swatch_4"/>
    <linearGradient id="New_Gradient_Swatch_4-10" x1="30.5" y1="10.5" x2="32.5" y2="12.5" xlink:href="#New_Gradient_Swatch_4"/>
    <linearGradient id="New_Gradient_Swatch_4-11" x1="34.5" y1="10.5" x2="36.5" y2="12.5" xlink:href="#New_Gradient_Swatch_4"/>
    <linearGradient id="New_Gradient_Swatch_4-12" x1="38.5" y1="10.5" x2="40.5" y2="12.5" xlink:href="#New_Gradient_Swatch_4"/>
    <linearGradient id="New_Gradient_Swatch_4-13" x1="38.5" y1="14.5" x2="40.5" y2="16.5" xlink:href="#New_Gradient_Swatch_4"/>
    <linearGradient id="New_Gradient_Swatch_4-14" x1="42.5" y1="14.5" x2="44.5" y2="16.5" xlink:href="#New_Gradient_Swatch_4"/>
    <linearGradient id="New_Gradient_Swatch_4-15" x1="22.5" y1="14.5" x2="24.5" y2="16.5" xlink:href="#New_Gradient_Swatch_4"/>
    <linearGradient id="New_Gradient_Swatch_4-16" x1="26.5" y1="14.5" x2="28.5" y2="16.5" xlink:href="#New_Gradient_Swatch_4"/>
    <linearGradient id="New_Gradient_Swatch_4-17" x1="30.5" y1="14.5" x2="32.5" y2="16.5" xlink:href="#New_Gradient_Swatch_4"/>
    <linearGradient id="New_Gradient_Swatch_4-18" x1="34.5" y1="14.5" x2="36.5" y2="16.5" xlink:href="#New_Gradient_Swatch_4"/>
    <linearGradient id="New_Gradient_Swatch_4-19" x1="22.5" y1="18.5" x2="24.5" y2="20.5" xlink:href="#New_Gradient_Swatch_4"/>
    <linearGradient id="New_Gradient_Swatch_4-20" x1="26.5" y1="18.5" x2="28.5" y2="20.5" xlink:href="#New_Gradient_Swatch_4"/>
    <linearGradient id="New_Gradient_Swatch_4-21" x1="30.5" y1="18.5" x2="32.5" y2="20.5" xlink:href="#New_Gradient_Swatch_4"/>
    <linearGradient id="New_Gradient_Swatch_4-22" x1="34.5" y1="18.5" x2="36.5" y2="20.5" xlink:href="#New_Gradient_Swatch_4"/>
    <linearGradient id="New_Gradient_Swatch_4-23" x1="38.5" y1="18.5" x2="40.5" y2="20.5" xlink:href="#New_Gradient_Swatch_4"/>
    <linearGradient id="New_Gradient_Swatch_4-24" x1="42.5" y1="18.5" x2="44.5" y2="20.5" xlink:href="#New_Gradient_Swatch_4"/>
    <linearGradient id="New_Gradient_Swatch_4-25" x1="22.5" y1="22.5" x2="24.5" y2="24.5" xlink:href="#New_Gradient_Swatch_4"/>
    <linearGradient id="New_Gradient_Swatch_4-26" x1="26.5" y1="22.5" x2="28.5" y2="24.5" xlink:href="#New_Gradient_Swatch_4"/>
    <linearGradient id="New_Gradient_Swatch_4-27" x1="30.5" y1="22.5" x2="32.5" y2="24.5" xlink:href="#New_Gradient_Swatch_4"/>
    <linearGradient id="New_Gradient_Swatch_4-28" x1="34.5" y1="22.5" x2="36.5" y2="24.5" xlink:href="#New_Gradient_Swatch_4"/>
    <linearGradient id="New_Gradient_Swatch_4-29" x1="38.5" y1="22.5" x2="40.5" y2="24.5" xlink:href="#New_Gradient_Swatch_4"/>
    <linearGradient id="New_Gradient_Swatch_4-30" x1="42.5" y1="22.5" x2="44.5" y2="24.5" xlink:href="#New_Gradient_Swatch_4"/>
    <linearGradient id="New_Gradient_Swatch_4-31" x1="22.5" y1="26.5" x2="24.5" y2="28.5" xlink:href="#New_Gradient_Swatch_4"/>
    <linearGradient id="New_Gradient_Swatch_4-32" x1="26.5" y1="26.5" x2="28.5" y2="28.5" xlink:href="#New_Gradient_Swatch_4"/>
    <linearGradient id="New_Gradient_Swatch_4-33" x1="30.5" y1="26.5" x2="32.5" y2="28.5" xlink:href="#New_Gradient_Swatch_4"/>
    <linearGradient id="New_Gradient_Swatch_4-34" x1="34.5" y1="26.5" x2="36.5" y2="28.5" xlink:href="#New_Gradient_Swatch_4"/>
    <linearGradient id="New_Gradient_Swatch_4-35" x1="38.5" y1="26.5" x2="40.5" y2="28.5" xlink:href="#New_Gradient_Swatch_4"/>
    <linearGradient id="New_Gradient_Swatch_4-36" x1="42.5" y1="26.5" x2="44.5" y2="28.5" xlink:href="#New_Gradient_Swatch_4"/>
    <linearGradient id="New_Gradient_Swatch_4-37" x1="22.5" y1="30.5" x2="24.5" y2="32.5" xlink:href="#New_Gradient_Swatch_4"/>
    <linearGradient id="New_Gradient_Swatch_4-38" x1="26.5" y1="30.5" x2="28.5" y2="32.5" xlink:href="#New_Gradient_Swatch_4"/>
    <linearGradient id="New_Gradient_Swatch_4-39" x1="30.5" y1="30.5" x2="32.5" y2="32.5" xlink:href="#New_Gradient_Swatch_4"/>
    <linearGradient id="New_Gradient_Swatch_4-40" x1="34.5" y1="30.5" x2="36.5" y2="32.5" xlink:href="#New_Gradient_Swatch_4"/>
    <linearGradient id="New_Gradient_Swatch_4-41" x1="38.5" y1="30.5" x2="40.5" y2="32.5" xlink:href="#New_Gradient_Swatch_4"/>
    <linearGradient id="New_Gradient_Swatch_4-42" x1="42.5" y1="30.5" x2="44.5" y2="32.5" xlink:href="#New_Gradient_Swatch_4"/>
    <linearGradient id="New_Gradient_Swatch_4-43" x1="2.5" y1="14.5" x2="4.5" y2="16.5" xlink:href="#New_Gradient_Swatch_4"/>
    <linearGradient id="New_Gradient_Swatch_4-44" x1="2.5" y1="18.5" x2="4.5" y2="20.5" xlink:href="#New_Gradient_Swatch_4"/>
    <linearGradient id="New_Gradient_Swatch_4-45" x1="2.5" y1="22.5" x2="4.5" y2="24.5" xlink:href="#New_Gradient_Swatch_4"/>
    <linearGradient id="New_Gradient_Swatch_4-46" x1="2.5" y1="26.5" x2="4.5" y2="28.5" xlink:href="#New_Gradient_Swatch_4"/>
    <linearGradient id="New_Gradient_Swatch_4-47" x1="2.5" y1="30.5" x2="4.5" y2="32.5" xlink:href="#New_Gradient_Swatch_4"/>
    <linearGradient id="New_Gradient_Swatch_4-48" x1="22.5" y1="34.5" x2="24.5" y2="36.5" xlink:href="#New_Gradient_Swatch_4"/>
    <linearGradient id="New_Gradient_Swatch_4-49" x1="26.5" y1="34.5" x2="28.5" y2="36.5" xlink:href="#New_Gradient_Swatch_4"/>
    <linearGradient id="New_Gradient_Swatch_4-50" x1="30.5" y1="34.5" x2="32.5" y2="36.5" xlink:href="#New_Gradient_Swatch_4"/>
    <linearGradient id="New_Gradient_Swatch_4-51" x1="34.5" y1="34.5" x2="36.5" y2="36.5" xlink:href="#New_Gradient_Swatch_4"/>
    <linearGradient id="New_Gradient_Swatch_4-52" x1="38.5" y1="34.5" x2="40.5" y2="36.5" xlink:href="#New_Gradient_Swatch_4"/>
    <linearGradient id="New_Gradient_Swatch_4-53" x1="6.5" y1="10.5" x2="8.5" y2="12.5" xlink:href="#New_Gradient_Swatch_4"/>
    <linearGradient id="New_Gradient_Swatch_4-54" x1="6.5" y1="14.5" x2="8.5" y2="16.5" xlink:href="#New_Gradient_Swatch_4"/>
    <linearGradient id="New_Gradient_Swatch_4-55" x1="6.5" y1="18.5" x2="8.5" y2="20.5" xlink:href="#New_Gradient_Swatch_4"/>
    <linearGradient id="New_Gradient_Swatch_4-56" x1="6.5" y1="22.5" x2="8.5" y2="24.5" xlink:href="#New_Gradient_Swatch_4"/>
    <linearGradient id="New_Gradient_Swatch_4-57" x1="6.5" y1="26.5" x2="8.5" y2="28.5" xlink:href="#New_Gradient_Swatch_4"/>
    <linearGradient id="New_Gradient_Swatch_4-58" x1="6.5" y1="30.5" x2="8.5" y2="32.5" xlink:href="#New_Gradient_Swatch_4"/>
    <linearGradient id="New_Gradient_Swatch_4-59" x1="6.5" y1="34.5" x2="8.5" y2="36.5" xlink:href="#New_Gradient_Swatch_4"/>
    <linearGradient id="New_Gradient_Swatch_4-60" x1="22.5" y1="38.5" x2="24.5" y2="40.5" xlink:href="#New_Gradient_Swatch_4"/>
    <linearGradient id="New_Gradient_Swatch_4-61" x1="26.5" y1="38.5" x2="28.5" y2="40.5" xlink:href="#New_Gradient_Swatch_4"/>
    <linearGradient id="New_Gradient_Swatch_4-62" x1="30.5" y1="38.5" x2="32.5" y2="40.5" xlink:href="#New_Gradient_Swatch_4"/>
    <linearGradient id="New_Gradient_Swatch_4-63" x1="34.5" y1="38.5" x2="36.5" y2="40.5" xlink:href="#New_Gradient_Swatch_4"/>
    <linearGradient id="New_Gradient_Swatch_4-64" x1="10.5" y1="6.5" x2="12.5" y2="8.5" xlink:href="#New_Gradient_Swatch_4"/>
    <linearGradient id="New_Gradient_Swatch_4-65" x1="10.5" y1="10.5" x2="12.5" y2="12.5" xlink:href="#New_Gradient_Swatch_4"/>
    <linearGradient id="New_Gradient_Swatch_4-66" x1="10.5" y1="14.5" x2="12.5" y2="16.5" xlink:href="#New_Gradient_Swatch_4"/>
    <linearGradient id="New_Gradient_Swatch_4-67" x1="10.5" y1="18.5" x2="12.5" y2="20.5" xlink:href="#New_Gradient_Swatch_4"/>
    <linearGradient id="New_Gradient_Swatch_4-68" x1="10.5" y1="22.5" x2="12.5" y2="24.5" xlink:href="#New_Gradient_Swatch_4"/>
    <linearGradient id="New_Gradient_Swatch_4-69" x1="10.5" y1="26.5" x2="12.5" y2="28.5" xlink:href="#New_Gradient_Swatch_4"/>
    <linearGradient id="New_Gradient_Swatch_4-70" x1="10.5" y1="30.5" x2="12.5" y2="32.5" xlink:href="#New_Gradient_Swatch_4"/>
    <linearGradient id="New_Gradient_Swatch_4-71" x1="10.5" y1="34.5" x2="12.5" y2="36.5" xlink:href="#New_Gradient_Swatch_4"/>
    <linearGradient id="New_Gradient_Swatch_4-72" x1="10.5" y1="38.5" x2="12.5" y2="40.5" xlink:href="#New_Gradient_Swatch_4"/>
    <linearGradient id="New_Gradient_Swatch_4-73" x1="22.5" y1="42.5" x2="24.5" y2="44.5" xlink:href="#New_Gradient_Swatch_4"/>
    <linearGradient id="New_Gradient_Swatch_4-74" x1="26.5" y1="42.5" x2="28.5" y2="44.5" xlink:href="#New_Gradient_Swatch_4"/>
    <linearGradient id="New_Gradient_Swatch_4-75" x1="14.5" x2="16.5" y2="4.5" xlink:href="#New_Gradient_Swatch_4"/>
    <linearGradient id="New_Gradient_Swatch_4-76" x1="18.5" x2="20.5" y2="4.5" xlink:href="#New_Gradient_Swatch_4"/>
    <linearGradient id="New_Gradient_Swatch_4-77" x1="14.5" y1="6.5" x2="16.5" y2="8.5" xlink:href="#New_Gradient_Swatch_4"/>
    <linearGradient id="New_Gradient_Swatch_4-78" x1="18.5" y1="6.5" x2="20.5" y2="8.5" xlink:href="#New_Gradient_Swatch_4"/>
    <linearGradient id="New_Gradient_Swatch_4-79" x1="14.5" y1="10.5" x2="16.5" y2="12.5" xlink:href="#New_Gradient_Swatch_4"/>
    <linearGradient id="New_Gradient_Swatch_4-80" x1="18.5" y1="10.5" x2="20.5" y2="12.5" xlink:href="#New_Gradient_Swatch_4"/>
    <linearGradient id="New_Gradient_Swatch_4-81" x1="14.5" y1="14.5" x2="16.5" y2="16.5" xlink:href="#New_Gradient_Swatch_4"/>
    <linearGradient id="New_Gradient_Swatch_4-82" x1="18.5" y1="14.5" x2="20.5" y2="16.5" xlink:href="#New_Gradient_Swatch_4"/>
    <linearGradient id="New_Gradient_Swatch_4-83" x1="14.5" y1="18.5" x2="16.5" y2="20.5" xlink:href="#New_Gradient_Swatch_4"/>
    <linearGradient id="New_Gradient_Swatch_4-84" x1="18.5" y1="18.5" x2="20.5" y2="20.5" xlink:href="#New_Gradient_Swatch_4"/>
    <linearGradient id="New_Gradient_Swatch_4-85" x1="14.5" y1="22.5" x2="16.5" y2="24.5" xlink:href="#New_Gradient_Swatch_4"/>
    <linearGradient id="New_Gradient_Swatch_4-86" x1="18.5" y1="22.5" x2="20.5" y2="24.5" xlink:href="#New_Gradient_Swatch_4"/>
    <linearGradient id="New_Gradient_Swatch_4-87" x1="14.5" y1="26.5" x2="16.5" y2="28.5" xlink:href="#New_Gradient_Swatch_4"/>
    <linearGradient id="New_Gradient_Swatch_4-88" x1="18.5" y1="26.5" x2="20.5" y2="28.5" xlink:href="#New_Gradient_Swatch_4"/>
    <linearGradient id="New_Gradient_Swatch_4-89" x1="14.5" y1="30.5" x2="16.5" y2="32.5" xlink:href="#New_Gradient_Swatch_4"/>
    <linearGradient id="New_Gradient_Swatch_4-90" x1="18.5" y1="30.5" x2="20.5" y2="32.5" xlink:href="#New_Gradient_Swatch_4"/>
    <linearGradient id="New_Gradient_Swatch_4-91" x1="14.5" y1="34.5" x2="16.5" y2="36.5" xlink:href="#New_Gradient_Swatch_4"/>
    <linearGradient id="New_Gradient_Swatch_4-92" x1="18.5" y1="34.5" x2="20.5" y2="36.5" xlink:href="#New_Gradient_Swatch_4"/>
    <linearGradient id="New_Gradient_Swatch_4-93" x1="14.5" y1="38.5" x2="16.5" y2="40.5" xlink:href="#New_Gradient_Swatch_4"/>
    <linearGradient id="New_Gradient_Swatch_4-94" x1="18.5" y1="38.5" x2="20.5" y2="40.5" xlink:href="#New_Gradient_Swatch_4"/>
    <linearGradient id="New_Gradient_Swatch_4-95" x1="14.5" y1="42.5" x2="16.5" y2="44.5" xlink:href="#New_Gradient_Swatch_4"/>
    <linearGradient id="New_Gradient_Swatch_4-96" x1="18.5" y1="42.5" x2="20.5" y2="44.5" xlink:href="#New_Gradient_Swatch_4"/>
    <linearGradient id="New_Gradient_Swatch_4-97" x1="30.5" y1="42.5" x2="32.5" y2="44.5" xlink:href="#New_Gradient_Swatch_4"/>      
	<rect x="22.5" y="2.5" width="2" height="2" fill="url(#New_Gradient_Swatch_4)"/>
      <path d="M24,3V4H23V3h1m1-1H22V5h3V2Z" fill="#147391"/>
      <rect x="26.5" y="2.5" width="2" height="2" fill="url(#New_Gradient_Swatch_4-2)"/>
      <path d="M28,3V4H27V3h1m1-1H26V5h3V2Z" fill="#147391"/>
      <rect x="30.5" y="2.5" width="2" height="2" fill="url(#New_Gradient_Swatch_4-3)"/>
      <path d="M32,3V4H31V3h1m1-1H30V5h3V2Z" fill="#147391"/>
      <rect x="22.5" y="6.5" width="2" height="2" fill="url(#New_Gradient_Swatch_4-4)"/>
      <path d="M24,7V8H23V7h1m1-1H22V9h3V6Z" fill="#147391"/>
      <rect x="26.5" y="6.5" width="2" height="2" fill="url(#New_Gradient_Swatch_4-5)"/>
      <path d="M28,7V8H27V7h1m1-1H26V9h3V6Z" fill="#147391"/>
      <rect x="30.5" y="6.5" width="2" height="2" fill="url(#New_Gradient_Swatch_4-6)"/>
      <path d="M32,7V8H31V7h1m1-1H30V9h3V6Z" fill="#147391"/>
      <rect x="34.5" y="6.5" width="2" height="2" fill="url(#New_Gradient_Swatch_4-7)"/>
      <path d="M36,7V8H35V7h1m1-1H34V9h3V6Z" fill="#147391"/>
      <rect x="22.5" y="10.5" width="2" height="2" fill="url(#New_Gradient_Swatch_4-8)"/>
      <path d="M24,11v1H23V11h1m1-1H22v3h3V10Z" fill="#147391"/>
      <rect x="26.5" y="10.5" width="2" height="2" fill="url(#New_Gradient_Swatch_4-9)"/>
      <path d="M28,11v1H27V11h1m1-1H26v3h3V10Z" fill="#147391"/>
      <rect x="30.5" y="10.5" width="2" height="2" fill="url(#New_Gradient_Swatch_4-10)"/>
      <path d="M32,11v1H31V11h1m1-1H30v3h3V10Z" fill="#147391"/>
      <rect x="34.5" y="10.5" width="2" height="2" fill="url(#New_Gradient_Swatch_4-11)"/>
      <path d="M36,11v1H35V11h1m1-1H34v3h3V10Z" fill="#147391"/>
      <rect x="38.5" y="10.5" width="2" height="2" fill="url(#New_Gradient_Swatch_4-12)"/>
      <path d="M40,11v1H39V11h1m1-1H38v3h3V10Z" fill="#147391"/>
      <rect x="38.5" y="14.5" width="2" height="2" fill="url(#New_Gradient_Swatch_4-13)"/>
      <path d="M40,15v1H39V15h1m1-1H38v3h3V14Z" fill="#147391"/>
      <rect x="42.5" y="14.5" width="2" height="2" fill="url(#New_Gradient_Swatch_4-14)"/>
      <path d="M44,15v1H43V15h1m1-1H42v3h3V14Z" fill="#147391"/>
      <rect x="22.5" y="14.5" width="2" height="2" fill="url(#New_Gradient_Swatch_4-15)"/>
      <path d="M24,15v1H23V15h1m1-1H22v3h3V14Z" fill="#147391"/>
      <rect x="26.5" y="14.5" width="2" height="2" fill="url(#New_Gradient_Swatch_4-16)"/>
      <path d="M28,15v1H27V15h1m1-1H26v3h3V14Z" fill="#147391"/>
      <rect x="30.5" y="14.5" width="2" height="2" fill="url(#New_Gradient_Swatch_4-17)"/>
      <path d="M32,15v1H31V15h1m1-1H30v3h3V14Z" fill="#147391"/>
      <rect x="34.5" y="14.5" width="2" height="2" fill="url(#New_Gradient_Swatch_4-18)"/>
      <path d="M36,15v1H35V15h1m1-1H34v3h3V14Z" fill="#147391"/>
      <rect x="22.5" y="18.5" width="2" height="2" fill="url(#New_Gradient_Swatch_4-19)"/>
      <path d="M24,19v1H23V19h1m1-1H22v3h3V18Z" fill="#147391"/>
      <rect x="26.5" y="18.5" width="2" height="2" fill="url(#New_Gradient_Swatch_4-20)"/>
      <path d="M28,19v1H27V19h1m1-1H26v3h3V18Z" fill="#147391"/>
      <rect x="30.5" y="18.5" width="2" height="2" fill="url(#New_Gradient_Swatch_4-21)"/>
      <path d="M32,19v1H31V19h1m1-1H30v3h3V18Z" fill="#147391"/>
      <rect x="34.5" y="18.5" width="2" height="2" fill="url(#New_Gradient_Swatch_4-22)"/>
      <path d="M36,19v1H35V19h1m1-1H34v3h3V18Z" fill="#147391"/>
      <rect x="38.5" y="18.5" width="2" height="2" fill="url(#New_Gradient_Swatch_4-23)"/>
      <path d="M40,19v1H39V19h1m1-1H38v3h3V18Z" fill="#147391"/>
      <rect x="42.5" y="18.5" width="2" height="2" fill="url(#New_Gradient_Swatch_4-24)"/>
      <path d="M44,19v1H43V19h1m1-1H42v3h3V18Z" fill="#147391"/>
      <rect x="22.5" y="22.5" width="2" height="2" fill="url(#New_Gradient_Swatch_4-25)"/>
      <path d="M24,23v1H23V23h1m1-1H22v3h3V22Z" fill="#147391"/>
      <rect x="26.5" y="22.5" width="2" height="2" fill="url(#New_Gradient_Swatch_4-26)"/>
      <path d="M28,23v1H27V23h1m1-1H26v3h3V22Z" fill="#147391"/>
      <rect x="30.5" y="22.5" width="2" height="2" fill="url(#New_Gradient_Swatch_4-27)"/>
      <path d="M32,23v1H31V23h1m1-1H30v3h3V22Z" fill="#147391"/>
      <rect x="34.5" y="22.5" width="2" height="2" fill="url(#New_Gradient_Swatch_4-28)"/>
      <path d="M36,23v1H35V23h1m1-1H34v3h3V22Z" fill="#147391"/>
      <rect x="38.5" y="22.5" width="2" height="2" fill="url(#New_Gradient_Swatch_4-29)"/>
      <path d="M40,23v1H39V23h1m1-1H38v3h3V22Z" fill="#147391"/>
    
      <rect x="42.5" y="22.5" width="2" height="2" fill="url(#New_Gradient_Swatch_4-30)"/>
      <path d="M44,23v1H43V23h1m1-1H42v3h3V22Z" fill="#147391"/>
    
    
      <rect x="22.5" y="26.5" width="2" height="2" fill="url(#New_Gradient_Swatch_4-31)"/>
      <path d="M24,27v1H23V27h1m1-1H22v3h3V26Z" fill="#147391"/>
    
    
      <rect x="26.5" y="26.5" width="2" height="2" fill="url(#New_Gradient_Swatch_4-32)"/>
      <path d="M28,27v1H27V27h1m1-1H26v3h3V26Z" fill="#147391"/>
    
    
      <rect x="30.5" y="26.5" width="2" height="2" fill="url(#New_Gradient_Swatch_4-33)"/>
      <path d="M32,27v1H31V27h1m1-1H30v3h3V26Z" fill="#147391"/>
    
    
      <rect x="34.5" y="26.5" width="2" height="2" fill="url(#New_Gradient_Swatch_4-34)"/>
      <path d="M36,27v1H35V27h1m1-1H34v3h3V26Z" fill="#147391"/>
    
    
      <rect x="38.5" y="26.5" width="2" height="2" fill="url(#New_Gradient_Swatch_4-35)"/>
      <path d="M40,27v1H39V27h1m1-1H38v3h3V26Z" fill="#147391"/>
    
    
      <rect x="42.5" y="26.5" width="2" height="2" fill="url(#New_Gradient_Swatch_4-36)"/>
      <path d="M44,27v1H43V27h1m1-1H42v3h3V26Z" fill="#147391"/>
    
    
      <rect x="22.5" y="30.5" width="2" height="2" fill="url(#New_Gradient_Swatch_4-37)"/>
      <path d="M24,31v1H23V31h1m1-1H22v3h3V30Z" fill="#147391"/>
    
    
      <rect x="26.5" y="30.5" width="2" height="2" fill="url(#New_Gradient_Swatch_4-38)"/>
      <path d="M28,31v1H27V31h1m1-1H26v3h3V30Z" fill="#147391"/>
    
    
      <rect x="30.5" y="30.5" width="2" height="2" fill="url(#New_Gradient_Swatch_4-39)"/>
      <path d="M32,31v1H31V31h1m1-1H30v3h3V30Z" fill="#147391"/>
      <rect x="34.5" y="30.5" width="2" height="2" fill="url(#New_Gradient_Swatch_4-40)"/>
      <path d="M36,31v1H35V31h1m1-1H34v3h3V30Z" fill="#147391"/>
    
    
      <rect x="38.5" y="30.5" width="2" height="2" fill="url(#New_Gradient_Swatch_4-41)"/>
      <path d="M40,31v1H39V31h1m1-1H38v3h3V30Z" fill="#147391"/>
    
    
      <rect x="42.5" y="30.5" width="2" height="2" fill="url(#New_Gradient_Swatch_4-42)"/>
      <path d="M44,31v1H43V31h1m1-1H42v3h3V30Z" fill="#147391"/>
    
    
      <rect x="2.5" y="14.5" width="2" height="2" fill="url(#New_Gradient_Swatch_4-43)"/>
      <path d="M4,15v1H3V15H4m1-1H2v3H5V14Z" fill="#147391"/>
    
    
      <rect x="2.5" y="18.5" width="2" height="2" fill="url(#New_Gradient_Swatch_4-44)"/>
      <path d="M4,19v1H3V19H4m1-1H2v3H5V18Z" fill="#147391"/>
    
    
      <rect x="2.5" y="22.5" width="2" height="2" fill="url(#New_Gradient_Swatch_4-45)"/>
      <path d="M4,23v1H3V23H4m1-1H2v3H5V22Z" fill="#147391"/>
    
    
      <rect x="2.5" y="26.5" width="2" height="2" fill="url(#New_Gradient_Swatch_4-46)"/>
      <path d="M4,27v1H3V27H4m1-1H2v3H5V26Z" fill="#147391"/>
    
    
      <rect x="2.5" y="30.5" width="2" height="2" fill="url(#New_Gradient_Swatch_4-47)"/>
      <path d="M4,31v1H3V31H4m1-1H2v3H5V30Z" fill="#147391"/>
    
    
      <rect x="22.5" y="34.5" width="2" height="2" fill="url(#New_Gradient_Swatch_4-48)"/>
      <path d="M24,35v1H23V35h1m1-1H22v3h3V34Z" fill="#147391"/>
    
    
      <rect x="26.5" y="34.5" width="2" height="2" fill="url(#New_Gradient_Swatch_4-49)"/>
      <path d="M28,35v1H27V35h1m1-1H26v3h3V34Z" fill="#147391"/>
    
    
      <rect x="30.5" y="34.5" width="2" height="2" fill="url(#New_Gradient_Swatch_4-50)"/>
      <path d="M32,35v1H31V35h1m1-1H30v3h3V34Z" fill="#147391"/>
    
    
      <rect x="34.5" y="34.5" width="2" height="2" fill="url(#New_Gradient_Swatch_4-51)"/>
      <path d="M36,35v1H35V35h1m1-1H34v3h3V34Z" fill="#147391"/>
    
    
      <rect x="38.5" y="34.5" width="2" height="2" fill="url(#New_Gradient_Swatch_4-52)"/>
      <path d="M40,35v1H39V35h1m1-1H38v3h3V34Z" fill="#147391"/>
    
    
      <rect x="6.5" y="10.5" width="2" height="2" fill="url(#New_Gradient_Swatch_4-53)"/>
      <path d="M8,11v1H7V11H8m1-1H6v3H9V10Z" fill="#147391"/>
    
    
      <rect x="6.5" y="14.5" width="2" height="2" fill="url(#New_Gradient_Swatch_4-54)"/>
      <path d="M8,15v1H7V15H8m1-1H6v3H9V14Z" fill="#147391"/>
    
    
      <rect x="6.5" y="18.5" width="2" height="2" fill="url(#New_Gradient_Swatch_4-55)"/>
      <path d="M8,19v1H7V19H8m1-1H6v3H9V18Z" fill="#147391"/>
    
    
      <rect x="6.5" y="22.5" width="2" height="2" fill="url(#New_Gradient_Swatch_4-56)"/>
      <path d="M8,23v1H7V23H8m1-1H6v3H9V22Z" fill="#147391"/>
    
    
      <rect x="6.5" y="26.5" width="2" height="2" fill="url(#New_Gradient_Swatch_4-57)"/>
      <path d="M8,27v1H7V27H8m1-1H6v3H9V26Z" fill="#147391"/>
    
    
      <rect x="6.5" y="30.5" width="2" height="2" fill="url(#New_Gradient_Swatch_4-58)"/>
      <path d="M8,31v1H7V31H8m1-1H6v3H9V30Z" fill="#147391"/>
    
    
      <rect x="6.5" y="34.5" width="2" height="2" fill="url(#New_Gradient_Swatch_4-59)"/>
      <path d="M8,35v1H7V35H8m1-1H6v3H9V34Z" fill="#147391"/>
    
    
      <rect x="22.5" y="38.5" width="2" height="2" fill="url(#New_Gradient_Swatch_4-60)"/>
      <path d="M24,39v1H23V39h1m1-1H22v3h3V38Z" fill="#147391"/>
    
    
      <rect x="26.5" y="38.5" width="2" height="2" fill="url(#New_Gradient_Swatch_4-61)"/>
      <path d="M28,39v1H27V39h1m1-1H26v3h3V38Z" fill="#147391"/>
    
    
      <rect x="30.5" y="38.5" width="2" height="2" fill="url(#New_Gradient_Swatch_4-62)"/>
      <path d="M32,39v1H31V39h1m1-1H30v3h3V38Z" fill="#147391"/>
    
    
      <rect x="34.5" y="38.5" width="2" height="2" fill="url(#New_Gradient_Swatch_4-63)"/>
      <path d="M36,39v1H35V39h1m1-1H34v3h3V38Z" fill="#147391"/>
    
    
      <rect x="10.5" y="6.5" width="2" height="2" fill="url(#New_Gradient_Swatch_4-64)"/>
      <path d="M12,7V8H11V7h1m1-1H10V9h3V6Z" fill="#147391"/>
    
    
      <rect x="10.5" y="10.5" width="2" height="2" fill="url(#New_Gradient_Swatch_4-65)"/>
      <path d="M12,11v1H11V11h1m1-1H10v3h3V10Z" fill="#147391"/>
    
    
      <rect x="10.5" y="14.5" width="2" height="2" fill="url(#New_Gradient_Swatch_4-66)"/>
      <path d="M12,15v1H11V15h1m1-1H10v3h3V14Z" fill="#147391"/>
    
    
      <rect x="10.5" y="18.5" width="2" height="2" fill="url(#New_Gradient_Swatch_4-67)"/>
      <path d="M12,19v1H11V19h1m1-1H10v3h3V18Z" fill="#147391"/>
    
    
      <rect x="10.5" y="22.5" width="2" height="2" fill="url(#New_Gradient_Swatch_4-68)"/>
      <path d="M12,23v1H11V23h1m1-1H10v3h3V22Z" fill="#147391"/>
    
    
      <rect x="10.5" y="26.5" width="2" height="2" fill="url(#New_Gradient_Swatch_4-69)"/>
      <path d="M12,27v1H11V27h1m1-1H10v3h3V26Z" fill="#147391"/>
    
    
      <rect x="10.5" y="30.5" width="2" height="2" fill="url(#New_Gradient_Swatch_4-70)"/>
      <path d="M12,31v1H11V31h1m1-1H10v3h3V30Z" fill="#147391"/>
    
    
      <rect x="10.5" y="34.5" width="2" height="2" fill="url(#New_Gradient_Swatch_4-71)"/>
      <path d="M12,35v1H11V35h1m1-1H10v3h3V34Z" fill="#147391"/>
    
    
      <rect x="10.5" y="38.5" width="2" height="2" fill="url(#New_Gradient_Swatch_4-72)"/>
      <path d="M12,39v1H11V39h1m1-1H10v3h3V38Z" fill="#147391"/>
    
    
      <rect x="22.5" y="42.5" width="2" height="2" fill="url(#New_Gradient_Swatch_4-73)"/>
      <path d="M24,43v1H23V43h1m1-1H22v3h3V42Z" fill="#147391"/>
    
    
      <rect x="26.5" y="42.5" width="2" height="2" fill="url(#New_Gradient_Swatch_4-74)"/>
      <path d="M28,43v1H27V43h1m1-1H26v3h3V42Z" fill="#147391"/>
    
    
      <rect x="14.5" y="2.5" width="2" height="2" fill="url(#New_Gradient_Swatch_4-75)"/>
      <path d="M16,3V4H15V3h1m1-1H14V5h3V2Z" fill="#147391"/>
    
    
      <rect x="18.5" y="2.5" width="2" height="2" fill="url(#New_Gradient_Swatch_4-76)"/>
      <path d="M20,3V4H19V3h1m1-1H18V5h3V2Z" fill="#147391"/>
    
    
      <rect x="14.5" y="6.5" width="2" height="2" fill="url(#New_Gradient_Swatch_4-77)"/>
      <path d="M16,7V8H15V7h1m1-1H14V9h3V6Z" fill="#147391"/>
    
    
      <rect x="18.5" y="6.5" width="2" height="2" fill="url(#New_Gradient_Swatch_4-78)"/>
      <path d="M20,7V8H19V7h1m1-1H18V9h3V6Z" fill="#147391"/>
    
    
      <rect x="14.5" y="10.5" width="2" height="2" fill="url(#New_Gradient_Swatch_4-79)"/>
      <path d="M16,11v1H15V11h1m1-1H14v3h3V10Z" fill="#147391"/>
    
    
      <rect x="18.5" y="10.5" width="2" height="2" fill="url(#New_Gradient_Swatch_4-80)"/>
      <path d="M20,11v1H19V11h1m1-1H18v3h3V10Z" fill="#147391"/>
    
    
      <rect x="14.5" y="14.5" width="2" height="2" fill="url(#New_Gradient_Swatch_4-81)"/>
      <path d="M16,15v1H15V15h1m1-1H14v3h3V14Z" fill="#147391"/>
    
    
      <rect x="18.5" y="14.5" width="2" height="2" fill="url(#New_Gradient_Swatch_4-82)"/>
      <path d="M20,15v1H19V15h1m1-1H18v3h3V14Z" fill="#147391"/>
    
    
      <rect x="14.5" y="18.5" width="2" height="2" fill="url(#New_Gradient_Swatch_4-83)"/>
      <path d="M16,19v1H15V19h1m1-1H14v3h3V18Z" fill="#147391"/>
    
    
      <rect x="18.5" y="18.5" width="2" height="2" fill="url(#New_Gradient_Swatch_4-84)"/>
      <path d="M20,19v1H19V19h1m1-1H18v3h3V18Z" fill="#147391"/>
    
    
      <rect x="14.5" y="22.5" width="2" height="2" fill="url(#New_Gradient_Swatch_4-85)"/>
      <path d="M16,23v1H15V23h1m1-1H14v3h3V22Z" fill="#147391"/>
    
    
      <rect x="18.5" y="22.5" width="2" height="2" fill="url(#New_Gradient_Swatch_4-86)"/>
      <path d="M20,23v1H19V23h1m1-1H18v3h3V22Z" fill="#147391"/>
    
    
      <rect x="14.5" y="26.5" width="2" height="2" fill="url(#New_Gradient_Swatch_4-87)"/>
      <path d="M16,27v1H15V27h1m1-1H14v3h3V26Z" fill="#147391"/>
    
    
      <rect x="18.5" y="26.5" width="2" height="2" fill="url(#New_Gradient_Swatch_4-88)"/>
      <path d="M20,27v1H19V27h1m1-1H18v3h3V26Z" fill="#147391"/>
    
    
      <rect x="14.5" y="30.5" width="2" height="2" fill="url(#New_Gradient_Swatch_4-89)"/>
      <path d="M16,31v1H15V31h1m1-1H14v3h3V30Z" fill="#147391"/>
    
    
      <rect x="18.5" y="30.5" width="2" height="2" fill="url(#New_Gradient_Swatch_4-90)"/>
      <path d="M20,31v1H19V31h1m1-1H18v3h3V30Z" fill="#147391"/>
    
    
      <rect x="14.5" y="34.5" width="2" height="2" fill="url(#New_Gradient_Swatch_4-91)"/>
      <path d="M16,35v1H15V35h1m1-1H14v3h3V34Z" fill="#147391"/>
    
    
      <rect x="18.5" y="34.5" width="2" height="2" fill="url(#New_Gradient_Swatch_4-92)"/>
      <path d="M20,35v1H19V35h1m1-1H18v3h3V34Z" fill="#147391"/>
    
    
      <rect x="14.5" y="38.5" width="2" height="2" fill="url(#New_Gradient_Swatch_4-93)"/>
      <path d="M16,39v1H15V39h1m1-1H14v3h3V38Z" fill="#147391"/>
    
    
      <rect x="18.5" y="38.5" width="2" height="2" fill="url(#New_Gradient_Swatch_4-94)"/>
      <path d="M20,39v1H19V39h1m1-1H18v3h3V38Z" fill="#147391"/>
    
    
      <rect x="14.5" y="42.5" width="2" height="2" fill="url(#New_Gradient_Swatch_4-95)"/>
      <path d="M16,43v1H15V43h1m1-1H14v3h3V42Z" fill="#147391"/>
    
    
      <rect x="18.5" y="42.5" width="2" height="2" fill="url(#New_Gradient_Swatch_4-96)"/>
      <path d="M20,43v1H19V43h1m1-1H18v3h3V42Z" fill="#147391"/>
    
    
      <rect x="30.5" y="42.5" width="2" height="2" fill="url(#New_Gradient_Swatch_4-97)"/>
      <path d="M32,43v1H31V43h1m1-1H30v3h3V42Z" fill="#147391"/>
    
  
</svg>
