<svg id="Layer_1" data-name="Layer 1" xmlns="http://www.w3.org/2000/svg" xmlns:xlink="http://www.w3.org/1999/xlink" viewBox="0 0 48 48">
  <defs>
    <linearGradient id="front_-45_2" data-name="front -45 2" x1="9.8539" y1="18.6461" x2="13.1461" y2="21.9383" gradientUnits="userSpaceOnUse">
      <stop offset="0" stop-color="#f1f1f1"/>
      <stop offset="0.5" stop-color="#cacac9"/>
      <stop offset="0.6282" stop-color="#c5c5c4"/>
      <stop offset="0.7762" stop-color="#b7b7b7"/>
      <stop offset="0.9335" stop-color="#a0a0a0"/>
      <stop offset="0.99" stop-color="#969696"/>
    </linearGradient>
    <linearGradient id="front_-45_2-2" x1="4.0022" y1="7.0074" x2="18.9974" y2="22.0026" xlink:href="#front_-45_2"/>
    <linearGradient id="front_-45_2-3" x1="31.7466" y1="32.25" x2="38.7466" y2="39.25" xlink:href="#front_-45_2"/>
  </defs>
  <path d="M25.5,6.5v10l6,6h10l6-6V6.5l-6-6h-10Z" fill="#3c91af" stroke="#464646" stroke-linejoin="round"/>
  <path d="M13.8467,28.1893a2.6681,2.6681,0,0,0-4.6934,0l-8.331,15.4A2.6531,2.6531,0,0,0,3.169,47.5H19.831a2.6531,2.6531,0,0,0,2.3467-3.9106Z" fill="#3c91af" stroke="#464646"/>
  <path d="M14,19.5v.66a2.4238,2.4238,0,0,1-2.5,2.34h0A2.4238,2.4238,0,0,1,9,20.16V19.5Z" stroke="#464646" stroke-linejoin="round" fill="url(#front_-45_2)"/>
  <path d="M19.267,14.5684A5.9222,5.9222,0,0,1,17.29,10.201V7.4637a5.39,5.39,0,0,0-4.2111-5.0919V1.463A1.0107,1.0107,0,0,0,12.026.5H10.9733a1.0107,1.0107,0,0,0-1.0525.963v.9089A5.39,5.39,0,0,0,5.71,7.4637V10.201A5.9222,5.9222,0,0,1,3.733,14.5684,6.6869,6.6869,0,0,0,1.5,19.5h20A6.6869,6.6869,0,0,0,19.267,14.5684Z" stroke="#464646" fill="url(#front_-45_2-2)"/>
  <path d="M44.4965,26.5h-7l-6,9h4.7392l-7.7393,12,17-15h-6Z" stroke="#464646" stroke-linejoin="round" fill="url(#front_-45_2-3)"/>
  <rect x="10" y="31" width="3" height="10" fill="#147391"/>
  <line x1="11.5" y1="32" x2="11.5" y2="40" fill="none" stroke="#fff" stroke-linejoin="round"/>
    <path d="M11.5,44.7a1.2,1.2,0,1,1,1.2-1.2A1.2017,1.2017,0,0,1,11.5,44.7Z" fill="#fff"/>
    <path d="M11.5,42.8a.7.7,0,1,1-.7.7.7.7,0,0,1,.7-.7m0-1a1.7,1.7,0,1,0,1.7,1.7,1.7019,1.7019,0,0,0-1.7-1.7Z" fill="#147391"/>
  <path d="M33.4586,13.8312l-.0011-.0011c-.6512-.6481-1.973-1.92-2.6805-1.3329h0c-.389.3227-.3226.6963-.0811,1.2532l2.4276,3.4156A4.6124,4.6124,0,0,0,36.4741,18.5,5.0142,5.0142,0,0,0,41.5,13.4977V8.8362a1.0058,1.0058,0,0,0-1.0052-1h0a1.0059,1.0059,0,0,0-1.0052,1V6.8355a1.0057,1.0057,0,0,0-1.0051-1h0a1.0058,1.0058,0,0,0-1.0052,1V5.5005a1.0058,1.0058,0,0,0-1.0052-1h0a1.0058,1.0058,0,0,0-1.0052,1V6.8351a1.0058,1.0058,0,0,0-1.0052-1h0a1.0057,1.0057,0,0,0-1.0051,1Z" fill="#e2e2e2" stroke="#147391" stroke-linecap="round" stroke-linejoin="round"/>
</svg>
