<svg id="Layer_1" data-name="Layer 1" xmlns="http://www.w3.org/2000/svg" xmlns:xlink="http://www.w3.org/1999/xlink" viewBox="0 0 48 48">
  <defs>
    <linearGradient id="linear-gradient" x1="-0.4978" y1="-74.4978" x2="41.0022" y2="-115.9978" gradientTransform="matrix(1, 0, 0, -1, 0, -68)" gradientUnits="userSpaceOnUse">
      <stop offset="0" stop-color="#fff"/>
      <stop offset="0.2323" stop-color="#fafafa"/>
      <stop offset="0.4964" stop-color="#ededed"/>
      <stop offset="0.775" stop-color="#d6d6d6"/>
      <stop offset="1" stop-color="#bebebe"/>
    </linearGradient>
    <linearGradient id="paper_gradient" data-name="paper gradient" x1="25.25" y1="-71.75" x2="38.25" y2="-84.75" gradientTransform="matrix(1, 0, 0, -1, 0, -68)" gradientUnits="userSpaceOnUse">
      <stop offset="0" stop-color="#fff"/>
      <stop offset="0.2214" stop-color="#f8f8f8"/>
      <stop offset="0.5415" stop-color="#e5e5e5"/>
      <stop offset="0.92" stop-color="#c6c6c6"/>
      <stop offset="1" stop-color="#bebebe"/>
    </linearGradient>
  </defs>
  <polygon points="28.509 0.5 5.5 0.5 5.5 47.5 41.5 47.5 41.5 13.5 28.509 0.5" stroke="#464646" stroke-miterlimit="10" fill="url(#linear-gradient)"/>
  <polygon points="28.5 0.5 28.5 13.5 41.5 13.5 28.5 0.5" stroke="#464646" stroke-linejoin="round" fill="url(#paper_gradient)"/>
  <rect x="0.5" y="18.5" width="47" height="25" fill="#009ee2" stroke="#464646" stroke-miterlimit="10"/>
    <path d="M5.2559,23.2944v2.2774H7.9307v1.1011H5.2559v3.2226H3.9775V22.1934h4.168v1.101Z" fill="#fff"/>
    <path d="M9.4023,29.8955V21.7529h1.2408v8.1426Z" fill="#fff"/>
    <path d="M17.5771,27.0918a2.9461,2.9461,0,0,1-.7734,2.1377,2.784,2.784,0,0,1-2.1.8,2.7275,2.7275,0,0,1-2.0273-.76,2.7919,2.7919,0,0,1-.7549-2.0595,2.9526,2.9526,0,0,1,.7734-2.1592,2.8624,2.8624,0,0,1,2.1431-.79,2.6622,2.6622,0,0,1,2.0142.7544A2.8732,2.8732,0,0,1,17.5771,27.0918Zm-1.289.043a2.0735,2.0735,0,0,0-.4058-1.3858,1.3905,1.3905,0,0,0-1.1142-.4726,1.411,1.411,0,0,0-1.1441.4941A2.1158,2.1158,0,0,0,13.21,27.167a2.0364,2.0364,0,0,0,.4136,1.3613,1.4342,1.4342,0,0,0,1.1548.4863,1.3561,1.3561,0,0,0,1.1279-.478A2.2094,2.2094,0,0,0,16.2881,27.1348Z" fill="#fff"/>
    <path d="M10.81,39.0957V35.9912a2.0886,2.0886,0,0,0-.2471-1.1548.9493.9493,0,0,0-.8433-.36.9943.9943,0,0,0-.8217.4458,1.76,1.76,0,0,0-.333,1.0849v3.0884H7.3237V35.8838q0-1.407-1.08-1.4072a.996.996,0,0,0-.8349.4267,1.7935,1.7935,0,0,0-.32,1.104v3.0884H3.8486v-5.5H5.0894v.8486h.0214a1.9,1.9,0,0,1,1.74-.9829,1.6738,1.6738,0,0,1,.9692.2847,1.5465,1.5465,0,0,1,.5938.7949,2.1938,2.1938,0,0,1,.7871-.8218,2.1094,2.1094,0,0,1,1.06-.2578,1.669,1.669,0,0,1,1.335.5318,2.581,2.581,0,0,1,.459,1.7026v3.4Z" fill="#fff"/>
    <path d="M16.5405,39.0957v-.7573H16.519a1.8291,1.8291,0,0,1-1.6274.8916,1.79,1.79,0,0,1-1.2783-.44,1.56,1.56,0,0,1-.4673-1.1924,1.7,1.7,0,0,1,.4565-1.2408,2.204,2.204,0,0,1,1.3428-.58l1.606-.22q0-1.1229-1.042-1.1226a2.9539,2.9539,0,0,0-.98.1665,3.1,3.1,0,0,0-.8457.4458V33.95a3.1481,3.1481,0,0,1,.8887-.3384,4.4006,4.4006,0,0,1,1.0664-.15,2.1252,2.1252,0,0,1,1.5928.55,2.2061,2.2061,0,0,1,.5341,1.5982v3.4858Zm-2.1753-1.6274a.6974.6974,0,0,0,.2578.5669.9987.9987,0,0,0,.6553.2119,1.2038,1.2038,0,0,0,.9131-.3789,1.328,1.328,0,0,0,.36-.9532v-.4941l-1.187.1558a1.5,1.5,0,0,0-.7818.2793A.7914.7914,0,0,0,14.3652,37.4683Z" fill="#fff"/>
    <path d="M22.46,37.522a1.5034,1.5034,0,0,1-.5908,1.2378,2.5013,2.5013,0,0,1-1.6006.47,3.7363,3.7363,0,0,1-.7442-.086,3.23,3.23,0,0,1-.6953-.2148v-1.187a2.7551,2.7551,0,0,0,.752.3813,2.3844,2.3844,0,0,0,.7358.1343q.8913,0,.8916-.5908a.5779.5779,0,0,0-.0884-.3359.9569.9569,0,0,0-.3066-.252,5.9081,5.9081,0,0,0-.6738-.3145,3.41,3.41,0,0,1-.7979-.4458,1.352,1.352,0,0,1-.3867-.5048,1.6873,1.6873,0,0,1-.126-.6768,1.4761,1.4761,0,0,1,.5855-1.2085,2.3531,2.3531,0,0,1,1.5146-.4673,3.6181,3.6181,0,0,1,.647.0669,2.8352,2.8352,0,0,1,.5884.1641v1.1225a2.1992,2.1992,0,0,0-.5962-.2768,2.3476,2.3476,0,0,0-.6822-.1045A.9336.9336,0,0,0,20.3,34.6a.5146.5146,0,0,0-.2149.4243.6049.6049,0,0,0,.169.4541,2.878,2.878,0,0,0,.7978.416,2.7344,2.7344,0,0,1,1.09.6929A1.4135,1.4135,0,0,1,22.46,37.522Z" fill="#fff"/>
    <path d="M26.5625,39.042a1.5286,1.5286,0,0,1-.4.126,2.62,2.62,0,0,1-.5547.062q-1.6171,0-1.6172-1.74v-2.895h-.9131v-.999H23.99V32.3281l1.2461-.3813v1.6489h1.3262v.999H25.2363v2.6641a1.1346,1.1346,0,0,0,.1875.7383.7392.7392,0,0,0,.5918.2177,1.0492,1.0492,0,0,0,.2715-.0459.9289.9289,0,0,0,.2754-.1206Z" fill="#fff"/>
    <path d="M28.5762,36.7109a1.6092,1.6092,0,0,0,.457,1.1441,1.6885,1.6885,0,0,0,1.1973.3921,2.7435,2.7435,0,0,0,.8974-.1475,2.9162,2.9162,0,0,0,.752-.3789v1.0474a2.723,2.723,0,0,1-.8379.333A4.6623,4.6623,0,0,1,29.93,39.23a2.4966,2.4966,0,0,1-1.9385-.7495,2.9635,2.9635,0,0,1-.6875-2.0811,3.3137,3.3137,0,0,1,.3408-1.5415,2.5467,2.5467,0,0,1,.9453-1.0288,2.51,2.51,0,0,1,1.33-.3677,2.2642,2.2642,0,0,1,1.77.6983,2.7775,2.7775,0,0,1,.6308,1.9336v.6176Zm2.5088-.9345a1.4611,1.4611,0,0,0-.3057-.9991,1.0938,1.0938,0,0,0-.8594-.3437,1.1947,1.1947,0,0,0-.876.373,1.7285,1.7285,0,0,0-.4677.97Z" fill="#fff"/>
    <path d="M36.6758,34.8042a1.0227,1.0227,0,0,0-.3164-.1289,1.5624,1.5624,0,0,0-.4033-.0591,1.0323,1.0323,0,0,0-.876.4619,2.0124,2.0124,0,0,0-.3321,1.2031v2.8145H33.5068v-5.5H34.748v1.0689H34.77a1.8167,1.8167,0,0,1,.5528-.8594,1.3007,1.3007,0,0,1,.8535-.3062,1.3191,1.3191,0,0,1,.5.0752Z" fill="#fff"/>
</svg>
