<svg version="1.1" id="Layer_1" xmlns="http://www.w3.org/2000/svg" xmlns:xlink="http://www.w3.org/1999/xlink" x="0px" y="0px"
	 viewBox="0 0 48 48" enable-background="new 0 0 48 48" xml:space="preserve">
<g>
	
		<linearGradient id="SVGID_1_" gradientUnits="userSpaceOnUse" x1="6.7182" y1="-73.488" x2="41.2818" y2="-108.0516" gradientTransform="matrix(1 0 0 -1 0 -63.3333)">
		<stop  offset="0" style="stop-color:#FFFFFF"/>
		<stop  offset="0.2214" style="stop-color:#F8F8F8"/>
		<stop  offset="0.5415" style="stop-color:#E5E5E5"/>
		<stop  offset="0.92" style="stop-color:#C6C6C6"/>
		<stop  offset="1" style="stop-color:#BEBEBE"/>
	</linearGradient>
	<rect x="2" y="14.873" fill="url(#SVGID_1_)"  width="44" height="25.127"/>
	<linearGradient id="SVGID_2_" gradientUnits="userSpaceOnUse" x1="15.7671" y1="19.3921" x2="31.6641" y2="3.495">
		<stop  offset="0" style="stop-color:#FFFFFF"/>
		<stop  offset="0.2214" style="stop-color:#F8F8F8"/>
		<stop  offset="0.5415" style="stop-color:#E5E5E5"/>
		<stop  offset="0.92" style="stop-color:#C6C6C6"/>
		<stop  offset="1" style="stop-color:#BEBEBE"/>
	</linearGradient>
	<polygon fill="url(#SVGID_2_)" stroke="#464646" stroke-miterlimit="10" points="36.208,8.039 11.208,8.042 11.208,8.442 
		11.208,8.442 11.208,14.833 14.608,14.833 14.608,11.442 32.805,11.442 32.805,14.864 36.204,14.864 36.204,8.264 	"/>
	<g>
		<linearGradient id="SVGID_3_" gradientUnits="userSpaceOnUse" x1="14.9591" y1="22.8966" x2="30.6938" y2="38.6314">
			<stop  offset="0" style="stop-color:#F2F2F2"/>
			<stop  offset="0.5" style="stop-color:#CCCCCC"/>
			<stop  offset="0.6296" style="stop-color:#C7C7C7"/>
			<stop  offset="0.7792" style="stop-color:#B9B9B9"/>
			<stop  offset="0.9383" style="stop-color:#A2A2A2"/>
			<stop  offset="0.99" style="stop-color:#999999"/>
		</linearGradient>
		<path fill="url(#SVGID_3_)" d="M10.224,33.819c-0.15-0.153-0.301-0.306-0.451-0.458h2.557c0,0,0.15,0,0.226-0.076
			l1.654-1.069c0.075-0.076,0.15-0.153,0.15-0.306v-2.292c0-0.153-0.075-0.229-0.075-0.229s0,0-0.075-0.076l-1.654-1.069
			c-0.075-0.076-0.075-0.076-0.226-0.076H9.773c0.827-1.146,2.03-1.757,3.534-1.757c0.902,0,1.73,0.382,2.632,1.299
			c0.376,0.382,0.677,0.84,0.978,1.299c0,0,0,0,0.075,0.076s0.15,0.153,0.301,0.153l18.161-0.611c0.602,0,1.128,0.229,1.579,0.688
			c0.417,0.423,0.641,0.912,0.673,1.465c0.005,0.09-0.007,0.328-0.02,0.417c-0.059,0.417-0.397,0.837-0.699,1.143
			c-0.451,0.458-1.007,0.642-1.609,0.642l-18.161-0.611c-0.15,0-0.226,0.076-0.301,0.153c-0.451,0.611-1.805,2.597-3.61,2.597
			C12.104,35.118,11.051,34.66,10.224,33.819"/>
		<g>
			<g>
				<path fill="#6E6E6E" d="M10.224,33.819c-0.15-0.153-0.301-0.306-0.451-0.458h2.557c0,0,0.15,0,0.226-0.076l1.654-1.069
					c0.075-0.076,0.15-0.153,0.15-0.306v-2.292c0-0.153-0.075-0.229-0.075-0.229s0,0-0.075-0.076l-1.654-1.069
					c-0.075-0.076-0.075-0.076-0.226-0.076H9.773c0.827-1.146,2.03-1.757,3.534-1.757c0.902,0,1.73,0.382,2.632,1.299
					c0.376,0.382,0.677,0.84,0.978,1.299c0,0,0,0,0.075,0.076s0.15,0.153,0.301,0.153l18.161-0.611c0.602,0,1.128,0.229,1.579,0.688
					c0.417,0.423,0.641,0.912,0.673,1.465c0.005,0.09-0.007,0.328-0.02,0.417c-0.059,0.417-0.397,0.837-0.699,1.143
					c-0.451,0.458-1.007,0.642-1.609,0.642l-18.161-0.611c-0.15,0-0.226,0.076-0.301,0.153c-0.451,0.611-1.805,2.597-3.61,2.597
					C12.104,35.118,11.051,34.66,10.224,33.819 M9.472,34.583c1.053,1.069,2.331,1.604,3.835,1.604c1.743,0,3.128-1.336,3.94-2.383
					c0.182-0.235,0.467-0.36,0.762-0.35c2.857,0.099,17.227,0.602,17.294,0.67c0.978-0.076,1.73-0.382,2.406-1.069
					c0.602-0.611,0.978-1.451,0.978-2.368c0-0.917-0.376-1.757-0.978-2.368c-0.602-0.611-1.429-0.993-2.331-0.993l0,0L18.168,27.92
					c-0.293,0.01-0.58-0.116-0.763-0.349c-0.213-0.27-0.426-0.487-0.639-0.703c-1.053-1.069-2.181-1.604-3.309-1.681
					c-1.654,0-3.309,0.764-4.286,2.215c-0.226,0.382-0.335,0.789-0.105,1.239c0.075,0.076,0.105,0.136,0.18,0.213
					c0.226,0.229,0.451,0.306,0.752,0.306h2.133c0.178,0,0.353,0.051,0.505,0.147l0.524,0.333c0.278,0.177,0.447,0.487,0.447,0.82
					v0.456c0,0.333-0.169,0.643-0.447,0.82l-0.524,0.333c-0.151,0.096-0.326,0.147-0.505,0.147H9.998
					c-0.451,0-0.824,0.148-1.101,0.493c-0.358,0.501-0.195,0.865,0.031,1.247C9.078,34.107,9.246,34.354,9.472,34.583L9.472,34.583z
					"/>
			</g>
			<path fill="#6E6E6E" d="M34.846,30.353c0.213-0.216,0.557-0.216,0.77,0c0.213,0.216,0.213,0.566,0,0.782
				c-0.213,0.216-0.557,0.216-0.77,0C34.634,30.92,34.634,30.569,34.846,30.353z"/>
		</g>
	</g>
	<path fill="#464646" d="M1.5,14.373V40.5h45V14.373H1.5z M45.5,15.373v6.335h-43v-6.335H45.5z M2.5,39.5V22.708h43V39.5H2.5
		z"/>
</g>
</svg>
