<svg version="1.1" id="Layer_1" xmlns="http://www.w3.org/2000/svg" xmlns:xlink="http://www.w3.org/1999/xlink" x="0px" y="0px"
	 viewBox="0 0 48 48" enable-background="new 0 0 48 48" xml:space="preserve">
<linearGradient id="SVGID_1_" gradientUnits="userSpaceOnUse" x1="-4.6" y1="-197.6" x2="36.4" y2="-238.6" gradientTransform="matrix(1 0 0 -1 0 -192)">
	<stop  offset="0" style="stop-color:#FFFFFF"/>
	<stop  offset="0.2323" style="stop-color:#FAFAFA"/>
	<stop  offset="0.4964" style="stop-color:#EDEDED"/>
	<stop  offset="0.775" style="stop-color:#D6D6D6"/>
	<stop  offset="1" style="stop-color:#BEBEBE"/>
</linearGradient>
<polygon style="fill:url(#SVGID_1_);stroke:#464646;stroke-miterlimit:10;" points="24.1,0.5 0.5,0.5 0.5,45.5 37.5,45.5 37.5,12.9 
	"/>
<linearGradient id="SVGID_2_" gradientUnits="userSpaceOnUse" x1="21.1291" y1="-195.3292" x2="34.0538" y2="-208.2538" gradientTransform="matrix(1 0 0 -1 0 -192)">
	<stop  offset="0" style="stop-color:#FFFFFF"/>
	<stop  offset="0.2214" style="stop-color:#F8F8F8"/>
	<stop  offset="0.5415" style="stop-color:#E5E5E5"/>
	<stop  offset="0.92" style="stop-color:#C6C6C6"/>
	<stop  offset="1" style="stop-color:#BEBEBE"/>
</linearGradient>
<polygon style="fill:url(#SVGID_2_);stroke:#464646;stroke-linejoin:round;stroke-miterlimit:10;" points="24,0.5 24,12.9 
	37.4,12.9 "/>
<rect x="2.6" y="32.1" style="fill:none;stroke:#6E6E6E;" width="31.2" height="3.9"/>
<rect x="2.6" y="25.4" style="fill:none;stroke:#6E6E6E;" width="31.2" height="3.9"/>
<rect x="2.6" y="38.9" style="fill:none;stroke:#6E6E6E;" width="31.2" height="3.9"/>
<line style="fill:none;stroke:#FFFFFF;" x1="15.8" y1="11.9" x2="19.7" y2="11.9"/>
<path style="fill:none;stroke:#FFFFFF;stroke-linecap:round;stroke-linejoin:round;" d="M18.3,13.9"/>
<line style="fill:none;stroke:#FFFFFF;stroke-linecap:round;stroke-linejoin:round;" x1="18.3" y1="10" x2="20.2" y2="11.9"/>
<path style="fill:#55A0B9;" d="M12.8,4.2v9.4L19.5,7C17.8,5.3,15.5,4.2,12.8,4.2z"/>
<path style="fill:#2882A0;" d="M12.8,13.6h9.5c0-2.6-1.1-4.9-2.8-6.6L12.8,13.6z"/>
<path style="fill:#006487;" d="M22.3,13.6h-9.5l6.7,6.6C21.3,18.5,22.3,16.1,22.3,13.6z"/>
<path style="fill:#DCDCDC;" d="M19.5,20.2l-6.7-6.6V23C15.5,23,17.8,21.9,19.5,20.2z"/>
<path style="fill:#BEBEBE;" d="M6.2,20.2c1.7,1.7,4.1,2.8,6.7,2.8v-9.4L6.2,20.2z"/>
<path style="fill:#969696;" d="M6.2,20.2l6.7-6.6H3.4C3.4,16.2,4.5,18.6,6.2,20.2z"/>
<path style="fill:#6E6E6E;" d="M6.2,7c-1.7,1.7-2.8,4-2.8,6.6h9.5L6.2,7z"/>
<path style="fill:#8CC3D2;" d="M6.2,7l6.7,6.6V4.2C10.2,4.2,7.9,5.3,6.2,7z"/>
<ellipse style="fill:none;stroke:#464646;stroke-miterlimit:10;" cx="12.8" cy="13.7" rx="9.5" ry="9.4"/>
<g>
	
		<linearGradient id="SVGID_3_" gradientUnits="userSpaceOnUse" x1="26.1612" y1="-31.8389" x2="43.8388" y2="-14.1611" gradientTransform="matrix(1 0 0 1 0 58)">
		<stop  offset="0" style="stop-color:#73B4C8"/>
		<stop  offset="0.1747" style="stop-color:#6AAEC3"/>
		<stop  offset="0.4567" style="stop-color:#529EB5"/>
		<stop  offset="0.8089" style="stop-color:#2C839F"/>
		<stop  offset="1" style="stop-color:#147391"/>
	</linearGradient>
	
		<circle style="fill:url(#SVGID_3_);stroke:#464646;stroke-linecap:round;stroke-linejoin:round;stroke-miterlimit:10;" cx="35" cy="35" r="12.5"/>
</g>
<g>
	<path style="fill:#FFFFFF;" d="M40.6,42.2v-3.5c0-1.9-1.6-3.5-3.5-3.5h-5.4l2.8,2.8l-2.1,2.1L26,33.7l6.4-6.4l2.1,2.1l-2.8,2.8h5.4
		c3.6,0,6.5,2.9,6.5,6.5v3.5C43.6,42.2,40.6,42.2,40.6,42.2z"/>
	<path style="fill:#147391;" d="M32.4,28l1.4,1.4l-3.3,3.3h6.6c3.3,0,6,2.7,6,6v3h-2v-3c0-2.2-1.8-4-4-4h-6.6l3.3,3.3l-1.4,1.4
		l-5.7-5.7L32.4,28 M32.4,26.6l-0.7,0.7L26,33l-0.7,0.7l0.7,0.7l5.7,5.7l0.7,0.7l0.7-0.7l1.4-1.4l0.7-0.7l-0.7-0.7l-1.6-1.6h4.2
		c1.7,0,3,1.3,3,3v3v1h1h2h1v-1v-3c0-3.9-3.1-7-7-7h-4.2l1.6-1.6l0.7-0.7l-0.7-0.7l-1.4-1.4L32.4,26.6L32.4,26.6z"/>
</g>
</svg>
