<svg version="1.1" id="Layer_1" xmlns="http://www.w3.org/2000/svg" xmlns:xlink="http://www.w3.org/1999/xlink" x="0px" y="0px"
	 viewBox="0 0 48 48" enable-background="new 0 0 48 48" xml:space="preserve">
	<linearGradient id="SVGID_1_" gradientUnits="userSpaceOnUse" x1="2.4179" y1="8.0821" x2="31.5821" y2="37.2463">
		<stop  offset="0" style="stop-color:#FFFFFF"/>
		<stop  offset="0.2214" style="stop-color:#F8F8F8"/>
		<stop  offset="0.5415" style="stop-color:#E5E5E5"/>
		<stop  offset="0.92" style="stop-color:#C6C6C6"/>
		<stop  offset="1" style="stop-color:#BEBEBE"/>
	</linearGradient>
	<path fill="url(#SVGID_1_)" stroke="#464646" stroke-miterlimit="10" d="M0.5,10v24.5c0,1.1,0.9,2,2,2h29c1.1,0,2-0.9,2-2V10"/>
	<linearGradient id="SVGID_2_" gradientUnits="userSpaceOnUse" x1="6.7929" y1="-4.6213" x2="27.2071" y2="15.7929">
		<stop  offset="0" style="stop-color:#F2F2F2"/>
		<stop  offset="0.5" style="stop-color:#CCCCCC"/>
		<stop  offset="0.6296" style="stop-color:#C7C7C7"/>
		<stop  offset="0.7792" style="stop-color:#B9B9B9"/>
		<stop  offset="0.9383" style="stop-color:#A2A2A2"/>
		<stop  offset="0.99" style="stop-color:#999999"/>
	</linearGradient>
	<path fill="url(#SVGID_2_)" stroke="#464646" stroke-miterlimit="10" d="M31.5,0.5h-29c-1.1,0-2,0.9-2,2v7h33v-7
		C33.5,1.4,32.6,0.5,31.5,0.5z"/>
		<circle fill="#DCDCDC" cx="9" cy="5" r="1.9"/>
			<path fill="#5A5A5A" d="M9,3.5c0.8,0,1.5,0.7,1.5,1.5c0,0.8-0.7,1.5-1.5,1.5C8.2,6.5,7.5,5.8,7.5,5C7.5,4.2,8.2,3.5,9,3.5 M9,2.8
				c-1.2,0-2.2,1-2.2,2.2c0,1.2,1,2.3,2.2,2.3c1.2,0,2.3-1,2.3-2.3C11.2,3.8,10.2,2.8,9,2.8L9,2.8z"/>
		<circle fill="#DCDCDC" cx="25" cy="5" r="1.9"/>
			<path fill="#5A5A5A" d="M25,3.5c0.8,0,1.5,0.7,1.5,1.5c0,0.8-0.7,1.5-1.5,1.5c-0.8,0-1.5-0.7-1.5-1.5C23.5,4.2,24.2,3.5,25,3.5
				 M25,2.8c-1.2,0-2.2,1-2.2,2.2c0,1.2,1,2.3,2.2,2.3c1.2,0,2.3-1,2.3-2.3C27.2,3.8,26.2,2.8,25,2.8L25,2.8z"/>
<line fill="none" stroke="#5A5A5A" x1="11.5" y1="10" x2="11.5" y2="36"/>
<line fill="none" stroke="#5A5A5A" x1="22.5" y1="10" x2="22.5" y2="36"/>
<line fill="none" stroke="#5A5A5A" x1="1" y1="18.5" x2="33" y2="18.5"/>
<line fill="none" stroke="#5A5A5A" x1="1" y1="27.5" x2="33" y2="27.5"/>
		<linearGradient id="SVGID_3_" gradientUnits="userSpaceOnUse" x1="23.9895" y1="26.3757" x2="36.6228" y2="39.009">
			<stop  offset="0" style="stop-color:#73B4C8"/>
			<stop  offset="0.1747" style="stop-color:#6AAEC3"/>
			<stop  offset="0.4567" style="stop-color:#529EB5"/>
			<stop  offset="0.8089" style="stop-color:#2C839F"/>
			<stop  offset="1" style="stop-color:#147391"/>
		</linearGradient>
		<path fill="url(#SVGID_3_)" d="M20.4,47.5c-1.3,0-2.5-0.5-3.5-1.4c-0.9-0.9-1.4-2.2-1.4-3.5c0-1.3,0.5-2.5,1.4-3.4l13.7-12
			c0.1,0,0.1-0.1,0.1-0.2c-0.3-1.4-1-6.3,1.6-8.9c1.7-1.7,3.9-2.6,6.3-2.6c0.4,0,0.8,0,1.2,0.1c0.2,0,0.3,0.2,0.4,0.3
			c0.1,0.2,0,0.4-0.1,0.5L36.5,20c0,0,0,0.1-0.1,0.1l-0.8,3.8c0,0.1,0,0.1,0.1,0.2l3.2,3.2c0,0,0.1,0.1,0.1,0.1l3.8-0.8
			c0,0,0.1,0,0.1-0.1l3.6-3.6c0.1-0.1,0.2-0.1,0.4-0.1c0.1,0,0.1,0,0.2,0c0.2,0.1,0.3,0.2,0.3,0.4c0.4,2.8-0.6,5.6-2.5,7.6
			c-1.2,1.2-3.2,1.9-5.7,1.9c-1,0-2.2-0.1-3.3-0.3c0,0,0,0,0,0c-0.1,0-0.1,0-0.2,0.1L23.9,46C22.9,47,21.7,47.5,20.4,47.5z
			 M21.2,40.3c-0.4,0-0.8,0.2-1.1,0.4c-0.6,0.6-0.6,1.5,0,2.1c0.3,0.3,0.7,0.4,1.1,0.4c0.4,0,0.8-0.2,1.1-0.4c0.6-0.6,0.6-1.5,0-2.1
			C21.9,40.5,21.6,40.3,21.2,40.3z"/>
		<path fill="#464646" d="M38.6,16c0.4,0,0.8,0,1.2,0.1l-3.6,3.6C36.1,19.7,36,19.9,36,20l-0.8,3.8c0,0.2,0,0.5,0.2,0.6l3.2,3.2
			c0.1,0.1,0.3,0.2,0.5,0.2c0,0,0.1,0,0.1,0L43,27c0.1,0,0.3-0.1,0.4-0.2l3.6-3.6c0.4,2.6-0.5,5.3-2.4,7.1c-1.2,1.2-3,1.8-5.3,1.8
			c-1,0-2.1-0.1-3.2-0.3c0,0-0.1,0-0.1,0c-0.2,0-0.4,0.1-0.5,0.2L23.5,45.7c-0.8,0.8-2,1.3-3.1,1.3c-1.2,0-2.3-0.5-3.1-1.3
			c-0.8-0.8-1.3-1.9-1.3-3.1c0-1.2,0.5-2.3,1.3-3.1L31,27.6c0.2-0.2,0.3-0.4,0.2-0.7c-0.3-1.4-1-6,1.4-8.5
			C34.2,16.9,36.3,16,38.6,16 M21.2,43.8c0.5,0,1-0.2,1.4-0.6l0,0c0.8-0.8,0.8-2,0-2.8c-0.4-0.4-0.9-0.6-1.4-0.6
			c-0.5,0-1,0.2-1.4,0.6l0,0c-0.8,0.8-0.8,2,0,2.8C20.1,43.6,20.7,43.8,21.2,43.8 M38.6,15c-2.5,0-4.9,1-6.7,2.8
			c-2.7,2.7-2.1,7.5-1.7,9.2L16.6,38.8c0,0,0,0-0.1,0c-1,1-1.5,2.3-1.5,3.8c0,1.4,0.6,2.8,1.6,3.8c1,1,2.4,1.6,3.8,1.6
			c1.4,0,2.8-0.6,3.8-1.6c0,0,0,0,0,0L36,32.8c1.1,0.2,2.2,0.3,3.2,0.3c2.6,0,4.7-0.7,6-2.1c2.1-2.1,3.1-5.1,2.7-8
			c-0.1-0.4-0.3-0.7-0.7-0.8c-0.1,0-0.2-0.1-0.3-0.1c-0.3,0-0.5,0.1-0.7,0.3l-3.5,3.5l-3.5,0.7l-3-3l0.7-3.5l3.5-3.5
			c0.3-0.3,0.4-0.7,0.2-1c-0.1-0.4-0.4-0.6-0.8-0.7C39.4,15,39,15,38.6,15L38.6,15z M21.2,42.8c-0.3,0-0.5-0.1-0.7-0.3
			c-0.4-0.4-0.4-1,0-1.4c0.2-0.2,0.4-0.3,0.7-0.3c0.3,0,0.5,0.1,0.7,0.3c0.4,0.4,0.4,1,0,1.4C21.7,42.7,21.4,42.8,21.2,42.8
			L21.2,42.8z"/>
</svg>
