<svg id="Layer_1" data-name="Layer 1" xmlns="http://www.w3.org/2000/svg" xmlns:xlink="http://www.w3.org/1999/xlink" viewBox="0 0 48 48">
    <linearGradient id="front_-45" data-name="front -45" x1="194" y1="1470" x2="174" y2="1450" gradientTransform="translate(202 1463) rotate(180)" gradientUnits="userSpaceOnUse">
      <stop offset="0" stop-color="#f2f2f2"/>
      <stop offset="0.5" stop-color="#ccc"/>
      <stop offset="0.63" stop-color="#c7c7c7"/>
      <stop offset="0.779" stop-color="#b9b9b9"/>
      <stop offset="0.938" stop-color="#a2a2a2"/>
      <stop offset="0.99" stop-color="#999"/>
    </linearGradient>
    <linearGradient id="linear-gradient" x1="199" y1="1460" x2="169" y2="1430" gradientTransform="translate(202 1463) rotate(180)" gradientUnits="userSpaceOnUse">
      <stop offset="0" stop-color="#fff"/>
      <stop offset="0.232" stop-color="#fafafa"/>
      <stop offset="0.496" stop-color="#ededed"/>
      <stop offset="0.775" stop-color="#d6d6d6"/>
      <stop offset="1" stop-color="#bebebe"/>
    </linearGradient>
    <linearGradient id="linear-gradient-2" x1="25.613" y1="22.887" x2="46.384" y2="43.658" gradientUnits="userSpaceOnUse">
      <stop offset="0" stop-color="#73b4c8"/>
      <stop offset="0.175" stop-color="#6aaec3"/>
      <stop offset="0.457" stop-color="#529eb5"/>
      <stop offset="0.809" stop-color="#2c839f"/>
      <stop offset="1" stop-color="#147391"/>
    </linearGradient>
    <linearGradient id="Light_Blue_Grad" data-name="Light Blue Grad" x1="29.386" y1="17.384" x2="42.614" y2="30.612" gradientUnits="userSpaceOnUse">
      <stop offset="0" stop-color="#afd7e1"/>
      <stop offset="1" stop-color="#73b4c8"/>
    </linearGradient>
    <linearGradient id="linear-gradient-3" x1="9.254" y1="32.746" x2="21.745" y2="45.237" xlink:href="#linear-gradient-2"/>
    <linearGradient id="Light_Blue_Grad-2" x1="11.464" y1="29.462" x2="19.537" y2="37.536" xlink:href="#Light_Blue_Grad"/>
  <rect x="0.5" y="0.5" width="35" height="5" fill="url(#front_-45)"/>
  <rect x="0.5" y="5.5" width="35" height="25" fill="url(#linear-gradient)"/>
  <line x1="5" y1="10.5" x2="23" y2="10.5" fill="none" stroke="#a0a0a0" stroke-miterlimit="10"/>
  <line x1="5" y1="15.5" x2="19" y2="15.5" fill="none" stroke="#a0a0a0" stroke-miterlimit="10"/>
  <line x1="5" y1="20.5" x2="17" y2="20.5" fill="none" stroke="#a0a0a0" stroke-miterlimit="10"/>
  <line x1="5" y1="25.5" x2="23" y2="25.5" fill="none" stroke="#a0a0a0" stroke-miterlimit="10"/>
  <line x1="0.5" y1="5.5" x2="35.5" y2="5.5" fill="none" stroke="#6e6e6e" stroke-miterlimit="10"/>
  <rect x="0.5" y="0.5" width="35" height="30" fill="none" stroke="#464646" stroke-miterlimit="10"/>
  <rect x="32" y="2" width="2" height="2" fill="#6e6e6e"/>
  <rect x="28" y="2" width="2" height="2" fill="#6e6e6e"/>
  <rect x="24" y="2" width="2" height="2" fill="#6e6e6e"/>
  <path d="M47.5,24V40.714c0,1.734-1.159,3.466-3.381,4.789-4.47,2.661-11.744,2.661-16.229.009-2.264-1.339-3.395-3.1-3.39-4.853V24" fill="url(#linear-gradient-2)"/>
  <path d="M44.117,19.4c4.493,2.531,4.517,6.65.038,9.19S32.389,31.134,27.9,28.6s-4.531-6.659-.053-9.2S39.609,16.865,44.117,19.4Z" fill="url(#Light_Blue_Grad)"/>
  <path d="M47.5,24c.008,1.664-1.106,3.328-3.345,4.6-4.478,2.539-11.766,2.539-16.259.008-2.254-1.27-3.387-2.934-3.4-4.6" fill="none" stroke="#147391" stroke-miterlimit="10"/>
  <path d="M44.117,19.4c-4.507-2.539-11.8-2.539-16.274,0-2.237,1.269-3.351,2.932-3.343,4.6V40.659c0,1.756,1.126,3.514,3.39,4.853,4.484,2.653,11.759,2.653,16.229-.009,2.222-1.323,3.376-3.056,3.381-4.789V24C47.494,22.335,46.365,20.671,44.117,19.4Z" fill="none" stroke="#464646" stroke-miterlimit="10"/>
  <path d="M22.5,33.5v9.869a3.6,3.6,0,0,1-2.058,2.915,10.663,10.663,0,0,1-9.878.005A3.585,3.585,0,0,1,8.5,43.335V33.5Z" fill="url(#linear-gradient-3)"/>
  <path d="M20.441,30.672c2.735,1.558,2.749,4.093.023,5.655a11.048,11.048,0,0,1-9.9.005c-2.744-1.563-2.758-4.1-.032-5.66A11.05,11.05,0,0,1,20.441,30.672Z" fill="url(#Light_Blue_Grad-2)"/>
  <path d="M22.5,33.5h0a3.557,3.557,0,0,0-2.059-2.911,10.769,10.769,0,0,0-9.905,0A3.519,3.519,0,0,0,8.5,33.506v9.829a3.584,3.584,0,0,0,2.063,2.954,10.663,10.663,0,0,0,9.878-.005A3.6,3.6,0,0,0,22.5,43.369Z" fill="none" stroke="#464646" stroke-miterlimit="10"/>
  <path d="M8.5,33.5V33.5a3.472,3.472,0,0,0,2.067,2.827,11.047,11.047,0,0,0,9.9-.005A3.425,3.425,0,0,0,22.5,33.5" fill="none" stroke="#147391" stroke-miterlimit="10"/>
  <path d="M22.5,33.5h0a3.456,3.456,0,0,0-2.059-2.828,11.05,11.05,0,0,0-9.905,0A3.418,3.418,0,0,0,8.5,33.5v9.83a3.585,3.585,0,0,0,2.063,2.954,10.663,10.663,0,0,0,9.878-.005A3.6,3.6,0,0,0,22.5,43.369Z" fill="none" stroke="#464646" stroke-miterlimit="10"/>
</svg>
