<svg id="Layer_1" data-name="Layer 1" xmlns="http://www.w3.org/2000/svg" xmlns:xlink="http://www.w3.org/1999/xlink" viewBox="0 0 48 48">
    <linearGradient id="paper_gradient" data-name="paper gradient" x1="31.25" y1="3.75" x2="44.25" y2="16.75" gradientUnits="userSpaceOnUse">
      <stop offset="0" stop-color="#fff"/>
      <stop offset="0.221" stop-color="#f8f8f8"/>
      <stop offset="0.541" stop-color="#e5e5e5"/>
      <stop offset="0.92" stop-color="#c6c6c6"/>
      <stop offset="1" stop-color="#bebebe"/>
    </linearGradient>
    <linearGradient id="linear-gradient" x1="-2.75" y1="3.75" x2="44.25" y2="50.75" gradientUnits="userSpaceOnUse">
      <stop offset="0" stop-color="#fff"/>
      <stop offset="0.232" stop-color="#fafafa"/>
      <stop offset="0.496" stop-color="#ededed"/>
      <stop offset="0.775" stop-color="#d6d6d6"/>
      <stop offset="1" stop-color="#bebebe"/>
    </linearGradient>
    <linearGradient id="Light_Blue_Grad" data-name="Light Blue Grad" x1="37.75" y1="-2.75" x2="50.75" y2="10.25" gradientUnits="userSpaceOnUse">
      <stop offset="0" stop-color="#afd7e1"/>
      <stop offset="1" stop-color="#73b4c8"/>
    </linearGradient>
    <linearGradient id="Dark_Blue_Grad" data-name="Dark Blue Grad" x1="20.5" y1="19.5" x2="26.5" y2="25.5" gradientUnits="userSpaceOnUse">
      <stop offset="0" stop-color="#73b4c8"/>
      <stop offset="0.175" stop-color="#6aaec3"/>
      <stop offset="0.457" stop-color="#529eb5"/>
      <stop offset="0.809" stop-color="#2c839f"/>
      <stop offset="1" stop-color="#147391"/>
    </linearGradient>
    <linearGradient id="Dark_Blue_Grad-2" x1="20.5" y1="29.5" x2="26.5" y2="35.5" gradientTransform="translate(47 65) rotate(-180)" xlink:href="#Dark_Blue_Grad"/>
    <linearGradient id="Light_Blue_Grad-3" x1="34.5" y1="0.5" x2="47.5" y2="13.5" xlink:href="#Light_Blue_Grad"/>
  <polygon points="34.5 13.5 47.5 13.5 34.5 0.5 34.5 13.5" fill="url(#paper_gradient)"/>
  <polygon id="_Path_" data-name="&lt;Path&gt;" points="47.5 47.5 0.5 47.5 0.5 0.5 34.5 0.5 34.5 13.5 47.5 13.5 47.5 47.5" stroke="#464646" stroke-miterlimit="10" fill="url(#linear-gradient)"/>
  <polygon points="47.5 13.5 47.5 0.5 34.5 0.5 47.5 13.5" fill="url(#Light_Blue_Grad)"/>
  <polyline points="12.5 25.5 12.5 15.5 34.5 15.5 34.5 25.5" fill="none" stroke="#147391" stroke-miterlimit="10"/>
  <line x1="9" y1="25.5" x2="16" y2="25.5" fill="none" stroke="#147391" stroke-miterlimit="10"/>
  <line x1="31" y1="25.5" x2="38" y2="25.5" fill="none" stroke="#147391" stroke-miterlimit="10"/>
  <line x1="23.5" y1="11" x2="23.5" y2="15.5" fill="none" stroke="#147391" stroke-miterlimit="10"/>
  <rect x="20.5" y="19.5" width="6" height="6" stroke="#147391" stroke-miterlimit="10" fill="url(#Dark_Blue_Grad)"/>
  <polyline points="34.5 29.5 34.5 39.5 12.5 39.5 12.5 29.5" fill="none" stroke="#147391" stroke-miterlimit="10"/>
  <line x1="38" y1="29.5" x2="31" y2="29.5" fill="none" stroke="#147391" stroke-miterlimit="10"/>
  <line x1="16" y1="29.5" x2="9" y2="29.5" fill="none" stroke="#147391" stroke-miterlimit="10"/>
  <line x1="23.5" y1="44" x2="23.5" y2="39.5" fill="none" stroke="#147391" stroke-miterlimit="10"/>
  <rect x="20.5" y="29.5" width="6" height="6" transform="translate(47 65) rotate(180)" stroke="#147391" stroke-miterlimit="10" fill="url(#Dark_Blue_Grad-2)"/>
  <polyline points="47.5 13.5 47.5 0.5 34.5 0.5" stroke="#464646" stroke-miterlimit="10" fill="url(#Light_Blue_Grad)"/>
  <line x1="34.5" y1="0.5" x2="47.5" y2="13.5" stroke="#464646" stroke-miterlimit="10" fill="url(#Light_Blue_Grad-3)"/>
</svg>
