<svg id="Layer_1" data-name="Layer 1" xmlns="http://www.w3.org/2000/svg" xmlns:xlink="http://www.w3.org/1999/xlink" width="48" height="48" viewBox="0 0 48 48">
  <defs>
    <linearGradient id="linear-gradient" x1="3.5" y1="-1.5" x2="45" y2="40" gradientTransform="translate(0 8)" gradientUnits="userSpaceOnUse">
      <stop offset="0" stop-color="#fff"/>
      <stop offset="0.232" stop-color="#fafafa"/>
      <stop offset="0.496" stop-color="#ededed"/>
      <stop offset="0.775" stop-color="#d6d6d6"/>
      <stop offset="1" stop-color="#bebebe"/>
    </linearGradient>
    <linearGradient id="linear-gradient-2" x1="29.25" y1="-4.25" x2="42.25" y2="8.75" gradientTransform="translate(0 8)" gradientUnits="userSpaceOnUse">
      <stop offset="0" stop-color="#fff"/>
      <stop offset="0.221" stop-color="#f8f8f8"/>
      <stop offset="0.541" stop-color="#e5e5e5"/>
      <stop offset="0.92" stop-color="#c6c6c6"/>
      <stop offset="1" stop-color="#bebebe"/>
    </linearGradient>
  </defs>
  <polygon points="32.5 0.5 9.5 0.5 9.5 47.5 45.5 47.5 45.5 13.5 32.5 0.5" stroke="#464646" stroke-miterlimit="10" fill="url(#linear-gradient)"/>
  <polygon points="32.5 0.5 32.5 13.5 45.5 13.5 32.5 0.5" stroke="#464646" stroke-linejoin="round" fill="url(#linear-gradient-2)"/>
  <rect x="0.5" y="26.5" width="47" height="16" fill="#3296b9" stroke="#464646" stroke-miterlimit="10"/>
  <g style="isolation: isolate">
    <path d="M9.005,37.9,5.476,32.2a2.039,2.039,0,0,1-.274-.525H5.165a3.877,3.877,0,0,1,.051.59c.012.312.018.521.018.629V37.9H3.978v-7.7H5.594l3.481,5.694.241.425h.022c-.011-.069-.024-.25-.038-.546s-.021-.528-.021-.7V30.193h1.257v7.7Z" fill="#fff"/>
    <path d="M15.273,37.9v-.758h-.022a1.829,1.829,0,0,1-1.627.892,1.785,1.785,0,0,1-1.278-.441,1.558,1.558,0,0,1-.468-1.192,1.7,1.7,0,0,1,.457-1.241,2.205,2.205,0,0,1,1.343-.58l1.606-.22q0-1.123-1.042-1.123a2.977,2.977,0,0,0-.981.166,3.108,3.108,0,0,0-.845.447v-1.1a3.18,3.18,0,0,1,.888-.339,4.458,4.458,0,0,1,1.067-.15,2.118,2.118,0,0,1,1.592.551,2.2,2.2,0,0,1,.535,1.6V37.9ZM13.1,36.269a.7.7,0,0,0,.257.566,1,1,0,0,0,.656.212,1.2,1.2,0,0,0,.913-.379,1.327,1.327,0,0,0,.36-.953v-.494l-1.187.155a1.514,1.514,0,0,0-.782.279A.793.793,0,0,0,13.1,36.269Z" fill="#fff"/>
    <path d="M21.192,36.321A1.506,1.506,0,0,1,20.6,37.56a2.5,2.5,0,0,1-1.6.47,3.753,3.753,0,0,1-.744-.086,3.22,3.22,0,0,1-.7-.215V36.542a2.732,2.732,0,0,0,.752.381,2.373,2.373,0,0,0,.736.135c.594,0,.891-.2.891-.591a.574.574,0,0,0-.088-.336.959.959,0,0,0-.307-.252,5.842,5.842,0,0,0-.673-.315,3.39,3.39,0,0,1-.8-.446,1.325,1.325,0,0,1-.387-.5,1.69,1.69,0,0,1-.126-.677,1.473,1.473,0,0,1,.585-1.208,2.355,2.355,0,0,1,1.515-.468,3.563,3.563,0,0,1,.647.067,2.865,2.865,0,0,1,.588.164v1.122a2.2,2.2,0,0,0-.6-.276,2.355,2.355,0,0,0-.682-.105.937.937,0,0,0-.585.166.518.518,0,0,0-.215.425.6.6,0,0,0,.169.454,2.833,2.833,0,0,0,.8.416,2.733,2.733,0,0,1,1.09.694A1.412,1.412,0,0,1,21.192,36.321Z" fill="#fff"/>
    <path d="M25.3,37.842a1.527,1.527,0,0,1-.4.126,2.658,2.658,0,0,1-.555.062q-1.617,0-1.617-1.74V33.4H21.81v-1h.913V31.128l1.246-.381V32.4H25.3v1H23.969v2.664a1.135,1.135,0,0,0,.187.738.742.742,0,0,0,.592.218,1.1,1.1,0,0,0,.272-.046.986.986,0,0,0,.275-.12Z" fill="#fff"/>
    <path d="M29.613,33.6a1.02,1.02,0,0,0-.316-.128,1.55,1.55,0,0,0-.4-.06,1.031,1.031,0,0,0-.876.462,2.01,2.01,0,0,0-.332,1.2V37.9H26.444V32.4h1.242v1.068h.021a1.832,1.832,0,0,1,.553-.86,1.3,1.3,0,0,1,.853-.3,1.324,1.324,0,0,1,.5.075Z" fill="#fff"/>
    <path d="M33.428,37.9v-.758h-.022a1.83,1.83,0,0,1-1.627.892,1.791,1.791,0,0,1-1.279-.441,1.56,1.56,0,0,1-.467-1.192,1.7,1.7,0,0,1,.457-1.241,2.2,2.2,0,0,1,1.342-.58l1.606-.22q0-1.123-1.042-1.123a2.971,2.971,0,0,0-.98.166,3.114,3.114,0,0,0-.846.447v-1.1a3.2,3.2,0,0,1,.889-.339,4.444,4.444,0,0,1,1.066-.15,2.121,2.121,0,0,1,1.593.551,2.2,2.2,0,0,1,.534,1.6V37.9Zm-2.176-1.627a.7.7,0,0,0,.258.566.994.994,0,0,0,.656.212,1.2,1.2,0,0,0,.912-.379,1.327,1.327,0,0,0,.36-.953v-.494l-1.186.155a1.511,1.511,0,0,0-.782.279A.793.793,0,0,0,31.252,36.269Z" fill="#fff"/>
    <path d="M39.711,37.9V34.808a2.048,2.048,0,0,0-.261-1.153.947.947,0,0,0-.841-.379,1.178,1.178,0,0,0-.931.427,1.579,1.579,0,0,0-.367,1.067V37.9H36.069V32.4h1.242v.88h.021a1.97,1.97,0,0,1,1.783-1.015,1.7,1.7,0,0,1,1.356.558,2.556,2.556,0,0,1,.48,1.7V37.9Z" fill="#fff"/>
  </g>
</svg>
