<svg id="Layer_1" data-name="Layer 1" xmlns="http://www.w3.org/2000/svg" xmlns:xlink="http://www.w3.org/1999/xlink" viewBox="0 0 48 48">
    <linearGradient id="linear-gradient" x1="-5" y1="42" x2="28.5" y2="8.5" gradientTransform="matrix(1, 0, 0, -1, 0, 48)" gradientUnits="userSpaceOnUse">
      <stop offset="0" stop-color="#fff"/>
      <stop offset="0.232" stop-color="#fafafa"/>
      <stop offset="0.496" stop-color="#ededed"/>
      <stop offset="0.775" stop-color="#d6d6d6"/>
      <stop offset="1" stop-color="#bebebe"/>
    </linearGradient>
    <linearGradient id="paper_gradient" data-name="paper gradient" x1="14.875" y1="44.375" x2="25.375" y2="33.875" gradientTransform="matrix(1, 0, 0, -1, 0, 48)" gradientUnits="userSpaceOnUse">
      <stop offset="0" stop-color="#fff"/>
      <stop offset="0.221" stop-color="#f8f8f8"/>
      <stop offset="0.541" stop-color="#e5e5e5"/>
      <stop offset="0.92" stop-color="#c6c6c6"/>
      <stop offset="1" stop-color="#bebebe"/>
    </linearGradient>
    <linearGradient id="linear-gradient-2" x1="9.75" y1="11.75" x2="19.25" y2="21.25" gradientTransform="matrix(1, 0, 0, 1, 0, 0)" xlink:href="#linear-gradient"/>
    <linearGradient id="linear-gradient-3" x1="9.75" y1="15.75" x2="19.25" y2="25.25" gradientTransform="matrix(1, 0, 0, 1, 0, 0)" xlink:href="#linear-gradient"/>
    <linearGradient id="linear-gradient-4" x1="9.75" y1="19.75" x2="19.25" y2="29.25" gradientTransform="matrix(1, 0, 0, 1, 0, 0)" xlink:href="#linear-gradient"/>
    <linearGradient id="linear-gradient-5" x1="9.75" y1="23.75" x2="19.25" y2="33.25" gradientTransform="matrix(1, 0, 0, 1, 0, 0)" xlink:href="#linear-gradient"/>
    <linearGradient id="linear-gradient-6" x1="9.75" y1="27.75" x2="19.25" y2="37.25" gradientTransform="matrix(1, 0, 0, 1, 0, 0)" xlink:href="#linear-gradient"/>
    <linearGradient id="paper_gradient-2" x1="25.918" y1="29.582" x2="45.082" y2="48.746" gradientTransform="matrix(1, 0, 0, 1, 0, 0)" xlink:href="#paper_gradient"/>
    <linearGradient id="Dark_Blue_Grad" data-name="Dark Blue Grad" x1="27.918" y1="22.254" x2="43.082" y2="37.418" gradientUnits="userSpaceOnUse">
      <stop offset="0" stop-color="#73b4c8"/>
      <stop offset="0.175" stop-color="#6aaec3"/>
      <stop offset="0.457" stop-color="#529eb5"/>
      <stop offset="0.809" stop-color="#2c839f"/>
      <stop offset="1" stop-color="#147391"/>
    </linearGradient>
    <linearGradient id="Dark_Blue_Grad-2" x1="29.745" y1="26.751" x2="41.245" y2="38.251" xlink:href="#Dark_Blue_Grad"/>
  <polygon points="17.5 0.5 0.5 0.5 0.5 39.5 28.5 39.5 28.5 11.5 17.5 0.5" stroke="#464646" stroke-miterlimit="10" fill="url(#linear-gradient)"/>
  <polyline points="17.5 1 17.5 11.5 28 11.5" stroke="#464646" stroke-linejoin="round" fill="url(#paper_gradient)"/>
  <line x1="5" y1="16.5" x2="24" y2="16.5" stroke="#464646" stroke-miterlimit="10" fill="url(#linear-gradient-2)"/>
  <line x1="5" y1="20.5" x2="24" y2="20.5" stroke="#464646" stroke-miterlimit="10" fill="url(#linear-gradient-3)"/>
  <line x1="5" y1="24.5" x2="24" y2="24.5" stroke="#464646" stroke-miterlimit="10" fill="url(#linear-gradient-4)"/>
  <line x1="5" y1="28.5" x2="24" y2="28.5" stroke="#464646" stroke-miterlimit="10" fill="url(#linear-gradient-5)"/>
  <line x1="5" y1="32.5" x2="24" y2="32.5" stroke="#464646" stroke-miterlimit="10" fill="url(#linear-gradient-6)"/>
    <path d="M23.5,32V45.5a2,2,0,0,0,2,2h20a2,2,0,0,0,2-2V32" stroke="#464646" stroke-miterlimit="10" fill="url(#paper_gradient-2)"/>
    <line x1="31.5" y1="33" x2="31.5" y2="47" fill="none" stroke="#6e6e6e"/>
    <line x1="39.5" y1="33" x2="39.5" y2="47" fill="none" stroke="#6e6e6e"/>
    <line x1="24" y1="42.5" x2="47" y2="42.5" fill="none" stroke="#6e6e6e"/>
    <line x1="24" y1="37.5" x2="47" y2="37.5" fill="none" stroke="#6e6e6e"/>
  <path d="M47.5,33V27.5a2,2,0,0,0-2-2h-20a2,2,0,0,0-2,2V33" stroke="#147391" stroke-miterlimit="10" fill="url(#Dark_Blue_Grad)"/>
  <circle cx="29" cy="29" r="1.5" fill="#fff" stroke="#147391" stroke-linecap="round" stroke-linejoin="round"/>
  <circle cx="42" cy="29" r="1.5" fill="#fff" stroke="#147391" stroke-linecap="round" stroke-linejoin="round"/>
  <line x1="23.995" y1="32.501" x2="46.995" y2="32.501" stroke="#147391" stroke-miterlimit="10" fill="url(#Dark_Blue_Grad-2)"/>
</svg>
