<svg id="Layer_1" data-name="Layer 1" xmlns="http://www.w3.org/2000/svg" xmlns:xlink="http://www.w3.org/1999/xlink" viewBox="0 0 48 48">
  <defs>
    <linearGradient id="linear-gradient" x1="-0.5" y1="-74.5" x2="41" y2="-116" gradientTransform="matrix(1, 0, 0, -1, 0, -68)" gradientUnits="userSpaceOnUse">
      <stop offset="0" stop-color="#fff"/>
      <stop offset="0.2323" stop-color="#fafafa"/>
      <stop offset="0.4964" stop-color="#ededed"/>
      <stop offset="0.775" stop-color="#d6d6d6"/>
      <stop offset="1" stop-color="#bebebe"/>
    </linearGradient>
    <linearGradient id="paper_gradient" data-name="paper gradient" x1="25.25" y1="-71.75" x2="38.25" y2="-84.75" gradientTransform="matrix(1, 0, 0, -1, 0, -68)" gradientUnits="userSpaceOnUse">
      <stop offset="0" stop-color="#fff"/>
      <stop offset="0.2214" stop-color="#f8f8f8"/>
      <stop offset="0.5415" stop-color="#e5e5e5"/>
      <stop offset="0.92" stop-color="#c6c6c6"/>
      <stop offset="1" stop-color="#bebebe"/>
    </linearGradient>
  </defs>
  <polygon points="28.5 0.5 5.5 0.5 5.5 47.5 41.5 47.5 41.5 13.5 28.5 0.5" stroke="#464646" stroke-miterlimit="10" fill="url(#linear-gradient)"/>
  <polygon points="28.5 0.5 28.5 13.5 41.5 13.5 28.5 0.5" stroke="#464646" stroke-linejoin="round" fill="url(#paper_gradient)"/>
  <rect x="0.5" y="18.5" width="47" height="25" fill="#099" stroke="#464646" stroke-miterlimit="10"/>
    <path d="M8.1831,27.86a1.9228,1.9228,0,0,1-.7251,1.5922,3.1706,3.1706,0,0,1-2.0249.5777,4.1733,4.1733,0,0,1-1.0312-.14,2.7226,2.7226,0,0,1-.8057-.3115V28.1821a2.8086,2.8086,0,0,0,.8916.5371,2.9166,2.9166,0,0,0,1.085.22,1.4845,1.4845,0,0,0,.9155-.2442.8411.8411,0,0,0,.32-.7119,1.045,1.045,0,0,0-.3169-.7358,5.0509,5.0509,0,0,0-1.2031-.8057,4.0907,4.0907,0,0,1-1.2944-.98,1.9157,1.9157,0,0,1-.4244-1.2436,1.9765,1.9765,0,0,1,.3223-1.1089,2.14,2.14,0,0,1,.9238-.7686A3.2349,3.2349,0,0,1,6.18,22.0645a5.0038,5.0038,0,0,1,.9829.0966A3.0094,3.0094,0,0,1,7.85,22.36v1.3427a2.3,2.3,0,0,0-.7544-.4,2.8773,2.8773,0,0,0-.9053-.1479,1.44,1.44,0,0,0-.916.2685.8486.8486,0,0,0-.3408.6983,1.0952,1.0952,0,0,0,.1128.5156,1.3211,1.3211,0,0,0,.3545.4082,6.1187,6.1187,0,0,0,.8755.5264A4.7719,4.7719,0,0,1,7.74,26.6377,1.8632,1.8632,0,0,1,8.1831,27.86Z" fill="#fff"/>
    <path d="M9.6548,32.479a2.8414,2.8414,0,0,1-.7627-.0859V31.335a1.4554,1.4554,0,0,0,.6069.1342,1.0142,1.0142,0,0,0,.9668-.7036l.376-.87-2.2022-5.5h1.3965l1.2891,3.8726a3.6942,3.6942,0,0,1,.1182.5263h.0214l.1343-.5263,1.3321-3.8726h1.2622l-2.3848,6.1607a3.5369,3.5369,0,0,1-.9131,1.4609A1.8449,1.8449,0,0,1,9.6548,32.479Z" fill="#fff"/>
    <path d="M18.356,28.3218a1.5032,1.5032,0,0,1-.5909,1.2378,2.5008,2.5008,0,0,1-1.6005.47,3.7354,3.7354,0,0,1-.7442-.086,3.23,3.23,0,0,1-.6953-.2148V28.542a2.7551,2.7551,0,0,0,.752.3813,2.3844,2.3844,0,0,0,.7358.1343q.8913,0,.8916-.5908a.5779.5779,0,0,0-.0884-.3359.958.958,0,0,0-.3066-.252,5.9053,5.9053,0,0,0-.6739-.3144,3.4188,3.4188,0,0,1-.7978-.4458,1.3521,1.3521,0,0,1-.3867-.5049,1.6873,1.6873,0,0,1-.126-.6768,1.4763,1.4763,0,0,1,.5854-1.2085,2.3536,2.3536,0,0,1,1.5147-.4673,3.619,3.619,0,0,1,.647.0669,2.8323,2.8323,0,0,1,.5883.1641v1.1225a2.1971,2.1971,0,0,0-.5961-.2768,2.3476,2.3476,0,0,0-.6822-.1045.9334.9334,0,0,0-.5854.1665.5146.5146,0,0,0-.2149.4243.6049.6049,0,0,0,.169.4541,2.878,2.878,0,0,0,.7978.416,2.7351,2.7351,0,0,1,1.09.6929A1.4135,1.4135,0,0,1,18.356,28.3218Z" fill="#fff"/>
    <path d="M22.46,29.8418a1.5353,1.5353,0,0,1-.4.126,2.6187,2.6187,0,0,1-.5557.062q-1.6164,0-1.6167-1.74V25.3945h-.9131v-.999h.9131V23.1279l1.2461-.3813v1.6489H22.46v.999H21.1328v2.6641a1.1314,1.1314,0,0,0,.188.7383.739.739,0,0,0,.5908.2177,1.0429,1.0429,0,0,0,.2715-.0458.956.956,0,0,0,.2764-.1207Z" fill="#fff"/>
    <path d="M24.4736,27.5107a1.6087,1.6087,0,0,0,.4561,1.1441,1.69,1.69,0,0,0,1.1973.3921,2.7539,2.7539,0,0,0,.8984-.1475,2.9317,2.9317,0,0,0,.7519-.3789v1.0474a2.7421,2.7421,0,0,1-.8378.333,4.6767,4.6767,0,0,1-1.1133.1289,2.4962,2.4962,0,0,1-1.938-.75,2.9612,2.9612,0,0,1-.6875-2.0811,3.32,3.32,0,0,1,.3408-1.5415,2.546,2.546,0,0,1,.9453-1.0288,2.51,2.51,0,0,1,1.33-.3677,2.2611,2.2611,0,0,1,1.7695.6983,2.7728,2.7728,0,0,1,.6309,1.9336v.6176Zm2.5088-.9345a1.4614,1.4614,0,0,0-.3066-.9991,1.0925,1.0925,0,0,0-.8594-.3437,1.1925,1.1925,0,0,0-.875.373,1.7254,1.7254,0,0,0-.4678.97Z" fill="#fff"/>
    <path d="M36.3652,29.8955V26.791a2.0852,2.0852,0,0,0-.247-1.1548.95.95,0,0,0-.8438-.36.9936.9936,0,0,0-.8213.4458,1.7632,1.7632,0,0,0-.333,1.0849v3.0884H32.88V26.6836q0-1.407-1.08-1.4072a.9962.9962,0,0,0-.835.4267,1.7973,1.7973,0,0,0-.3193,1.104v3.0884H29.4043v-5.5h1.2412v.8486h.0215a1.899,1.899,0,0,1,1.74-.9829,1.6736,1.6736,0,0,1,.9688.2847,1.5485,1.5485,0,0,1,.5937.7949,2.1915,2.1915,0,0,1,.7871-.8218,2.1127,2.1127,0,0,1,1.0606-.2578,1.6679,1.6679,0,0,1,1.3349.5318,2.58,2.58,0,0,1,.459,1.7026v3.4Z" fill="#fff"/>
    <path d="M8.6616,39.0957l-.6753-1.9443h-2.96l-.6446,1.9443H3.041l2.8-7.7021H7.2021l2.8106,7.7021Zm-2.145-6.5474H6.4858a3.0342,3.0342,0,0,1-.1084.5533l-1.0107,2.97H7.6353L6.62,33.1016A2.9857,2.9857,0,0,1,6.5166,32.5483Z" fill="#fff"/>
    <path d="M13.8154,34.8042a.9645.9645,0,0,0-.3042-.1289,1.44,1.44,0,0,0-.3867-.0591.978.978,0,0,0-.84.4619,2.07,2.07,0,0,0-.32,1.2031v2.8145H10.7729v-5.5h1.1915v1.0689h.0205a1.8289,1.8289,0,0,1,.5312-.8594,1.3444,1.3444,0,0,1,1.2993-.231Z" fill="#fff"/>
    <path d="M18.3145,38.8647a2.8658,2.8658,0,0,1-1.5.3653,2.6684,2.6684,0,0,1-1.3584-.3438,2.3757,2.3757,0,0,1-.9283-.9775,3.0051,3.0051,0,0,1-.3325-1.418,3.5065,3.5065,0,0,1,.3428-1.5845,2.4929,2.4929,0,0,1,.9951-1.0664,2.9664,2.9664,0,0,1,1.5137-.3784,3.3063,3.3063,0,0,1,.6958.0777,1.976,1.976,0,0,1,.5723.2016V34.917a1.9909,1.9909,0,0,0-1.2168-.44,1.5355,1.5355,0,0,0-1.2041.5185,2.0014,2.0014,0,0,0-.4615,1.3828,1.9336,1.9336,0,0,0,.4434,1.3482,1.5428,1.5428,0,0,0,1.2016.4887,1.818,1.818,0,0,0,.6138-.1235,2.37,2.37,0,0,0,.6236-.3384Z" fill="#fff"/>
    <path d="M22.9268,39.0957V35.9805a2.1279,2.1279,0,0,0-.24-1.1226.8617.8617,0,0,0-.7915-.3813,1.1177,1.1177,0,0,0-.897.4189,1.5839,1.5839,0,0,0-.3506,1.0527v3.1475H19.4565V30.9531h1.1914v3.502h.0206a1.8594,1.8594,0,0,1,1.6811-.9937,1.5942,1.5942,0,0,1,1.3276.5747,2.6585,2.6585,0,0,1,.4561,1.6812v3.3784Z" fill="#fff"/>
    <path d="M26.8691,31.6514a.677.677,0,0,1-.2148.51.72.72,0,0,1-.5176.2041.7125.7125,0,0,1-.5156-.2041.6809.6809,0,0,1-.2109-.51.6992.6992,0,0,1,.2128-.521.7089.7089,0,0,1,.5137-.21.701.701,0,0,1,.5235.2148A.7157.7157,0,0,1,26.8691,31.6514Zm-1.3418,7.4443v-5.5h1.1914v5.5Z" fill="#fff"/>
    <path d="M31.0273,39.042a1.4223,1.4223,0,0,1-.3837.126,2.4159,2.4159,0,0,1-.5332.062q-1.5528,0-1.5528-1.74v-2.895h-.876v-.999h.876V32.3281l1.1963-.3813v1.6489h1.2734v.999H29.7539v2.6641a1.1688,1.1688,0,0,0,.1807.7383.6941.6941,0,0,0,.5674.2177.9688.9688,0,0,0,.2607-.0459.8813.8813,0,0,0,.2646-.1206Z" fill="#fff"/>
    <path d="M32.8662,36.7109a1.6465,1.6465,0,0,0,.4385,1.1441,1.5817,1.5817,0,0,0,1.15.3921,2.5355,2.5355,0,0,0,.86-.1475,2.7644,2.7644,0,0,0,.7227-.3789v1.0474a2.56,2.56,0,0,1-.8047.333,4.3038,4.3038,0,0,1-1.0674.1289,2.3473,2.3473,0,0,1-1.8613-.7495,3.0389,3.0389,0,0,1-.66-2.0811,3.4368,3.4368,0,0,1,.3272-1.5415,2.51,2.51,0,0,1,.9082-1.0288,2.3342,2.3342,0,0,1,1.2754-.3677,2.13,2.13,0,0,1,1.6992.6983,2.8511,2.8511,0,0,1,.6055,1.9336v.6176Zm2.4082-.9345a1.4951,1.4951,0,0,0-.2939-.9991,1.0274,1.0274,0,0,0-.8252-.3437,1.1232,1.1232,0,0,0-.84.373,1.7615,1.7615,0,0,0-.4492.97Z" fill="#fff"/>
    <path d="M41.2334,38.8647a2.87,2.87,0,0,1-1.501.3653,2.6674,2.6674,0,0,1-1.3584-.3438,2.3718,2.3718,0,0,1-.9277-.9775,2.9924,2.9924,0,0,1-.333-1.418,3.5052,3.5052,0,0,1,.3428-1.5845,2.4929,2.4929,0,0,1,.9951-1.0664,2.9645,2.9645,0,0,1,1.5136-.3784,3.31,3.31,0,0,1,.6963.0777,1.99,1.99,0,0,1,.5723.2016V34.917a1.9918,1.9918,0,0,0-1.2168-.44,1.5356,1.5356,0,0,0-1.2041.5185,2.0021,2.0021,0,0,0-.4619,1.3828,1.9312,1.9312,0,0,0,.4433,1.3482,1.5425,1.5425,0,0,0,1.2012.4887,1.8215,1.8215,0,0,0,.6143-.1235,2.382,2.382,0,0,0,.624-.3384Z" fill="#fff"/>
    <path d="M45.1592,39.042a1.4233,1.4233,0,0,1-.3838.126,2.4152,2.4152,0,0,1-.5332.062q-1.5528,0-1.5527-1.74v-2.895h-.876v-.999h.876V32.3281l1.1962-.3813v1.6489h1.2735v.999H43.8857v2.6641a1.1688,1.1688,0,0,0,.1807.7383.6943.6943,0,0,0,.5674.2177.9681.9681,0,0,0,.2607-.0459.8831.8831,0,0,0,.2647-.1206Z" fill="#fff"/>
</svg>
