<svg version="1.1" id="Layer_1" xmlns="http://www.w3.org/2000/svg" xmlns:xlink="http://www.w3.org/1999/xlink" x="0px" y="0px"
	  viewBox="0 0 48 48" enable-background="new 0 0 48 48" xml:space="preserve">
<linearGradient id="SVGID_1_" gradientUnits="userSpaceOnUse" x1="6.25" y1="4.75" x2="41.75" y2="40.25">
	<stop  offset="0" style="stop-color:#73B4C8"/>
	<stop  offset="0.1747" style="stop-color:#6AAEC3"/>
	<stop  offset="0.4567" style="stop-color:#529EB5"/>
	<stop  offset="0.8089" style="stop-color:#2C839F"/>
	<stop  offset="1" style="stop-color:#147391"/>
</linearGradient>
<path fill="url(#SVGID_1_)" d="M36.5,45.5v-31L42,18l5.5-7.5l-6.502-5.689c-0.984-0.861-2.163-1.467-3.436-1.767L31,1.5L26,2
	c-1.375,0.125-2.625,0.125-4,0l-5-0.5l-6.562,1.544C9.165,3.343,7.986,3.95,7.002,4.811L0.5,10.5L6,18l5.5-3.5v31
	c0,0,4.689,1.765,9.556,0.903l5.888-1.178C31.051,44.328,36.5,45.5,36.5,45.5z"/>
<path fill="#8CC3D2" d="M31,1.5L26,2c-1.375,0.125-2.625,0.125-4,0l-5-0.5C18.353,10.756,29.37,10.438,31,1.5z"/>
<path fill="none" stroke="#147391" stroke-miterlimit="3.864" d="M17,1.5c1.353,9.256,12.37,8.938,14,0"/>
<path fill="none" stroke="#464646" stroke-linejoin="round" stroke-miterlimit="3.864" d="M36.5,45.5v-31L42,18l5.5-7.5
	l-6.502-5.689c-0.984-0.861-2.163-1.467-3.436-1.767L31,1.5L26,2c-1.375,0.125-2.625,0.125-4,0l-5-0.5l-6.562,1.544
	C9.165,3.343,7.986,3.95,7.002,4.811L0.5,10.5L6,18l5.5-3.5v31c0,0,4.689,1.765,9.556,0.903l5.888-1.178
	C31.051,44.328,36.5,45.5,36.5,45.5z"/>
</svg>
