<svg version="1.1" id="Layer_1" xmlns="http://www.w3.org/2000/svg" xmlns:xlink="http://www.w3.org/1999/xlink" x="0px" y="0px"
	 viewBox="0 0 48 48" enable-background="new 0 0 48 48" xml:space="preserve">
<linearGradient id="SVGID_1_" gradientUnits="userSpaceOnUse" x1="4.5" y1="4.5" x2="43.5" y2="43.5">
	<stop  offset="0" style="stop-color:#FFFFFF"/>
	<stop  offset="0.2284" style="stop-color:#FAFAFA"/>
	<stop  offset="0.4881" style="stop-color:#EDEDED"/>
	<stop  offset="0.7621" style="stop-color:#D7D6D6"/>
	<stop  offset="1" style="stop-color:#BDBCBC"/>
</linearGradient>
<rect x="4.5" y="4.5" fill="url(#SVGID_1_)" stroke="#464646" stroke-linecap="round" stroke-miterlimit="10" width="39" height="39"/>
<line fill="none" stroke="#BEBEBE" stroke-miterlimit="10" x1="12.5" y1="5" x2="12.5" y2="43"/>
<line fill="none" stroke="#BEBEBE" stroke-miterlimit="10" x1="20.5" y1="5" x2="20.5" y2="43"/>
<line fill="none" stroke="#BEBEBE" stroke-miterlimit="10" x1="28.5" y1="5" x2="28.5" y2="43"/>
<line fill="none" stroke="#BEBEBE" stroke-miterlimit="10" x1="36.5" y1="5" x2="36.5" y2="43"/>
<line fill="none" stroke="#BEBEBE" stroke-miterlimit="10" x1="43" y1="12.5" x2="5" y2="12.5"/>
<line fill="none" stroke="#BEBEBE" stroke-miterlimit="10" x1="43" y1="20.5" x2="5" y2="20.5"/>
<line fill="none" stroke="#BEBEBE" stroke-miterlimit="10" x1="43" y1="28.5" x2="5" y2="28.5"/>
<line fill="none" stroke="#BEBEBE" stroke-miterlimit="10" x1="43" y1="36.5" x2="5" y2="36.5"/>
<path fill="#6E6E6E" d="M7.6,41.5l-0.1-1c0,0,0.7-0.1,1.9-0.4l0.2,1C8.4,41.4,7.6,41.5,7.6,41.5z M11.5,40.6l-0.3-1
	c0.6-0.2,1.2-0.4,1.9-0.6l0.3,0.9C12.8,40.2,12.1,40.4,11.5,40.6z M15.4,39.2l-0.4-0.9c0.6-0.3,1.2-0.6,1.8-0.9l0.5,0.9
	C16.6,38.6,16,38.9,15.4,39.2z M18.9,37.2l-0.5-0.8c0.6-0.4,1.1-0.7,1.6-1.1l0.6,0.8C20.1,36.5,19.5,36.9,18.9,37.2z M22.2,34.8
	L21.5,34c0.5-0.4,1-0.9,1.4-1.4l0.7,0.7C23.2,33.8,22.7,34.3,22.2,34.8z M25,31.8l-0.8-0.6c0.1-0.2,0.3-0.4,0.4-0.5
	c0.3-0.4,0.5-0.7,0.8-1.1l0.8,0.6c-0.3,0.3-0.5,0.7-0.8,1C25.3,31.4,25.1,31.6,25,31.8z M27.5,28.7L26.7,28c0.5-0.5,1-1,1.5-1.4
	l0.6,0.8C28.4,27.8,27.9,28.3,27.5,28.7z M30.4,26.2l-0.6-0.8c0.6-0.4,1.1-0.8,1.7-1.1l0.5,0.9C31.5,25.5,31,25.8,30.4,26.2z
	 M33.8,24.3l-0.4-0.9c0.6-0.3,1.3-0.5,1.9-0.8l0.3,0.9C35,23.8,34.4,24,33.8,24.3z M37.5,23l-0.2-1c0.7-0.2,1.4-0.3,2-0.4l0.1,1
	C38.8,22.7,38.2,22.8,37.5,23z"/>
<linearGradient id="SVGID_2_" gradientUnits="userSpaceOnUse" x1="1.4002" y1="22.7004" x2="13.5999" y2="34.9002">
	<stop  offset="0" style="stop-color:#73B4C8"/>
	<stop  offset="0.1747" style="stop-color:#6AAEC3"/>
	<stop  offset="0.4567" style="stop-color:#529EB5"/>
	<stop  offset="0.8089" style="stop-color:#2C839F"/>
	<stop  offset="1" style="stop-color:#147391"/>
</linearGradient>
<path fill="url(#SVGID_2_)" stroke="#464646" stroke-linecap="round" stroke-linejoin="round" stroke-miterlimit="10" d="M14.5,26.5
	c0,3.9-7,14.5-7,14.5s-7-10.6-7-14.5c0-3.9,3.1-7,7-7C11.4,19.5,14.5,22.6,14.5,26.5z"/>
<circle fill="#FFFFFF" stroke="#147391" stroke-width="1.0002" stroke-linecap="round" stroke-linejoin="round" stroke-miterlimit="10" cx="7.5" cy="26.5" r="2"/>
<linearGradient id="SVGID_3_" gradientUnits="userSpaceOnUse" x1="34.4002" y1="3.7004" x2="46.5999" y2="15.9002">
	<stop  offset="0" style="stop-color:#73B4C8"/>
	<stop  offset="0.1747" style="stop-color:#6AAEC3"/>
	<stop  offset="0.4567" style="stop-color:#529EB5"/>
	<stop  offset="0.8089" style="stop-color:#2C839F"/>
	<stop  offset="1" style="stop-color:#147391"/>
</linearGradient>
<path fill="url(#SVGID_3_)" stroke="#464646" stroke-linecap="round" stroke-linejoin="round" stroke-miterlimit="10" d="M47.5,7.5
	c0,3.9-7,14.5-7,14.5s-7-10.6-7-14.5c0-3.9,3.1-7,7-7C44.4,0.5,47.5,3.6,47.5,7.5z"/>
<circle fill="#FFFFFF" stroke="#147391" stroke-width="1.0002" stroke-linecap="round" stroke-linejoin="round" stroke-miterlimit="10" cx="40.5" cy="7.5" r="2"/>
</svg>
