<svg id="Layer_1" data-name="Layer 1" xmlns="http://www.w3.org/2000/svg" xmlns:xlink="http://www.w3.org/1999/xlink" viewBox="0 0 48 48">
    <linearGradient id="paper_gradient" data-name="paper gradient" x1="7.103" y1="14.684" x2="32.892" y2="40.473" gradientUnits="userSpaceOnUse">
      <stop offset="0" stop-color="#fff"/>
      <stop offset="0.221" stop-color="#f8f8f8"/>
      <stop offset="0.541" stop-color="#e5e5e5"/>
      <stop offset="0.92" stop-color="#c6c6c6"/>
      <stop offset="1" stop-color="#bebebe"/>
    </linearGradient>
    <linearGradient id="linear-gradient" x1="26.161" y1="26.161" x2="43.839" y2="43.839" xlink:href="#paper_gradient"/>
    <polygon points="1.133 34.5 12.602 14.686 15.499 19.717 9.865 29.5 30.138 29.5 17.147 6.828 19.996 1.792 38.865 34.5 1.133 34.5" fill="url(#paper_gradient)"/>
    <path d="M20,2.8L38,34H2L12.6,15.686l2.321,4.031L9,30H31L17.723,6.827,20,2.8M19.991,0.784L19.13,2.308,16.852,6.334l-0.28.5,0.283,0.494L29.275,29H10.73l5.058-8.784,0.287-.5-0.287-.5-2.321-4.031-0.864-1.5-0.868,1.5L1.135,33.5,0.266,35H39.731l-0.865-1.5-18-31.2L19.991,0.784h0Z" fill="#464646"/>
  <circle cx="35" cy="35" r="12.5" stroke="#464646" stroke-miterlimit="10" fill="url(#linear-gradient)"/>
    <path d="M35,40.5A1.5,1.5,0,0,1,33.5,39v-1.73a4.416,4.416,0,0,1,2.547-4,2.5,2.5,0,0,0-.581-4.729A2.757,2.757,0,0,0,35,28.5a2.469,2.469,0,0,0-1.605.583A2.5,2.5,0,0,0,32.5,31a1.5,1.5,0,0,1-3,0,5.5,5.5,0,0,1,5.507-5.5,5.634,5.634,0,0,1,.978.086,5.5,5.5,0,0,1,1.322,10.407,1.406,1.406,0,0,0-.807,1.276V39A1.5,1.5,0,0,1,35,40.5Z" fill="#fff"/>
    <path d="M35.006,26a5.133,5.133,0,0,1,.891.078,5,5,0,0,1,1.2,9.461A1.908,1.908,0,0,0,36,37.269V39a1,1,0,0,1-2,0v-1.73a3.914,3.914,0,0,1,2.257-3.545,3,3,0,0,0-.705-5.676A3.251,3.251,0,0,0,35,28a3,3,0,0,0-3,3,1,1,0,0,1-2,0,5,5,0,0,1,5.006-5m0-1h0A6,6,0,0,0,29,31a2,2,0,0,0,4,0,2,2,0,0,1,.715-1.533A1.976,1.976,0,0,1,35,29a2.257,2.257,0,0,1,.382.033,2,2,0,0,1,.456,3.782A4.918,4.918,0,0,0,33,37.269V39a2,2,0,0,0,4,0v-1.73a0.9,0.9,0,0,1,.517-0.822A6,6,0,0,0,36.07,25.093,6.151,6.151,0,0,0,35.007,25h0Z" fill="#6e6e6e"/>
    <path d="M35,45a2.013,2.013,0,0,1-1.421-.6A1.983,1.983,0,0,1,35.006,41a2,2,0,0,1,1.413.566A2.017,2.017,0,0,1,35,45Z" fill="#fff"/>
    <path d="M35.005,41.5a1.49,1.49,0,0,1,1.059.419,1.518,1.518,0,0,1,0,2.128A1.506,1.506,0,1,1,35.005,41.5m0-1A2.459,2.459,0,0,0,32.5,42.991,2.518,2.518,0,1,0,35.005,40.5h0Z" fill="#6e6e6e"/>
</svg>
