<svg id="Layer_1" data-name="Layer 1" xmlns="http://www.w3.org/2000/svg" xmlns:xlink="http://www.w3.org/1999/xlink" viewBox="0 0 48 48">
    <linearGradient id="linear-gradient" x1="0.5" y1="0.5" x2="47.5" y2="47.5" gradientUnits="userSpaceOnUse">
      <stop offset="0" stop-color="#fff"/>
      <stop offset="0.2323" stop-color="#fafafa"/>
      <stop offset="0.4964" stop-color="#ededed"/>
      <stop offset="0.775" stop-color="#d6d6d6"/>
      <stop offset="1" stop-color="#bebebe"/>
    </linearGradient>
  <rect x="0.5" y="0.5" width="47" height="47" stroke="#464646" stroke-miterlimit="10" fill="url(#linear-gradient)"/>
    <rect x="25.5" y="15.5" width="15" height="3" fill="#3c91af"/>
    <path d="M40,16v2H26V16H40m1-1H25v4H41V15Z" fill="#147391"/>
      <path d="M13,42.5a.4989.4989,0,0,1-.4-.2l-6-8a.5.5,0,0,1,.0464-.6533l1-1a.5.5,0,0,1,.666-.0371L12.91,36.2871,21.6,24.7a.4982.4982,0,0,1,.3643-.1987L22,24.5a.499.499,0,0,1,.3535.1465l1,1a.5.5,0,0,1,.07.6186l-10,16a.4993.4993,0,0,1-.4028.2344Z" fill="#3c91af"/>
      <path d="M22,25l1,1L13,42,7,34l1-1,5,4,9-12m0-1q-.0354,0-.071.0025A1,1,0,0,0,21.2,24.4L12.819,35.5746,8.6247,32.2191a1,1,0,0,0-1.3318.0738l-1,1A1,1,0,0,0,6.2,34.6l6,8a1,1,0,0,0,.8.4l.0425-.0009a1,1,0,0,0,.8056-.4691l10-16a1,1,0,0,0-.1409-1.2371l-1-1A1,1,0,0,0,22,24Z" fill="#147391"/>
      <path d="M13,23.5a.4989.4989,0,0,1-.4-.2l-6-8a.5.5,0,0,1,.0464-.6533l1-1a.5.5,0,0,1,.666-.0371L12.91,17.2871,21.6,5.7a.4982.4982,0,0,1,.3643-.1987L22,5.5a.499.499,0,0,1,.3535.1465l1,1a.5.5,0,0,1,.07.6186l-10,16a.4993.4993,0,0,1-.4028.2344Z" fill="#3c91af"/>
      <path d="M22,6l1,1L13,23,7,15l1-1,5,4L22,6m0-1q-.0354,0-.071.0025A1,1,0,0,0,21.2,5.4L12.819,16.5746,8.6247,13.2191a1,1,0,0,0-1.3318.0738l-1,1A1,1,0,0,0,6.2,15.6l6,8a1,1,0,0,0,.8.4l.0425-.0009a1,1,0,0,0,.8056-.4691l10-16a1,1,0,0,0-.1409-1.2371l-1-1A1,1,0,0,0,22,5Z" fill="#147391"/>
    <rect x="25.5" y="34.5" width="15" height="3" fill="#3c91af"/>
    <path d="M40,35v2H26V35H40m1-1H25v4H41V34Z" fill="#147391"/>
</svg>
