<svg id="Layer_1" data-name="Layer 1" xmlns="http://www.w3.org/2000/svg" xmlns:xlink="http://www.w3.org/1999/xlink" viewBox="0 0 48 48">
  <defs>
    <linearGradient id="linear-gradient" x1="2.086" y1="19.985" x2="43.5" y2="-21.429" gradientTransform="matrix(1, 0, 0, -1, 0, 25.071)" gradientUnits="userSpaceOnUse">
      <stop offset="0" stop-color="#fff"/>
      <stop offset="1" stop-color="#bebebe"/>
    </linearGradient>
    <linearGradient id="linear-gradient-2" x1="13.446" y1="22.402" x2="23.73" y2="32.687" gradientUnits="userSpaceOnUse">
      <stop offset="0" stop-color="#f2f2f2"/>
      <stop offset="0.99" stop-color="#999"/>
    </linearGradient>
    <linearGradient id="linear-gradient-3" x1="25.573" y1="25.966" x2="38.149" y2="38.542" gradientUnits="userSpaceOnUse">
      <stop offset="0" stop-color="#73b4c8"/>
      <stop offset="1" stop-color="#147391"/>
    </linearGradient>
  </defs>
  <path d="M1.5,43.5h45v-33h-27L16.094,5.391A2,2,0,0,0,14.43,4.5H3.5a2,2,0,0,0-2,2Z" stroke="#464646" stroke-miterlimit="10" fill="url(#linear-gradient)"/>
  <path d="M32.478,19.794c0-.163-.082-.244-.244-.326h-.163c-.163,0-.244,0-.325.082l-2.927,2.927c-.023.025-.071.088-.116.088l-3.055.643-.081-.081-2.6-2.6c-.081-.081-.081-.081-.081-.162,0,0,.714-3.13.731-3.171.4-.956,2.927-2.927,2.927-2.927a.359.359,0,0,0,.082-.407c-.082-.081-.163-.243-.325-.243a3.952,3.952,0,0,0-.976-.082A7.125,7.125,0,0,0,20.2,15.647c-2.114,2.114-1.545,6.1-1.3,7.236,0,.081,0,.163-.081.163L7.68,32.8a3.873,3.873,0,0,0-1.138,2.764A4.068,4.068,0,0,0,7.68,38.412a4.211,4.211,0,0,0,2.846,1.138,3.944,3.944,0,0,0,2.845-1.219l9.594-10.976c.081-.082.081-.082.163-.082a15.566,15.566,0,0,0,2.683.244,6.484,6.484,0,0,0,4.634-1.544A7.5,7.5,0,0,0,32.478,19.794Zm-21.34,16.6a1.484,1.484,0,1,1,1.484-1.484A1.485,1.485,0,0,1,11.138,36.389Z" stroke="#6e6e6e" stroke-miterlimit="10" fill="url(#linear-gradient-2)"/>
  <path d="M37.758,34.432l.028-.014,2.973-1.054V31.145l-2.973-1.054a.356.356,0,0,1-.223-.451h0a.239.239,0,0,1,.015-.037l1.352-2.846-1.572-1.571-2.847,1.352a.356.356,0,0,1-.476-.165h0a.288.288,0,0,1-.013-.031l-1.055-2.956H30.746l-1.055,2.956a.36.36,0,0,1-.467.2l-.021-.009-2.848-1.352L24.79,26.758,26.143,29.6a.356.356,0,0,1-.171.473.239.239,0,0,1-.037.015l-2.971,1.053v2.22l2.973,1.053a.357.357,0,0,1,.224.451h0a.287.287,0,0,1-.015.037l-1.352,2.846,1.571,1.571,2.848-1.347a.356.356,0,0,1,.472.175h0a.3.3,0,0,1,.016.042l1.055,2.989h2.222l1.055-2.989a.348.348,0,0,1,.489-.223l2.847,1.352,1.572-1.571-1.353-2.846A.355.355,0,0,1,37.758,34.432Zm-5.9.342a2.491,2.491,0,1,1,2.492-2.49A2.491,2.491,0,0,1,31.86,34.774Z" stroke="#147391" stroke-linecap="round" stroke-linejoin="round" fill="url(#linear-gradient-3)"/>
  <circle cx="31.86" cy="32.283" r="2.427" fill="#fff" stroke="#147391" stroke-miterlimit="10" stroke-width="1.073"/>
  <circle cx="11.138" cy="34.905" r="1.518" fill="#fff" stroke="#6e6e6e" stroke-miterlimit="10" stroke-width="1.073"/>
</svg>
