<svg id="Layer_1" data-name="Layer 1" xmlns="http://www.w3.org/2000/svg" xmlns:xlink="http://www.w3.org/1999/xlink" viewBox="0 0 48 48">
    <linearGradient id="linear-gradient" x1="-5.75" y1="41.25" x2="31.25" y2="4.25" gradientTransform="matrix(1, 0, 0, -1, 0, 48)" gradientUnits="userSpaceOnUse">
      <stop offset="0" stop-color="#fff"/>
      <stop offset="0.232" stop-color="#fafafa"/>
      <stop offset="0.496" stop-color="#ededed"/>
      <stop offset="0.775" stop-color="#d6d6d6"/>
      <stop offset="1" stop-color="#bebebe"/>
    </linearGradient>
    <linearGradient id="paper_gradient" data-name="paper gradient" x1="16.75" y1="44.75" x2="27.75" y2="33.75" gradientTransform="matrix(1, 0, 0, -1, 0, 48)" gradientUnits="userSpaceOnUse">
      <stop offset="0" stop-color="#fff"/>
      <stop offset="0.221" stop-color="#f8f8f8"/>
      <stop offset="0.541" stop-color="#e5e5e5"/>
      <stop offset="0.92" stop-color="#c6c6c6"/>
      <stop offset="1" stop-color="#bebebe"/>
    </linearGradient>
    <linearGradient id="Dark_Blue_Grad" data-name="Dark Blue Grad" x1="26.172" y1="26.132" x2="43.826" y2="43.787" gradientUnits="userSpaceOnUse">
      <stop offset="0" stop-color="#73b4c8"/>
      <stop offset="0.175" stop-color="#6aaec3"/>
      <stop offset="0.457" stop-color="#529eb5"/>
      <stop offset="0.809" stop-color="#2c839f"/>
      <stop offset="1" stop-color="#147391"/>
    </linearGradient>
    <linearGradient id="paper_gradient-2" x1="32.526" y1="32.526" x2="37.474" y2="37.474" gradientTransform="matrix(1, 0, 0, 1, 0, 0)" xlink:href="#paper_gradient"/>
  <polygon points="19.5 0.5 0.5 0.5 0.5 44.5 30.5 44.5 30.5 11.5 19.5 0.5" stroke="#464646" stroke-miterlimit="10" fill="url(#linear-gradient)"/>
  <polygon points="19.5 0.5 19.5 11.5 30.5 11.5 19.5 0.5" stroke="#464646" stroke-linejoin="round" fill="url(#paper_gradient)"/>
  <rect x="3.5" y="17.5" width="24" height="15" fill="none" stroke="#5a5a5a"/>
  <line x1="7.5" y1="32.5" x2="7.5" y2="17.5" fill="none" stroke="#5a5a5a"/>
  <line x1="17.5" y1="32.5" x2="17.5" y2="17.5" fill="none" stroke="#5a5a5a"/>
  <line x1="3.5" y1="22.5" x2="27.5" y2="22.5" fill="none" stroke="#5a5a5a"/>
  <line x1="3.5" y1="27.5" x2="27.5" y2="27.5" fill="none" stroke="#5a5a5a"/>
  <path d="M43.324,38,47.5,36.519V33.4l-4.176-1.482a.5.5,0,0,1-.293-.685l1.9-3.995L42.723,25.03l-3.995,1.9a.5.5,0,0,1-.686-.275L36.56,22.5H33.44l-1.482,4.155a.506.506,0,0,1-.686.272l-4-1.9-2.207,2.207,1.9,4a.5.5,0,0,1-.291.686L22.5,33.4v3.12L26.676,38a.5.5,0,0,1,.293.686l-1.9,4,2.207,2.208L31.271,43a.5.5,0,0,1,.686.306l1.482,4.2H36.56l1.482-4.2a.488.488,0,0,1,.686-.314l4,1.9,2.207-2.207-1.9-4A.5.5,0,0,1,43.324,38Z" stroke="#464646" stroke-linejoin="round" fill="url(#Dark_Blue_Grad)"/>
  <circle cx="35" cy="35" r="3.5" stroke="#464646" stroke-miterlimit="10" fill="url(#paper_gradient-2)"/>
</svg>
