<svg id="Layer_1" data-name="Layer 1" xmlns="http://www.w3.org/2000/svg" xmlns:xlink="http://www.w3.org/1999/xlink" viewBox="0 0 48 48">
  <defs>
    <linearGradient id="paper_gradient" data-name="paper gradient" x1="243.375" y1="34.625" x2="224.125" y2="15.375" gradientTransform="translate(257 32) rotate(180)" gradientUnits="userSpaceOnUse">
      <stop offset="0" stop-color="#fff"/>
      <stop offset="0.2214" stop-color="#f8f8f8"/>
      <stop offset="0.5415" stop-color="#e5e5e5"/>
      <stop offset="0.92" stop-color="#c6c6c6"/>
      <stop offset="1" stop-color="#bebebe"/>
    </linearGradient>
    <linearGradient id="Dark_Blue_Grad" data-name="Dark Blue Grad" x1="10.125" y1="6.375" x2="29.375" y2="25.625" gradientUnits="userSpaceOnUse">
      <stop offset="0" stop-color="#73b4c8"/>
      <stop offset="0.1747" stop-color="#6aaec3"/>
      <stop offset="0.4567" stop-color="#529eb5"/>
      <stop offset="0.8089" stop-color="#2c839f"/>
      <stop offset="1" stop-color="#147391"/>
    </linearGradient>
    <linearGradient id="linear-gradient" x1="24.25" y1="26.25" x2="48.75" y2="1.75" gradientTransform="matrix(1, 0, 0, -1, 0, 48)" gradientUnits="userSpaceOnUse">
      <stop offset="0" stop-color="#fff"/>
      <stop offset="0.2323" stop-color="#fafafa"/>
      <stop offset="0.4964" stop-color="#ededed"/>
      <stop offset="0.775" stop-color="#d6d6d6"/>
      <stop offset="1" stop-color="#bebebe"/>
    </linearGradient>
    <linearGradient id="front_-45" data-name="front -45" x1="29.5" y1="25.5" x2="33.5" y2="29.5" gradientUnits="userSpaceOnUse">
      <stop offset="0" stop-color="#f2f2f2"/>
      <stop offset="0.5" stop-color="#ccc"/>
      <stop offset="0.6296" stop-color="#c7c7c7"/>
      <stop offset="0.7792" stop-color="#b9b9b9"/>
      <stop offset="0.9383" stop-color="#a2a2a2"/>
      <stop offset="0.99" stop-color="#999"/>
    </linearGradient>
    <linearGradient id="front_-45-2" x1="29.5" y1="32.5" x2="33.5" y2="36.5" xlink:href="#front_-45"/>
    <linearGradient id="front_-45-3" x1="29.5" y1="39.5" x2="33.5" y2="43.5" xlink:href="#front_-45"/>
  </defs>
  <polygon points="10.5 0.5 35.5 0.5 42.5 7 35.5 13.5 10.5 13.5 10.5 0.5" stroke="#464646" stroke-miterlimit="10" fill="url(#paper_gradient)"/>
  <polygon points="32.5 22.5 7.5 22.5 0.5 16 7.5 9.5 32.5 9.5 32.5 22.5" stroke="#464646" stroke-linejoin="round" fill="url(#Dark_Blue_Grad)"/>
    <rect x="25.5" y="20.5" width="22" height="27" stroke="#464646" stroke-miterlimit="10" fill="url(#linear-gradient)"/>
    <line x1="36" y1="27.5" x2="44" y2="27.5052" fill="none" stroke="#6e6e6e"/>
    <rect x="29.5" y="25.5" width="4" height="4" stroke="#969696" stroke-miterlimit="10" fill="url(#front_-45)"/>
    <line x1="36" y1="34.5" x2="44" y2="34.5052" fill="none" stroke="#6e6e6e"/>
    <line x1="36" y1="41.5" x2="44" y2="41.5052" fill="none" stroke="#6e6e6e"/>
    <polyline points="30.5 27.5 31.5 28.5 34.5 25.5" fill="none" stroke="#147391" stroke-linecap="round" stroke-linejoin="round"/>
    <rect x="29.5" y="32.5" width="4" height="4" stroke="#969696" stroke-miterlimit="10" fill="url(#front_-45-2)"/>
    <polyline points="30.5 34.5 31.5 35.5 34.5 32.5" fill="none" stroke="#147391" stroke-linecap="round" stroke-linejoin="round"/>
    <rect x="29.5" y="39.5" width="4" height="4" stroke="#969696" stroke-miterlimit="10" fill="url(#front_-45-3)"/>
    <polyline points="30.5 41.5 31.5 42.5 34.5 39.5" fill="none" stroke="#147391" stroke-linecap="round" stroke-linejoin="round"/>
</svg>
