<svg id="Layer_1" data-name="Layer 1" xmlns="http://www.w3.org/2000/svg" xmlns:xlink="http://www.w3.org/1999/xlink" viewBox="0 0 48 48">
  <defs>
    <linearGradient id="linear-gradient" x1="3.5" y1="-70.5" x2="45" y2="-112" gradientTransform="matrix(1, 0, 0, -1, 0, -64)" gradientUnits="userSpaceOnUse">
      <stop offset="0" stop-color="#fff"/>
      <stop offset="0.2323" stop-color="#fafafa"/>
      <stop offset="0.4964" stop-color="#ededed"/>
      <stop offset="0.775" stop-color="#d6d6d6"/>
      <stop offset="1" stop-color="#bebebe"/>
    </linearGradient>
    <linearGradient id="linear-gradient-2" x1="34.0001" y1="18" x2="21" y2="5" gradientUnits="userSpaceOnUse">
      <stop offset="0" stop-color="#147391"/>
      <stop offset="0.7793" stop-color="#73b4c8"/>
    </linearGradient>
    <linearGradient id="paper_gradient" data-name="paper gradient" x1="29.25" y1="-67.75" x2="42.25" y2="-80.75" gradientTransform="matrix(1, 0, 0, -1, 0, -64)" gradientUnits="userSpaceOnUse">
      <stop offset="0" stop-color="#fff"/>
      <stop offset="0.2214" stop-color="#f8f8f8"/>
      <stop offset="0.5415" stop-color="#e5e5e5"/>
      <stop offset="0.92" stop-color="#c6c6c6"/>
      <stop offset="1" stop-color="#bebebe"/>
    </linearGradient>
  </defs>
  <polygon points="32.5 0.5 9.5 0.5 9.5 47.5 45.5 47.5 45.5 13.5 32.5 0.5" stroke="#464646" stroke-miterlimit="10" fill="url(#linear-gradient)"/>
  <rect x="0.5" y="26.5" width="47" height="16" fill="#ad1c28" stroke="#464646" stroke-miterlimit="10"/>
    <path d="M8.6831,35.8633a1.9231,1.9231,0,0,1-.7251,1.5923,3.1712,3.1712,0,0,1-2.0249.5776,4.1777,4.1777,0,0,1-1.0312-.14,2.725,2.725,0,0,1-.8057-.3116V36.1855a2.8105,2.8105,0,0,0,.8916.5372,2.9184,2.9184,0,0,0,1.085.22,1.4845,1.4845,0,0,0,.9155-.2442.8411.8411,0,0,0,.32-.7119,1.0452,1.0452,0,0,0-.3169-.7358,5.0539,5.0539,0,0,0-1.2031-.8057,4.0892,4.0892,0,0,1-1.2944-.98,1.9156,1.9156,0,0,1-.4244-1.2436,1.9767,1.9767,0,0,1,.3223-1.1089,2.1405,2.1405,0,0,1,.9238-.7686A3.2364,3.2364,0,0,1,6.68,30.0679a4.9962,4.9962,0,0,1,.9829.0967,3.0053,3.0053,0,0,1,.6875.1987v1.3428a2.2962,2.2962,0,0,0-.7544-.4,2.8746,2.8746,0,0,0-.9053-.148,1.44,1.44,0,0,0-.916.2686.8484.8484,0,0,0-.3408.6982,1.095,1.095,0,0,0,.1128.5156,1.3211,1.3211,0,0,0,.3545.4082,6.1187,6.1187,0,0,0,.8755.5264A4.7735,4.7735,0,0,1,8.24,34.6411,1.8634,1.8634,0,0,1,8.6831,35.8633Z" fill="#fff"/>
    <path d="M15.0049,37.8989l-.7036-1.9443h-3.083l-.6714,1.9443H9.15l2.9165-7.7021h1.418l2.9272,7.7021Zm-2.2344-6.5473h-.0322a2.8577,2.8577,0,0,1-.1128.5532l-1.0527,2.97H13.936l-1.0581-2.97A2.8858,2.8858,0,0,1,12.7705,31.3516Z" fill="#fff"/>
    <line x1="38" y1="16.4999" x2="18" y2="16.4999" fill="none" stroke="silver" stroke-miterlimit="10"/>
    <line x1="38" y1="20.4999" x2="18" y2="20.4999" fill="none" stroke="silver" stroke-miterlimit="10"/>
    <line x1="38" y1="24.4999" x2="18" y2="24.4999" fill="none" stroke="silver" stroke-miterlimit="10"/>
    <line x1="17.5" y1="14.5" x2="17.5" y2="26" fill="none" stroke="#6e6e6e" stroke-miterlimit="10"/>
    <line x1="21.5" y1="14.5" x2="21.5" y2="26" fill="none" stroke="silver" stroke-miterlimit="10"/>
    <line x1="25.5" y1="14.5" x2="25.5" y2="26" fill="none" stroke="silver" stroke-miterlimit="10"/>
    <line x1="29.5" y1="14.5" x2="29.5" y2="26" fill="none" stroke="silver" stroke-miterlimit="10"/>
    <line x1="33.5" y1="14.5" x2="33.5" y2="26" fill="none" stroke="silver" stroke-miterlimit="10"/>
    <line x1="37.5" y1="14.5" x2="37.5" y2="25.9998" fill="none" stroke="#6e6e6e" stroke-miterlimit="10"/>
  <rect x="17.5" y="8.5" width="20.0001" height="6" stroke="#147391" stroke-linecap="round" stroke-miterlimit="10" fill="url(#linear-gradient-2)"/>
  <line x1="21.5" y1="8.9999" x2="21.5" y2="15" fill="none" stroke="#257d99" stroke-miterlimit="10"/>
  <line x1="25.5" y1="8.9999" x2="25.5" y2="15" fill="none" stroke="#257d99" stroke-miterlimit="10"/>
  <line x1="29.5" y1="8.9999" x2="29.5" y2="15" fill="none" stroke="#257d99" stroke-miterlimit="10"/>
  <line x1="33.5" y1="13.5" x2="33.5" y2="15" fill="none" stroke="#257d99" stroke-miterlimit="10" stroke-width="1"/>
  <line x1="32.5" y1="12.5" x2="18" y2="12.5" fill="none" stroke="#257d99" stroke-miterlimit="10"/>
  <polygon points="32.5 0.5 32.5 13.5 45.5 13.5 32.5 0.5" stroke="#464646" stroke-linejoin="round" fill="url(#paper_gradient)"/>
</svg>
