<svg id="Layer_1" data-name="Layer 1" xmlns="http://www.w3.org/2000/svg" xmlns:xlink="http://www.w3.org/1999/xlink" viewBox="0 0 48 48">
    <linearGradient id="linear-gradient" x1="3.75" y1="-80.25" x2="45.25" y2="-121.75" gradientTransform="matrix(1, 0, 0, -1, 0, -74)" gradientUnits="userSpaceOnUse">
      <stop offset="0" stop-color="#fff"/>
      <stop offset="0.2323" stop-color="#fafafa"/>
      <stop offset="0.4964" stop-color="#ededed"/>
      <stop offset="0.775" stop-color="#d6d6d6"/>
      <stop offset="1" stop-color="#bebebe"/>
    </linearGradient>
    <linearGradient id="linear-gradient-2" x1="18.0976" y1="2.6314" x2="35.2669" y2="19.8006" gradientTransform="matrix(1, 0, 0, 1, 0, 0)" xlink:href="#linear-gradient"/>
    <linearGradient id="paper_gradient" data-name="paper gradient" x1="21.697" y1="4.4525" x2="34.6603" y2="17.4159" gradientUnits="userSpaceOnUse">
      <stop offset="0" stop-color="#fff"/>
      <stop offset="0.2214" stop-color="#f8f8f8"/>
      <stop offset="0.5415" stop-color="#e5e5e5"/>
      <stop offset="0.92" stop-color="#c6c6c6"/>
      <stop offset="1" stop-color="#bebebe"/>
    </linearGradient>
    <linearGradient id="linear-gradient-3" x1="17" y1="10" x2="38" y2="31" gradientTransform="matrix(1, 0, 0, 1, 0, 0)" xlink:href="#linear-gradient"/>
    <linearGradient id="paper_gradient-2" x1="30.5" y1="-77.5" x2="42.5" y2="-89.5" gradientTransform="matrix(1, 0, 0, -1, 0, -74)" xlink:href="#paper_gradient"/>
    <linearGradient id="linear-gradient-4" x1="26.4997" y1="16.75" x2="30.4997" y2="20.75" gradientUnits="userSpaceOnUse">
      <stop offset="0" stop-color="#cde6eb"/>
      <stop offset="0.2214" stop-color="#c6e2e8"/>
      <stop offset="0.5419" stop-color="#b3d8e1"/>
      <stop offset="0.9212" stop-color="#93c7d5"/>
      <stop offset="1" stop-color="#8cc3d2"/>
    </linearGradient>
    <linearGradient id="linear-gradient-5" x1="23.7497" y1="19.5" x2="29.2497" y2="25" gradientUnits="userSpaceOnUse">
      <stop offset="0" stop-color="#afd7e1"/>
      <stop offset="0.1588" stop-color="#a4d0dc"/>
      <stop offset="0.7059" stop-color="#80bcce"/>
      <stop offset="1" stop-color="#73b4c8"/>
    </linearGradient>
  <polyline points="33.5 0.5 9.5 0.5 9.5 47.5 45.5 47.5 45.5 12.5" stroke="#464646" stroke-miterlimit="10" fill="url(#linear-gradient)"/>
  <path d="M41.5,13.5675V10.5H24.9622L22.5805,7.0541A1.2445,1.2445,0,0,0,21.545,6.5H14.7444A1.2445,1.2445,0,0,0,13.5,7.7444v5.8231" stroke="#6e6e6e" stroke-miterlimit="10" fill="url(#linear-gradient-2)"/>
  <polyline points="16.838 13.568 16.065 10.084 36.718 5.5 38.509 13.568" stroke="#6e6e6e" stroke-miterlimit="10" fill="url(#paper_gradient)"/>
  <polyline points="41.5 27.5 41.5 13.5 13.5 13.5 13.5 27.5" stroke="#6e6e6e" stroke-miterlimit="10" fill="url(#linear-gradient-3)"/>
  <polygon points="33.5 0.5 33.5 12.5 45.5 12.5 33.5 0.5" stroke="#464646" stroke-linejoin="round" fill="url(#paper_gradient-2)"/>
  <line x1="21" y1="21.5" x2="36" y2="21.5" fill="none" stroke="#969696" stroke-linejoin="round"/>
  <line x1="28.5" y1="14" x2="28.5" y2="27.5" fill="none" stroke="#969696" stroke-linejoin="round"/>
    <polygon points="32.5 18.75 28.5 16.25 24.5 18.75 28.5 21.25 32.5 18.75" fill="url(#linear-gradient-4)"/>
    <polygon points="24.5 18.75 24.5 23.25 28.5 25.75 28.5 21.25 24.5 18.75" fill="url(#linear-gradient-5)"/>
    <polygon points="28.5 21.25 28.5 25.75 32.5 23.25 32.5 18.75 28.5 21.25" fill="#3c91af"/>
    <polyline points="24.5 18.75 28.5 21.25 32.5 18.75" fill="none" stroke="#147391"/>
    <line x1="28.4997" y1="21" x2="28.4997" y2="25.5" fill="none" stroke="#147391" stroke-width="0.875"/>
    <path d="M28.5,16.25l-4,2.5v4.5l4,2.5,4-2.5v-4.5Z" fill="none" stroke="#147391" stroke-linejoin="round"/>
  <rect x="0.5" y="27.5" width="47" height="16" fill="#8f6731" stroke="#464646" stroke-miterlimit="10"/>
    <path d="M9.8379,38.6509a3.5893,3.5893,0,0,1-.9854.3384,5.8957,5.8957,0,0,1-1.206.1235,3.93,3.93,0,0,1-1.96-.4751,3.17,3.17,0,0,1-1.289-1.3486,4.3461,4.3461,0,0,1-.4458-2.0059,4.4327,4.4327,0,0,1,.5156-2.1484A3.6233,3.6233,0,0,1,5.9092,31.666a4.1318,4.1318,0,0,1,2.0542-.5185,6.5741,6.5741,0,0,1,1.0044.0805,3.4453,3.4453,0,0,1,.87.2364v1.3a3.5549,3.5549,0,0,0-1.8369-.4834,2.7624,2.7624,0,0,0-1.41.36,2.4318,2.4318,0,0,0-.9585,1.0235,3.3515,3.3515,0,0,0-.3384,1.5439,2.8467,2.8467,0,0,0,.6983,2.0249A2.4308,2.4308,0,0,0,7.856,37.98a3.599,3.599,0,0,0,1.9819-.5425Z" fill="#fff"/>
    <path d="M13.8716,38.9785v-.7573H13.85a1.8292,1.8292,0,0,1-1.6274.8916,1.79,1.79,0,0,1-1.2784-.44,1.56,1.56,0,0,1-.4672-1.1924,1.7,1.7,0,0,1,.4565-1.2407,2.2032,2.2032,0,0,1,1.3428-.58l1.6059-.22q0-1.1229-1.042-1.1226a2.9529,2.9529,0,0,0-.98.1665,3.1008,3.1008,0,0,0-.8457.4458V33.833a3.146,3.146,0,0,1,.8886-.3384,4.4013,4.4013,0,0,1,1.0664-.15,2.1249,2.1249,0,0,1,1.5928.55,2.2057,2.2057,0,0,1,.5342,1.5982v3.4858Zm-2.1753-1.6274a.6972.6972,0,0,0,.2578.5669.9985.9985,0,0,0,.6553.2119,1.2041,1.2041,0,0,0,.9131-.3789,1.3282,1.3282,0,0,0,.36-.9531v-.4942l-1.187.1558a1.5,1.5,0,0,0-.7817.2793A.791.791,0,0,0,11.6963,37.3511Z" fill="#fff"/>
    <path d="M23.2554,38.9785V35.874a2.0886,2.0886,0,0,0-.2471-1.1548.9493.9493,0,0,0-.8433-.36.9943.9943,0,0,0-.8217.4458A1.76,1.76,0,0,0,21.01,35.89v3.0884H19.77V35.7666q0-1.407-1.08-1.4072a.9962.9962,0,0,0-.8349.4267,1.7935,1.7935,0,0,0-.32,1.104v3.0884H16.2944v-5.5h1.2408v.8486h.0214a1.9,1.9,0,0,1,1.74-.9829,1.6738,1.6738,0,0,1,.9692.2847,1.5465,1.5465,0,0,1,.5938.7949,2.1935,2.1935,0,0,1,.7871-.8217,2.1084,2.1084,0,0,1,1.0605-.2579,1.669,1.669,0,0,1,1.335.5318,2.5812,2.5812,0,0,1,.459,1.7026v3.4Z" fill="#fff"/>
    <path d="M26.7187,36.5938a1.6091,1.6091,0,0,0,.4571,1.144,1.69,1.69,0,0,0,1.1972.3921,2.7545,2.7545,0,0,0,.8985-.1475,2.9317,2.9317,0,0,0,.7519-.3789v1.0474a2.7418,2.7418,0,0,1-.8379.333,4.6753,4.6753,0,0,1-1.1132.1289,2.4929,2.4929,0,0,1-1.9375-.7495,2.9587,2.9587,0,0,1-.6875-2.0811,3.325,3.325,0,0,1,.34-1.5415,2.553,2.553,0,0,1,.9453-1.0288,2.5126,2.5126,0,0,1,1.33-.3677,2.2611,2.2611,0,0,1,1.77.6983,2.7728,2.7728,0,0,1,.6309,1.9336v.6177Zm2.51-.9346a1.4609,1.4609,0,0,0-.3066-.999,1.0926,1.0926,0,0,0-.8594-.3438,1.1922,1.1922,0,0,0-.875.3731,1.7233,1.7233,0,0,0-.4688.97Z" fill="#fff"/>
    <path d="M36.6777,36.1748a2.9461,2.9461,0,0,1-.7734,2.1377,2.7821,2.7821,0,0,1-2.1.8,2.7279,2.7279,0,0,1-2.0274-.76,2.7938,2.7938,0,0,1-.7548-2.0595,2.9527,2.9527,0,0,1,.7734-2.1592,2.8621,2.8621,0,0,1,2.1436-.79,2.661,2.661,0,0,1,2.0136.7544A2.8728,2.8728,0,0,1,36.6777,36.1748Zm-1.289.043a2.0734,2.0734,0,0,0-.4053-1.3858,1.3913,1.3913,0,0,0-1.1143-.4726,1.412,1.412,0,0,0-1.1445.4941,2.1185,2.1185,0,0,0-.4131,1.3965,2.0389,2.0389,0,0,0,.4131,1.3613,1.4358,1.4358,0,0,0,1.1553.4864,1.355,1.355,0,0,0,1.1279-.4781A2.2125,2.2125,0,0,0,35.3887,36.2178Z" fill="#fff"/>
</svg>
