<svg id="Layer_1" data-name="Layer 1" xmlns="http://www.w3.org/2000/svg" xmlns:xlink="http://www.w3.org/1999/xlink" viewBox="0 0 48 48">
    <linearGradient id="linear-gradient" x1="3.5" y1="3.5" x2="47.5" y2="47.5" gradientUnits="userSpaceOnUse">
      <stop offset="0" stop-color="#fff"/>
      <stop offset="0.248" stop-color="#f8f8f8"/>
      <stop offset="0.606" stop-color="#e5e5e5"/>
      <stop offset="1" stop-color="#c8c8c8"/>
    </linearGradient>
    <linearGradient id="Dark_Blue_Grad" data-name="Dark Blue Grad" x1="13.75" y1="11.25" x2="28.25" y2="25.75" gradientUnits="userSpaceOnUse">
      <stop offset="0" stop-color="#73b4c8"/>
      <stop offset="0.175" stop-color="#6aaec3"/>
      <stop offset="0.457" stop-color="#529eb5"/>
      <stop offset="0.809" stop-color="#2c839f"/>
      <stop offset="1" stop-color="#147391"/>
    </linearGradient>
  <path d="M26.5.5a5,5,0,0,1-10,0H6.5l-6,6v41h47V.5Z" stroke="#464646" stroke-miterlimit="10" fill="url(#linear-gradient)"/>
  <rect x="14.5" y="10.5" width="13" height="16" stroke="#147391" stroke-miterlimit="10" fill="url(#Dark_Blue_Grad)"/>
  <polyline points="12.5 12.5 9.5 12.5 7 10" fill="none" stroke="#147391" stroke-linejoin="round"/>
  <polyline points="12.5 24.5 9.5 24.5 5.5 28.5 5.5 30.5" fill="none" stroke="#147391" stroke-linejoin="round"/>
  <polyline points="12.5 18.5 9.5 18.5 7 16" fill="none" stroke="#147391" stroke-linejoin="round"/>
  <rect x="12.5" y="11.5" width="2" height="2" fill="none" stroke="#147391" stroke-miterlimit="10"/>
  <rect x="12.5" y="17.5" width="2" height="2" fill="none" stroke="#147391" stroke-miterlimit="10"/>
  <rect x="12.5" y="23.5" width="2" height="2" fill="none" stroke="#147391" stroke-miterlimit="10"/>
  <circle cx="5.5" cy="32.5" r="2" fill="none" stroke="#147391" stroke-miterlimit="10"/>
  <circle cx="5.5" cy="40.5" r="2" fill="none" stroke="#147391" stroke-miterlimit="10"/>
  <circle cx="17.5" cy="40.5" r="2" fill="none" stroke="#147391" stroke-miterlimit="10"/>
  <circle cx="5.5" cy="14.5" r="2" fill="none" stroke="#147391" stroke-miterlimit="10"/>
  <circle cx="5.5" cy="8.5" r="2" fill="none" stroke="#147391" stroke-miterlimit="10"/>
  <polyline points="29.5 18.5 37.5 18.5 43.5 12.5 43.5 7.5" fill="none" stroke="#147391" stroke-linejoin="round"/>
  <polyline points="42.5 32.5 42.5 28.5 38.5 24.5 29.5 24.5" fill="none" stroke="#147391" stroke-linejoin="round"/>
  <circle cx="43.5" cy="5.5" r="2" fill="none" stroke="#147391" stroke-miterlimit="10"/>
  <polyline points="29.5 12.5 34.5 12.5 37.5 9.5 37.5 7.5" fill="none" stroke="#147391" stroke-linejoin="round"/>
  <circle cx="37.5" cy="5.5" r="2" fill="none" stroke="#147391" stroke-miterlimit="10"/>
  <circle cx="42.5" cy="34.5" r="2" fill="none" stroke="#147391" stroke-miterlimit="10"/>
  <circle cx="13.5" cy="32.5" r="2" fill="none" stroke="#147391" stroke-miterlimit="10"/>
  <circle cx="27.5" cy="40.5" r="2" fill="none" stroke="#147391" stroke-miterlimit="10"/>
  <polyline points="26.086 39.086 19.5 32.5 15.5 32.5" fill="none" stroke="#147391" stroke-linejoin="round"/>
  <rect x="27.5" y="11.5" width="2" height="2" fill="none" stroke="#147391" stroke-miterlimit="10"/>
  <rect x="27.5" y="17.5" width="2" height="2" fill="none" stroke="#147391" stroke-miterlimit="10"/>
  <rect x="27.5" y="23.5" width="2" height="2" fill="none" stroke="#147391" stroke-miterlimit="10"/>
  <line x1="7.5" y1="40.5" x2="15.5" y2="40.5" fill="none" stroke="#147391" stroke-linejoin="round"/>
  <circle cx="35.5" cy="29.5" r="2" fill="none" stroke="#147391" stroke-miterlimit="10"/>
  <circle cx="35.5" cy="40.5" r="2" fill="none" stroke="#147391" stroke-miterlimit="10"/>
  <line x1="35.5" y1="31.5" x2="35.5" y2="38.5" fill="none" stroke="#147391" stroke-linejoin="round"/>
</svg>
