<svg id="Layer_1" data-name="Layer 1" xmlns="http://www.w3.org/2000/svg" xmlns:xlink="http://www.w3.org/1999/xlink" viewBox="0 0 48 48">
    <linearGradient id="linear-gradient" x1="8.711" y1="-1.539" x2="36.875" y2="26.625" gradientUnits="userSpaceOnUse">
      <stop offset="0" stop-color="#fff"/>
      <stop offset="0.232" stop-color="#fafafa"/>
      <stop offset="0.496" stop-color="#ededed"/>
      <stop offset="0.775" stop-color="#d6d6d6"/>
      <stop offset="1" stop-color="#bebebe"/>
    </linearGradient>
    <linearGradient id="paper_gradient" data-name="paper gradient" x1="14.674" y1="1.817" x2="35.508" y2="22.651" gradientUnits="userSpaceOnUse">
      <stop offset="0" stop-color="#fff"/>
      <stop offset="0.221" stop-color="#f8f8f8"/>
      <stop offset="0.541" stop-color="#e5e5e5"/>
      <stop offset="0.92" stop-color="#c6c6c6"/>
      <stop offset="1" stop-color="#bebebe"/>
    </linearGradient>
    <linearGradient id="linear-gradient-2" x1="6" y1="12" x2="42" y2="48" xlink:href="#linear-gradient"/>
    <linearGradient id="linear-gradient-3" x1="15.149" y1="22.256" x2="32.87" y2="39.977" xlink:href="#linear-gradient"/>
    <linearGradient id="linear-gradient-4" x1="22.232" y1="29.232" x2="25.768" y2="32.768" gradientUnits="userSpaceOnUse">
      <stop offset="0" stop-color="#73b4c8"/>
      <stop offset="0.175" stop-color="#6aaec3"/>
      <stop offset="0.457" stop-color="#529eb5"/>
      <stop offset="0.809" stop-color="#2c839f"/>
      <stop offset="1" stop-color="#147391"/>
    </linearGradient>
  <path d="M46.5,17V10.5h-27L16.094,5.391A2,2,0,0,0,14.43,4.5H3.5a2,2,0,0,0-2,2V17" stroke="#464646" stroke-miterlimit="10" fill="url(#linear-gradient)"/>
  <polyline points="6.865 16.466 5.622 10.868 38.815 3.5 41.693 16.466" stroke="#464646" stroke-miterlimit="10" fill="url(#paper_gradient)"/>
  <rect x="1.5" y="16.5" width="45" height="27" stroke="#464646" stroke-miterlimit="10" fill="url(#linear-gradient-2)"/>
  <path d="M16.647,41.294,19.5,38.5h9l2.853,2.794A12.949,12.949,0,0,0,36.5,31.007a12.5,12.5,0,1,0-25,.089A12.778,12.778,0,0,0,16.647,41.294Z" stroke="#6e6e6e" stroke-miterlimit="10" fill="url(#linear-gradient-3)"/>
  <line x1="22" y1="29" x2="18.5" y2="25.5" fill="none" stroke="#147391"/>
  <circle cx="24" cy="31" r="2.5" stroke="#147391" stroke-miterlimit="10" fill="url(#linear-gradient-4)"/>
</svg>
