<svg id="Layer_1" data-name="Layer 1" xmlns="http://www.w3.org/2000/svg" xmlns:xlink="http://www.w3.org/1999/xlink" viewBox="0 0 48 48">
    <linearGradient id="linear-gradient" x1="3.5" y1="41.5" x2="45" gradientTransform="matrix(1, 0, 0, -1, 0, 48)" gradientUnits="userSpaceOnUse">
      <stop offset="0" stop-color="#fff"/>
      <stop offset="0.232" stop-color="#fafafa"/>
      <stop offset="0.496" stop-color="#ededed"/>
      <stop offset="0.775" stop-color="#d6d6d6"/>
      <stop offset="1" stop-color="#bebebe"/>
    </linearGradient>
    <linearGradient id="paper_gradient" data-name="paper gradient" x1="29.25" y1="44.25" x2="42.25" y2="31.25" gradientTransform="matrix(1, 0, 0, -1, 0, 48)" gradientUnits="userSpaceOnUse">
      <stop offset="0" stop-color="#fff"/>
      <stop offset="0.221" stop-color="#f8f8f8"/>
      <stop offset="0.541" stop-color="#e5e5e5"/>
      <stop offset="0.92" stop-color="#c6c6c6"/>
      <stop offset="1" stop-color="#bebebe"/>
    </linearGradient>
  <polygon points="32.5 0.5 9.5 0.5 9.5 47.5 45.5 47.5 45.5 13.5 32.5 0.5" stroke="#464646" stroke-miterlimit="10" fill="url(#linear-gradient)"/>
  <polygon points="32.5 0.5 32.5 13.5 45.5 13.5 32.5 0.5" stroke="#464646" stroke-linejoin="round" fill="url(#paper_gradient)"/>
  <rect x="0.5" y="26.5" width="47" height="16" fill="#005578" stroke="#464646" stroke-miterlimit="10"/>
    <path d="M8.9,37.979l-.7-1.945H5.111l-.672,1.945h-1.4l2.916-7.7H7.377l2.928,7.7ZM6.663,31.431H6.631a2.869,2.869,0,0,1-.113.553L5.465,34.955H7.829L6.771,31.984A2.852,2.852,0,0,1,6.663,31.431Z" fill="#fff"/>
    <path d="M18.4,37.979v-4.9q0-.56.064-1.655h-.021a4.859,4.859,0,0,1-.22.86l-2.331,5.7h-.833l-2.347-5.646c-.061-.189-.134-.494-.22-.913h-.033q.016.145.035.758c.013.408.019.76.019,1.058v4.743H11.325v-7.7h1.826l1.961,4.867a6.58,6.58,0,0,1,.349,1.063h.032l.408-1.074,2.015-4.856h1.751v7.7Z" fill="#fff"/>
    <path d="M21.611,37.979v-7.7h4.168v1.1h-2.89v2.17h2.685v1.1H22.889v2.234h3.066v1.1Z" fill="#fff"/>
    <path d="M31.505,35.943a1.921,1.921,0,0,1-.726,1.592,3.17,3.17,0,0,1-2.024.578,4.188,4.188,0,0,1-1.031-.14,2.745,2.745,0,0,1-.807-.311v-1.4a2.81,2.81,0,0,0,.893.537,2.911,2.911,0,0,0,1.084.22,1.482,1.482,0,0,0,.916-.244.844.844,0,0,0,.32-.712,1.047,1.047,0,0,0-.318-.735,4.993,4.993,0,0,0-1.2-.806,4.084,4.084,0,0,1-1.294-.98,1.916,1.916,0,0,1-.424-1.244,1.979,1.979,0,0,1,.322-1.109,2.131,2.131,0,0,1,.924-.768,3.233,3.233,0,0,1,1.364-.277,5.023,5.023,0,0,1,.982.1,3.02,3.02,0,0,1,.688.2v1.343a2.27,2.27,0,0,0-.754-.4,2.864,2.864,0,0,0-.905-.148,1.441,1.441,0,0,0-.916.268.848.848,0,0,0-.341.7,1.085,1.085,0,0,0,.113.515,1.31,1.31,0,0,0,.354.408,6.11,6.11,0,0,0,.876.527,4.767,4.767,0,0,1,1.464,1.066A1.866,1.866,0,0,1,31.505,35.943Z" fill="#fff"/>
    <path d="M34.174,30.534a.661.661,0,0,1-.223.51.767.767,0,0,1-.54.2.758.758,0,0,1-.537-.2.67.67,0,0,1-.221-.51.69.69,0,0,1,.224-.521.753.753,0,0,1,.534-.209.739.739,0,0,1,.545.215A.693.693,0,0,1,34.174,30.534Zm-1.4,7.445v-5.5h1.242v5.5Z" fill="#fff"/>
    <path d="M42.665,37.979v-3.1a2.086,2.086,0,0,0-.247-1.155.949.949,0,0,0-.844-.36,1,1,0,0,0-.821.446,1.763,1.763,0,0,0-.333,1.085v3.089H39.18V34.767q0-1.407-1.08-1.408a1,1,0,0,0-.835.427,1.8,1.8,0,0,0-.32,1.1v3.089H35.7v-5.5h1.241v.848h.022a1.9,1.9,0,0,1,1.74-.983,1.675,1.675,0,0,1,.969.285,1.553,1.553,0,0,1,.594.8,2.185,2.185,0,0,1,.787-.822,2.107,2.107,0,0,1,1.06-.258,1.666,1.666,0,0,1,1.335.532,2.579,2.579,0,0,1,.459,1.7v3.4Z" fill="#fff"/>
</svg>
