<svg id="Layer_1" data-name="Layer 1" xmlns="http://www.w3.org/2000/svg" xmlns:xlink="http://www.w3.org/1999/xlink" viewBox="0 0 48 48">
    <linearGradient id="paper_gradient" data-name="paper gradient" x1="0.5" y1="0.5" x2="46.5" y2="46.5" gradientUnits="userSpaceOnUse">
      <stop offset="0" stop-color="#fff"/>
      <stop offset="0.221" stop-color="#f8f8f8"/>
      <stop offset="0.541" stop-color="#e5e5e5"/>
      <stop offset="0.92" stop-color="#c6c6c6"/>
      <stop offset="1" stop-color="#bebebe"/>
    </linearGradient>
    <linearGradient id="New_Gradient_Swatch_1" data-name="New Gradient Swatch 1" x1="15.5" y1="6.445" x2="31.5" y2="22.445" gradientUnits="userSpaceOnUse">
      <stop offset="0" stop-color="#cde6eb"/>
      <stop offset="0.221" stop-color="#c6e2e8"/>
      <stop offset="0.542" stop-color="#b3d8e1"/>
      <stop offset="0.921" stop-color="#93c7d5"/>
      <stop offset="1" stop-color="#8cc3d2"/>
    </linearGradient>
    <linearGradient id="linear-gradient" x1="4.583" y1="17.362" x2="26.417" y2="39.197" gradientUnits="userSpaceOnUse">
      <stop offset="0" stop-color="#afd7e1"/>
      <stop offset="0.159" stop-color="#a4d0dc"/>
      <stop offset="0.706" stop-color="#80bcce"/>
      <stop offset="1" stop-color="#73b4c8"/>
    </linearGradient>
    <linearGradient id="linear-gradient-2" x1="18.896" y1="28.302" x2="28.104" y2="37.51" xlink:href="#linear-gradient"/>
  <rect x="0.5" y="0.5" width="46" height="46" stroke="#464646" stroke-miterlimit="10" fill="url(#paper_gradient)"/>
  <polygon points="23.5 23.698 39.5 14.446 39.5 32.862 23.5 42.114 23.5 23.698" fill="#3c91af"/>
  <polygon points="7.5 14.445 23.473 5.192 39.5 14.446 23.5 23.698 7.5 14.445" fill="url(#New_Gradient_Swatch_1)"/>
  <polygon points="23.5 23.698 23.5 42.114 7.5 32.861 7.5 14.445 23.5 23.698" fill="url(#linear-gradient)"/>
  <polyline points="39.5 14.446 23.5 23.698 7.5 14.445" fill="none" stroke="#147391" stroke-linejoin="round"/>
  <line x1="23.5" y1="23.698" x2="23.5" y2="42.114" stroke="#147391" stroke-linejoin="round" fill="url(#linear-gradient-2)"/>
  <polygon points="23.473 5.192 7.5 14.445 7.5 32.861 23.5 42.114 39.5 32.862 39.5 14.446 23.473 5.192" fill="none" stroke="#147391" stroke-linejoin="round"/>
</svg>
