<svg id="Layer_1" data-name="Layer 1" xmlns="http://www.w3.org/2000/svg" xmlns:xlink="http://www.w3.org/1999/xlink" viewBox="0 0 48 48">
  <defs>
    <linearGradient id="linear-gradient" x1="0.5" y1="0.5" x2="47.5" y2="47.5" gradientUnits="userSpaceOnUse">
      <stop offset="0" stop-color="#fff"/>
      <stop offset="0.2323" stop-color="#fafafa"/>
      <stop offset="0.4964" stop-color="#ededed"/>
      <stop offset="0.775" stop-color="#d6d6d6"/>
      <stop offset="1" stop-color="#bebebe"/>
    </linearGradient>
    <linearGradient id="New_Gradient_Swatch_3" data-name="New Gradient Swatch 3" x1="17.4038" y1="21.4038" x2="26.5962" y2="30.5962" gradientUnits="userSpaceOnUse">
      <stop offset="0" stop-color="#afd7e1"/>
      <stop offset="0.1588" stop-color="#a4d0dc"/>
      <stop offset="0.7059" stop-color="#80bcce"/>
      <stop offset="1" stop-color="#73b4c8"/>
    </linearGradient>
    <linearGradient id="New_Gradient_Swatch_3-2" x1="29.136" y1="6.136" x2="41.864" y2="18.864" xlink:href="#New_Gradient_Swatch_3"/>
    <linearGradient id="New_Gradient_Swatch_3-3" x1="9.6716" y1="32.6716" x2="15.3284" y2="38.3284" xlink:href="#New_Gradient_Swatch_3"/>
  </defs>
  <rect x="0.5" y="0.5" width="47" height="47" stroke="#464646" stroke-miterlimit="10" fill="url(#linear-gradient)"/>
    <polyline points="44 43.5 4.5 43.5 4.5 4" fill="none" stroke="#147391" stroke-miterlimit="10"/>
    <line x1="11.5" y1="41" x2="11.5" y2="43" fill="none" stroke="#147391" stroke-miterlimit="10"/>
    <line x1="18.5" y1="41" x2="18.5" y2="43" fill="none" stroke="#147391" stroke-miterlimit="10"/>
    <line x1="25.5" y1="41" x2="25.5" y2="43" fill="none" stroke="#147391" stroke-miterlimit="10"/>
    <line x1="32.5" y1="41" x2="32.5" y2="43" fill="none" stroke="#147391" stroke-miterlimit="10"/>
    <line x1="39.5" y1="41" x2="39.5" y2="43" fill="none" stroke="#147391" stroke-miterlimit="10"/>
    <line x1="5" y1="36.5" x2="7" y2="36.5" fill="none" stroke="#147391" stroke-miterlimit="10"/>
    <line x1="5" y1="29.5" x2="7" y2="29.5" fill="none" stroke="#147391" stroke-miterlimit="10"/>
    <line x1="5" y1="22.5" x2="7" y2="22.5" fill="none" stroke="#147391" stroke-miterlimit="10"/>
    <line x1="5" y1="15.5" x2="7" y2="15.5" fill="none" stroke="#147391" stroke-miterlimit="10"/>
    <line x1="5" y1="8.5" x2="7" y2="8.5" fill="none" stroke="#147391" stroke-miterlimit="10"/>
    <circle cx="22" cy="26" r="6.5" stroke="#147391" stroke-miterlimit="10" fill="url(#New_Gradient_Swatch_3)"/>
    <line x1="26.5" y1="30.5" x2="17.5" y2="30.5" fill="none" stroke="#147391" stroke-miterlimit="10"/>
    <line x1="26.5" y1="21.5" x2="17.5" y2="21.5" fill="none" stroke="#147391" stroke-miterlimit="10"/>
    <line x1="28.5" y1="27.5" x2="16" y2="27.5" fill="none" stroke="#147391" stroke-miterlimit="10"/>
    <line x1="28.5" y1="24.5" x2="16" y2="24.5" fill="none" stroke="#147391" stroke-miterlimit="10"/>
    <line x1="17.5" y1="21.5" x2="17.5" y2="30.5" fill="none" stroke="#147391" stroke-miterlimit="10"/>
    <line x1="20.5" y1="20" x2="20.5" y2="32" fill="none" stroke="#147391" stroke-miterlimit="10"/>
    <line x1="26.5" y1="21.5" x2="26.5" y2="30.5" fill="none" stroke="#147391" stroke-miterlimit="10"/>
    <line x1="23.5" y1="20" x2="23.5" y2="32" fill="none" stroke="#147391" stroke-miterlimit="10"/>
    <circle cx="35.5" cy="12.5" r="9" stroke="#147391" stroke-miterlimit="10" fill="url(#New_Gradient_Swatch_3-2)"/>
    <line x1="42" y1="18.5" x2="29" y2="18.5" fill="none" stroke="#147391" stroke-miterlimit="10"/>
    <line x1="44" y1="10.5" x2="27" y2="10.5" fill="none" stroke="#147391" stroke-miterlimit="10"/>
    <line x1="42" y1="6.5" x2="29" y2="6.5" fill="none" stroke="#147391" stroke-miterlimit="10"/>
    <line x1="44.5" y1="14.5" x2="27" y2="14.5" fill="none" stroke="#147391" stroke-miterlimit="10"/>
    <line x1="29.5" y1="6" x2="29.5" y2="19" fill="none" stroke="#147391" stroke-miterlimit="10"/>
    <line x1="37.5" y1="4" x2="37.5" y2="21" fill="none" stroke="#147391" stroke-miterlimit="10"/>
    <line x1="33.5" y1="4" x2="33.5" y2="21" fill="none" stroke="#147391" stroke-miterlimit="10"/>
    <line x1="41.5" y1="6" x2="41.5" y2="19" fill="none" stroke="#147391" stroke-miterlimit="10"/>
    <circle cx="12.5" cy="35.5" r="4" stroke="#147391" stroke-miterlimit="10" fill="url(#New_Gradient_Swatch_3-3)"/>
    <line x1="16" y1="33.5" x2="9" y2="33.5" fill="none" stroke="#147391" stroke-miterlimit="10"/>
    <line x1="16" y1="37.5" x2="9" y2="37.5" fill="none" stroke="#147391" stroke-miterlimit="10"/>
    <line x1="16.5" y1="35.5" x2="8.5" y2="35.5" fill="none" stroke="#147391" stroke-miterlimit="10"/>
    <line x1="10.5" y1="32" x2="10.5" y2="39" fill="none" stroke="#147391" stroke-miterlimit="10"/>
    <line x1="14.5" y1="32" x2="14.5" y2="39" fill="none" stroke="#147391" stroke-miterlimit="10"/>
    <line x1="12.5" y1="31.5" x2="12.5" y2="39.5" fill="none" stroke="#147391" stroke-miterlimit="10"/>
</svg>
