<svg id="Layer_1" data-name="Layer 1" xmlns="http://www.w3.org/2000/svg" xmlns:xlink="http://www.w3.org/1999/xlink" viewBox="0 0 48 48">
    <linearGradient id="linear-gradient" x1="3.75" y1="41.75" x2="45.25" y2="0.25" gradientTransform="matrix(1, 0, 0, -1, 0, 48)" gradientUnits="userSpaceOnUse">
      <stop offset="0" stop-color="#fff"/>
      <stop offset="0.232" stop-color="#fafafa"/>
      <stop offset="0.496" stop-color="#ededed"/>
      <stop offset="0.775" stop-color="#d6d6d6"/>
      <stop offset="1" stop-color="#bebebe"/>
    </linearGradient>
    <linearGradient id="linear-gradient-2" x1="21.5" y1="5.4" x2="33.5" y2="17.4" gradientUnits="userSpaceOnUse">
      <stop offset="0" stop-color="#deeff3"/>
      <stop offset="0.267" stop-color="#c8e2ea"/>
      <stop offset="0.744" stop-color="#a4cfdb"/>
      <stop offset="1" stop-color="#97c7d6"/>
    </linearGradient>
    <linearGradient id="linear-gradient-3" x1="13.291" y1="13.609" x2="29.667" y2="29.985" gradientUnits="userSpaceOnUse">
      <stop offset="0" stop-color="#d7ebf0"/>
      <stop offset="0.444" stop-color="#a4cfdb"/>
      <stop offset="0.806" stop-color="#80bbcd"/>
      <stop offset="1" stop-color="#73b4c8"/>
    </linearGradient>
    <linearGradient id="Dark_Blue_Grad" data-name="Dark Blue Grad" x1="-490.742" y1="922.707" x2="-483.32" y2="924.663" gradientTransform="matrix(0.504, 0.864, 0.864, -0.504, -525.445, 897.343)" gradientUnits="userSpaceOnUse">
      <stop offset="0" stop-color="#73b4c8"/>
      <stop offset="0.175" stop-color="#6aaec3"/>
      <stop offset="0.457" stop-color="#529eb5"/>
      <stop offset="0.809" stop-color="#2c839f"/>
      <stop offset="1" stop-color="#147391"/>
    </linearGradient>
    <linearGradient id="paper_gradient" data-name="paper gradient" x1="30.5" y1="44.5" x2="42.5" y2="32.5" gradientTransform="matrix(1, 0, 0, -1, 0, 48)" gradientUnits="userSpaceOnUse">
      <stop offset="0" stop-color="#fff"/>
      <stop offset="0.221" stop-color="#f8f8f8"/>
      <stop offset="0.541" stop-color="#e5e5e5"/>
      <stop offset="0.92" stop-color="#c6c6c6"/>
      <stop offset="1" stop-color="#bebebe"/>
    </linearGradient>
  <polygon points="33.5 0.5 9.5 0.5 9.5 47.5 45.5 47.5 45.5 12.5 33.5 0.5" stroke="#464646" stroke-miterlimit="10" fill="url(#linear-gradient)"/>
    <polygon points="27.5 18.34 39.5 11.4 39.5 25.295 27.5 32.152 27.5 18.34" fill="#3c91af"/>
    <polygon points="15.5 11.4 27.48 4.461 39.5 11.4 27.5 18.34 15.5 11.4" fill="url(#linear-gradient-2)"/>
    <polygon points="27.5 18.34 27.5 32.152 15.5 25.295 15.5 11.4 27.5 18.34" fill="url(#linear-gradient-3)"/>
    <line x1="27.5" y1="18.34" x2="27.5" y2="32.152" fill="none" stroke="#147391" stroke-linejoin="round"/>
    <polyline points="39.5 11.4 27.5 18.34 15.5 11.4" fill="none" stroke="#147391" stroke-linejoin="round"/>
    <polygon points="27.48 4.461 15.5 11.4 15.5 25.212 27.5 32.152 39.5 25.213 39.5 11.4 27.48 4.461" fill="none" stroke="#147391" stroke-linejoin="round"/>
  <line x1="21.685" y1="10.464" x2="29.303" y2="14.755" fill="none" stroke="#147391" stroke-linecap="round" stroke-linejoin="round"/>
  <line x1="23.574" y1="9.363" x2="31.193" y2="13.654" fill="none" stroke="#147391" stroke-linecap="round" stroke-linejoin="round"/>
  <line x1="25.426" y1="8.283" x2="33.045" y2="12.575" fill="none" stroke="#147391" stroke-linecap="round" stroke-linejoin="round"/>
  <polygon points="26.575 14.807 33.17 10.962 28.041 7.999 21.416 11.861 26.575 14.807" stroke="#147391" stroke-linejoin="round" fill="url(#Dark_Blue_Grad)"/>
  <line x1="30.929" y1="23.467" x2="29.249" y2="24.438" fill="none" stroke="#147391" stroke-linecap="round" stroke-linejoin="round"/>
  <line x1="37.874" y1="19.451" x2="36.66" y2="20.152" fill="none" stroke="#147391" stroke-linecap="round" stroke-linejoin="round"/>
  <polygon points="30.929 21.009 30.929 25.42 35.115 21.009 30.929 21.009" fill="none" stroke="#147391" stroke-linecap="round" stroke-linejoin="round"/>
  <line x1="18.867" y1="20.259" x2="17.188" y2="19.288" fill="none" stroke="#147391" stroke-linecap="round" stroke-linejoin="round"/>
  <line x1="25.812" y1="24.275" x2="24.599" y2="23.573" fill="none" stroke="#147391" stroke-linecap="round" stroke-linejoin="round"/>
  <polygon points="18.929 22.724 18.929 18.314 23.115 22.724 18.929 22.724" fill="none" stroke="#147391" stroke-linecap="round" stroke-linejoin="round"/>
  <polygon points="33.5 0.5 33.5 12.5 45.5 12.5 33.5 0.5" stroke="#464646" stroke-linejoin="round" fill="url(#paper_gradient)"/>
  <rect x="0.5" y="27.5" width="47" height="16" fill="#147391" stroke="#464646" stroke-miterlimit="10"/>
    <path d="M3.978,38.979v-7.7H8.146v1.1H5.256v2.17H7.941v1.1H5.256v2.234H8.323v1.1Z" fill="#fff"/>
    <path d="M15.95,35.031a4.1,4.1,0,0,1-.513,2.073,3.471,3.471,0,0,1-1.469,1.386,4.783,4.783,0,0,1-2.2.489H9.445v-7.7h2.38a4.409,4.409,0,0,1,3.093.956A3.631,3.631,0,0,1,15.95,35.031Zm-1.354.021a2.59,2.59,0,0,0-.736-1.985,2.93,2.93,0,0,0-2.084-.69H10.724v5.5h1.031a2.825,2.825,0,0,0,2.095-.749A2.813,2.813,0,0,0,14.6,35.052Z" fill="#fff"/>
    <path d="M21.386,38.979l-1.628-2.8a1.035,1.035,0,0,1-.078-.194c-.015-.061-.034-.125-.056-.193H19.6c-.029.072-.052.137-.07.2a.946.946,0,0,1-.086.191l-1.66,2.8H16.235l2.573-3.862-2.353-3.841h1.574l1.375,2.53a2.639,2.639,0,0,1,.263.575h.021c.079-.2.134-.332.164-.4s.564-.966,1.6-2.71h1.44L20.483,35.1l2.439,3.884Z" fill="#fff"/>
</svg>
