<svg id="Layer_1" data-name="Layer 1" xmlns="http://www.w3.org/2000/svg" xmlns:xlink="http://www.w3.org/1999/xlink" viewBox="0 0 48 48">
  <defs>
    <linearGradient id="linear-gradient" x1="3.5" y1="41.5" x2="45" gradientTransform="matrix(1, 0, 0, -1, 0, 48)" gradientUnits="userSpaceOnUse">
      <stop offset="0" stop-color="#fff"/>
      <stop offset="0.2323" stop-color="#fafafa"/>
      <stop offset="0.4964" stop-color="#ededed"/>
      <stop offset="0.775" stop-color="#d6d6d6"/>
      <stop offset="1" stop-color="#bebebe"/>
    </linearGradient>
    <linearGradient id="paper_gradient" data-name="paper gradient" x1="29.25" y1="44.25" x2="42.25" y2="31.25" gradientTransform="matrix(1, 0, 0, -1, 0, 48)" gradientUnits="userSpaceOnUse">
      <stop offset="0" stop-color="#fff"/>
      <stop offset="0.2214" stop-color="#f8f8f8"/>
      <stop offset="0.5415" stop-color="#e5e5e5"/>
      <stop offset="0.92" stop-color="#c6c6c6"/>
      <stop offset="1" stop-color="#bebebe"/>
    </linearGradient>
  </defs>
  <polygon points="32.5 0.5 9.5 0.5 9.5 47.5 45.5 47.5 45.5 13.5 32.5 0.5" stroke="#464646" stroke-miterlimit="10" fill="url(#linear-gradient)"/>
  <polygon points="32.5 0.5 32.5 13.5 45.5 13.5 32.5 0.5" stroke="#464646" stroke-linejoin="round" fill="url(#paper_gradient)"/>
  <rect x="0.5" y="26.5" width="47" height="16" fill="#ad1c28" stroke="#464646" stroke-miterlimit="10"/>
    <path d="M8.6831,35.86a1.9228,1.9228,0,0,1-.7251,1.5922,3.1706,3.1706,0,0,1-2.0249.5777,4.1733,4.1733,0,0,1-1.0312-.14,2.7226,2.7226,0,0,1-.8057-.3115V36.1821a2.8086,2.8086,0,0,0,.8916.5371,2.9166,2.9166,0,0,0,1.085.22,1.4845,1.4845,0,0,0,.9155-.2442.8411.8411,0,0,0,.32-.7119,1.045,1.045,0,0,0-.3169-.7358,5.0509,5.0509,0,0,0-1.2031-.8057,4.0907,4.0907,0,0,1-1.2944-.98,1.9157,1.9157,0,0,1-.4244-1.2436,1.9765,1.9765,0,0,1,.3223-1.1089,2.14,2.14,0,0,1,.9238-.7686A3.2349,3.2349,0,0,1,6.68,30.0645a5.0038,5.0038,0,0,1,.9829.0966A3.0094,3.0094,0,0,1,8.35,30.36v1.3427a2.3,2.3,0,0,0-.7544-.4,2.8773,2.8773,0,0,0-.9053-.1479,1.44,1.44,0,0,0-.916.2685.8486.8486,0,0,0-.3408.6983,1.0952,1.0952,0,0,0,.1128.5156,1.3211,1.3211,0,0,0,.3545.4082,6.1187,6.1187,0,0,0,.8755.5264A4.7719,4.7719,0,0,1,8.24,34.6377,1.8632,1.8632,0,0,1,8.6831,35.86Z" fill="#fff"/>
    <path d="M15.0049,37.8955l-.7036-1.9443h-3.083l-.6714,1.9443H9.15l2.9165-7.7021h1.418l2.9272,7.7021Zm-2.2344-6.5474h-.0322a2.8573,2.8573,0,0,1-.1128.5533l-1.0527,2.97H13.936l-1.0581-2.97A2.8856,2.8856,0,0,1,12.7705,31.3481Z" fill="#fff"/>
</svg>
