<svg id="Layer_1" data-name="Layer 1" xmlns="http://www.w3.org/2000/svg" xmlns:xlink="http://www.w3.org/1999/xlink" viewBox="0 0 48 48">
    <linearGradient id="paper_gradient" data-name="paper gradient" x1="14.7247" y1="3.3662" x2="26.3377" y2="14.9792" gradientUnits="userSpaceOnUse">
      <stop offset="0" stop-color="#fff"/>
      <stop offset="0.2214" stop-color="#f8f8f8"/>
      <stop offset="0.5415" stop-color="#e5e5e5"/>
      <stop offset="0.92" stop-color="#c6c6c6"/>
      <stop offset="1" stop-color="#bebebe"/>
    </linearGradient>
    <linearGradient id="Dark_Blue_Grad" data-name="Dark Blue Grad" x1="17.6512" y1="18.3488" x2="23.3488" y2="24.0465" gradientUnits="userSpaceOnUse">
      <stop offset="0" stop-color="#73b4c8"/>
      <stop offset="0.1747" stop-color="#6aaec3"/>
      <stop offset="0.4567" stop-color="#529eb5"/>
      <stop offset="0.8089" stop-color="#2c839f"/>
      <stop offset="1" stop-color="#147391"/>
    </linearGradient>
    <linearGradient id="New_Gradient_Swatch_2" data-name="New Gradient Swatch 2" x1="7.5087" y1="16.598" x2="21.8614" y2="30.9507" gradientUnits="userSpaceOnUse">
      <stop offset="0" stop-color="#fff"/>
      <stop offset="0.2284" stop-color="#fafafa"/>
      <stop offset="0.4881" stop-color="#ededed"/>
      <stop offset="0.7621" stop-color="#d7d6d6"/>
      <stop offset="1" stop-color="#bdbcbc"/>
    </linearGradient>
    <linearGradient id="Dark_Blue_Grad-2" x1="25.3076" y1="25.3076" x2="43.6924" y2="43.6924" xlink:href="#Dark_Blue_Grad"/>
      <path d="M23.1674,18.15c0-1.92,2.02-4.7011,2.02-4.7011A9.6537,9.6537,0,0,0,27.5,7.4674a7,7,0,0,0-14,0,9.6594,9.6594,0,0,0,2.32,5.9905l-.0042.0047s2.043,2.6676,2.043,4.5878" stroke="#464646" stroke-linecap="round" stroke-linejoin="round" stroke-width="0.9942" fill="url(#paper_gradient)"/>
      <polygon points="23.5 18.5 17.5 18.5 17.5 23.895 18.703 23.895 19.732 25.244 21.32 25.244 22.348 23.895 23.5 23.895 23.5 18.5" stroke="#464646" stroke-linecap="round" stroke-linejoin="round" stroke-width="0.9942" fill="url(#Dark_Blue_Grad)"/>
    <path d="M21.86,24.3284l2.067-.9381a2.6086,2.6086,0,0,0,.351-.1932l3.015-1.9751c1.9214-1.0823,3.0843,1.6233,1.38,2.8811a20.877,20.877,0,0,1-3.3146,2.16c-5.0423,2.3124-5.0048,2.3284-7.8515,2.3284A20.77,20.77,0,0,1,8.9661,26.651c-1.1575-.5111-3.38.3148-6.0778.9967a1.61,1.61,0,0,1-1.9468-1.12c-.0782-.28-.2421-1-.3949-1.6894a1.807,1.807,0,0,1,1.159-2.16A40.7341,40.7341,0,0,0,5.83,21.5572a9.1624,9.1624,0,0,1,7.5548-.1822c.104.0375,2.37,1.1486,2.97,1.4483a1.5743,1.5743,0,0,0,.4971.1524l3.845.5179c1.9664.3176,1.1906,3.2438-.9028,3.0608L16.22,26.0671a3.7239,3.7239,0,0,1-1.1074-.3322l-2.8358-1.36" stroke="#464646" stroke-linecap="round" stroke-linejoin="round" fill="url(#New_Gradient_Swatch_2)"/>
  <circle cx="34.5" cy="34.5" r="13" stroke="#464646" stroke-linecap="round" stroke-linejoin="round" fill="url(#Dark_Blue_Grad-2)"/>
  <path d="M40.5,35.2872V34.5a1,1,0,0,0-1-1h-10a1,1,0,0,0-1,1v.7872" fill="none" stroke="#147391" stroke-linecap="square" stroke-miterlimit="10" stroke-width="3"/>
  <line x1="34.5" y1="31.3994" x2="34.5" y2="35.4739" fill="none" stroke="#147391" stroke-linecap="square" stroke-miterlimit="10" stroke-width="3"/>
  <path d="M40.5,35.2872V34.5a1,1,0,0,0-1-1h-10a1,1,0,0,0-1,1v.7872" fill="none" stroke="#fff" stroke-miterlimit="10"/>
  <line x1="34.5" y1="31.3994" x2="34.5" y2="35.4739" fill="none" stroke="#fff" stroke-miterlimit="10"/>
    <path d="M38,42.5093a.5.5,0,0,1-.5-.5v-1.855a2.1264,2.1264,0,0,1,1.2856-1.8828.4994.4994,0,0,1,.5.04,2.09,2.09,0,0,0,2.43,0,.4994.4994,0,0,1,.5-.04A2.1264,2.1264,0,0,1,43.5,40.1543v1.855a.5.5,0,0,1-.5.5Z" fill="#fff"/>
    <path d="M41.9988,38.7224A1.6271,1.6271,0,0,1,43,40.1543v1.855H38v-1.855a1.6271,1.6271,0,0,1,1.0012-1.4319,2.587,2.587,0,0,0,2.9976,0m0-1a1,1,0,0,0-.5695.178,1.5879,1.5879,0,0,1-1.8588,0,1,1,0,0,0-1.0006-.08A2.6213,2.6213,0,0,0,37,40.1543v1.855a1,1,0,0,0,1,1h5a1,1,0,0,0,1-1v-1.855A2.6213,2.6213,0,0,0,42.43,37.82a.9986.9986,0,0,0-.4311-.0978Z" fill="#147391"/>
    <path d="M40.5,39.0068c-.96,0-1.55-1.2085-1.55-2.0752a1.5587,1.5587,0,1,1,3.1,0C42.05,37.7983,41.46,39.0068,40.5,39.0068Z" fill="#fff"/>
    <path d="M40.5,35.7067a1.1476,1.1476,0,0,1,1.05,1.225c0,.6765-.47,1.575-1.05,1.575s-1.05-.8985-1.05-1.575a1.1476,1.1476,0,0,1,1.05-1.225m0-1a2.1453,2.1453,0,0,0-2.05,2.225c0,1.2179.8419,2.575,2.05,2.575s2.05-1.3571,2.05-2.575a2.1453,2.1453,0,0,0-2.05-2.225Z" fill="#147391"/>
    <path d="M32,42.5093a.5.5,0,0,1-.5-.5v-1.855a2.1264,2.1264,0,0,1,1.2856-1.8828.4994.4994,0,0,1,.5.04,2.09,2.09,0,0,0,2.43,0,.4994.4994,0,0,1,.5-.04A2.1264,2.1264,0,0,1,37.5,40.1543v1.855a.5.5,0,0,1-.5.5Z" fill="#fff"/>
    <path d="M35.9988,38.7224A1.6271,1.6271,0,0,1,37,40.1543v1.855H32v-1.855a1.6271,1.6271,0,0,1,1.0012-1.4319,2.587,2.587,0,0,0,2.9976,0m0-1a1,1,0,0,0-.5695.178,1.5879,1.5879,0,0,1-1.8588,0,1,1,0,0,0-1.0006-.08A2.6213,2.6213,0,0,0,31,40.1543v1.855a1,1,0,0,0,1,1h5a1,1,0,0,0,1-1v-1.855A2.6213,2.6213,0,0,0,36.43,37.82a.9986.9986,0,0,0-.4311-.0978Z" fill="#147391"/>
    <path d="M34.5,39.0068c-.96,0-1.55-1.2085-1.55-2.0752a1.5587,1.5587,0,1,1,3.1,0C36.05,37.7983,35.46,39.0068,34.5,39.0068Z" fill="#fff"/>
    <path d="M34.5,35.7067a1.1476,1.1476,0,0,1,1.05,1.225c0,.6765-.47,1.575-1.05,1.575s-1.05-.8985-1.05-1.575a1.1476,1.1476,0,0,1,1.05-1.225m0-1a2.1453,2.1453,0,0,0-2.05,2.225c0,1.2179.8419,2.575,2.05,2.575s2.05-1.3571,2.05-2.575a2.1453,2.1453,0,0,0-2.05-2.225Z" fill="#147391"/>
    <path d="M32,31.5093a.5.5,0,0,1-.5-.5v-1.855a2.1264,2.1264,0,0,1,1.2856-1.8828.4994.4994,0,0,1,.5.04,2.09,2.09,0,0,0,2.43,0,.4994.4994,0,0,1,.5-.04A2.1264,2.1264,0,0,1,37.5,29.1543v1.855a.5.5,0,0,1-.5.5Z" fill="#fff"/>
    <path d="M35.9988,27.7224A1.6271,1.6271,0,0,1,37,29.1543v1.855H32v-1.855a1.6271,1.6271,0,0,1,1.0012-1.4319,2.587,2.587,0,0,0,2.9976,0m0-1a1,1,0,0,0-.5695.178,1.5879,1.5879,0,0,1-1.8588,0,1,1,0,0,0-1.0006-.08A2.6213,2.6213,0,0,0,31,29.1543v1.855a1,1,0,0,0,1,1h5a1,1,0,0,0,1-1v-1.855A2.6213,2.6213,0,0,0,36.43,26.82a.9986.9986,0,0,0-.4311-.0978Z" fill="#147391"/>
    <path d="M34.5,28.0068c-.96,0-1.55-1.2085-1.55-2.0752a1.5587,1.5587,0,1,1,3.1,0C36.05,26.7983,35.46,28.0068,34.5,28.0068Z" fill="#fff"/>
    <path d="M34.5,24.7067a1.1476,1.1476,0,0,1,1.05,1.225c0,.6765-.47,1.575-1.05,1.575s-1.05-.8985-1.05-1.575a1.1476,1.1476,0,0,1,1.05-1.225m0-1a2.1453,2.1453,0,0,0-2.05,2.225c0,1.2179.8419,2.575,2.05,2.575s2.05-1.3571,2.05-2.575a2.1453,2.1453,0,0,0-2.05-2.225Z" fill="#147391"/>
    <path d="M26,42.5093a.5.5,0,0,1-.5-.5v-1.855a2.1264,2.1264,0,0,1,1.2856-1.8828.4994.4994,0,0,1,.5.04,2.09,2.09,0,0,0,2.43,0,.4994.4994,0,0,1,.5-.04A2.1264,2.1264,0,0,1,31.5,40.1543v1.855a.5.5,0,0,1-.5.5Z" fill="#fff"/>
    <path d="M29.9988,38.7224A1.6271,1.6271,0,0,1,31,40.1543v1.855H26v-1.855a1.6271,1.6271,0,0,1,1.0012-1.4319,2.587,2.587,0,0,0,2.9976,0m0-1a1,1,0,0,0-.5695.178,1.5879,1.5879,0,0,1-1.8588,0,1,1,0,0,0-1.0006-.08A2.6213,2.6213,0,0,0,25,40.1543v1.855a1,1,0,0,0,1,1h5a1,1,0,0,0,1-1v-1.855A2.6213,2.6213,0,0,0,30.43,37.82a.9986.9986,0,0,0-.4311-.0978Z" fill="#147391"/>
    <path d="M28.5,39.0068c-.96,0-1.55-1.2085-1.55-2.0752a1.5587,1.5587,0,1,1,3.1,0C30.05,37.7983,29.46,39.0068,28.5,39.0068Z" fill="#fff"/>
    <path d="M28.5,35.7067a1.1476,1.1476,0,0,1,1.05,1.225c0,.6765-.47,1.575-1.05,1.575s-1.05-.8985-1.05-1.575a1.1476,1.1476,0,0,1,1.05-1.225m0-1a2.1453,2.1453,0,0,0-2.05,2.225c0,1.2179.8419,2.575,2.05,2.575s2.05-1.3571,2.05-2.575a2.1453,2.1453,0,0,0-2.05-2.225Z" fill="#147391"/>
</svg>
