<svg id="Layer_1" data-name="Layer 1" xmlns="http://www.w3.org/2000/svg" xmlns:xlink="http://www.w3.org/1999/xlink" viewBox="0 0 48 48">
  <defs>
    <linearGradient id="linear-gradient" x1="-3.307" y1="66.603" x2="10.48" y2="55.213" gradientTransform="matrix(1.043, 0, 0, -1.043, 13.141, 77.346)" gradientUnits="userSpaceOnUse">
      <stop offset="0" stop-color="#cde6eb"/>
      <stop offset="0.221" stop-color="#c6e2e8"/>
      <stop offset="0.542" stop-color="#b3d8e1"/>
      <stop offset="0.921" stop-color="#93c7d5"/>
      <stop offset="1" stop-color="#8cc3d2"/>
    </linearGradient>
    <linearGradient id="linear-gradient-2" x1="3.587" y1="30.936" x2="25.408" y2="22.318" gradientTransform="matrix(1.004, 0, 0, -1, 1.066, 49.969)" gradientUnits="userSpaceOnUse">
      <stop offset="0" stop-color="#73b4c8"/>
      <stop offset="0.175" stop-color="#6aaec3"/>
      <stop offset="0.457" stop-color="#529eb5"/>
      <stop offset="0.809" stop-color="#2c839f"/>
      <stop offset="1" stop-color="#147391"/>
    </linearGradient>
  </defs>
  <g id="g947">
    <g id="g927">
      <path id="path1089" d="M23.743,15.76c-6.155,0-11.835,1.855-14.881,4.852H38.613C35.569,17.617,29.9,15.765,23.743,15.76ZM40.2,28.032l-32.568.1c2.118,4.108,8.483,6.833,16.114,6.836S38.08,32.139,40.2,28.032Z" fill="#147391" stroke="#464646" stroke-linejoin="round" stroke-width="0.983"/>
      <path id="rect1099" d="M7.352,22.133h.623a.211.211,0,0,1,.212.211v5.728a.212.212,0,0,1-.212.212H7.352a.211.211,0,0,1-.211-.212V22.344A.21.21,0,0,1,7.352,22.133Z" fill="#464646"/>
      <path id="rect1099-0" d="M39.888,22.124H40.5a.21.21,0,0,1,.211.211v5.651a.21.21,0,0,1-.211.211h-.608a.21.21,0,0,1-.211-.211V22.335A.21.21,0,0,1,39.888,22.124Z" fill="#464646"/>
    </g>
    <path id="path1083" d="M2.471,19.835,23.584,9.93l21.9,9.644-21.113,9.9Z" stroke="#464646" stroke-linejoin="round" stroke-width="1.043" fill="url(#linear-gradient)"/>
    <path id="path914" d="M22.617,34.405a26.627,26.627,0,0,1-6.1-.883,17.091,17.091,0,0,1-6.19-2.945,10.264,10.264,0,0,1-1.808-1.888.948.948,0,0,0-.127-.172,1.14,1.14,0,0,1-.159-.29,13.246,13.246,0,0,1-.093-2.784,14.488,14.488,0,0,1,.043-2.556c.032.013,3.643,1.6,8.024,3.526,6.691,2.942,8,3.5,8.165,3.5s1.239-.486,7.766-3.54L39.7,22.834l.012,2.47c.011,2.392.008,2.478-.079,2.711a1.34,1.34,0,0,1-.2.359.437.437,0,0,0-.111.17,6.714,6.714,0,0,1-1.048,1.226C35.066,32.859,29.112,34.621,22.617,34.405Z" fill="url(#linear-gradient-2)"/>
    <g id="g912">
      <g id="g920">
        <path id="rect1148" d="M13.148,24.4l11.146-5.462a.307.307,0,0,1,.406.1.285.285,0,0,1-.1.405L13.458,24.9a.306.306,0,0,1-.406-.1.285.285,0,0,1,.1-.406Z" fill="#147391" stroke="#464646" stroke-linejoin="round" stroke-width="1.125"/>
        <g id="g901">
          <path id="rect1148-5" d="M13.158,37.247l-.2-12.41a.305.305,0,0,1,.26-.326.285.285,0,0,1,.326.259l.2,12.411a.306.306,0,0,1-.26.326A.285.285,0,0,1,13.158,37.247Z" fill="#147391" stroke="#464646" stroke-linejoin="round" stroke-width="1.125"/>
          <path id="path1166" d="M14.191,35.88l-1.7.049-.212.611c-.718,2.119-3.155,6.424,1.08,6.46C17.568,43.02,15.255,38.7,14.191,35.88Zm-.758,1.164.072.323c-.31.255-.167.426-.568.425-.419,0,1.552.319.828-.086l-.421-.649Z" fill="#464646"/>
          <path id="path1179" d="M14.562,35.736a1.11,1.11,0,0,1-1.218.953h0a1.111,1.111,0,0,1-1.219-.953h0a1.111,1.111,0,0,1,1.219-.953A1.11,1.11,0,0,1,14.562,35.736Z" fill="#464646" stroke="#464646" stroke-linecap="round" stroke-linejoin="round" stroke-width="0.926"/>
        </g>
      </g>
      <path id="path1179-1" d="M25.881,18.92a1.049,1.049,0,1,1-1.049-1.05A1.049,1.049,0,0,1,25.881,18.92Z" fill="#464646" stroke="#464646" stroke-linecap="round" stroke-linejoin="round" stroke-width="0.901"/>
    </g>
  </g>
</svg>
