<svg id="Layer_1" data-name="Layer 1" xmlns="http://www.w3.org/2000/svg" xmlns:xlink="http://www.w3.org/1999/xlink" viewBox="0 0 48 48">
  <defs>
    <linearGradient id="linear-gradient" x1="-0.5" y1="41.5" x2="41" gradientTransform="matrix(1, 0, 0, -1, 0, 48)" gradientUnits="userSpaceOnUse">
      <stop offset="0" stop-color="#fff"/>
      <stop offset="0.2323" stop-color="#fafafa"/>
      <stop offset="0.4964" stop-color="#ededed"/>
      <stop offset="0.775" stop-color="#d6d6d6"/>
      <stop offset="1" stop-color="#bebebe"/>
    </linearGradient>
    <linearGradient id="paper_gradient" data-name="paper gradient" x1="25.25" y1="44.25" x2="38.25" y2="31.25" gradientTransform="matrix(1, 0, 0, -1, 0, 48)" gradientUnits="userSpaceOnUse">
      <stop offset="0" stop-color="#fff"/>
      <stop offset="0.2214" stop-color="#f8f8f8"/>
      <stop offset="0.5415" stop-color="#e5e5e5"/>
      <stop offset="0.92" stop-color="#c6c6c6"/>
      <stop offset="1" stop-color="#bebebe"/>
    </linearGradient>
  </defs>
  <polygon points="28.5 0.5 5.5 0.5 5.5 47.5 41.5 47.5 41.5 13.5 28.5 0.5" stroke="#464646" stroke-miterlimit="10" fill="url(#linear-gradient)"/>
  <polygon points="28.5 0.5 28.5 13.5 41.5 13.5 28.5 0.5" stroke="#464646" stroke-linejoin="round" fill="url(#paper_gradient)"/>
  <rect x="0.5" y="27.5" width="47" height="16" fill="#099" stroke="#464646" stroke-miterlimit="10"/>
    <path d="M5.7559,32.3774v2.2774H8.4307v1.1011H5.7559v3.2226H4.4775V31.2764h4.168v1.101Z" fill="#fff"/>
    <path d="M9.6821,38.9785V30.8359h1.2408v8.1426Z" fill="#fff"/>
    <path d="M17.6372,36.1748a2.9461,2.9461,0,0,1-.7734,2.1377,2.7843,2.7843,0,0,1-2.1.8,2.7277,2.7277,0,0,1-2.0274-.76,2.7919,2.7919,0,0,1-.7549-2.0595,2.9528,2.9528,0,0,1,.7735-2.1592,2.8624,2.8624,0,0,1,2.143-.79,2.6622,2.6622,0,0,1,2.0142.7544A2.873,2.873,0,0,1,17.6372,36.1748Zm-1.2891.043a2.0735,2.0735,0,0,0-.4057-1.3858,1.3906,1.3906,0,0,0-1.1143-.4726,1.411,1.411,0,0,0-1.144.4941,2.1158,2.1158,0,0,0-.4136,1.3965,2.0364,2.0364,0,0,0,.4136,1.3613,1.4341,1.4341,0,0,0,1.1548.4864,1.3563,1.3563,0,0,0,1.1279-.4781A2.2094,2.2094,0,0,0,16.3481,36.2178Z" fill="#fff"/>
    <path d="M18.835,38.9785V31.2764h4.1679v1.101h-2.89v2.17h2.6855v1.0957H20.1133v2.2343H23.18v1.1011Z" fill="#fff"/>
    <path d="M25.582,32.3774v2.2774h2.6739v1.1011H25.582v3.2226H24.3032V31.2764h4.1675v1.101Z" fill="#fff"/>
    <path d="M36.1426,35.0308a4.1049,4.1049,0,0,1-.5137,2.0732A3.4618,3.4618,0,0,1,34.16,38.49a4.7738,4.7738,0,0,1-2.2022.4888h-2.32V31.2764h2.38a4.41,4.41,0,0,1,3.0937.956A3.63,3.63,0,0,1,36.1426,35.0308Zm-1.3535.0214a2.5917,2.5917,0,0,0-.7364-1.9848,2.9308,2.9308,0,0,0-2.084-.69H30.916v5.5h1.0313a2.596,2.596,0,0,0,2.8418-2.8252Z" fill="#fff"/>
</svg>
