<svg id="Layer_1" data-name="Layer 1" xmlns="http://www.w3.org/2000/svg" xmlns:xlink="http://www.w3.org/1999/xlink" viewBox="0 0 48 48">
  
    <linearGradient id="linear-gradient" x1="3.75" y1="-664.25" x2="45.25" y2="-705.75" gradientTransform="matrix(1, 0, 0, -1, 0, -658)" gradientUnits="userSpaceOnUse">
      <stop offset="0" stop-color="#fff"/>
      <stop offset="0.232" stop-color="#fafafa"/>
      <stop offset="0.496" stop-color="#ededed"/>
      <stop offset="0.775" stop-color="#d6d6d6"/>
      <stop offset="1" stop-color="#bebebe"/>
    </linearGradient>
    <linearGradient id="paper_gradient" data-name="paper gradient" x1="22.47" y1="7.935" x2="27.134" y2="12.6" gradientUnits="userSpaceOnUse">
      <stop offset="0" stop-color="#fff"/>
      <stop offset="0.221" stop-color="#f8f8f8"/>
      <stop offset="0.541" stop-color="#e5e5e5"/>
      <stop offset="0.92" stop-color="#c6c6c6"/>
      <stop offset="1" stop-color="#bebebe"/>
    </linearGradient>
    <linearGradient id="New_Gradient_Swatch_4" data-name="New Gradient Swatch 4" x1="13.66" y1="14.573" x2="24.044" y2="24.956" gradientUnits="userSpaceOnUse">
      <stop offset="0" stop-color="#afd7e1"/>
      <stop offset="0.159" stop-color="#a4d0dc"/>
      <stop offset="0.706" stop-color="#80bcce"/>
      <stop offset="1" stop-color="#73b4c8"/>
    </linearGradient>
    <linearGradient id="paper_gradient-2" x1="26.762" y1="10.632" x2="30.941" y2="14.811" xlink:href="#paper_gradient"/>
    <linearGradient id="New_Gradient_Swatch_4-2" x1="18.582" y1="16.439" x2="27.571" y2="25.429" xlink:href="#New_Gradient_Swatch_4"/>
    <linearGradient id="paper_gradient-3" x1="30.5" y1="-661.5" x2="42.5" y2="-673.5" gradientTransform="matrix(1, 0, 0, -1, 0, -658)" xlink:href="#paper_gradient"/>
  
  <polygon points="33.5 0.5 9.5 0.5 9.5 47.5 45.5 47.5 45.5 12.5 33.5 0.5" stroke="#464646" stroke-miterlimit="10" fill="url(#linear-gradient)"/>
  
    <polyline points="18.358 12.046 28.5 6.678 31.246 8.488 21.722 13.548" fill="url(#paper_gradient)"/>
    <polygon points="28.5 4.861 28.5 6.678 18.358 12.046 17.5 10.733 28.5 4.861" fill="#969696"/>
    <path d="M21.5,27.5h-4V10.733a5.842,5.842,0,0,0,1.668,2.077,7.292,7.292,0,0,0,2.554.738l-.222-.027Z" fill="url(#New_Gradient_Swatch_4)"/>
  
  <polyline points="22.83 14.564 32.5 9.315 34.873 10.88 25.944 15.659" fill="url(#paper_gradient-2)"/>
  <polyline points="32.5 7.822 32.5 9.315 22.83 14.564 21.722 13.548" fill="#969696"/>
  <line x1="32.5" y1="9.315" x2="22.83" y2="14.564" fill="#969696" stroke="#6e6e6e" stroke-linejoin="round"/>
  <path d="M25.5,27.5h-4V13.521l.222.027A8.727,8.727,0,0,0,23.461,15a6.28,6.28,0,0,0,2.483.662L25.5,16Z" fill="url(#New_Gradient_Swatch_4-2)"/>
  <polygon points="36.5 10.029 36.5 26.214 34.09 27.5 25.5 27.5 25.5 16 25.944 15.659 36.5 10.029" fill="#3c91af"/>
  <line x1="25.5" y1="27.5" x2="25.5" y2="16" fill="none" stroke="#147391" stroke-linejoin="round"/>
  <line x1="21.5" y1="27.5" x2="21.5" y2="13.521" fill="none" stroke="#147391" stroke-linejoin="round"/>
  <line x1="28.5" y1="6.678" x2="18.358" y2="12.046" fill="none" stroke="#6e6e6e" stroke-linejoin="round"/>
  <path d="M21.722,13.548A8.727,8.727,0,0,0,23.461,15a6.28,6.28,0,0,0,2.483.662L36.5,10.029V26.214L34.09,27.5H17.5V10.733a6.284,6.284,0,0,0,1.725,2.116A6.69,6.69,0,0,0,21.722,13.548Z" fill="none" stroke="#147391" stroke-linecap="round" stroke-linejoin="round"/>
  <polyline points="17.5 10.733 28.5 4.861 28.5 6.678 31.246 8.488 32.5 7.822 32.5 9.315 34.99 10.953" fill="none" stroke="#147391" stroke-linejoin="round"/>
  <line x1="21.722" y1="13.548" x2="31.246" y2="8.488" fill="none" stroke="#147391" stroke-linejoin="round"/>
  <polygon points="33.5 0.5 33.5 12.5 45.5 12.5 33.5 0.5" stroke="#464646" stroke-linejoin="round" fill="url(#paper_gradient-3)"/>
  <rect x="0.5" y="27.5" width="47" height="16" fill="#05a1d7" stroke="#464646" stroke-miterlimit="10"/>
  
    <path d="M9.107,33.667a2.389,2.389,0,0,1-1.4,2.218,3.5,3.5,0,0,1-1.536.322H5.256v2.772H3.978v-7.7H6.357A3.016,3.016,0,0,1,8.4,31.9,2.217,2.217,0,0,1,9.107,33.667Zm-1.343.043a1.239,1.239,0,0,0-.416-1,1.834,1.834,0,0,0-1.211-.352H5.256v2.772h.822a1.924,1.924,0,0,0,1.24-.36A1.278,1.278,0,0,0,7.764,33.71Z" fill="#fff"/>
    <path d="M12.953,38.979v-.757h-.022a1.831,1.831,0,0,1-1.627.891,1.793,1.793,0,0,1-1.279-.44,1.564,1.564,0,0,1-.467-1.193,1.7,1.7,0,0,1,.457-1.241,2.2,2.2,0,0,1,1.342-.58l1.606-.22q0-1.123-1.042-1.123a2.946,2.946,0,0,0-.98.167,3.112,3.112,0,0,0-.846.446v-1.1a3.16,3.16,0,0,1,.889-.338,4.4,4.4,0,0,1,1.066-.15,2.123,2.123,0,0,1,1.593.55,2.205,2.205,0,0,1,.534,1.6v3.486Zm-2.176-1.627a.7.7,0,0,0,.258.566.993.993,0,0,0,.655.212,1.205,1.205,0,0,0,.914-.379,1.329,1.329,0,0,0,.359-.953V36.3l-1.187.156a1.493,1.493,0,0,0-.781.279A.789.789,0,0,0,10.777,37.352Z" fill="#fff"/>
    <path d="M19.071,38.979v-.86h-.022a1.957,1.957,0,0,1-1.8.994,2.05,2.05,0,0,1-1.66-.741,3.04,3.04,0,0,1-.618-2.009,3.328,3.328,0,0,1,.685-2.194,2.262,2.262,0,0,1,1.834-.824,1.969,1.969,0,0,1,.924.209,1.568,1.568,0,0,1,.639.607h.022V30.836h1.241v8.143Zm.011-3.212a1.4,1.4,0,0,0-.39-.994,1.369,1.369,0,0,0-2.052.1,2.388,2.388,0,0,0-.384,1.45,2.02,2.02,0,0,0,.379,1.3,1.251,1.251,0,0,0,1.029.47,1.279,1.279,0,0,0,1.009-.476,1.831,1.831,0,0,0,.409-1.237Z" fill="#fff"/>
    <path d="M25.064,37.405a1.5,1.5,0,0,1-.59,1.238,2.5,2.5,0,0,1-1.6.47,3.754,3.754,0,0,1-.745-.086,3.22,3.22,0,0,1-.7-.215V37.625a2.763,2.763,0,0,0,.752.382,2.4,2.4,0,0,0,.736.134q.891,0,.891-.591a.576.576,0,0,0-.088-.336.948.948,0,0,0-.307-.252,6.018,6.018,0,0,0-.673-.315,3.393,3.393,0,0,1-.8-.445,1.346,1.346,0,0,1-.387-.5,1.685,1.685,0,0,1-.126-.676,1.473,1.473,0,0,1,.586-1.209,2.349,2.349,0,0,1,1.514-.467,3.645,3.645,0,0,1,.647.066,2.9,2.9,0,0,1,.589.164V34.7a2.194,2.194,0,0,0-.6-.277,2.355,2.355,0,0,0-.682-.1.931.931,0,0,0-.585.167.515.515,0,0,0-.215.424.6.6,0,0,0,.169.454,2.833,2.833,0,0,0,.8.416,2.733,2.733,0,0,1,1.09.694A1.412,1.412,0,0,1,25.064,37.405Z" fill="#fff"/>
  
</svg>
