<svg id="Layer_1" data-name="Layer 1" xmlns="http://www.w3.org/2000/svg" xmlns:xlink="http://www.w3.org/1999/xlink" viewBox="0 0 48 48">
  <defs>
    <linearGradient id="linear-gradient" x1="15.4997" y1="6.8309" x2="31.5003" y2="22.8314" gradientUnits="userSpaceOnUse">
      <stop offset="0" stop-color="#afd7e1"/>
      <stop offset="0.1588" stop-color="#a4d0dc"/>
      <stop offset="0.7059" stop-color="#80bcce"/>
      <stop offset="1" stop-color="#73b4c8"/>
    </linearGradient>
    <linearGradient id="linear-gradient-2" x1="4.5827" y1="17.7479" x2="26.4174" y2="39.5826" xlink:href="#linear-gradient"/>
    <linearGradient id="linear-gradient-3" x1="19.0294" y1="28.8726" x2="27.9706" y2="37.8137" xlink:href="#linear-gradient"/>
    <linearGradient id="paper_gradient" data-name="paper gradient" x1="10.5001" y1="19.9276" x2="20.4999" y2="37.2476" gradientUnits="userSpaceOnUse">
      <stop offset="0" stop-color="#fff"/>
      <stop offset="0.2214" stop-color="#f8f8f8"/>
      <stop offset="0.5415" stop-color="#e5e5e5"/>
      <stop offset="0.92" stop-color="#c6c6c6"/>
      <stop offset="1" stop-color="#bebebe"/>
    </linearGradient>
  </defs>
    <path d="M34,1h7a6,6,0,0,1,6,6V41a6,6,0,0,1-6,6H34" fill="none" stroke="#147391" stroke-miterlimit="10" stroke-width="2"/>
    <path d="M14,47H7a6,6,0,0,1-6-6V7A6,6,0,0,1,7,1h7" fill="none" stroke="#147391" stroke-miterlimit="10" stroke-width="2"/>
    <polygon points="23.5 24.084 39.5 14.832 39.5 33.248 23.5 42.5 23.5 24.084" fill="#3c91af"/>
    <polygon points="7.5 14.831 23.473 5.578 39.5 14.832 23.5 24.084 7.5 14.831" fill="url(#linear-gradient)"/>
    <polygon points="23.5 24.084 23.5 42.5 7.5 33.247 7.5 14.831 23.5 24.084" fill="url(#linear-gradient-2)"/>
    <line x1="23.5" y1="24.402" x2="23.5" y2="42.2843" stroke="#147391" stroke-linejoin="round" fill="url(#linear-gradient-3)"/>
  <polyline points="39.5 14.832 23.5 24.084 7.5 14.831" fill="none" stroke="#147391" stroke-linejoin="round"/>
    <polygon points="9.5 20.505 9.5 29.756 21.5 36.67 21.5 27.419 9.5 20.505" stroke="#147391" stroke-linejoin="round" fill="url(#paper_gradient)"/>
    <line x1="11.5" y1="23.3325" x2="11.5" y2="29.3614" fill="none" stroke="#6e6e6e" stroke-miterlimit="10"/>
    <line x1="13.5" y1="24.4848" x2="13.5" y2="29.0137" fill="none" stroke="#6e6e6e" stroke-miterlimit="10"/>
    <line x1="15.5" y1="25.7134" x2="15.5" y2="31.7423" fill="none" stroke="#6e6e6e" stroke-miterlimit="10"/>
    <line x1="17.5" y1="26.8658" x2="17.5" y2="31.6447" fill="none" stroke="#6e6e6e" stroke-miterlimit="10"/>
    <line x1="19.5" y1="28.0784" x2="19.5" y2="34.0784" fill="none" stroke="#6e6e6e" stroke-miterlimit="10"/>
  <line x1="31.4743" y1="10.381" x2="15.7533" y2="19.4718" fill="none" stroke="#147391" stroke-linejoin="round"/>
  <polygon points="23.473 5.578 7.5 14.831 7.5 33.247 23.5 42.5 39.5 33.248 39.5 14.832 23.473 5.578" fill="none" stroke="#464646" stroke-linejoin="round"/>
</svg>
