<svg id="Layer_1" data-name="Layer 1" xmlns="http://www.w3.org/2000/svg" xmlns:xlink="http://www.w3.org/1999/xlink" viewBox="0 0 48 48">
    <linearGradient id="linear-gradient" x1="0.5" y1="0.5" x2="47.5" y2="47.5" gradientUnits="userSpaceOnUse">
      <stop offset="0" stop-color="#fff"/>
      <stop offset="0.2323" stop-color="#fafafa"/>
      <stop offset="0.4964" stop-color="#ededed"/>
      <stop offset="0.775" stop-color="#d6d6d6"/>
      <stop offset="1" stop-color="#bebebe"/>
    </linearGradient>
    <linearGradient id="linear-gradient-2" x1="24.681" y1="6.9178" x2="31.319" y2="13.5557" gradientUnits="userSpaceOnUse">
      <stop offset="0" stop-color="#fff"/>
      <stop offset="1" stop-color="#bebebe"/>
    </linearGradient>
    <linearGradient id="linear-gradient-3" x1="24.681" y1="27.9178" x2="31.319" y2="34.5557" xlink:href="#linear-gradient-2"/>
  <rect x="0.5" y="0.5" width="47" height="47" stroke="#464646" stroke-miterlimit="10" fill="url(#linear-gradient)"/>
  <polyline points="13.5 17.503 17.5 13.503 13.5 9.503" fill="none" stroke="#464646" stroke-linecap="round" stroke-linejoin="round"/>
  <path d="M8.5,6V9.4653A4.0347,4.0347,0,0,0,12.5347,13.5H17" fill="none" stroke="#464646" stroke-miterlimit="10"/>
  <path d="M32.5,9.875c0,2.4162-2.0147,5.625-4.5,5.625s-4.5-3.2088-4.5-5.625a4.5018,4.5018,0,0,1,9,0Z" stroke="#464646" stroke-miterlimit="10" stroke-width="1.0265" fill="url(#linear-gradient-2)"/>
  <path d="M36.5,22.5a6.2405,6.2405,0,0,0-3.404-5.3928,8.5363,8.5363,0,0,1-10.192,0A6.2405,6.2405,0,0,0,19.5,22.5Z" fill="#3c91af" stroke="#147391" stroke-miterlimit="10" stroke-width="0.9916"/>
  <polyline points="13.5 38.503 17.5 34.503 13.5 30.503" fill="none" stroke="#464646" stroke-linecap="round" stroke-linejoin="round"/>
  <path d="M8.5,27v3.4653A4.0347,4.0347,0,0,0,12.5347,34.5H17" fill="none" stroke="#464646" stroke-miterlimit="10"/>
  <path d="M32.5,30.875c0,2.4162-2.0147,5.625-4.5,5.625s-4.5-3.2088-4.5-5.625a4.5018,4.5018,0,0,1,9,0Z" stroke="#464646" stroke-miterlimit="10" stroke-width="1.0265" fill="url(#linear-gradient-3)"/>
  <path d="M36.5,43.5a6.2405,6.2405,0,0,0-3.404-5.3928,8.5363,8.5363,0,0,1-10.192,0A6.2405,6.2405,0,0,0,19.5,43.5Z" fill="#3c91af" stroke="#147391" stroke-miterlimit="10" stroke-width="0.9916"/>
</svg>
