<svg id="Layer_1" data-name="Layer 1" xmlns="http://www.w3.org/2000/svg" xmlns:xlink="http://www.w3.org/1999/xlink" viewBox="0 0 48 48">
  <defs>
    <linearGradient id="linear-gradient" x1="16.4492" y1="10.9216" x2="31.5508" y2="37.0784" gradientTransform="translate(24 -9.9411) rotate(45)" gradientUnits="userSpaceOnUse">
      <stop offset="0" stop-color="#fff"/>
      <stop offset="0.2323" stop-color="#fafafa"/>
      <stop offset="0.4964" stop-color="#ededed"/>
      <stop offset="0.775" stop-color="#d6d6d6"/>
      <stop offset="1" stop-color="#bebebe"/>
    </linearGradient>
    <linearGradient id="linear-gradient-2" x1="29.9772" y1="25.1802" x2="41.795" y2="36.998" gradientUnits="userSpaceOnUse">
      <stop offset="0" stop-color="#73b4c8"/>
      <stop offset="0.1747" stop-color="#6aaec3"/>
      <stop offset="0.4567" stop-color="#529eb5"/>
      <stop offset="0.8089" stop-color="#2c839f"/>
      <stop offset="1" stop-color="#147391"/>
    </linearGradient>
  </defs>
    <rect x="-0.0416" y="14.8076" width="48.0833" height="18.3848" transform="translate(-9.9411 24) rotate(-45)" fill="url(#linear-gradient)"/>
    <line x1="25" y1="10" x2="30" y2="15" fill="none" stroke="#6e6e6e" stroke-linejoin="round"/>
    <line x1="30" y1="5" x2="38" y2="13" fill="none" stroke="#6e6e6e" stroke-linejoin="round"/>
    <line x1="15" y1="20" x2="20" y2="25" fill="none" stroke="#6e6e6e" stroke-linejoin="round"/>
    <line x1="20" y1="15" x2="28" y2="23" fill="none" stroke="#6e6e6e" stroke-linejoin="round"/>
    <line x1="5" y1="30" x2="10" y2="35" fill="none" stroke="#6e6e6e" stroke-linejoin="round"/>
    <line x1="10" y1="25" x2="18" y2="33" fill="none" stroke="#6e6e6e" stroke-linejoin="round"/>
    <rect x="-0.0416" y="14.8076" width="48.0833" height="18.3848" transform="translate(-9.9411 24) rotate(-45)" fill="none" stroke="#464646" stroke-linejoin="round"/>
      <path d="M45.295,19.498H35.6594L19.5056,35.7085,31.295,47.498l16.2106-16.21v-9.579Zm-1.3808,6.4163a2,2,0,1,1,0-2.8285A2,2,0,0,1,43.9142,25.9143Z" stroke="#464646" stroke-linecap="round" stroke-linejoin="round" fill="url(#linear-gradient-2)"/>
      <line x1="24.6635" y1="36.4454" x2="34.9846" y2="26.1296" fill="none" stroke="#fff" stroke-linejoin="round"/>
      <line x1="27.6108" y1="39.3928" x2="36.4529" y2="30.5506" fill="none" stroke="#fff" stroke-linejoin="round"/>
      <line x1="30.5582" y1="42.3401" x2="40.874" y2="32.0243" fill="none" stroke="#fff" stroke-linejoin="round"/>
    <path d="M42.5,24.5a36.74,36.74,0,0,0,2-11" fill="none" stroke="#464646" stroke-linecap="round" stroke-linejoin="round"/>
</svg>
