<svg id="Layer_1" data-name="Layer 1" xmlns="http://www.w3.org/2000/svg" xmlns:xlink="http://www.w3.org/1999/xlink" viewBox="0 0 48 48">
  <defs>
    <linearGradient id="Dark_Blue_Grad" data-name="Dark Blue Grad" x1="3.494" y1="3.506" x2="44.494" y2="44.506" gradientUnits="userSpaceOnUse">
      <stop offset="0" stop-color="#73b4c8"/>
      <stop offset="0.175" stop-color="#6aaec3"/>
      <stop offset="0.457" stop-color="#529eb5"/>
      <stop offset="0.809" stop-color="#2c839f"/>
      <stop offset="1" stop-color="#147391"/>
    </linearGradient>
    <linearGradient id="front_-45" data-name="front -45" x1="-4.25" y1="11.25" x2="21.25" y2="36.75" gradientUnits="userSpaceOnUse">
      <stop offset="0" stop-color="#f2f2f2"/>
      <stop offset="0.5" stop-color="#ccc"/>
      <stop offset="0.63" stop-color="#c7c7c7"/>
      <stop offset="0.779" stop-color="#b9b9b9"/>
      <stop offset="0.938" stop-color="#a2a2a2"/>
      <stop offset="0.99" stop-color="#999"/>
    </linearGradient>
    <linearGradient id="front_-45-2" x1="17.543" y1="24.629" x2="34.457" y2="41.543" xlink:href="#front_-45"/>
    <linearGradient id="linear-gradient" x1="16.5" y1="23.5" x2="35.5" y2="42.5" gradientUnits="userSpaceOnUse">
      <stop offset="0" stop-color="#fff"/>
      <stop offset="0.232" stop-color="#fafafa"/>
      <stop offset="0.496" stop-color="#ededed"/>
      <stop offset="0.775" stop-color="#d6d6d6"/>
      <stop offset="1" stop-color="#bebebe"/>
    </linearGradient>
  </defs>
  <polygon points="41.5 47.5 6.5 47.5 6.5 0.5 41.474 0.5 41.5 47.5" fill="url(#Dark_Blue_Grad)"/>
  <rect x="6.5" y="0.5" width="4" height="47" stroke="#147391" stroke-miterlimit="10" fill="url(#front_-45)"/>
  <rect x="15.5" y="8.5" width="20" height="9" rx="1" ry="1" fill="#fff" stroke="#147391"/>
  <line x1="29" y1="14.5" x2="17" y2="14.5" fill="none" stroke="#147391"/>
  <line x1="32" y1="11.5" x2="17" y2="11.5" fill="none" stroke="#147391"/>
  <polygon points="41.5 47.5 6.5 47.5 6.5 0.5 41.474 0.5 41.5 47.5" fill="none" stroke="#464646" stroke-miterlimit="10"/>
  <g>
    <path d="M17,38.5H14.5v-10a2,2,0,0,1,2-2h19a2,2,0,0,1,2,2v10H17Z" stroke="#5a5a5a" stroke-miterlimit="10" fill="url(#front_-45-2)"/>
    <line x1="31" y1="30.5" x2="34" y2="30.5" fill="none" stroke="#5a5a5a" stroke-miterlimit="10"/>
    <path d="M33.5,26.5h-15v-5h15Zm0,7h-15v11h15Z" stroke="#5a5a5a" stroke-miterlimit="10" fill="url(#linear-gradient)"/>
  </g>
</svg>
