<svg version="1.1" id="Layer_1" xmlns="http://www.w3.org/2000/svg" xmlns:xlink="http://www.w3.org/1999/xlink" x="0px" y="0px"
	 viewBox="0 0 48 48" enable-background="new 0 0 48 48" xml:space="preserve">
<linearGradient id="XMLID_2_" gradientUnits="userSpaceOnUse" x1="-69.9223" y1="53.9247" x2="-41.6381" y2="53.9247" gradientTransform="matrix(0.7071 0.7071 -0.7071 0.7071 99.0746 22.8127)">
	<stop  offset="0" style="stop-color:#FFFFFF"/>
	<stop  offset="0.2323" style="stop-color:#FAFAFA"/>
	<stop  offset="0.4964" style="stop-color:#EDEDED"/>
	<stop  offset="0.775" style="stop-color:#D6D6D6"/>
	<stop  offset="1" style="stop-color:#BEBEBE"/>
</linearGradient>
<polygon id="XMLID_10_" fill="url(#XMLID_2_)" stroke="#464646" stroke-miterlimit="10" points="21.502,41.501 1.502,21.501 
	21.502,1.501 41.502,21.501 "/>
<linearGradient id="XMLID_3_" gradientUnits="userSpaceOnUse" x1="-69.9223" y1="53.9247" x2="-41.6381" y2="53.9247" gradientTransform="matrix(0.7071 0.7071 -0.7071 0.7071 99.0746 22.8127)">
	<stop  offset="0" style="stop-color:#FFFFFF"/>
	<stop  offset="0.2323" style="stop-color:#FAFAFA"/>
	<stop  offset="0.4964" style="stop-color:#EDEDED"/>
	<stop  offset="0.775" style="stop-color:#D6D6D6"/>
	<stop  offset="1" style="stop-color:#BEBEBE"/>
</linearGradient>
<polygon id="XMLID_9_" fill="url(#XMLID_3_)" stroke="#464646" stroke-miterlimit="10" points="21.502,41.501 1.502,21.501 
	21.502,1.501 41.502,21.501 "/>
<linearGradient id="XMLID_4_" gradientUnits="userSpaceOnUse" x1="-66.1511" y1="53.9247" x2="-45.4093" y2="53.9247" gradientTransform="matrix(0.7071 0.7071 -0.7071 0.7071 99.0746 22.8127)">
	<stop  offset="0" style="stop-color:#F2F2F2"/>
	<stop  offset="0.99" style="stop-color:#999999"/>
</linearGradient>
<polygon id="XMLID_8_" fill="url(#XMLID_4_)" stroke="#6E6E6E" stroke-miterlimit="10" points="21.502,36.167 6.835,21.501 
	21.502,6.834 36.168,21.501 "/>
<linearGradient id="SVGID_1_" gradientUnits="userSpaceOnUse" x1="26.1611" y1="26.1611" x2="43.8388" y2="43.8388">
	<stop  offset="0" style="stop-color:#73B4C8"/>
	<stop  offset="0.1747" style="stop-color:#6AAEC3"/>
	<stop  offset="0.4567" style="stop-color:#529EB5"/>
	<stop  offset="0.8089" style="stop-color:#2C839F"/>
	<stop  offset="1" style="stop-color:#147391"/>
</linearGradient>
<circle fill="url(#SVGID_1_)" stroke="#464646" stroke-linecap="round" stroke-linejoin="round" stroke-miterlimit="10" cx="35" cy="35" r="12.5"/>
	<polygon fill="#FFFFFF" points="26.446,36.485 28.755,34.571 32.487,39.053 41.688,27.677 44.023,29.561 32.518,43.789 	"/>
	<path fill="#147391" d="M41.763,28.38l1.557,1.256L32.513,43l-5.362-6.449l1.54-1.276l3.802,4.566L41.763,28.38 M41.613,26.974
		l-0.628,0.777l-8.504,10.514l-3.022-3.63l-0.638-0.767l-0.768,0.637l-1.54,1.276l-0.771,0.639l0.64,0.77l5.362,6.449l0.78,0.938
		l0.767-0.948l10.807-13.365l0.629-0.778l-0.779-0.629l-1.557-1.256L41.613,26.974L41.613,26.974z"/>
</svg>
