<svg id="Layer_1" data-name="Layer 1" xmlns="http://www.w3.org/2000/svg" xmlns:xlink="http://www.w3.org/1999/xlink" viewBox="0 0 48 48">
    <linearGradient id="linear-gradient" x1="7.586" y1="-4.414" x2="34" y2="22" gradientUnits="userSpaceOnUse">
      <stop offset="0" stop-color="#fff"/>
      <stop offset="0.232" stop-color="#fafafa"/>
      <stop offset="0.496" stop-color="#ededed"/>
      <stop offset="0.775" stop-color="#d6d6d6"/>
      <stop offset="1" stop-color="#bebebe"/>
    </linearGradient>
    <linearGradient id="linear-gradient-2" x1="4.75" y1="8.25" x2="39.25" y2="42.75" xlink:href="#linear-gradient"/>
    <linearGradient id="paper_gradient" data-name="paper gradient" x1="12.816" y1="-1.058" x2="32.098" y2="18.224" gradientUnits="userSpaceOnUse">
      <stop offset="0" stop-color="#fff"/>
      <stop offset="0.221" stop-color="#f8f8f8"/>
      <stop offset="0.541" stop-color="#e5e5e5"/>
      <stop offset="0.92" stop-color="#c6c6c6"/>
      <stop offset="1" stop-color="#bebebe"/>
    </linearGradient>
    <linearGradient id="linear-gradient-3" x1="32.985" y1="16.162" x2="41.015" y2="24.192" gradientUnits="userSpaceOnUse">
      <stop offset="0" stop-color="#fff"/>
      <stop offset="1" stop-color="#bebebe"/>
    </linearGradient>
    <linearGradient id="Dark_Blue_Grad" data-name="Dark Blue Grad" x1="28.478" y1="29.434" x2="45.522" y2="46.478" gradientUnits="userSpaceOnUse">
      <stop offset="0" stop-color="#73b4c8"/>
      <stop offset="0.175" stop-color="#6aaec3"/>
      <stop offset="0.457" stop-color="#529eb5"/>
      <stop offset="0.809" stop-color="#2c839f"/>
      <stop offset="1" stop-color="#147391"/>
    </linearGradient>
    <linearGradient id="linear-gradient-4" x1="20.984" y1="19.162" x2="29.015" y2="27.192" xlink:href="#linear-gradient-3"/>
    <linearGradient id="Dark_Blue_Grad-2" x1="16.477" y1="32.434" x2="33.521" y2="49.478" xlink:href="#Dark_Blue_Grad"/>
  <path d="M18,7.5,14.474,2.367A2,2,0,0,0,12.825,1.5H2.5a2,2,0,0,0-2,2v9h43v-5Z" stroke="#464646" stroke-miterlimit="10" fill="url(#linear-gradient)"/>
  <rect x="0.5" y="12.5" width="43" height="26" stroke="#464646" stroke-miterlimit="10" stroke-width="0.959" fill="url(#linear-gradient-2)"/>
  <polygon points="37.823 12.5 5.589 12.5 4.439 7.319 35.159 0.5 37.823 12.5" stroke="#464646" stroke-linejoin="round" fill="url(#paper_gradient)"/>
  <path d="M42.5,19.75c0,2.9-2.462,6.75-5.5,6.75s-5.5-3.851-5.5-6.75a5.506,5.506,0,0,1,11,0Z" stroke="#464646" stroke-miterlimit="10" stroke-width="1.021" fill="url(#linear-gradient-3)"/>
  <path d="M47.5,44.5V34a6.971,6.971,0,0,0-4.2-6.137,10.689,10.689,0,0,1-12.59,0A6.971,6.971,0,0,0,26.5,34V44.5Z" stroke="#464646" stroke-miterlimit="10" fill="url(#Dark_Blue_Grad)"/>
  <line x1="31.501" y1="44" x2="31.501" y2="35" fill="none" stroke="#147391" stroke-miterlimit="10"/>
  <line x1="42.501" y1="44" x2="42.501" y2="35" fill="none" stroke="#147391" stroke-miterlimit="10"/>
  <path d="M30.5,22.75c0,2.9-2.462,6.75-5.5,6.75s-5.5-3.851-5.5-6.75a5.506,5.506,0,0,1,11,0Z" stroke="#464646" stroke-miterlimit="10" stroke-width="1.021" fill="url(#linear-gradient-4)"/>
  <path d="M35.5,47.5V37a6.971,6.971,0,0,0-4.2-6.137,10.689,10.689,0,0,1-12.59,0A6.971,6.971,0,0,0,14.5,37V47.5Z" stroke="#464646" stroke-miterlimit="10" fill="url(#Dark_Blue_Grad-2)"/>
  <line x1="19.5" y1="47" x2="19.5" y2="38" fill="none" stroke="#147391" stroke-miterlimit="10"/>
  <line x1="30.5" y1="47" x2="30.5" y2="38" fill="none" stroke="#147391" stroke-miterlimit="10"/>
</svg>
