<svg id="Layer_1" data-name="Layer 1" xmlns="http://www.w3.org/2000/svg" xmlns:xlink="http://www.w3.org/1999/xlink" viewBox="0 0 48 48">
    <linearGradient id="front_-45" data-name="front -45" x1="10.5" y1="10.5" x2="37.5" y2="37.5" gradientUnits="userSpaceOnUse">
      <stop offset="0" stop-color="#f2f2f2"/>
      <stop offset="0.5" stop-color="#ccc"/>
      <stop offset="0.63" stop-color="#c7c7c7"/>
      <stop offset="0.779" stop-color="#b9b9b9"/>
      <stop offset="0.938" stop-color="#a2a2a2"/>
      <stop offset="0.99" stop-color="#999"/>
    </linearGradient>
    <linearGradient id="Dark_Blue_Grad" data-name="Dark Blue Grad" x1="0.5" y1="15" x2="10.5" y2="15" gradientUnits="userSpaceOnUse">
      <stop offset="0" stop-color="#73b4c8"/>
      <stop offset="0.175" stop-color="#6aaec3"/>
      <stop offset="0.457" stop-color="#529eb5"/>
      <stop offset="0.809" stop-color="#2c839f"/>
      <stop offset="1" stop-color="#147391"/>
    </linearGradient>
    <linearGradient id="Dark_Blue_Grad-2" y1="21" y2="21" xlink:href="#Dark_Blue_Grad"/>
    <linearGradient id="Dark_Blue_Grad-3" y1="27" y2="27" xlink:href="#Dark_Blue_Grad"/>
    <linearGradient id="Dark_Blue_Grad-4" y1="33" y2="33" xlink:href="#Dark_Blue_Grad"/>
    <linearGradient id="linear-gradient" x1="37.5" y1="15" x2="47.5" y2="15" gradientUnits="userSpaceOnUse">
      <stop offset="0" stop-color="#147391"/>
      <stop offset="0.191" stop-color="#2c839f"/>
      <stop offset="0.543" stop-color="#529eb5"/>
      <stop offset="0.825" stop-color="#6aaec3"/>
      <stop offset="1" stop-color="#73b4c8"/>
    </linearGradient>
    <linearGradient id="linear-gradient-2" y1="21" y2="21" xlink:href="#linear-gradient"/>
    <linearGradient id="linear-gradient-3" y1="27" y2="27" xlink:href="#linear-gradient"/>
    <linearGradient id="linear-gradient-4" y1="33" y2="33" xlink:href="#linear-gradient"/>
    <linearGradient id="Dark_Blue_Grad-5" gradientTransform="translate(27.5 -9.5)" xlink:href="#Dark_Blue_Grad"/>
    <linearGradient id="Dark_Blue_Grad-6" y1="21" y2="21" gradientTransform="translate(21.5 -15.5)" xlink:href="#Dark_Blue_Grad"/>
    <linearGradient id="Dark_Blue_Grad-7" y1="27" y2="27" gradientTransform="translate(15.5 -21.5)" xlink:href="#Dark_Blue_Grad"/>
    <linearGradient id="Dark_Blue_Grad-8" y1="33" y2="33" gradientTransform="translate(9.5 -27.5)" xlink:href="#Dark_Blue_Grad"/>
    <linearGradient id="linear-gradient-5" gradientTransform="translate(-9.5 27.5)" xlink:href="#linear-gradient"/>
    <linearGradient id="linear-gradient-6" y1="21" y2="21" gradientTransform="translate(-15.5 21.5)" xlink:href="#linear-gradient"/>
    <linearGradient id="linear-gradient-7" y1="27" y2="27" gradientTransform="translate(-21.5 15.5)" xlink:href="#linear-gradient"/>
    <linearGradient id="linear-gradient-8" y1="33" y2="33" gradientTransform="translate(-27.5 9.5)" xlink:href="#linear-gradient"/>
  <polygon points="36.5 38.5 11.5 38.5 9.5 36.5 9.5 11.5 11.5 9.5 36.5 9.5 38.5 11.5 38.5 36.5 36.5 38.5" stroke="#464646" stroke-miterlimit="10" fill="url(#front_-45)"/>
  <polygon points="34.5 35.5 13.5 35.5 12.5 34.5 12.5 13.5 13.5 12.5 34.5 12.5 35.5 13.5 35.5 34.5 34.5 35.5" fill="none" stroke="#6e6e6e" stroke-linejoin="round"/>
  <rect x="0.5" y="13.5" width="10" height="3" stroke="#464646" stroke-miterlimit="10" fill="url(#Dark_Blue_Grad)"/>
  <rect x="0.5" y="19.5" width="10" height="3" stroke="#464646" stroke-miterlimit="10" fill="url(#Dark_Blue_Grad-2)"/>
  <rect x="0.5" y="25.5" width="10" height="3" stroke="#464646" stroke-miterlimit="10" fill="url(#Dark_Blue_Grad-3)"/>
  <rect x="0.5" y="31.5" width="10" height="3" stroke="#464646" stroke-miterlimit="10" fill="url(#Dark_Blue_Grad-4)"/>
  <rect x="37.5" y="13.5" width="10" height="3" stroke="#464646" stroke-miterlimit="10" fill="url(#linear-gradient)"/>
  <rect x="37.5" y="19.5" width="10" height="3" stroke="#464646" stroke-miterlimit="10" fill="url(#linear-gradient-2)"/>
  <rect x="37.5" y="25.5" width="10" height="3" stroke="#464646" stroke-miterlimit="10" fill="url(#linear-gradient-3)"/>
  <rect x="37.5" y="31.5" width="10" height="3" stroke="#464646" stroke-miterlimit="10" fill="url(#linear-gradient-4)"/>
  <rect x="28" y="4" width="10" height="3" transform="translate(38.5 -27.5) rotate(90)" stroke="#464646" stroke-miterlimit="10" fill="url(#Dark_Blue_Grad-5)"/>
  <rect x="22" y="4" width="10" height="3" transform="translate(32.5 -21.5) rotate(90)" stroke="#464646" stroke-miterlimit="10" fill="url(#Dark_Blue_Grad-6)"/>
  <rect x="16" y="4" width="10" height="3" transform="translate(26.5 -15.5) rotate(90)" stroke="#464646" stroke-miterlimit="10" fill="url(#Dark_Blue_Grad-7)"/>
  <rect x="10" y="4" width="10" height="3" transform="translate(20.5 -9.5) rotate(90)" stroke="#464646" stroke-miterlimit="10" fill="url(#Dark_Blue_Grad-8)"/>
  <rect x="28" y="41" width="10" height="3" transform="translate(75.5 9.5) rotate(90)" stroke="#464646" stroke-miterlimit="10" fill="url(#linear-gradient-5)"/>
  <rect x="22" y="41" width="10" height="3" transform="translate(69.5 15.5) rotate(90)" stroke="#464646" stroke-miterlimit="10" fill="url(#linear-gradient-6)"/>
  <rect x="16" y="41" width="10" height="3" transform="translate(63.5 21.5) rotate(90)" stroke="#464646" stroke-miterlimit="10" fill="url(#linear-gradient-7)"/>
  <rect x="10" y="41" width="10" height="3" transform="translate(57.5 27.5) rotate(90)" stroke="#464646" stroke-miterlimit="10" fill="url(#linear-gradient-8)"/>
</svg>
