<svg version="1.1" id="Layer_1" xmlns="http://www.w3.org/2000/svg" xmlns:xlink="http://www.w3.org/1999/xlink" x="0px" y="0px"
	 viewBox="0 0 48 48" enable-background="new 0 0 48 48" xml:space="preserve">
<linearGradient id="SVGID_1_" gradientUnits="userSpaceOnUse" x1="5.5" y1="5.5" x2="42.5" y2="42.5">
	<stop  offset="0" style="stop-color:#FFFFFF"/>
	<stop  offset="0.2214" style="stop-color:#F8F8F8"/>
	<stop  offset="0.5415" style="stop-color:#E5E5E5"/>
	<stop  offset="0.92" style="stop-color:#C6C6C6"/>
	<stop  offset="1" style="stop-color:#BEBEBE"/>
</linearGradient>
<path fill="url(#SVGID_1_)" stroke="#464646" stroke-miterlimit="10" d="M47.458,23.442l-4.777-6.688
	c-0.057-0.079-0.181-0.039-0.181,0.058V20.5h-3v-18h-31v18h-3v-3.688c0-0.097-0.125-0.137-0.181-0.058l-4.777,6.688
	c-0.025,0.035-0.025,0.081,0,0.116l4.777,6.688C5.375,30.325,5.5,30.285,5.5,30.188V26.5h3v19h31v-19h3v3.688
	c0,0.097,0.125,0.137,0.181,0.058l4.777-6.688C47.483,23.523,47.483,23.477,47.458,23.442z"/>
<linearGradient id="SVGID_2_" gradientUnits="userSpaceOnUse" x1="36.7501" y1="1452.25" x2="11.2501" y2="1426.75" gradientTransform="matrix(-1 0 0 -1 48 1463)">
	<stop  offset="0" style="stop-color:#73B4C8"/>
	<stop  offset="0.1747" style="stop-color:#6AAEC3"/>
	<stop  offset="0.4567" style="stop-color:#529EB5"/>
	<stop  offset="0.8089" style="stop-color:#2C839F"/>
	<stop  offset="1" style="stop-color:#147391"/>
</linearGradient>
<rect x="10.5" y="11.5" fill="url(#SVGID_2_)" stroke="#147391" stroke-miterlimit="10" width="27" height="24"/>
<linearGradient id="SVGID_3_" gradientUnits="userSpaceOnUse" x1="33.75" y1="1447.25" x2="14.25" y2="1427.75" gradientTransform="matrix(-1 0 0 -1 48 1463)">
	<stop  offset="0" style="stop-color:#FFFFFF"/>
	<stop  offset="0.2323" style="stop-color:#FAFAFA"/>
	<stop  offset="0.4964" style="stop-color:#EDEDED"/>
	<stop  offset="0.775" style="stop-color:#D6D6D6"/>
	<stop  offset="1" style="stop-color:#BEBEBE"/>
</linearGradient>
<polygon fill="url(#SVGID_3_)" stroke="#147391" stroke-miterlimit="10" points="12.5,17.5 35.5,17.5 35.5,33.5 12.5,33.5 "/>
<rect x="25.5" y="13.5" fill="none" stroke="#147391" stroke-miterlimit="10" width="2" height="2"/>
<rect x="29.5" y="13.5" fill="none" stroke="#147391" stroke-miterlimit="10" width="2" height="2"/>
<line fill="#73B4C8" stroke="#147391" stroke-linecap="round" stroke-miterlimit="10" x1="33.5" y1="13.5" x2="35.5" y2="15.5"/>
<line fill="#73B4C8" stroke="#147391" stroke-linecap="round" stroke-miterlimit="10" x1="35.5" y1="13.5" x2="33.5" y2="15.5"/>
</svg>
