<svg id="Layer_1" data-name="Layer 1" xmlns="http://www.w3.org/2000/svg" xmlns:xlink="http://www.w3.org/1999/xlink" viewBox="0 0 48 48">
    <linearGradient id="New_Gradient_Swatch_1" data-name="New Gradient Swatch 1" x1="-0.5" y1="41.5" x2="41" gradientTransform="matrix(1, 0, 0, -1, 0, 48)" gradientUnits="userSpaceOnUse">
      <stop offset="0" stop-color="#cde6eb"/>
      <stop offset="0.221" stop-color="#c6e2e8"/>
      <stop offset="0.542" stop-color="#b3d8e1"/>
      <stop offset="0.921" stop-color="#93c7d5"/>
      <stop offset="1" stop-color="#8cc3d2"/>
    </linearGradient>
    <linearGradient id="New_Gradient_Swatch_1-2" x1="24.5" y1="26.5" x2="38.5" y2="26.5" gradientTransform="matrix(1, 0, 0, 1, 0, 0)" xlink:href="#New_Gradient_Swatch_1"/>
    <linearGradient id="New_Gradient_Swatch_1-3" x1="25.25" y1="44.25" x2="38.25" y2="31.25" xlink:href="#New_Gradient_Swatch_1"/>
  <rect width="48" height="48" fill="none"/>
  <polygon points="28.5 0.5 5.5 0.5 5.5 47.5 41.5 47.5 41.5 13.5 28.5 0.5" stroke="#464646" stroke-miterlimit="10" fill="url(#New_Gradient_Swatch_1)"/>
  <polyline points="38.5 13.5 38.5 18.5 8.5 18.5 8.5 9.5 28.5 9.5" fill="none" stroke="#147391" stroke-miterlimit="10"/>
  <rect x="8.5" y="21.5" width="13" height="23" fill="none" stroke="#147391" stroke-miterlimit="10"/>
  <rect x="24.5" y="21.5" width="14" height="10" stroke="#147391" stroke-miterlimit="10" fill="url(#New_Gradient_Swatch_1-2)"/>
  <rect x="24.5" y="34.5" width="14" height="10" fill="none" stroke="#147391" stroke-miterlimit="10"/>
    <circle cx="28" cy="25" r="1.5" fill="#fff" stroke="#147391" stroke-linecap="round" stroke-linejoin="round"/>
    <polygon points="26.5 31.5 31.5 26.5 33.5 28.5 36.5 24.5 38.5 26.5 38.5 31.5 26.5 31.5" fill="#969696" stroke="#6e6e6e" stroke-linecap="round" stroke-miterlimit="10"/>
  <line x1="11" y1="12.5" x2="28.5" y2="12.5" fill="none" stroke="#147391" stroke-miterlimit="10"/>
  <line x1="11" y1="15.5" x2="36" y2="15.5" fill="none" stroke="#147391" stroke-miterlimit="10"/>
  <line x1="11" y1="24.5" x2="19" y2="24.5" fill="none" stroke="#147391" stroke-miterlimit="10"/>
  <line x1="11" y1="27.5" x2="17" y2="27.5" fill="none" stroke="#147391" stroke-miterlimit="10"/>
  <line x1="11" y1="30.5" x2="18" y2="30.5" fill="none" stroke="#147391" stroke-miterlimit="10"/>
  <line x1="11" y1="33.5" x2="19" y2="33.5" fill="none" stroke="#147391" stroke-miterlimit="10"/>
  <line x1="11" y1="36.5" x2="17" y2="36.5" fill="none" stroke="#147391" stroke-miterlimit="10"/>
  <line x1="11" y1="39.5" x2="18" y2="39.5" fill="none" stroke="#147391" stroke-miterlimit="10"/>
  <line x1="11" y1="42.5" x2="19" y2="42.5" fill="none" stroke="#147391" stroke-miterlimit="10"/>
  <line x1="26.5" y1="36" x2="26.5" y2="43" fill="none" stroke="#147391" stroke-miterlimit="10"/>
  <line x1="29" y1="36" x2="29" y2="41" fill="none" stroke="#147391" stroke-miterlimit="10" stroke-width="2"/>
  <line x1="31.5" y1="36" x2="31.5" y2="41" fill="none" stroke="#147391" stroke-miterlimit="10"/>
  <line x1="32.5" y1="36" x2="32.5" y2="43" fill="none" stroke="#147391" stroke-miterlimit="10"/>
  <line x1="34.5" y1="36" x2="34.5" y2="41" fill="none" stroke="#147391" stroke-miterlimit="10"/>
  <line x1="36.5" y1="36" x2="36.5" y2="43" fill="none" stroke="#147391" stroke-miterlimit="10"/>
  <polygon points="28.5 0.5 28.5 13.5 41.5 13.5 28.5 0.5" stroke="#464646" stroke-linejoin="round" fill="url(#New_Gradient_Swatch_1-3)"/>
</svg>
