<svg id="Layer_1" data-name="Layer 1" xmlns="http://www.w3.org/2000/svg" xmlns:xlink="http://www.w3.org/1999/xlink" viewBox="0 0 48 48">
  <defs>
    <linearGradient id="New_Gradient_Swatch_2" data-name="New Gradient Swatch 2" x1="24.7527" y1="9.9081" x2="38.788" y2="23.9433" gradientUnits="userSpaceOnUse">
      <stop offset="0" stop-color="#afd7e1"/>
      <stop offset="0.1588" stop-color="#a4d0dc"/>
      <stop offset="0.7059" stop-color="#80bcce"/>
      <stop offset="1" stop-color="#73b4c8"/>
    </linearGradient>
    <linearGradient id="paper_gradient" data-name="paper gradient" x1="15.6159" y1="14.7488" x2="31.3841" y2="30.517" gradientUnits="userSpaceOnUse">
      <stop offset="0" stop-color="#fff"/>
      <stop offset="0.2214" stop-color="#f8f8f8"/>
      <stop offset="0.5415" stop-color="#e5e5e5"/>
      <stop offset="0.92" stop-color="#c6c6c6"/>
      <stop offset="1" stop-color="#bebebe"/>
    </linearGradient>
    <linearGradient id="New_Gradient_Swatch_2-2" x1="2.2368" y1="19.7619" x2="21.8542" y2="39.3793" xlink:href="#New_Gradient_Swatch_2"/>
    <linearGradient id="New_Gradient_Swatch_1" data-name="New Gradient Swatch 1" x1="12.0081" y1="9.9906" x2="35.0026" y2="32.9851" gradientUnits="userSpaceOnUse">
      <stop offset="0" stop-color="#cde6eb"/>
      <stop offset="0.2214" stop-color="#c6e2e8"/>
      <stop offset="0.5419" stop-color="#b3d8e1"/>
      <stop offset="0.9212" stop-color="#93c7d5"/>
      <stop offset="1" stop-color="#8cc3d2"/>
    </linearGradient>
    <linearGradient id="New_Gradient_Swatch_3" data-name="New Gradient Swatch 3" x1="15.3522" y1="15.0487" x2="28.9862" y2="28.6828" gradientUnits="userSpaceOnUse">
      <stop offset="0" stop-color="#b1b1b1"/>
      <stop offset="1" stop-color="#7d7d7d"/>
    </linearGradient>
  </defs>
    <polygon points="41.244 21.488 39.261 22.64 23.437 13.503 23.448 11.213 41.244 21.488" fill="url(#New_Gradient_Swatch_2)"/>
  <polygon points="5.767 21.488 23.448 11.213 23.437 13.503 7.739 22.626 5.767 21.488" fill="#3c91af"/>
  <line x1="23.5" y1="11" x2="23.5" y2="13.5" fill="none" stroke="#147391" stroke-miterlimit="10"/>
  <path d="M23.4368,13.5034,39.2614,22.64,23.5632,31.7624,7.7386,22.6261Z" fill="url(#paper_gradient)"/>
  <path d="M7.7386,22.6261l15.6982-9.1227L39.2614,22.64" fill="none" stroke="#147391" stroke-miterlimit="10"/>
  <polygon points="0.511 21.488 0.511 24.334 23.58 37.653 23.58 34.807 0.511 21.488" fill="url(#New_Gradient_Swatch_2-2)"/>
  <polygon points="23.58 37.653 46.5 24.334 46.5 21.488 23.58 34.807 23.58 37.653" fill="#3c91af"/>
  <line x1="23.5" y1="35" x2="23.5" y2="37.5" fill="none" stroke="#147391" stroke-linejoin="round"/>
  <path d="M25.738,9.5008,46.5,21.4877l-22.92,13.32L.5107,21.488,21.1379,9.5008C22.9353,9.5008,23.9434,9.499,25.738,9.5008ZM23.5632,31.7624l17.68-10.2746L23.4475,11.2132,5.7672,21.4879l17.796,10.2745" fill="url(#New_Gradient_Swatch_1)"/>
  <path d="M46.5,21.4877l-22.92,13.32L.5107,21.488" fill="none" stroke="#147391" stroke-miterlimit="10"/>
  <path d="M16.5964,19.3935l.0043.76-5.2393,3.0447H10.0487l-1.3169-.76-.0072-.762,5.2393-3.0448,1.3156.0017Zm2.6368,1.5224H17.9205l-5.2392,3.0447.0042.76,1.3169.76,1.3156.0017,5.2393-3.0447-.0072-.7621Zm3.9537,2.2827H21.8742l-5.2393,3.0447.0043.76,1.32.7621,1.3126,0,5.2393-3.0447-.0043-.76Zm3.9566,2.2843-1.3156-.0017L20.5886,28.526l.0073.762,1.3169.76h1.3126l5.2393-3.0447-.0043-.76Zm-7.1145-8.658-2.2925,1.3323,2.3076,1.3322,2.2925-1.3322ZM24.9734,19.68l-2.2926,1.3323,2.3076,1.3322,2.2925-1.3322Zm4.9443,2.8546-2.2925,1.3323,2.3075,1.3323,2.2926-1.3323ZM23.795,14.6364l-2.2926,1.3323L23.81,17.3009l2.2925-1.3323Zm4.9443,2.8546-2.2926,1.3323,2.3076,1.3322,2.2925-1.3323Zm4.9443,2.8546-2.2925,1.3323L33.6986,23.01l2.2926-1.3322Z" stroke="#6e6e6e" stroke-linejoin="round" fill="url(#New_Gradient_Swatch_3)"/>
  <polygon points="23.563 31.762 41.244 21.488 23.448 11.213 5.767 21.488 23.563 31.762" fill="none" stroke="#147391" stroke-miterlimit="10"/>
  <path d="M25.738,9.5007c-1.7946-.0017-2.8027,0-4.6,0L.5107,21.4879V24.334L23.58,37.6533l22.92-13.32V21.4877Z" fill="none" stroke="#464646" stroke-miterlimit="10"/>
</svg>
