<svg version="1.1" id="Layer_1" xmlns="http://www.w3.org/2000/svg" xmlns:xlink="http://www.w3.org/1999/xlink" x="0px" y="0px"
	 viewBox="0 0 48 48" enable-background="new 0 0 48 48" xml:space="preserve">
<linearGradient id="SVGID_1_" gradientUnits="userSpaceOnUse" x1="-5.75" y1="-894.7501" x2="31.2497" y2="-931.7498" gradientTransform="matrix(1 0 0 -1 0 -888)">
	<stop  offset="0" style="stop-color:#FFFFFF"/>
	<stop  offset="0.2323" style="stop-color:#FAFAFA"/>
	<stop  offset="0.4964" style="stop-color:#EDEDED"/>
	<stop  offset="0.775" style="stop-color:#D6D6D6"/>
	<stop  offset="1" style="stop-color:#BEBEBE"/>
</linearGradient>
<polygon fill="url(#SVGID_1_)" stroke="#464646" stroke-miterlimit="10" points="19.5,0.5 0.5,0.5 0.5,44.5 30.5,44.5 30.5,11.5 "/>
<linearGradient id="SVGID_2_" gradientUnits="userSpaceOnUse" x1="16.7498" y1="-891.25" x2="27.7497" y2="-902.2499" gradientTransform="matrix(1 0 0 -1 0 -888)">
	<stop  offset="0" style="stop-color:#FFFFFF"/>
	<stop  offset="0.2214" style="stop-color:#F8F8F8"/>
	<stop  offset="0.5415" style="stop-color:#E5E5E5"/>
	<stop  offset="0.92" style="stop-color:#C6C6C6"/>
	<stop  offset="1" style="stop-color:#BEBEBE"/>
</linearGradient>
<polygon fill="url(#SVGID_2_)" stroke="#464646" stroke-linejoin="round" stroke-miterlimit="10" points="19.5,0.5 19.5,11.5 
	30.5,11.5 "/>
<linearGradient id="SVGID_3_" gradientUnits="userSpaceOnUse" x1="9.75" y1="25.25" x2="21.25" y2="13.75">
	<stop  offset="0" style="stop-color:#FFFFFF"/>
	<stop  offset="0.2323" style="stop-color:#FAFAFA"/>
	<stop  offset="0.4964" style="stop-color:#EDEDED"/>
	<stop  offset="0.775" style="stop-color:#D6D6D6"/>
	<stop  offset="1" style="stop-color:#BEBEBE"/>
</linearGradient>
<line fill="url(#SVGID_3_)" stroke="#464646" stroke-miterlimit="10" x1="4" y1="19.5" x2="27" y2="19.5"/>
<linearGradient id="SVGID_4_" gradientUnits="userSpaceOnUse" x1="9" y1="29.5" x2="19" y2="19.5">
	<stop  offset="0" style="stop-color:#FFFFFF"/>
	<stop  offset="0.2323" style="stop-color:#FAFAFA"/>
	<stop  offset="0.4964" style="stop-color:#EDEDED"/>
	<stop  offset="0.775" style="stop-color:#D6D6D6"/>
	<stop  offset="1" style="stop-color:#BEBEBE"/>
</linearGradient>
<line fill="url(#SVGID_4_)" stroke="#464646" stroke-miterlimit="10" x1="4" y1="24.5" x2="24" y2="24.5"/>
<linearGradient id="SVGID_5_" gradientUnits="userSpaceOnUse" x1="5" y1="30.5" x2="7" y2="28.5">
	<stop  offset="0" style="stop-color:#FFFFFF"/>
	<stop  offset="0.2323" style="stop-color:#FAFAFA"/>
	<stop  offset="0.4964" style="stop-color:#EDEDED"/>
	<stop  offset="0.775" style="stop-color:#D6D6D6"/>
	<stop  offset="1" style="stop-color:#BEBEBE"/>
</linearGradient>
<line fill="url(#SVGID_5_)" stroke="#464646" stroke-miterlimit="10" x1="4" y1="29.5" x2="8" y2="29.5"/>
<linearGradient id="SVGID_6_" gradientUnits="userSpaceOnUse" x1="22.3535" y1="14.9749" x2="26.3535" y2="18.9749" gradientTransform="matrix(1 0 0 1 -1.8535 -0.4748)">
	<stop  offset="0" style="stop-color:#73B4C8"/>
	<stop  offset="0.1747" style="stop-color:#6AAEC3"/>
	<stop  offset="0.4567" style="stop-color:#529EB5"/>
	<stop  offset="0.8089" style="stop-color:#2C839F"/>
	<stop  offset="1" style="stop-color:#147391"/>
</linearGradient>
<polygon fill="url(#SVGID_6_)" points="16.5,26.5 12.5,22.5 28.5,6.5 32.5,10.5 "/>
<linearGradient id="SVGID_7_" gradientUnits="userSpaceOnUse" x1="31.8554" y1="5.473" x2="35.8554" y2="9.473" gradientTransform="matrix(1 0 0 1 -1.8535 -0.4748)">
	<stop  offset="0" style="stop-color:#CDE6EB"/>
	<stop  offset="1" style="stop-color:#8CC3D2"/>
</linearGradient>
<polygon fill="url(#SVGID_7_)" points="28.5,6.5 31.507,3.5 35.5,7.5 32.5,10.5 "/>
<linearGradient id="SVGID_8_" gradientUnits="userSpaceOnUse" x1="30.3536" y1="6.9749" x2="34.3536" y2="10.9749" gradientTransform="matrix(1 0 0 1 -1.8535 -0.4748)">
	<stop  offset="0" style="stop-color:#AFD7E1"/>
	<stop  offset="1" style="stop-color:#73B4C8"/>
</linearGradient>
<line fill="url(#SVGID_8_)" stroke="#147391" stroke-linejoin="round" x1="32.5" y1="10.5" x2="28.5" y2="6.5"/>
<linearGradient id="SVGID_9_" gradientUnits="userSpaceOnUse" x1="11.3536" y1="26.4749" x2="18.3536" y2="26.4749" gradientTransform="matrix(1 0 0 1 -1.8535 -0.4748)">
	<stop  offset="0" style="stop-color:#FFFFFF"/>
	<stop  offset="0.2214" style="stop-color:#F8F8F8"/>
	<stop  offset="0.5415" style="stop-color:#E5E5E5"/>
	<stop  offset="0.92" style="stop-color:#C6C6C6"/>
	<stop  offset="1" style="stop-color:#BEBEBE"/>
</linearGradient>
<polygon fill="url(#SVGID_9_)" points="9.5,29.5 12.5,22.5 16.5,26.5 "/>
<polygon fill="none" stroke="#464646" stroke-linejoin="round" points="31.507,3.5 12.5,22.5 9.5,29.5 16.5,26.5 35.5,7.5 "/>
<polygon fill="#464646" points="13,28 11,26 9.5,29.5 "/>
	<linearGradient id="SVGID_10_" gradientUnits="userSpaceOnUse" x1="26.1717" y1="26.1323" x2="43.826" y2="43.7866">
		<stop  offset="0" style="stop-color:#73B4C8"/>
		<stop  offset="0.1747" style="stop-color:#6AAEC3"/>
		<stop  offset="0.4567" style="stop-color:#529EB5"/>
		<stop  offset="0.8089" style="stop-color:#2C839F"/>
		<stop  offset="1" style="stop-color:#147391"/>
	</linearGradient>
	<path fill="url(#SVGID_10_)" stroke="#464646" stroke-linejoin="round" stroke-miterlimit="10" d="M43.324,38.001l4.176-1.482
		v-3.12l-4.176-1.482c-0.298-0.105-0.417-0.424-0.293-0.685l1.899-3.995l-2.207-2.206l-3.995,1.901
		c-0.278,0.132-0.592-0.011-0.686-0.275L36.56,22.5H33.44l-1.482,4.155c-0.094,0.262-0.419,0.399-0.686,0.272l-3.995-1.899
		l-2.207,2.207l1.898,3.995c0.122,0.256,0.003,0.582-0.291,0.686L22.5,33.398v3.12l4.176,1.483c0.3,0.106,0.417,0.426,0.293,0.686
		l-1.899,3.996l2.207,2.208l3.995-1.895c0.251-0.119,0.576-0.004,0.686,0.306L33.44,47.5h3.121l1.482-4.197
		c0.118-0.331,0.423-0.438,0.686-0.314l3.995,1.899l2.207-2.207l-1.898-3.995C42.91,38.428,43.031,38.104,43.324,38.001z"/>
<linearGradient id="SVGID_11_" gradientUnits="userSpaceOnUse" x1="32.5263" y1="32.5263" x2="37.4737" y2="37.4737">
	<stop  offset="0" style="stop-color:#FFFFFF"/>
	<stop  offset="0.2214" style="stop-color:#F8F8F8"/>
	<stop  offset="0.5415" style="stop-color:#E5E5E5"/>
	<stop  offset="0.92" style="stop-color:#C6C6C6"/>
	<stop  offset="1" style="stop-color:#BEBEBE"/>
</linearGradient>
<circle fill="url(#SVGID_11_)" stroke="#464646" stroke-miterlimit="10" cx="35" cy="35" r="3.5"/>
</svg>
