<svg version="1.1" id="Layer_1" xmlns="http://www.w3.org/2000/svg" xmlns:xlink="http://www.w3.org/1999/xlink" x="0px" y="0px"
	 viewBox="0 0 48 48" enable-background="new 0 0 48 48" xml:space="preserve">
<linearGradient id="SVGID_1_" gradientUnits="userSpaceOnUse" x1="1.5" y1="2.5" x2="13.5" y2="14.5">
	<stop  offset="0" style="stop-color:#FFFFFF"/>
	<stop  offset="0.2214" style="stop-color:#F8F8F8"/>
	<stop  offset="0.5415" style="stop-color:#E5E5E5"/>
	<stop  offset="0.92" style="stop-color:#C6C6C6"/>
	<stop  offset="1" style="stop-color:#BEBEBE"/>
</linearGradient>
<rect x="1.5" y="2.5" fill="url(#SVGID_1_)" stroke="#464646" stroke-miterlimit="10" width="12" height="12"/>
<linearGradient id="SVGID_2_" gradientUnits="userSpaceOnUse" x1="1.5" y1="18.5" x2="13.5" y2="30.5">
	<stop  offset="0" style="stop-color:#FFFFFF"/>
	<stop  offset="0.2214" style="stop-color:#F8F8F8"/>
	<stop  offset="0.5415" style="stop-color:#E5E5E5"/>
	<stop  offset="0.92" style="stop-color:#C6C6C6"/>
	<stop  offset="1" style="stop-color:#BEBEBE"/>
</linearGradient>
<rect x="1.5" y="18.5" fill="url(#SVGID_2_)" stroke="#464646" stroke-miterlimit="10" width="12" height="12"/>
<linearGradient id="SVGID_3_" gradientUnits="userSpaceOnUse" x1="17.5" y1="18.5" x2="29.5" y2="30.5">
	<stop  offset="0" style="stop-color:#FFFFFF"/>
	<stop  offset="0.2214" style="stop-color:#F8F8F8"/>
	<stop  offset="0.5415" style="stop-color:#E5E5E5"/>
	<stop  offset="0.92" style="stop-color:#C6C6C6"/>
	<stop  offset="1" style="stop-color:#BEBEBE"/>
</linearGradient>
<rect x="17.5" y="18.5" fill="url(#SVGID_3_)" stroke="#464646" stroke-miterlimit="10" width="12" height="12"/>
<linearGradient id="SVGID_4_" gradientUnits="userSpaceOnUse" x1="1.5" y1="34.5" x2="13.5" y2="46.5">
	<stop  offset="0" style="stop-color:#FFFFFF"/>
	<stop  offset="0.2214" style="stop-color:#F8F8F8"/>
	<stop  offset="0.5415" style="stop-color:#E5E5E5"/>
	<stop  offset="0.92" style="stop-color:#C6C6C6"/>
	<stop  offset="1" style="stop-color:#BEBEBE"/>
</linearGradient>
<rect x="1.5" y="34.5" fill="url(#SVGID_4_)" stroke="#464646" stroke-miterlimit="10" width="12" height="12"/>
<linearGradient id="SVGID_5_" gradientUnits="userSpaceOnUse" x1="17.5" y1="34.5" x2="29.5" y2="46.5">
	<stop  offset="0" style="stop-color:#FFFFFF"/>
	<stop  offset="0.2214" style="stop-color:#F8F8F8"/>
	<stop  offset="0.5415" style="stop-color:#E5E5E5"/>
	<stop  offset="0.92" style="stop-color:#C6C6C6"/>
	<stop  offset="1" style="stop-color:#BEBEBE"/>
</linearGradient>
<rect x="17.5" y="34.5" fill="url(#SVGID_5_)" stroke="#464646" stroke-miterlimit="10" width="12" height="12"/>
<linearGradient id="SVGID_6_" gradientUnits="userSpaceOnUse" x1="33.5" y1="34.5" x2="45.5" y2="46.5">
	<stop  offset="0" style="stop-color:#FFFFFF"/>
	<stop  offset="0.2214" style="stop-color:#F8F8F8"/>
	<stop  offset="0.5415" style="stop-color:#E5E5E5"/>
	<stop  offset="0.92" style="stop-color:#C6C6C6"/>
	<stop  offset="1" style="stop-color:#BEBEBE"/>
</linearGradient>
<rect x="33.5" y="34.5" fill="url(#SVGID_6_)" stroke="#464646" stroke-miterlimit="10" width="12" height="12"/>
<linearGradient id="SVGID_7_" gradientUnits="userSpaceOnUse" x1="-1" y1="15.5" x2="46" y2="15.5" gradientTransform="matrix(4.489700e-11 -1 1 4.489700e-11 0 47)">
	<stop  offset="0" style="stop-color:#FFFFFF"/>
	<stop  offset="0.2214" style="stop-color:#F8F8F8"/>
	<stop  offset="0.5415" style="stop-color:#E5E5E5"/>
	<stop  offset="0.92" style="stop-color:#C6C6C6"/>
	<stop  offset="1" style="stop-color:#BEBEBE"/>
</linearGradient>
<line fill="url(#SVGID_7_)" stroke="#6E6E6E" stroke-miterlimit="10" x1="15.5" y1="48" x2="15.5" y2="1"/>
<linearGradient id="SVGID_8_" gradientUnits="userSpaceOnUse" x1="-1" y1="31.5" x2="46" y2="31.5" gradientTransform="matrix(4.489700e-11 -1 1 4.489700e-11 0 47)">
	<stop  offset="0" style="stop-color:#FFFFFF"/>
	<stop  offset="0.2214" style="stop-color:#F8F8F8"/>
	<stop  offset="0.5415" style="stop-color:#E5E5E5"/>
	<stop  offset="0.92" style="stop-color:#C6C6C6"/>
	<stop  offset="1" style="stop-color:#BEBEBE"/>
</linearGradient>
<line fill="url(#SVGID_8_)" stroke="#6E6E6E" stroke-miterlimit="10" x1="31.5" y1="48" x2="31.5" y2="1"/>
<linearGradient id="SVGID_9_" gradientUnits="userSpaceOnUse" x1="27.0147" y1="27.0147" x2="43.9853" y2="43.9853">
	<stop  offset="0" style="stop-color:#73B4C8"/>
	<stop  offset="0.1747" style="stop-color:#6AAEC3"/>
	<stop  offset="0.4567" style="stop-color:#529EB5"/>
	<stop  offset="0.8089" style="stop-color:#2C839F"/>
	<stop  offset="1" style="stop-color:#147391"/>
</linearGradient>
<circle fill="url(#SVGID_9_)" stroke="#464646" stroke-linecap="round" stroke-linejoin="round" stroke-miterlimit="10" cx="35.5" cy="35.5" r="12"/>
	<polygon fill="#FFFFFF" points="35.6,40.3 40.4,35.5 35.6,30.7 37.7,28.6 44.6,35.5 37.7,42.4 	"/>
	<path fill="#147391" d="M37.7,29.3l6.2,6.2l-6.2,6.2l-1.4-1.4l4.8-4.8l-4.8-4.8L37.7,29.3 M37.7,27.9L37,28.6L35.6,30l-0.7,0.7
		l0.7,0.7l4.1,4.1l-4.1,4.1l-0.7,0.7l0.7,0.7l1.4,1.4l0.7,0.7l0.7-0.7l6.2-6.2l0.7-0.7l-0.7-0.7l-6.2-6.2L37.7,27.9L37.7,27.9z"/>
	<polygon fill="#FFFFFF" points="28.6,40.3 33.4,35.5 28.6,30.7 30.7,28.6 37.6,35.5 30.7,42.4 	"/>
	<path fill="#147391" d="M30.7,29.3l6.2,6.2l-6.2,6.2l-1.4-1.4l4.8-4.8l-4.8-4.8L30.7,29.3 M30.7,27.9L30,28.6L28.6,30l-0.7,0.7
		l0.7,0.7l4.1,4.1l-4.1,4.1l-0.7,0.7l0.7,0.7l1.4,1.4l0.7,0.7l0.7-0.7l6.2-6.2l0.7-0.7l-0.7-0.7l-6.2-6.2L30.7,27.9L30.7,27.9z"/>
</svg>
