<svg version="1.1" id="Layer_1" xmlns="http://www.w3.org/2000/svg" xmlns:xlink="http://www.w3.org/1999/xlink" x="0px" y="0px"
	 viewBox="0 0 48 48" enable-background="new 0 0 48 48" xml:space="preserve">
				<polygon fill="#888888" points="19.5,21.2 36.5,11.3 36.5,30.9 19.5,40.7 				"/>
	<linearGradient id="SVGID_1_" gradientUnits="userSpaceOnUse" x1="10.9997" y1="2.8307" x2="28.0003" y2="19.8312">
		<stop  offset="0" style="stop-color:#FFFFFF"/>
		<stop  offset="0.2214" style="stop-color:#F8F8F8"/>
		<stop  offset="0.5415" style="stop-color:#E5E5E5"/>
		<stop  offset="0.92" style="stop-color:#C6C6C6"/>
		<stop  offset="1" style="stop-color:#BEBEBE"/>
	</linearGradient>
	<polygon fill="url(#SVGID_1_)" points="2.5,11.3 19.5,1.5 36.5,11.3 19.5,21.2 	"/>
	<linearGradient id="SVGID_2_" gradientUnits="userSpaceOnUse" x1="-0.5997" y1="14.4301" x2="22.5997" y2="37.6295">
		<stop  offset="0" style="stop-color:#F2F2F2"/>
		<stop  offset="0.5" style="stop-color:#CCCCCC"/>
		<stop  offset="0.6296" style="stop-color:#C7C7C7"/>
		<stop  offset="0.7792" style="stop-color:#B9B9B9"/>
		<stop  offset="0.9383" style="stop-color:#A2A2A2"/>
		<stop  offset="0.99" style="stop-color:#999999"/>
	</linearGradient>
	<polygon fill="url(#SVGID_2_)" points="19.5,21.2 19.5,40.7 2.5,30.9 2.5,11.3 	"/>
	<polyline fill="none" stroke="#6E6E6E" stroke-linejoin="round" stroke-miterlimit="10" points="36.5,11.3 19.5,21.2 2.5,11.3 	"/>
	<linearGradient id="SVGID_3_" gradientUnits="userSpaceOnUse" x1="14.6082" y1="26.0537" x2="24.3918" y2="35.8374">
		<stop  offset="0" style="stop-color:#AFD7E1"/>
		<stop  offset="0.1588" style="stop-color:#A4D0DC"/>
		<stop  offset="0.7059" style="stop-color:#80BCCE"/>
		<stop  offset="1" style="stop-color:#73B4C8"/>
	</linearGradient>
		<line fill="url(#SVGID_3_)" stroke="#6E6E6E" stroke-linejoin="round" stroke-miterlimit="10" x1="19.5" y1="21.2" x2="19.5" y2="40.7"/>
	<polygon fill="none" stroke="#464646" stroke-linejoin="round" stroke-miterlimit="10" points="19.5,1.5 2.5,11.3 2.5,30.9 
		19.5,40.7 36.5,30.9 36.5,11.3 	"/>
<linearGradient id="SVGID_4_" gradientUnits="userSpaceOnUse" x1="22.6626" y1="29.4492" x2="43.3374" y2="50.1241">
	<stop  offset="0" style="stop-color:#73B4C8"/>
	<stop  offset="0.1747" style="stop-color:#6AAEC3"/>
	<stop  offset="0.4567" style="stop-color:#529EB5"/>
	<stop  offset="0.8089" style="stop-color:#2C839F"/>
	<stop  offset="1" style="stop-color:#147391"/>
</linearGradient>
<path fill="url(#SVGID_4_)" stroke="#464646" stroke-width="1.0494" stroke-linecap="round" stroke-linejoin="round" stroke-miterlimit="10" d="
	M30.7,21.6l-11.9,22c-0.9,1.7,0.3,3.9,2.3,3.9h23.7c2,0,3.3-2.1,2.3-3.9l-11.9-22C34.3,19.7,31.7,19.7,30.7,21.6z"/>
<path fill="#FFFFFF" stroke="#147391" stroke-linejoin="round" stroke-miterlimit="10" d="M34.5,26.5h-3v12h3V26.5z"/>
<circle fill="#FFFFFF" stroke="#147391" stroke-linejoin="round" stroke-miterlimit="10" cx="33" cy="43" r="2"/>
</svg>
