<svg id="Layer_1" data-name="Layer 1" xmlns="http://www.w3.org/2000/svg" xmlns:xlink="http://www.w3.org/1999/xlink" viewBox="0 0 48 48">
  <defs>
    <linearGradient id="New_Gradient_Swatch_1" data-name="New Gradient Swatch 1" x1="10.4113" y1="5.5102" x2="37.6013" y2="32.7003" gradientUnits="userSpaceOnUse">
      <stop offset="0" stop-color="#cde6eb"/>
      <stop offset="0.2214" stop-color="#c6e2e8"/>
      <stop offset="0.5419" stop-color="#b3d8e1"/>
      <stop offset="0.9212" stop-color="#93c7d5"/>
      <stop offset="1" stop-color="#8cc3d2"/>
    </linearGradient>
    <linearGradient id="linear-gradient" x1="0.5" y1="28.2516" x2="47.5" y2="28.2516" gradientUnits="userSpaceOnUse">
      <stop offset="0" stop-color="#7d7d7d"/>
      <stop offset="1" stop-color="#b1b1b1"/>
    </linearGradient>
    <linearGradient id="paper_gradient" data-name="paper gradient" x1="0.8621" y1="20.8738" x2="21.0436" y2="41.0554" gradientUnits="userSpaceOnUse">
      <stop offset="0" stop-color="#fff"/>
      <stop offset="0.2214" stop-color="#f8f8f8"/>
      <stop offset="0.5415" stop-color="#e5e5e5"/>
      <stop offset="0.92" stop-color="#c6c6c6"/>
      <stop offset="1" stop-color="#bebebe"/>
    </linearGradient>
    <linearGradient id="front_-45" data-name="front -45" x1="0.7352" y1="32.3342" x2="23.2048" y2="32.3342" gradientUnits="userSpaceOnUse">
      <stop offset="0" stop-color="#f2f2f2"/>
      <stop offset="0.5" stop-color="#ccc"/>
      <stop offset="0.6296" stop-color="#c7c7c7"/>
      <stop offset="0.7792" stop-color="#b9b9b9"/>
      <stop offset="0.9383" stop-color="#a2a2a2"/>
      <stop offset="0.99" stop-color="#999"/>
    </linearGradient>
    <clipPath id="clip-path">
      <path d="M33.34,26.7742c-.0279.0306-.0561.0609-.0849.0911C33.284,26.8352,33.312,26.8047,33.34,26.7742Z" fill="none"/>
    </clipPath>
    <clipPath id="clip-path-2">
      <path d="M33.3536,21.9873q-.0419.0458-.0849.091C33.2975,22.0482,33.3256,22.0177,33.3536,21.9873Z" fill="none"/>
    </clipPath>
    <clipPath id="clip-path-3">
      <path d="M36.4491,9.6622,30.41,14.2485a15.1094,15.1094,0,0,0-4.0237-1.1011A18.1154,18.1154,0,0,0,21.9534,13.1l-1.93-5.6715a35.0889,35.0889,0,0,1,8.6183.0909A28.9342,28.9342,0,0,1,36.4491,9.6622ZM3.6142,17.5635c-.7653,3.4678,1.1746,6.84,4.9333,9.3471L16.06,23.118a5.1443,5.1443,0,0,1-2.6189-3.8615c-.0022-.0462-.0038-.0922-.0042-.1385,0-.0124,0-.0248,0-.0372,0-.0552.0014-.11.0049-.1807a3.6158,3.6158,0,0,1,.0794-.5877ZM34.0171,21.1a5.401,5.401,0,0,1-.7676.998c-.03.0313-.0608.0626-.0918.0935-.0267.0265-.0534.0527-.0807.0789l-.039.0376a11.1033,11.1033,0,0,1-4.9448,2.4531l3.8443,5.3311c5.2847-1.2729,9.5906-3.8013,11.53-7.1089Z" fill="none"/>
    </clipPath>
    <linearGradient id="New_Gradient_Swatch_3" data-name="New Gradient Swatch 3" x1="2.5068" y1="19.1081" x2="45.5068" y2="19.1081" gradientUnits="userSpaceOnUse">
      <stop offset="0" stop-color="#b1b1b1"/>
      <stop offset="1" stop-color="#7d7d7d"/>
    </linearGradient>
    <linearGradient id="New_Gradient_Swatch_3-2" x1="5.5068" y1="19.1081" x2="42.5068" y2="19.1081" xlink:href="#New_Gradient_Swatch_3"/>
    <linearGradient id="New_Gradient_Swatch_3-3" x1="7.5068" y1="19.1081" x2="40.5068" y2="19.1081" xlink:href="#New_Gradient_Swatch_3"/>
    <linearGradient id="New_Gradient_Swatch_3-4" x1="9.5068" y1="19.1081" x2="38.5068" y2="19.1081" xlink:href="#New_Gradient_Swatch_3"/>
    <linearGradient id="New_Gradient_Swatch_3-5" x1="11.5068" y1="19.1081" x2="36.5068" y2="19.1081" xlink:href="#New_Gradient_Swatch_3"/>
    <linearGradient id="linear-gradient-2" x1="13.4371" y1="17.2495" x2="34.5785" y2="17.2495" gradientUnits="userSpaceOnUse">
      <stop offset="0" stop-color="#147391"/>
      <stop offset="0.1911" stop-color="#2c839f"/>
      <stop offset="0.5433" stop-color="#529eb5"/>
      <stop offset="0.8253" stop-color="#6aaec3"/>
      <stop offset="1" stop-color="#73b4c8"/>
    </linearGradient>
  </defs>
  <path d="M46.8866,22.2217C43.9605,29.534,31.34,34.0713,18.7058,32.3526A30.96,30.96,0,0,1,7.4681,28.74,16.7778,16.7778,0,0,1,2.6405,24.719,9.8738,9.8738,0,0,1,.7488,20.9871a8.0262,8.0262,0,0,1,.3751-4.9909C4.0425,8.68,16.6635,4.1423,29.3047,5.8653A30.956,30.956,0,0,1,40.552,9.4777C46.13,12.6977,48.7954,17.4612,46.8866,22.2217Zm-16.4808-7.97a14.9366,14.9366,0,0,0-4.02-1.1039,18.3247,18.3247,0,0,0-4.4338-.0515c-3.9493.4473-7.2751,2.192-8.2393,4.61a3.7791,3.7791,0,0,0-.2711,1.2085c-.0029.0555-.004.1108-.0045.2032,0,.0461.0021.0925.0042.1385a5.1769,5.1769,0,0,0,2.6073,3.8673c.1644.11.3352.2163.5131.319a13.9092,13.9092,0,0,0,5.0553,1.6234,17.56,17.56,0,0,0,6.471-.3117,11.0189,11.0189,0,0,0,4.95-2.4461l.039-.0376c.0273-.0262.054-.0524.0807-.0789.0308-.0309.0618-.0622.111-.1136a4.98,4.98,0,0,0,1.0365-1.571c.8536-2.1408-.346-4.2832-2.8564-5.7325A10.0358,10.0358,0,0,0,30.4058,14.2513Z" fill="url(#New_Gradient_Swatch_1)"/>
  <path d="M47.4873,19a8.2051,8.2051,0,0,1-.6007,3.2216c-2.9261,7.3123-15.5471,11.85-28.1809,10.131A30.96,30.96,0,0,1,7.4681,28.74,16.7778,16.7778,0,0,1,2.6405,24.719,9.8745,9.8745,0,0,1,.7488,20.9871,7.9442,7.9442,0,0,1,.5374,19H.5v5a8.0122,8.0122,0,0,0,.2488,1.774,9.8738,9.8738,0,0,0,1.8917,3.7319,16.7765,16.7765,0,0,0,4.8276,4.0208A30.96,30.96,0,0,0,18.7057,37.14C31.34,38.8582,43.9605,34.3209,46.8866,27.0086A8.2294,8.2294,0,0,0,47.5,24V19Z" fill="url(#linear-gradient)"/>
  <path d="M.7488,20.9871A9.8738,9.8738,0,0,0,2.6405,24.719c1.0517,2.805,3.4371,5.8249,8.2181,8.5853a48.3877,48.3877,0,0,0,12.3326,4.8228l.0136.7672a54.1887,54.1887,0,0,1-13.2263-5.126C2.7108,29.5723.7972,24.7923.7488,20.9871Z" stroke="#6e6e6e" stroke-linejoin="round" fill="url(#paper_gradient)"/>
  <path d="M23.2048,38.8943l-.0136,4.7869A54.1881,54.1881,0,0,1,9.965,38.5553C2.6972,34.3593.7836,29.5792.7352,25.7741l.0135-4.787c.0485,3.8052,1.9621,8.5852,9.23,12.7812A54.1887,54.1887,0,0,0,23.2048,38.8943Z" fill="url(#front_-45)"/>
  <line x1="23.1912" y1="43.6812" x2="23.2048" y2="38.8943" fill="#888" stroke="#6e6e6e" stroke-linejoin="round"/>
  <path d="M.7487,20.9871c.0485,3.8052,1.9621,8.5852,9.23,12.7812a54.1887,54.1887,0,0,0,13.2263,5.126" fill="none" stroke="#6e6e6e" stroke-linejoin="round"/>
  <g style="isolation: isolate">
    <g style="isolation: isolate">
      <g>
        <line x1="16.5" y1="37" x2="16.4864" y2="41.5719" fill="none" stroke="#6e6e6e" stroke-miterlimit="10"/>
        <line x1="20.5" y1="37.9374" x2="20.4864" y2="43" fill="none" stroke="#6e6e6e" stroke-miterlimit="10"/>
        <line x1="12.5" y1="35" x2="12.4864" y2="40" fill="none" stroke="#6e6e6e" stroke-miterlimit="10"/>
        <line x1="8.5" y1="33" x2="8.4864" y2="37.6449" fill="none" stroke="#6e6e6e" stroke-miterlimit="10"/>
        <line x1="6.5" y1="28" x2="6.4923" y2="30.2656" fill="none" stroke="#6e6e6e" stroke-miterlimit="10"/>
        <line x1="9.5" y1="30" x2="9.4921" y2="32.3342" fill="none" stroke="#6e6e6e" stroke-miterlimit="10"/>
        <line x1="13.5" y1="31.2605" x2="13.4902" y2="34.677" fill="none" stroke="#6e6e6e" stroke-miterlimit="10"/>
        <line x1="17.4995" y1="32.169" x2="17.4846" y2="37" fill="none" stroke="#6e6e6e" stroke-miterlimit="10"/>
        <line x1="21.4919" y1="32.7163" x2="21.4759" y2="37.4132" fill="none" stroke="#6e6e6e" stroke-miterlimit="10"/>
        <line x1="25.5" y1="33" x2="25.4864" y2="37" fill="none" stroke="#6e6e6e" stroke-miterlimit="10"/>
        <line x1="29.5034" y1="32" x2="29.4864" y2="37" fill="none" stroke="#6e6e6e" stroke-miterlimit="10"/>
        <line x1="33.5" y1="32" x2="33.4864" y2="36" fill="none" stroke="#6e6e6e" stroke-miterlimit="10"/>
        <line x1="37.5025" y1="30.2656" x2="37.4864" y2="35" fill="none" stroke="#6e6e6e" stroke-miterlimit="10"/>
        <line x1="40.5" y1="29" x2="40.49" y2="33.6153" fill="none" stroke="#6e6e6e" stroke-miterlimit="10"/>
        <line x1="42.5014" y1="27.58" x2="42.4853" y2="32.3297" fill="none" stroke="#6e6e6e" stroke-miterlimit="10"/>
        <line x1="44.5" y1="26" x2="44.4844" y2="30.5966" fill="none" stroke="#6e6e6e" stroke-miterlimit="10"/>
        <line x1="5.5" y1="30.5576" x2="5.4864" y2="35.2692" fill="none" stroke="#6e6e6e" stroke-miterlimit="10"/>
        <line x1="3.5" y1="28.423" x2="3.4864" y2="33" fill="none" stroke="#6e6e6e" stroke-miterlimit="10"/>
        <line x1="1.5" y1="25.4377" x2="1.4864" y2="29.7223" fill="none" stroke="#6e6e6e" stroke-miterlimit="10"/>
      </g>
    </g>
  </g>
  <g style="isolation: isolate">
    <g clip-path="url(#clip-path)">
      <path d="M33.34,26.7742c-.0279.0306-.0561.0609-.0849.0911C33.284,26.8352,33.312,26.8047,33.34,26.7742Z" fill="none" stroke="#000" stroke-miterlimit="10" stroke-width="0.2936"/>
    </g>
  </g>
  <g style="isolation: isolate">
    <g clip-path="url(#clip-path-2)">
      <path d="M33.3536,21.9873q-.0419.0458-.0849.091C33.2975,22.0482,33.3256,22.0177,33.3536,21.9873Z" fill="none" stroke="#000" stroke-miterlimit="10" stroke-width="0.2936"/>
    </g>
  </g>
  <g clip-path="url(#clip-path-3)">
    <path d="M44.9454,21.9575c-2.6778,6.6919-14.228,10.8443-25.79,9.2714A28.3322,28.3322,0,0,1,8.8713,27.9226a15.3573,15.3573,0,0,1-4.418-3.68A9.0366,9.0366,0,0,1,2.722,20.8277,7.3453,7.3453,0,0,1,3.0653,16.26c2.671-6.696,14.2213-10.8483,25.79-9.2714a28.3268,28.3268,0,0,1,10.293,3.3059C44.2529,13.2416,46.6922,17.6009,44.9454,21.9575Z" stroke="#6e6e6e" stroke-miterlimit="10" stroke-width="1.1622" fill="url(#New_Gradient_Swatch_3)"/>
    <path d="M42.0238,21.56C39.72,27.3181,29.781,30.891,19.8324,29.5376a24.3785,24.3785,0,0,1-8.8492-2.845,13.2113,13.2113,0,0,1-3.8015-3.1661,7.7759,7.7759,0,0,1-1.49-2.9388,6.32,6.32,0,0,1,.2954-3.93C8.2857,10.896,18.2243,7.3231,28.1787,8.68a24.3749,24.3749,0,0,1,8.8568,2.8447C41.4279,14.06,43.5268,17.8112,42.0238,21.56Z" stroke="#6e6e6e" stroke-miterlimit="10" fill="url(#New_Gradient_Swatch_3-2)"/>
    <path d="M40.076,21.2949c-2.0551,5.1356-10.9192,8.3223-19.7923,7.1152a21.7432,21.7432,0,0,1-7.8925-2.5374,11.7829,11.7829,0,0,1-3.3906-2.8239,6.9343,6.9343,0,0,1-1.3286-2.621,5.6365,5.6365,0,0,1,.2634-3.5052c2.05-5.1388,10.914-8.3254,19.7923-7.1153a21.7416,21.7416,0,0,1,7.8993,2.5371C39.5445,14.6059,41.4165,17.9514,40.076,21.2949Z" stroke="#6e6e6e" stroke-miterlimit="10" fill="url(#New_Gradient_Swatch_3-3)"/>
    <path d="M38.1282,21.03c-1.806,4.5132-9.5956,7.3136-17.3932,6.2528a19.11,19.11,0,0,1-6.9359-2.23,10.3585,10.3585,0,0,1-2.98-2.4816,6.0974,6.0974,0,0,1-1.1676-2.3034,4.9534,4.9534,0,0,1,.2316-3.08c1.8014-4.5159,9.591-7.3163,17.3932-6.2528a19.1044,19.1044,0,0,1,6.9418,2.23C37.6612,15.1516,39.3063,18.0916,38.1282,21.03Z" stroke="#6e6e6e" stroke-miterlimit="10" fill="url(#New_Gradient_Swatch_3-4)"/>
    <path d="M36.18,20.7648c-1.5569,3.8906-8.2721,6.3047-14.9941,5.39a16.4712,16.4712,0,0,1-5.9792-1.9223,8.9264,8.9264,0,0,1-2.5686-2.1393,5.254,5.254,0,0,1-1.0066-1.9856,4.2705,4.2705,0,0,1,.2-2.6555c1.5529-3.893,8.2682-6.3071,14.9941-5.39a16.4678,16.4678,0,0,1,5.9844,1.922C35.7778,15.6974,37.196,18.2318,36.18,20.7648Z" stroke="#6e6e6e" stroke-miterlimit="10" fill="url(#New_Gradient_Swatch_3-5)"/>
  </g>
  <path d="M36.4491,9.6622,30.41,14.2485a15.1094,15.1094,0,0,0-4.0237-1.1011A18.1154,18.1154,0,0,0,21.9534,13.1l-1.93-5.6715a35.0889,35.0889,0,0,1,8.6183.0909A28.9342,28.9342,0,0,1,36.4491,9.6622ZM3.6142,17.5635c-.7653,3.4678,1.1746,6.84,4.9333,9.3471L16.06,23.118a5.1443,5.1443,0,0,1-2.6189-3.8615c-.0022-.0462-.0038-.0922-.0042-.1385,0-.0124,0-.0248,0-.0372,0-.0552.0014-.11.0049-.1807a3.6158,3.6158,0,0,1,.0794-.5877ZM34.0171,21.1a5.401,5.401,0,0,1-.7676.998c-.03.0313-.0608.0626-.0918.0935-.0267.0265-.0534.0527-.0807.0789l-.039.0376a11.1033,11.1033,0,0,1-4.9448,2.4531l3.8443,5.3311c5.2847-1.2729,9.5906-3.8013,11.53-7.1089Z" fill="none" stroke="#147391" stroke-miterlimit="10"/>
  <path d="M14.2935,21.4852c1.38-1.8864,4.2853-3.22,7.6586-3.6022a18.32,18.32,0,0,1,4.4338.0515,14.9366,14.9366,0,0,1,4.02,1.1039,10.0355,10.0355,0,0,1,1.043.5234,7.3678,7.3678,0,0,1,2.2733,1.9512,4.656,4.656,0,0,0,.5831-1.0057c.8536-2.1408-.346-4.2832-2.8564-5.7325a9.9961,9.9961,0,0,0-1.043-.5234,14.9329,14.9329,0,0,0-4.02-1.104,18.3145,18.3145,0,0,0-4.4338-.0514c-3.9494.4472-7.2751,2.1919-8.2393,4.61a3.7764,3.7764,0,0,0-.2711,1.2085c-.0029.0555-.004.1108-.0046.2032,0,.0461.0022.0925.0043.1385A4.0989,4.0989,0,0,0,14.2935,21.4852Z" fill="url(#linear-gradient-2)"/>
  <path d="M14.2935,21.4852c1.38-1.8864,4.2853-3.22,7.6586-3.6022a18.32,18.32,0,0,1,4.4338.0515,14.9366,14.9366,0,0,1,4.02,1.1039,10.0355,10.0355,0,0,1,1.043.5234,7.3678,7.3678,0,0,1,2.2733,1.9512" fill="none" stroke="#147391" stroke-miterlimit="10"/>
  <path d="M47.4873,19a8.2051,8.2051,0,0,1-.6007,3.2216c-2.9261,7.3123-15.5471,11.85-28.1809,10.131A30.96,30.96,0,0,1,7.4681,28.74,16.7778,16.7778,0,0,1,2.6405,24.719,9.8745,9.8745,0,0,1,.7488,20.9871,7.9442,7.9442,0,0,1,.5374,19" fill="none" stroke="#147391" stroke-linecap="round" stroke-miterlimit="10"/>
  <path d="M30.4058,14.2513a14.9366,14.9366,0,0,0-4.02-1.1039,18.3247,18.3247,0,0,0-4.4338-.0515c-3.9493.4473-7.2751,2.192-8.2393,4.61a3.7791,3.7791,0,0,0-.2711,1.2085c-.0029.0555-.004.1108-.0045.2032,0,.0461.0021.0925.0042.1385a5.1769,5.1769,0,0,0,2.6073,3.8673c.1644.11.3352.2163.5131.319a13.9092,13.9092,0,0,0,5.0553,1.6234,17.56,17.56,0,0,0,6.471-.3117,11.0189,11.0189,0,0,0,4.95-2.4461l.039-.0376c.0273-.0262.054-.0524.0807-.0789.0308-.0309.0618-.0622.111-.1136a4.98,4.98,0,0,0,1.0365-1.571c.8536-2.1408-.346-4.2832-2.8564-5.7325A10.0358,10.0358,0,0,0,30.4058,14.2513Z" fill="none" stroke="#147391" stroke-miterlimit="10"/>
  <path d="M47.4873,19c-.0629-3.62-2.6229-7.0328-6.9353-9.5223A30.9541,30.9541,0,0,0,29.3047,5.8653C16.6635,4.1423,4.0425,8.68,1.1239,15.9962a8.2039,8.2039,0,0,0-.5865,3.0045V19H.5v5a7.9372,7.9372,0,0,0,.2354,1.7061l0,.068c.0484,3.8051,1.962,8.5851,9.23,12.7812a54.1881,54.1881,0,0,0,13.2262,5.1259h0l.3088-.3807V38.2091c-1.1505-.3038-2.0425-.5546-3.0793-.8786C32.4623,38.4373,44.093,33.99,46.8866,27.0086A8.2294,8.2294,0,0,0,47.5,24V19Z" fill="none" stroke="#464646" stroke-linejoin="round"/>
</svg>
