<svg id="Layer_1" data-name="Layer 1" xmlns="http://www.w3.org/2000/svg" xmlns:xlink="http://www.w3.org/1999/xlink" viewBox="0 0 48 48">
  <defs>
    <linearGradient id="linear-gradient" x1="0.5" y1="0.5" x2="43.5" y2="43.5" gradientUnits="userSpaceOnUse">
      <stop offset="0" stop-color="#fff"/>
      <stop offset="0.2323" stop-color="#fafafa"/>
      <stop offset="0.4964" stop-color="#ededed"/>
      <stop offset="0.775" stop-color="#d6d6d6"/>
      <stop offset="1" stop-color="#bebebe"/>
    </linearGradient>
    <linearGradient id="paper_gradient" data-name="paper gradient" x1="30.5" y1="0.5" x2="43.5" y2="13.5" gradientUnits="userSpaceOnUse">
      <stop offset="0" stop-color="#fff"/>
      <stop offset="0.2214" stop-color="#f8f8f8"/>
      <stop offset="0.5415" stop-color="#e5e5e5"/>
      <stop offset="0.92" stop-color="#c6c6c6"/>
      <stop offset="1" stop-color="#bebebe"/>
    </linearGradient>
    <linearGradient id="paper_gradient-2" x1="5.5" y1="5.5" x2="38.5" y2="38.5" xlink:href="#paper_gradient"/>
    <linearGradient id="paper_gradient-3" x1="13.75" y1="8.25" x2="30.25" y2="24.75" xlink:href="#paper_gradient"/>
    <linearGradient id="paper_gradient-4" x1="13.75" y1="19.25" x2="30.25" y2="35.75" xlink:href="#paper_gradient"/>
    <linearGradient id="paper_gradient-5" x1="8.25" y1="13.75" x2="24.75" y2="30.25" xlink:href="#paper_gradient"/>
    <linearGradient id="paper_gradient-6" x1="19.25" y1="13.75" x2="35.75" y2="30.25" xlink:href="#paper_gradient"/>
    <linearGradient id="Dark_Blue_Grad" data-name="Dark Blue Grad" x1="8.5" y1="8.5" x2="13.5" y2="13.5" gradientUnits="userSpaceOnUse">
      <stop offset="0" stop-color="#73b4c8"/>
      <stop offset="0.1747" stop-color="#6aaec3"/>
      <stop offset="0.4567" stop-color="#529eb5"/>
      <stop offset="0.8089" stop-color="#2c839f"/>
      <stop offset="1" stop-color="#147391"/>
    </linearGradient>
    <linearGradient id="Dark_Blue_Grad-2" x1="19.5" y1="19.5" x2="24.5" y2="24.5" xlink:href="#Dark_Blue_Grad"/>
    <linearGradient id="linear-gradient-2" x1="30.5" y1="0.5" x2="43.5" y2="13.5" xlink:href="#linear-gradient"/>
    <linearGradient id="Light_Blue_Grad" data-name="Light Blue Grad" x1="34" y1="-2" x2="46" y2="10" gradientUnits="userSpaceOnUse">
      <stop offset="0" stop-color="#afd7e1"/>
      <stop offset="1" stop-color="#73b4c8"/>
    </linearGradient>
    <linearGradient id="Dark_Blue_Grad-3" x1="22.147" y1="26.0246" x2="44.4892" y2="48.3669" xlink:href="#Dark_Blue_Grad"/>
    <linearGradient id="New_Gradient_Swatch_4" data-name="New Gradient Swatch 4" x1="27.5" y1="35" x2="30.5" y2="38" gradientUnits="userSpaceOnUse">
      <stop offset="0" stop-color="#fff"/>
      <stop offset="0.2284" stop-color="#fafafa"/>
      <stop offset="0.4881" stop-color="#ededed"/>
      <stop offset="0.7621" stop-color="#d7d6d6"/>
      <stop offset="1" stop-color="#bdbcbc"/>
    </linearGradient>
  </defs>
  <rect x="0.5" y="0.5" width="43" height="43" stroke="#464646" stroke-miterlimit="10" fill="url(#linear-gradient)"/>
  <rect x="30.5" y="0.5" width="13" height="13" fill="url(#paper_gradient)"/>
    <rect x="5.5" y="5.5" width="33" height="33" stroke="#464646" stroke-miterlimit="10" fill="url(#paper_gradient-2)"/>
    <line x1="5.5" y1="16.5" x2="38.5" y2="16.5" stroke="#464646" stroke-miterlimit="10" fill="url(#paper_gradient-3)"/>
    <line x1="5.5" y1="27.5" x2="38.5" y2="27.5" stroke="#464646" stroke-miterlimit="10" fill="url(#paper_gradient-4)"/>
    <line x1="16.5" y1="38.5" x2="16.5" y2="5.5" stroke="#464646" stroke-miterlimit="10" fill="url(#paper_gradient-5)"/>
    <line x1="27.5" y1="38.5" x2="27.5" y2="5.5" stroke="#464646" stroke-miterlimit="10" fill="url(#paper_gradient-6)"/>
    <rect x="8.5" y="8.5" width="5" height="5" stroke="#147391" stroke-miterlimit="10" fill="url(#Dark_Blue_Grad)"/>
    <rect x="19.5" y="19.5" width="5" height="5" stroke="#147391" stroke-miterlimit="10" fill="url(#Dark_Blue_Grad-2)"/>
  <rect x="30.5" y="0.5" width="13" height="13" stroke="#464646" stroke-miterlimit="10" fill="url(#linear-gradient-2)"/>
  <polygon points="43 13 43 1 31 1 43 13" fill="url(#Light_Blue_Grad)"/>
  <line x1="30.5" y1="0.5" x2="43.5" y2="13.5" stroke="#464646" stroke-miterlimit="10" fill="url(#paper_gradient)"/>
  <path d="M32,44.5H28.5a2,2,0,0,1-2-2h0a2,2,0,0,1,2-2h-1a2,2,0,0,1-2-2h0a2,2,0,0,1,2-2h-11a2,2,0,0,1-2-2h0a2,2,0,0,1,2-2H35.3939c-4.0551-7.7673,2.6182-9.0666,2.8178-7.1129a11.5753,11.5753,0,0,0,6.01,8.846h1.3366S47.5,35.1976,47.5,40.8957s-1.1867,5.4986-1.1867,5.4986-3.1921.6105-4.3787,0C41.314,47.3342,36,47.5,36,47.5H30A1.5,1.5,0,0,1,28.5,46h0A1.5,1.5,0,0,1,30,44.5Z" stroke="#464646" stroke-miterlimit="10" fill="url(#Dark_Blue_Grad-3)"/>
  <line x1="26" y1="36.5" x2="32" y2="36.5" stroke="#464646" stroke-miterlimit="10" fill="url(#New_Gradient_Swatch_4)"/>
  <path d="M45.78,33.7454l-.105-.0523H44.3491a11.0806,11.0806,0,0,1-5.64-8.3969,1.3734,1.3734,0,0,0-1.0371-1.1631,3.1577,3.1577,0,0,0-3.1709,1.1377c-.7388.8906-1.6548,2.9111.0893,6.6889H16.5a2.5,2.5,0,0,0,0,5h9.001a2.4992,2.4992,0,0,0,1.1279,3.8438,2.4986,2.4986,0,0,0,1.6455,4.146A1.9993,1.9993,0,0,0,30,47.96h6.0156c1.5-.0468,4.84-.2392,6.0181-1.0278a11.378,11.378,0,0,0,4.3247-.0771.88.88,0,0,0,.53-.2256C47.626,46.0047,48,44.0623,48,40.8557,48,35.0159,46.0078,33.8582,45.78,33.7454Zm.4712,12.1118-.0318.0059c-1.1689.2231-3.3037.434-4.0566.0464l-.39-.1612-.2548.3286c-.3057.3946-2.84.7989-5.5186.8828H30a1,1,0,0,1,0-2h2v-1H28.5a1.5,1.5,0,0,1,0-3H32v-1H27.5a1.5,1.5,0,0,1,0-3H32v-1H16.5a1.5,1.5,0,0,1,0-3H36.2192l-.3818-.7314c-1.9521-3.7388-1.1929-5.564-.5664-6.3188a2.165,2.165,0,0,1,2.11-.82c.2066.063.3189.1665.334.3155a12.084,12.084,0,0,0,6.27,9.2285l.1108.0595h1.3071C45.7354,34.968,47,36.3128,47,40.8557,47,44.9431,46.3721,45.7415,46.2515,45.8572Z" fill="#464646"/>
</svg>
