<svg id="Layer_1" data-name="Layer 1" xmlns="http://www.w3.org/2000/svg" xmlns:xlink="http://www.w3.org/1999/xlink" viewBox="0 0 48 48">
  <defs>
    <linearGradient id="New_Gradient_Swatch_1" data-name="New Gradient Swatch 1" x1="-5.5" y1="49.5" x2="34" y2="10" gradientTransform="matrix(1, 0, 0, -1, 0, 56)" gradientUnits="userSpaceOnUse">
      <stop offset="0" stop-color="#cde6eb"/>
      <stop offset="0.2214" stop-color="#c6e2e8"/>
      <stop offset="0.5419" stop-color="#b3d8e1"/>
      <stop offset="0.9212" stop-color="#93c7d5"/>
      <stop offset="1" stop-color="#8cc3d2"/>
    </linearGradient>
    <linearGradient id="Light_Blue_Grad" data-name="Light Blue Grad" x1="14.1447" y1="21.1443" x2="18.856" y2="25.8557" gradientUnits="userSpaceOnUse">
      <stop offset="0" stop-color="#afd7e1"/>
      <stop offset="1" stop-color="#73b4c8"/>
    </linearGradient>
    <linearGradient id="Light_Blue_Grad-2" x1="13" y1="22.5" x2="20" y2="29.5" xlink:href="#Light_Blue_Grad"/>
    <linearGradient id="linear-gradient" x1="23.8325" y1="27.709" x2="39.9495" y2="43.826" gradientUnits="userSpaceOnUse">
      <stop offset="0" stop-color="#fff"/>
      <stop offset="0.2323" stop-color="#fafafa"/>
      <stop offset="0.4964" stop-color="#ededed"/>
      <stop offset="0.775" stop-color="#d6d6d6"/>
      <stop offset="1" stop-color="#bebebe"/>
    </linearGradient>
  </defs>
  <polygon points="21.5 0.5 0.5 0.5 0.5 45.5 34.5 45.5 34.5 13.5 21.5 0.5" stroke="#464646" stroke-miterlimit="10" fill="url(#New_Gradient_Swatch_1)"/>
  <polyline points="21.5 1 21.5 13.5 34 13.5" fill="none" stroke="#464646" stroke-linejoin="round"/>
  <path d="M20,28.5h3.7957a4.9124,4.9124,0,1,0-.5366-9.8093,4.7458,4.7458,0,0,0-5.3743-3.6562c-3.73-3.5416-9.3124-1.1427-10.1243,4.4145C3.5558,22.373,5.7521,28.5,9.977,28.5H20Z" fill="#fff" stroke="#147391" stroke-miterlimit="10"/>
  <polyline points="12.496 23.5 16.496 19.5 20.504 23.5" fill="none" stroke="#147391" stroke-linecap="square" stroke-linejoin="round" stroke-width="3"/>
  <line x1="16.5" y1="32" x2="16.5" y2="20.5" fill="none" stroke="#147391" stroke-linecap="square" stroke-miterlimit="10" stroke-width="3"/>
  <polyline points="12.496 23.5 16.496 19.5 20.504 23.5" fill="none" stroke-linecap="square" stroke-linejoin="round" stroke="url(#Light_Blue_Grad)"/>
  <line x1="16.5" y1="32" x2="16.5" y2="20" fill="none" stroke-linecap="square" stroke-miterlimit="10" stroke="url(#Light_Blue_Grad-2)"/>
  <g>
    <path d="M44.1831,31.7687c.0169-.0206,2.0308-2.9339,2.0308-2.9339,1.1438-1.6065-.9854-4.1037-2.9574-2.0148-.279.3541-.571.7314-.866,1.1147a1.492,1.492,0,0,0,.1387-.9376c-.2-1.3822-1.6938-2.225-3.2015-.6325-1.3086,1.6616-4.2168,5.4912-5.9068,7.6861l-2.64.9469s-.9685-2.085-4.8443-2.085a12.7652,12.7652,0,0,0-6.7832,2.085l-1.4008-.7551a.4442.4442,0,0,0-.65.3077c-.3394,1.8434-1.2255,7.4731.116,9.829a2.3809,2.3809,0,0,0,1.938,1.0389s5.4382,1.95,7.5485,2.0783a2.7109,2.7109,0,0,0,.4128-.0117,41.1427,41.1427,0,0,0,11.6711-2.8122,2.9091,2.9091,0,0,0,1.1964-.9151c4.4947-5.7857,6.3358-7.9279,7.2715-9.8749C48.2249,31.8677,46.121,29.68,44.1831,31.7687Z" fill="url(#linear-gradient)"/>
    <g>
      <path d="M44.1831,31.7687l2.0308-2.9339c1.1438-1.6065-.9854-4.1037-2.9574-2.0148-.279.3541-.571.7314-.866,1.1147a2.0861,2.0861,0,0,0,.1387-.9376c-.0476-1.3381-1.6938-2.225-3.2015-.6325-1.3086,1.6616-5.9068,7.6861-5.9068,7.6861" fill="none" stroke="#464646" stroke-miterlimit="10"/>
      <path d="M26.9048,41.2513l4.247-1.8267a2.7157,2.7157,0,0,1,1.0575-.23c.85-.009,2.9014-.2712,6.324-2.1119,1.9379-1.043.9685-5.2118-1.9389-4.17l-5.8138,2.0849s-.9685-2.0849-4.8443-2.0849a12.766,12.766,0,0,0-6.7832,2.0849l-1.403-.7562a.4423.4423,0,0,0-.6475.3062c-.3391,1.8408-1.2266,7.4747.1155,9.8317a2.3813,2.3813,0,0,0,1.938,1.039,61.1673,61.1673,0,0,0,6.335,1.8963,7.2707,7.2707,0,0,0,2.2376.11,41.14,41.14,0,0,0,11.2177-2.8164,2.2951,2.2951,0,0,0,.9345-.7173c4.57-5.8866,6.4326-8.0468,7.3756-10.0087.9684-2.0148-1.1355-4.2027-3.0734-2.1138-2.8485,3.8035-4.2521,5.7271-4.9965,6.628a2.0779,2.0779,0,0,1-1.6768.6155l-4.3327.0953" fill="none" stroke="#464646" stroke-linecap="round" stroke-miterlimit="10"/>
      <path d="M43.2566,26.82c-1.71,2.17-3.8579,5.0977-4.7423,6.1867" fill="none" stroke="#464646" stroke-miterlimit="10"/>
    </g>
  </g>
</svg>
