<svg id="Layer_1" data-name="Layer 1" xmlns="http://www.w3.org/2000/svg" xmlns:xlink="http://www.w3.org/1999/xlink" viewBox="0 0 48 48">
  <defs>
    <linearGradient id="front_-45" data-name="front -45" x1="199.75" y1="1464.25" x2="158.25" y2="1422.75" gradientTransform="translate(-156 -1424)" gradientUnits="userSpaceOnUse">
      <stop offset="0" stop-color="#f2f2f2"/>
      <stop offset="0.5" stop-color="#ccc"/>
      <stop offset="0.6296" stop-color="#c7c7c7"/>
      <stop offset="0.7792" stop-color="#b9b9b9"/>
      <stop offset="0.9383" stop-color="#a2a2a2"/>
      <stop offset="0.99" stop-color="#999"/>
    </linearGradient>
    <linearGradient id="linear-gradient" x1="195.5" y1="1457.5" x2="162.5" y2="1424.5" gradientTransform="translate(-156 -1419)" gradientUnits="userSpaceOnUse">
      <stop offset="0" stop-color="#fff"/>
      <stop offset="0.2323" stop-color="#fafafa"/>
      <stop offset="0.4964" stop-color="#ededed"/>
      <stop offset="0.775" stop-color="#d6d6d6"/>
      <stop offset="1" stop-color="#bebebe"/>
    </linearGradient>
    <linearGradient id="Dark_Blue_Grad" data-name="Dark Blue Grad" x1="13.5" y1="13.5" x2="31.5" y2="31.5" gradientUnits="userSpaceOnUse">
      <stop offset="0" stop-color="#73b4c8"/>
      <stop offset="0.1747" stop-color="#6aaec3"/>
      <stop offset="0.4567" stop-color="#529eb5"/>
      <stop offset="0.8089" stop-color="#2c839f"/>
      <stop offset="1" stop-color="#147391"/>
    </linearGradient>
    <linearGradient id="front_-45-2" x1="254.8775" y1="27.375" x2="270.6275" y2="43.125" gradientTransform="translate(-218.7525)" xlink:href="#front_-45"/>
    <linearGradient id="linear-gradient-2" x1="-161.7509" y1="32" x2="-177.2509" y2="47.5" gradientTransform="matrix(-1, 0, 0, 1, -138.7509, 0)" gradientUnits="userSpaceOnUse">
      <stop offset="0" stop-color="#fff"/>
      <stop offset="0.2214" stop-color="#f8f8f8"/>
      <stop offset="0.5415" stop-color="#e5e5e5"/>
      <stop offset="0.92" stop-color="#c6c6c6"/>
      <stop offset="1" stop-color="#bebebe"/>
    </linearGradient>
    <linearGradient id="New_Gradient_Swatch_1" data-name="New Gradient Swatch 1" x1="254.7525" y1="35" x2="264.7525" y2="45" gradientTransform="translate(-218.7525)" gradientUnits="userSpaceOnUse">
      <stop offset="0" stop-color="#cde6eb"/>
      <stop offset="0.2214" stop-color="#c6e2e8"/>
      <stop offset="0.5419" stop-color="#b3d8e1"/>
      <stop offset="0.9212" stop-color="#93c7d5"/>
      <stop offset="1" stop-color="#8cc3d2"/>
    </linearGradient>
  </defs>
  <rect x="0.5" y="0.5" width="45" height="38" transform="translate(46 39) rotate(180)" stroke="#464646" stroke-miterlimit="10" fill="url(#front_-45)"/>
  <rect x="3.5" y="8.5" width="39" height="27" transform="translate(46 44) rotate(180)" stroke="#6f6f6f" stroke-miterlimit="10" fill="url(#linear-gradient)"/>
  <rect x="32.5" y="2.5" width="4" height="4" fill="#73b4c8" stroke="#147391" stroke-miterlimit="10" stroke-width="1"/>
  <rect x="26.5" y="2.5" width="4" height="4" fill="#73b4c8" stroke="#147391" stroke-miterlimit="10" stroke-width="1"/>
  <line x1="38.5" y1="2.5" x2="42.5" y2="6.5" fill="#73b4c8" stroke="#147391" stroke-linecap="round" stroke-miterlimit="10"/>
  <line x1="42.5" y1="2.5" x2="38.5" y2="6.5" fill="#73b4c8" stroke="#147391" stroke-linecap="round" stroke-miterlimit="10"/>
  <rect x="13.5" y="13.5" width="18" height="18" stroke="#147391" stroke-miterlimit="10" fill="url(#Dark_Blue_Grad)"/>
  <g>
    <polygon points="47.5 47.5 40.5 47.5 42 21.5 46 21.5 47.5 47.5" stroke="#464646" stroke-linecap="round" stroke-linejoin="round" fill="url(#front_-45-2)"/>
    <polygon points="26.5 29.5 26.5 34.5 32.5 29.5 32.5 34.5 38.5 29.5 38.5 47.5 20.5 47.5 20.5 34.5 26.5 29.5" stroke="#464646" stroke-linecap="round" stroke-linejoin="round" fill="url(#linear-gradient-2)"/>
    <rect x="38.5" y="32.5" width="5" height="15" stroke="#464646" stroke-linecap="round" stroke-linejoin="round" fill="url(#New_Gradient_Swatch_1)"/>
    <line x1="42" y1="37.5" x2="39" y2="37.5" fill="none" stroke="#147391" stroke-miterlimit="10"/>
    <line x1="42" y1="40.5" x2="39" y2="40.5" fill="none" stroke="#147391" stroke-miterlimit="10"/>
    <line x1="42" y1="43.5" x2="39" y2="43.5" fill="none" stroke="#147391" stroke-miterlimit="10"/>
    <line x1="34" y1="37.5" x2="29" y2="37.5" fill="none" stroke="#6f6f6f" stroke-miterlimit="10"/>
    <line x1="27" y1="37.5" x2="26" y2="37.5" fill="none" stroke="#6f6f6f" stroke-miterlimit="10"/>
    <line x1="24" y1="37.5" x2="21" y2="37.5" fill="none" stroke="#6f6f6f" stroke-miterlimit="10"/>
    <line x1="34" y1="40.5" x2="29" y2="40.5" fill="none" stroke="#6f6f6f" stroke-miterlimit="10"/>
    <line x1="27" y1="40.5" x2="26" y2="40.5" fill="none" stroke="#6f6f6f" stroke-miterlimit="10"/>
    <line x1="24" y1="40.5" x2="21" y2="40.5" fill="none" stroke="#6f6f6f" stroke-miterlimit="10"/>
    <line x1="34" y1="43.5" x2="29" y2="43.5" fill="none" stroke="#6f6f6f" stroke-miterlimit="10"/>
    <line x1="27" y1="43.5" x2="26" y2="43.5" fill="none" stroke="#6f6f6f" stroke-miterlimit="10"/>
    <line x1="24" y1="43.5" x2="21" y2="43.5" fill="none" stroke="#6f6f6f" stroke-miterlimit="10"/>
  </g>
</svg>
