<svg version="1.1" id="Layer_1" xmlns="http://www.w3.org/2000/svg" xmlns:xlink="http://www.w3.org/1999/xlink" x="0px" y="0px"
	 viewBox="0 0 48 48" enable-background="new 0 0 48 48" xml:space="preserve">
	 
	 
<path style="fill:#147391;" d="M7.7,36.8c2,0,3.5,1.5,3.5,3.5s-1.5,3.5-3.5,3.5s-3.5-1.5-3.5-3.5S5.7,36.8,7.7,36.8 M7.7,34.5
	c-3.3,0-5.8,2.6-5.8,5.8s2.6,5.8,5.8,5.8s5.8-2.6,5.8-5.8S11,34.5,7.7,34.5L7.7,34.5z"/>
<path style="fill:#3C91AF;" d="M7.7,45C5.1,45,3,42.9,3,40.3s2.1-4.7,4.7-4.7s4.7,2.1,4.7,4.7S10.3,45,7.7,45z M7.7,38
	c-1.3,0-2.3,1.1-2.3,2.3s1.1,2.3,2.3,2.3s2.3-1.1,2.3-2.3S9,38,7.7,38z"/>
<path style="fill:#3C91AF;" d="M20,40.9v-0.6C20,33.5,14.5,28,7.7,28H7.1v-3.5h0.6c8.6,0,15.8,7.1,15.8,15.8v0.6H20z"/>
<path style="fill:#147391;" d="M7.7,25.1c8.4,0,15.2,6.8,15.2,15.2h-2.3c0-7.1-5.7-12.9-12.9-12.9V25.1 M7.7,23.9H6.5v1.2v2.3v1.2
	h1.2c6.4,0,11.7,5.3,11.7,11.7v1.2h1.2h2.3h1.2v-1.2C24.1,31.3,16.7,23.9,7.7,23.9L7.7,23.9z"/>
<path style="fill:#3C91AF;" d="M30.5,40.9v-0.6c0-12.6-10.2-22.8-22.8-22.8H7.1V14h0.6C22.2,14,34,25.8,34,40.3v0.6H30.5z"/>
<path style="fill:#147391;" d="M7.7,14.6c14.1,0,25.7,11.6,25.7,25.7h-2.3c0-12.9-10.5-23.4-23.4-23.4V14.6 M7.7,13.4H6.5v1.2v2.3
	v1.2h1.2c12.3,0,22.2,9.9,22.2,22.2v1.2h1.2h2.3h1.2v-1.2C34.6,25.5,22.5,13.4,7.7,13.4L7.7,13.4z"/>
<path style="fill:#3C91AF;" d="M41,40.9v-0.6C41,21.9,26.1,7,7.7,7H7.1V3.5h0.6C28,3.5,44.5,20,44.5,40.3v0.6H41z"/>
<path style="fill:#147391;" d="M7.7,4.1c20,0,36.2,16.2,36.2,36.2h-2.3c0-18.7-15.2-33.9-33.9-33.9V4.1 M7.7,2.9H6.5v1.2v2.3v1.2
	h1.2c18,0,32.7,14.7,32.7,32.7v1.2h1.2h2.3h1.2v-1.2C45.1,19.7,28.3,2.9,7.7,2.9L7.7,2.9z"/>
</svg>
