<svg id="Layer_1" data-name="Layer 1" xmlns="http://www.w3.org/2000/svg" xmlns:xlink="http://www.w3.org/1999/xlink" viewBox="0 0 48 48">
  <defs>
    <linearGradient id="linear-gradient" x1="9" y1="770.5" x2="26" y2="787.5" gradientTransform="translate(0 -742)" gradientUnits="userSpaceOnUse">
      <stop offset="0" stop-color="#f2f2f2"/>
      <stop offset="0.5" stop-color="#ccc"/>
      <stop offset="0.63" stop-color="#c7c7c7"/>
      <stop offset="0.779" stop-color="#b9b9b9"/>
      <stop offset="0.938" stop-color="#a2a2a2"/>
      <stop offset="0.99" stop-color="#999"/>
    </linearGradient>
    <linearGradient id="linear-gradient-2" x1="5.481" y1="747.481" x2="29.518" y2="771.518" gradientTransform="translate(0 -742)" gradientUnits="userSpaceOnUse">
      <stop offset="0" stop-color="#73b4c8"/>
      <stop offset="0.175" stop-color="#6aaec3"/>
      <stop offset="0.457" stop-color="#529eb5"/>
      <stop offset="0.809" stop-color="#2c839f"/>
      <stop offset="1" stop-color="#147391"/>
    </linearGradient>
    <linearGradient id="linear-gradient-3" x1="10.575" y1="752.577" x2="24.422" y2="766.423" gradientTransform="translate(0 -742)" gradientUnits="userSpaceOnUse">
      <stop offset="0" stop-color="#cde6eb"/>
      <stop offset="0.221" stop-color="#c6e2e8"/>
      <stop offset="0.542" stop-color="#b3d8e1"/>
      <stop offset="0.921" stop-color="#93c7d5"/>
      <stop offset="1" stop-color="#8cc3d2"/>
    </linearGradient>
    <linearGradient id="linear-gradient-4" x1="24.25" y1="765.75" x2="48.75" y2="790.25" gradientTransform="translate(0 -744)" gradientUnits="userSpaceOnUse">
      <stop offset="0" stop-color="#fff"/>
      <stop offset="0.232" stop-color="#fafafa"/>
      <stop offset="0.496" stop-color="#ededed"/>
      <stop offset="0.775" stop-color="#d6d6d6"/>
      <stop offset="1" stop-color="#bebebe"/>
    </linearGradient>
  </defs>
  <g id="g897">
    <path id="polyline38" d="M25.5,28V46l-8-5.25L9.5,46V28" stroke="#464646" stroke-linecap="round" stroke-linejoin="round" fill="url(#linear-gradient)"/>
    <path id="path40" d="M31.646,18.47a.636.636,0,0,0-.083.837l2.282,3.151L30.2,23.811a.633.633,0,0,0-.4.741l.9,3.784-3.89-.147a.626.626,0,0,0-.65.533l-.615,3.841L22.01,30.941a.632.632,0,0,0-.8.244L19.174,34.5l-2.647-2.852a.633.633,0,0,0-.836-.083l-3.149,2.28L11.188,30.2a.627.627,0,0,0-.741-.4l-3.784.9.146-3.888a.636.636,0,0,0-.534-.65l-3.841-.615,1.624-3.536a.632.632,0,0,0-.244-.8L.5,19.173,3.352,16.53a.633.633,0,0,0,.083-.837L1.153,12.542,4.8,11.189a.632.632,0,0,0,.4-.741L4.3,6.662l3.89.148a.631.631,0,0,0,.649-.533l.614-3.842,3.536,1.624a.632.632,0,0,0,.8-.244L15.825.5l2.647,2.852a.634.634,0,0,0,.835.083l3.151-2.28L23.811,4.8a.629.629,0,0,0,.741.4l3.785-.9L28.19,8.183a.635.635,0,0,0,.533.65l3.842.615-1.624,3.535a.634.634,0,0,0,.244.8L34.5,15.826Z" stroke="#464646" stroke-linecap="round" stroke-linejoin="round" fill="url(#linear-gradient-2)"/>
    <path id="path42" d="M21.243,26.545a9.789,9.789,0,1,1,5.3-12.79v.006A9.79,9.79,0,0,1,21.243,26.545Z" stroke="#147391" stroke-linecap="round" stroke-linejoin="round" fill="url(#linear-gradient-3)"/>
    <path id="polygon44" d="M11.329,19.7l1.323-1.763L16.036,19.7l5.431-7.5,1.763,1.333L17.059,24.112Z" fill="#fff" stroke="#147391" stroke-linecap="round" stroke-linejoin="round" stroke-width="0.994"/>
    <path id="rect39" d="M25.5,20.5h22v27h-22Z" stroke="#464646" stroke-miterlimit="10" fill="url(#linear-gradient-4)"/>
    <path id="line41" d="M36,27.5l8,0" fill="none" stroke="#6e6e6e"/>
    <path id="rect43" d="M29.5,25.5h4v4h-4Z" fill="none" stroke="#147391" stroke-miterlimit="10"/>
    <path id="line45" d="M36,34.5l8,.005" fill="none" stroke="#6e6e6e"/>
    <path id="rect47" d="M29.5,32.5h4v4h-4Z" fill="none" stroke="#147391" stroke-miterlimit="10"/>
    <path id="line49" d="M36,41.5l8,.005" fill="none" stroke="#6e6e6e"/>
    <path id="rect51" d="M29.5,39.5h4v4h-4Z" fill="none" stroke="#147391" stroke-miterlimit="10"/>
  </g>
</svg>
