<svg version="1.1" id="Layer_1" xmlns="http://www.w3.org/2000/svg" xmlns:xlink="http://www.w3.org/1999/xlink" x="0px" y="0px"
	 viewBox="0 0 48 48" enable-background="new 0 0 48 48" xml:space="preserve">
<linearGradient id="SVGID_1_" gradientUnits="userSpaceOnUse" x1="-0.5" y1="-678.5" x2="41" y2="-720" gradientTransform="matrix(1 0 0 -1 0 -672)">
	<stop  offset="0" style="stop-color:#FFFFFF"/>
	<stop  offset="0.2323" style="stop-color:#FAFAFA"/>
	<stop  offset="0.4964" style="stop-color:#EDEDED"/>
	<stop  offset="0.775" style="stop-color:#D6D6D6"/>
	<stop  offset="1" style="stop-color:#BEBEBE"/>
</linearGradient>
<polygon fill="url(#SVGID_1_)" stroke="#464646" stroke-miterlimit="10" points="28.5,0.5 5.5,0.5 5.5,47.5 41.5,47.5 41.5,13.5 "/>
<linearGradient id="SVGID_2_" gradientUnits="userSpaceOnUse" x1="25.25" y1="-675.75" x2="38.25" y2="-688.75" gradientTransform="matrix(1 0 0 -1 0 -672)">
	<stop  offset="0" style="stop-color:#FFFFFF"/>
	<stop  offset="0.2214" style="stop-color:#F8F8F8"/>
	<stop  offset="0.5415" style="stop-color:#E5E5E5"/>
	<stop  offset="0.92" style="stop-color:#C6C6C6"/>
	<stop  offset="1" style="stop-color:#BEBEBE"/>
</linearGradient>
<polygon fill="url(#SVGID_2_)" stroke="#464646" stroke-linejoin="round" stroke-miterlimit="10" points="28.5,0.5 28.5,13.5 
	41.5,13.5 "/>
<linearGradient id="XMLID_2_" gradientUnits="userSpaceOnUse" x1="13.5" y1="21.5" x2="33.5" y2="41.5">
	<stop  offset="0" style="stop-color:#B1B1B1"/>
	<stop  offset="1" style="stop-color:#7D7D7D"/>
</linearGradient>
<path id="XMLID_21_" fill="url(#XMLID_2_)" stroke="#5A5A5A" stroke-miterlimit="10" d="M26.1,21.5c0.7-0.7,1.1-1.6,1.1-2.7
	c0-2-1.7-3.7-3.7-3.7s-3.7,1.7-3.7,3.7c0,1,0.4,2,1.1,2.7h-7.4v7.4c0.7-0.7,1.6-1.1,2.6-1.1c2,0,3.7,1.7,3.7,3.7
	c0,2-1.7,3.7-3.7,3.7c-1,0-2-0.4-2.6-1.1v7.5h20v-20H26.1z"/>
</svg>
