<svg id="Layer_1" data-name="Layer 1" xmlns="http://www.w3.org/2000/svg" xmlns:xlink="http://www.w3.org/1999/xlink" viewBox="0 0 48 48">
  <defs>
    <linearGradient id="paper_gradient" data-name="paper gradient" x1="10.399" y1="20.2825" x2="37.601" y2="47.4846" gradientTransform="translate(57.8154 9.7876) rotate(89.8376)" gradientUnits="userSpaceOnUse">
      <stop offset="0" stop-color="#fff"/>
      <stop offset="0.2214" stop-color="#f8f8f8"/>
      <stop offset="0.5415" stop-color="#e5e5e5"/>
      <stop offset="0.92" stop-color="#c6c6c6"/>
      <stop offset="1" stop-color="#bebebe"/>
    </linearGradient>
    <linearGradient id="New_Gradient_Swatch_3" data-name="New Gradient Swatch 3" x1="11.1532" y1="21.0412" x2="36.838" y2="46.726" gradientUnits="userSpaceOnUse">
      <stop offset="0" stop-color="#b1b1b1"/>
      <stop offset="1" stop-color="#7d7d7d"/>
    </linearGradient>
    <linearGradient id="New_Gradient_Swatch_4" data-name="New Gradient Swatch 4" x1="8.5048" y1="8.1303" x2="24.4953" y2="8.1303" gradientUnits="userSpaceOnUse">
      <stop offset="0" stop-color="#fff"/>
      <stop offset="0.2284" stop-color="#fafafa"/>
      <stop offset="0.4881" stop-color="#ededed"/>
      <stop offset="0.7621" stop-color="#d7d6d6"/>
      <stop offset="1" stop-color="#bdbcbc"/>
    </linearGradient>
    <linearGradient id="New_Gradient_Swatch_4-2" x1="10.5" y1="3.9754" x2="22.5" y2="3.9754" xlink:href="#New_Gradient_Swatch_4"/>
    <linearGradient id="New_Gradient_Swatch_5" data-name="New Gradient Swatch 5" x1="10.5" y1="7.1323" x2="22.5" y2="7.1323" gradientUnits="userSpaceOnUse">
      <stop offset="0" stop-color="#b0b0b0"/>
      <stop offset="1" stop-color="#7e7e7e"/>
    </linearGradient>
    <linearGradient id="linear-gradient" x1="8.5" y1="19.4746" x2="24.5" y2="19.4746" gradientUnits="userSpaceOnUse">
      <stop offset="0" stop-color="#b0b0b0"/>
      <stop offset="0.2636" stop-color="#a9a9a9"/>
      <stop offset="0.6418" stop-color="#969696"/>
      <stop offset="1" stop-color="#7e7e7e"/>
    </linearGradient>
    <linearGradient id="Dark_Blue_Grad_2" data-name="Dark Blue Grad 2" x1="13.9089" y1="33.7418" x2="19.0969" y2="33.7418" gradientUnits="userSpaceOnUse">
      <stop offset="0" stop-color="#74b3c7"/>
      <stop offset="0.1774" stop-color="#6badc2"/>
      <stop offset="0.4638" stop-color="#539db4"/>
      <stop offset="0.8215" stop-color="#2d839d"/>
      <stop offset="1" stop-color="#177490"/>
    </linearGradient>
  </defs>
    <ellipse cx="24" cy="33.8836" rx="13.6115" ry="23.4995" transform="translate(-9.9515 57.7874) rotate(-89.8376)" stroke="#464646" stroke-miterlimit="10" fill="url(#paper_gradient)"/>
    <path d="M28.8638,23.19,27.02,24.2619,25.1639,23.19l1.8439-1.0715Zm-4.9255.7123L22.1,24.971l1.856,1.0715,1.8384-1.0684Zm-3.064,1.7806L19.03,26.7548l1.856,1.0716,1.844-1.0716Zm-3.07,1.7838-1.8384,1.0684,1.856,1.0716,1.8384-1.0684Zm-3.064,1.7807-1.844,1.0715,1.856,1.0716,1.844-1.0716Zm-3.07,1.7838L9.8327,32.1l1.856,1.0716,1.8384-1.0683ZM8.6016,32.8153,6.7631,33.8837l1.856,1.0715,1.8385-1.0683ZM5.5375,34.5959,3.6991,35.6643l1.856,1.0716,1.8384-1.0684Zm-.04-7.1288L3.659,28.5355l1.85,1.0683,1.8384-1.0683Zm3.07-1.7838L6.723,26.7548l1.85,1.0684,1.8439-1.0716Zm3.064-1.7806L9.7926,24.971l1.85,1.0684,1.8384-1.0684Zm-6.1135,7.132L3.6791,32.1031l1.85,1.0683,1.8384-1.0683ZM8.587,29.2509,6.7486,30.3193l1.8505,1.0683,1.8384-1.0683ZM20.8542,22.122,19.0158,23.19l1.85,1.0683L22.7047,23.19Zm-6.1336,3.5644-1.8384,1.0684,1.85,1.0684,1.8385-1.0684Zm-3.064,1.7807L9.8127,28.5386l1.85,1.0684,1.8439-1.0716Zm24.5889-3.5646-1.8384,1.0684,1.856,1.0716,1.8384-1.0684Zm-3.064,1.7807-1.8439,1.0715,1.856,1.0716,1.8439-1.0716Zm-3.07,1.7838-1.8384,1.0683,1.856,1.0716,1.8384-1.0684Zm-3.064,1.7806-1.844,1.0716,1.856,1.0715,1.844-1.0715Zm-3.07,1.7838L22.14,32.1l1.856,1.0716,1.8384-1.0684Zm-3.064,1.7806L19.07,33.8836l1.856,1.0716,1.844-1.0716Zm-3.07,1.7839-1.8384,1.0683,1.856,1.0716,1.8384-1.0684ZM14.7753,36.38l-1.8385,1.0684,1.856,1.0715,1.8385-1.0683ZM11.7112,38.16,9.8728,39.2287,11.7288,40.3l1.8384-1.0684ZM8.6417,39.9442,6.8033,41.0125l1.856,1.0716,1.8384-1.0684Zm24.52-17.8222L31.323,23.19l1.85,1.0684L35.0119,23.19Zm-3.0641,1.7806-1.8439,1.0715,1.8505,1.0684,1.8439-1.0716Zm-3.07,1.7838L25.19,26.7548l1.85,1.0683,1.8385-1.0684Zm-3.064,1.7806L22.12,28.5386,23.97,29.607l1.8439-1.0716Zm-3.07,1.7838-1.8384,1.0684,1.85,1.0684,1.8385-1.0684ZM17.83,31.0315,15.9864,32.103l1.85,1.0684L19.6807,32.1Zm-3.07,1.7838-1.8384,1.0683,1.8505,1.0684,1.8384-1.0684Zm-3.0695,1.7838L9.8528,35.6675l1.85,1.0683,1.8384-1.0683ZM8.6272,36.38,6.7887,37.4481l1.8505,1.0684,1.8384-1.0684Zm-3.07,1.7839L3.7192,39.2319,5.57,40.3,7.408,39.2319ZM42.4649,34.599l-1.8384,1.0683,1.85,1.0684,1.8384-1.0684ZM39.4009,36.38,37.557,37.4512l1.85,1.0683,1.844-1.0716Zm-3.0695,1.7838-1.8385,1.0684L36.3434,40.3l1.8384-1.0683ZM33.2673,39.944l-1.8439,1.0716,1.85,1.0684,1.844-1.0716Zm-3.0695,1.7839-1.8384,1.0683,1.85,1.0684,1.8384-1.0684Zm-3.07,1.7838L25.29,44.58,27.14,45.6484,28.9787,44.58ZM42.485,38.16l-1.844,1.0716L42.4915,40.3l1.8439-1.0716Zm-3.07,1.7838L37.577,41.0124l1.85,1.0683,1.8385-1.0683Zm-3.064,1.7806-1.8439,1.0716,1.85,1.0684,1.8439-1.0716Zm-3.07,1.7839-1.8383,1.0683,1.85,1.0684,1.8384-1.0684Zm6.0534-17.8222-1.8385,1.0684,1.8505,1.0684,1.8384-1.0684Zm3.084,1.7806-1.8384,1.0684,1.856,1.0716,1.8384-1.0684Zm-6.1481,0-1.8439,1.0715,1.8505,1.0684,1.8439-1.0716Zm3.0841,1.7805-1.8439,1.0716,1.856,1.0716,1.8439-1.0716Zm3.09,1.7838-1.8439,1.0716,1.85,1.0684L44.2953,32.1Zm-9.2432-1.78-1.8384,1.0683,1.85,1.0684,1.8385-1.0684Zm3.0841,1.7806L34.4473,32.1l1.856,1.0716,1.8384-1.0684Zm3.09,1.7838-1.8384,1.0683,1.85,1.0684,1.8385-1.0684Zm-9.2377-1.7838-1.844,1.0716,1.8505,1.0683L31.988,32.1Zm3.0841,1.7806-1.844,1.0716,1.856,1.0715,1.844-1.0716Zm3.09,1.7838-1.844,1.0716,1.85,1.0683,1.8439-1.0716ZM27.068,32.8152,25.23,33.8836l1.85,1.0684,1.8385-1.0684Zm3.0841,1.7806-1.8384,1.0684,1.856,1.0716,1.8384-1.0684Zm3.09,1.7838L31.4033,37.448l1.85,1.0683,1.8385-1.0683ZM24.004,34.5958,22.16,35.6674l1.85,1.0684,1.8439-1.0716Zm3.0841,1.7806-1.844,1.0716L27.1,38.52l1.844-1.0716Zm3.09,1.7838-1.8439,1.0716,1.85,1.0684,1.8439-1.0716ZM20.9344,36.38,19.096,37.448l1.8505,1.0684,1.8384-1.0684ZM24.0185,38.16,22.18,39.2286,24.0361,40.3l1.8384-1.0684Zm3.09,1.7838L25.27,41.0124,27.12,42.0808l1.8384-1.0684Zm-9.2432-1.7806-1.8384,1.0684,1.85,1.0683,1.8384-1.0683Zm3.0841,1.7806-1.8385,1.0684,1.856,1.0715,1.8385-1.0683Zm3.09,1.7838L22.2,42.7963l1.85,1.0683,1.8384-1.0684Zm-9.2377-1.7838-1.8385,1.0684,1.8505,1.0683,1.8384-1.0683Zm3.084,1.7806-1.8384,1.0684,1.856,1.0715,1.8384-1.0683Zm3.09,1.7838-1.8384,1.0684,1.85,1.0683,1.8384-1.0683Zm-9.2433-1.78L9.8929,42.7963l1.85,1.0684,1.8384-1.0684Zm3.0841,1.78L12.977,44.5769l1.856,1.0716L16.6714,44.58Z" stroke="#6e6e6e" stroke-linejoin="round" stroke-width="0.75" fill="url(#New_Gradient_Swatch_3)"/>
    <line x1="40.5623" y1="24.2586" x2="15.7944" y2="38.6708" fill="none" stroke="#147391" stroke-linecap="round" stroke-miterlimit="10" stroke-dasharray="2 2"/>
  <path d="M22.451,4.283a3.1136,3.1136,0,0,1-1.6937,2.1521,9.3511,9.3511,0,0,1-8.4837-.0036A3.1588,3.1588,0,0,1,10.55,4.2644c-2.8258,1.8183-2.7247,4.6229.31,6.3752a12.4643,12.4643,0,0,0,11.31,0C25.18,8.8907,25.2616,6.1017,22.451,4.283Z" fill="url(#New_Gradient_Swatch_4)"/>
  <path d="M20.73,1.5174c2.35,1.3566,2.3621,3.5611.0276,4.9177a9.3509,9.3509,0,0,1-8.4836-.0036c-2.35-1.3566-2.3684-3.5574-.034-4.914A9.3642,9.3642,0,0,1,20.73,1.5174Z" fill="url(#New_Gradient_Swatch_4-2)"/>
  <path d="M22.5,3.9753a2.9694,2.9694,0,0,1-1.7425,2.46,9.3511,9.3511,0,0,1-8.4837-.0036A3.02,3.02,0,0,1,10.5,3.9753h0V6.8138h0A3.02,3.02,0,0,0,12.2737,9.27a9.351,9.351,0,0,0,8.4835.0037A2.97,2.97,0,0,0,22.5,6.8138h0V3.9753Z" stroke="#6e6e6e" stroke-linejoin="round" fill="url(#New_Gradient_Swatch_5)"/>
  <path d="M24.4448,7.89A4.2952,4.2952,0,0,1,22.17,10.64a12.4643,12.4643,0,0,1-11.31,0A4.3554,4.3554,0,0,1,8.5629,7.9012L8.5,7.8146v3.1973h0a4.0139,4.0139,0,0,0,2.36,3.2772c.1605.0927.3453.16.5154.2432l.857,2.1315,1.6112,13.0586h.0121a1.41,1.41,0,0,0,.7652.9575,4.1461,4.1461,0,0,0,3.7677.0039,1.3858,1.3858,0,0,0,.7567-.9614h.0122L20.767,16.6638l.8453-2.11c.185-.09.3845-.1639.5581-.2648A3.9687,3.9687,0,0,0,24.5,11.0119h0V7.8146Z" fill="url(#linear-gradient)"/>
    <path d="M12.233,16.6638a2.4163,2.4163,0,0,0,1.2592,1.4415,6.6541,6.6541,0,0,0,6.0353,0,2.3715,2.3715,0,0,0,1.2395-1.4415" fill="none" stroke="#6e6e6e" stroke-linecap="round" stroke-linejoin="round"/>
    <path d="M21.6123,14.5538a12.6471,12.6471,0,0,1-10.2363-.0215" fill="none" stroke="#6e6e6e" stroke-linecap="round" stroke-linejoin="round"/>
  <path d="M18.3892,30.6838a4.1461,4.1461,0,0,1-3.7677-.0039,1.5492,1.5492,0,0,1-.6983-.7353h-.0143L16.5,37.5389l2.5969-7.5943h-.0144A1.5246,1.5246,0,0,1,18.3892,30.6838Z" stroke="#147391" stroke-linejoin="round" fill="url(#Dark_Blue_Grad_2)"/>
  <path d="M24.4448,7.89A4.2952,4.2952,0,0,1,22.17,10.64a12.4643,12.4643,0,0,1-11.31,0A4.3554,4.3554,0,0,1,8.5629,7.9012" fill="none" stroke="#6e6e6e" stroke-linecap="round" stroke-linejoin="round"/>
  <path d="M24.495,7.4246a3.8054,3.8054,0,0,0-2.0441-3.1413A2.82,2.82,0,0,0,20.73,1.5175a9.3636,9.3636,0,0,0-8.49,0A2.7838,2.7838,0,0,0,10.55,4.2642,3.8429,3.8429,0,0,0,8.5052,7.2975l-.0052,0v3.7145h0a4.0139,4.0139,0,0,0,2.36,3.2772c.1605.0927.3453.16.5154.2432l.857,2.1315,1.6112,13.0586h.0121a1.41,1.41,0,0,0,.7652.9575,4.1461,4.1461,0,0,0,3.7677.0039,1.3858,1.3858,0,0,0,.7567-.9614h.0122L20.767,16.6638l.8453-2.11c.185-.09.3845-.1639.5581-.2648A3.9687,3.9687,0,0,0,24.5,11.0119h0V7.4247Z" fill="none" stroke="#464646" stroke-linejoin="round"/>
</svg>
