<svg id="Layer_1" data-name="Layer 1" xmlns="http://www.w3.org/2000/svg" xmlns:xlink="http://www.w3.org/1999/xlink" viewBox="0 0 48 48">
    <linearGradient id="linear-gradient" x1="2.75" y1="-1.75" x2="36.25" y2="31.75" gradientUnits="userSpaceOnUse">
      <stop offset="0" stop-color="#e9e9e9"/>
      <stop offset="0.2032" stop-color="#e2e2e2"/>
      <stop offset="0.7554" stop-color="#cfcfcf"/>
    </linearGradient>
    <linearGradient id="front_-45_2" data-name="front -45 2" x1="15.1922" y1="18.2623" x2="32.465" y2="35.535" gradientUnits="userSpaceOnUse">
      <stop offset="0" stop-color="#f1f1f1"/>
      <stop offset="0.5" stop-color="#c9c9c9"/>
      <stop offset="0.6282" stop-color="#c4c4c4"/>
      <stop offset="0.7762" stop-color="#b7b7b7"/>
      <stop offset="0.9335" stop-color="#a0a0a0"/>
      <stop offset="0.99" stop-color="#969696"/>
    </linearGradient>
    <linearGradient id="New_Gradient_Swatch_3" data-name="New Gradient Swatch 3" x1="11.7896" y1="33.8539" x2="17.5018" y2="39.5662" gradientTransform="translate(3.827 -6.8624) rotate(5.0648)" gradientUnits="userSpaceOnUse">
      <stop offset="0" stop-color="#b0b0b0"/>
      <stop offset="1" stop-color="#7e7e7e"/>
    </linearGradient>
    <linearGradient id="front_-45_2-2" x1="20.6118" y1="22.8194" x2="23.834" y2="26.0417" gradientTransform="translate(23.784 -8.5584) rotate(45)" xlink:href="#front_-45_2"/>
    <linearGradient id="Dark_Blue_Grad_3" data-name="Dark Blue Grad 3" x1="30.9408" y1="12.4905" x2="34.163" y2="15.7127" gradientUnits="userSpaceOnUse">
      <stop offset="0" stop-color="#c6c6c6"/>
      <stop offset="0.1774" stop-color="#c1c1c1"/>
      <stop offset="0.4638" stop-color="#b3b3b3"/>
      <stop offset="0.8215" stop-color="#9c9c9c"/>
      <stop offset="1" stop-color="#8f8f8f"/>
    </linearGradient>
    <linearGradient id="linear-gradient-2" x1="25.3112" y1="23.9336" x2="37.0664" y2="35.6888" gradientUnits="userSpaceOnUse">
      <stop offset="0" stop-color="#ffffff"/>
      <stop offset="0.2284" stop-color="#fafafa"/>
      <stop offset="0.4881" stop-color="#ededed"/>
      <stop offset="0.7621" stop-color="#d6d6d6"/>
      <stop offset="1" stop-color="#bcbcbc"/>
    </linearGradient>
    <linearGradient id="linear-gradient-3" x1="33.6232" y1="31.6232" x2="45.3768" y2="43.3768" xlink:href="#linear-gradient-2"/>
    <linearGradient id="Dark_Blue_Grad_4" data-name="Dark Blue Grad 4" x1="333.8373" y1="-767.6922" x2="327.1441" y2="-774.3853" gradientTransform="matrix(0.7071, 0.7071, 0.7071, -0.7071, 345.2816, -743.6671)" gradientUnits="userSpaceOnUse">
      <stop offset="0" stop-color="#c5c5c5"/>
      <stop offset="0.1774" stop-color="#c0c0c0"/>
      <stop offset="0.4638" stop-color="#b2b2b2"/>
      <stop offset="0.8215" stop-color="#9b9b9b"/>
      <stop offset="1" stop-color="#8e8e8e"/>
    </linearGradient>
  <rect x="0.5" y="0.5" width="38" height="29" fill="url(#linear-gradient)"/>
    <path d="M9.5006,14.5A5,5,0,1,0,4.5,9.4988,5,5,0,0,0,9.5006,14.5Z" fill="#ffffff" stroke="#8f8f8f" stroke-linecap="round" stroke-linejoin="round" stroke-width="1"/>
    <polygon points="3.955 29.5 18.636 14.818 22.091 18.273 29.864 10.5 38.5 19.095 38.5 29.5 3.955 29.5" stroke="#6f6f6f" stroke-linecap="round" stroke-miterlimit="10" fill="url(#front_-45_2)"/>
  <rect x="0.5" y="0.5" width="38" height="29" fill="none" stroke="#464646" stroke-miterlimit="10"/>
    <path d="M18.6361,24.766A6.0619,6.0619,0,0,0,12.9116,28.68,7.2059,7.2059,0,0,1,8,33.4246S20.0107,38.0859,21.872,28" stroke="#464646" stroke-miterlimit="10" fill="url(#New_Gradient_Swatch_3)"/>
    <rect x="19.3749" y="22.1521" width="5.6961" height="4.5569" transform="translate(-10.7661 22.8695) rotate(-45)" stroke="#464646" stroke-linejoin="round" fill="url(#front_-45_2-2)"/>
    <path d="M22.6257,20.8056,39.5237,5.7484a.9783.9783,0,0,1,1.3432.0382h0A.9782.9782,0,0,1,40.9048,7.13L25.8479,24.0278Z" stroke="#464646" stroke-linejoin="round" fill="url(#Dark_Blue_Grad_3)"/>
  <path d="M35.6679,23.5H27.3321A3.8321,3.8321,0,0,0,23.5,27.3321v4.3358A3.8321,3.8321,0,0,0,27.3321,35.5H28.5v4l4-4h3.1679A3.8321,3.8321,0,0,0,39.5,31.6679V27.3321A3.8321,3.8321,0,0,0,35.6679,23.5Z" stroke="#464646" stroke-linejoin="round" fill="url(#linear-gradient-2)"/>
  <path d="M26,27.5513c.8349-.0649,1.0452-1.175,1.8321-1.1707.8424.0046,1.0093,1.1717,1.8377,1.1689s1.0027-1.17,1.8278-1.1689c.8138.0008,1.0042,1.1654,1.831,1.1707.8151.0053,1.0059-1.1661,1.8321-1.1707.81-.0045.9953,1.1134,1.8393,1.1707" fill="none" stroke="#6f6f6f"/>
  <path d="M26,30.0452c.8349-.0649,1.0452-1.175,1.8321-1.1707.8424.0046,1.0093,1.1717,1.8377,1.1689s1.0027-1.17,1.8278-1.1689c.8138.0008,1.0042,1.1654,1.831,1.1707.8151.0052,1.0059-1.1661,1.8321-1.1707.81-.0045.9953,1.1134,1.8393,1.1707" fill="none" stroke="#6f6f6f"/>
  <path d="M26,32.5391c.8349-.0649,1.0452-1.175,1.8321-1.1707.8424.0046,1.0093,1.1717,1.8377,1.1689s1.0027-1.17,1.8278-1.1689c.8138.0008,1.0042,1.1653,1.831,1.1707.8151.0052,1.0059-1.1661,1.8321-1.1707.81-.0045.9953,1.1134,1.8393,1.1707" fill="none" stroke="#6f6f6f"/>
  <path d="M43.665,31.5h-8.33A3.835,3.835,0,0,0,31.5,35.335v4.33A3.835,3.835,0,0,0,35.335,43.5H36.5l4,4,.0021-4H43.665A3.835,3.835,0,0,0,47.5,39.665v-4.33A3.835,3.835,0,0,0,43.665,31.5Z" stroke="#464646" stroke-linejoin="round" fill="url(#linear-gradient-3)"/>
  <line x1="40" y1="34.5" x2="45" y2="34.5" fill="none" stroke="#6f6f6f"/>
  <line x1="40" y1="38.5" x2="45" y2="38.5" fill="none" stroke="#6f6f6f"/>
  <line x1="34" y1="40.5" x2="45" y2="40.5" fill="none" stroke="#6f6f6f"/>
  <line x1="40" y1="36.5" x2="45" y2="36.5" fill="none" stroke="#6f6f6f"/>
  <path d="M38.5,38.5H33.5122l1.3337-1.3337a9.29,9.29,0,0,0-5.8115-5.1427c3.1838-.2778,5.8655.3642,8.0876,2.8666L38.5,33.5124Z" stroke="#8f8f8f" stroke-linejoin="round" fill="url(#Dark_Blue_Grad_4)"/>
</svg>
