<svg id="Layer_1" data-name="Layer 1" xmlns="http://www.w3.org/2000/svg" xmlns:xlink="http://www.w3.org/1999/xlink" viewBox="0 0 48 48">
    <linearGradient id="linear-gradient" x1="3.7053" y1="41.7053" x2="45.2053" y2="0.2053" gradientTransform="matrix(1, 0, 0, -1, 0, 48)" gradientUnits="userSpaceOnUse">
      <stop offset="0" stop-color="#fff"/>
      <stop offset="0.2323" stop-color="#fafafa"/>
      <stop offset="0.4964" stop-color="#ededed"/>
      <stop offset="0.775" stop-color="#d6d6d6"/>
      <stop offset="1" stop-color="#bebebe"/>
    </linearGradient>
    <linearGradient id="paper_gradient" data-name="paper gradient" x1="22.1147" y1="7.8455" x2="26.7171" y2="12.4479" gradientUnits="userSpaceOnUse">
      <stop offset="0" stop-color="#fff"/>
      <stop offset="0.2214" stop-color="#f8f8f8"/>
      <stop offset="0.5415" stop-color="#e5e5e5"/>
      <stop offset="0.92" stop-color="#c6c6c6"/>
      <stop offset="1" stop-color="#bebebe"/>
    </linearGradient>
    <linearGradient id="New_Gradient_Swatch_4" data-name="New Gradient Swatch 4" x1="13.6998" y1="14.5332" x2="24.959" y2="25.7925" gradientUnits="userSpaceOnUse">
      <stop offset="0" stop-color="#afd7e1"/>
      <stop offset="0.1588" stop-color="#a4d0dc"/>
      <stop offset="0.7059" stop-color="#80bcce"/>
      <stop offset="1" stop-color="#73b4c8"/>
    </linearGradient>
    <linearGradient id="paper_gradient-2" x1="26.1195" y1="10.4089" x2="30.7315" y2="15.0208" xlink:href="#paper_gradient"/>
    <linearGradient id="New_Gradient_Swatch_4-2" x1="18.1564" y1="17.1137" x2="29.4156" y2="28.3729" xlink:href="#New_Gradient_Swatch_4"/>
    <linearGradient id="paper_gradient-3" x1="30.5" y1="44.5" x2="42.5" y2="32.5" gradientTransform="matrix(1, 0, 0, -1, 0, 48)" xlink:href="#paper_gradient"/>
  <polygon points="33.321 0.5 9.5 0.5 9.5 47.5 45.5 47.5 45.5 12.679 33.321 0.5" stroke="#464646" stroke-miterlimit="10" fill="url(#linear-gradient)"/>
    <polyline points="17.799 12.162 28.122 6.517 31.033 8.132 21.684 13.355" fill="url(#paper_gradient)"/>
    <polygon points="28.056 5.103 28.056 6.506 17.799 12.151 17.5 10.733 28.056 5.103" fill="#969696"/>
    <path d="M21.7223,29.0292a3.9605,3.9605,0,0,1-2.6682-.4691C17.5667,27.7758,17.5,27.0885,17.5,27.0885V10.733A5.8466,5.8466,0,0,0,19.168,12.81a7.2964,7.2964,0,0,0,2.5543.738Z" fill="url(#New_Gradient_Swatch_4)"/>
  <polyline points="21.978 14.55 32.278 9.326 34.873 10.88 25.944 15.659" fill="url(#paper_gradient-2)"/>
  <polyline points="32.37 7.918 32.37 9.326 21.912 15.068 21.722 13.548" fill="#969696" stroke="#6e6e6e" stroke-linejoin="round"/>
  <path d="M25.9445,31.8441a5.6675,5.6675,0,0,1-2.7907-.6878,2.4493,2.4493,0,0,1-1.4315-2.1271V13.5478a8.7029,8.7029,0,0,0,1.7391,1.4492,6.2763,6.2763,0,0,0,2.4831.6619Z" fill="url(#New_Gradient_Swatch_4-2)"/>
  <polygon points="36.5 10.029 36.5 26.214 25.944 31.844 25.944 15.659 36.5 10.029" fill="#3c91af"/>
  <line x1="25.5" y1="31" x2="25.5" y2="16" fill="none" stroke="#147391" stroke-linejoin="round"/>
  <line x1="21.5" y1="29" x2="21.5" y2="13" fill="none" stroke="#147391" stroke-linejoin="round"/>
  <path d="M21.7223,13.5478a8.7029,8.7029,0,0,0,1.7391,1.4492,6.2763,6.2763,0,0,0,2.4831.6619" fill="none" stroke="#147391" stroke-linecap="round" stroke-miterlimit="10"/>
  <line x1="28.0556" y1="6.5108" x2="18.3583" y2="11.8258" fill="none" stroke="#6e6e6e" stroke-linejoin="round"/>
  <path d="M25.9445,15.6589,36.5,10.0293V26.2144l-10.5555,5.63a5.6669,5.6669,0,0,1-2.7907-.6879,2.449,2.449,0,0,1-1.4315-2.1269,4.3092,4.3092,0,0,1-2.7483-.496C17.4867,27.749,17.5,26.854,17.5,26.854V10.733a6.2779,6.2779,0,0,0,1.7252,2.1162,6.6872,6.6872,0,0,0,2.4971.6986" fill="none" stroke="#147391" stroke-linecap="round" stroke-linejoin="round"/>
  <polyline points="17.5 10.733 28.239 5 28.239 6.506 31.15 8.412" fill="none" stroke="#147391" stroke-linejoin="round"/>
  <polyline points="21.722 13.548 32.37 7.891 32.37 9.326 34.99 10.953" fill="none" stroke="#147391" stroke-linejoin="round"/>
  <polygon points="33.5 0.5 33.5 12.5 45.5 12.5 33.5 0.5" stroke="#464646" stroke-linejoin="round" fill="url(#paper_gradient-3)"/>
  <rect x="0.5" y="27.5" width="47" height="16" fill="#726ba6" stroke="#464646" stroke-miterlimit="10"/>
    <path d="M9.3379,38.6509a3.5893,3.5893,0,0,1-.9854.3384,5.8957,5.8957,0,0,1-1.206.1235,3.93,3.93,0,0,1-1.96-.4751,3.17,3.17,0,0,1-1.289-1.3486,4.3461,4.3461,0,0,1-.4458-2.0059,4.4327,4.4327,0,0,1,.5156-2.1484A3.6233,3.6233,0,0,1,5.4092,31.666a4.1318,4.1318,0,0,1,2.0542-.5185,6.5741,6.5741,0,0,1,1.0044.0805,3.4453,3.4453,0,0,1,.87.2364v1.3a3.5549,3.5549,0,0,0-1.8369-.4834,2.7624,2.7624,0,0,0-1.41.36,2.4318,2.4318,0,0,0-.9585,1.0235,3.3515,3.3515,0,0,0-.3384,1.5439,2.8467,2.8467,0,0,0,.6983,2.0249A2.4308,2.4308,0,0,0,7.356,37.98a3.599,3.599,0,0,0,1.9819-.5425Z" fill="#fff"/>
    <path d="M13.3716,38.9785v-.7573H13.35a1.8292,1.8292,0,0,1-1.6274.8916,1.79,1.79,0,0,1-1.2784-.44A1.56,1.56,0,0,1,9.9771,37.48a1.7,1.7,0,0,1,.4565-1.2407,2.2032,2.2032,0,0,1,1.3428-.58l1.6059-.22q0-1.1229-1.042-1.1226a2.9529,2.9529,0,0,0-.98.1665,3.1008,3.1008,0,0,0-.8457.4458V33.833a3.146,3.146,0,0,1,.8886-.3384,4.4013,4.4013,0,0,1,1.0664-.15,2.1249,2.1249,0,0,1,1.5928.55,2.2057,2.2057,0,0,1,.5342,1.5982v3.4858Zm-2.1753-1.6274a.6972.6972,0,0,0,.2578.5669.9985.9985,0,0,0,.6553.2119,1.2041,1.2041,0,0,0,.9131-.3789,1.3282,1.3282,0,0,0,.36-.9531v-.4942l-1.187.1558a1.5,1.5,0,0,0-.7817.2793A.791.791,0,0,0,11.1963,37.3511Z" fill="#fff"/>
    <path d="M21.1387,36.0835a3.3489,3.3489,0,0,1-.6822,2.2075,2.2751,2.2751,0,0,1-1.8476.8218,1.764,1.764,0,0,1-1.5523-.8272h-.0214v3.2227H15.7944v-8.03h1.2408v.8809h.0214a2.0606,2.0606,0,0,1,1.8262-1.0152,2.02,2.02,0,0,1,1.6543.7359A3.0744,3.0744,0,0,1,21.1387,36.0835ZM19.85,36.062a1.9449,1.9449,0,0,0-.3628-1.2485,1.2215,1.2215,0,0,0-1.0122-.4541,1.3308,1.3308,0,0,0-1.05.4565,1.7277,1.7277,0,0,0-.4,1.1817v.7036a1.3832,1.3832,0,0,0,.3814,1.0019,1.27,1.27,0,0,0,.9506.3946,1.2928,1.2928,0,0,0,1.1011-.5264A2.495,2.495,0,0,0,19.85,36.062Z" fill="#fff"/>
    <path d="M23.0723,36.5938a1.6067,1.6067,0,0,0,.4565,1.144,1.689,1.689,0,0,0,1.1978.3921,2.7419,2.7419,0,0,0,.8964-.1475,2.8986,2.8986,0,0,0,.752-.3789v1.0474a2.7024,2.7024,0,0,1-.8379.333,4.6539,4.6539,0,0,1-1.1113.1289,2.4977,2.4977,0,0,1-1.939-.7495,2.961,2.961,0,0,1-.6875-2.0811,3.32,3.32,0,0,1,.3408-1.5415,2.5467,2.5467,0,0,1,.9453-1.0288,2.5111,2.5111,0,0,1,1.33-.3677,2.2675,2.2675,0,0,1,1.7705.6983,2.7818,2.7818,0,0,1,.6309,1.9336v.6177Zm2.5078-.9346a1.4558,1.4558,0,0,0-.3057-.999,1.0924,1.0924,0,0,0-.8594-.3438,1.1937,1.1937,0,0,0-.8754.3731,1.7268,1.7268,0,0,0-.4673.97Z" fill="#fff"/>
    <path d="M27.7832,38.9785V30.8359h1.2412v8.1426Z" fill="#fff"/>
    <path d="M30.49,38.9785V30.8359h1.2412v8.1426Z" fill="#fff"/>
    <path d="M36.1084,38.9785v-.7573h-.0215a1.8284,1.8284,0,0,1-1.6269.8916,1.7931,1.7931,0,0,1-1.2793-.44,1.5628,1.5628,0,0,1-.4668-1.1924,1.698,1.698,0,0,1,.457-1.2407,2.2018,2.2018,0,0,1,1.3418-.58l1.6064-.22q0-1.1229-1.042-1.1226a2.9512,2.9512,0,0,0-.98.1665,3.1008,3.1008,0,0,0-.8457.4458V33.833a3.1522,3.1522,0,0,1,.8886-.3384,4.3955,4.3955,0,0,1,1.0665-.15,2.1255,2.1255,0,0,1,1.5927.55,2.2036,2.2036,0,0,1,.5342,1.5982v3.4858Zm-2.1758-1.6274a.6974.6974,0,0,0,.2578.5669,1.0006,1.0006,0,0,0,.6563.2119,1.2019,1.2019,0,0,0,.9121-.3789,1.3264,1.3264,0,0,0,.36-.9531v-.4942l-1.1865.1558a1.4985,1.4985,0,0,0-.7822.2793A.7915.7915,0,0,0,33.9326,37.3511Z" fill="#fff"/>
</svg>
