<svg id="Layer_1" data-name="Layer 1" xmlns="http://www.w3.org/2000/svg" xmlns:xlink="http://www.w3.org/1999/xlink" viewBox="0 0 48 48">
  <defs>
    <linearGradient id="Dark_Blue_Grad" data-name="Dark Blue Grad" x1="12.5" y1="17.676" x2="24.5" y2="17.676" gradientUnits="userSpaceOnUse">
      <stop offset="0" stop-color="#73b4c8"/>
      <stop offset="0.1747" stop-color="#6aaec3"/>
      <stop offset="0.4567" stop-color="#529eb5"/>
      <stop offset="0.8089" stop-color="#2c839f"/>
      <stop offset="1" stop-color="#147391"/>
    </linearGradient>
    <linearGradient id="New_Gradient_Swatch_1" data-name="New Gradient Swatch 1" x1="18.625" y1="21.501" x2="30.375" y2="33.251" gradientUnits="userSpaceOnUse">
      <stop offset="0" stop-color="#cde6eb"/>
      <stop offset="0.2214" stop-color="#c6e2e8"/>
      <stop offset="0.5419" stop-color="#b3d8e1"/>
      <stop offset="0.9212" stop-color="#93c7d5"/>
      <stop offset="1" stop-color="#8cc3d2"/>
    </linearGradient>
    <linearGradient id="front_-45" data-name="front -45" x1="-4.65" y1="12.876" x2="27.237" y2="44.763" gradientUnits="userSpaceOnUse">
      <stop offset="0" stop-color="#f2f2f2"/>
      <stop offset="0.5" stop-color="#ccc"/>
      <stop offset="0.6296" stop-color="#c7c7c7"/>
      <stop offset="0.7792" stop-color="#b9b9b9"/>
      <stop offset="0.9383" stop-color="#a2a2a2"/>
      <stop offset="0.99" stop-color="#999"/>
    </linearGradient>
    <linearGradient id="paper_gradient" data-name="paper gradient" x1="6.5" y1="1.726" x2="18.5" y2="13.726" gradientUnits="userSpaceOnUse">
      <stop offset="0" stop-color="#fff"/>
      <stop offset="0.2214" stop-color="#f8f8f8"/>
      <stop offset="0.5415" stop-color="#e5e5e5"/>
      <stop offset="0.92" stop-color="#c6c6c6"/>
      <stop offset="1" stop-color="#bebebe"/>
    </linearGradient>
    <linearGradient id="linear-gradient" x1="29.5" y1="8.3052" x2="41.5" y2="20.3052" xlink:href="#New_Gradient_Swatch_1"/>
    <linearGradient id="linear-gradient-2" x1="21.4821" y1="16.323" x2="37.5179" y2="32.3588" gradientUnits="userSpaceOnUse">
      <stop offset="0" stop-color="#afd7e1"/>
      <stop offset="0.1588" stop-color="#a4d0dc"/>
      <stop offset="0.7059" stop-color="#80bcce"/>
      <stop offset="1" stop-color="#73b4c8"/>
    </linearGradient>
  </defs>
  <polygon points="24.5 34.326 24.5 47.5 36.5 40.326 36.5 27.126 24.5 34.326" fill="#888"/>
  <polygon points="12.5 14.926 12.5 27.626 24.5 20.426 24.5 7.726 12.5 14.926" fill="url(#Dark_Blue_Grad)"/>
  <polygon points="36.5 27.126 24.5 34.326 12.5 27.626 24.5 20.426 36.5 27.126" fill="url(#New_Gradient_Swatch_1)"/>
  <polygon points="12.5 27.626 12.5 14.926 0.5 7.726 0.5 33.126 24.5 47.5 24.5 34.326 12.5 27.626" fill="url(#front_-45)"/>
  <line x1="12.5" y1="27.5249" x2="0.5" y2="20.426" fill="none" stroke="#6e6e6e" stroke-linejoin="round"/>
  <line x1="24.5" y1="34.326" x2="24.5" y2="47.5" fill="none" stroke="#6e6e6e" stroke-linejoin="round"/>
  <line x1="12.5" y1="40.326" x2="12.5" y2="14.926" fill="none" stroke="#6e6e6e" stroke-linejoin="round"/>
  <line x1="12.5" y1="27.326" x2="12.5" y2="14.9167" fill="none" stroke="#147391" stroke-linejoin="round"/>
  <polygon points="0.5 7.726 12.5 0.5 24.5 7.726 12.5 14.926 0.5 7.726" fill="url(#paper_gradient)"/>
  <polyline points="24.5 7.726 12.5 14.926 0.5 7.726" fill="none" stroke="#6e6e6e" stroke-miterlimit="10"/>
  <line x1="24.5" y1="7.726" x2="12.5" y2="14.926" fill="none" stroke="#147391" stroke-miterlimit="10"/>
  <polyline points="36.5 27.126 24.5 34.326 12.5 27.502 24.5 20.426" fill="none" stroke="#147391" stroke-linejoin="round"/>
  <line x1="12.5" y1="27.5021" x2="24.5" y2="20.426" fill="none" stroke="#147391" stroke-miterlimit="10"/>
  <path d="M24.5,20.426V7.726L12.5.5.5,7.726l0,25.4L24.5,47.5l12-7.174v-13.2Z" fill="none" stroke="#464646" stroke-linejoin="round"/>
    <polygon points="47.5 14.305 35.5 7.448 23.5 14.305 35.5 21.162 47.5 14.305" fill="url(#linear-gradient)"/>
    <polygon points="23.5 14.305 23.5 27.519 35.5 34.377 35.5 21.162 23.5 14.305" fill="url(#linear-gradient-2)"/>
    <polygon points="35.5 21.162 35.5 34.377 47.5 27.519 47.5 14.305 35.5 21.162" fill="#3c91af"/>
    <polyline points="23.5 14.305 35.5 21.162 47.5 14.305" fill="none" stroke="#147391"/>
    <line x1="35.5" y1="21.1623" x2="35.5" y2="34.3766" fill="#3c91af" stroke="#147391" stroke-linejoin="round"/>
    <path d="M35.5,7.448l-12,6.8572V27.52l12,6.98,12-6.98V14.3052Z" fill="none" stroke="#464646" stroke-linejoin="round"/>
</svg>
