<svg id="Layer_1" data-name="Layer 1" xmlns="http://www.w3.org/2000/svg" xmlns:xlink="http://www.w3.org/1999/xlink" width="48" height="48" viewBox="0 0 48 48">
  <defs>
    <linearGradient id="linear-gradient" x1="3.5" y1="41.5" x2="45" gradientTransform="matrix(1, 0, 0, -1, 0, 48)" gradientUnits="userSpaceOnUse">
      <stop offset="0" stop-color="#fff"/>
      <stop offset="0.232" stop-color="#fafafa"/>
      <stop offset="0.496" stop-color="#ededed"/>
      <stop offset="0.775" stop-color="#d6d6d6"/>
      <stop offset="1" stop-color="#bebebe"/>
    </linearGradient>
    <linearGradient id="paper_gradient" data-name="paper gradient" x1="29.25" y1="44.25" x2="42.25" y2="31.25" gradientTransform="matrix(1, 0, 0, -1, 0, 48)" gradientUnits="userSpaceOnUse">
      <stop offset="0" stop-color="#fff"/>
      <stop offset="0.221" stop-color="#f8f8f8"/>
      <stop offset="0.541" stop-color="#e5e5e5"/>
      <stop offset="0.92" stop-color="#c6c6c6"/>
      <stop offset="1" stop-color="#bebebe"/>
    </linearGradient>
  </defs>
  <polygon points="32.5 0.5 9.5 0.5 9.5 47.5 45.5 47.5 45.5 13.5 32.5 0.5" stroke="#464646" stroke-miterlimit="10" fill="url(#linear-gradient)"/>
  <polygon points="32.5 0.5 32.5 13.5 45.5 13.5 32.5 0.5" stroke="#464646" stroke-linejoin="round" fill="url(#paper_gradient)"/>
  <rect x="0.5" y="17.5" width="47" height="25" fill="#e5c04c" stroke="#464646" stroke-miterlimit="10"/>
  <g>
    <path d="M9.338,28.568a3.57,3.57,0,0,1-.985.338,5.865,5.865,0,0,1-1.207.124,3.934,3.934,0,0,1-1.96-.475A3.173,3.173,0,0,1,3.9,27.206,4.348,4.348,0,0,1,3.451,25.2a4.43,4.43,0,0,1,.516-2.148,3.624,3.624,0,0,1,1.442-1.469,4.128,4.128,0,0,1,2.054-.519,6.536,6.536,0,0,1,1,.081,3.46,3.46,0,0,1,.87.236v1.3A3.557,3.557,0,0,0,7.5,22.2a2.76,2.76,0,0,0-1.41.36,2.432,2.432,0,0,0-.959,1.023,3.361,3.361,0,0,0-.338,1.544,2.849,2.849,0,0,0,.7,2.025,2.434,2.434,0,0,0,1.864.746,3.6,3.6,0,0,0,1.982-.542Z" fill="#fff"/>
    <path d="M17.314,24.948a4.1,4.1,0,0,1-.513,2.073,3.471,3.471,0,0,1-1.469,1.386,4.783,4.783,0,0,1-2.2.489H10.81v-7.7h2.379a4.413,4.413,0,0,1,3.094.956A3.634,3.634,0,0,1,17.314,24.948Zm-1.354.021a2.593,2.593,0,0,0-.735-1.985,2.931,2.931,0,0,0-2.084-.69H12.088v5.5h1.031a2.825,2.825,0,0,0,2.1-.749A2.813,2.813,0,0,0,15.96,24.969Z" fill="#fff"/>
    <path d="M20.021,22.294v2.278H22.7v1.1H20.021V28.9H18.743v-7.7h4.168v1.1Z" fill="#fff"/>
  </g>
  <g>
    <path d="M9.1,32.749a2.386,2.386,0,0,1-1.4,2.218,3.5,3.5,0,0,1-1.536.322H5.252v2.772H3.974v-7.7H6.353a3.021,3.021,0,0,1,2.039.618A2.222,2.222,0,0,1,9.1,32.749Zm-1.343.043a1.236,1.236,0,0,0-.416-1,1.828,1.828,0,0,0-1.211-.352H5.252v2.771h.822a1.927,1.927,0,0,0,1.24-.359A1.278,1.278,0,0,0,7.76,32.792Z" fill="#fff"/>
    <path d="M10.258,38.061V29.918H11.5v8.143Z" fill="#fff"/>
    <path d="M16.692,38.061v-.828h-.021a1.89,1.89,0,0,1-.685.7,1.865,1.865,0,0,1-.975.258,1.847,1.847,0,0,1-1.466-.575A2.546,2.546,0,0,1,13.04,35.9V32.561H14.3V35.74q0,1.44,1.144,1.44a1.142,1.142,0,0,0,.908-.4,1.536,1.536,0,0,0,.343-1.042V32.561h1.252v5.5Z" fill="#fff"/>
    <path d="M22.9,36.487a1.5,1.5,0,0,1-.591,1.238,2.5,2.5,0,0,1-1.6.47,3.754,3.754,0,0,1-.745-.086,3.22,3.22,0,0,1-.7-.215V36.707a2.732,2.732,0,0,0,.752.381,2.373,2.373,0,0,0,.736.135q.891,0,.892-.591a.574.574,0,0,0-.089-.336.954.954,0,0,0-.306-.252,5.958,5.958,0,0,0-.674-.315,3.393,3.393,0,0,1-.8-.445,1.354,1.354,0,0,1-.387-.5,1.69,1.69,0,0,1-.126-.677,1.473,1.473,0,0,1,.586-1.208,2.35,2.35,0,0,1,1.514-.468,3.654,3.654,0,0,1,.647.067,2.9,2.9,0,0,1,.589.164V33.78A2.194,2.194,0,0,0,22,33.5a2.355,2.355,0,0,0-.682-.1.931.931,0,0,0-.585.167.515.515,0,0,0-.215.424.6.6,0,0,0,.169.454,2.86,2.86,0,0,0,.8.416,2.743,2.743,0,0,1,1.09.693A1.412,1.412,0,0,1,22.9,36.487Z" fill="#fff"/>
    <path d="M29.357,32.749a2.388,2.388,0,0,1-1.4,2.218,3.509,3.509,0,0,1-1.537.322h-.913v2.772H24.228v-7.7h2.379a3.019,3.019,0,0,1,2.039.618A2.222,2.222,0,0,1,29.357,32.749Zm-1.342.043a1.237,1.237,0,0,0-.417-1,1.826,1.826,0,0,0-1.211-.352h-.881v2.771h.822a1.932,1.932,0,0,0,1.241-.359A1.281,1.281,0,0,0,28.015,32.792Z" fill="#fff"/>
    <path d="M30.512,38.061V29.918h1.241v8.143Z" fill="#fff"/>
    <path d="M36.947,38.061v-.828h-.022a1.865,1.865,0,0,1-1.659.962A1.85,1.85,0,0,1,33.8,37.62a2.551,2.551,0,0,1-.505-1.724V32.561h1.257V35.74q0,1.44,1.144,1.44a1.142,1.142,0,0,0,.908-.4,1.537,1.537,0,0,0,.344-1.042V32.561H38.2v5.5Z" fill="#fff"/>
    <path d="M43.15,36.487a1.5,1.5,0,0,1-.59,1.238,2.505,2.505,0,0,1-1.6.47,3.753,3.753,0,0,1-.744-.086,3.2,3.2,0,0,1-.7-.215V36.707a2.74,2.74,0,0,0,.751.381,2.373,2.373,0,0,0,.736.135q.892,0,.892-.591a.581.581,0,0,0-.088-.336.97.97,0,0,0-.307-.252,5.958,5.958,0,0,0-.674-.315,3.393,3.393,0,0,1-.8-.445,1.351,1.351,0,0,1-.386-.5,1.69,1.69,0,0,1-.126-.677,1.475,1.475,0,0,1,.585-1.208,2.351,2.351,0,0,1,1.515-.468,3.664,3.664,0,0,1,.647.067,2.865,2.865,0,0,1,.588.164V33.78a2.173,2.173,0,0,0-.6-.277,2.36,2.36,0,0,0-.682-.1.934.934,0,0,0-.586.167.515.515,0,0,0-.215.424.6.6,0,0,0,.169.454,2.876,2.876,0,0,0,.8.416,2.736,2.736,0,0,1,1.09.693A1.412,1.412,0,0,1,43.15,36.487Z" fill="#fff"/>
  </g>
</svg>
