<svg id="Layer_1" data-name="Layer 1" xmlns="http://www.w3.org/2000/svg" xmlns:xlink="http://www.w3.org/1999/xlink" viewBox="0 0 48 48">
    <linearGradient id="Dark_Blue_Grad_3" data-name="Dark Blue Grad 3" x1="11.5959" y1="28.2899" x2="22.1677" y2="46.6008" gradientUnits="userSpaceOnUse">
      <stop offset="0" stop-color="#73b3c6"/>
      <stop offset="0.1774" stop-color="#6aadc1"/>
      <stop offset="0.4638" stop-color="#529db3"/>
      <stop offset="0.8215" stop-color="#2c839c"/>
      <stop offset="1" stop-color="#16748f"/>
    </linearGradient>
    <linearGradient id="paper_gradient" data-name="paper gradient" x1="31.5" y1="0.5" x2="31.5" y2="42.5" gradientUnits="userSpaceOnUse">
      <stop offset="0" stop-color="#fff"/>
      <stop offset="0.2214" stop-color="#f8f8f8"/>
      <stop offset="0.5415" stop-color="#e5e5e5"/>
      <stop offset="0.92" stop-color="#c6c6c6"/>
      <stop offset="1" stop-color="#bebebe"/>
    </linearGradient>
    <linearGradient id="Dark_Blue_Grad_4" data-name="Dark Blue Grad 4" x1="11" y1="12.5" x2="11" y2="29.5" gradientUnits="userSpaceOnUse">
      <stop offset="0" stop-color="#75b2c5"/>
      <stop offset="0.1774" stop-color="#6cacc0"/>
      <stop offset="0.4638" stop-color="#549cb2"/>
      <stop offset="0.8215" stop-color="#2e839b"/>
      <stop offset="1" stop-color="#18748e"/>
    </linearGradient>
    <linearGradient id="Dark_Blue_Grad_4-2" x1="39.894" y1="16.4252" x2="45.8089" y2="26.6702" xlink:href="#Dark_Blue_Grad_4"/>
  <path d="M19.5418,47.5H17.1873a3.9536,3.9536,0,0,1-3.8036-2.8583L9.5,29.5H20.0827l3.2627,12.9764A3.9439,3.9439,0,0,1,19.5418,47.5Z" stroke="#464646" stroke-miterlimit="10" stroke-width="1.0735" fill="url(#Dark_Blue_Grad_3)"/>
  <path d="M41.5,41.4165V1.5835A1.0548,1.0548,0,0,0,39.5808.9544,33.2145,33.2145,0,0,1,21.5,13.8581V29.1419A33.2145,33.2145,0,0,1,39.5808,42.0456,1.0548,1.0548,0,0,0,41.5,41.4165Z" stroke="#464646" stroke-miterlimit="10" stroke-width="0.9901" fill="url(#paper_gradient)"/>
  <path d="M20.3014,29.5H9.4891A8.7806,8.7806,0,0,1,.5,21h0a8.7806,8.7806,0,0,1,8.9891-8.5H20.3014A1.1673,1.1673,0,0,1,21.5,13.6333V28.3667A1.1673,1.1673,0,0,1,20.3014,29.5Z" stroke="#464646" stroke-miterlimit="10" stroke-width="0.9712" fill="url(#Dark_Blue_Grad_4)"/>
  <path d="M41.5,15.4979v13a6.6636,6.6636,0,0,0,6-6.5A6.6638,6.6638,0,0,0,41.5,15.4979Z" stroke="#464646" stroke-miterlimit="10" stroke-width="0.9778" fill="url(#Dark_Blue_Grad_4-2)"/>
  <line x1="7.5" y1="16.5" x2="17.5" y2="16.5" fill="none" stroke="#464646" stroke-linecap="round" stroke-miterlimit="10"/>
  <line x1="7.5" y1="19.5" x2="17.5" y2="19.5" fill="none" stroke="#464646" stroke-linecap="round" stroke-miterlimit="10"/>
  <line x1="7.5" y1="22.5" x2="17.5" y2="22.5" fill="none" stroke="#464646" stroke-linecap="round" stroke-miterlimit="10"/>
  <line x1="7.5" y1="25.5" x2="17.5" y2="25.5" fill="none" stroke="#464646" stroke-linecap="round" stroke-miterlimit="10"/>
</svg>
