<svg id="Layer_1" data-name="Layer 1" xmlns="http://www.w3.org/2000/svg" xmlns:xlink="http://www.w3.org/1999/xlink" viewBox="0 0 48 48">
    <linearGradient id="linear-gradient" x1="5.4848" y1="5.4848" x2="29.5152" y2="29.5152" gradientUnits="userSpaceOnUse">
      <stop offset="0" stop-color="#a5cfdc"/>
      <stop offset="0.1282" stop-color="#9cc9d7"/>
      <stop offset="0.3355" stop-color="#84bacb"/>
      <stop offset="0.5956" stop-color="#5ea2b7"/>
      <stop offset="0.896" stop-color="#28809b"/>
      <stop offset="1" stop-color="#147391"/>
    </linearGradient>
    <linearGradient id="paper_gradient" data-name="paper gradient" x1="5.4848" y1="5.4848" x2="29.5152" y2="29.5152" gradientUnits="userSpaceOnUse">
      <stop offset="0" stop-color="#fff"/>
      <stop offset="0.2214" stop-color="#f8f8f8"/>
      <stop offset="0.5415" stop-color="#e5e5e5"/>
      <stop offset="0.92" stop-color="#c6c6c6"/>
      <stop offset="1" stop-color="#bebebe"/>
    </linearGradient>
    <linearGradient id="linear-gradient-2" x1="11.25" y1="20.75" x2="25.75" y2="35.25" xlink:href="#linear-gradient"/>
    <linearGradient id="paper_gradient-2" x1="21.6893" y1="30.068" x2="43.3107" y2="51.6893" xlink:href="#paper_gradient"/>
    <linearGradient id="paper_gradient-3" x1="23.5" y1="30.5" x2="25.5" y2="32.5" xlink:href="#paper_gradient"/>
    <linearGradient id="paper_gradient-4" x1="24.75" y1="28.25" x2="28.25" y2="31.75" xlink:href="#paper_gradient"/>
    <linearGradient id="paper_gradient-5" x1="39.5" y1="30.5" x2="41.5" y2="32.5" xlink:href="#paper_gradient"/>
    <linearGradient id="paper_gradient-6" x1="36.75" y1="28.25" x2="40.25" y2="31.75" xlink:href="#paper_gradient"/>
    <circle cx="17.5" cy="17.5" r="17" fill="url(#linear-gradient)"/>
    <polyline points="5.336 19.026 6.903 19.549 7.751 21.377" fill="none" stroke="#147391" stroke-linejoin="round"/>
    <circle cx="17.5" cy="17.5" r="17" stroke="#464646" stroke-miterlimit="10" fill="url(#paper_gradient)"/>
    <path d="M10.9505,21.0271l2.35,2.22s.8487.2612,2.285.8487.5223,2.0239.5223,2.0239l-.8488,2.1544-2.6114.6529-.914,1.5668H10.4282l-.3264-2.9378L8.2085,26.707,6.7722,23.6385l1.3057-2.285ZM26.33,3.001,24.8563,4.9015,25.77,7.513l-1.6974.2611-.3264,1.6973L22.18,9.8633v2.1544h2.4808l1.24-1.5668h1.6974l.3917,2.22h1.6322l1.5015,1.11-1.5015,1.6973H26.88L25.3134,13.911H22.18s-1.828,1.5015-1.828,2.8073.7834,3.1336,5.4839,2.8725v5.484l.3917,1.11a1.59,1.59,0,0,0,1.828.4569,23.5834,23.5834,0,0,0,2.0892-1.3057l1.6322-4.7006,2.6249-1.3314A16.9183,16.9183,0,0,0,26.33,3.001ZM.7225,14.8853l.0434.005,1.9586,1.4362.5223,1.8281,1.371.9793.7181.13V15.4777H7.7515l1.8933-3.6558,4.5047-1.371L13.17,8.1,8.9267,6.599l1.3709-1.0445,2.2851-.7184,3.0795.718s.9842.3869.9189-.9189-.3425-1.5616-.3425-1.5616L18.0013.5927l-.025-.0685C17.8166.52,17.6607.5,17.5.5A17.0114,17.0114,0,0,0,.7225,14.8853Z" fill="#a0a0a0" stroke="#6e6e6e" stroke-miterlimit="10"/>
    <circle cx="17.5" cy="17.5" r="17" fill="none" stroke="#464646" stroke-miterlimit="10"/>
  <polygon points="22.5 22.5 27.5 22.5 18.5 13.5 9.5 22.5 14.5 22.5 14.5 38.5 22.5 38.5 22.5 22.5" stroke="#464646" stroke-linejoin="round" fill="url(#linear-gradient-2)"/>
    <path d="M20.5,32.5h24a3,3,0,0,1,3,3v12a0,0,0,0,1,0,0h-30a0,0,0,0,1,0,0v-12A3,3,0,0,1,20.5,32.5Z" stroke="#464646" stroke-miterlimit="10" fill="url(#paper_gradient-2)"/>
    <line x1="18" y1="37.5" x2="47" y2="37.5" fill="none" stroke="#6e6e6e" stroke-miterlimit="10"/>
    <rect x="22.5" y="35.5" width="3" height="5" fill="#a0a0a0" stroke="#6e6e6e" stroke-miterlimit="10"/>
    <rect x="23.5" y="30.5" width="2" height="2" stroke="#464646" stroke-linejoin="round" fill="url(#paper_gradient-3)"/>
    <rect x="25.5" y="27.5" width="2" height="5" stroke="#464646" stroke-linejoin="round" fill="url(#paper_gradient-4)"/>
    <rect x="27.5" y="27.5" width="10" height="2" fill="#a0a0a0" stroke="#464646" stroke-miterlimit="10"/>
    <rect x="39.5" y="30.5" width="2" height="2" stroke="#464646" stroke-linejoin="round" fill="url(#paper_gradient-5)"/>
    <rect x="39.5" y="35.5" width="3" height="5" fill="#a0a0a0" stroke="#6e6e6e" stroke-miterlimit="10"/>
    <rect x="37.5" y="27.5" width="2" height="5" stroke="#464646" stroke-linejoin="round" fill="url(#paper_gradient-6)"/>
</svg>
