<svg id="Layer_1" data-name="Layer 1" xmlns="http://www.w3.org/2000/svg" xmlns:xlink="http://www.w3.org/1999/xlink" viewBox="0 0 48 48">
  <defs>
    <linearGradient id="_3_Generic_-_Top_Blend_2" data-name="3 Generic - Top Blend 2" x1="1.6716" y1="34.3284" x2="34.3284" y2="1.6716" gradientTransform="matrix(1, 0, 0, -1, 0, 36)" gradientUnits="userSpaceOnUse">
      <stop offset="0" stop-color="#f1f1f1"/>
      <stop offset="1" stop-color="#cdcdcd"/>
    </linearGradient>
    <linearGradient id="Dark_Blue_Grad" data-name="Dark Blue Grad" x1="27.0148" y1="27.0147" x2="43.9853" y2="43.9853" gradientUnits="userSpaceOnUse">
      <stop offset="0" stop-color="#73b4c8"/>
      <stop offset="0.1747" stop-color="#6aaec3"/>
      <stop offset="0.4567" stop-color="#529eb5"/>
      <stop offset="0.8089" stop-color="#2c839f"/>
      <stop offset="1" stop-color="#147391"/>
    </linearGradient>
  </defs>
  <rect x="0.5" y="0.5" width="35" height="35" rx="4" stroke="#464646" stroke-miterlimit="10" fill="url(#_3_Generic_-_Top_Blend_2)"/>
  <polygon points="18.5 10.5 18.5 14.5 22.672 14.5 18 19.171 12 13.171 5.336 19.836 8.164 22.664 12 18.829 18 24.829 25.5 17.329 25.5 21.5 29.5 21.5 29.5 10.5 18.5 10.5" fill="#3c91af" stroke="#147391" stroke-miterlimit="10"/>
  <line x1="36" y1="34" x2="36" y2="26" fill="none" stroke="#147391" stroke-miterlimit="10" stroke-width="0.9048"/>
  <circle cx="35.5" cy="35.5" r="12" stroke="#464646" stroke-linecap="round" stroke-linejoin="round" fill="url(#Dark_Blue_Grad)"/>
    <path d="M31.9008,39.7418a6.3567,6.3567,0,0,0,3.68,1.5264A3.0609,3.0609,0,0,0,38.82,38.4259c-.0029-1.5667-1.5551-2.3388-3.2495-2.83-1.756-.5468-3.2467-1.2641-3.2494-2.8306A3.0607,3.0607,0,0,1,35.56,29.9224a3.348,3.348,0,0,1,2.8209,1.425" fill="none" stroke="#147391" stroke-linecap="round" stroke-linejoin="round" stroke-width="4"/>
    <line x1="35.5" y1="26" x2="35.5" y2="30" fill="none" stroke="#147391" stroke-linejoin="round" stroke-width="3"/>
    <line x1="35.5" y1="41" x2="35.5" y2="45" fill="none" stroke="#147391" stroke-linejoin="round" stroke-width="3"/>
    <path d="M31.9008,39.7418a6.3567,6.3567,0,0,0,3.68,1.5264A3.0609,3.0609,0,0,0,38.82,38.4259c-.0029-1.5667-1.5551-2.3388-3.2495-2.83-1.756-.5468-3.2467-1.2641-3.2494-2.8306A3.0607,3.0607,0,0,1,35.56,29.9224a3.348,3.348,0,0,1,2.8209,1.425" fill="none" stroke="#fff" stroke-linecap="round" stroke-linejoin="round" stroke-width="2"/>
    <line x1="35.5" y1="27" x2="35.5" y2="30" fill="none" stroke="#fff" stroke-linejoin="round" stroke-width="1"/>
    <line x1="35.5" y1="41" x2="35.5" y2="44" fill="none" stroke="#fff" stroke-linejoin="round"/>
</svg>
