<svg id="Layer_1" data-name="Layer 1" xmlns="http://www.w3.org/2000/svg" xmlns:xlink="http://www.w3.org/1999/xlink" viewBox="0 0 48 48">
    <linearGradient id="Dark_Blue_Grad" data-name="Dark Blue Grad" x1="5.333" y1="5.333" x2="28.667" y2="28.667" gradientUnits="userSpaceOnUse">
      <stop offset="0" stop-color="#73b4c8"/>
      <stop offset="0.175" stop-color="#6aaec3"/>
      <stop offset="0.457" stop-color="#529eb5"/>
      <stop offset="0.809" stop-color="#2c839f"/>
      <stop offset="1" stop-color="#147391"/>
    </linearGradient>
    <linearGradient id="paper_gradient" data-name="paper gradient" x1="25.796" y1="29.7" x2="45.195" y2="49.099" gradientUnits="userSpaceOnUse">
      <stop offset="0" stop-color="#fff"/>
      <stop offset="0.221" stop-color="#f8f8f8"/>
      <stop offset="0.541" stop-color="#e5e5e5"/>
      <stop offset="0.92" stop-color="#c6c6c6"/>
      <stop offset="1" stop-color="#bebebe"/>
    </linearGradient>
    <linearGradient id="Dark_Blue_Grad-2" x1="27.913" y1="22.255" x2="43.078" y2="37.419" xlink:href="#Dark_Blue_Grad"/>
    <linearGradient id="Dark_Blue_Grad-3" x1="29.745" y1="26.751" x2="41.245" y2="38.251" xlink:href="#Dark_Blue_Grad"/>
  <circle cx="17" cy="17" r="16.5" stroke="#464646" stroke-linecap="round" stroke-linejoin="round" fill="url(#Dark_Blue_Grad)"/>
    <path d="M12.178,21.982A8.409,8.409,0,0,0,17.044,24a4.047,4.047,0,0,0,4.282-3.758c0-2.071-2.056-3.092-4.3-3.742-2.322-.723-4.293-1.671-4.3-3.742A4.046,4.046,0,0,1,17.016,9a4.427,4.427,0,0,1,3.729,1.884" fill="none" stroke="#147391" stroke-linecap="round" stroke-linejoin="round" stroke-width="5"/>
    <line x1="17" y1="4" x2="17" y2="9" fill="none" stroke="#147391" stroke-linejoin="round" stroke-width="4"/>
    <line x1="17" y1="24" x2="17" y2="29" fill="none" stroke="#147391" stroke-linejoin="round" stroke-width="4"/>
    <path d="M12.178,21.982A8.409,8.409,0,0,0,17.044,24a4.047,4.047,0,0,0,4.282-3.758c0-2.071-2.056-3.092-4.3-3.742-2.322-.723-4.293-1.671-4.3-3.742A4.046,4.046,0,0,1,17.016,9a4.427,4.427,0,0,1,3.729,1.884" fill="none" stroke="#fff" stroke-linecap="round" stroke-linejoin="round" stroke-width="3"/>
    <line x1="17" y1="5" x2="17" y2="9" fill="none" stroke="#fff" stroke-linejoin="round" stroke-width="2"/>
    <line x1="17" y1="24" x2="17" y2="28" fill="none" stroke="#fff" stroke-linejoin="round" stroke-width="2"/>
      <path d="M23.5,32V46.3a1.2,1.2,0,0,0,1.2,1.2H46.3a1.2,1.2,0,0,0,1.2-1.2V32" fill="url(#paper_gradient)"/>
      <line x1="31.495" y1="33.001" x2="31.495" y2="47.001" fill="none" stroke="#6e6e6e"/>
      <line x1="39.495" y1="33.001" x2="39.495" y2="47.001" fill="none" stroke="#6e6e6e"/>
      <line x1="23.995" y1="42.501" x2="46.995" y2="42.501" fill="none" stroke="#6e6e6e"/>
      <line x1="23.995" y1="37.501" x2="46.995" y2="37.501" fill="none" stroke="#6e6e6e"/>
    <path d="M47.5,33V27.5a2,2,0,0,0-2-2h-20a2,2,0,0,0-2,2V33" fill="url(#Dark_Blue_Grad-2)"/>
    <path d="M30.5,29A1.5,1.5,0,1,1,29,27.5,1.5,1.5,0,0,1,30.5,29Z" fill="#fff" stroke="#147391" stroke-linecap="round" stroke-linejoin="round"/>
    <path d="M43.5,29A1.5,1.5,0,1,1,42,27.5,1.5,1.5,0,0,1,43.5,29Z" fill="#fff" stroke="#147391" stroke-linecap="round" stroke-linejoin="round"/>
    <line x1="23.995" y1="32.501" x2="46.995" y2="32.501" stroke="#147391" stroke-miterlimit="10" fill="url(#Dark_Blue_Grad-3)"/>
  <path d="M23.5,46.3a1.2,1.2,0,0,0,1.2,1.2H46.3a1.2,1.2,0,0,0,1.2-1.2V27.5a2,2,0,0,0-2-2h-20a2,2,0,0,0-2,2Z" fill="none" stroke="#464646" stroke-miterlimit="10"/>
</svg>
