<svg version="1.1" id="Layer_1" xmlns="http://www.w3.org/2000/svg" xmlns:xlink="http://www.w3.org/1999/xlink" x="0px" y="0px"
	 viewBox="0 0 48 48" enable-background="new 0 0 48 48" xml:space="preserve">
<polygon fill="#888888" points="23.499,32.4 23.499,44.5 34.499,37.9 34.499,25.8 "/>
<polygon fill="#888888" points="12.499,13.7 12.499,25.8 23.499,19.2 23.499,7.1 "/>
<linearGradient id="SVGID_1_" gradientUnits="userSpaceOnUse" x1="17.9993" y1="20.3" x2="28.9993" y2="31.3">
	<stop  offset="0" style="stop-color:#FFFFFF"/>
	<stop  offset="0.2214" style="stop-color:#F8F8F8"/>
	<stop  offset="0.5415" style="stop-color:#E5E5E5"/>
	<stop  offset="0.92" style="stop-color:#C6C6C6"/>
	<stop  offset="1" style="stop-color:#BEBEBE"/>
</linearGradient>
<polygon fill="url(#SVGID_1_)" points="34.499,25.8 23.499,32.4 12.499,25.8 23.499,19.2 "/>
<linearGradient id="SVGID_2_" gradientUnits="userSpaceOnUse" x1="-3.4507" y1="12.05" x2="26.2493" y2="41.75">
	<stop  offset="0" style="stop-color:#F2F2F2"/>
	<stop  offset="0.5" style="stop-color:#CCCCCC"/>
	<stop  offset="0.6296" style="stop-color:#C7C7C7"/>
	<stop  offset="0.7792" style="stop-color:#B9B9B9"/>
	<stop  offset="0.9383" style="stop-color:#A2A2A2"/>
	<stop  offset="0.99" style="stop-color:#999999"/>
</linearGradient>
<polygon fill="url(#SVGID_2_)" points="12.499,25.8 12.499,13.7 1.499,7.1 1.499,31.3 23.499,44.5 23.499,32.4 "/>
	<line fill="none" stroke="#6E6E6E" stroke-linejoin="round" stroke-miterlimit="10" x1="12.499" y1="25.8" x2="1.499" y2="19.2"/>
	<line fill="none" stroke="#6E6E6E" stroke-linejoin="round" stroke-miterlimit="10" x1="23.499" y1="32.4" x2="23.499" y2="44.5"/>
<line fill="none" stroke="#6E6E6E" stroke-linejoin="round" stroke-miterlimit="10" x1="12.499" y1="37.9" x2="12.499" y2="13.7"/>
<linearGradient id="SVGID_3_" gradientUnits="userSpaceOnUse" x1="6.9993" y1="1.6" x2="17.9993" y2="12.6">
	<stop  offset="0" style="stop-color:#FFFFFF"/>
	<stop  offset="0.2214" style="stop-color:#F8F8F8"/>
	<stop  offset="0.5415" style="stop-color:#E5E5E5"/>
	<stop  offset="0.92" style="stop-color:#C6C6C6"/>
	<stop  offset="1" style="stop-color:#BEBEBE"/>
</linearGradient>
<polygon fill="url(#SVGID_3_)" points="1.499,7.1 12.499,0.5 23.499,7.1 12.499,13.7 "/>
<polyline fill="none" stroke="#6E6E6E" stroke-miterlimit="10" points="23.499,7.1 12.499,13.7 1.499,7.1 "/>
<polyline fill="none" stroke="#6E6E6E" stroke-miterlimit="10" points="34.499,25.8 23.499,32.4 12.499,25.8 23.499,19.2 "/>
<path fill="none" stroke="#464646" stroke-linejoin="round" stroke-miterlimit="10" d="M23.499,19.2V7.1l-11-6.6l-11,6.6l0,24.2
	l22,13.2l11-6.6V25.8L23.499,19.2z"/>
<linearGradient id="SVGID_4_" gradientUnits="userSpaceOnUse" x1="26.1605" y1="26.1612" x2="43.8381" y2="43.8388">
	<stop  offset="0" style="stop-color:#F2F2F2"/>
	<stop  offset="0.5" style="stop-color:#CCCCCC"/>
	<stop  offset="0.6296" style="stop-color:#C7C7C7"/>
	<stop  offset="0.7792" style="stop-color:#B9B9B9"/>
	<stop  offset="0.9383" style="stop-color:#A2A2A2"/>
	<stop  offset="0.99" style="stop-color:#999999"/>
</linearGradient>
<circle fill="url(#SVGID_4_)" stroke="#464646" stroke-linecap="round" stroke-linejoin="round" stroke-miterlimit="10" cx="34.999" cy="35" r="12.5"/>
	<polygon fill="#FFFFFF" points="26.445,36.485 28.755,34.571 32.486,39.053 41.688,27.677 44.022,29.561 32.518,43.788 	"/>
		<path fill="#6E6E6E" d="M41.762,28.38l1.557,1.256L32.512,43l-5.362-6.449l1.54-1.276l3.802,4.566L41.762,28.38 M41.613,26.974
			l-0.628,0.777L32.48,38.264l-3.022-3.63l-0.638-0.767l-0.768,0.637l-1.54,1.276l-0.771,0.639l0.64,0.77l5.362,6.449l0.78,0.938
			l0.767-0.948l10.807-13.365l0.629-0.778l-0.779-0.629l-1.557-1.256L41.613,26.974L41.613,26.974z"/>
</svg>
