<svg id="Layer_1" data-name="Layer 1" xmlns="http://www.w3.org/2000/svg" xmlns:xlink="http://www.w3.org/1999/xlink" viewBox="0 0 48 48">
  <defs>
    <linearGradient id="linear-gradient" x1="-4.218" y1="8.607" x2="25.151" y2="37.977" gradientUnits="userSpaceOnUse">
      <stop offset="0.528" stop-color="#fff"/>
      <stop offset="1" stop-color="#bebebe"/>
    </linearGradient>
    <linearGradient id="linear-gradient-2" x1="10.156" y1="10.549" x2="31.767" y2="32.16" gradientUnits="userSpaceOnUse">
      <stop offset="0" stop-color="#f2f2f2"/>
      <stop offset="1" stop-color="#999"/>
    </linearGradient>
    <linearGradient id="linear-gradient-3" x1="-314.016" y1="320.124" x2="-314.016" y2="340.477" gradientTransform="translate(9.043 -441.552) rotate(-45)" gradientUnits="userSpaceOnUse">
      <stop offset="0" stop-color="#dcdcdc"/>
      <stop offset="1" stop-color="#fff"/>
    </linearGradient>
    <linearGradient id="linear-gradient-4" x1="12.42" y1="11.107" x2="12.42" y2="11.107" gradientUnits="userSpaceOnUse">
      <stop offset="0" stop-color="#fff"/>
      <stop offset="0.232" stop-color="#fafafa"/>
      <stop offset="0.496" stop-color="#ededed"/>
      <stop offset="0.775" stop-color="#d6d6d6"/>
      <stop offset="1" stop-color="#bebebe"/>
    </linearGradient>
    <linearGradient id="linear-gradient-5" x1="28.534" y1="26.152" x2="38.892" y2="36.511" xlink:href="#linear-gradient-4"/>
  </defs>
  <path d="M20.476,19.673l-19.1-5.5a.141.141,0,0,0-.164.205c1.81,3.105,19.381,32.687,19.381,32.687L20.58,19.81A.143.143,0,0,0,20.476,19.673Z" fill="url(#linear-gradient)"/>
  <path d="M20.7,19.7l19.1-5.5a.142.142,0,0,1,.165.206c-1.811,3.1-19.382,32.686-19.382,32.686l.01-27.257A.142.142,0,0,1,20.7,19.7Z" fill="url(#linear-gradient-2)"/>
  <polyline points="20.589 19.626 1.372 14.176 20.745 8.92 39.991 14.17 20.589 19.626" fill="url(#linear-gradient-3)"/>
  <polyline points="20.503 47.452 20.398 19.904 0.983 14.42" fill="none" stroke="#6e6e6e" stroke-linejoin="round"/>
  <line x1="20.398" y1="19.904" x2="39.971" y2="14.403" fill="none" stroke="#6e6e6e" stroke-linejoin="round"/>
  <polyline points="7.288 24.846 20.581 28.988 33.925 24.882" fill="none" stroke="#6e6e6e" stroke-linejoin="round"/>
  <polyline points="13.87 35.939 20.581 38.029 27.495 35.902" fill="none" stroke="#6e6e6e" stroke-linejoin="round"/>
  <path d="M40.367,14.3,20.686,8.93l-.033-.01L.812,14.3,20.5,47.452Z" fill="none" stroke="#464646" stroke-linejoin="round"/>
  <line x1="12.42" y1="14.67" x2="12.42" y2="7.545" stroke="#464646" stroke-linejoin="round" fill="url(#linear-gradient-4)"/>
  <polygon points="8.42 0.545 8.42 4.545 12.42 8.545 16.42 4.545 16.42 0.545 8.42 0.545" fill="#fff" stroke="#464646" stroke-linejoin="round"/>
  <polygon points="46.858 28.545 36.929 28.545 45.566 20.545 36.442 20.545 22.15 32.536 32.056 32.536 27.198 47.455 46.858 28.545" stroke="#464646" stroke-linejoin="round" fill="url(#linear-gradient-5)"/>
</svg>
