<svg id="Layer_1" data-name="Layer 1" xmlns="http://www.w3.org/2000/svg" xmlns:xlink="http://www.w3.org/1999/xlink" viewBox="0 0 48 48">
  <defs>
    <linearGradient id="linear-gradient" x1="3" y1="404.7244" x2="38" y2="369.7244" gradientTransform="matrix(1, 0, 0, -1, 0, 408.7244)" gradientUnits="userSpaceOnUse">
      <stop offset="0" stop-color="#fff"/>
      <stop offset="0.2323" stop-color="#fafafa"/>
      <stop offset="0.4964" stop-color="#ededed"/>
      <stop offset="0.775" stop-color="#d6d6d6"/>
      <stop offset="1" stop-color="#bebebe"/>
    </linearGradient>
    <linearGradient id="linear-gradient-2" x1="9" y1="416.7244" x2="32" y2="393.7244" gradientTransform="matrix(1, 0, 0, -1, 0, 408.7244)" gradientUnits="userSpaceOnUse">
      <stop offset="0" stop-color="#73b4c8"/>
      <stop offset="0.1747" stop-color="#6aaec3"/>
      <stop offset="0.4567" stop-color="#529eb5"/>
      <stop offset="0.8089" stop-color="#2c839f"/>
      <stop offset="1" stop-color="#147391"/>
    </linearGradient>
    <linearGradient id="Dark_Blue_Grad" data-name="Dark Blue Grad" x1="22.747" y1="22.747" x2="43.253" y2="43.253" gradientTransform="matrix(1, 0, 0, 1, 0, 0)" xlink:href="#linear-gradient-2"/>
  </defs>
  <rect x="0.5" y="6.5" width="40" height="30" fill="url(#linear-gradient)"/>
  <rect x="0.5" y="0.5" width="40" height="6" fill="url(#linear-gradient-2)"/>
  <line x1="8.5" y1="6.5" x2="8.5" y2="36.5" fill="none" stroke="#6e6e6e" stroke-miterlimit="10"/>
  <line x1="8.5" y1="0.5" x2="8.5" y2="6.5" fill="none" stroke="#147391" stroke-miterlimit="10"/>
  <line x1="16.5" y1="0.5" x2="16.5" y2="6.5" fill="none" stroke="#147391" stroke-miterlimit="10"/>
  <line x1="24.5" y1="0.5" x2="24.5" y2="6.5" fill="none" stroke="#147391" stroke-miterlimit="10"/>
  <line x1="32.5" y1="0.5" x2="32.5" y2="6.5" fill="none" stroke="#147391" stroke-miterlimit="10"/>
  <line x1="16.5" y1="6.5" x2="16.5" y2="36.5" fill="none" stroke="#6e6e6e" stroke-miterlimit="10"/>
  <line x1="24.5" y1="6.5" x2="24.5" y2="21.2551" fill="none" stroke="#6e6e6e" stroke-miterlimit="10"/>
  <line x1="32.5" y1="6.5" x2="32.5" y2="23.5" fill="none" stroke="#6e6e6e" stroke-miterlimit="10"/>
  <line x1="40.5" y1="12.5" x2="0.5" y2="12.5" fill="none" stroke="#6e6e6e" stroke-miterlimit="10"/>
  <line x1="40.5" y1="18.5" x2="0.5" y2="18.5" fill="none" stroke="#6e6e6e" stroke-miterlimit="10"/>
  <line x1="21.2548" y1="24.5" x2="0.5" y2="24.5" fill="none" stroke="#6e6e6e" stroke-miterlimit="10"/>
  <line x1="18.7183" y1="30.5" x2="0.5" y2="30.5" fill="none" stroke="#6e6e6e" stroke-miterlimit="10"/>
  <polyline points="23.5 36.5 0.5 36.5 0.5 0.5 40.5 0.5 40.5 23.5" fill="none" stroke="#464646" stroke-miterlimit="10"/>
  <line x1="40.5" y1="6.5" x2="0.5" y2="6.5" fill="none" stroke="#464646" stroke-linejoin="round"/>
  <circle cx="33" cy="33" r="14.5" stroke="#464646" stroke-linecap="round" stroke-linejoin="round" fill="url(#Dark_Blue_Grad)"/>
  <g>
    <path d="M28.7628,37.3781a7.3856,7.3856,0,0,0,4.2755,1.7734,3.5561,3.5561,0,0,0,3.7631-3.3022c-.0033-1.82-1.8068-2.7173-3.7753-3.2885-2.04-.6353-3.7721-1.4686-3.7753-3.2886A3.5562,3.5562,0,0,1,33.0137,25.97a3.89,3.89,0,0,1,3.2774,1.6556" fill="none" stroke="#147391" stroke-linecap="round" stroke-linejoin="round" stroke-width="5"/>
    <line x1="33" y1="21" x2="33" y2="26" fill="none" stroke="#147391" stroke-linejoin="round" stroke-width="4"/>
    <line x1="33" y1="39" x2="33" y2="44" fill="none" stroke="#147391" stroke-linejoin="round" stroke-width="4"/>
  </g>
  <g>
    <path d="M28.7628,37.3781a7.3856,7.3856,0,0,0,4.2755,1.7734,3.5561,3.5561,0,0,0,3.7631-3.3022c-.0033-1.82-1.8068-2.7173-3.7753-3.2885-2.04-.6353-3.7721-1.4686-3.7753-3.2886A3.5562,3.5562,0,0,1,33.0137,25.97a3.89,3.89,0,0,1,3.2774,1.6556" fill="none" stroke="#fff" stroke-linecap="round" stroke-linejoin="round" stroke-width="3"/>
    <line x1="33" y1="22" x2="33" y2="26" fill="none" stroke="#fff" stroke-linejoin="round" stroke-width="2"/>
    <line x1="33" y1="39" x2="33" y2="43" fill="none" stroke="#fff" stroke-linejoin="round" stroke-width="2"/>
  </g>
</svg>
