<svg version="1.1" id="Layer_1" xmlns="http://www.w3.org/2000/svg" xmlns:xlink="http://www.w3.org/1999/xlink" x="0px" y="0px"
	 viewBox="0 0 48 48" style="enable-background:new 0 0 48 48;" xml:space="preserve">
<style type="text/css">
	.st0{fill:url(#SVGID_1_);stroke:#464646;stroke-miterlimit:10;}
	.st1{fill:url(#SVGID_2_);stroke:#464646;stroke-miterlimit:10;}
	.st2{fill:#464646;}
	.st3{fill:none;stroke:#FFFFFF;stroke-miterlimit:10;}
	.st4{fill:url(#SVGID_3_);}
	.st5{fill:url(#SVGID_4_);}
	.st6{fill:none;stroke:#464646;stroke-miterlimit:10;}
</style>
<linearGradient id="SVGID_1_" gradientUnits="userSpaceOnUse" x1="3.5" y1="-1595.3" x2="45" y2="-1636.8" gradientTransform="matrix(1 0 0 -1 0 -1588.8)">
	<stop  offset="0" style="stop-color:#FFFFFF"/>
	<stop  offset="0.232" style="stop-color:#FAFAFA"/>
	<stop  offset="0.496" style="stop-color:#EDEDED"/>
	<stop  offset="0.775" style="stop-color:#D6D6D6"/>
	<stop  offset="1" style="stop-color:#BEBEBE"/>
</linearGradient>
<polygon class="st0" points="32.5,0.5 9.5,0.5 9.5,47.5 45.5,47.5 45.5,13.5 "/>
<linearGradient id="SVGID_2_" gradientUnits="userSpaceOnUse" x1="3.75" y1="-24.5499" x2="26.25" y2="-2.0499" gradientTransform="matrix(1 0 0 1 0 24.7999)">
	<stop  offset="0" style="stop-color:#73B4C8"/>
	<stop  offset="0.175" style="stop-color:#6AAEC3"/>
	<stop  offset="0.457" style="stop-color:#529EB5"/>
	<stop  offset="0.809" style="stop-color:#2C839F"/>
	<stop  offset="1" style="stop-color:#147391"/>
</linearGradient>
<rect x="0.5" y="3.5" class="st1" width="29" height="16"/>
<polygon class="st2" points="22,40.2 14.1,35.5 22,30.8 22,28.5 12,34.4 12,36.6 22,42.6 "/>
<polygon class="st2" points="33,30.8 40.9,35.5 33,40.2 33,42.6 43,36.6 43,34.5 33,28.5 "/>
<polygon class="st2" points="25.1,45 32.2,26 30.1,26 22.9,45 "/>
<line class="st3" x1="3.5" y1="8" x2="3.5" y2="15"/>
<line class="st3" x1="7.5" y1="8" x2="7.5" y2="15"/>
<line class="st3" x1="11.5" y1="8.5" x2="11.5" y2="15"/>
<line class="st3" x1="7.5" y1="11.5" x2="3.5" y2="11.5"/>
<line class="st3" x1="14" y1="8.5" x2="9" y2="8.5"/>
<polyline class="st3" points="23.5,8 23.5,14.5 27,14.5 "/>
<polyline class="st3" points="21.5,15 21.5,8.5 21,8.5 18.5,12.5 16,8.5 15.5,8.5 15.5,15 "/>
<linearGradient id="SVGID_3_" gradientUnits="userSpaceOnUse" x1="29.25" y1="44.25" x2="42.25" y2="31.25" gradientTransform="matrix(1 0 0 -1 0 48)">
	<stop  offset="0" style="stop-color:#FFFFFF"/>
	<stop  offset="0.221" style="stop-color:#F8F8F8"/>
	<stop  offset="0.541" style="stop-color:#E5E5E5"/>
	<stop  offset="0.92" style="stop-color:#C6C6C6"/>
	<stop  offset="1" style="stop-color:#BEBEBE"/>
</linearGradient>
<polygon class="st4" points="32.5,13.5 45.5,13.5 32.5,0.5 "/>
<linearGradient id="SVGID_4_" gradientUnits="userSpaceOnUse" x1="35.75" y1="50.75" x2="48.75" y2="37.75" gradientTransform="matrix(1 0 0 -1 0 48)">
	<stop  offset="0" style="stop-color:#AFD7E1"/>
	<stop  offset="1" style="stop-color:#73B4C8"/>
</linearGradient>
<polygon class="st5" points="45.5,13.5 45.5,0.5 32.5,0.5 "/>
<line class="st6" x1="32.5" y1="0.5" x2="45.5" y2="13.5"/>
<rect x="32.5" y="0.5" class="st6" width="13" height="13"/>
</svg>
