<svg id="Layer_1" data-name="Layer 1" xmlns="http://www.w3.org/2000/svg" xmlns:xlink="http://www.w3.org/1999/xlink" viewBox="0 0 48 48">
    <linearGradient id="Dark_Blue_Grad" data-name="Dark Blue Grad" x1="9" y1="-8" x2="34" y2="17" gradientUnits="userSpaceOnUse">
      <stop offset="0" stop-color="#73b4c8"/>
      <stop offset="0.175" stop-color="#6aaec3"/>
      <stop offset="0.457" stop-color="#529eb5"/>
      <stop offset="0.809" stop-color="#2c839f"/>
      <stop offset="1" stop-color="#147391"/>
    </linearGradient>
    <linearGradient id="front_-45" data-name="front -45" x1="6.5" y1="4.5" x2="36.5" y2="34.5" gradientUnits="userSpaceOnUse">
      <stop offset="0" stop-color="#f2f2f2"/>
      <stop offset="0.5" stop-color="#ccc"/>
      <stop offset="0.63" stop-color="#c7c7c7"/>
      <stop offset="0.779" stop-color="#b9b9b9"/>
      <stop offset="0.938" stop-color="#a2a2a2"/>
      <stop offset="0.99" stop-color="#999"/>
    </linearGradient>
    <linearGradient id="New_Gradient_Swatch_1" data-name="New Gradient Swatch 1" x1="9" y1="8" x2="34" y2="33" gradientUnits="userSpaceOnUse">
      <stop offset="0" stop-color="#cde6eb"/>
      <stop offset="0.221" stop-color="#c6e2e8"/>
      <stop offset="0.542" stop-color="#b3d8e1"/>
      <stop offset="0.921" stop-color="#93c7d5"/>
      <stop offset="1" stop-color="#8cc3d2"/>
    </linearGradient>
    <linearGradient id="New_Gradient_Swatch_1-2" x1="11.5" y1="15.5" x2="21.5" y2="25.5" xlink:href="#New_Gradient_Swatch_1"/>
    <linearGradient id="Dark_Blue_Grad-2" x1="28.043" y1="19.129" x2="42.957" y2="34.043" xlink:href="#Dark_Blue_Grad"/>
    <linearGradient id="paper_gradient" data-name="paper gradient" x1="25.293" y1="27.707" x2="45.707" y2="48.121" gradientUnits="userSpaceOnUse">
      <stop offset="0" stop-color="#fff"/>
      <stop offset="0.221" stop-color="#f8f8f8"/>
      <stop offset="0.541" stop-color="#e5e5e5"/>
      <stop offset="0.92" stop-color="#c6c6c6"/>
      <stop offset="1" stop-color="#bebebe"/>
    </linearGradient>
    <linearGradient id="Dark_Blue_Grad-3" x1="29.5" y1="23.5" x2="41.5" y2="35.5" xlink:href="#Dark_Blue_Grad"/>
  <rect x="0.5" y="0.5" width="42" height="8" stroke="#464646" stroke-miterlimit="10" fill="url(#Dark_Blue_Grad)"/>
    <rect x="2.5" y="8.5" width="38" height="22" fill="url(#front_-45)"/>
    <rect x="6.499" y="10.5" width="30.001" height="20" stroke="#147391" stroke-linecap="round" stroke-miterlimit="10" fill="url(#New_Gradient_Swatch_1)"/>
    <line x1="16.5" y1="30.5" x2="16.5" y2="10.5" stroke="#147391" stroke-miterlimit="10" fill="url(#New_Gradient_Swatch_1-2)"/>
  <line x1="14.5" y1="18.5" x2="14.5" y2="21.5" fill="none" stroke="#147391" stroke-linecap="round" stroke-miterlimit="10"/>
  <line x1="3.5" y1="3" x2="3.5" y2="6" fill="none" stroke="#147391" stroke-miterlimit="10"/>
  <line x1="5.5" y1="3" x2="5.5" y2="6" fill="none" stroke="#147391" stroke-miterlimit="10"/>
  <line x1="11.5" y1="3" x2="11.5" y2="6" fill="none" stroke="#147391" stroke-miterlimit="10"/>
  <line x1="13.5" y1="3" x2="13.5" y2="6" fill="none" stroke="#147391" stroke-miterlimit="10"/>
  <line x1="7" y1="5.5" x2="10" y2="5.5" fill="none" stroke="#147391" stroke-miterlimit="10"/>
  <line x1="7" y1="3.5" x2="10" y2="3.5" fill="none" stroke="#147391" stroke-miterlimit="10"/>
  <rect x="2.5" y="8.5" width="38" height="22" fill="none" stroke="#464646" stroke-miterlimit="10"/>
  <path d="M47.5,29.5v-5a2,2,0,0,0-2-2h-20a2,2,0,0,0-2,2v5" fill="url(#Dark_Blue_Grad-2)"/>
  <path d="M23.5,29.5v16a2,2,0,0,0,2,2h20a2,2,0,0,0,2-2v-16" fill="url(#paper_gradient)"/>
  <circle cx="30" cy="26" r="1.5" fill="#fff" stroke="#147391" stroke-miterlimit="10"/>
  <line x1="23.5" y1="35.5" x2="47.5" y2="35.5" fill="none" stroke="#5a5a5a"/>
  <line x1="23.5" y1="41.5" x2="47.5" y2="41.5" fill="none" stroke="#5a5a5a"/>
  <line x1="31.5" y1="29.5" x2="31.5" y2="47.5" fill="none" stroke="#5a5a5a"/>
  <line x1="39.5" y1="29.5" x2="39.5" y2="47.5" fill="none" stroke="#5a5a5a"/>
  <line x1="23.5" y1="29.5" x2="47.5" y2="29.5" stroke="#147391" stroke-miterlimit="10" fill="url(#Dark_Blue_Grad-3)"/>
  <rect x="23.5" y="22.5" width="24" height="25" rx="2" ry="2" fill="none" stroke="#464646" stroke-miterlimit="10"/>
  <circle cx="41" cy="26" r="1.5" fill="#fff" stroke="#147391" stroke-miterlimit="10"/>
</svg>
