<svg version="1.1" id="Layer_1" xmlns="http://www.w3.org/2000/svg" xmlns:xlink="http://www.w3.org/1999/xlink" x="0px" y="0px"
	 viewBox="0 0 48 48" enable-background="new 0 0 48 48" xml:space="preserve">
	<linearGradient id="SVGID_1_" gradientUnits="userSpaceOnUse" x1="17.3785" y1="19.3787" x2="21.6213" y2="23.6215">
		<stop  offset="0" style="stop-color:#73B4C8"/>
		<stop  offset="0.1747" style="stop-color:#6AAEC3"/>
		<stop  offset="0.4567" style="stop-color:#529EB5"/>
		<stop  offset="0.8089" style="stop-color:#2C839F"/>
		<stop  offset="1" style="stop-color:#147391"/>
	</linearGradient>
		<circle fill="url(#SVGID_1_)" stroke="#464646" stroke-linecap="round" stroke-linejoin="round" stroke-miterlimit="10" cx="19.5" cy="21.5" r="3"/>
		<ellipse fill="none" stroke="#969696" stroke-width="2" stroke-linejoin="round" stroke-miterlimit="10" cx="19.5" cy="21.5" rx="8.5" ry="20.5"/>
	<path fill="none" stroke="#969696" stroke-width="2" stroke-linejoin="round" stroke-miterlimit="10" d="M15.1,13.8
		c9.4-5.4,18.9-6.4,21.3-2.2c2.4,4.2-3.2,12.1-12.6,17.5C14.5,34.6,5,35.6,2.6,31.4C0.1,27.1,5.8,19.3,15.1,13.8z"/>
	<path fill="none" stroke="#969696" stroke-width="2" stroke-linejoin="round" stroke-miterlimit="10" d="M15.1,29.2
		c-9.4-5.4-15-13.3-12.6-17.5c2.4-4.2,12-3.2,21.3,2.2c9.4,5.4,15,13.3,12.6,17.5C34,35.6,24.5,34.6,15.1,29.2z"/>
<ellipse transform="matrix(0.7071 -0.7071 0.7071 0.7071 -6.8995 5.3431)" fill="#3C91AF" stroke="#464646" stroke-linecap="round" stroke-linejoin="round" stroke-miterlimit="10" cx="3" cy="11" rx="2.5" ry="2.5"/>
<ellipse transform="matrix(0.7071 -0.7071 0.7071 0.7071 3.3015 25.9706)" fill="#3C91AF" stroke="#464646" stroke-linecap="round" stroke-linejoin="round" stroke-miterlimit="10" cx="33" cy="9" rx="2.5" ry="2.5"/>
<ellipse transform="matrix(0.7071 -0.7071 0.7071 0.7071 -23.1838 22.0294)" fill="#3C91AF" stroke="#464646" stroke-linecap="round" stroke-linejoin="round" stroke-miterlimit="10" cx="15" cy="39" rx="2.5" ry="2.5"/>
<linearGradient id="SVGID_2_" gradientUnits="userSpaceOnUse" x1="20.75" y1="-933.25" x2="47.25" y2="-959.75" gradientTransform="matrix(1 0 0 -1 0 -912)">
	<stop  offset="0" style="stop-color:#FFFFFF"/>
	<stop  offset="0.2323" style="stop-color:#FAFAFA"/>
	<stop  offset="0.4964" style="stop-color:#EDEDED"/>
	<stop  offset="0.775" style="stop-color:#D6D6D6"/>
	<stop  offset="1" style="stop-color:#BEBEBE"/>
</linearGradient>
<polygon fill="url(#SVGID_2_)" stroke="#464646" stroke-miterlimit="10" points="39.5,17.5 24.5,17.5 24.5,47.5 47.5,47.5 
	47.5,25.5 "/>
<linearGradient id="SVGID_3_" gradientUnits="userSpaceOnUse" x1="37.5" y1="-931.5" x2="45.5" y2="-939.5" gradientTransform="matrix(1 0 0 -1 0 -912)">
	<stop  offset="0" style="stop-color:#FFFFFF"/>
	<stop  offset="0.2214" style="stop-color:#F8F8F8"/>
	<stop  offset="0.5415" style="stop-color:#E5E5E5"/>
	<stop  offset="0.92" style="stop-color:#C6C6C6"/>
	<stop  offset="1" style="stop-color:#BEBEBE"/>
</linearGradient>
<polygon fill="url(#SVGID_3_)" stroke="#464646" stroke-linejoin="round" stroke-miterlimit="10" points="39.5,17.5 39.5,25.5 
	47.5,25.5 "/>
<polyline fill="none" stroke="#147391" points="29,35 33,31 37,35 42,30 "/>
<circle fill="#FFFFFF" stroke="#147391" cx="29" cy="35" r="1.5"/>
<circle fill="#FFFFFF" stroke="#147391" cx="33" cy="31" r="1.5"/>
<circle fill="#FFFFFF" stroke="#147391" cx="42" cy="30" r="1.5"/>
<circle fill="#FFFFFF" stroke="#147391" cx="37" cy="35" r="1.5"/>
<rect x="28.5" y="41.5" fill="#3C91AF" stroke="#147391" width="3" height="3"/>
<rect x="34.5" y="39.5" fill="#3C91AF" stroke="#147391" width="3" height="5"/>
<rect x="40.5" y="36.5" fill="#3C91AF" stroke="#147391" width="3" height="8"/>
</svg>
