<svg version="1.1" id="Layer_1" xmlns="http://www.w3.org/2000/svg" xmlns:xlink="http://www.w3.org/1999/xlink" x="0px" y="0px"
	viewBox="0 0 48 48" enable-background="new 0 0 48 48" xml:space="preserve">
<polygon fill="#464646" points="33.499,23.151 29.545,17 22.103,17 29.288,27.5 22.103,38 29.545,38 33.499,31.849 37.453,38 
	44.85,38 37.71,27.502 44.895,17 37.453,17 "/>
	<path fill="#464646" d="M20.6,5.677c-2.251,0-4.156,0.666-5.661,1.979c-1.503,1.311-2.42,3.09-2.724,5.287L11.779,17h-2.78v6h1.865
		L9.36,32.535c-0.427,2.83-1.267,4.262-2.497,4.262c-0.546,0-1.005-0.105-1.365-0.312L3.999,35.62V42l0.766,0.213l0.143,0.034
		c0.29,0.07,0.589,0.142,0.894,0.217c0.438,0.107,0.876,0.161,1.305,0.161c2.352,0,4.33-0.871,5.879-2.589
		c1.485-1.649,2.451-3.942,2.871-6.816L17.45,23h3.549v-6h-2.638l0.415-3.52c0.107-0.662,0.344-1.163,0.72-1.493
		c0.369-0.324,0.81-0.481,1.347-0.481c0.357,0,0.736,0.06,1.127,0.179c0.216,0.066,0.42,0.143,0.622,0.233l1.407,0.628V6.267
		l-0.711-0.215C22.462,5.803,21.557,5.677,20.6,5.677L20.6,5.677z"/>
<linearGradient id="SVGID_1_" gradientUnits="userSpaceOnUse" x1="9.18" y1="14.8014" x2="37.1699" y2="42.7913">
	<stop  offset="0" style="stop-color:#73B4C8"/>
	<stop  offset="0.1747" style="stop-color:#6AAEC3"/>
	<stop  offset="0.4567" style="stop-color:#529EB5"/>
	<stop  offset="0.8089" style="stop-color:#2C839F"/>
	<stop  offset="1" style="stop-color:#147391"/>
</linearGradient>
<path fill="url(#SVGID_1_)" d="M36.499,27.5l6.462,9.5l-4.962,0l-4.5-7l-4.5,7l-5,0l6.5-9.5l-6.5-9.5h5l4.5,7l4.5-7l5,0L36.499,27.5
	z M22.999,7c-0.721-0.218-1.518-0.323-2.4-0.323c-2.013,0-3.68,0.577-5.004,1.732s-2.12,2.712-2.391,4.67L12.678,18H9.999v4h2.036
	l-1.687,10.691c-0.514,3.404-1.674,5.106-3.485,5.106c-0.729,0-1.35-0.149-1.864-0.446v3.89c0.337,0.081,0.686,0.165,1.043,0.253
	c0.357,0.087,0.712,0.132,1.064,0.132c2.067,0,3.779-0.753,5.136-2.259c1.357-1.507,2.231-3.603,2.624-6.291L16.594,22h3.405v-4
	h-2.763l0.547-4.637c0.149-0.932,0.499-1.641,1.054-2.127c0.555-0.486,1.223-0.729,2.006-0.729c0.458,0,0.932,0.075,1.418,0.223
	c0.284,0.087,0.523,0.175,0.738,0.271V7z"/>
</svg>
