<svg id="Layer_1" data-name="Layer 1" xmlns="http://www.w3.org/2000/svg" xmlns:xlink="http://www.w3.org/1999/xlink" viewBox="0 0 48 48">
  <defs>
    <linearGradient id="linear-gradient" x1="-1.25" y1="2.25" x2="38.25" y2="41.75" gradientUnits="userSpaceOnUse">
      <stop offset="0" stop-color="#fff"/>
      <stop offset="0.3045" stop-color="#fbfbfb"/>
      <stop offset="0.5835" stop-color="#f0f0f0"/>
      <stop offset="0.8518" stop-color="#dedede"/>
      <stop offset="1" stop-color="#d0d0d0"/>
    </linearGradient>
    <linearGradient id="linear-gradient-2" x1="26.4804" y1="31.312" x2="41.5204" y2="46.3521" gradientUnits="userSpaceOnUse">
      <stop offset="0" stop-color="#b1b1b1"/>
      <stop offset="1" stop-color="#7d7d7d"/>
    </linearGradient>
    <linearGradient id="linear-gradient-3" x1="26.9201" y1="30.2117" x2="41.0815" y2="44.3731" xlink:href="#linear-gradient-2"/>
    <linearGradient id="linear-gradient-4" x1="24.5575" y1="29.384" x2="43.4442" y2="29.384" xlink:href="#linear-gradient-2"/>
    <linearGradient id="linear-gradient-5" x1="32.1371" y1="15.5059" x2="35.8782" y2="19.247" gradientUnits="userSpaceOnUse">
      <stop offset="0" stop-color="#7d7d7d"/>
      <stop offset="1" stop-color="#b1b1b1"/>
    </linearGradient>
    <linearGradient id="linear-gradient-6" x1="28.5386" y1="23.4968" x2="39.4621" y2="34.4202" gradientUnits="userSpaceOnUse">
      <stop offset="0" stop-color="#fff"/>
      <stop offset="0.2284" stop-color="#fafafa"/>
      <stop offset="0.4881" stop-color="#ededed"/>
      <stop offset="0.7621" stop-color="#d7d6d6"/>
      <stop offset="1" stop-color="#bdbcbc"/>
    </linearGradient>
  </defs>
    <rect x="0.5" y="0.5" width="36" height="43" stroke="#464646" stroke-miterlimit="10" stroke-width="1" fill="url(#linear-gradient)"/>
    <rect x="5.5" y="5.5" width="9" height="9" fill="none" stroke="#6e6e6e" stroke-miterlimit="10"/>
      <polyline points="12.5 7.5 9.5 12.5 7.5 10.5" fill="none" stroke="#6e6e6e" stroke-linejoin="round"/>
    <rect x="5.5" y="17.5" width="9" height="9" fill="none" stroke="#6e6e6e" stroke-miterlimit="10"/>
      <polyline points="12.5 19.5 9.5 24.5 7.5 22.5" fill="none" stroke="#6e6e6e" stroke-linejoin="round"/>
      <polyline points="12.5 31.5 9.5 36.5 7.5 34.5" fill="none" stroke="#6e6e6e" stroke-linejoin="round"/>
    <rect x="5.5" y="29.5" width="9" height="9" fill="none" stroke="#6e6e6e" stroke-miterlimit="10"/>
    <line x1="18" y1="9.5" x2="31" y2="9.5" fill="none" stroke="#6e6e6e" stroke-miterlimit="10"/>
    <line x1="18" y1="21.5" x2="31" y2="21.5" fill="none" stroke="#6e6e6e" stroke-miterlimit="10"/>
    <line x1="18" y1="33.5" x2="25.5" y2="33.5" fill="none" stroke="#6e6e6e" stroke-miterlimit="10"/>
  <polygon points="30.944 44.356 31.284 44.534 31.642 44.686 32.038 44.818 32.453 44.922 32.878 45.007 33.322 45.063 33.774 45.092 34.226 45.092 34.68 45.063 35.124 45.007 35.547 44.922 35.963 44.818 36.359 44.686 36.726 44.534 37.056 44.356 46.237 39.058 46.538 38.861 46.803 38.652 47.029 38.425 47.218 38.189 47.359 37.935 47.454 37.68 47.5 37.425 47.5 37.292 47.5 39.7 47.5 39.833 47.454 40.096 47.359 40.352 47.218 40.597 47.029 40.843 46.803 41.07 46.538 41.277 46.237 41.476 37.056 46.773 36.726 46.952 36.359 47.104 35.963 47.236 35.547 47.34 35.124 47.425 34.68 47.471 34.226 47.5 33.774 47.5 33.322 47.471 32.878 47.425 32.453 47.34 32.038 47.236 31.642 47.104 31.284 46.952 30.944 46.773 21.765 41.476 21.462 41.277 21.199 41.07 20.973 40.843 20.784 40.597 20.651 40.352 20.556 40.096 20.51 39.833 20.5 39.7 20.5 37.292 20.51 37.425 20.556 37.68 20.651 37.935 20.784 38.189 20.973 38.425 21.199 38.652 21.462 38.861 21.765 39.058 30.944 44.356" fill="url(#linear-gradient-2)"/>
  <polygon points="37.056 30.221 36.726 30.04 36.359 29.889 35.963 29.758 35.547 29.654 35.124 29.569 34.68 29.521 34.226 29.493 33.774 29.493 33.322 29.521 32.878 29.569 32.453 29.654 32.038 29.758 31.642 29.889 31.284 30.04 30.944 30.221 21.765 35.527 21.462 35.715 21.199 35.933 20.973 36.159 20.784 36.396 20.651 36.641 20.556 36.896 20.51 37.16 20.51 37.425 20.556 37.68 20.651 37.935 20.784 38.189 20.973 38.425 21.199 38.652 21.462 38.861 21.765 39.058 30.944 44.356 31.284 44.534 31.642 44.686 32.038 44.818 32.453 44.922 32.878 45.007 33.322 45.063 33.774 45.092 34.226 45.092 34.68 45.063 35.124 45.007 35.547 44.922 35.963 44.818 36.359 44.686 36.726 44.534 37.056 44.356 46.237 39.058 46.538 38.861 46.803 38.652 47.029 38.425 47.218 38.189 47.359 37.935 47.454 37.68 47.5 37.425 47.5 37.16 47.454 36.896 47.359 36.641 47.218 36.396 47.029 36.159 46.803 35.933 46.538 35.715 46.237 35.527 37.056 30.221" fill="url(#linear-gradient-3)"/>
  <polyline points="20.51 37.16 20.51 37.425 20.556 37.68 20.651 37.935 20.784 38.189 20.973 38.425 21.199 38.652 21.462 38.861 21.765 39.058 30.944 44.356 31.284 44.534 31.642 44.686 32.038 44.818 32.453 44.922 32.878 45.007 33.322 45.063 33.774 45.092 34.226 45.092 34.68 45.063 35.124 45.007 35.547 44.922 35.963 44.818 36.359 44.686 36.726 44.534 37.056 44.356 46.237 39.058 46.538 38.861 46.803 38.652 47.029 38.425 47.218 38.189 47.359 37.935 47.454 37.68 47.5 37.425" fill="none" stroke="#6e6e6e" stroke-miterlimit="10"/>
  <path d="M37.1887,17.019l2.1045,6.308.0935.444v.2926l-.046.2841-.0951.2824-.1327.2738-.1783.2739-.2262.2552-.2651.245-.2925.2262-.34.2177-.3672.1889-.3959.18-.425.15-.4435.1225-.4624.1055-.481.0747-.49.0563-.4914.0288h-.5l-.5-.0288-.4911-.0563-.471-.0747-.4724-.1055-.4436-.1225-.4234-.15-.3961-.18-.3688-.1889-.33-.2177-.3026-.2262-.2634-.245-.2176-.2552-.1785-.2739-.1428-.2738-.0936-.2824-.0374-.2841V23.771l.0374-.2841.0476-.16,2.1027-6.308ZM26.3593,30.4276l-.0578.34v.3487l.0392.34.085.35.1307.33.18.33.2158.3216.2653.3113.3007.3028.35.2739.3774.2739.4146.2448.4437.2263.4811.2178.5.1787.5285.17.5474.1327.5559.1224.5761.0851.5933.0664.5949.0374.595.01.5933-.02.595-.0459.5846-.0663.5762-.0953.5557-.1225.5474-.1412.5186-.17.5-.199.4623-.2075.4437-.2348.4063-.2552.3671-.2739.3315-.2841.301-.3012.2446-.3129.2177-.32.16-.34.1242-.33.0748-.35.0289-.34-.0187-.3488-.0663-.34-.0579-.1974,1.7084,5.1087.1036.3674.0561.3777.01.3878-.0375.3777-.0764.3777-.1225.3775-.17.3676-.2157.3589-.2653.3488-.2924.34-.34.3317-.3772.3113-.4149.2926-.4521.2739-.4811.2637-.51.2365-.5474.2177-.566.1973-.5846.18-.6035.1412-.6239.1223-.6407.1039-.6408.0766-.6613.0458-.651.0188-.66-.0085-.6611-.0375-.651-.0579-.641-.085-.6323-.1122-.6136-.1327-.5932-.16-.5864-.1888-.5457-.2077-.5287-.2278-.5-.2552-.4625-.2637-.4351-.2926-.3961-.3028-.3587-.32-.32-.3317-.2735-.3387-.2364-.3588-.1989-.3692-.15-.3674-.1037-.3778-.0577-.3775-.0085-.3777.0373-.3879.075-.3776.0576-.1786,1.7067-5.1087Z" stroke="#6e6e6e" stroke-linejoin="round" fill="url(#linear-gradient-4)"/>
  <polygon points="36.293 18.7 36.548 18.54 36.774 18.351 36.952 18.162 37.085 17.955 37.189 17.737 37.236 17.519 37.245 17.293 37.199 17.075 37.114 16.859 36.992 16.652 36.822 16.444 36.614 16.264 36.359 16.094 36.086 15.942 35.775 15.811 35.443 15.697 35.086 15.612 34.717 15.546 34.34 15.509 33.954 15.5 33.567 15.519 33.189 15.565 32.83 15.631 32.482 15.726 32.151 15.838 31.85 15.971 31.576 16.131 31.34 16.311 31.143 16.5 30.981 16.698 30.859 16.907 30.784 17.123 30.755 17.349 30.774 17.567 30.84 17.793 30.944 18.001 31.095 18.21 31.284 18.399 31.51 18.577 31.773 18.737 32.076 18.88 32.397 19.003 32.737 19.106 33.104 19.181 33.471 19.229 33.859 19.248 34.246 19.248 34.624 19.219 34.991 19.163 35.35 19.077 35.69 18.974 36.009 18.851 36.293 18.7" fill="url(#linear-gradient-5)"/>
  <polyline points="30.798 17.06 30.755 17.349 30.774 17.567 30.84 17.793 30.944 18.001 31.095 18.21 31.284 18.399 31.51 18.577 31.773 18.737 32.076 18.88 32.397 19.003 32.737 19.106 33.104 19.181 33.471 19.229 33.859 19.248 34.246 19.248 34.624 19.219 34.991 19.163 35.35 19.077 35.69 18.974 36.009 18.851 36.293 18.7 36.548 18.54 36.774 18.351 36.952 18.162 37.085 17.955 37.189 17.737 37.236 17.519 37.245 17.293" fill="none" stroke="#6e6e6e" stroke-linecap="round" stroke-miterlimit="10"/>
  <path d="M39.2932,23.327l2.2726,6.8182.0952.3674.0477.34-.01.3488-.0476.34-.1037.3487-.1411.3318-.1887.33-.2363.3214-.2736.3011-.3111.2927-.3485.2841-.3875.2552-.4232.2449-.4538.2262-.4811.2077-.51.18-.5373.16-.5472.1326-.5661.1037-.5848.0851-.5846.0561-.595.029-.6035.01-.595-.0289-.5931-.0476-.5763-.0749-.5746-.1038-.5575-.1326-.537-.1515-.51-.17-.49-.1974-.4623-.2279-.4349-.2348-.3962-.2551-.3587-.2738-.32-.2927-.2839-.3027-.2448-.3217-.1989-.32-.16-.34-.1038-.33-.0662-.3505-.0188-.34.0289-.3488.0749-.34.0374-.1122,2.2742-6.8182-.0477.16-.0374.2841v.2925l.0374.2841.0936.2824.1428.274.1784.2737.2177.2552.2633.2451.3027.2262.33.2177.3688.1888.3961.18.4232.15.4438.1223.4724.1056.471.0747L33.2553,27l.5.0289h.5L34.7462,27l.4895-.0562.4811-.0747.4622-.1056.4438-.1223.425-.15.3959-.18.3672-.1888.34-.2177.2925-.2262.2651-.2451.226-.2552.1785-.2737.1326-.274.0952-.2824.0459-.2841v-.2925l-.0459-.2841Z" stroke="#6e6e6e" stroke-linecap="round" stroke-linejoin="round" fill="url(#linear-gradient-6)"/>
  <path d="M25.3235,33.4694l-3.5587,2.0572-.3027.1888-.2634.2177-.226.2263-.1889.2365-.1324.245-.0953.2551L20.51,37.16l-.01.1328V39.7l.01.1326.0458.2637.0953.2552.1324.245.1889.2467.226.2263.2634.2075.3027.1991,9.179,5.2972.34.1788.3585.1514.3961.1327.4148.1036.425.0851.4435.0461.4522.0289h.4522l.4538-.0289.4438-.0461.4232-.0851.4164-.1036.3959-.1327.3672-.1514.33-.1788,9.1806-5.2972.301-.1991.265-.2075.2261-.2263.1888-.2467.1411-.245.0951-.2552.046-.2637V37.16l-.046-.2636-.0951-.2551-.1411-.245-.1888-.2365-.2261-.2263-.265-.2177-.301-.1888-3.5594-2.0572-5.4888-16.45h-.0118l-.0628-.16-.1225-.2074-.17-.2076-.2075-.18-.255-.17-.2734-.1513-.3111-.131-.3316-.114-.3569-.085-.3688-.0664-.3774-.0374L33.9542,15.5l-.3877.0187-.3772.0459-.3588.0664-.3484.0953-.3315.1121-.3008.1328-.2738.16-.2362.18-.1971.1888-.1616.1974-.1223.2093-.0389.1121h-.0088l-.0136.0408h0v0Z" fill="none" stroke="#464646" stroke-linecap="round" stroke-linejoin="round"/>
</svg>
