<svg id="Layer_1" data-name="Layer 1" xmlns="http://www.w3.org/2000/svg" xmlns:xlink="http://www.w3.org/1999/xlink" viewBox="0 0 48 48">
    <linearGradient id="linear-gradient" x1="2.25" y1="-1.25" x2="42.75" y2="39.25" gradientUnits="userSpaceOnUse">
      <stop offset="0" stop-color="#e9e9e9"/>
      <stop offset="0.2032" stop-color="#e2e2e2"/>
      <stop offset="0.7554" stop-color="#cfcfcf"/>
    </linearGradient>
    <linearGradient id="front_-45_2" data-name="front -45 2" x1="16.0121" y1="22.9879" x2="37.5121" y2="44.4879" gradientUnits="userSpaceOnUse">
      <stop offset="0" stop-color="#f1f1f1"/>
      <stop offset="0.5" stop-color="#c9c9c9"/>
      <stop offset="0.6282" stop-color="#c4c4c4"/>
      <stop offset="0.7762" stop-color="#b7b7b7"/>
      <stop offset="0.9335" stop-color="#a0a0a0"/>
      <stop offset="0.99" stop-color="#969696"/>
    </linearGradient>
    <linearGradient id="New_Gradient_Swatch_3" data-name="New Gradient Swatch 3" x1="12.2487" y1="45.2648" x2="19.3398" y2="52.3559" gradientTransform="translate(3.827 -6.8624) rotate(5.0648)" gradientUnits="userSpaceOnUse">
      <stop offset="0" stop-color="#b0b0b0"/>
      <stop offset="1" stop-color="#7e7e7e"/>
    </linearGradient>
    <linearGradient id="front_-45_2-2" x1="22" y1="33" x2="26" y2="37" gradientTransform="translate(31.7782 -6.7193) rotate(45)" xlink:href="#front_-45_2"/>
    <linearGradient id="Dark_Blue_Grad_3" data-name="Dark Blue Grad 3" x1="34.8221" y1="20.1779" x2="38.8221" y2="24.1779" gradientUnits="userSpaceOnUse">
      <stop offset="0" stop-color="#c6c6c6"/>
      <stop offset="0.1774" stop-color="#c1c1c1"/>
      <stop offset="0.4638" stop-color="#b3b3b3"/>
      <stop offset="0.8215" stop-color="#9c9c9c"/>
      <stop offset="1" stop-color="#8f8f8f"/>
    </linearGradient>
    <rect x="0.5" y="0.5" width="44" height="37" fill="url(#linear-gradient)"/>
      <path d="M10.5006,17.5A5,5,0,1,0,5.5,12.4988,5,5,0,0,0,10.5006,17.5Z" fill="#ffffff" stroke="#8f8f8f" stroke-linecap="round" stroke-linejoin="round" stroke-width="1"/>
      <polygon points="1.5 37.5 21.5 17.5 25.5 21.5 34.5 12.5 44.5 22.452 44.5 37.5 1.5 37.5" stroke="#6f6f6f" stroke-linecap="round" stroke-miterlimit="10" fill="url(#front_-45_2)"/>
    <rect x="0.5" y="0.5" width="44" height="37" fill="none" stroke="#464646" stroke-miterlimit="10"/>
    <path d="M19.5473,35.4165a7.525,7.525,0,0,0-7.1062,4.8592A8.9451,8.9451,0,0,1,6.344,46.165s14.91,5.7864,17.22-6.7344" stroke="#464646" stroke-miterlimit="10" fill="url(#New_Gradient_Swatch_3)"/>
    <rect x="20.4645" y="32.1716" width="7.0711" height="5.6569" transform="translate(-17.7193 27.2218) rotate(-45)" stroke="#464646" stroke-linejoin="round" fill="url(#front_-45_2-2)"/>
    <path d="M24.5,30.5,45.4768,11.8084a1.2146,1.2146,0,0,1,1.6675.0473h0a1.2146,1.2146,0,0,1,.047,1.6679L28.5,34.5Z" stroke="#464646" stroke-linejoin="round" fill="url(#Dark_Blue_Grad_3)"/>
</svg>
