<svg id="Layer_1" data-name="Layer 1" xmlns="http://www.w3.org/2000/svg" xmlns:xlink="http://www.w3.org/1999/xlink" viewBox="0 0 48 48">
    <linearGradient id="linear-gradient" x1="2.989" y1="2.989" x2="38.5" y2="38.5" gradientUnits="userSpaceOnUse">
      <stop offset="0" stop-color="#fff"/>
      <stop offset="0.248" stop-color="#f8f8f8"/>
      <stop offset="0.606" stop-color="#e5e5e5"/>
      <stop offset="1" stop-color="#c8c8c8"/>
    </linearGradient>
    <linearGradient id="Dark_Blue_Grad_2" data-name="Dark Blue Grad 2" x1="11.25" y1="9.75" x2="22.75" y2="21.25" gradientUnits="userSpaceOnUse">
      <stop offset="0" stop-color="#74b3c7"/>
      <stop offset="0.177" stop-color="#6badc2"/>
      <stop offset="0.464" stop-color="#539db4"/>
      <stop offset="0.822" stop-color="#2d839d"/>
      <stop offset="1" stop-color="#177490"/>
    </linearGradient>
    <linearGradient id="Dark_Blue_Grad" data-name="Dark Blue Grad" x1="26.16" y1="26.161" x2="43.837" y2="43.838" gradientUnits="userSpaceOnUse">
      <stop offset="0" stop-color="#73b4c8"/>
      <stop offset="0.175" stop-color="#6aaec3"/>
      <stop offset="0.457" stop-color="#529eb5"/>
      <stop offset="0.809" stop-color="#2c839f"/>
      <stop offset="1" stop-color="#147391"/>
    </linearGradient>
    <path d="M22.074.5a4.149,4.149,0,1,1-8.3,0h-8.3L.5,5.479V38.5h38V.5Z" stroke="#464646" stroke-miterlimit="10" fill="url(#linear-gradient)"/>
    <rect x="12.5" y="8.5" width="9" height="14" stroke="#147391" stroke-miterlimit="10" fill="url(#Dark_Blue_Grad_2)"/>
    <polyline points="10.5 10.5 7.468 10.5 6 9" fill="none" stroke="#147391" stroke-linejoin="round"/>
    <polyline points="10.5 20.5 7.819 20.5 4.5 23.819 4.5 25.5" fill="none" stroke="#147391" stroke-linejoin="round"/>
    <line x1="10.5" y1="15.5" x2="6.5" y2="15.5" fill="none" stroke="#147391" stroke-linejoin="round"/>
    <rect x="10.5" y="9.5" width="2" height="2" fill="none" stroke="#147391" stroke-miterlimit="10"/>
    <rect x="10.5" y="14.5" width="2" height="2" fill="none" stroke="#147391" stroke-miterlimit="10"/>
    <rect x="10.5" y="19.5" width="2" height="2" fill="none" stroke="#147391" stroke-miterlimit="10"/>
    <polyline points="23.5 15.5 27.521 15.5 34.5 8.521 34.5 6.5" fill="none" stroke="#147391" stroke-linejoin="round"/>
    <polyline points="23.5 10.5 26.011 10.5 28.5 8.011 28.5 6.5" fill="none" stroke="#147391" stroke-linejoin="round"/>
    <circle cx="28.5" cy="4.5" r="2" fill="none" stroke="#147391" stroke-miterlimit="10"/>
    <circle cx="4.5" cy="7.5" r="2" fill="none" stroke="#147391" stroke-miterlimit="10"/>
    <circle cx="4.5" cy="15.5" r="2" fill="none" stroke="#147391" stroke-miterlimit="10"/>
    <circle cx="4.5" cy="27.5" r="2" fill="none" stroke="#147391" stroke-miterlimit="10"/>
    <circle cx="11.5" cy="27.5" r="2" fill="none" stroke="#147391" stroke-miterlimit="10"/>
    <circle cx="22.5" cy="34.5" r="2" fill="none" stroke="#147391" stroke-miterlimit="10"/>
    <circle cx="4.5" cy="34.5" r="2" fill="none" stroke="#147391" stroke-miterlimit="10"/>
    <circle cx="14.5" cy="34.5" r="2" fill="none" stroke="#147391" stroke-miterlimit="10"/>
    <circle cx="34.5" cy="4.5" r="2" fill="none" stroke="#147391" stroke-miterlimit="10"/>
    <polyline points="21 33 15.5 27.5 13.5 27.5" fill="none" stroke="#147391" stroke-linejoin="round"/>
    <rect x="21.5" y="9.5" width="2" height="2" fill="none" stroke="#147391" stroke-miterlimit="10"/>
    <rect x="21.5" y="14.5" width="2" height="2" fill="none" stroke="#147391" stroke-miterlimit="10"/>
    <rect x="21.5" y="19.5" width="2" height="2" fill="none" stroke="#147391" stroke-miterlimit="10"/>
    <line x1="6.5" y1="34.5" x2="12.5" y2="34.5" fill="none" stroke="#147391" stroke-linejoin="round"/>
  <line x1="23.5" y1="20.5" x2="30.5" y2="20.5" fill="none" stroke="#147391" stroke-linejoin="round"/>
  <circle cx="32.5" cy="20.5" r="2" fill="none" stroke="#147391" stroke-miterlimit="10"/>
  <circle cx="34.998" cy="34.999" r="12.5" stroke="#464646" stroke-linecap="round" stroke-linejoin="round" fill="url(#Dark_Blue_Grad)"/>
  <polygon points="41.5 32.5 34.5 39.5 34.5 37.5 31.5 37.5 31.5 44.5 38.5 44.5 38.5 41.5 36.5 41.5 43.5 34.5 41.5 32.5" fill="#fff" stroke="#147391"/>
  <polygon points="28.497 37.499 35.497 30.499 35.497 32.499 38.497 32.499 38.497 25.499 31.497 25.499 31.497 28.498 33.497 28.498 26.497 35.499 28.497 37.499" fill="#fff" stroke="#147391"/>
</svg>
