<svg version="1.1" id="Layer_1" xmlns="http://www.w3.org/2000/svg" xmlns:xlink="http://www.w3.org/1999/xlink" x="0px" y="0px"
	 viewBox="0 0 48 48" enable-background="new 0 0 48 48" xml:space="preserve">
<linearGradient id="SVGID_1_" gradientUnits="userSpaceOnUse" x1="21.9498" y1="2.6018" x2="31.0519" y2="11.7038">
	<stop  offset="0" style="stop-color:#FFFFFF"/>
	<stop  offset="1" style="stop-color:#BEBEBE"/>
</linearGradient>
<path fill="url(#SVGID_1_)" stroke="#464646" stroke-miterlimit="10" d="M32.5,6.6c0,3.4-2.7,7.9-6,7.9s-6-4.5-6-7.9s2.7-6.1,6-6.1
	S32.5,3.2,32.5,6.6z"/>
<linearGradient id="SVGID_2_" gradientUnits="userSpaceOnUse" x1="16.7612" y1="18.2815" x2="36.2397" y2="37.7601">
	<stop  offset="0" style="stop-color:#FFFFFF"/>
	<stop  offset="0.2323" style="stop-color:#FAFAFA"/>
	<stop  offset="0.4964" style="stop-color:#EDEDED"/>
	<stop  offset="0.775" style="stop-color:#D6D6D6"/>
	<stop  offset="1" style="stop-color:#BEBEBE"/>
</linearGradient>
<path fill="url(#SVGID_2_)" stroke="#464646" stroke-miterlimit="10" d="M38.5,35.5l0-12c0-3-1.9-5.6-4.8-7c-2,1.4-4.5,2.3-7.2,2.3
	s-5.2-0.9-7.2-2.3c-2.9,1.4-4.8,4-4.8,7l0,12"/>
<linearGradient id="SVGID_3_" gradientUnits="userSpaceOnUse" x1="7.949" y1="5.6019" x2="17.051" y2="14.704">
	<stop  offset="0" style="stop-color:#FFFFFF"/>
	<stop  offset="1" style="stop-color:#BEBEBE"/>
</linearGradient>
<path fill="url(#SVGID_3_)" stroke="#464646" stroke-miterlimit="10" d="M18.5,9.6c0,3.4-2.7,7.9-6,7.9s-6-4.5-6-7.9s2.7-6.1,6-6.1
	S18.5,6.2,18.5,9.6z"/>
<linearGradient id="SVGID_4_" gradientUnits="userSpaceOnUse" x1="2.7605" y1="21.2815" x2="22.2395" y2="40.7605">
	<stop  offset="0" style="stop-color:#FFFFFF"/>
	<stop  offset="0.2323" style="stop-color:#FAFAFA"/>
	<stop  offset="0.4964" style="stop-color:#EDEDED"/>
	<stop  offset="0.775" style="stop-color:#D6D6D6"/>
	<stop  offset="1" style="stop-color:#BEBEBE"/>
</linearGradient>
<path fill="url(#SVGID_4_)" stroke="#464646" stroke-miterlimit="10" d="M24.5,38.5v-12c0-3-1.9-5.6-4.8-7c-2,1.4-4.5,2.3-7.2,2.3
	s-5.2-0.9-7.2-2.3c-2.9,1.4-4.8,4-4.8,7v12H24.5z"/>
<line fill="none" stroke="#6E6E6E" stroke-miterlimit="10" x1="6.5" y1="38" x2="6.5" y2="28"/>
<line fill="none" stroke="#6E6E6E" stroke-miterlimit="10" x1="18.5" y1="38" x2="18.5" y2="28"/>
<linearGradient id="SVGID_5_" gradientUnits="userSpaceOnUse" x1="25.4635" y1="21.2135" x2="41.875" y2="37.625">
	<stop  offset="0" style="stop-color:#73B4C8"/>
	<stop  offset="0.1747" style="stop-color:#6AAEC3"/>
	<stop  offset="0.4567" style="stop-color:#529EB5"/>
	<stop  offset="0.8089" style="stop-color:#2C839F"/>
	<stop  offset="1" style="stop-color:#147391"/>
</linearGradient>
<path fill="url(#SVGID_5_)" stroke="#464646" stroke-miterlimit="10" d="M47.5,32v-3.5H32L29.9,25c-0.2-0.3-0.6-0.5-1-0.5h-6.3
	c-0.6,0-1.2,0.5-1.2,1.2V32"/>
<g>
	<linearGradient id="SVGID_6_" gradientUnits="userSpaceOnUse" x1="29.1114" y1="23.036" x2="41.1488" y2="35.0735">
		<stop  offset="0" style="stop-color:#FFFFFF"/>
		<stop  offset="0.2214" style="stop-color:#F8F8F8"/>
		<stop  offset="0.5415" style="stop-color:#E5E5E5"/>
		<stop  offset="0.92" style="stop-color:#C6C6C6"/>
		<stop  offset="1" style="stop-color:#BEBEBE"/>
	</linearGradient>
	<polyline fill="url(#SVGID_6_)" stroke="#464646" stroke-miterlimit="10" points="24.6,31.5 23.9,28.3 43.1,24 44.7,31.5 	"/>
</g>
<linearGradient id="SVGID_7_" gradientUnits="userSpaceOnUse" x1="24" y1="29" x2="45" y2="50">
	<stop  offset="0" style="stop-color:#73B4C8"/>
	<stop  offset="0.1747" style="stop-color:#6AAEC3"/>
	<stop  offset="0.4567" style="stop-color:#529EB5"/>
	<stop  offset="0.8089" style="stop-color:#2C839F"/>
	<stop  offset="1" style="stop-color:#147391"/>
</linearGradient>
<rect x="21.5" y="31.5" fill="url(#SVGID_7_)" stroke="#464646" stroke-miterlimit="10" width="26" height="16"/>
</svg>
