<svg id="Layer_1" data-name="Layer 1" xmlns="http://www.w3.org/2000/svg" xmlns:xlink="http://www.w3.org/1999/xlink" width="48" height="48" viewBox="0 0 48 48">
  <defs>
    <linearGradient id="linear-gradient" x1="3.5" y1="41.5" x2="45" gradientTransform="matrix(1, 0, 0, -1, 0, 48)" gradientUnits="userSpaceOnUse">
      <stop offset="0" stop-color="#fff"/>
      <stop offset="0.232" stop-color="#fafafa"/>
      <stop offset="0.496" stop-color="#ededed"/>
      <stop offset="0.775" stop-color="#d6d6d6"/>
      <stop offset="1" stop-color="#bebebe"/>
    </linearGradient>
    <linearGradient id="paper_gradient" data-name="paper gradient" x1="29.25" y1="44.25" x2="42.25" y2="31.25" gradientTransform="matrix(1, 0, 0, -1, 0, 48)" gradientUnits="userSpaceOnUse">
      <stop offset="0" stop-color="#fff"/>
      <stop offset="0.221" stop-color="#f8f8f8"/>
      <stop offset="0.541" stop-color="#e5e5e5"/>
      <stop offset="0.92" stop-color="#c6c6c6"/>
      <stop offset="1" stop-color="#bebebe"/>
    </linearGradient>
  </defs>
  <polygon points="32.5 0.5 9.5 0.5 9.5 47.5 45.5 47.5 45.5 13.5 32.5 0.5" stroke="#464646" stroke-miterlimit="10" fill="url(#linear-gradient)"/>
  <polygon points="32.5 0.5 32.5 13.5 45.5 13.5 32.5 0.5" stroke="#464646" stroke-linejoin="round" fill="url(#paper_gradient)"/>
  <rect x="0.5" y="17.5" width="47" height="25" fill="#006689" stroke="#464646" stroke-miterlimit="10"/>
  <g>
    <path d="M8.183,26.86a1.923,1.923,0,0,1-.725,1.592,3.171,3.171,0,0,1-2.025.578A4.188,4.188,0,0,1,4.4,28.89a2.748,2.748,0,0,1-.806-.311v-1.4a2.8,2.8,0,0,0,.892.537,2.912,2.912,0,0,0,1.085.22,1.481,1.481,0,0,0,.915-.244.839.839,0,0,0,.32-.712,1.042,1.042,0,0,0-.317-.735,5.015,5.015,0,0,0-1.2-.806,4.073,4.073,0,0,1-1.294-.98,1.917,1.917,0,0,1-.425-1.244,1.979,1.979,0,0,1,.323-1.109,2.134,2.134,0,0,1,.923-.768,3.238,3.238,0,0,1,1.365-.277,5.041,5.041,0,0,1,.983.1,3.024,3.024,0,0,1,.687.2V22.7a2.28,2.28,0,0,0-.754-.4,2.87,2.87,0,0,0-.906-.148,1.442,1.442,0,0,0-.916.268.85.85,0,0,0-.34.7,1.1,1.1,0,0,0,.112.515,1.327,1.327,0,0,0,.355.408,6.084,6.084,0,0,0,.875.527A4.755,4.755,0,0,1,7.74,25.638,1.861,1.861,0,0,1,8.183,26.86Z" fill="#fff"/>
    <path d="M12.271,22.294v6.6h-1.29v-6.6H8.774v-1.1h5.709v1.1Z" fill="#fff"/>
    <path d="M20.542,28.9l-.7-1.945H16.755L16.084,28.9h-1.4l2.917-7.7h1.418l2.927,7.7Zm-2.234-6.548h-.033a2.874,2.874,0,0,1-.112.553L17.11,25.872h2.363L18.415,22.9A2.8,2.8,0,0,1,18.308,22.348Z" fill="#fff"/>
    <path d="M26.832,28.9,25.9,26.672q-.375-.9-1.057-.9h-.591V28.9H22.97v-7.7h2.487a2.875,2.875,0,0,1,1.874.548A1.873,1.873,0,0,1,28,23.272a2.114,2.114,0,0,1-.448,1.362,2.254,2.254,0,0,1-1.244.765v.021a1.2,1.2,0,0,1,.486.363,2.236,2.236,0,0,1,.385.593l1.176,2.52Zm-.178-5.5a1.021,1.021,0,0,0-.362-.835,1.563,1.563,0,0,0-1.023-.3H24.248V24.7h1a1.444,1.444,0,0,0,1.013-.362A1.218,1.218,0,0,0,26.654,23.4Z" fill="#fff"/>
    <path d="M29.361,26.376v-.913H32.3v.913Z" fill="#fff"/>
  </g>
  <g>
    <path d="M9.334,37.733a3.57,3.57,0,0,1-.985.338,5.863,5.863,0,0,1-1.206.124,3.935,3.935,0,0,1-1.961-.475,3.173,3.173,0,0,1-1.289-1.349,4.348,4.348,0,0,1-.446-2.006,4.43,4.43,0,0,1,.516-2.148,3.624,3.624,0,0,1,1.442-1.469,4.13,4.13,0,0,1,2.054-.519,6.536,6.536,0,0,1,1.005.081,3.46,3.46,0,0,1,.87.236v1.3A3.557,3.557,0,0,0,7.5,31.363a2.76,2.76,0,0,0-1.41.36,2.432,2.432,0,0,0-.959,1.023A3.361,3.361,0,0,0,4.79,34.29a2.849,2.849,0,0,0,.7,2.025,2.431,2.431,0,0,0,1.864.747,3.6,3.6,0,0,0,1.982-.543Z" fill="#fff"/>
    <path d="M16.166,37.733a3.57,3.57,0,0,1-.985.338,5.863,5.863,0,0,1-1.206.124,3.935,3.935,0,0,1-1.961-.475,3.173,3.173,0,0,1-1.289-1.349,4.348,4.348,0,0,1-.446-2.006,4.43,4.43,0,0,1,.516-2.148,3.624,3.624,0,0,1,1.442-1.469,4.131,4.131,0,0,1,2.055-.519,6.534,6.534,0,0,1,1,.081,3.46,3.46,0,0,1,.87.236v1.3a3.557,3.557,0,0,0-1.837-.483,2.76,2.76,0,0,0-1.41.36,2.432,2.432,0,0,0-.959,1.023,3.361,3.361,0,0,0-.338,1.544,2.849,2.849,0,0,0,.7,2.025,2.431,2.431,0,0,0,1.864.747,3.6,3.6,0,0,0,1.982-.543Z" fill="#fff"/>
    <path d="M24.711,38.061v-4.9q0-.559.065-1.655h-.022a4.772,4.772,0,0,1-.22.86l-2.331,5.7h-.832l-2.348-5.645q-.091-.285-.22-.914h-.032c.011.1.022.35.035.758s.019.761.019,1.058v4.743H17.638v-7.7h1.826l1.96,4.867a6.58,6.58,0,0,1,.349,1.063h.033l.408-1.074,2.014-4.856h1.751v7.7Z" fill="#fff"/>
    <path d="M31.27,35.321v2.122h-.914V35.321H28.235v-.9h2.121V32.287h.914v2.132h2.121v.9Z" fill="#fff"/>
  </g>
</svg>
