<svg id="Layer_1" data-name="Layer 1" xmlns="http://www.w3.org/2000/svg" xmlns:xlink="http://www.w3.org/1999/xlink" viewBox="0 0 48 48">
  <defs>
    <linearGradient id="New_Gradient_Swatch_4" data-name="New Gradient Swatch 4" x1="7.5" y1="7.5" x2="40.5" y2="40.5" gradientUnits="userSpaceOnUse">
      <stop offset="0" stop-color="#fff"/>
      <stop offset="0.2477" stop-color="#f8f8f8"/>
      <stop offset="0.6057" stop-color="#e5e5e5"/>
      <stop offset="1" stop-color="#c8c8c8"/>
    </linearGradient>
    <linearGradient id="New_Gradient_Swatch_4-2" x1="0.5" y1="12" x2="7.5" y2="12" xlink:href="#New_Gradient_Swatch_4"/>
    <linearGradient id="New_Gradient_Swatch_4-3" x1="0.5" y1="18" x2="7.5" y2="18" xlink:href="#New_Gradient_Swatch_4"/>
    <linearGradient id="New_Gradient_Swatch_4-4" x1="0.5" y1="24" x2="7.5" y2="24" xlink:href="#New_Gradient_Swatch_4"/>
    <linearGradient id="New_Gradient_Swatch_4-5" x1="0.5" y1="30" x2="7.5" y2="30" xlink:href="#New_Gradient_Swatch_4"/>
    <linearGradient id="New_Gradient_Swatch_4-6" x1="0.5" y1="36" x2="7.5" y2="36" xlink:href="#New_Gradient_Swatch_4"/>
    <linearGradient id="linear-gradient" x1="40.5" y1="12" x2="47.5" y2="12" gradientUnits="userSpaceOnUse">
      <stop offset="0" stop-color="#c8c8c8"/>
      <stop offset="0.3943" stop-color="#e5e5e5"/>
      <stop offset="0.7523" stop-color="#f8f8f8"/>
      <stop offset="1" stop-color="#fff"/>
    </linearGradient>
    <linearGradient id="linear-gradient-2" y1="18" y2="18" xlink:href="#linear-gradient"/>
    <linearGradient id="linear-gradient-3" y1="24" y2="24" xlink:href="#linear-gradient"/>
    <linearGradient id="linear-gradient-4" y1="30" y2="30" xlink:href="#linear-gradient"/>
    <linearGradient id="linear-gradient-5" y1="36" y2="36" xlink:href="#linear-gradient"/>
    <linearGradient id="New_Gradient_Swatch_4-7" x1="0.5" y1="12" x2="7.5" y2="12" gradientTransform="translate(32 -8)" xlink:href="#New_Gradient_Swatch_4"/>
    <linearGradient id="New_Gradient_Swatch_4-8" x1="0.5" y1="18" x2="7.5" y2="18" gradientTransform="translate(26 -14)" xlink:href="#New_Gradient_Swatch_4"/>
    <linearGradient id="New_Gradient_Swatch_4-9" x1="0.5" y1="24" x2="7.5" y2="24" gradientTransform="translate(20 -20)" xlink:href="#New_Gradient_Swatch_4"/>
    <linearGradient id="New_Gradient_Swatch_4-10" x1="0.5" y1="30" x2="7.5" y2="30" gradientTransform="translate(14 -26)" xlink:href="#New_Gradient_Swatch_4"/>
    <linearGradient id="New_Gradient_Swatch_4-11" x1="0.5" y1="36" x2="7.5" y2="36" gradientTransform="translate(8 -32)" xlink:href="#New_Gradient_Swatch_4"/>
    <linearGradient id="linear-gradient-6" gradientTransform="translate(-8 32)" xlink:href="#linear-gradient"/>
    <linearGradient id="linear-gradient-7" y1="18" y2="18" gradientTransform="translate(-14 26)" xlink:href="#linear-gradient"/>
    <linearGradient id="linear-gradient-8" y1="24" y2="24" gradientTransform="translate(-20 20)" xlink:href="#linear-gradient"/>
    <linearGradient id="linear-gradient-9" y1="30" y2="30" gradientTransform="translate(-26 14)" xlink:href="#linear-gradient"/>
    <linearGradient id="linear-gradient-10" y1="36" y2="36" gradientTransform="translate(-32 8)" xlink:href="#linear-gradient"/>
  </defs>
  <polygon points="39.5 41.5 8.5 41.5 6.5 39.5 6.5 8.5 8.5 6.5 39.5 6.5 41.5 8.5 41.5 39.5 39.5 41.5" stroke="#464646" stroke-miterlimit="10" fill="url(#New_Gradient_Swatch_4)"/>
  <polygon points="36.843 38.5 11.157 38.5 9.5 36.843 9.5 11.157 11.157 9.5 36.843 9.5 38.5 11.157 38.5 36.843 36.843 38.5" fill="none" stroke="#6e6e6e" stroke-linejoin="round"/>
  <rect x="0.5" y="10.5" width="7" height="3" stroke="#464646" stroke-miterlimit="10" stroke-width="1.0444" fill="url(#New_Gradient_Swatch_4-2)"/>
  <rect x="0.5" y="16.5" width="7" height="3" stroke="#464646" stroke-miterlimit="10" fill="url(#New_Gradient_Swatch_4-3)"/>
  <rect x="0.5" y="22.5" width="7" height="3" stroke="#464646" stroke-miterlimit="10" fill="url(#New_Gradient_Swatch_4-4)"/>
  <rect x="0.5" y="28.5" width="7" height="3" stroke="#464646" stroke-miterlimit="10" fill="url(#New_Gradient_Swatch_4-5)"/>
  <rect x="0.5" y="34.5" width="7" height="3" stroke="#464646" stroke-miterlimit="10" fill="url(#New_Gradient_Swatch_4-6)"/>
  <rect x="40.5" y="10.5" width="7" height="3" stroke="#464646" stroke-miterlimit="10" fill="url(#linear-gradient)"/>
  <rect x="40.5" y="16.5" width="7" height="3" stroke="#464646" stroke-miterlimit="10" fill="url(#linear-gradient-2)"/>
  <rect x="40.5" y="22.5" width="7" height="3" stroke="#464646" stroke-miterlimit="10" fill="url(#linear-gradient-3)"/>
  <rect x="40.5" y="28.5" width="7" height="3" stroke="#464646" stroke-miterlimit="10" fill="url(#linear-gradient-4)"/>
  <rect x="40.5" y="34.5" width="7" height="3" stroke="#464646" stroke-miterlimit="10" fill="url(#linear-gradient-5)"/>
  <rect x="32.5" y="2.5" width="7" height="3" transform="translate(40 -32) rotate(90)" stroke="#464646" stroke-miterlimit="10" fill="url(#New_Gradient_Swatch_4-7)"/>
  <rect x="26.5" y="2.5" width="7" height="3" transform="translate(34 -26) rotate(90)" stroke="#464646" stroke-miterlimit="10" fill="url(#New_Gradient_Swatch_4-8)"/>
  <rect x="20.5" y="2.5" width="7" height="3" transform="translate(28 -20) rotate(90)" stroke="#464646" stroke-miterlimit="10" fill="url(#New_Gradient_Swatch_4-9)"/>
  <rect x="14.5" y="2.5" width="7" height="3" transform="translate(22 -14) rotate(90)" stroke="#464646" stroke-miterlimit="10" fill="url(#New_Gradient_Swatch_4-10)"/>
  <rect x="8.5" y="2.5" width="7" height="3" transform="translate(16 -8) rotate(90)" stroke="#464646" stroke-miterlimit="10" fill="url(#New_Gradient_Swatch_4-11)"/>
  <rect x="32.5" y="42.5" width="7" height="3" transform="translate(80 8) rotate(90)" stroke="#464646" stroke-miterlimit="10" fill="url(#linear-gradient-6)"/>
  <rect x="26.5" y="42.5" width="7" height="3" transform="translate(74 14) rotate(90)" stroke="#464646" stroke-miterlimit="10" fill="url(#linear-gradient-7)"/>
  <rect x="20.5" y="42.5" width="7" height="3" transform="translate(68 20) rotate(90)" stroke="#464646" stroke-miterlimit="10" fill="url(#linear-gradient-8)"/>
  <rect x="14.5" y="42.5" width="7" height="3" transform="translate(62 26) rotate(90)" stroke="#464646" stroke-miterlimit="10" fill="url(#linear-gradient-9)"/>
  <rect x="8.5" y="42.5" width="7" height="3" transform="translate(56 32) rotate(90)" stroke="#464646" stroke-miterlimit="10" fill="url(#linear-gradient-10)"/>
    <polyline points="10.002 24.5 12.013 24.5 14.502 22.011 14.502 21" fill="none" stroke="#147391" stroke-linejoin="round"/>
    <circle cx="14.5" cy="18.5" r="2" fill="none" stroke="#147391" stroke-miterlimit="10"/>
    <polyline points="37.998 23.5 30.591 23.5 28.487 21.461 28.487 16.5" fill="none" stroke="#147391" stroke-linejoin="round"/>
    <polyline points="37.998 29.496 30.5 29.5 28.5 31.5 28.5 33" fill="none" stroke="#147391" stroke-linejoin="round"/>
    <circle cx="28.5" cy="14.5" r="2" fill="none" stroke="#147391" stroke-miterlimit="10"/>
    <circle cx="24.5" cy="27.5" r="2" fill="none" stroke="#147391" stroke-miterlimit="10"/>
    <circle cx="12.5" cy="35.5" r="1" fill="#147391" stroke="#147391" stroke-miterlimit="10"/>
    <circle cx="28.5" cy="34.5" r="2" fill="none" stroke="#147391" stroke-miterlimit="10"/>
    <polyline points="10 30.5 13.5 30.5 20.5 23.5 20.5 16.998" fill="none" stroke="#147391" stroke-linejoin="round"/>
    <polyline points="18.5 38 18.5 29.5 20.5 27.5 22.75 27.531" fill="none" stroke="#147391" stroke-linejoin="round"/>
    <circle cx="20.5" cy="14.5" r="2" fill="none" stroke="#147391" stroke-miterlimit="10"/>
</svg>
