<svg version="1.1" id="Layer_1" xmlns="http://www.w3.org/2000/svg" xmlns:xlink="http://www.w3.org/1999/xlink" x="0px" y="0px"
	 viewBox="0 0 48 48" enable-background="new 0 0 48 48" xml:space="preserve">
			<polygon fill="#888888" points="23.5,23.6 43.5,12.1 43.5,35.1 23.5,46.7 			"/>
<linearGradient id="SVGID_1_" gradientUnits="userSpaceOnUse" x1="13.4997" y1="2.0655" x2="33.5003" y2="22.0662">
	<stop  offset="0" style="stop-color:#FFFFFF"/>
	<stop  offset="0.2214" style="stop-color:#F8F8F8"/>
	<stop  offset="0.5415" style="stop-color:#E5E5E5"/>
	<stop  offset="0.92" style="stop-color:#C6C6C6"/>
	<stop  offset="1" style="stop-color:#BEBEBE"/>
</linearGradient>
<polygon fill="url(#SVGID_1_)" points="3.5,12.1 23.5,0.5 43.5,12.1 23.5,23.6 "/>
<linearGradient id="SVGID_2_" gradientUnits="userSpaceOnUse" x1="-0.1467" y1="15.7119" x2="27.1467" y2="43.0053">
	<stop  offset="0" style="stop-color:#F2F2F2"/>
	<stop  offset="0.5" style="stop-color:#CCCCCC"/>
	<stop  offset="0.6296" style="stop-color:#C7C7C7"/>
	<stop  offset="0.7792" style="stop-color:#B9B9B9"/>
	<stop  offset="0.9383" style="stop-color:#A2A2A2"/>
	<stop  offset="0.99" style="stop-color:#999999"/>
</linearGradient>
<polygon fill="url(#SVGID_2_)" points="23.5,23.6 23.5,46.7 3.5,35.1 3.5,12.1 "/>
<polyline fill="none" stroke="#6E6E6E" stroke-linejoin="round" stroke-miterlimit="10" points="43.5,12.1 23.5,23.6 3.5,12.1 "/>
<line fill="none" stroke="#6E6E6E" stroke-linejoin="round" stroke-miterlimit="10" x1="23.5" y1="23.6" x2="23.5" y2="46.7"/>
<polygon fill="none" stroke="#464646" stroke-linejoin="round" stroke-miterlimit="10" points="23.5,0.5 3.5,12.1 3.5,35.1 
	23.5,46.7 43.5,35.1 43.5,12.1 "/>
			<polygon fill="#3C91AF" points="23.5,23.6 35.5,16.7 35.5,30.5 23.5,37.4 			"/>
<linearGradient id="SVGID_3_" gradientUnits="userSpaceOnUse" x1="17.4998" y1="10.6697" x2="29.5002" y2="22.6701">
	<stop  offset="0" style="stop-color:#CDE6EB"/>
	<stop  offset="0.2214" style="stop-color:#C6E2E8"/>
	<stop  offset="0.5419" style="stop-color:#B3D8E1"/>
	<stop  offset="0.9212" style="stop-color:#93C7D5"/>
	<stop  offset="1" style="stop-color:#8CC3D2"/>
</linearGradient>
<polygon fill="url(#SVGID_3_)" points="11.5,16.7 23.5,9.7 35.5,16.7 23.5,23.6 "/>
<linearGradient id="SVGID_4_" gradientUnits="userSpaceOnUse" x1="9.312" y1="18.8575" x2="25.688" y2="35.2336">
	<stop  offset="0" style="stop-color:#AFD7E1"/>
	<stop  offset="0.1588" style="stop-color:#A4D0DC"/>
	<stop  offset="0.7059" style="stop-color:#80BCCE"/>
	<stop  offset="1" style="stop-color:#73B4C8"/>
</linearGradient>
<polygon fill="url(#SVGID_4_)" points="23.5,23.6 23.5,37.4 11.5,30.5 11.5,16.7 "/>
<polyline fill="none" stroke="#147391" stroke-linejoin="round" stroke-miterlimit="10" points="35.5,16.7 23.5,23.6 11.5,16.7 "/>
<linearGradient id="SVGID_5_" gradientUnits="userSpaceOnUse" x1="20.047" y1="27.0624" x2="26.953" y2="33.9685">
	<stop  offset="0" style="stop-color:#AFD7E1"/>
	<stop  offset="0.1588" style="stop-color:#A4D0DC"/>
	<stop  offset="0.7059" style="stop-color:#80BCCE"/>
	<stop  offset="1" style="stop-color:#73B4C8"/>
</linearGradient>
<line fill="url(#SVGID_5_)" stroke="#147391" stroke-linejoin="round" stroke-miterlimit="10" x1="23.5" y1="23.6" x2="23.5" y2="37.4"/>
<polygon fill="none" stroke="#147391" stroke-linejoin="round" stroke-miterlimit="10" points="23.5,9.7 11.5,16.7 11.5,30.5 
	23.5,37.4 35.5,30.5 35.5,16.7 "/>
</svg>
