<svg version="1.1" id="Layer_1" xmlns="http://www.w3.org/2000/svg" xmlns:xlink="http://www.w3.org/1999/xlink" x="0px" y="0px"
	 viewBox="0 0 48 48" enable-background="new 0 0 48 48" xml:space="preserve">
<linearGradient id="SVGID_1_" gradientUnits="userSpaceOnUse" x1="-5.25" y1="-1930.25" x2="33.25" y2="-1968.75" gradientTransform="matrix(1 0 0 -1 0 -1924)">
	<stop  offset="0" style="stop-color:#FFFFFF"/>
	<stop  offset="0.2323" style="stop-color:#FAFAFA"/>
	<stop  offset="0.4964" style="stop-color:#EDEDED"/>
	<stop  offset="0.775" style="stop-color:#D6D6D6"/>
	<stop  offset="1" style="stop-color:#BEBEBE"/>
</linearGradient>
<polygon fill="url(#SVGID_1_)" stroke="#464646" stroke-miterlimit="10" points="21.5,0.5 0.5,0.5 0.5,44.5 33.5,44.5 33.5,12.5 "/>
<linearGradient id="SVGID_2_" gradientUnits="userSpaceOnUse" x1="18.5" y1="-1927.5" x2="30.5" y2="-1939.5" gradientTransform="matrix(1 0 0 -1 0 -1924)">
	<stop  offset="0" style="stop-color:#FFFFFF"/>
	<stop  offset="0.2214" style="stop-color:#F8F8F8"/>
	<stop  offset="0.5415" style="stop-color:#E5E5E5"/>
	<stop  offset="0.92" style="stop-color:#C6C6C6"/>
	<stop  offset="1" style="stop-color:#BEBEBE"/>
</linearGradient>
<polygon fill="url(#SVGID_2_)" stroke="#464646" stroke-linejoin="round" stroke-miterlimit="10" points="21.5,0.5 21.5,12.5 
	33.5,12.5 "/>
<polyline fill="none" stroke="#5A5A5A" stroke-miterlimit="10" points="4.5,13 4.5,39.5 25,39.5 "/>
<rect x="8.5" y="18.5" fill="none" stroke="#5A5A5A" stroke-miterlimit="10" width="17" height="17"/>
<polygon fill="#3C91AF" points="38.5,38.3 38.5,47.5 46.5,42.9 46.5,33.7 "/>
<polygon fill="#3C91AF" points="30.5,24.5 30.5,33.7 38.5,29 38.5,19.8 "/>
<linearGradient id="SVGID_3_" gradientUnits="userSpaceOnUse" x1="34.4999" y1="29.6657" x2="42.5001" y2="37.666">
	<stop  offset="0" style="stop-color:#CDE6EB"/>
	<stop  offset="0.2214" style="stop-color:#C6E2E8"/>
	<stop  offset="0.5419" style="stop-color:#B3D8E1"/>
	<stop  offset="0.9212" style="stop-color:#93C7D5"/>
	<stop  offset="1" style="stop-color:#8CC3D2"/>
</linearGradient>
<polygon fill="url(#SVGID_3_)" points="46.5,33.7 38.5,38.3 30.5,33.7 38.5,29 "/>
<linearGradient id="SVGID_4_" gradientUnits="userSpaceOnUse" x1="18.7394" y1="23.591" x2="40.5742" y2="45.4258">
	<stop  offset="0" style="stop-color:#AFD7E1"/>
	<stop  offset="0.1588" style="stop-color:#A4D0DC"/>
	<stop  offset="0.7059" style="stop-color:#80BCCE"/>
	<stop  offset="1" style="stop-color:#73B4C8"/>
</linearGradient>
<polygon fill="url(#SVGID_4_)" points="30.5,33.7 30.5,33.7 30.5,33.7 30.5,24.5 22.5,19.8 22.5,38.2 38.5,47.5 38.5,38.3 "/>
	<line fill="none" stroke="#147391" stroke-linejoin="round" stroke-miterlimit="10" x1="30.5" y1="33.7" x2="22.5" y2="29"/>
	<line fill="none" stroke="#147391" stroke-linejoin="round" stroke-miterlimit="10" x1="38.5" y1="38.3" x2="38.5" y2="47.5"/>
<line fill="none" stroke="#147391" stroke-linejoin="round" stroke-miterlimit="10" x1="30.5" y1="42.9" x2="30.5" y2="24.5"/>
<linearGradient id="SVGID_5_" gradientUnits="userSpaceOnUse" x1="26.4999" y1="15.8305" x2="34.5001" y2="23.8308">
	<stop  offset="0" style="stop-color:#CDE6EB"/>
	<stop  offset="0.2214" style="stop-color:#C6E2E8"/>
	<stop  offset="0.5419" style="stop-color:#B3D8E1"/>
	<stop  offset="0.9212" style="stop-color:#93C7D5"/>
	<stop  offset="1" style="stop-color:#8CC3D2"/>
</linearGradient>
<polygon fill="url(#SVGID_5_)" points="22.5,19.8 30.5,15.2 38.5,19.8 30.5,24.5 "/>
<polyline fill="none" stroke="#147391" stroke-linejoin="round" stroke-miterlimit="10" points="38.5,19.8 30.5,24.5 22.5,19.8 "/>
<polyline fill="none" stroke="#147391" stroke-linejoin="round" stroke-miterlimit="10" points="46.5,33.7 38.5,38.3 30.5,33.7 
	38.5,29 "/>
<path fill="none" stroke="#464646" stroke-linejoin="round" stroke-miterlimit="10" d="M46.5,33.7l-8-4.6l0-9.2l-8-4.6l-8,4.6v18.4
	l16,9.3l8-4.6L46.5,33.7z"/>
</svg>
