<svg id="Layer_1" data-name="Layer 1" xmlns="http://www.w3.org/2000/svg" xmlns:xlink="http://www.w3.org/1999/xlink" viewBox="0 0 48 48">
    <linearGradient id="linear-gradient" x1="0.5" y1="0.5" x2="47.5" y2="47.5" gradientUnits="userSpaceOnUse">
      <stop offset="0" stop-color="#fff"/>
      <stop offset="0.2323" stop-color="#fafafa"/>
      <stop offset="0.4964" stop-color="#ededed"/>
      <stop offset="0.775" stop-color="#d6d6d6"/>
      <stop offset="1" stop-color="#bebebe"/>
    </linearGradient>
    <linearGradient id="linear-gradient-2" x1="17.2434" y1="0.2973" x2="30.7566" y2="23.7027" gradientUnits="userSpaceOnUse">
      <stop offset="0" stop-color="#147391"/>
      <stop offset="0.7793" stop-color="#73b4c8"/>
    </linearGradient>
    <rect x="0.5" y="0.5" width="47.0001" height="47" stroke="#464646" stroke-miterlimit="10" fill="url(#linear-gradient)"/>
    <line x1="41.5" y1="20.5" x2="6.5" y2="20.5" fill="none" stroke="silver" stroke-miterlimit="10"/>
    <line x1="41.5" y1="27.5" x2="6.5" y2="27.5" fill="none" stroke="silver" stroke-miterlimit="10"/>
    <line x1="41.5" y1="34.5" x2="6.5" y2="34.5" fill="none" stroke="silver" stroke-miterlimit="10"/>
    <line x1="13.5" y1="17.4999" x2="13.5" y2="41.5" fill="none" stroke="silver" stroke-miterlimit="10"/>
    <line x1="20.5" y1="17.4999" x2="20.5" y2="41.5" fill="none" stroke="silver" stroke-miterlimit="10"/>
    <line x1="27.5" y1="17.4999" x2="27.5" y2="41.5" fill="none" stroke="silver" stroke-miterlimit="10"/>
    <line x1="34.5" y1="17.4999" x2="34.5" y2="41.5" fill="none" stroke="silver" stroke-miterlimit="10"/>
    <polyline points="41.5 17.5 41.5 41.5 6.5 41.5 6.5 17.5" fill="none" stroke="#6e6e6e" stroke-miterlimit="10"/>
  <rect x="6.5" y="6.5" width="35" height="11" stroke="#147391" stroke-linecap="round" stroke-miterlimit="10" fill="url(#linear-gradient-2)"/>
  <line x1="13.5" y1="7" x2="13.5" y2="17.5" fill="none" stroke="#257d99" stroke-miterlimit="10"/>
  <line x1="20.5" y1="7" x2="20.5" y2="17.5" fill="none" stroke="#257d99" stroke-miterlimit="10"/>
  <line x1="27.5" y1="7" x2="27.5" y2="17.5" fill="none" stroke="#257d99" stroke-miterlimit="10"/>
  <line x1="34.5" y1="7" x2="34.5" y2="17.5" fill="none" stroke="#257d99" stroke-miterlimit="10"/>
  <line x1="41.5" y1="13.5" x2="6.5" y2="13.5" fill="none" stroke="#257d99" stroke-miterlimit="10"/>
    <polyline points="38.542 13.402 34 24 27 21 21 34 13 31 7 39" fill="none" stroke="#147391" stroke-linecap="round" stroke-linejoin="round" stroke-width="2"/>
    <polygon points="35.746 14.098 38.24 14.106 39.966 15.907 40 10 35.746 14.098" fill="#147391"/>
</svg>
