<svg id="Layer_1" data-name="Layer 1" xmlns="http://www.w3.org/2000/svg" xmlns:xlink="http://www.w3.org/1999/xlink" width="48" height="48" viewBox="0 0 48 48">
  <defs>
    <linearGradient id="linear-gradient" x1="3.5" y1="41.5" x2="45" gradientTransform="matrix(1, 0, 0, -1, 0, 48)" gradientUnits="userSpaceOnUse">
      <stop offset="0" stop-color="#fff"/>
      <stop offset="0.232" stop-color="#fafafa"/>
      <stop offset="0.496" stop-color="#ededed"/>
      <stop offset="0.775" stop-color="#d6d6d6"/>
      <stop offset="1" stop-color="#bebebe"/>
    </linearGradient>
    <linearGradient id="paper_gradient" data-name="paper gradient" x1="29.25" y1="44.25" x2="42.25" y2="31.25" gradientTransform="matrix(1, 0, 0, -1, 0, 48)" gradientUnits="userSpaceOnUse">
      <stop offset="0" stop-color="#fff"/>
      <stop offset="0.221" stop-color="#f8f8f8"/>
      <stop offset="0.541" stop-color="#e5e5e5"/>
      <stop offset="0.92" stop-color="#c6c6c6"/>
      <stop offset="1" stop-color="#bebebe"/>
    </linearGradient>
  </defs>
  <polygon points="32.5 0.5 9.5 0.5 9.5 47.5 45.5 47.5 45.5 13.5 32.5 0.5" stroke="#464646" stroke-miterlimit="10" fill="url(#linear-gradient)"/>
  <polygon points="32.5 0.5 32.5 13.5 45.5 13.5 32.5 0.5" stroke="#464646" stroke-linejoin="round" fill="url(#paper_gradient)"/>
  <rect x="0.5" y="26.5" width="47" height="16" fill="#eb780a" stroke="#464646" stroke-miterlimit="10"/>
  <g>
    <path d="M9.107,32.583a2.389,2.389,0,0,1-1.4,2.219,3.5,3.5,0,0,1-1.536.322H5.256V37.9H3.978v-7.7H6.357a3.021,3.021,0,0,1,2.039.618A2.22,2.22,0,0,1,9.107,32.583Zm-1.343.043a1.238,1.238,0,0,0-.416-1,1.828,1.828,0,0,0-1.211-.352H5.256v2.771h.822a1.929,1.929,0,0,0,1.24-.359A1.279,1.279,0,0,0,7.764,32.626Z" fill="#fff"/>
    <path d="M13.173,37.9v-.758h-.022a1.829,1.829,0,0,1-1.627.892,1.785,1.785,0,0,1-1.278-.441A1.558,1.558,0,0,1,9.778,36.4a1.7,1.7,0,0,1,.457-1.241,2.205,2.205,0,0,1,1.343-.58l1.606-.22q0-1.123-1.042-1.123a2.952,2.952,0,0,0-.981.167,3.112,3.112,0,0,0-.846.446v-1.1a3.173,3.173,0,0,1,.889-.338,4.413,4.413,0,0,1,1.067-.151,2.122,2.122,0,0,1,1.592.551,2.2,2.2,0,0,1,.534,1.6V37.9ZM11,36.268a.7.7,0,0,0,.257.567,1,1,0,0,0,.656.212,1.2,1.2,0,0,0,.913-.379,1.332,1.332,0,0,0,.36-.953v-.494L12,35.376a1.5,1.5,0,0,0-.782.28A.788.788,0,0,0,11,36.268Z" fill="#fff"/>
    <path d="M18.716,37.842a1.538,1.538,0,0,1-.4.126,2.644,2.644,0,0,1-.555.062q-1.617,0-1.617-1.74V33.4H15.23v-1h.913V31.128l1.246-.381V32.4h1.327v1H17.389v2.664a1.135,1.135,0,0,0,.188.738.741.741,0,0,0,.591.218,1.025,1.025,0,0,0,.271-.046.984.984,0,0,0,.277-.121Z" fill="#fff"/>
    <path d="M23.034,33.6a1.039,1.039,0,0,0-.317-.129,1.583,1.583,0,0,0-.4-.059,1.031,1.031,0,0,0-.875.462,2.01,2.01,0,0,0-.333,1.2V37.9H19.865V32.4h1.241v1.068h.021a1.828,1.828,0,0,1,.554-.859,1.3,1.3,0,0,1,.854-.306,1.318,1.318,0,0,1,.5.075Z" fill="#fff"/>
    <path d="M26.848,37.9v-.758h-.022a1.83,1.83,0,0,1-1.627.892,1.789,1.789,0,0,1-1.279-.441,1.56,1.56,0,0,1-.467-1.192,1.7,1.7,0,0,1,.457-1.241,2.2,2.2,0,0,1,1.342-.58l1.606-.22q0-1.123-1.042-1.123a2.942,2.942,0,0,0-.98.167,3.112,3.112,0,0,0-.846.446v-1.1a3.16,3.16,0,0,1,.889-.338,4.4,4.4,0,0,1,1.066-.151,2.125,2.125,0,0,1,1.593.551,2.2,2.2,0,0,1,.534,1.6V37.9Zm-2.176-1.628a.7.7,0,0,0,.258.567,1,1,0,0,0,.656.212,1.2,1.2,0,0,0,.912-.379,1.327,1.327,0,0,0,.36-.953v-.494l-1.186.155a1.492,1.492,0,0,0-.782.28A.789.789,0,0,0,24.672,36.268Z" fill="#fff"/>
    <path d="M33.132,37.9V34.807a2.047,2.047,0,0,0-.261-1.152.947.947,0,0,0-.841-.379,1.178,1.178,0,0,0-.931.427,1.578,1.578,0,0,0-.368,1.067V37.9H29.49V32.4h1.241v.88h.022a1.97,1.97,0,0,1,1.783-1.015,1.692,1.692,0,0,1,1.356.559,2.552,2.552,0,0,1,.48,1.7V37.9Z" fill="#fff"/>
  </g>
</svg>
