<svg id="Layer_1" data-name="Layer 1" xmlns="http://www.w3.org/2000/svg" xmlns:xlink="http://www.w3.org/1999/xlink" viewBox="0 0 48 48">
  <defs>
    <linearGradient id="linear-gradient" x1="12.8742" y1="7.8423" x2="31.1258" y2="26.0939" gradientUnits="userSpaceOnUse">
      <stop offset="0" stop-color="#73b4c8"/>
      <stop offset="0.1747" stop-color="#6aaec3"/>
      <stop offset="0.4567" stop-color="#529eb5"/>
      <stop offset="0.8089" stop-color="#2c839f"/>
      <stop offset="1" stop-color="#147391"/>
    </linearGradient>
    <linearGradient id="linear-gradient-2" x1="12.6631" y1="7.2906" x2="21.7235" y2="9.7183" xlink:href="#linear-gradient"/>
    <linearGradient id="linear-gradient-3" x1="13.2605" y1="10.1629" x2="24.0639" y2="13.0577" xlink:href="#linear-gradient"/>
    <linearGradient id="linear-gradient-4" x1="14.6156" y1="12.9029" x2="26.1757" y2="16.0004" xlink:href="#linear-gradient"/>
    <linearGradient id="linear-gradient-5" x1="16.133" y1="15.564" x2="28.318" y2="18.829" xlink:href="#linear-gradient"/>
    <linearGradient id="linear-gradient-6" x1="18.2754" y1="18.3926" x2="29.8355" y2="21.4901" xlink:href="#linear-gradient"/>
    <linearGradient id="linear-gradient-7" x1="20.3452" y1="21.4918" x2="30.9679" y2="24.3381" xlink:href="#linear-gradient"/>
    <linearGradient id="linear-gradient-8" x1="22.9675" y1="25.029" x2="31.0905" y2="27.2056" xlink:href="#linear-gradient"/>
    <linearGradient id="paper_gradient" data-name="paper gradient" x1="34.0467" y1="18.194" x2="39.9372" y2="24.0846" gradientUnits="userSpaceOnUse">
      <stop offset="0" stop-color="#fff"/>
      <stop offset="0.2214" stop-color="#f8f8f8"/>
      <stop offset="0.5415" stop-color="#e5e5e5"/>
      <stop offset="0.92" stop-color="#c6c6c6"/>
      <stop offset="1" stop-color="#bebebe"/>
    </linearGradient>
    <linearGradient id="New_Gradient_Swatch_3" data-name="New Gradient Swatch 3" x1="22.0658" y1="27.308" x2="37.5293" y2="42.7715" gradientUnits="userSpaceOnUse">
      <stop offset="0" stop-color="#afd7e1"/>
      <stop offset="0.1588" stop-color="#a4d0dc"/>
      <stop offset="0.7059" stop-color="#80bcce"/>
      <stop offset="1" stop-color="#73b4c8"/>
    </linearGradient>
  </defs>
    <path d="M33.4362,16.9681A16.47,16.47,0,0,1,22,32.6464,16.4681,16.4681,0,1,0,22,1.29,16.47,16.47,0,0,1,33.4362,16.9681Z" fill="#dcdcdc"/>
    <path d="M22,32.6464A16.4681,16.4681,0,1,0,22,1.29" fill="none" stroke="#464646" stroke-linecap="round" stroke-linejoin="round"/>
    <path d="M16.9681,33.4362A16.4422,16.4422,0,0,0,22,32.6464,16.4651,16.4651,0,0,1,22,1.29a16.4672,16.4672,0,1,0-5.0319,32.1464Z" fill="#dcdcdc"/>
    <path d="M22,1.29a16.4681,16.4681,0,1,0,0,31.3566" fill="none" stroke="#464646" stroke-linecap="round" stroke-linejoin="round"/>
    <ellipse cx="22" cy="16.9681" rx="11.4362" ry="15.6783" stroke="#147391" stroke-miterlimit="10" fill="url(#linear-gradient)"/>
  <line x1="10.5606" y1="15.1371" x2="23.826" y2="1.8718" stroke="#147391" stroke-miterlimit="10" fill="url(#linear-gradient-2)"/>
  <line x1="10.7536" y1="19.5189" x2="26.5708" y2="3.7017" stroke="#147391" stroke-miterlimit="10" fill="url(#linear-gradient-3)"/>
  <line x1="11.933" y1="22.9142" x2="28.8582" y2="5.9891" stroke="#147391" stroke-miterlimit="10" fill="url(#linear-gradient-4)"/>
  <line x1="13.3055" y1="26.1166" x2="31.1456" y2="8.2765" stroke="#147391" stroke-miterlimit="10" fill="url(#linear-gradient-5)"/>
  <line x1="15.5928" y1="28.4039" x2="32.518" y2="11.4788" stroke="#147391" stroke-miterlimit="10" fill="url(#linear-gradient-6)"/>
  <line x1="17.8802" y1="30.6913" x2="33.4329" y2="15.1386" stroke="#147391" stroke-miterlimit="10" fill="url(#linear-gradient-7)"/>
  <line x1="21.0825" y1="32.0637" x2="32.9755" y2="20.1708" stroke="#147391" stroke-miterlimit="10" fill="url(#linear-gradient-8)"/>
    <polyline points="28.579 23.662 41.847 16.483 45.405 18.617 32.689 25.238" fill="url(#paper_gradient)"/>
    <polygon points="41.847 14.538 41.847 16.483 28.579 23.662 27.118 22.452 41.847 14.538" fill="#969696"/>
    <polygon points="47.482 17.535 47.482 39.725 32.689 47.612 32.689 25.238 47.482 17.535" fill="#3c91af"/>
    <line x1="41.8471" y1="16.483" x2="28.5791" y2="23.6617" fill="#969696" stroke="#6e6e6e" stroke-linejoin="round"/>
    <path d="M32.6892,47.6117a7.3439,7.3439,0,0,1-3.7244-.9508,3.4093,3.4093,0,0,1-1.9106-2.94V22.32a11.7455,11.7455,0,0,0,2.321,2.0034,8.1424,8.1424,0,0,0,3.314.9149Z" fill="url(#New_Gradient_Swatch_3)"/>
    <line x1="32.6895" y1="25.2379" x2="45.4049" y2="18.6169" fill="none" stroke="#147391" stroke-miterlimit="10"/>
    <path d="M27.0542,22.32a11.7455,11.7455,0,0,0,2.321,2.0034,8.1424,8.1424,0,0,0,3.314.9149V47.6117" fill="none" stroke="#147391" stroke-miterlimit="10"/>
    <path d="M45.3976,18.6207l.0073-.0038L41.8471,16.483V14.5375L27.0542,22.32V43.7205a3.4094,3.4094,0,0,0,1.91,2.94,7.3445,7.3445,0,0,0,3.7245.9508l14.7932-7.8869v-22.19Z" fill="none" stroke="#464646" stroke-linejoin="round"/>
</svg>
