<svg id="Layer_1" data-name="Layer 1" xmlns="http://www.w3.org/2000/svg" xmlns:xlink="http://www.w3.org/1999/xlink" viewBox="0 0 48 48">
    <linearGradient id="linear-gradient" x1="3.25" y1="31.25" x2="36.75" y2="-2.25" gradientUnits="userSpaceOnUse">
      <stop offset="0" stop-color="#fff"/>
      <stop offset="0.232" stop-color="#fafafa"/>
      <stop offset="0.496" stop-color="#ededed"/>
      <stop offset="0.775" stop-color="#d6d6d6"/>
      <stop offset="1" stop-color="#bebebe"/>
    </linearGradient>
    <linearGradient id="New_Gradient_Swatch_2" data-name="New Gradient Swatch 2" x1="9.292" y1="3.31" x2="14.707" y2="12.69" gradientUnits="userSpaceOnUse">
      <stop offset="0" stop-color="#fff"/>
      <stop offset="0.228" stop-color="#fafafa"/>
      <stop offset="0.488" stop-color="#ededed"/>
      <stop offset="0.762" stop-color="#d7d6d6"/>
      <stop offset="1" stop-color="#bdbcbc"/>
    </linearGradient>
    <linearGradient id="New_Gradient_Swatch_2-2" x1="25.292" y1="6.31" x2="30.707" y2="15.69" xlink:href="#New_Gradient_Swatch_2"/>
    <linearGradient id="front_-45" data-name="front -45" x1="21.167" y1="8.692" x2="23.833" y2="13.309" gradientUnits="userSpaceOnUse">
      <stop offset="0" stop-color="#f2f2f2"/>
      <stop offset="0.5" stop-color="#ccc"/>
      <stop offset="0.63" stop-color="#c7c7c7"/>
      <stop offset="0.779" stop-color="#b9b9b9"/>
      <stop offset="0.938" stop-color="#a2a2a2"/>
      <stop offset="0.99" stop-color="#999"/>
    </linearGradient>
    <linearGradient id="front_-45-2" x1="5.167" y1="5.692" x2="7.832" y2="10.308" xlink:href="#front_-45"/>
    <linearGradient id="New_Gradient_Swatch_2-3" x1="9.292" y1="16.31" x2="14.707" y2="25.69" xlink:href="#New_Gradient_Swatch_2"/>
    <linearGradient id="front_-45-3" x1="5.167" y1="18.692" x2="7.832" y2="23.308" xlink:href="#front_-45"/>
    <linearGradient id="New_Gradient_Swatch_1" data-name="New Gradient Swatch 1" x1="30.5" y1="28" x2="38.5" y2="36" gradientUnits="userSpaceOnUse">
      <stop offset="0" stop-color="#cde6eb"/>
      <stop offset="0.221" stop-color="#c6e2e8"/>
      <stop offset="0.542" stop-color="#b3d8e1"/>
      <stop offset="0.921" stop-color="#93c7d5"/>
      <stop offset="1" stop-color="#8cc3d2"/>
    </linearGradient>
    <linearGradient id="linear-gradient-2" x1="24.99" y1="33.51" x2="35.99" y2="44.51" gradientUnits="userSpaceOnUse">
      <stop offset="0" stop-color="#afd7e1"/>
      <stop offset="0.159" stop-color="#a4d0dc"/>
      <stop offset="0.706" stop-color="#80bcce"/>
      <stop offset="1" stop-color="#73b4c8"/>
    </linearGradient>
  <rect x="0.5" y="0.5" width="39" height="28" stroke="#464646" stroke-miterlimit="10" fill="url(#linear-gradient)"/>
  <rect x="2.5" y="2.5" width="35" height="24" fill="none" stroke="#8e8c8c" stroke-miterlimit="10"/>
  <polyline points="28.5 14 28.5 15.5 13 15.5" fill="none" stroke="#8e8c8c" stroke-miterlimit="10"/>
  <polygon points="12 10.5 5.5 10.5 5.5 5.5 18.5 5.5 18.5 10.5 15 10.5 12 10.5" stroke="#8e8c8c" stroke-miterlimit="10" fill="url(#New_Gradient_Swatch_2)"/>
  <line x1="12.5" y1="11" x2="12.5" y2="19" fill="none" stroke="#8e8c8c" stroke-miterlimit="10"/>
  <polyline points="31.008 13.5 21.5 13.5 21.5 8.5 34.5 8.5 34.5 13.5 31 13.5" stroke="#8e8c8c" stroke-miterlimit="10" fill="url(#New_Gradient_Swatch_2-2)"/>
  <polyline points="23.502 13.5 21.5 13.5 21.5 8.5 23.5 8.5 23.5 13.5 22 13.5" stroke="#8e8c8c" stroke-miterlimit="10" fill="url(#front_-45)"/>
  <rect x="5.5" y="5.5" width="2" height="5" stroke="#8e8c8c" stroke-miterlimit="10" fill="url(#front_-45-2)"/>
  <polygon points="15 18.5 18.5 18.5 18.5 23.5 5.5 23.5 5.5 18.5 12 18.5 15 18.5" stroke="#8e8c8c" stroke-miterlimit="10" fill="url(#New_Gradient_Swatch_2-3)"/>
  <rect x="5.5" y="18.5" width="2" height="5" stroke="#8e8c8c" stroke-miterlimit="10" fill="url(#front_-45-3)"/>
  <polygon points="29.5 21.5 27.501 23.5 27.507 16.501 25.507 16.499 25.501 23.509 23.492 21.5 22 23 26.507 27.5 31 23 29.5 21.5" fill="#eaeaea" stroke="#464646" stroke-miterlimit="10"/>
  <polygon points="45.5 21.5 43.501 23.5 43.507 16.501 41.507 16.499 41.501 23.509 39.492 21.5 38 23 42.507 27.5 47 23 45.5 21.5" fill="#eaeaea" stroke="#464646" stroke-miterlimit="10"/>
  <polygon points="37.5 16.501 35.501 18.501 35.507 11.502 33.507 11.5 33.501 18.51 31.492 16.501 30 18.001 34.507 22.501 39 18.001 37.5 16.501" fill="#eaeaea" stroke="#464646" stroke-miterlimit="10"/>
  <polygon points="34.5 37 34.5 46 42.5 41 42.5 32 34.5 37" fill="#3c91af"/>
  <polygon points="42.5 32 34.5 37 26.5 32 34.5 27 42.5 32" fill="url(#New_Gradient_Swatch_1)"/>
  <polyline points="26.482 41.024 34.5 46 34.5 37 26.5 32" fill="url(#linear-gradient-2)"/>
  <line x1="34.5" y1="37" x2="34.5" y2="46" fill="none" stroke="#147391" stroke-miterlimit="10"/>
  <path d="M26.542,41.042,34.5,46l8-5V32l-8-5h0l-8,5" fill="none" stroke="#464646" stroke-miterlimit="10"/>
  <circle cx="34.5" cy="46" r="1.5" fill="#f0f0f0" stroke="#464646"/>
  <circle cx="42.5" cy="41" r="1.5" fill="#f0f0f0" stroke="#464646"/>
  <circle cx="34.5" cy="27" r="1.5" fill="#f0f0f0" stroke="#464646"/>
  <line x1="26.5" y1="41" x2="26.5" y2="32" fill="none" stroke="#464646" stroke-miterlimit="10"/>
  <circle cx="26.5" cy="41" r="1.5" fill="#f0f0f0" stroke="#464646"/>
  <polyline points="26.5 32 34.5 37 42.5 32" fill="none" stroke="#147391" stroke-miterlimit="10"/>
  <circle cx="42.5" cy="32" r="1.5" fill="#f0f0f0" stroke="#464646"/>
  <circle cx="34.5" cy="37" r="1.5" fill="#f0f0f0" stroke="#464646"/>
  <circle cx="26.5" cy="32" r="1.5" fill="#f0f0f0" stroke="#464646"/>
</svg>
