<svg id="Layer_1" data-name="Layer 1" xmlns="http://www.w3.org/2000/svg" xmlns:xlink="http://www.w3.org/1999/xlink" viewBox="0 0 48 48">
  <defs>
    <linearGradient id="linear-gradient" x1="-0.5" y1="41.5" x2="41" gradientTransform="matrix(1, 0, 0, -1, 0, 48)" gradientUnits="userSpaceOnUse">
      <stop offset="0" stop-color="#fff"/>
      <stop offset="0.232" stop-color="#fafafa"/>
      <stop offset="0.496" stop-color="#ededed"/>
      <stop offset="0.775" stop-color="#d6d6d6"/>
      <stop offset="1" stop-color="#bebebe"/>
    </linearGradient>
    <linearGradient id="paper_gradient" data-name="paper gradient" x1="34.625" y1="31.125" x2="35.875" y2="29.875" gradientTransform="matrix(1, 0, 0, -1, 0, 48)" gradientUnits="userSpaceOnUse">
      <stop offset="0" stop-color="#fff"/>
      <stop offset="0.221" stop-color="#f8f8f8"/>
      <stop offset="0.541" stop-color="#e5e5e5"/>
      <stop offset="0.92" stop-color="#c6c6c6"/>
      <stop offset="1" stop-color="#bebebe"/>
    </linearGradient>
    <linearGradient id="linear-gradient-2" x1="2.75" y1="37.75" x2="34.25" y2="6.25" xlink:href="#linear-gradient"/>
    <linearGradient id="paper_gradient-2" x1="22" y1="40" x2="32" y2="30" xlink:href="#paper_gradient"/>
    <linearGradient id="Dark_Blue_Grad" data-name="Dark Blue Grad" x1="23.5" y1="17.5" x2="31.5" y2="25.5" gradientUnits="userSpaceOnUse">
      <stop offset="0" stop-color="#73b4c8"/>
      <stop offset="0.175" stop-color="#6aaec3"/>
      <stop offset="0.457" stop-color="#529eb5"/>
      <stop offset="0.809" stop-color="#2c839f"/>
      <stop offset="1" stop-color="#147391"/>
    </linearGradient>
    <linearGradient id="Dark_Blue_Grad-2" x1="10.5" y1="31.5" x2="18.5" y2="39.5" xlink:href="#Dark_Blue_Grad"/>
    <linearGradient id="paper_gradient-3" x1="25.25" y1="44.25" x2="38.25" y2="31.25" xlink:href="#paper_gradient"/>
  </defs>
  <polygon points="28.5 0.5 5.5 0.5 5.5 47.5 41.5 47.5 41.5 13.5 28.5 0.5" stroke="#464646" stroke-miterlimit="10" fill="url(#linear-gradient)"/>
  <polyline points="11.5 43.5 11.5 45.5 38.5 45.5 38.5 19.5 36.5 17.5" fill="none" stroke="#6e6e6e" stroke-miterlimit="10"/>
  <polyline points="9.5 41.5 9.5 43.5 36.5 43.5 36.5 17.5 34.5 15.5" fill="none" stroke="#6e6e6e" stroke-miterlimit="10"/>
  <line x1="34" y1="17.5" x2="36.5" y2="17.5" stroke="#6e6e6e" stroke-linejoin="round" fill="url(#paper_gradient)"/>
  <polygon points="24.5 5.5 7.5 5.5 7.5 41.5 34.5 41.5 34.5 15.5 24.5 5.5" stroke="#6e6e6e" stroke-miterlimit="10" fill="url(#linear-gradient-2)"/>
  <polygon points="24.5 5.5 24.5 15.5 34.5 15.5 24.5 5.5" stroke="#6e6e6e" stroke-linejoin="round" fill="url(#paper_gradient-2)"/>
  <rect x="23.5" y="17.5" width="8" height="8" stroke="#147391" stroke-miterlimit="10" fill="url(#Dark_Blue_Grad)"/>
  <rect x="10.5" y="31.5" width="8" height="8" stroke="#147391" stroke-miterlimit="10" fill="url(#Dark_Blue_Grad-2)"/>
  <polyline points="14.5 31 14.5 28.5 27.5 28.5 27.5 26" fill="none" stroke="#6e6e6e" stroke-miterlimit="10"/>
  <polygon points="28.5 0.5 28.5 13.5 41.5 13.5 28.5 0.5" stroke="#464646" stroke-linejoin="round" fill="url(#paper_gradient-3)"/>
</svg>
