<svg id="Layer_1" data-name="Layer 1" xmlns="http://www.w3.org/2000/svg" xmlns:xlink="http://www.w3.org/1999/xlink" viewBox="0 0 48 48">
    <linearGradient id="front_-45" data-name="front -45" x1="-8" y1="15" x2="16" y2="39" gradientUnits="userSpaceOnUse">
      <stop offset="0" stop-color="#f2f2f2"/>
      <stop offset="0.5" stop-color="#ccc"/>
      <stop offset="0.63" stop-color="#c7c7c7"/>
      <stop offset="0.779" stop-color="#b9b9b9"/>
      <stop offset="0.938" stop-color="#a2a2a2"/>
      <stop offset="0.99" stop-color="#999"/>
    </linearGradient>
    <linearGradient id="Dark_Blue_Grad" data-name="Dark Blue Grad" x1="34.25" y1="26.75" x2="51.25" y2="43.75" gradientUnits="userSpaceOnUse">
      <stop offset="0" stop-color="#73b4c8"/>
      <stop offset="0.175" stop-color="#6aaec3"/>
      <stop offset="0.457" stop-color="#529eb5"/>
      <stop offset="0.809" stop-color="#2c839f"/>
      <stop offset="1" stop-color="#147391"/>
    </linearGradient>
    <linearGradient id="Dark_Blue_Grad-2" x1="20.25" x2="37.25" y2="43.75" xlink:href="#Dark_Blue_Grad"/>
    <linearGradient id="Dark_Blue_Grad-3" x1="6.25" x2="23.25" y2="43.75" xlink:href="#Dark_Blue_Grad"/>
  <rect x="0.5" y="6.5" width="7" height="41" stroke="#464646" stroke-linecap="round" stroke-miterlimit="10" fill="url(#front_-45)"/>
  <line x1="1" y1="11.5" x2="7" y2="11.5" fill="none" stroke="#6e6e6e" stroke-miterlimit="10"/>
  <line x1="1" y1="13.5" x2="7" y2="13.5" fill="none" stroke="#6e6e6e" stroke-miterlimit="10"/>
  <polygon points="47.5 47.5 33.5 47.5 33.5 27.5 47.5 18.5 47.5 47.5" stroke="#464646" stroke-linecap="round" stroke-linejoin="round" fill="url(#Dark_Blue_Grad)"/>
  <polygon points="33.5 47.5 19.5 47.5 19.5 27.5 33.5 18.5 33.5 47.5" stroke="#464646" stroke-linecap="round" stroke-linejoin="round" fill="url(#Dark_Blue_Grad-2)"/>
  <polygon points="19.5 47.5 5.5 47.5 5.5 27.5 19.5 18.5 19.5 47.5" stroke="#464646" stroke-linecap="round" stroke-linejoin="round" fill="url(#Dark_Blue_Grad-3)"/>
  <line x1="36" y1="31.5" x2="45" y2="31.5" fill="none" stroke="#147391" stroke-linejoin="round" stroke-width="3"/>
  <line x1="36" y1="39.5" x2="45" y2="39.5" fill="none" stroke="#147391" stroke-linejoin="round" stroke-width="3"/>
  <line x1="36" y1="35.5" x2="45" y2="35.5" fill="none" stroke="#147391" stroke-linejoin="round" stroke-width="3"/>
  <line x1="37" y1="31.5" x2="44" y2="31.5" fill="none" stroke="#fff" stroke-linejoin="round"/>
  <line x1="37" y1="39.5" x2="44" y2="39.5" fill="none" stroke="#fff" stroke-linejoin="round"/>
  <line x1="37" y1="35.5" x2="44" y2="35.5" fill="none" stroke="#fff" stroke-linejoin="round"/>
  <line x1="22" y1="31.5" x2="31" y2="31.5" fill="none" stroke="#147391" stroke-linejoin="round" stroke-width="3"/>
  <line x1="22" y1="39.5" x2="31" y2="39.5" fill="none" stroke="#147391" stroke-linejoin="round" stroke-width="3"/>
  <line x1="22" y1="35.5" x2="31" y2="35.5" fill="none" stroke="#147391" stroke-linejoin="round" stroke-width="3"/>
  <line x1="23" y1="31.5" x2="30" y2="31.5" fill="none" stroke="#fff" stroke-linejoin="round"/>
  <line x1="23" y1="39.5" x2="30" y2="39.5" fill="none" stroke="#fff" stroke-linejoin="round"/>
  <line x1="23" y1="35.5" x2="30" y2="35.5" fill="none" stroke="#fff" stroke-linejoin="round"/>
  <line x1="8" y1="31.5" x2="17" y2="31.5" fill="none" stroke="#147391" stroke-linejoin="round" stroke-width="3"/>
  <line x1="8" y1="39.5" x2="17" y2="39.5" fill="none" stroke="#147391" stroke-linejoin="round" stroke-width="3"/>
  <line x1="8" y1="35.5" x2="17" y2="35.5" fill="none" stroke="#147391" stroke-linejoin="round" stroke-width="3"/>
  <line x1="9" y1="31.5" x2="16" y2="31.5" fill="none" stroke="#fff" stroke-linejoin="round"/>
  <line x1="9" y1="39.5" x2="16" y2="39.5" fill="none" stroke="#fff" stroke-linejoin="round"/>
  <line x1="9" y1="35.5" x2="16" y2="35.5" fill="none" stroke="#fff" stroke-linejoin="round"/>
</svg>
