<svg version="1.1" id="Layer_1" xmlns="http://www.w3.org/2000/svg" xmlns:xlink="http://www.w3.org/1999/xlink" x="0px" y="0px"
	 viewBox="0 0 48 48" enable-background="new 0 0 48 48" xml:space="preserve">
<linearGradient id="SVGID_1_" gradientUnits="userSpaceOnUse" x1="10.25" y1="16.75" x2="37.75" y2="44.25">
	<stop  offset="0" style="stop-color:#FFFFFF"/>
	<stop  offset="0.2214" style="stop-color:#F8F8F8"/>
	<stop  offset="0.5415" style="stop-color:#E5E5E5"/>
	<stop  offset="0.92" style="stop-color:#C6C6C6"/>
	<stop  offset="1" style="stop-color:#BEBEBE"/>
</linearGradient>
<rect x="1.5" y="25.5" fill="url(#SVGID_1_)" stroke="#464646" width="45" height="10"/>
<line fill="none" stroke="#6E6E6E" stroke-miterlimit="3.864" x1="4.5" y1="26" x2="4.5" y2="29"/>
<line fill="none" stroke="#6E6E6E" stroke-miterlimit="3.864" x1="7.5" y1="26" x2="7.5" y2="30"/>
<line fill="none" stroke="#6E6E6E" stroke-miterlimit="3.864" x1="10.5" y1="26" x2="10.5" y2="29"/>
<line fill="none" stroke="#6E6E6E" stroke-miterlimit="3.864" x1="13.5" y1="26" x2="13.5" y2="30"/>
<line fill="none" stroke="#6E6E6E" stroke-miterlimit="3.864" x1="16.5" y1="26" x2="16.5" y2="29"/>
<line fill="none" stroke="#6E6E6E" stroke-miterlimit="3.864" x1="19.5" y1="26" x2="19.5" y2="30"/>
<line fill="none" stroke="#6E6E6E" stroke-miterlimit="3.864" x1="22.5" y1="26" x2="22.5" y2="29"/>
<line fill="none" stroke="#6E6E6E" stroke-miterlimit="3.864" x1="25.5" y1="26" x2="25.5" y2="30"/>
<line fill="none" stroke="#6E6E6E" stroke-miterlimit="3.864" x1="28.5" y1="26" x2="28.5" y2="29"/>
<line fill="none" stroke="#6E6E6E" stroke-miterlimit="3.864" x1="31.5" y1="26" x2="31.5" y2="30"/>
<line fill="none" stroke="#6E6E6E" stroke-miterlimit="3.864" x1="34.5" y1="26" x2="34.5" y2="29"/>
<line fill="none" stroke="#6E6E6E" stroke-miterlimit="3.864" x1="37.5" y1="26" x2="37.5" y2="30"/>
<line fill="none" stroke="#6E6E6E" stroke-miterlimit="3.864" x1="40.5" y1="26" x2="40.5" y2="29"/>
<line fill="none" stroke="#6E6E6E" stroke-miterlimit="3.864" x1="43.5" y1="26" x2="43.5" y2="30"/>
<line fill="none" stroke="#969696" stroke-width="2" stroke-miterlimit="10" x1="12" y1="18" x2="31" y2="18"/>
<polyline fill="none" stroke="#969696" stroke-width="2" stroke-miterlimit="3.864" points="27.999,14 31.999,18.001 27.999,22 "/>
<linearGradient id="SVGID_2_" gradientUnits="userSpaceOnUse" x1="36.2573" y1="13.2573" x2="44.7426" y2="21.7426">
	<stop  offset="0" style="stop-color:#73B4C8"/>
	<stop  offset="0.1747" style="stop-color:#6AAEC3"/>
	<stop  offset="0.4567" style="stop-color:#529EB5"/>
	<stop  offset="0.8089" style="stop-color:#2C839F"/>
	<stop  offset="1" style="stop-color:#147391"/>
</linearGradient>
<circle fill="url(#SVGID_2_)" stroke="#147391" stroke-miterlimit="3.864" cx="40.5" cy="17.5" r="6"/>
<linearGradient id="SVGID_3_" gradientUnits="userSpaceOnUse" x1="3.2574" y1="13.2573" x2="11.7427" y2="21.7426">
	<stop  offset="0" style="stop-color:#FFFFFF"/>
	<stop  offset="0.2214" style="stop-color:#F8F8F8"/>
	<stop  offset="0.5415" style="stop-color:#E5E5E5"/>
	<stop  offset="0.92" style="stop-color:#C6C6C6"/>
	<stop  offset="1" style="stop-color:#BEBEBE"/>
</linearGradient>
<circle fill="url(#SVGID_3_)" stroke="#464646" stroke-miterlimit="3.864" cx="7.5" cy="17.5" r="6"/>
<path fill="#FFFFFF" d="M42.309,17.5C42.729,17.133,43,16.6,43,16c0-1.103-0.897-2-2-2h-3v7h3c1.103,0,2-0.897,2-2
	C43,18.4,42.729,17.867,42.309,17.5z M39,15h2c0.552,0,1,0.449,1,1s-0.448,1-1,1h-2V15z M41,20h-2v-2h2c0.552,0,1,0.449,1,1
	S41.552,20,41,20z"/>
<path fill="#464646" d="M6.966,14l-2.615,7h1.067l0.747-2h2.675l0.75,2h1.068l-2.625-7H6.966z M6.539,18l0.961-2.574L8.466,18H6.539
	z"/>
</svg>
