<svg id="Layer_1" data-name="Layer 1" xmlns="http://www.w3.org/2000/svg" xmlns:xlink="http://www.w3.org/1999/xlink" viewBox="0 0 48 48">
    <linearGradient id="front_-45" data-name="front -45" x1="40.125" y1="1469.875" x2="19.875" y2="1449.625" gradientTransform="translate(48 1463) rotate(180)" gradientUnits="userSpaceOnUse">
      <stop offset="0" stop-color="#f2f2f2"/>
      <stop offset="0.5" stop-color="#ccc"/>
      <stop offset="0.63" stop-color="#c7c7c7"/>
      <stop offset="0.779" stop-color="#b9b9b9"/>
      <stop offset="0.938" stop-color="#a2a2a2"/>
      <stop offset="0.99" stop-color="#999"/>
    </linearGradient>
    <linearGradient id="linear-gradient" x1="44.875" y1="1459.625" x2="15.125" y2="1429.875" gradientTransform="translate(48 1463) rotate(180)" gradientUnits="userSpaceOnUse">
      <stop offset="0" stop-color="#fff"/>
      <stop offset="0.232" stop-color="#fafafa"/>
      <stop offset="0.496" stop-color="#ededed"/>
      <stop offset="0.775" stop-color="#d6d6d6"/>
      <stop offset="1" stop-color="#bebebe"/>
    </linearGradient>
    <linearGradient id="front_-45-2" x1="29" y1="15" x2="44" y2="30" gradientTransform="matrix(1, 0, 0, 1, 0, 0)" xlink:href="#front_-45"/>
    <linearGradient id="New_Gradient_Swatch_1" data-name="New Gradient Swatch 1" x1="31.25" y1="16.75" x2="41.75" y2="27.25" gradientUnits="userSpaceOnUse">
      <stop offset="0" stop-color="#cde6eb"/>
      <stop offset="0.221" stop-color="#c6e2e8"/>
      <stop offset="0.542" stop-color="#b3d8e1"/>
      <stop offset="0.921" stop-color="#93c7d5"/>
      <stop offset="1" stop-color="#8cc3d2"/>
    </linearGradient>
    <linearGradient id="linear-gradient-2" x1="36.5" y1="30.5" x2="36.5" y2="28.5" gradientUnits="userSpaceOnUse">
      <stop offset="0" stop-color="#b1b1b1"/>
      <stop offset="0.26" stop-color="#acacac"/>
      <stop offset="0.567" stop-color="#9e9e9e"/>
      <stop offset="0.897" stop-color="#868686"/>
      <stop offset="1" stop-color="#7d7d7d"/>
    </linearGradient>
    <linearGradient id="front_-45-3" x1="18" y1="23" x2="33" y2="38" gradientTransform="matrix(1, 0, 0, 1, 0, 0)" xlink:href="#front_-45"/>
    <linearGradient id="New_Gradient_Swatch_1-2" x1="20.25" y1="24.75" x2="30.75" y2="35.25" xlink:href="#New_Gradient_Swatch_1"/>
    <linearGradient id="linear-gradient-3" x1="25.5" y1="38.5" x2="25.5" y2="36.5" xlink:href="#linear-gradient-2"/>
    <linearGradient id="front_-45-4" x1="31" y1="31" x2="46" y2="46" gradientTransform="matrix(1, 0, 0, 1, 0, 0)" xlink:href="#front_-45"/>
    <linearGradient id="New_Gradient_Swatch_1-3" x1="33.25" y1="32.75" x2="43.75" y2="43.25" xlink:href="#New_Gradient_Swatch_1"/>
    <linearGradient id="linear-gradient-4" x1="38.5" y1="46.5" x2="38.5" y2="44.5" xlink:href="#linear-gradient-2"/>
  <polyline points="0.5 6 0.5 0.5 35.5 0.5 35.5 6" stroke="#464646" stroke-miterlimit="10" fill="url(#front_-45)"/>
  <polyline points="35.5 6 35.5 30.5 0.5 30.5 0.5 6" stroke="#464646" stroke-miterlimit="10" fill="url(#linear-gradient)"/>
  <line x1="5" y1="10.5" x2="23" y2="10.5" fill="none" stroke="#a0a0a0" stroke-miterlimit="10"/>
  <line x1="5" y1="15.5" x2="19" y2="15.5" fill="none" stroke="#a0a0a0" stroke-miterlimit="10"/>
  <line x1="5" y1="25.5" x2="16.5" y2="25.5" fill="none" stroke="#a0a0a0" stroke-miterlimit="10"/>
  <rect x="32" y="2" width="2" height="2" fill="#6e6e6e"/>
  <rect x="28" y="2" width="2" height="2" fill="#6e6e6e"/>
  <rect x="24" y="2" width="2" height="2" fill="#6e6e6e"/>
  <line x1="1" y1="5.5" x2="35" y2="5.5" fill="none" stroke="#6e6e6e" stroke-miterlimit="10"/>
  <line x1="5" y1="20.5" x2="17" y2="20.5" fill="none" stroke="#a0a0a0" stroke-miterlimit="10"/>
  <rect x="27.5" y="16.5" width="18" height="12" stroke="#464646" stroke-miterlimit="10" fill="url(#front_-45-2)"/>
  <rect x="29.5" y="18.5" width="14" height="7" stroke="#6e6e6e" stroke-miterlimit="10" fill="url(#New_Gradient_Swatch_1)"/>
  <rect x="34.5" y="28.5" width="4" height="2" stroke="#464646" stroke-miterlimit="10" fill="url(#linear-gradient-2)"/>
  <line x1="41" y1="30.5" x2="34.5" y2="30.5" fill="none" stroke="#464646" stroke-miterlimit="10"/>
  <polyline points="43.5 19 43.5 25.5 34.5 25.5" fill="none" stroke="#9a9898" stroke-miterlimit="10"/>
  <rect x="16.5" y="24.5" width="18" height="12" stroke="#464646" stroke-miterlimit="10" fill="url(#front_-45-3)"/>
  <rect x="18.5" y="26.5" width="14" height="7" stroke="#6e6e6e" stroke-miterlimit="10" fill="url(#New_Gradient_Swatch_1-2)"/>
  <rect x="23.5" y="36.5" width="4" height="2" stroke="#464646" stroke-miterlimit="10" fill="url(#linear-gradient-3)"/>
  <line x1="29.5" y1="38.5" x2="21" y2="38.5" fill="none" stroke="#464646" stroke-miterlimit="10"/>
  <polyline points="32.5 27 32.5 33.5 19 33.5" fill="none" stroke="#9a9898" stroke-miterlimit="10"/>
  <rect x="29.5" y="32.5" width="18" height="12" stroke="#464646" stroke-miterlimit="10" fill="url(#front_-45-4)"/>
  <rect x="31.5" y="34.5" width="14" height="7" stroke="#6e6e6e" stroke-miterlimit="10" fill="url(#New_Gradient_Swatch_1-3)"/>
  <rect x="36.5" y="44.5" width="4" height="2" stroke="#464646" stroke-miterlimit="10" fill="url(#linear-gradient-4)"/>
  <line x1="43" y1="46.5" x2="34" y2="46.5" fill="none" stroke="#464646" stroke-miterlimit="10"/>
  <polyline points="45.5 35 45.5 41.5 32 41.5" fill="none" stroke="#9a9898" stroke-miterlimit="10"/>
</svg>
