<svg id="Layer_1" data-name="Layer 1" xmlns="http://www.w3.org/2000/svg" xmlns:xlink="http://www.w3.org/1999/xlink" viewBox="0 0 48 48">
    <linearGradient id="linear-gradient" x1="7.5" y1="-2221.3898" x2="44.5" y2="-2258.3898" gradientTransform="matrix(1, 0, 0, -1, 0, -2215.8898)" gradientUnits="userSpaceOnUse">
      <stop offset="0" stop-color="#cbd7f2"/>
      <stop offset="0.9993" stop-color="#93ade4"/>
    </linearGradient>
    <linearGradient id="linear-gradient-2" x1="2" y1="-2225.8898" x2="12" y2="-2235.8898" xlink:href="#linear-gradient"/>
    <linearGradient id="linear-gradient-3" x1="2" y1="-2235.8898" x2="12" y2="-2245.8898" xlink:href="#linear-gradient"/>
    <rect x="4.5" y="8.5" width="43" height="31" stroke="#464646" stroke-miterlimit="10" fill="url(#linear-gradient)"/>
    <rect x="0.5" y="11.5" width="13" height="7" stroke="#464646" stroke-miterlimit="10" fill="url(#linear-gradient-2)"/>
    <rect x="0.5" y="21.5" width="13" height="7" stroke="#464646" stroke-miterlimit="10" fill="url(#linear-gradient-3)"/>
  <path d="M22.445,16.65a21.1668,21.1668,0,0,1,3.506-.273,5.8116,5.8116,0,0,1,3.968,1.176,3.8049,3.8049,0,0,1,1.239,2.961,4.1654,4.1654,0,0,1-1.092,3.023,5.86,5.86,0,0,1-4.325,1.554,6.2725,6.2725,0,0,1-1.469-.126v5.669H22.445Zm1.827,6.824a6.1264,6.1264,0,0,0,1.511.147c2.2,0,3.548-1.071,3.548-3.023,0-1.869-1.322-2.772-3.338-2.772a7.6529,7.6529,0,0,0-1.721.147Z" fill="#464646" stroke="#464646" stroke-miterlimit="10" stroke-width="0.913"/>
</svg>
