<svg id="Layer_1" data-name="Layer 1" xmlns="http://www.w3.org/2000/svg" xmlns:xlink="http://www.w3.org/1999/xlink" viewBox="0 0 48 48">
    <linearGradient id="front_-45" data-name="front -45" x1="3.75" y1="-2.75" x2="38.25" y2="31.75" gradientUnits="userSpaceOnUse">
      <stop offset="0" stop-color="#f2f2f2"/>
      <stop offset="0.5" stop-color="#ccc"/>
      <stop offset="0.6296" stop-color="#c7c7c7"/>
      <stop offset="0.7792" stop-color="#b9b9b9"/>
      <stop offset="0.9383" stop-color="#a2a2a2"/>
      <stop offset="0.99" stop-color="#999"/>
    </linearGradient>
    <linearGradient id="linear-gradient" x1="6.25" y1="-1.25" x2="35.75" y2="28.25" gradientUnits="userSpaceOnUse">
      <stop offset="0" stop-color="#fff"/>
      <stop offset="0.2323" stop-color="#fafafa"/>
      <stop offset="0.4964" stop-color="#ededed"/>
      <stop offset="0.775" stop-color="#d6d6d6"/>
      <stop offset="1" stop-color="#bebebe"/>
    </linearGradient>
    <linearGradient id="linear-gradient-2" x1="21" y1="35.5" x2="21" y2="28.5" gradientUnits="userSpaceOnUse">
      <stop offset="0" stop-color="#b1b1b1"/>
      <stop offset="0.2597" stop-color="#acacac"/>
      <stop offset="0.5669" stop-color="#9e9e9e"/>
      <stop offset="0.8969" stop-color="#868686"/>
      <stop offset="1" stop-color="#7d7d7d"/>
    </linearGradient>
    <linearGradient id="Dark_Blue_Grad" data-name="Dark Blue Grad" x1="24.1638" y1="19.4915" x2="42.8362" y2="38.1638" gradientUnits="userSpaceOnUse">
      <stop offset="0" stop-color="#73b4c8"/>
      <stop offset="0.1747" stop-color="#6aaec3"/>
      <stop offset="0.4567" stop-color="#529eb5"/>
      <stop offset="0.8089" stop-color="#2c839f"/>
      <stop offset="1" stop-color="#147391"/>
    </linearGradient>
    <linearGradient id="Dark_Blue_Grad-3" x1="24.3926" y1="20.2142" x2="42.5892" y2="38.4108" xlink:href="#Dark_Blue_Grad"/>
    <linearGradient id="New_Gradient_Swatch_1" data-name="New Gradient Swatch 1" x1="27.8277" y1="15.8277" x2="41.1723" y2="29.1723" gradientUnits="userSpaceOnUse">
      <stop offset="0" stop-color="#cde6eb"/>
      <stop offset="0.2214" stop-color="#c6e2e8"/>
      <stop offset="0.5419" stop-color="#b3d8e1"/>
      <stop offset="0.9212" stop-color="#93c7d5"/>
      <stop offset="1" stop-color="#8cc3d2"/>
    </linearGradient>
  <rect x="0.5" y="0.5" width="41" height="28" stroke="#464646" stroke-miterlimit="10" fill="url(#front_-45)"/>
  <rect x="2.5" y="2.5" width="37" height="22" stroke="#464646" stroke-miterlimit="10" fill="url(#linear-gradient)"/>
  <polygon points="29.5 35.5 12.5 35.5 12.5 33.5 17.5 28.5 24.5 28.5 29.5 33.5 29.5 35.5" stroke="#464646" stroke-miterlimit="10" fill="url(#linear-gradient-2)"/>
  <polyline points="29.492 32.5 32.492 35.5 36.492 28.5" fill="none" stroke="#6e6e6e" stroke-linecap="round" stroke-linejoin="round"/>
  <rect x="6.5" y="10.5" width="24.9999" height="12" fill="none" stroke="#6e6e6e" stroke-miterlimit="10"/>
  <line x1="6" y1="5.5" x2="27" y2="5.5" fill="none" stroke="#6e6e6e" stroke-miterlimit="10"/>
  <line x1="6" y1="7.5" x2="22" y2="7.5" fill="none" stroke="#6e6e6e" stroke-miterlimit="10"/>
  <line x1="6" y1="14.5" x2="31.5" y2="14.5" fill="none" stroke="#6e6e6e" stroke-miterlimit="10"/>
  <line x1="6" y1="18.5" x2="31.5" y2="18.5" fill="none" stroke="#6e6e6e" stroke-miterlimit="10"/>
  <line x1="11.5" y1="11" x2="11.5" y2="22.5" fill="none" stroke="#6e6e6e" stroke-miterlimit="10"/>
  <line x1="16.5" y1="11" x2="16.5" y2="22.5" fill="none" stroke="#6e6e6e" stroke-miterlimit="10"/>
  <line x1="21.5" y1="11" x2="21.5" y2="22.5" fill="none" stroke="#6e6e6e" stroke-miterlimit="10"/>
  <line x1="26.5" y1="11" x2="26.5" y2="22.5" fill="none" stroke="#6e6e6e" stroke-miterlimit="10"/>
      <polyline points="21.63 22.977 31.5 37.5 31.5 47.5 37.5 43.5 37.5 37.5 47.355 22.998" fill="url(#Dark_Blue_Grad)"/>
      <ellipse cx="34.5" cy="22.5" rx="13" ry="3" fill="url(#Dark_Blue_Grad)"/>
      <polyline points="21.63 22.977 31.5 37.5 31.5 47.5 37.5 43.5 37.5 37.5 47.355 22.998" fill="url(#Dark_Blue_Grad-3)"/>
      <ellipse cx="34.5" cy="22.5" rx="13" ry="3" fill="url(#New_Gradient_Swatch_1)"/>
  <path d="M47.5,22.5c0,1.6569-5.82,3-13,3s-13-1.3431-13-3" fill="none" stroke="#147391"/>
  <path d="M47.5,22.5c0-1.6569-5.82-3-13-3s-13,1.3431-13,3a.8534.8534,0,0,0,.18.4772h-.05L31.5,37.5v10l6-4v-6l9.8549-14.5019h-.0486A.8645.8645,0,0,0,47.5,22.5Z" fill="none" stroke="#464646" stroke-linejoin="round"/>
</svg>
