<svg id="Layer_1" data-name="Layer 1" xmlns="http://www.w3.org/2000/svg" xmlns:xlink="http://www.w3.org/1999/xlink" viewBox="0 0 48 48">
  <defs>
    <linearGradient id="linear-gradient" x1="84.357" y1="-106.589" x2="116.638" y2="-144.813" gradientTransform="matrix(0.784, 0, 0, -0.708, -55.615, -76.675)" gradientUnits="userSpaceOnUse">
      <stop offset="0" stop-color="#fff"/>
      <stop offset="0.221" stop-color="#f8f8f8"/>
      <stop offset="0.541" stop-color="#e5e5e5"/>
      <stop offset="0.92" stop-color="#c6c6c6"/>
      <stop offset="1" stop-color="#bebebe"/>
    </linearGradient>
    <linearGradient id="linear-gradient-2" x1="132.102" y1="-120.085" x2="120.495" y2="-102.326" gradientTransform="matrix(0.707, 0, 0, -0.732, -76.49, -66.852)" gradientUnits="userSpaceOnUse">
      <stop offset="0" stop-color="#bebebe"/>
      <stop offset="0.08" stop-color="#c6c6c6"/>
      <stop offset="0.458" stop-color="#e5e5e5"/>
      <stop offset="0.779" stop-color="#f8f8f8"/>
      <stop offset="1" stop-color="#fff"/>
    </linearGradient>
    <linearGradient id="linear-gradient-3" x1="147.621" y1="-119.851" x2="134.499" y2="-101.063" gradientTransform="matrix(0.707, 0, 0, -0.732, -75.277, -66.703)" xlink:href="#linear-gradient-2"/>
    <linearGradient id="linear-gradient-4" x1="162.412" y1="-120.717" x2="149.44" y2="-101.81" gradientTransform="matrix(0.707, 0, 0, -0.731, -74.042, -67.204)" xlink:href="#linear-gradient-2"/>
  </defs>
  <g id="g886">
    <path id="rect13" d="M5.605,3H42.431v20.53H5.605Z" stroke="#147391" stroke-width="1.06" fill="url(#linear-gradient)"/>
    <path id="rect26" d="M7.579,6.58h9.192V20.488H7.579Z" stroke="#6e6e6e" stroke-width="1.024" fill="url(#linear-gradient-2)"/>
    <path id="rect39" d="M19.4,6.554H28.6V20.47H19.4Z" stroke="#6e6e6e" stroke-width="1.024" fill="url(#linear-gradient-3)"/>
    <path id="rect52" d="M31.229,6.6h9.193V20.488H31.229Z" stroke="#6e6e6e" stroke-width="1.023" fill="url(#linear-gradient-4)"/>
    <path id="path56" d="M23.221,13.809A2.087,2.087,0,0,0,21.1,15.934v.708h1.417v-.708a.71.71,0,0,1,.708-.709h1.417a.71.71,0,0,1,.708.709v.708a.644.644,0,0,1-.283.567l-2.975,1.983a2.356,2.356,0,0,0-.658.758h2l2.41-1.608a2.216,2.216,0,0,0,.921-1.77v-.638a2.087,2.087,0,0,0-2.125-2.125Z" fill="#147391"/>
    <path id="path58" d="M25.231,7.075a.664.664,0,0,1-.7.677H23.112V9.168h1.417a.669.669,0,0,1,.708.709v.708a.669.669,0,0,1-.708.708H23.112a.669.669,0,0,1-.708-.708V9.877H20.987v.708a2.087,2.087,0,0,0,2.125,2.125h1.417a2.087,2.087,0,0,0,2.125-2.125V9.877a1.975,1.975,0,0,0-.568-1.417,1.971,1.971,0,0,0,.565-1.385Z" fill="#147391"/>
    <path id="text878-3" d="M33.56,7.06v3.749a1.613,1.613,0,0,0,.714,1.406,3.481,3.481,0,0,0,2.005.5,3.481,3.481,0,0,0,2-.5A1.612,1.612,0,0,0,39,10.809V7.06H37.191V10.8a.644.644,0,0,1-.238.535,1.29,1.29,0,0,1-1.348,0,.644.644,0,0,1-.238-.535V7.06Z" fill="#147391"/>
    <path id="text878-5" d="M36.265,14.064a4.127,4.127,0,0,0-1.471.234,2.011,2.011,0,0,0-.936.669,1.742,1.742,0,0,0-.321,1.054V17.2a1.638,1.638,0,0,0,.279.959,1.773,1.773,0,0,0,.814.6,3.547,3.547,0,0,0,1.281.206,2.118,2.118,0,0,0,.516-.07L35.8,19.974h1.909l.494-.863a1.35,1.35,0,0,1,.074-.124,1.152,1.152,0,0,0,.074-.128,6.12,6.12,0,0,0,.476-.92,2.334,2.334,0,0,0,.157-.881V16a1.712,1.712,0,0,0-.321-1.042,1.978,1.978,0,0,0-.929-.664A4.19,4.19,0,0,0,36.265,14.064Zm0,1.187a1.127,1.127,0,0,1,.689.184.607.607,0,0,1,.246.524v1.132a.605.605,0,0,1-.246.513,1.155,1.155,0,0,1-.689.178,1.2,1.2,0,0,1-.7-.178.6.6,0,0,1-.246-.506V15.965a.612.612,0,0,1,.246-.53A1.151,1.151,0,0,1,36.265,15.251Z" fill="#147391"/>
    <path id="rect957" d="M0,20H2V48H0Z" fill="#464646"/>
    <path id="rect957-1" d="M46,20h2V48H46Z" fill="#464646"/>
    <path id="polygon17" d="M10.469,29.76,4,35.99l6.359,6.338L13.291,39.5l-1.445-1.44H36.131L34.686,39.5l2.931,2.824,6.36-6.338-6.469-6.23-2.881,2.871,1.449,1.4H11.9l1.45-1.4Zm-.012,1.4,1.465,1.459-2.5,2.408H25.215l2.3,0v0H38.555l-2.5-2.408L37.52,31.16,42.547,36,37.6,40.928l-1.491-1.436,2.438-2.428H9.426l2.435,2.428-1.49,1.436L5.428,36Z" fill="#147391"/>
    <g id="text878-3-3">
      <path id="path864" d="M13,18.039H11.421V10.4l-1.452.7V9.643l1.38-.749H13Z" fill="#147391"/>
    </g>
  </g>
</svg>
