<svg id="Layer_1" data-name="Layer 1" xmlns="http://www.w3.org/2000/svg" xmlns:xlink="http://www.w3.org/1999/xlink" viewBox="0 0 48 48">
    <linearGradient id="paper_gradient" data-name="paper gradient" x1="3.5" y1="3.5" x2="43.5" y2="43.5" gradientUnits="userSpaceOnUse">
      <stop offset="0" stop-color="#fff"/>
      <stop offset="0.221" stop-color="#f8f8f8"/>
      <stop offset="0.541" stop-color="#e5e5e5"/>
      <stop offset="0.92" stop-color="#c6c6c6"/>
      <stop offset="1" stop-color="#bebebe"/>
    </linearGradient>
    <linearGradient id="Dark_Blue_Grad" data-name="Dark Blue Grad" x1="23.5" y1="23.5" x2="43.5" y2="43.5" gradientUnits="userSpaceOnUse">
      <stop offset="0" stop-color="#73b4c8"/>
      <stop offset="0.175" stop-color="#6aaec3"/>
      <stop offset="0.457" stop-color="#529eb5"/>
      <stop offset="0.809" stop-color="#2c839f"/>
      <stop offset="1" stop-color="#147391"/>
    </linearGradient>
  <rect x="3.5" y="3.5" width="40" height="40" fill="url(#paper_gradient)"/>
  <rect x="3.5" y="3.5" width="40" height="40" fill="none" stroke="#464646" stroke-miterlimit="10"/>
  <path id="_Path_" data-name="&lt;Path&gt;" d="M3.5,23.5h7.41a3.786,3.786,0,0,0-1.1,2.675,3.689,3.689,0,0,0,7.377,0,3.786,3.786,0,0,0-1.1-2.675H23.5V16.123a3.689,3.689,0,1,1,0-5.149V3.5" fill="none" stroke="#464646" stroke-miterlimit="10"/>
  <path id="_Path_2" data-name="&lt;Path&gt;" d="M36.09,23.5a3.786,3.786,0,0,0,1.1-2.675,3.689,3.689,0,1,0-7.377,0,3.786,3.786,0,0,0,1.1,2.675H23.5v7.377a3.689,3.689,0,1,1,0,5.149V43.5h20v-20H36.09Z" stroke="#147391" stroke-miterlimit="10" fill="url(#Dark_Blue_Grad)"/>
</svg>
