<svg id="Layer_1" data-name="Layer 1" xmlns="http://www.w3.org/2000/svg" xmlns:xlink="http://www.w3.org/1999/xlink" viewBox="0 0 48 48">
    <linearGradient id="New_Gradient_Swatch_4" data-name="New Gradient Swatch 4" x1="21.5" y1="21.5" x2="25.5" y2="25.5" gradientUnits="userSpaceOnUse">
      <stop offset="0" stop-color="#afd7e1"/>
      <stop offset="0.159" stop-color="#a4d0dc"/>
      <stop offset="0.706" stop-color="#80bcce"/>
      <stop offset="1" stop-color="#73b4c8"/>
    </linearGradient>
    <linearGradient id="New_Gradient_Swatch_4-2" x1="21.5" y1="25.5" x2="25.5" y2="29.5" xlink:href="#New_Gradient_Swatch_4"/>
    <linearGradient id="New_Gradient_Swatch_4-3" x1="21.5" y1="29.5" x2="25.5" y2="33.5" xlink:href="#New_Gradient_Swatch_4"/>
    <linearGradient id="New_Gradient_Swatch_4-4" x1="21.5" y1="33.5" x2="25.5" y2="37.5" xlink:href="#New_Gradient_Swatch_4"/>
    <linearGradient id="New_Gradient_Swatch_4-5" x1="21.5" y1="37.5" x2="25.5" y2="41.5" xlink:href="#New_Gradient_Swatch_4"/>
    <linearGradient id="New_Gradient_Swatch_4-6" x1="21.5" y1="41.5" x2="25.5" y2="45.5" xlink:href="#New_Gradient_Swatch_4"/>
    <linearGradient id="New_Gradient_Swatch_4-7" x1="21.5" y1="17.5" x2="25.5" y2="21.5" xlink:href="#New_Gradient_Swatch_4"/>
    <linearGradient id="New_Gradient_Swatch_4-8" x1="21.5" y1="13.5" x2="25.5" y2="17.5" xlink:href="#New_Gradient_Swatch_4"/>
    <linearGradient id="New_Gradient_Swatch_4-9" x1="21.5" y1="9.5" x2="25.5" y2="13.5" xlink:href="#New_Gradient_Swatch_4"/>
    <linearGradient id="New_Gradient_Swatch_4-10" x1="21.5" y1="5.5" x2="25.5" y2="9.5" xlink:href="#New_Gradient_Swatch_4"/>
    <linearGradient id="New_Gradient_Swatch_4-11" x1="21.5" y1="1.5" x2="25.5" y2="5.5" xlink:href="#New_Gradient_Swatch_4"/>
    <linearGradient id="New_Gradient_Swatch_4-12" x1="25.5" x2="29.5" y2="25.5" xlink:href="#New_Gradient_Swatch_4"/>
    <linearGradient id="New_Gradient_Swatch_4-13" x1="25.5" y1="25.5" x2="29.5" y2="29.5" xlink:href="#New_Gradient_Swatch_4"/>
    <linearGradient id="New_Gradient_Swatch_4-14" x1="25.5" y1="29.5" x2="29.5" y2="33.5" xlink:href="#New_Gradient_Swatch_4"/>
    <linearGradient id="New_Gradient_Swatch_4-15" x1="25.5" y1="33.5" x2="29.5" y2="37.5" xlink:href="#New_Gradient_Swatch_4"/>
    <linearGradient id="New_Gradient_Swatch_4-16" x1="25.5" y1="37.5" x2="29.5" y2="41.5" xlink:href="#New_Gradient_Swatch_4"/>
    <linearGradient id="New_Gradient_Swatch_4-17" x1="25.5" y1="41.5" x2="29.5" y2="45.5" xlink:href="#New_Gradient_Swatch_4"/>
    <linearGradient id="New_Gradient_Swatch_4-18" x1="25.5" y1="17.5" x2="29.5" y2="21.5" xlink:href="#New_Gradient_Swatch_4"/>
    <linearGradient id="New_Gradient_Swatch_4-19" x1="25.5" y1="13.5" x2="29.5" y2="17.5" xlink:href="#New_Gradient_Swatch_4"/>
    <linearGradient id="New_Gradient_Swatch_4-20" x1="25.5" y1="9.5" x2="29.5" y2="13.5" xlink:href="#New_Gradient_Swatch_4"/>
    <linearGradient id="New_Gradient_Swatch_4-21" x1="25.5" y1="5.5" x2="29.5" y2="9.5" xlink:href="#New_Gradient_Swatch_4"/>
    <linearGradient id="New_Gradient_Swatch_4-22" x1="25.5" y1="1.5" x2="29.5" y2="5.5" xlink:href="#New_Gradient_Swatch_4"/>
    <linearGradient id="New_Gradient_Swatch_4-23" x1="29.5" x2="33.5" y2="25.5" xlink:href="#New_Gradient_Swatch_4"/>
    <linearGradient id="New_Gradient_Swatch_4-24" x1="29.5" y1="25.5" x2="33.5" y2="29.5" xlink:href="#New_Gradient_Swatch_4"/>
    <linearGradient id="New_Gradient_Swatch_4-25" x1="29.5" y1="29.5" x2="33.5" y2="33.5" xlink:href="#New_Gradient_Swatch_4"/>
    <linearGradient id="New_Gradient_Swatch_4-26" x1="29.5" y1="33.5" x2="33.5" y2="37.5" xlink:href="#New_Gradient_Swatch_4"/>
    <linearGradient id="New_Gradient_Swatch_4-27" x1="29.5" y1="37.5" x2="33.5" y2="41.5" xlink:href="#New_Gradient_Swatch_4"/>
    <linearGradient id="New_Gradient_Swatch_4-28" x1="29.5" y1="17.5" x2="33.5" y2="21.5" xlink:href="#New_Gradient_Swatch_4"/>
    <linearGradient id="New_Gradient_Swatch_4-29" x1="29.5" y1="13.5" x2="33.5" y2="17.5" xlink:href="#New_Gradient_Swatch_4"/>
    <linearGradient id="New_Gradient_Swatch_4-30" x1="29.5" y1="9.5" x2="33.5" y2="13.5" xlink:href="#New_Gradient_Swatch_4"/>
    <linearGradient id="New_Gradient_Swatch_4-31" x1="29.5" y1="5.5" x2="33.5" y2="9.5" xlink:href="#New_Gradient_Swatch_4"/>
    <linearGradient id="New_Gradient_Swatch_4-32" x1="33.5" x2="37.5" y2="25.5" xlink:href="#New_Gradient_Swatch_4"/>
    <linearGradient id="New_Gradient_Swatch_4-33" x1="33.5" y1="25.5" x2="37.5" y2="29.5" xlink:href="#New_Gradient_Swatch_4"/>
    <linearGradient id="New_Gradient_Swatch_4-34" x1="33.5" y1="29.5" x2="37.5" y2="33.5" xlink:href="#New_Gradient_Swatch_4"/>
    <linearGradient id="New_Gradient_Swatch_4-35" x1="33.5" y1="33.5" x2="37.5" y2="37.5" xlink:href="#New_Gradient_Swatch_4"/>
    <linearGradient id="New_Gradient_Swatch_4-36" x1="33.5" y1="37.5" x2="37.5" y2="41.5" xlink:href="#New_Gradient_Swatch_4"/>
    <linearGradient id="New_Gradient_Swatch_4-37" x1="33.5" y1="17.5" x2="37.5" y2="21.5" xlink:href="#New_Gradient_Swatch_4"/>
    <linearGradient id="New_Gradient_Swatch_4-38" x1="33.5" y1="13.5" x2="37.5" y2="17.5" xlink:href="#New_Gradient_Swatch_4"/>
    <linearGradient id="New_Gradient_Swatch_4-39" x1="33.5" y1="9.5" x2="37.5" y2="13.5" xlink:href="#New_Gradient_Swatch_4"/>
    <linearGradient id="New_Gradient_Swatch_4-40" x1="33.5" y1="5.5" x2="37.5" y2="9.5" xlink:href="#New_Gradient_Swatch_4"/>
    <linearGradient id="New_Gradient_Swatch_4-41" x1="37.5" x2="41.5" y2="25.5" xlink:href="#New_Gradient_Swatch_4"/>
    <linearGradient id="New_Gradient_Swatch_4-42" x1="37.5" y1="25.5" x2="41.5" y2="29.5" xlink:href="#New_Gradient_Swatch_4"/>
    <linearGradient id="New_Gradient_Swatch_4-43" x1="37.5" y1="29.5" x2="41.5" y2="33.5" xlink:href="#New_Gradient_Swatch_4"/>
    <linearGradient id="New_Gradient_Swatch_4-44" x1="37.5" y1="33.5" x2="41.5" y2="37.5" xlink:href="#New_Gradient_Swatch_4"/>
    <linearGradient id="New_Gradient_Swatch_4-45" x1="37.5" y1="17.5" x2="41.5" y2="21.5" xlink:href="#New_Gradient_Swatch_4"/>
    <linearGradient id="New_Gradient_Swatch_4-46" x1="37.5" y1="13.5" x2="41.5" y2="17.5" xlink:href="#New_Gradient_Swatch_4"/>
    <linearGradient id="New_Gradient_Swatch_4-47" x1="37.5" y1="9.5" x2="41.5" y2="13.5" xlink:href="#New_Gradient_Swatch_4"/>
    <linearGradient id="New_Gradient_Swatch_4-48" x1="41.5" x2="45.5" y2="25.5" xlink:href="#New_Gradient_Swatch_4"/>
    <linearGradient id="New_Gradient_Swatch_4-49" x1="41.5" y1="25.5" x2="45.5" y2="29.5" xlink:href="#New_Gradient_Swatch_4"/>
    <linearGradient id="New_Gradient_Swatch_4-50" x1="41.5" y1="17.5" x2="45.5" y2="21.5" xlink:href="#New_Gradient_Swatch_4"/>
    <linearGradient id="New_Gradient_Swatch_4-51" x1="1.5" x2="5.5" y2="25.5" xlink:href="#New_Gradient_Swatch_4"/>
    <linearGradient id="New_Gradient_Swatch_4-52" x1="1.5" y1="25.5" x2="5.5" y2="29.5" xlink:href="#New_Gradient_Swatch_4"/>
    <linearGradient id="New_Gradient_Swatch_4-53" x1="1.5" y1="17.5" x2="5.5" y2="21.5" xlink:href="#New_Gradient_Swatch_4"/>
    <linearGradient id="New_Gradient_Swatch_4-54" x1="5.5" x2="9.5" y2="25.5" xlink:href="#New_Gradient_Swatch_4"/>
    <linearGradient id="New_Gradient_Swatch_4-55" x1="5.5" y1="25.5" x2="9.5" y2="29.5" xlink:href="#New_Gradient_Swatch_4"/>
    <linearGradient id="New_Gradient_Swatch_4-56" x1="5.5" y1="29.5" x2="9.5" y2="33.5" xlink:href="#New_Gradient_Swatch_4"/>
    <linearGradient id="New_Gradient_Swatch_4-57" x1="5.5" y1="33.5" x2="9.5" y2="37.5" xlink:href="#New_Gradient_Swatch_4"/>
    <linearGradient id="New_Gradient_Swatch_4-58" x1="5.5" y1="17.5" x2="9.5" y2="21.5" xlink:href="#New_Gradient_Swatch_4"/>
    <linearGradient id="New_Gradient_Swatch_4-59" x1="5.5" y1="13.5" x2="9.5" y2="17.5" xlink:href="#New_Gradient_Swatch_4"/>
    <linearGradient id="New_Gradient_Swatch_4-60" x1="5.5" y1="9.5" x2="9.5" y2="13.5" xlink:href="#New_Gradient_Swatch_4"/>
    <linearGradient id="New_Gradient_Swatch_4-61" x1="9.5" x2="13.5" y2="25.5" xlink:href="#New_Gradient_Swatch_4"/>
    <linearGradient id="New_Gradient_Swatch_4-62" x1="9.5" y1="25.5" x2="13.5" y2="29.5" xlink:href="#New_Gradient_Swatch_4"/>
    <linearGradient id="New_Gradient_Swatch_4-63" x1="9.5" y1="29.5" x2="13.5" y2="33.5" xlink:href="#New_Gradient_Swatch_4"/>
    <linearGradient id="New_Gradient_Swatch_4-64" x1="9.5" y1="33.5" x2="13.5" y2="37.5" xlink:href="#New_Gradient_Swatch_4"/>
    <linearGradient id="New_Gradient_Swatch_4-65" x1="9.5" y1="37.5" x2="13.5" y2="41.5" xlink:href="#New_Gradient_Swatch_4"/>
    <linearGradient id="New_Gradient_Swatch_4-66" x1="9.5" y1="17.5" x2="13.5" y2="21.5" xlink:href="#New_Gradient_Swatch_4"/>
    <linearGradient id="New_Gradient_Swatch_4-67" x1="9.5" y1="13.5" x2="13.5" y2="17.5" xlink:href="#New_Gradient_Swatch_4"/>
    <linearGradient id="New_Gradient_Swatch_4-68" x1="9.5" y1="9.5" x2="13.5" y2="13.5" xlink:href="#New_Gradient_Swatch_4"/>
    <linearGradient id="New_Gradient_Swatch_4-69" x1="9.5" y1="5.5" x2="13.5" y2="9.5" xlink:href="#New_Gradient_Swatch_4"/>
    <linearGradient id="New_Gradient_Swatch_4-70" x1="13.5" x2="17.5" y2="25.5" xlink:href="#New_Gradient_Swatch_4"/>
    <linearGradient id="New_Gradient_Swatch_4-71" x1="13.5" y1="25.5" x2="17.5" y2="29.5" xlink:href="#New_Gradient_Swatch_4"/>
    <linearGradient id="New_Gradient_Swatch_4-72" x1="13.5" y1="29.5" x2="17.5" y2="33.5" xlink:href="#New_Gradient_Swatch_4"/>
    <linearGradient id="New_Gradient_Swatch_4-73" x1="13.5" y1="33.5" x2="17.5" y2="37.5" xlink:href="#New_Gradient_Swatch_4"/>
    <linearGradient id="New_Gradient_Swatch_4-74" x1="13.5" y1="37.5" x2="17.5" y2="41.5" xlink:href="#New_Gradient_Swatch_4"/>
    <linearGradient id="New_Gradient_Swatch_4-75" x1="13.5" y1="17.5" x2="17.5" y2="21.5" xlink:href="#New_Gradient_Swatch_4"/>
    <linearGradient id="New_Gradient_Swatch_4-76" x1="13.5" y1="13.5" x2="17.5" y2="17.5" xlink:href="#New_Gradient_Swatch_4"/>
    <linearGradient id="New_Gradient_Swatch_4-77" x1="13.5" y1="9.5" x2="17.5" y2="13.5" xlink:href="#New_Gradient_Swatch_4"/>
    <linearGradient id="New_Gradient_Swatch_4-78" x1="13.5" y1="5.5" x2="17.5" y2="9.5" xlink:href="#New_Gradient_Swatch_4"/>
    <linearGradient id="New_Gradient_Swatch_4-79" x1="17.5" x2="21.5" y2="25.5" xlink:href="#New_Gradient_Swatch_4"/>
    <linearGradient id="New_Gradient_Swatch_4-80" x1="17.5" y1="25.5" x2="21.5" y2="29.5" xlink:href="#New_Gradient_Swatch_4"/>
    <linearGradient id="New_Gradient_Swatch_4-81" x1="17.5" y1="29.5" x2="21.5" y2="33.5" xlink:href="#New_Gradient_Swatch_4"/>
    <linearGradient id="New_Gradient_Swatch_4-82" x1="17.5" y1="33.5" x2="21.5" y2="37.5" xlink:href="#New_Gradient_Swatch_4"/>
    <linearGradient id="New_Gradient_Swatch_4-83" x1="17.5" y1="37.5" x2="21.5" y2="41.5" xlink:href="#New_Gradient_Swatch_4"/>
    <linearGradient id="New_Gradient_Swatch_4-84" x1="17.5" y1="41.5" x2="21.5" y2="45.5" xlink:href="#New_Gradient_Swatch_4"/>
    <linearGradient id="New_Gradient_Swatch_4-85" x1="17.5" y1="17.5" x2="21.5" y2="21.5" xlink:href="#New_Gradient_Swatch_4"/>
    <linearGradient id="New_Gradient_Swatch_4-86" x1="17.5" y1="13.5" x2="21.5" y2="17.5" xlink:href="#New_Gradient_Swatch_4"/>
    <linearGradient id="New_Gradient_Swatch_4-87" x1="17.5" y1="9.5" x2="21.5" y2="13.5" xlink:href="#New_Gradient_Swatch_4"/>
    <linearGradient id="New_Gradient_Swatch_4-88" x1="17.5" y1="5.5" x2="21.5" y2="9.5" xlink:href="#New_Gradient_Swatch_4"/>
    <linearGradient id="New_Gradient_Swatch_4-89" x1="17.5" y1="1.5" x2="21.5" y2="5.5" xlink:href="#New_Gradient_Swatch_4"/>
    <linearGradient id="New_Gradient_Swatch_4-90" x1="2.141" y1="14.141" x2="5.5" y2="17.5" xlink:href="#New_Gradient_Swatch_4"/>
    <linearGradient id="New_Gradient_Swatch_4-91" x1="1.821" y1="29.179" x2="5.821" y2="33.179" xlink:href="#New_Gradient_Swatch_4"/>
    <linearGradient id="New_Gradient_Swatch_4-92" x1="3.081" y1="33.202" x2="6.439" y2="36.561" xlink:href="#New_Gradient_Swatch_4"/>
    <linearGradient id="New_Gradient_Swatch_4-93" x1="6.37" y1="36.63" x2="10.37" y2="40.63" xlink:href="#New_Gradient_Swatch_4"/>
    <linearGradient id="New_Gradient_Swatch_4-94" x1="10.439" y1="40.561" x2="13.798" y2="43.919" xlink:href="#New_Gradient_Swatch_4"/>
    <linearGradient id="New_Gradient_Swatch_4-95" x1="13.821" y1="41.179" x2="17.821" y2="45.179" xlink:href="#New_Gradient_Swatch_4"/>
    <linearGradient id="New_Gradient_Swatch_4-96" x1="29.5" y1="41.5" x2="32.859" y2="44.859" xlink:href="#New_Gradient_Swatch_4"/>
    <linearGradient id="New_Gradient_Swatch_4-97" x1="33.821" y1="41.179" x2="35.942" y2="43.301" xlink:href="#New_Gradient_Swatch_4"/>
    <linearGradient id="New_Gradient_Swatch_4-98" x1="37.5" y1="37.5" x2="39.759" y2="39.759" xlink:href="#New_Gradient_Swatch_4"/>
    <linearGradient id="New_Gradient_Swatch_4-99" x1="41.179" y1="33.821" x2="43.301" y2="35.942" xlink:href="#New_Gradient_Swatch_4"/>
    <linearGradient id="New_Gradient_Swatch_4-100" x1="41.5" y1="29.5" x2="44.859" y2="32.859" xlink:href="#New_Gradient_Swatch_4"/>
    <linearGradient id="New_Gradient_Swatch_4-101" x1="41.179" y1="13.821" x2="45.179" y2="17.821" xlink:href="#New_Gradient_Swatch_4"/>
    <linearGradient id="New_Gradient_Swatch_4-102" x1="40.561" y1="10.439" x2="43.919" y2="13.798" xlink:href="#New_Gradient_Swatch_4"/>
    <linearGradient id="New_Gradient_Swatch_4-103" x1="36.63" y1="6.37" x2="40.63" y2="10.37" xlink:href="#New_Gradient_Swatch_4"/>
    <linearGradient id="New_Gradient_Swatch_4-104" x1="33.202" y1="3.081" x2="36.561" y2="6.439" xlink:href="#New_Gradient_Swatch_4"/>
    <linearGradient id="New_Gradient_Swatch_4-105" x1="29.179" y1="1.821" x2="33.179" y2="5.821" xlink:href="#New_Gradient_Swatch_4"/>
    <linearGradient id="New_Gradient_Swatch_4-106" x1="14.141" y1="2.141" x2="17.5" y2="5.5" xlink:href="#New_Gradient_Swatch_4"/>
    <linearGradient id="New_Gradient_Swatch_4-107" x1="11.058" y1="3.699" x2="13.179" y2="5.821" xlink:href="#New_Gradient_Swatch_4"/>
    <linearGradient id="New_Gradient_Swatch_4-108" x1="7.241" y1="7.241" x2="9.5" y2="9.5" xlink:href="#New_Gradient_Swatch_4"/>
    <linearGradient id="New_Gradient_Swatch_4-109" x1="3.699" y1="11.058" x2="5.821" y2="13.179" xlink:href="#New_Gradient_Swatch_4"/>
    <rect x="21.5" y="21.5" width="4" height="4" fill="url(#New_Gradient_Swatch_4)"/>
    <rect x="21.5" y="25.5" width="4" height="4" fill="url(#New_Gradient_Swatch_4-2)"/>
    <rect x="21.5" y="29.5" width="4" height="4" fill="url(#New_Gradient_Swatch_4-3)"/>
    <rect x="21.5" y="33.5" width="4" height="4" fill="url(#New_Gradient_Swatch_4-4)"/>
    <rect x="21.5" y="37.5" width="4" height="4" fill="url(#New_Gradient_Swatch_4-5)"/>
    <rect x="21.5" y="41.5" width="4" height="4" fill="url(#New_Gradient_Swatch_4-6)"/>
    <rect x="21.5" y="17.5" width="4" height="4" fill="url(#New_Gradient_Swatch_4-7)"/>
    <rect x="21.5" y="13.5" width="4" height="4" fill="url(#New_Gradient_Swatch_4-8)"/>
    <rect x="21.5" y="9.5" width="4" height="4" fill="url(#New_Gradient_Swatch_4-9)"/>
    <rect x="21.5" y="5.5" width="4" height="4" fill="url(#New_Gradient_Swatch_4-10)"/>
    <rect x="21.5" y="1.5" width="4" height="4" fill="url(#New_Gradient_Swatch_4-11)"/>
    <rect x="25.5" y="21.5" width="4" height="4" fill="url(#New_Gradient_Swatch_4-12)"/>
    <rect x="25.5" y="25.5" width="4" height="4" fill="url(#New_Gradient_Swatch_4-13)"/>
    <rect x="25.5" y="29.5" width="4" height="4" fill="url(#New_Gradient_Swatch_4-14)"/>
    <rect x="25.5" y="33.5" width="4" height="4" fill="url(#New_Gradient_Swatch_4-15)"/>
    <rect x="25.5" y="37.5" width="4" height="4" fill="url(#New_Gradient_Swatch_4-16)"/>
    <rect x="25.5" y="41.5" width="4" height="4" fill="url(#New_Gradient_Swatch_4-17)"/>
    <rect x="25.5" y="17.5" width="4" height="4" fill="url(#New_Gradient_Swatch_4-18)"/>
    <rect x="25.5" y="13.5" width="4" height="4" fill="url(#New_Gradient_Swatch_4-19)"/>
    <rect x="25.5" y="9.5" width="4" height="4" fill="url(#New_Gradient_Swatch_4-20)"/>
    <rect x="25.5" y="5.5" width="4" height="4" fill="url(#New_Gradient_Swatch_4-21)"/>
    <rect x="25.5" y="1.5" width="4" height="4" fill="url(#New_Gradient_Swatch_4-22)"/>
    <rect x="29.5" y="21.5" width="4" height="4" fill="url(#New_Gradient_Swatch_4-23)"/>
    <rect x="29.5" y="25.5" width="4" height="4" fill="url(#New_Gradient_Swatch_4-24)"/>
    <rect x="29.5" y="29.5" width="4" height="4" fill="url(#New_Gradient_Swatch_4-25)"/>
    <rect x="29.5" y="33.5" width="4" height="4" fill="url(#New_Gradient_Swatch_4-26)"/>
    <rect x="29.5" y="37.5" width="4" height="4" fill="url(#New_Gradient_Swatch_4-27)"/>
    <rect x="29.5" y="17.5" width="4" height="4" fill="url(#New_Gradient_Swatch_4-28)"/>
    <rect x="29.5" y="13.5" width="4" height="4" fill="url(#New_Gradient_Swatch_4-29)"/>
    <rect x="29.5" y="9.5" width="4" height="4" fill="url(#New_Gradient_Swatch_4-30)"/>
    <rect x="29.5" y="5.5" width="4" height="4" fill="url(#New_Gradient_Swatch_4-31)"/>
    <rect x="33.5" y="21.5" width="4" height="4" fill="url(#New_Gradient_Swatch_4-32)"/>
    <rect x="33.5" y="25.5" width="4" height="4" fill="url(#New_Gradient_Swatch_4-33)"/>
    <rect x="33.5" y="29.5" width="4" height="4" fill="url(#New_Gradient_Swatch_4-34)"/>
    <rect x="33.5" y="33.5" width="4" height="4" fill="url(#New_Gradient_Swatch_4-35)"/>
    <rect x="33.5" y="37.5" width="4" height="4" fill="url(#New_Gradient_Swatch_4-36)"/>
    <rect x="33.5" y="17.5" width="4" height="4" fill="url(#New_Gradient_Swatch_4-37)"/>
    <rect x="33.5" y="13.5" width="4" height="4" fill="url(#New_Gradient_Swatch_4-38)"/>
    <rect x="33.5" y="9.5" width="4" height="4" fill="url(#New_Gradient_Swatch_4-39)"/>
    <rect x="33.5" y="5.5" width="4" height="4" fill="url(#New_Gradient_Swatch_4-40)"/>
    <rect x="37.5" y="21.5" width="4" height="4" fill="url(#New_Gradient_Swatch_4-41)"/>
    <rect x="37.5" y="25.5" width="4" height="4" fill="url(#New_Gradient_Swatch_4-42)"/>
    <rect x="37.5" y="29.5" width="4" height="4" fill="url(#New_Gradient_Swatch_4-43)"/>
    <rect x="37.5" y="33.5" width="4" height="4" fill="url(#New_Gradient_Swatch_4-44)"/>
    <rect x="37.5" y="17.5" width="4" height="4" fill="url(#New_Gradient_Swatch_4-45)"/>
    <rect x="37.5" y="13.5" width="4" height="4" fill="url(#New_Gradient_Swatch_4-46)"/>
    <rect x="37.5" y="9.5" width="4" height="4" fill="url(#New_Gradient_Swatch_4-47)"/>
    <rect x="41.5" y="21.5" width="4" height="4" fill="url(#New_Gradient_Swatch_4-48)"/>
    <rect x="41.5" y="25.5" width="4" height="4" fill="url(#New_Gradient_Swatch_4-49)"/>
    <rect x="41.5" y="17.5" width="4" height="4" fill="url(#New_Gradient_Swatch_4-50)"/>
    <rect x="1.5" y="21.5" width="4" height="4" fill="url(#New_Gradient_Swatch_4-51)"/>
    <rect x="1.5" y="25.5" width="4" height="4" fill="url(#New_Gradient_Swatch_4-52)"/>
    <rect x="1.5" y="17.5" width="4" height="4" fill="url(#New_Gradient_Swatch_4-53)"/>
    <rect x="5.5" y="21.5" width="4" height="4" fill="url(#New_Gradient_Swatch_4-54)"/>
    <rect x="5.5" y="25.5" width="4" height="4" fill="url(#New_Gradient_Swatch_4-55)"/>
    <rect x="5.5" y="29.5" width="4" height="4" fill="url(#New_Gradient_Swatch_4-56)"/>
    <rect x="5.5" y="33.5" width="4" height="4" fill="url(#New_Gradient_Swatch_4-57)"/>
    <rect x="5.5" y="17.5" width="4" height="4" fill="url(#New_Gradient_Swatch_4-58)"/>
    <rect x="5.5" y="13.5" width="4" height="4" fill="url(#New_Gradient_Swatch_4-59)"/>
    <rect x="5.5" y="9.5" width="4" height="4" fill="url(#New_Gradient_Swatch_4-60)"/>
    <rect x="9.5" y="21.5" width="4" height="4" fill="url(#New_Gradient_Swatch_4-61)"/>
    <rect x="9.5" y="25.5" width="4" height="4" fill="url(#New_Gradient_Swatch_4-62)"/>
    <rect x="9.5" y="29.5" width="4" height="4" fill="url(#New_Gradient_Swatch_4-63)"/>
    <rect x="9.5" y="33.5" width="4" height="4" fill="url(#New_Gradient_Swatch_4-64)"/>
    <rect x="9.5" y="37.5" width="4" height="4" fill="url(#New_Gradient_Swatch_4-65)"/>
    <rect x="9.5" y="17.5" width="4" height="4" fill="url(#New_Gradient_Swatch_4-66)"/>
    <rect x="9.5" y="13.5" width="4" height="4" fill="url(#New_Gradient_Swatch_4-67)"/>
    <rect x="9.5" y="9.5" width="4" height="4" fill="url(#New_Gradient_Swatch_4-68)"/>
    <rect x="9.5" y="5.5" width="4" height="4" fill="url(#New_Gradient_Swatch_4-69)"/>
    <rect x="13.5" y="21.5" width="4" height="4" fill="url(#New_Gradient_Swatch_4-70)"/>
    <rect x="13.5" y="25.5" width="4" height="4" fill="url(#New_Gradient_Swatch_4-71)"/>
    <rect x="13.5" y="29.5" width="4" height="4" fill="url(#New_Gradient_Swatch_4-72)"/>
    <rect x="13.5" y="33.5" width="4" height="4" fill="url(#New_Gradient_Swatch_4-73)"/>
    <rect x="13.5" y="37.5" width="4" height="4" fill="url(#New_Gradient_Swatch_4-74)"/>
    <rect x="13.5" y="17.5" width="4" height="4" fill="url(#New_Gradient_Swatch_4-75)"/>
    <rect x="13.5" y="13.5" width="4" height="4" fill="url(#New_Gradient_Swatch_4-76)"/>
    <rect x="13.5" y="9.5" width="4" height="4" fill="url(#New_Gradient_Swatch_4-77)"/>
    <rect x="13.5" y="5.5" width="4" height="4" fill="url(#New_Gradient_Swatch_4-78)"/>
    <rect x="17.5" y="21.5" width="4" height="4" fill="url(#New_Gradient_Swatch_4-79)"/>
    <rect x="17.5" y="25.5" width="4" height="4" fill="url(#New_Gradient_Swatch_4-80)"/>
    <rect x="17.5" y="29.5" width="4" height="4" fill="url(#New_Gradient_Swatch_4-81)"/>
    <rect x="17.5" y="33.5" width="4" height="4" fill="url(#New_Gradient_Swatch_4-82)"/>
    <rect x="17.5" y="37.5" width="4" height="4" fill="url(#New_Gradient_Swatch_4-83)"/>
    <rect x="17.5" y="41.5" width="4" height="4" fill="url(#New_Gradient_Swatch_4-84)"/>
    <rect x="17.5" y="17.5" width="4" height="4" fill="url(#New_Gradient_Swatch_4-85)"/>
    <rect x="17.5" y="13.5" width="4" height="4" fill="url(#New_Gradient_Swatch_4-86)"/>
    <rect x="17.5" y="9.5" width="4" height="4" fill="url(#New_Gradient_Swatch_4-87)"/>
    <rect x="17.5" y="5.5" width="4" height="4" fill="url(#New_Gradient_Swatch_4-88)"/>
    <rect x="17.5" y="1.5" width="4" height="4" fill="url(#New_Gradient_Swatch_4-89)"/>
  <path d="M1.5,17.5h4v-4H2.783A22.839,22.839,0,0,0,1.5,16.78Z" fill="url(#New_Gradient_Swatch_4-90)"/>
  <path d="M1.5,30.22A22.839,22.839,0,0,0,2.783,33.5H5.5v-4h-4Z" fill="url(#New_Gradient_Swatch_4-91)"/>
  <path d="M5.257,37.5H5.5v-4H2.783A22.962,22.962,0,0,0,5.257,37.5Z" fill="url(#New_Gradient_Swatch_4-92)"/>
  <path d="M5.5,37.809A23.093,23.093,0,0,0,9.191,41.5H9.5v-4h-4Z" fill="url(#New_Gradient_Swatch_4-93)"/>
  <path d="M9.5,41.743a22.9,22.9,0,0,0,4,2.474V41.5h-4Z" fill="url(#New_Gradient_Swatch_4-94)"/>
  <path d="M13.5,44.217A22.839,22.839,0,0,0,16.78,45.5h.72v-4h-4Z" fill="url(#New_Gradient_Swatch_4-95)"/>
  <path d="M29.5,45.5h.72a22.839,22.839,0,0,0,3.28-1.283V41.5h-4Z" fill="url(#New_Gradient_Swatch_4-96)"/>
  <path d="M33.5,44.217a22.9,22.9,0,0,0,4-2.474V41.5h-4Z" fill="url(#New_Gradient_Swatch_4-97)"/>
  <path d="M41.5,37.5h-4v4h.309A23.093,23.093,0,0,0,41.5,37.809Z" fill="url(#New_Gradient_Swatch_4-98)"/>
  <path d="M41.5,33.5v4h.243a22.962,22.962,0,0,0,2.474-4Z" fill="url(#New_Gradient_Swatch_4-99)"/>
  <path d="M45.5,29.5h-4v4h2.717A22.839,22.839,0,0,0,45.5,30.22Z" fill="url(#New_Gradient_Swatch_4-100)"/>
  <path d="M45.5,16.78a22.839,22.839,0,0,0-1.283-3.28H41.5v4h4Z" fill="url(#New_Gradient_Swatch_4-101)"/>
  <path d="M41.743,9.5H41.5v4h2.717A22.962,22.962,0,0,0,41.743,9.5Z" fill="url(#New_Gradient_Swatch_4-102)"/>
  <path d="M41.5,9.191A23.093,23.093,0,0,0,37.809,5.5H37.5v4h4Z" fill="url(#New_Gradient_Swatch_4-103)"/>
  <path d="M33.5,2.783V5.5h4V5.257A22.962,22.962,0,0,0,33.5,2.783Z" fill="url(#New_Gradient_Swatch_4-104)"/>
  <path d="M30.22,1.5H29.5v4h4V2.783A22.839,22.839,0,0,0,30.22,1.5Z" fill="url(#New_Gradient_Swatch_4-105)"/>
  <path d="M13.5,5.5h4v-4h-.72A22.839,22.839,0,0,0,13.5,2.783Z" fill="url(#New_Gradient_Swatch_4-106)"/>
  <path d="M9.5,5.257V5.5h4V2.783A22.962,22.962,0,0,0,9.5,5.257Z" fill="url(#New_Gradient_Swatch_4-107)"/>
  <path d="M5.5,9.191V9.5h4v-4H9.191A23.093,23.093,0,0,0,5.5,9.191Z" fill="url(#New_Gradient_Swatch_4-108)"/>
  <path d="M5.5,13.5v-4H5.257a22.962,22.962,0,0,0-2.474,4Z" fill="url(#New_Gradient_Swatch_4-109)"/>
  <line x1="25.5" y1="45.5" x2="25.5" y2="1.5" fill="none" stroke="#147391" stroke-miterlimit="10"/>
  <line x1="29.5" y1="45.5" x2="29.5" y2="1.5" fill="none" stroke="#147391" stroke-miterlimit="10"/>
  <line x1="33.5" y1="44.217" x2="33.5" y2="2.783" fill="none" stroke="#147391" stroke-miterlimit="10"/>
  <line x1="37.5" y1="41.743" x2="37.5" y2="5.257" fill="none" stroke="#147391" stroke-miterlimit="10"/>
  <line x1="45.5" y1="16.78" x2="45.5" y2="30.22" fill="none" stroke="#147391" stroke-miterlimit="10"/>
  <line x1="41.5" y1="37.809" x2="41.5" y2="9.191" fill="none" stroke="#147391" stroke-miterlimit="10"/>
  <line x1="1.5" y1="30.22" x2="1.5" y2="16.78" fill="none" stroke="#147391" stroke-miterlimit="10"/>
  <line x1="5.5" y1="37.809" x2="5.5" y2="9.191" fill="none" stroke="#147391" stroke-miterlimit="10"/>
  <line x1="9.5" y1="41.743" x2="9.5" y2="5.257" fill="none" stroke="#147391" stroke-miterlimit="10"/>
  <line x1="13.5" y1="44.217" x2="13.5" y2="2.783" fill="none" stroke="#147391" stroke-miterlimit="10"/>
  <line x1="21.5" y1="1.5" x2="21.5" y2="45.5" fill="none" stroke="#147391" stroke-miterlimit="10"/>
  <line x1="17.5" y1="45.5" x2="17.5" y2="1.5" fill="none" stroke="#147391" stroke-miterlimit="10"/>
  <line x1="1.5" y1="25.5" x2="45.5" y2="25.5" fill="none" stroke="#147391" stroke-miterlimit="10"/>
  <line x1="1.5" y1="29.5" x2="45.5" y2="29.5" fill="none" stroke="#147391" stroke-miterlimit="10"/>
  <line x1="2.783" y1="33.5" x2="44.217" y2="33.5" fill="none" stroke="#147391" stroke-miterlimit="10"/>
  <line x1="5.257" y1="37.5" x2="41.743" y2="37.5" fill="none" stroke="#147391" stroke-miterlimit="10"/>
  <line x1="30.22" y1="45.5" x2="16.78" y2="45.5" fill="none" stroke="#147391" stroke-miterlimit="10"/>
  <line x1="9.191" y1="41.5" x2="37.809" y2="41.5" fill="none" stroke="#147391" stroke-miterlimit="10"/>
  <line x1="16.78" y1="1.5" x2="30.22" y2="1.5" fill="none" stroke="#147391" stroke-miterlimit="10"/>
  <line x1="9.191" y1="5.5" x2="37.809" y2="5.5" fill="none" stroke="#147391" stroke-miterlimit="10"/>
  <line x1="5.257" y1="9.5" x2="41.743" y2="9.5" fill="none" stroke="#147391" stroke-miterlimit="10"/>
  <line x1="2.783" y1="13.5" x2="44.217" y2="13.5" fill="none" stroke="#147391" stroke-miterlimit="10"/>
  <line x1="45.5" y1="21.5" x2="1.5" y2="21.5" fill="none" stroke="#147391" stroke-miterlimit="10"/>
  <line x1="1.5" y1="17.5" x2="45.5" y2="17.5" fill="none" stroke="#147391" stroke-miterlimit="10"/>
  <circle cx="23.5" cy="23.5" r="23" fill="none" stroke="#464646" stroke-miterlimit="10"/>
</svg>
