<svg id="Layer_1" data-name="Layer 1" xmlns="http://www.w3.org/2000/svg" viewBox="0 0 48 48">
    <rect y="6" width="42" height="42" fill="#009898"/>
    <rect x="6" width="42" height="42" fill="#004669"/>
    <rect x="6" width="42" height="42" fill="#3aae81"/>
      <path d="M17.9541,29.8042a2.0037,2.0037,0,0,0-.5-1.4785,5.7691,5.7691,0,0,0-1.8184-1.0381,8.4673,8.4673,0,0,1-3.4609-2.1367A4.2971,4.2971,0,0,1,11.12,22.2554a4.0586,4.0586,0,0,1,1.4336-3.2471,5.4122,5.4122,0,0,1,3.6426-1.2256,5.45,5.45,0,0,1,2.626.6211,4.3058,4.3058,0,0,1,1.7744,1.7529,5.2543,5.2543,0,0,1,.6211,2.5713h-3.22a2.6554,2.6554,0,0,0-.4775-1.709,1.6748,1.6748,0,0,0-1.3789-.5878,1.7257,1.7257,0,0,0-1.3184.5,1.8775,1.8775,0,0,0-.4726,1.3457,1.6585,1.6585,0,0,0,.5273,1.1923,6.0492,6.0492,0,0,0,1.8682,1.1045,8.0131,8.0131,0,0,1,3.4,2.0772,4.6251,4.6251,0,0,1,1.0605,3.1308,4.1275,4.1275,0,0,1-1.33,3.2637,5.2587,5.2587,0,0,1-3.6143,1.1758,6.2262,6.2262,0,0,1-2.8242-.6377A4.7773,4.7773,0,0,1,11.4443,31.76a5.2953,5.2953,0,0,1-.72-2.8028h3.2412a3.062,3.062,0,0,0,.5381,2.0117,2.2075,2.2075,0,0,0,1.7588.626Q17.9545,31.5952,17.9541,29.8042Z" fill="#fff"/>
      <path d="M26.1377,23.1558a3.0722,3.0722,0,0,1,2.4834-1.2627,2.8857,2.8857,0,0,1,2.4726,1.1425,5.7443,5.7443,0,0,1,.8575,3.4063v7.56H28.83V26.4751a2.7187,2.7187,0,0,0-.3242-1.5117,1.1871,1.1871,0,0,0-1.0489-.4668,1.4713,1.4713,0,0,0-1.3193.78v8.7246H23.0283V17.1235h3.1094Z" fill="#fff"/>
</svg>
