<svg id="Layer_1" data-name="Layer 1" xmlns="http://www.w3.org/2000/svg" xmlns:xlink="http://www.w3.org/1999/xlink" width="48" height="48" viewBox="0 0 48 48">
  <defs>
    <linearGradient id="linear-gradient" x1="8.749" y1="33.682" x2="24.479" y2="6.437" gradientTransform="matrix(-1, 0, 0, 1, 39.938, 0)" gradientUnits="userSpaceOnUse">
      <stop offset="0" stop-color="#bebebe"/>
      <stop offset="0.08" stop-color="#c6c6c6"/>
      <stop offset="0.459" stop-color="#e5e5e5"/>
      <stop offset="0.779" stop-color="#f8f8f8"/>
      <stop offset="1" stop-color="#fff"/>
    </linearGradient>
    <linearGradient id="paper_gradient" data-name="paper gradient" x1="37.515" y1="26.857" x2="40.515" y2="26.857" gradientUnits="userSpaceOnUse">
      <stop offset="0" stop-color="#fff"/>
      <stop offset="0.221" stop-color="#f8f8f8"/>
      <stop offset="0.541" stop-color="#e5e5e5"/>
      <stop offset="0.92" stop-color="#c6c6c6"/>
      <stop offset="1" stop-color="#bebebe"/>
    </linearGradient>
    <linearGradient id="Dark_Blue_Grad" data-name="Dark Blue Grad" x1="-765.923" y1="-444.466" x2="-753.73" y2="-448.903" gradientTransform="matrix(-0.005, 1, -1.023, -0.005, -421.584, 797.551)" gradientUnits="userSpaceOnUse">
      <stop offset="0" stop-color="#73b4c8"/>
      <stop offset="0.175" stop-color="#6aaec3"/>
      <stop offset="0.457" stop-color="#529eb5"/>
      <stop offset="0.809" stop-color="#2c839f"/>
      <stop offset="1" stop-color="#147391"/>
    </linearGradient>
    <linearGradient id="linear-gradient-2" x1="35.5" y1="38" x2="38.5" y2="38" gradientUnits="userSpaceOnUse">
      <stop offset="0" stop-color="#73b4c8"/>
      <stop offset="0.227" stop-color="#70b2c6"/>
      <stop offset="0.426" stop-color="#65aac0"/>
      <stop offset="0.616" stop-color="#539eb5"/>
      <stop offset="0.799" stop-color="#398da7"/>
      <stop offset="0.976" stop-color="#197694"/>
      <stop offset="1" stop-color="#147391"/>
    </linearGradient>
  </defs>
  <path d="M22.494,5.353l.035,9.137s4.758.193,7.746-2.556C31.287,11,32.249,9.14,30.4,7.75,28.96,6.674,25.733,6.19,22.494,5.353Z" fill="#888"/>
  <path d="M31.5,23.492l12.992-.023V2.5H29.741s-5.816-.167-6.976,1a.86.86,0,0,0-.235.446c0,.026-.006.125-.005.147C22.657,6.9,31.5,5.735,31.5,9.413c0,3.909-5.391,5.077-9.072,5.077H1.511L1.488,36.464H20.7c8.713.117,10.8-3.535,10.8-3.611V9.493" stroke="#6e6e6e" stroke-linejoin="round" fill="url(#linear-gradient)"/>
  <path d="M22.957,14.49H1.511L1.488,36.464l19.105,0c8.713.117,10.938-3.5,10.938-3.577V23.03" fill="none" stroke="#464646" stroke-linejoin="round"/>
  <path d="M22.5,7.984s-.031-3.513.011-4.083a.852.852,0,0,1,.3-.443c1.235-1.114,6.819-.958,6.819-.958H44.492V23.469l-12.961.049" fill="none" stroke="#464646" stroke-linejoin="round"/>
  <line x1="42.008" y1="5.987" x2="39.008" y2="5.987" fill="#fff" stroke="#6e6e6e" stroke-linejoin="bevel" stroke-width="2"/>
  <line x1="37" y1="11.003" x2="35" y2="11.003" fill="#fff" stroke="#6e6e6e" stroke-linejoin="bevel" stroke-width="2"/>
  <line x1="36" y1="15.972" x2="33" y2="15.972" fill="#fff" stroke="#6e6e6e" stroke-linejoin="bevel" stroke-width="2"/>
  <line x1="42.997" y1="20" x2="39.997" y2="20" fill="#fff" stroke="#6e6e6e" stroke-linejoin="bevel" stroke-width="2"/>
  <line x1="8" y1="23" x2="4" y2="23" fill="#fff" stroke="#6e6e6e" stroke-linejoin="bevel" stroke-width="2"/>
  <line x1="6.999" y1="19" x2="4.999" y2="19" fill="#fff" stroke="#6e6e6e" stroke-linejoin="bevel" stroke-width="2"/>
  <line x1="17" y1="19" x2="15" y2="19" fill="#fff" stroke="#6e6e6e" stroke-linejoin="bevel" stroke-width="2"/>
  <line x1="17" y1="23" x2="15" y2="23" fill="#fff" stroke="#6e6e6e" stroke-linejoin="bevel" stroke-width="2"/>
  <line x1="11" y1="28" x2="9" y2="28" fill="#fff" stroke="#6e6e6e" stroke-linejoin="bevel" stroke-width="2"/>
  <line x1="17.001" y1="28" x2="14.001" y2="28" fill="#fff" stroke="#6e6e6e" stroke-linejoin="bevel" stroke-width="2"/>
  <line x1="12" y1="32" x2="10" y2="32" fill="#fff" stroke="#6e6e6e" stroke-linejoin="bevel" stroke-width="2"/>
  <line x1="26.986" y1="31.834" x2="25.014" y2="32.166" fill="#fff" stroke="#6e6e6e" stroke-linejoin="bevel" stroke-width="2"/>
  <line x1="23" y1="23" x2="20" y2="23" fill="#fff" stroke="#6e6e6e" stroke-linejoin="bevel" stroke-width="2"/>
  <line x1="7" y1="32" x2="5" y2="32" fill="#fff" stroke="#6e6e6e" stroke-linejoin="bevel" stroke-width="2"/>
  <line x1="22.505" y1="7.938" x2="22.506" y2="14.976" fill="none" stroke="#464646"/>
  <rect x="37.515" y="19.057" width="3" height="15.6" stroke="#464646" stroke-linejoin="round" fill="url(#paper_gradient)"/>
  <path d="M38.976,46.5A6.5,6.5,0,1,1,45.5,40.037,6.5,6.5,0,0,1,38.976,46.5Z" stroke="#147391" stroke-linecap="round" stroke-linejoin="round" fill="url(#Dark_Blue_Grad)"/>
  <path d="M38.5,38A1.5,1.5,0,1,1,37,36.5,1.5,1.5,0,0,1,38.5,38Z" stroke="#147391" stroke-linecap="round" stroke-linejoin="round" fill="url(#linear-gradient-2)"/>
  <line x1="23" y1="32" x2="18" y2="32" fill="#fff" stroke="#6e6e6e" stroke-linejoin="bevel" stroke-width="2"/>
</svg>
