<svg id="Layer_1" data-name="Layer 1" xmlns="http://www.w3.org/2000/svg" xmlns:xlink="http://www.w3.org/1999/xlink" viewBox="0 0 48 48">
    <linearGradient id="paper_gradient" data-name="paper gradient" x1="4" y1="43" x2="44" y2="3" gradientTransform="matrix(1, 0, 0, -1, 0, 48)" gradientUnits="userSpaceOnUse">
      <stop offset="0" stop-color="#ffffff"/>
      <stop offset="0.221" stop-color="#f8f8f8"/>
      <stop offset="0.541" stop-color="#e5e5e5"/>
      <stop offset="0.92" stop-color="#c6c6c6"/>
      <stop offset="1" stop-color="#bebebe"/>
    </linearGradient>
    <linearGradient id="Dark_Blue_Grad" data-name="Dark Blue Grad" x1="8.75" y1="1.25" x2="21.25" y2="13.75" gradientUnits="userSpaceOnUse">
      <stop offset="0" stop-color="#c8c8c8"/>
      <stop offset="0.175" stop-color="#c3c3c3"/>
      <stop offset="0.457" stop-color="#b5b5b5"/>
      <stop offset="0.809" stop-color="#9f9f9f"/>
      <stop offset="1" stop-color="#919191"/>
    </linearGradient>
    <linearGradient id="Dark_Blue_Grad-2" x1="17.043" y1="15.129" x2="31.957" y2="30.043" xlink:href="#Dark_Blue_Grad"/>
  <rect x="6.5" y="2.5" width="35" height="45" stroke="#464646" stroke-miterlimit="10" fill="url(#paper_gradient)"/>
  <polygon points="20.5 14.5 15 9 9.5 14.5 9.5 0.5 20.5 0.5 20.5 14.5" stroke="#464646" stroke-miterlimit="10" fill="url(#Dark_Blue_Grad)"/>
    <path d="M12.5,25V41.5a2,2,0,0,0,2,2h20a2,2,0,0,0,2-2V25" fill="none" stroke="#919191" stroke-miterlimit="10"/>
    <line x1="13" y1="31.5" x2="36" y2="31.5" fill="none" stroke="#919191"/>
    <line x1="13" y1="37.5" x2="36" y2="37.5" fill="none" stroke="#919191"/>
    <line x1="20.5" y1="25.5" x2="20.5" y2="43" fill="none" stroke="#919191"/>
    <line x1="28.5" y1="25.5" x2="28.5" y2="43" fill="none" stroke="#919191"/>
  <path d="M12.5,25.5v-5a2,2,0,0,1,2-2h20a2,2,0,0,1,2,2v5Zm6.5-5A1.5,1.5,0,1,0,20.5,22,1.5,1.5,0,0,0,19,20.5Zm11,0A1.5,1.5,0,1,0,31.5,22,1.5,1.5,0,0,0,30,20.5Z" stroke="#919191" stroke-miterlimit="10" fill="url(#Dark_Blue_Grad-2)"/>
</svg>
