<svg version="1.1" id="Layer_1" xmlns="http://www.w3.org/2000/svg" xmlns:xlink="http://www.w3.org/1999/xlink" x="0px" y="0px"
	 viewBox="0 0 48 48" enable-background="new 0 0 48 48" xml:space="preserve">
<linearGradient id="SVGID_1_" gradientUnits="userSpaceOnUse" x1="5.7613" y1="0.7534" x2="41.2544" y2="36.2466">
	<stop  offset="0" style="stop-color:#73B4C8"/>
	<stop  offset="0.1747" style="stop-color:#6AAEC3"/>
	<stop  offset="0.4567" style="stop-color:#529EB5"/>
	<stop  offset="0.8089" style="stop-color:#2C839F"/>
	<stop  offset="1" style="stop-color:#147391"/>
</linearGradient>
<path fill="url(#SVGID_1_)" stroke="#464646" stroke-linecap="round" stroke-linejoin="round" stroke-miterlimit="10" d="M39.5,35.5
	h-14l-10,10l0-10h-8c-3.3,0-6-2.7-6-6v-22c0-3.3,2.7-6,6-6h32c3.3,0,6,2.7,6,6v22C45.5,32.8,42.8,35.5,39.5,35.5z"/>
	<path fill="#FFFFFF" d="M33,30.5c-0.4,0-0.8-0.2-1.1-0.4l-2.2-2.2c-1.8,1.7-4,2.6-6.2,2.6c-5.5,0-10-5.4-10-12s4.5-12,10-12
		c5.5,0,10,5.4,10,12c0,2.5-0.7,4.9-1.9,7l2.4,2.4c0.3,0.3,0.4,0.7,0.4,1.1s-0.2,0.8-0.4,1.1S33.4,30.5,33,30.5z M23.5,9.5
		c-3.9,0-7,4-7,9s3.1,9,7,9c1.5,0,2.9-0.6,4.1-1.7l-1.7-1.7c-0.6-0.6-0.6-1.5,0-2.1c0.3-0.3,0.7-0.4,1.1-0.4s0.8,0.2,1.1,0.4
		l1.4,1.4c0.7-1.4,1.1-3.1,1.1-4.8C30.5,13.5,27.4,9.5,23.5,9.5z"/>
	<path fill="#147391" d="M23.5,7c5.2,0,9.5,5.2,9.5,11.5c0,2.7-0.8,5.1-2,7.1l2.7,2.7c0.4,0.4,0.4,1,0,1.4C33.5,29.9,33.3,30,33,30
		c-0.3,0-0.5-0.1-0.7-0.3l-2.6-2.6c-1.7,1.8-3.8,2.8-6.2,2.8c-5.2,0-9.5-5.2-9.5-11.5S18.3,7,23.5,7 M23.5,28c1.8,0,3.5-0.8,4.8-2.3
		l-2-2c-0.4-0.4-0.4-1,0-1.4c0.2-0.2,0.5-0.3,0.7-0.3s0.5,0.1,0.7,0.3l1.8,1.8c0.9-1.6,1.5-3.5,1.5-5.6c0-5.2-3.4-9.5-7.5-9.5
		S16,13.3,16,18.5S19.4,28,23.5,28 M23.5,6C17.7,6,13,11.6,13,18.5S17.7,31,23.5,31c2.2,0,4.4-0.9,6.2-2.4l1.9,1.9
		C32,30.8,32.5,31,33,31c0.5,0,1-0.2,1.4-0.6C34.8,30,35,29.5,35,29s-0.2-1-0.6-1.4l-2.2-2.2c1.2-2.1,1.8-4.4,1.8-6.9
		C34,11.6,29.3,6,23.5,6L23.5,6z M23.5,27c-3.6,0-6.5-3.8-6.5-8.5s2.9-8.5,6.5-8.5s6.5,3.8,6.5,8.5c0,1.4-0.3,2.7-0.7,3.9l-0.8-0.8
		C28,21.2,27.5,21,27,21c-0.5,0-1,0.2-1.4,0.6c-0.8,0.8-0.8,2,0,2.8l1.3,1.3C25.9,26.6,24.7,27,23.5,27L23.5,27z"/>
</svg>
