<svg id="Layer_1" data-name="Layer 1" xmlns="http://www.w3.org/2000/svg" xmlns:xlink="http://www.w3.org/1999/xlink" viewBox="0 0 48 48">
    <linearGradient id="linear-gradient" x1="0.5" y1="0.5" x2="47.5" y2="47.5" gradientUnits="userSpaceOnUse">
      <stop offset="0" stop-color="#fff"/>
      <stop offset="0.2323" stop-color="#fafafa"/>
      <stop offset="0.4964" stop-color="#ededed"/>
      <stop offset="0.775" stop-color="#d6d6d6"/>
      <stop offset="1" stop-color="#bebebe"/>
    </linearGradient>
    <linearGradient id="linear-gradient-2" x1="5.5385" y1="31.054" x2="20.4138" y2="31.054" gradientUnits="userSpaceOnUse">
      <stop offset="0" stop-color="#fff"/>
      <stop offset="0.3355" stop-color="#f8f8f8"/>
      <stop offset="0.8196" stop-color="#e5e5e5"/>
      <stop offset="1" stop-color="#dcdcdc"/>
    </linearGradient>
    <linearGradient id="linear-gradient-3" x1="27.5862" y1="31.054" x2="42.4615" y2="31.054" xlink:href="#linear-gradient-2"/>
  <rect x="0.5" y="0.5" width="47" height="47" stroke="#464646" stroke-miterlimit="10" fill="url(#linear-gradient)"/>
    <path d="M35.0229,38.5136c-5.2324,0-9.4887-3.3462-9.4887-7.4595a5.7952,5.7952,0,0,1,.1011-1.07,10.9385,10.9385,0,0,0-3.2505.0986,5.8662,5.8662,0,0,1,.081.9712c0,4.1133-4.2573,7.4595-9.49,7.4595s-9.4893-3.3462-9.4893-7.4595a6.039,6.039,0,0,1,.585-2.5606l7.7715-14.8169c.0874-.1669,2.1811-4.1,5.2837-4.1,1.9072.0191,3.55,1.4053,4.9194,4.12a.5138.5138,0,0,1-.22.6865L20.4585,15.1a.5119.5119,0,0,1-.2388.0586.5053.5053,0,0,1-.1567-.0244.5136.5136,0,0,1-.3023-.2578c-.8754-1.7359-1.8071-2.6958-2.6225-2.7036-1.2061,0-2.5615,1.8364-3.0308,2.7255-1.5005,2.9952-3.6118,7.2486-4.5395,9.1968a11.7729,11.7729,0,0,1,3.4077-.5,10.0358,10.0358,0,0,1,8.3491,3.9248h5.3521a10.0313,10.0313,0,0,1,8.3461-3.9248,11.8065,11.8065,0,0,1,3.4092.4995c-.9375-1.9829-3.1093-6.3725-4.5708-9.2978-.4673-.8775-1.8281-2.7139-3.0132-2.7139-.8261.0088-1.7573.9688-2.6337,2.7036a.5142.5142,0,0,1-.6973.2237L26.15,14.2924a.5139.5139,0,0,1-.22-.6866c1.37-2.7163,3.0132-4.102,4.8833-4.12,3.0664,0,5.0967,3.6782,5.3183,4.0972l7.7471,14.8047a6.0686,6.0686,0,0,1,.6353,2.666C44.5137,35.1674,40.2563,38.5136,35.0229,38.5136Z" fill="#3c91af"/>
    <path d="M30.848,10c2.7779,0,4.7461,3.6675,4.8287,3.8237L43.423,28.6262A5.54,5.54,0,0,1,44,31.054C44,34.8838,39.9736,38,35.0231,38c-4.9489,0-8.9753-3.1162-8.9753-6.946a5.4378,5.4378,0,0,1,.216-1.498,11.4757,11.4757,0,0,0-4.4888.1277,5.4357,5.4357,0,0,1,.1772,1.37c0,3.83-4.0264,6.946-8.9768,6.946S4,34.8838,4,31.054A5.5282,5.5282,0,0,1,4.5372,28.71l7.7606-14.7946C12.38,13.7578,14.35,10.09,17.1265,10.09h.03c1.6647.0169,3.1551,1.3078,4.4306,3.8375l-1.3672.7167c-.6835-1.3552-1.7728-2.9738-3.0769-2.9861h-.0165c-1.549,0-3.0318,2.1622-3.4736,3,0,0-5.1762,10.3322-5.0406,10.3322l.0017,0a10.9845,10.9845,0,0,1,4.3614-.882,9.4753,9.4753,0,0,1,8.0718,3.9247h5.9071a9.4672,9.4672,0,0,1,8.0688-3.9247,10.9978,10.9978,0,0,1,4.3561.8782l.0019,0c.1449,0-5.06-10.42-5.06-10.42-.4447-.8346-1.9321-2.9983-3.4735-2.9983h-.0166c-1.3041.0137-2.3918,1.6323-3.0754,2.986l-1.3672-.7166c1.2756-2.53,2.7674-3.8222,4.4291-3.8375h.03m0-1.0278h-.03c-2.0878.0192-3.8835,1.5-5.3468,4.4025a1.0279,1.0279,0,0,0,.4405,1.3731l1.3672.7166a1.0278,1.0278,0,0,0,1.3947-.447c.8979-1.778,1.709-2.4167,2.1688-2.4216.8163,0,2.0377,1.451,2.5722,2.4539,1.236,2.4753,3.0145,6.0663,4.0829,8.2791a12.4258,12.4258,0,0,0-2.4743-.2487,10.6368,10.6368,0,0,0-8.6113,3.9248H21.59A10.6418,10.6418,0,0,0,12.9754,23.08a12.4163,12.4163,0,0,0-2.4682.2478c1.0671-2.1983,2.8306-5.746,4.0647-8.2093.5185-.9829,1.7358-2.4324,2.5546-2.4324.4672.0043,1.2787.6426,2.1758,2.4212a1.0277,1.0277,0,0,0,1.3948.4474l1.3672-.7167a1.0277,1.0277,0,0,0,.4406-1.373c-1.4624-2.9-3.2583-4.3815-5.3379-4.4025-3.39,0-5.545,3.9281-5.78,4.376L3.627,28.2328a6.5927,6.5927,0,0,0-.6548,2.8212c0,4.3968,4.4874,7.9738,10.0032,7.9738S22.98,35.4508,22.98,31.054q0-.27-.0232-.5409a10.4408,10.4408,0,0,1,1.38-.0917q.356,0,.7133.0244-.03.3054-.03.6082c0,4.3968,4.4874,7.9738,10.0031,7.9738s10.0047-3.577,10.0047-7.9738a6.5569,6.5569,0,0,0-.68-2.876L36.5873,13.3471c-.2388-.4515-2.4107-4.3749-5.7393-4.3749Z" fill="#147391"/>
  <path d="M12.9754,36.4319c-4.1,0-7.4369-2.4118-7.4369-5.3779a4.0694,4.0694,0,0,1,.5108-1.9181l.1294-.2464c1.1551-1.8889,3.7625-3.2135,6.7967-3.2135,4.1015,0,7.4384,2.4118,7.4384,5.378S17.0769,36.4319,12.9754,36.4319Z" fill="url(#linear-gradient-2)"/>
  <path d="M35.0231,36.4319c-4.1,0-7.4369-2.4118-7.4369-5.3779s3.3369-5.378,7.4369-5.378c4.1016,0,7.4384,2.4118,7.4384,5.378S39.1247,36.4319,35.0231,36.4319Z" fill="url(#linear-gradient-3)"/>
</svg>
