<svg version="1.1" id="Layer_1" xmlns="http://www.w3.org/2000/svg" xmlns:xlink="http://www.w3.org/1999/xlink" x="0px" y="0px"
	viewBox="0 0 48 48" enable-background="new 0 0 48 48" xml:space="preserve">
<linearGradient id="XMLID_3_" gradientUnits="userSpaceOnUse" x1="0.5" y1="10.5" x2="33.5" y2="43.5">
	<stop  offset="0" style="stop-color:#FFFFFF"/>
	<stop  offset="0.2214" style="stop-color:#F8F8F8"/>
	<stop  offset="0.5415" style="stop-color:#E5E5E5"/>
	<stop  offset="0.92" style="stop-color:#C6C6C6"/>
	<stop  offset="1" style="stop-color:#BEBEBE"/>
</linearGradient>
<path id="XMLID_1_" fill="url(#XMLID_3_)" stroke="#464646" stroke-miterlimit="10" d="M21.273,10.5
	c1.122-0.915,1.82-2.399,1.82-4.094C23.094,3.051,20.361,0.5,17,0.5s-6.079,2.509-6.079,5.864c0,1.695,0.698,3.221,1.82,4.136H0.5
	v12.629c1.105-1.129,2.643-1.835,4.35-1.835c3.361,0,6.086,2.72,6.086,6.075s-2.725,6.075-6.086,6.075
	c-1.707,0-3.244-0.705-4.35-1.835V43.5h33v-33H21.273z"/>
<linearGradient id="SVGID_1_" gradientUnits="userSpaceOnUse" x1="26.2502" y1="23.7501" x2="48.7501" y2="46.25">
	<stop  offset="0" style="stop-color:#F2F2F2"/>
	<stop  offset="0.5" style="stop-color:#CCCCCC"/>
	<stop  offset="0.6296" style="stop-color:#C7C7C7"/>
	<stop  offset="0.7792" style="stop-color:#B9B9B9"/>
	<stop  offset="0.9383" style="stop-color:#A2A2A2"/>
	<stop  offset="0.99" style="stop-color:#999999"/>
</linearGradient>
<rect x="27.5" y="22.5" fill="url(#SVGID_1_)" stroke="#464646" stroke-miterlimit="10" width="20" height="25"/>
<line fill="none" stroke="#6E6E6E" stroke-miterlimit="10" x1="31" y1="41.5" x2="35" y2="41.5"/>
<line fill="none" stroke="#6E6E6E" stroke-miterlimit="10" x1="31" y1="38.5" x2="33" y2="38.5"/>
<line fill="none" stroke="#6E6E6E" stroke-miterlimit="10" x1="31" y1="44.5" x2="33" y2="44.5"/>
<line fill="none" stroke="#6E6E6E" stroke-miterlimit="10" x1="31" y1="35.5" x2="33" y2="35.5"/>
<line fill="none" stroke="#6E6E6E" stroke-miterlimit="10" x1="31" y1="32.5" x2="33" y2="32.5"/>
<line fill="none" stroke="#6E6E6E" stroke-miterlimit="10" x1="31" y1="29.5" x2="35" y2="29.5"/>
<line fill="none" stroke="#6E6E6E" stroke-miterlimit="10" x1="31" y1="26.5" x2="33" y2="26.5"/>
<polyline fill="none" stroke="#6E6E6E" stroke-linejoin="round" stroke-miterlimit="10" points="39.5,39.5 41.5,38.5 41.5,44.5 "/>
<path fill="none" stroke="#6E6E6E" stroke-miterlimit="10" d="M39.5,27L39.5,27c0-0.828,0.672-1.5,1.5-1.5h1
	c0.828,0,1.5,0.672,1.5,1.5v0.169c0,0.517-0.266,0.998-0.705,1.272l-2.355,1.472c-0.585,0.365-0.94,1.006-0.94,1.696V32.5H44"/>
<line fill="none" stroke="#6E6E6E" stroke-miterlimit="10" x1="40" y1="44.5" x2="43" y2="44.5"/>
</svg>
