<svg id="Layer_1" data-name="Layer 1" xmlns="http://www.w3.org/2000/svg" xmlns:xlink="http://www.w3.org/1999/xlink" viewBox="0 0 48 48">
    <linearGradient id="paper_gradient" data-name="paper gradient" x1="-2" y1="44" x2="35.999" y2="6" gradientTransform="matrix(1, 0, 0, -1, 0, 48)" gradientUnits="userSpaceOnUse">
      <stop offset="0" stop-color="#ffffff"/>
      <stop offset="0.221" stop-color="#f8f8f8"/>
      <stop offset="0.541" stop-color="#e5e5e5"/>
      <stop offset="0.92" stop-color="#c6c6c6"/>
      <stop offset="1" stop-color="#bebebe"/>
    </linearGradient>
    <linearGradient id="Dark_Blue_Grad" data-name="Dark Blue Grad" x1="3" y1="1" x2="15" y2="13" gradientUnits="userSpaceOnUse">
      <stop offset="0" stop-color="#c8c8c8"/>
      <stop offset="0.175" stop-color="#c3c3c3"/>
      <stop offset="0.457" stop-color="#b5b5b5"/>
      <stop offset="0.809" stop-color="#9f9f9f"/>
      <stop offset="1" stop-color="#919191"/>
    </linearGradient>
    <linearGradient id="linear-gradient" x1="45.576" y1="28.301" x2="31.627" y2="42.251" gradientTransform="matrix(-1, 0, 0, 1, 70.377, 0)" xlink:href="#Dark_Blue_Grad"/>
    <linearGradient id="Light_Blue_Grad" data-name="Light Blue Grad" x1="25.901" y1="20.075" x2="39.301" y2="33.475" gradientTransform="translate(4.625)" gradientUnits="userSpaceOnUse">
      <stop offset="0" stop-color="#e1e1e1"/>
      <stop offset="1" stop-color="#c8c8c8"/>
    </linearGradient>
  <rect x="0.5" y="1.5" width="33" height="43" stroke="#464646" stroke-miterlimit="10" fill="url(#paper_gradient)"/>
  <polygon points="14.5 13.5 9 8 3.5 13.5 3.5 0.5 14.5 0.5 14.5 13.5" stroke="#464646" stroke-miterlimit="10" fill="url(#Dark_Blue_Grad)"/>
  <line x1="17" y1="21.5" x2="30" y2="21.5" fill="none" stroke="#5a5a5a" stroke-miterlimit="10"/>
  <line x1="17" y1="37.5" x2="30" y2="37.5" fill="none" stroke="#5a5a5a" stroke-miterlimit="10"/>
  <line x1="17" y1="29.5" x2="23.999" y2="29.5" fill="none" stroke="#5a5a5a" stroke-miterlimit="10"/>
  <polyline points="7 37 9.5 39.5 15 33" fill="none" stroke="#5a5a5a" stroke-linejoin="round"/>
  <polyline points="7 29 9.5 31.5 15 25" fill="none" stroke="#5a5a5a" stroke-linejoin="round"/>
  <polyline points="7 21 9.5 23.5 15 17" fill="none" stroke="#5a5a5a" stroke-linejoin="round"/>
  <path d="M28.5,42.5h0l5,5v-5h1a7,7,0,0,0,7-7v-1a7,7,0,0,0-7-7h-6a7,7,0,0,0-7,7v1A7,7,0,0,0,28.5,42.5Z" stroke="#464646" stroke-linecap="round" stroke-linejoin="round" fill="url(#linear-gradient)"/>
  <path d="M40.5,34h0l-5,5V34h-1a7,7,0,0,1-7-7V26a7,7,0,0,1,7-7h6a7,7,0,0,1,7,7v1A7,7,0,0,1,40.5,34Z" stroke="#464646" stroke-linecap="round" stroke-linejoin="round" fill="url(#Light_Blue_Grad)"/>
</svg>
