<svg id="Layer_1" data-name="Layer 1" xmlns="http://www.w3.org/2000/svg" xmlns:xlink="http://www.w3.org/1999/xlink" viewBox="0 0 48 48">
    <linearGradient id="linear-gradient" x1="3" y1="4" x2="38" y2="39" gradientUnits="userSpaceOnUse">
      <stop offset="0" stop-color="#fff"/>
      <stop offset="0.2284" stop-color="#fafafa"/>
      <stop offset="0.4881" stop-color="#ededed"/>
      <stop offset="0.7621" stop-color="#d7d6d6"/>
      <stop offset="1" stop-color="#bdbcbc"/>
    </linearGradient>
    <linearGradient id="Dark_Blue_Grad_3" data-name="Dark Blue Grad 3" x1="9" y1="-8" x2="32" y2="15" gradientUnits="userSpaceOnUse">
      <stop offset="0" stop-color="#73b3c6"/>
      <stop offset="0.1774" stop-color="#6aadc1"/>
      <stop offset="0.4638" stop-color="#529db3"/>
      <stop offset="0.8215" stop-color="#2c839c"/>
      <stop offset="1" stop-color="#16748f"/>
    </linearGradient>
    <linearGradient id="linear-gradient-2" x1="26.4998" y1="16.2111" x2="40.5002" y2="30.2115" gradientUnits="userSpaceOnUse">
      <stop offset="0" stop-color="#afd7e1"/>
      <stop offset="0.1588" stop-color="#a4d0dc"/>
      <stop offset="0.7059" stop-color="#80bcce"/>
      <stop offset="1" stop-color="#73b4c8"/>
    </linearGradient>
    <linearGradient id="linear-gradient-3" x1="16.9473" y1="25.7635" x2="36.0527" y2="44.8689" xlink:href="#linear-gradient-2"/>
    <linearGradient id="linear-gradient-4" x1="29.5882" y1="35.4975" x2="37.4118" y2="43.3211" xlink:href="#linear-gradient-2"/>
    <linearGradient id="paper_gradient" data-name="paper gradient" x1="21.5" y1="34.9982" x2="31.5" y2="34.9982" gradientUnits="userSpaceOnUse">
      <stop offset="0" stop-color="#fff"/>
      <stop offset="0.2214" stop-color="#f8f8f8"/>
      <stop offset="0.5415" stop-color="#e5e5e5"/>
      <stop offset="0.92" stop-color="#c6c6c6"/>
      <stop offset="1" stop-color="#bebebe"/>
    </linearGradient>
    <linearGradient id="linear-gradient-5" x1="36.1534" y1="39.5427" x2="44.8466" y2="30.8495" gradientUnits="userSpaceOnUse">
      <stop offset="0" stop-color="#bebebe"/>
      <stop offset="0.08" stop-color="#c6c6c6"/>
      <stop offset="0.4585" stop-color="#e5e5e5"/>
      <stop offset="0.7786" stop-color="#f8f8f8"/>
      <stop offset="1" stop-color="#fff"/>
    </linearGradient>
    <rect x="0.5" y="6.5" width="40" height="30" fill="url(#linear-gradient)"/>
      <rect x="0.5" y="0.5" width="40" height="6" fill="url(#Dark_Blue_Grad_3)"/>
      <line x1="40.5" y1="6.5" x2="0.5" y2="6.5" fill="none" stroke="#464646" stroke-miterlimit="10"/>
    <line x1="10.5" y1="7" x2="10.5" y2="36.5" fill="none" stroke="#6f6e6f" stroke-miterlimit="10"/>
    <line x1="20.5" y1="7" x2="20.5" y2="36.5" fill="none" stroke="#6f6e6f" stroke-miterlimit="10"/>
    <line x1="40.5" y1="12.5" x2="0.5" y2="12.5" fill="none" stroke="#6f6e6f" stroke-miterlimit="10"/>
    <line x1="30.5" y1="7" x2="30.5" y2="36.5" fill="none" stroke="#6f6e6f" stroke-miterlimit="10"/>
    <line x1="40.5" y1="18.5" x2="0.5" y2="18.5" fill="none" stroke="#6f6e6f" stroke-miterlimit="10"/>
    <line x1="40.5" y1="24.5" x2="0.5" y2="24.5" fill="none" stroke="#6f6e6f" stroke-miterlimit="10"/>
    <line x1="40.5" y1="30.5" x2="0.5" y2="30.5" fill="none" stroke="#6f6e6f" stroke-miterlimit="10"/>
    <rect x="0.5" y="0.5" width="40" height="36" fill="none" stroke="#464646" stroke-miterlimit="10"/>
    <polygon points="33.5 31.307 47.5 23.212 47.5 39.326 33.5 47.422 33.5 31.307" fill="#3c91af"/>
    <polygon points="19.5 23.211 33.476 15.115 47.5 23.212 33.5 31.307 19.5 23.211" fill="url(#linear-gradient-2)"/>
    <polygon points="33.5 31.307 33.5 47.422 19.5 39.325 19.5 23.211 33.5 31.307" fill="url(#linear-gradient-3)"/>
    <line x1="33.5" y1="31.5858" x2="33.5" y2="47.2328" stroke="#147391" stroke-linejoin="round" fill="url(#linear-gradient-4)"/>
  <polyline points="47.5 23.212 33.5 31.307 19.5 23.211" fill="none" stroke="#147391" stroke-linejoin="round"/>
  <polygon points="21.5 27.839 21.5 36.319 31.5 42.157 31.5 33.677 21.5 27.839" stroke="#147391" stroke-linejoin="round" fill="url(#paper_gradient)"/>
  <line x1="23.5" y1="31" x2="23.5" y2="36" fill="none" stroke="#6e6e6e" stroke-miterlimit="10"/>
  <line x1="25.5" y1="32" x2="25.5" y2="35.5" fill="none" stroke="#6e6e6e" stroke-miterlimit="10"/>
  <line x1="27.5" y1="33" x2="27.5" y2="38" fill="none" stroke="#6e6e6e" stroke-miterlimit="10"/>
  <line x1="29.5" y1="34" x2="29.5" y2="39" fill="none" stroke="#6e6e6e" stroke-miterlimit="10"/>
  <polygon points="43.5 29.503 37.5 32.96 37.5 40.889 43.5 37.432 43.5 29.503" stroke="#147391" stroke-linejoin="round" fill="url(#linear-gradient-5)"/>
  <polyline points="38.822 35.925 40.44 37.544 42.216 31.906" fill="none" stroke="#6e6e6e" stroke-linecap="round" stroke-linejoin="round"/>
  <line x1="40.4775" y1="19.3174" x2="26.7216" y2="27.2719" fill="none" stroke="#147391" stroke-linejoin="round"/>
  <polygon points="33.476 15.115 19.5 23.211 19.5 39.325 33.5 47.422 47.5 39.326 47.5 23.212 33.476 15.115" fill="none" stroke="#464646" stroke-linejoin="round"/>
</svg>
