<svg id="Layer_1" data-name="Layer 1" xmlns="http://www.w3.org/2000/svg" xmlns:xlink="http://www.w3.org/1999/xlink" viewBox="0 0 48 48">
    <linearGradient id="New_Gradient_Swatch_1" data-name="New Gradient Swatch 1" x1="2.5" y1="45.5" x2="45.5" y2="2.5" gradientTransform="matrix(1, 0, 0, -1, 0, 48)" gradientUnits="userSpaceOnUse">
      <stop offset="0" stop-color="#cde6eb"/>
      <stop offset="0.221" stop-color="#c6e2e8"/>
      <stop offset="0.542" stop-color="#b3d8e1"/>
      <stop offset="0.921" stop-color="#93c7d5"/>
      <stop offset="1" stop-color="#8cc3d2"/>
    </linearGradient>
    <linearGradient id="Dark_Blue_Grad" data-name="Dark Blue Grad" x1="14.22" y1="14.22" x2="33.78" y2="33.78" gradientUnits="userSpaceOnUse">
      <stop offset="0" stop-color="#73b4c8"/>
      <stop offset="0.175" stop-color="#6aaec3"/>
      <stop offset="0.457" stop-color="#529eb5"/>
      <stop offset="0.809" stop-color="#2c839f"/>
      <stop offset="1" stop-color="#147391"/>
    </linearGradient>
  <rect width="48" height="48" fill="none"/>
  <rect x="0.5" y="4.5" width="47" height="39" stroke="#464646" stroke-miterlimit="10" fill="url(#New_Gradient_Swatch_1)"/>
  <polyline points="4.5 13 4.5 10.5 7 10.5" fill="none" stroke="#147391" stroke-miterlimit="10"/>
  <polyline points="7 37.5 4.5 37.5 4.5 35" fill="none" stroke="#147391" stroke-miterlimit="10"/>
  <polyline points="41 10.5 43.5 10.5 43.5 13" fill="none" stroke="#147391" stroke-miterlimit="10"/>
  <polyline points="43.5 35 43.5 37.5 41 37.5" fill="none" stroke="#147391" stroke-miterlimit="10"/>
  <line x1="9" y1="10.5" x2="11" y2="10.5" fill="none" stroke="#147391" stroke-miterlimit="10"/>
  <line x1="4.5" y1="23" x2="4.5" y2="25" fill="none" stroke="#147391" stroke-miterlimit="10"/>
  <line x1="4.5" y1="29" x2="4.5" y2="27" fill="none" stroke="#147391" stroke-miterlimit="10"/>
  <line x1="4.5" y1="33" x2="4.5" y2="31" fill="none" stroke="#147391" stroke-miterlimit="10"/>
  <line x1="43.5" y1="23" x2="43.5" y2="25" fill="none" stroke="#147391" stroke-miterlimit="10"/>
  <line x1="4.5" y1="19" x2="4.5" y2="21" fill="none" stroke="#147391" stroke-miterlimit="10"/>
  <line x1="43.5" y1="19" x2="43.5" y2="21" fill="none" stroke="#147391" stroke-miterlimit="10"/>
  <line x1="4.5" y1="15" x2="4.5" y2="17" fill="none" stroke="#147391" stroke-miterlimit="10"/>
  <line x1="43.5" y1="15" x2="43.5" y2="17" fill="none" stroke="#147391" stroke-miterlimit="10"/>
  <line x1="43.5" y1="29" x2="43.5" y2="27" fill="none" stroke="#147391" stroke-miterlimit="10"/>
  <line x1="43.5" y1="33" x2="43.5" y2="31" fill="none" stroke="#147391" stroke-miterlimit="10"/>
  <line x1="13" y1="10.5" x2="15" y2="10.5" fill="none" stroke="#147391" stroke-miterlimit="10"/>
  <line x1="17" y1="10.5" x2="19" y2="10.5" fill="none" stroke="#147391" stroke-miterlimit="10"/>
  <line x1="21" y1="10.5" x2="23" y2="10.5" fill="none" stroke="#147391" stroke-miterlimit="10"/>
  <line x1="25" y1="10.5" x2="27" y2="10.5" fill="none" stroke="#147391" stroke-miterlimit="10"/>
  <line x1="29" y1="10.5" x2="31" y2="10.5" fill="none" stroke="#147391" stroke-miterlimit="10"/>
  <line x1="29" y1="37.5" x2="31" y2="37.5" fill="none" stroke="#147391" stroke-miterlimit="10"/>
  <line x1="33" y1="10.5" x2="35" y2="10.5" fill="none" stroke="#147391" stroke-miterlimit="10"/>
  <line x1="37" y1="10.5" x2="39" y2="10.5" fill="none" stroke="#147391" stroke-miterlimit="10"/>
  <line x1="33" y1="37.5" x2="35" y2="37.5" fill="none" stroke="#147391" stroke-miterlimit="10"/>
  <line x1="9" y1="37.5" x2="11" y2="37.5" fill="none" stroke="#147391" stroke-miterlimit="10"/>
  <line x1="13" y1="37.5" x2="15" y2="37.5" fill="none" stroke="#147391" stroke-miterlimit="10"/>
  <line x1="17" y1="37.5" x2="19" y2="37.5" fill="none" stroke="#147391" stroke-miterlimit="10"/>
  <line x1="21" y1="37.5" x2="23" y2="37.5" fill="none" stroke="#147391" stroke-miterlimit="10"/>
  <line x1="25" y1="37.5" x2="27" y2="37.5" fill="none" stroke="#147391" stroke-miterlimit="10"/>
  <line x1="37" y1="37.5" x2="39" y2="37.5" fill="none" stroke="#147391" stroke-miterlimit="10"/>
  <ellipse cx="24" cy="24" rx="16.5" ry="10.5" stroke="#147391" stroke-miterlimit="10" fill="url(#Dark_Blue_Grad)"/>
    <path d="M32.216,27.75a2.794,2.794,0,0,1-2.683-3.041,3.189,3.189,0,0,1,3.042-3.458,2.588,2.588,0,0,1,2.339,1.305l1.606-1.047A4.177,4.177,0,0,0,32.632,19.5a5.119,5.119,0,0,0-4.64,2.937A2.462,2.462,0,0,0,28.036,22a2.432,2.432,0,0,0-2.691-2.5H22.05L20.6,27.734,18.389,19.5h-.161l-6.035,10h2l.685-1.151h3.878l.292,1.151h5.461a3.234,3.234,0,0,0,3.488-2.6,4.531,4.531,0,0,0,4.151,2.6,4.769,4.769,0,0,0,3.945-1.736l-1.477-1.133A2.919,2.919,0,0,1,32.216,27.75Zm-16.393-.99,1.064-1.808a10.3,10.3,0,0,0,.758-1.618,9.438,9.438,0,0,0,.247,1.633l.452,1.793Zm8.595.99H22.609l.5-2.839h1.53a1.2,1.2,0,0,1,1.338,1.309A1.422,1.422,0,0,1,24.418,27.75Zm.456-4.53H23.4l.353-1.971h1.339a.857.857,0,0,1,.926.9A1.025,1.025,0,0,1,24.874,23.22Zm1.545.9a2.2,2.2,0,0,0,1.316-.983,5.3,5.3,0,0,0-.253,1.559c0,.039.01.074.01.112A2.458,2.458,0,0,0,26.419,24.117Z" fill="#147391" stroke="#147391" stroke-linejoin="round"/>
    <path d="M31.716,27.25a2.794,2.794,0,0,1-2.683-3.041,3.189,3.189,0,0,1,3.042-3.458,2.588,2.588,0,0,1,2.339,1.305l1.606-1.047A4.177,4.177,0,0,0,32.132,19a5.119,5.119,0,0,0-4.639,2.937,2.462,2.462,0,0,0,.043-.437A2.432,2.432,0,0,0,24.844,19H21.55L20.1,27.234,17.889,19h-.161L11.694,29h2l.685-1.151h3.878L18.545,29h5.461a3.234,3.234,0,0,0,3.488-2.6A4.531,4.531,0,0,0,31.645,29a4.769,4.769,0,0,0,3.945-1.736l-1.477-1.133A2.919,2.919,0,0,1,31.716,27.25Zm-16.393-.99,1.064-1.808a10.3,10.3,0,0,0,.758-1.618,9.437,9.437,0,0,0,.247,1.633l.452,1.793Zm8.595.99H22.109l.5-2.838h1.53a1.2,1.2,0,0,1,1.338,1.309A1.422,1.422,0,0,1,23.918,27.25Zm.456-4.53H22.9l.353-1.971h1.339a.857.857,0,0,1,.926.9A1.025,1.025,0,0,1,24.374,22.72Zm1.545.9a2.2,2.2,0,0,0,1.316-.982,5.3,5.3,0,0,0-.253,1.559c0,.039.01.074.01.112A2.458,2.458,0,0,0,25.919,23.617Z" fill="#fff"/>
</svg>
