<svg id="Layer_1" data-name="Layer 1" xmlns="http://www.w3.org/2000/svg" xmlns:xlink="http://www.w3.org/1999/xlink" viewBox="0 0 32.53 48">
    <linearGradient id="New_Gradient_Swatch_1" data-name="New Gradient Swatch 1" x1="10.265" y1="13.17" x2="22.265" y2="25.17" gradientUnits="userSpaceOnUse">
      <stop offset="0" stop-color="#cde6eb"/>
      <stop offset="0.221" stop-color="#c6e2e8"/>
      <stop offset="0.542" stop-color="#b3d8e1"/>
      <stop offset="0.921" stop-color="#93c7d5"/>
      <stop offset="1" stop-color="#8cc3d2"/>
    </linearGradient>
    <linearGradient id="linear-gradient" x1="2.165" y1="21.27" x2="18.365" y2="37.47" gradientUnits="userSpaceOnUse">
      <stop offset="0" stop-color="#afd7e1"/>
      <stop offset="0.159" stop-color="#a4d0dc"/>
      <stop offset="0.706" stop-color="#80bcce"/>
      <stop offset="1" stop-color="#73b4c8"/>
    </linearGradient>
    <linearGradient id="linear-gradient-2" x1="20.826" y1="2.672" x2="26.181" y2="8.026" xlink:href="#New_Gradient_Swatch_1"/>
    <linearGradient id="side_45" data-name="side 45" x1="14.683" y1="8.418" x2="17.847" y2="5.254" gradientUnits="userSpaceOnUse">
      <stop offset="0" stop-color="#7d7d7d"/>
      <stop offset="1" stop-color="#b1b1b1"/>
    </linearGradient>
    <linearGradient id="linear-gradient-4" x1="14.935" y1="7.237" x2="17.595" y2="4.577" gradientUnits="userSpaceOnUse">
      <stop offset="0" stop-color="#fff"/>
      <stop offset="0.232" stop-color="#fafafa"/>
      <stop offset="0.496" stop-color="#ededed"/>
      <stop offset="0.775" stop-color="#d6d6d6"/>
      <stop offset="1" stop-color="#bebebe"/>
    </linearGradient>
    <linearGradient id="side_45-2" x1="22.107" y1="4.916" x2="24.893" y2="2.13" xlink:href="#side_45"/>
    <linearGradient id="linear-gradient-5" x1="32.576" y1="8.922" x2="38.431" y2="14.776" xlink:href="#New_Gradient_Swatch_1"/>
    <linearGradient id="side_45-3" x1="26.683" y1="15.418" x2="29.847" y2="12.254" xlink:href="#side_45"/>
    <linearGradient id="linear-gradient-7" x1="26.935" y1="14.237" x2="29.595" y2="11.577" xlink:href="#linear-gradient-4"/>
    <linearGradient id="side_45-4" x1="33.857" y1="11.666" x2="37.143" y2="8.38" xlink:href="#side_45"/>
    <linearGradient id="linear-gradient-8" x1="8.576" y1="8.922" x2="14.431" y2="14.776" xlink:href="#New_Gradient_Swatch_1"/>
    <linearGradient id="side_45-5" x1="2.683" y1="15.418" x2="5.847" y2="12.254" xlink:href="#side_45"/>
    <linearGradient id="linear-gradient-10" x1="2.935" y1="14.237" x2="5.595" y2="11.577" xlink:href="#linear-gradient-4"/>
    <linearGradient id="side_45-6" x1="9.857" y1="11.666" x2="13.143" y2="8.38" xlink:href="#side_45"/>
  <line x1="24.827" y1="34.531" x2="31.265" y2="38.5" fill="none" stroke="#969696" stroke-linejoin="round"/>
  <line x1="21.813" y1="36.272" x2="28.25" y2="40.241" fill="none" stroke="#969696" stroke-linejoin="round"/>
  <line x1="18.798" y1="38.012" x2="25.235" y2="41.981" fill="none" stroke="#969696" stroke-linejoin="round"/>
  <line x1="15.783" y1="39.753" x2="22.221" y2="43.722" fill="none" stroke="#969696" stroke-linejoin="round"/>
  <line x1="7.937" y1="34.531" x2="1.5" y2="38.5" fill="none" stroke="#969696" stroke-linejoin="round"/>
  <line x1="10.952" y1="36.272" x2="4.515" y2="40.241" fill="none" stroke="#969696" stroke-linejoin="round"/>
  <line x1="13.967" y1="38.012" x2="7.53" y2="41.981" fill="none" stroke="#969696" stroke-linejoin="round"/>
  <line x1="16.982" y1="39.753" x2="10.544" y2="43.722" fill="none" stroke="#969696" stroke-linejoin="round"/>
  <polyline points="13.559 45.462 16.265 43.722 19.206 45.462" fill="none" stroke="#969696" stroke-linejoin="round"/>
    <polygon points="16.265 26.37 16.265 39.57 28.265 32.37 28.265 19.17 16.265 26.37" fill="#3c91af"/>
    <polygon points="28.265 19.17 16.265 26.37 4.265 19.17 16.265 11.97 28.265 19.17" fill="url(#New_Gradient_Swatch_1)"/>
    <polyline points="4.265 19.17 4.265 19.17 16.265 26.37 16.265 39.57 4.265 32.37 4.265 19.17" fill="url(#linear-gradient)"/>
    <line x1="16.265" y1="26.37" x2="16.265" y2="39.57" fill="none" stroke="#147391" stroke-linejoin="round"/>
    <polyline points="28.265 19.17 16.265 26.37 4.265 19.17 16.265 11.97" fill="none" stroke="#147391" stroke-linejoin="bevel"/>
    <path d="M11.5,32.37l12,7.2,12-7.2V19.17l-12-7.2-12,7.2v13.2" transform="translate(-7.235 0)" fill="none" stroke="#464646" stroke-miterlimit="10"/>
    <circle cx="4.265" cy="32.5" r="2" fill="#f0f0f0" stroke="#464646"/>
    <circle cx="4.265" cy="19.5" r="2" fill="#f0f0f0" stroke="#464646"/>
    <circle cx="28.265" cy="32.5" r="2" fill="#f0f0f0" stroke="#464646"/>
    <circle cx="28.265" cy="19.5" r="2" fill="#f0f0f0" stroke="#464646"/>
    <circle cx="16.265" cy="39.5" r="2" fill="#f0f0f0" stroke="#464646"/>
    <circle cx="16.265" cy="26.5" r="2" fill="#f0f0f0" stroke="#464646"/>
    <circle cx="16.265" cy="12.5" r="2" fill="#f0f0f0" stroke="#464646"/>
      <path d="M23.5,10.5a.5.5,0,0,1-.424-.235l-2.431-3.89a.867.867,0,0,1-.145-.468c0-.774.964-1.185,2-1.337V1.236A.9.9,0,0,1,23.5.5c.542,0,.952.279,1,.679l0,3.391c1.035.152,2,.563,2,1.337a1.044,1.044,0,0,1-.11.415l-2.466,3.944a.5.5,0,0,1-.424.234Z" transform="translate(-7.235 0)" fill="url(#linear-gradient-2)"/>
      <path d="M23.5,1c.266,0,.486.1.5.236l0,3.782c1.141.084,2,.45,2,.889a.7.7,0,0,1-.062.2L23.5,10,21.068,6.11a.388.388,0,0,1-.068-.2c0-.439.859-.8,2-.889V1.236c.015-.131.234-.236.5-.236m0-1a1.382,1.382,0,0,0-1.493,1.12A.914.914,0,0,0,22,1.236V4.15c-1.269.274-2,.9-2,1.757a1.361,1.361,0,0,0,.224.738l2.428,3.885A1,1,0,0,0,23.5,11h0a1,1,0,0,0,.847-.469L26.785,6.64a1.177,1.177,0,0,0,.058-.1A1.5,1.5,0,0,0,27,5.907c0-.855-.731-1.483-2-1.757l0-2.913A1.148,1.148,0,0,0,25,1.12,1.384,1.384,0,0,0,23.5,0Z" transform="translate(-7.235 0)" fill="#464646"/>
      <path d="M23.5,10.5a.5.5,0,0,1-.424-.235l-2.431-3.89a.867.867,0,0,1-.145-.468c0-.774.964-1.185,2-1.337V1.236A.9.9,0,0,1,23.5.5c.542,0,.952.279,1,.679l0,3.391c1.035.152,2,.563,2,1.337a1.044,1.044,0,0,1-.11.415l-2.466,3.944a.5.5,0,0,1-.424.234Z" transform="translate(-7.235 0)" fill="url(#linear-gradient-2)"/>
      <path d="M23.5,1c.266,0,.486.1.5.236l0,3.782c1.141.084,2,.45,2,.889a.7.7,0,0,1-.062.2L23.5,10,21.068,6.11a.388.388,0,0,1-.068-.2c0-.439.859-.8,2-.889V1.236c.015-.131.234-.236.5-.236m0-1a1.382,1.382,0,0,0-1.493,1.12A.914.914,0,0,0,22,1.236V4.15c-1.269.274-2,.9-2,1.757a1.361,1.361,0,0,0,.224.738l2.428,3.885A1,1,0,0,0,23.5,11h0a1,1,0,0,0,.847-.469L26.785,6.64a1.177,1.177,0,0,0,.058-.1A1.5,1.5,0,0,0,27,5.907c0-.855-.731-1.483-2-1.757l0-2.913A1.148,1.148,0,0,0,25,1.12,1.384,1.384,0,0,0,23.5,0Z" transform="translate(-7.235 0)" fill="#464646"/>
    <polygon points="16.265 10 18.703 6.11 13.828 6.11 16.265 10" fill="url(#side_45)"/>
    <ellipse cx="16.265" cy="5.907" rx="2.5" ry="0.907" fill="url(#linear-gradient-4)"/>
    <path d="M24,1.237H23v4.51h0v0c0,.139.224.251.5.251s.5-.112.5-.251v0h0Z" transform="translate(-7.235 0)" fill="url(#side_45-2)"/>
    <ellipse cx="16.265" cy="1.251" rx="0.5" ry="0.251" fill="#fff"/>
      <path d="M35.5,17.5a.5.5,0,0,1-.424-.235l-2.431-3.89a.867.867,0,0,1-.145-.468c0-.774.964-1.185,2-1.337V7.236a.9.9,0,0,1,1-.736c.542,0,.952.279,1,.679l0,4.391c1.035.152,2,.563,2,1.337a1.044,1.044,0,0,1-.11.415l-2.466,3.944a.5.5,0,0,1-.424.234Z" transform="translate(-7.235 0)" fill="url(#linear-gradient-5)"/>
      <path d="M35.5,7c.266,0,.486.105.5.237l0,4.781c1.141.084,2,.45,2,.889a.7.7,0,0,1-.062.2L35.5,17l-2.432-3.89a.388.388,0,0,1-.068-.2c0-.439.859-.8,2-.889V7.237c.015-.132.234-.237.5-.237m0-1a1.382,1.382,0,0,0-1.493,1.12A.918.918,0,0,0,34,7.237V11.15c-1.269.274-2,.9-2,1.757a1.361,1.361,0,0,0,.224.738l2.428,3.885A1,1,0,0,0,35.5,18h0a1,1,0,0,0,.847-.469l2.438-3.891a1.177,1.177,0,0,0,.058-.105A1.5,1.5,0,0,0,39,12.907c0-.855-.731-1.483-2-1.757l0-3.913a1.148,1.148,0,0,0-.007-.117A1.384,1.384,0,0,0,35.5,6Z" transform="translate(-7.235 0)" fill="#464646"/>
      <path d="M35.5,17.5a.5.5,0,0,1-.424-.235l-2.431-3.89a.867.867,0,0,1-.145-.468c0-.774.964-1.185,2-1.337V7.236a.9.9,0,0,1,1-.736c.542,0,.952.279,1,.679l0,4.391c1.035.152,2,.563,2,1.337a1.044,1.044,0,0,1-.11.415l-2.466,3.944a.5.5,0,0,1-.424.234Z" transform="translate(-7.235 0)" fill="url(#linear-gradient-5)"/>
      <path d="M35.5,7c.266,0,.486.105.5.237l0,4.781c1.141.084,2,.45,2,.889a.7.7,0,0,1-.062.2L35.5,17l-2.432-3.89a.388.388,0,0,1-.068-.2c0-.439.859-.8,2-.889V7.237c.015-.132.234-.237.5-.237m0-1a1.382,1.382,0,0,0-1.493,1.12A.918.918,0,0,0,34,7.237V11.15c-1.269.274-2,.9-2,1.757a1.361,1.361,0,0,0,.224.738l2.428,3.885A1,1,0,0,0,35.5,18h0a1,1,0,0,0,.847-.469l2.438-3.891a1.177,1.177,0,0,0,.058-.105A1.5,1.5,0,0,0,39,12.907c0-.855-.731-1.483-2-1.757l0-3.913a1.148,1.148,0,0,0-.007-.117A1.384,1.384,0,0,0,35.5,6Z" transform="translate(-7.235 0)" fill="#464646"/>
    <polygon points="28.265 17 30.703 13.11 25.828 13.11 28.265 17" fill="url(#side_45-3)"/>
    <ellipse cx="28.265" cy="12.907" rx="2.5" ry="0.907" fill="url(#linear-gradient-7)"/>
    <path d="M36,7.237H35v5.51h0v0c0,.139.224.251.5.251s.5-.112.5-.251v0h0Z" transform="translate(-7.235 0)" fill="url(#side_45-4)"/>
    <ellipse cx="28.265" cy="7.251" rx="0.5" ry="0.251" fill="#fff"/>
      <path d="M11.5,17.5a.5.5,0,0,1-.424-.235l-2.431-3.89a.867.867,0,0,1-.145-.468c0-.774.964-1.185,2-1.337V7.236a.9.9,0,0,1,1-.736c.542,0,.952.279,1,.679l0,4.391c1.035.152,2,.563,2,1.337a1.044,1.044,0,0,1-.11.415l-2.466,3.944a.5.5,0,0,1-.424.234Z" transform="translate(-7.235 0)" fill="url(#linear-gradient-8)"/>
      <path d="M11.5,7c.266,0,.486.105.5.237l0,4.781c1.141.084,2,.45,2,.889a.7.7,0,0,1-.062.2L11.5,17,9.068,13.11a.388.388,0,0,1-.068-.2c0-.439.859-.8,2-.889V7.237c.015-.132.234-.237.5-.237m0-1a1.382,1.382,0,0,0-1.493,1.12A.918.918,0,0,0,10,7.237V11.15c-1.269.274-2,.9-2,1.757a1.361,1.361,0,0,0,.224.738l2.428,3.885A1,1,0,0,0,11.5,18h0a1,1,0,0,0,.847-.469l2.438-3.891a.963.963,0,0,0,.057-.105A1.484,1.484,0,0,0,15,12.907c0-.855-.731-1.483-2-1.757l0-3.913A1.148,1.148,0,0,0,13,7.12,1.384,1.384,0,0,0,11.5,6Z" transform="translate(-7.235 0)" fill="#464646"/>
      <path d="M11.5,17.5a.5.5,0,0,1-.424-.235l-2.431-3.89a.867.867,0,0,1-.145-.468c0-.774.964-1.185,2-1.337V7.236a.9.9,0,0,1,1-.736c.542,0,.952.279,1,.679l0,4.391c1.035.152,2,.563,2,1.337a1.044,1.044,0,0,1-.11.415l-2.466,3.944a.5.5,0,0,1-.424.234Z" transform="translate(-7.235 0)" fill="url(#linear-gradient-8)"/>
      <path d="M11.5,7c.266,0,.486.105.5.237l0,4.781c1.141.084,2,.45,2,.889a.7.7,0,0,1-.062.2L11.5,17,9.068,13.11a.388.388,0,0,1-.068-.2c0-.439.859-.8,2-.889V7.237c.015-.132.234-.237.5-.237m0-1a1.382,1.382,0,0,0-1.493,1.12A.918.918,0,0,0,10,7.237V11.15c-1.269.274-2,.9-2,1.757a1.361,1.361,0,0,0,.224.738l2.428,3.885A1,1,0,0,0,11.5,18h0a1,1,0,0,0,.847-.469l2.438-3.891a.963.963,0,0,0,.057-.105A1.484,1.484,0,0,0,15,12.907c0-.855-.731-1.483-2-1.757l0-3.913A1.148,1.148,0,0,0,13,7.12,1.384,1.384,0,0,0,11.5,6Z" transform="translate(-7.235 0)" fill="#464646"/>
    <polygon points="4.265 17 6.703 13.11 1.828 13.11 4.265 17" fill="url(#side_45-5)"/>
    <ellipse cx="4.265" cy="12.907" rx="2.5" ry="0.907" fill="url(#linear-gradient-10)"/>
    <path d="M12,7.237H11v5.51h0v0c0,.139.224.251.5.251s.5-.112.5-.251v0h0Z" transform="translate(-7.235 0)" fill="url(#side_45-6)"/>
    <ellipse cx="4.265" cy="7.251" rx="0.5" ry="0.251" fill="#fff"/>
  <polyline points="0.265 37.5 16.265 47.5 32.265 37.5" fill="none" stroke="#969696" stroke-linejoin="round"/>
</svg>
