<svg id="Layer_1" data-name="Layer 1" xmlns="http://www.w3.org/2000/svg" xmlns:xlink="http://www.w3.org/1999/xlink" viewBox="0 0 48 48">
    <linearGradient id="Dark_Blue_Grad" data-name="Dark Blue Grad" x1="-4" y1="5" x2="21" y2="30" gradientUnits="userSpaceOnUse">
      <stop offset="0" stop-color="#73b4c8"/>
      <stop offset="0.1747" stop-color="#6aaec3"/>
      <stop offset="0.4567" stop-color="#529eb5"/>
      <stop offset="0.8089" stop-color="#2c839f"/>
      <stop offset="1" stop-color="#147391"/>
    </linearGradient>
    <linearGradient id="Dark_Blue_Grad-2" x1="15" y1="5" x2="40" y2="30" xlink:href="#Dark_Blue_Grad"/>
    <linearGradient id="Dark_Blue_Grad-3" x1="17" y1="16.5" x2="19" y2="18.5" xlink:href="#Dark_Blue_Grad"/>
    <linearGradient id="paper_gradient" data-name="paper gradient" x1="21.6893" y1="30.068" x2="43.3106" y2="51.6893" gradientUnits="userSpaceOnUse">
      <stop offset="0" stop-color="#fff"/>
      <stop offset="0.2214" stop-color="#f8f8f8"/>
      <stop offset="0.5415" stop-color="#e5e5e5"/>
      <stop offset="0.92" stop-color="#c6c6c6"/>
      <stop offset="1" stop-color="#bebebe"/>
    </linearGradient>
    <linearGradient id="paper_gradient-2" x1="23.75" y1="30.25" x2="26.25" y2="32.75" xlink:href="#paper_gradient"/>
    <linearGradient id="paper_gradient-3" x1="24.75" y1="28.25" x2="28.25" y2="31.75" xlink:href="#paper_gradient"/>
    <linearGradient id="paper_gradient-4" x1="38.75" y1="30.25" x2="41.25" y2="32.75" xlink:href="#paper_gradient"/>
    <linearGradient id="paper_gradient-5" x1="36.75" y1="28.25" x2="40.25" y2="31.75" xlink:href="#paper_gradient"/>
  <rect x="0.5" y="0.5" width="16" height="34" stroke="#464646" stroke-miterlimit="10" fill="url(#Dark_Blue_Grad)"/>
  <rect x="19.5" y="0.5" width="16" height="34" stroke="#464646" stroke-miterlimit="10" fill="url(#Dark_Blue_Grad-2)"/>
    <line x1="6" y1="17.5" x2="17" y2="17.5" fill="none" stroke="#147391" stroke-miterlimit="10" stroke-width="3"/>
    <polyline points="10.5 12.5 5.5 17.5 10.5 22.5" fill="none" stroke="#147391" stroke-linecap="round" stroke-linejoin="round" stroke-width="3"/>
  <line x1="16" y1="17.5" x2="20" y2="17.5" stroke="#464646" stroke-miterlimit="10" stroke-width="5" fill="url(#Dark_Blue_Grad-3)"/>
    <path d="M20.5,32.5h24a3,3,0,0,1,3,3v12a0,0,0,0,1,0,0h-30a0,0,0,0,1,0,0v-12A3,3,0,0,1,20.5,32.5Z" stroke="#464646" stroke-miterlimit="10" fill="url(#paper_gradient)"/>
    <line x1="18" y1="37.5" x2="47" y2="37.5" fill="none" stroke="#6e6e6e" stroke-miterlimit="10"/>
    <rect x="22.5" y="35.5" width="3" height="5" fill="#a0a0a0" stroke="#6e6e6e" stroke-miterlimit="10"/>
    <rect x="23.5" y="30.5" width="3" height="2" stroke="#464646" stroke-linejoin="round" fill="url(#paper_gradient-2)"/>
    <rect x="25.5" y="27.5" width="2" height="5" stroke="#464646" stroke-linejoin="round" fill="url(#paper_gradient-3)"/>
    <rect x="27.5" y="27.5" width="10" height="2" fill="#a0a0a0" stroke="#464646" stroke-miterlimit="10"/>
    <rect x="38.5" y="30.5" width="3" height="2" stroke="#464646" stroke-linejoin="round" fill="url(#paper_gradient-4)"/>
    <rect x="39.5" y="35.5" width="3" height="5" fill="#a0a0a0" stroke="#6e6e6e" stroke-miterlimit="10"/>
    <rect x="37.5" y="27.5" width="2" height="5" stroke="#464646" stroke-linejoin="round" fill="url(#paper_gradient-5)"/>
    <line x1="5.5" y1="17.5" x2="30.5" y2="17.5" fill="none" stroke="#147391" stroke-miterlimit="10" stroke-width="3"/>
    <polyline points="25.5 12.5 30.5 17.5 25.5 22.5" fill="none" stroke="#147391" stroke-linecap="round" stroke-linejoin="round" stroke-width="3"/>
    <polyline points="25.5 12.5 30.5 17.5 25.5 22.5" fill="none" stroke="#fff" stroke-linecap="round" stroke-linejoin="round"/>
  <line x1="5.5" y1="17.5" x2="30.5" y2="17.5" fill="none" stroke="#fff" stroke-miterlimit="10"/>
  <polyline points="10.5 12.5 5.5 17.5 10.5 22.5" fill="none" stroke="#fff" stroke-linecap="round" stroke-linejoin="round"/>
</svg>
