<svg version="1.1" id="Layer_1" xmlns="http://www.w3.org/2000/svg" xmlns:xlink="http://www.w3.org/1999/xlink" x="0px" y="0px"
	 viewBox="0 0 48 48" enable-background="new 0 0 48 48" xml:space="preserve">
<linearGradient id="SVGID_1_" gradientUnits="userSpaceOnUse" x1="193.2" y1="1470.8" x2="171.1" y2="1448.7" gradientTransform="matrix(-1 0 0 -1 202 1463)">
	<stop  offset="0" style="stop-color:#F2F2F2"/>
	<stop  offset="0.5" style="stop-color:#CCCCCC"/>
	<stop  offset="0.63" style="stop-color:#C7C7C7"/>
	<stop  offset="0.779" style="stop-color:#B9B9B9"/>
	<stop  offset="0.938" style="stop-color:#A2A2A2"/>
	<stop  offset="0.99" style="stop-color:#999999"/>
</linearGradient>
<rect x="0.5" y="0.5" fill="url(#SVGID_1_)" width="38.7" height="5.5"/>
<linearGradient id="SVGID_2_" gradientUnits="userSpaceOnUse" x1="198.725" y1="1459.775" x2="165.575" y2="1426.625" gradientTransform="matrix(-1 0 0 -1 202 1463)">
	<stop  offset="0" style="stop-color:#FFFFFF"/>
	<stop  offset="0.232" style="stop-color:#FAFAFA"/>
	<stop  offset="0.496" style="stop-color:#EDEDED"/>
	<stop  offset="0.775" style="stop-color:#D6D6D6"/>
	<stop  offset="1" style="stop-color:#BEBEBE"/>
</linearGradient>
<rect x="0.5" y="6" fill="url(#SVGID_2_)" width="38.7" height="27.6"/>
<line fill="none" stroke="#A0A0A0" stroke-miterlimit="10" x1="5.5" y1="11.6" x2="33.7" y2="11.6"/>
<line fill="none" stroke="#A0A0A0" stroke-miterlimit="10" x1="5.5" y1="17.1" x2="33.8" y2="17.1"/>
<line fill="none" stroke="#A0A0A0" stroke-miterlimit="10" x1="5.5" y1="22.6" x2="15.1" y2="22.6"/>
<line fill="none" stroke="#A0A0A0" stroke-miterlimit="10" x1="5.5" y1="28.1" x2="14.8" y2="28.1"/>
<rect x="35.3" y="2.2" fill="#6E6E6E" width="2.2" height="2.2"/>
<rect x="30.9" y="2.2" fill="#6E6E6E" width="2.2" height="2.2"/>
<rect x="26.5" y="2.2" fill="#6E6E6E" width="2.2" height="2.2"/>
<line fill="none" stroke="#6E6E6E" stroke-miterlimit="10" x1="1.1" y1="6" x2="38.6" y2="6"/>
<rect x="0.5" y="0.5" fill="none" stroke="#464646" stroke-miterlimit="10" width="38.7" height="33.2"/>
<linearGradient id="SVGID_3_" gradientUnits="userSpaceOnUse" x1="21.8242" y1="18.7852" x2="49.0195" y2="45.9805">
	<stop  offset="0" style="stop-color:#73B4C8"/>
	<stop  offset="0.1747" style="stop-color:#6AAEC3"/>
	<stop  offset="0.4567" style="stop-color:#529EB5"/>
	<stop  offset="0.8089" style="stop-color:#2C839F"/>
	<stop  offset="1" style="stop-color:#147391"/>
</linearGradient>
<polygon fill="url(#SVGID_3_)" stroke="#464646" stroke-linecap="round" stroke-linejoin="round" stroke-miterlimit="10" points="
	47.5,47.5 17.7,47.5 17.7,22.9 29.7,30.7 29.7,22.9 41.9,30.7 41.9,11.7 47.5,11.7 "/>
<rect x="21.7" y="36.1" fill="#FFFFFF" stroke="#147391" stroke-miterlimit="10" width="5.2" height="5.2"/>
<rect x="32.8" y="36.1" fill="#FFFFFF" stroke="#147391" stroke-miterlimit="10" width="5.2" height="5.2"/>
</svg>
