<svg id="Layer_1" data-name="Layer 1" xmlns="http://www.w3.org/2000/svg" xmlns:xlink="http://www.w3.org/1999/xlink" viewBox="0 0 48 48">
    <linearGradient id="linear-gradient" x1="17.092" y1="1.999" x2="44.908" y2="29.815" gradientUnits="userSpaceOnUse">
      <stop offset="0" stop-color="#fff"/>
      <stop offset="1" stop-color="#bebebe"/>
    </linearGradient>
    <linearGradient id="linear-gradient-2" x1="7.949" y1="15.6019" x2="17.051" y2="24.704" xlink:href="#linear-gradient"/>
    <linearGradient id="Dark_Blue_Grad" data-name="Dark Blue Grad" x1="2.7605" y1="30.2815" x2="22.2395" y2="49.7605" gradientUnits="userSpaceOnUse">
      <stop offset="0" stop-color="#73b4c8"/>
      <stop offset="0.1747" stop-color="#6aaec3"/>
      <stop offset="0.4567" stop-color="#529eb5"/>
      <stop offset="0.8089" stop-color="#2c839f"/>
      <stop offset="1" stop-color="#147391"/>
    </linearGradient>
  <path d="M31,.5A35.1561,35.1561,0,0,0,14.5,4.591V18.5729A20.9012,20.9012,0,0,0,31,39,20.9012,20.9012,0,0,0,47.5,18.5729V4.591A35.1561,35.1561,0,0,0,31,.5Z" stroke="#464646" stroke-miterlimit="10" fill="url(#linear-gradient)"/>
    <path d="M44.2974,18.6182,39.2516,9.1573c-.1579-.293-1.5927-2.8356-3.8-2.8356h-.02c-1.3882.0126-2.5789.9729-3.5459,2.8545a.75.75,0,0,0,.324,1.01l.8887.457a.75.75,0,0,0,1.01-.3237c.5666-1.101,1.076-1.4948,1.34-1.4976.482,0,1.257.8854,1.6017,1.52.77,1.5123,1.8674,3.6863,2.5676,5.1048a8.3223,8.3223,0,0,0-1.4525-.1278,7.0615,7.0615,0,0,0-5.6342,2.503H29.47a7.0643,7.0643,0,0,0-5.6361-2.503,8.2973,8.2973,0,0,0-1.4481.1274c.6989-1.4085,1.7874-3.5566,2.5565-5.0627.3334-.62,1.1058-1.5042,1.59-1.5042.2681.0025.7776.396,1.3438,1.4973a.75.75,0,0,0,1.01.324l.8887-.457a.75.75,0,0,0,.324-1.01c-.9663-1.88-2.1572-2.8407-3.54-2.8544-2.2483,0-3.6722,2.5458-3.8272,2.8361L17.6878,18.65a4.247,4.247,0,0,0-.4378,1.8483c0,2.8561,2.9536,5.18,6.584,5.18s6.5849-2.3236,6.5849-5.18q0-.13-.0084-.2609a6.8471,6.8471,0,0,1,.8085-.048q.1863,0,.3735.01-.0115.15-.0114.2987c0,2.8561,2.9535,5.18,6.5839,5.18s6.585-2.3236,6.585-5.18A4.2207,4.2207,0,0,0,44.2974,18.6182Zm-6.1324,6.31c-3.2168,0-5.8339-1.9873-5.8339-4.43a3.4108,3.4108,0,0,1,.14-.9553,7.5994,7.5994,0,0,0-2.9176.0815,3.4077,3.4077,0,0,1,.1151.8738c0,2.4424-2.6171,4.43-5.8349,4.43S18,22.9409,18,20.4985a3.4707,3.4707,0,0,1,.3492-1.4947l5.0444-9.435c.0537-.1006,1.3339-2.4395,3.1386-2.4395h.02c1.082.0108,2.0507.834,2.88,2.4473l-.8886.4571c-.4444-.8643-1.1524-1.8966-2-1.9044h-.0108c-1.0068,0-1.9707,1.3789-2.2578,1.9132,0,0-3.3645,6.5891-3.2764,6.5891l.0011,0a7.2591,7.2591,0,0,1,2.8349-.5625,6.1986,6.1986,0,0,1,5.2467,2.503h3.84a6.1932,6.1932,0,0,1,5.2447-2.503,7.2653,7.2653,0,0,1,2.8315.56l.0012,0c.0942,0-3.2887-6.6454-3.2887-6.6454-.2891-.5323-1.2559-1.9122-2.2578-1.9122H35.44c-.8476.0088-1.5547,1.041-1.999,1.9044l-.8887-.4571c.8291-1.6133,1.7989-2.4375,2.8789-2.4473h.02c1.8056,0,3.0849,2.3389,3.1386,2.4385l5.0351,9.44A3.4789,3.4789,0,0,1,44,20.4985C44,22.9409,41.3828,24.9282,38.165,24.9282Z" fill="#147391"/>
    <path d="M43.6249,18.95,38.59,9.51c-.0537-.1-1.333-2.4385-3.1386-2.4385h-.02c-1.08.01-2.05.834-2.8789,2.4473l.8887.4571c.4443-.8634,1.1514-1.8956,1.999-1.9044h.0108c1.0019,0,1.9687,1.38,2.2578,1.9122,0,0,3.3829,6.6454,3.2887,6.6454l-.0012,0a7.2653,7.2653,0,0,0-2.8315-.56,6.1932,6.1932,0,0,0-5.2447,2.503h-3.84a6.1986,6.1986,0,0,0-5.2467-2.503,7.2591,7.2591,0,0,0-2.8349.5625l-.0011,0c-.0881,0,3.2764-6.5891,3.2764-6.5891.2871-.5343,1.251-1.9132,2.2578-1.9132h.0108c.8476.0078,1.5556,1.04,2,1.9044l.8886-.4571c-.8291-1.6133-1.7978-2.4365-2.88-2.4473h-.02c-1.8047,0-3.0849,2.3389-3.1386,2.44l-5.0444,9.435A3.4707,3.4707,0,0,0,18,20.4985c0,2.4424,2.6172,4.43,5.834,4.43s5.8349-1.9873,5.8349-4.43a3.4077,3.4077,0,0,0-.1151-.8738,7.5994,7.5994,0,0,1,2.9176-.0815,3.4108,3.4108,0,0,0-.14.9553c0,2.4424,2.6171,4.43,5.8339,4.43S44,22.9409,44,20.4985A3.4789,3.4789,0,0,0,43.6249,18.95ZM23.834,23.9282c-2.6651,0-4.834-1.5381-4.834-3.43a2.558,2.558,0,0,1,.332-1.2232l.0841-.1571a5.1847,5.1847,0,0,1,4.4179-2.0494c2.666,0,4.8349,1.5381,4.8349,3.43S26.5,23.9282,23.834,23.9282Zm14.331,0c-2.665,0-4.8339-1.5381-4.8339-3.43s2.1689-3.43,4.8339-3.43S43,18.6069,43,20.4985,40.8311,23.9282,38.165,23.9282Z" fill="#3c91af"/>
    <path d="M18.5,19.625c0,3.3827-2.6863,7.875-6,7.875s-6-4.4923-6-7.875a6.0635,6.0635,0,0,1,6-6.125A6.0635,6.0635,0,0,1,18.5,19.625Z" stroke="#464646" stroke-miterlimit="10" fill="url(#linear-gradient-2)"/>
    <path d="M24.5,47.5V35.4988a7.9667,7.9667,0,0,0-4.8057-7.0133,12.2163,12.2163,0,0,1-14.3886,0A7.9667,7.9667,0,0,0,.5,35.4988V47.5Z" stroke="#464646" stroke-miterlimit="10" fill="url(#Dark_Blue_Grad)"/>
    <line x1="5.5" y1="47" x2="5.5" y2="36" fill="none" stroke="#147391" stroke-miterlimit="10"/>
    <line x1="19.5" y1="47" x2="19.5" y2="36" fill="none" stroke="#147391" stroke-miterlimit="10"/>
</svg>
